<svg xmlns="http://www.w3.org/2000/svg" viewBox="0 0 21 24" height="24" width="21"><title>accessories.svg</title><rect fill="none" x="0" y="0" width="21" height="24"></rect><path fill="#5e758d" transform="translate(2 2)" d="M11.1123 15.5334C14.0547 14.3313 16.1289 11.4402 16.1289 8.06445C16.1289 3.6106 12.5186 0 8.06445 0C3.61035 0 0 3.6106 0 8.06445C0 11.4431 2.07812 14.3364 5.02539 15.5366L7.36914 19.5967C7.67969 20.1345 8.45508 20.1345 8.76562 19.5967L11.1123 15.5334ZM5.67383 3.10718C5.72461 3.07812 5.80664 3.0415 5.85645 3.02881C5.96582 2.99609 6.14355 2.99243 6.25293 3.01978C6.30762 3.03296 6.36133 3.05396 6.41309 3.08179C6.59277 3.177 6.75195 3.35034 6.83301 3.54785C6.90625 3.72803 6.92188 3.83008 6.92188 4.12866V4.38379H6.68164H6.43945L6.43457 4.12329C6.42969 3.86841 6.42773 3.85913 6.38281 3.77173C6.3125 3.64282 6.19531 3.5686 6.0752 3.56592C6.02539 3.56494 5.97461 3.57617 5.92676 3.60059C5.88281 3.62256 5.83105 3.65894 5.8125 3.68262C5.79395 3.7063 5.52344 4.16333 5.21289 4.69702L4.64648 5.66748L5.52344 5.67847C6.2207 5.68579 6.43555 5.69482 6.58594 5.71851C7.0498 5.79492 7.39551 5.90234 7.80762 6.09717L8.00293 6.19019L8.09863 6.14087C8.40039 5.98804 8.76855 5.85498 9.10156 5.77856C9.31152 5.73096 9.43945 5.7085 9.69629 5.6958C9.87305 5.68701 10.1104 5.68286 10.4766 5.67847L11.3535 5.66748L10.7891 4.69702C10.4785 4.16528 10.208 3.70801 10.1895 3.68433C10.1689 3.65894 10.1172 3.62256 10.0732 3.60059C9.9082 3.51685 9.71582 3.58984 9.61719 3.77173C9.57227 3.85913 9.57031 3.86841 9.56543 4.12329L9.56055 4.38379H9.31836H9.07812V4.12866C9.07812 3.9314 9.08496 3.81982 9.11035 3.71484C9.12402 3.66113 9.14258 3.60889 9.16699 3.54785C9.27051 3.29468 9.50977 3.07617 9.74707 3.01978C9.93555 2.97412 10.1562 3.00879 10.3262 3.10889C10.5137 3.21826 10.5566 3.28027 11.2734 4.51855C11.7266 5.29785 11.9551 5.6748 11.9736 5.67651C11.9971 5.67651 12 5.70215 12 5.95898V6.24121H11.8125H11.625V6.30859C11.625 6.34668 11.6035 6.72192 11.5781 7.14429C11.5547 7.54712 11.541 7.74902 11.5264 7.87231C11.5176 7.95312 11.5078 8 11.4951 8.04761C11.4355 8.2644 11.3545 8.41724 11.2051 8.59204C11.0527 8.7688 10.9141 8.87256 10.7266 8.94897L10.6016 9H10C9.41211 9 9.39551 8.99829 9.28125 8.95801C9.03125 8.86523 8.81738 8.69775 8.66211 8.47363C8.57715 8.35059 8.53027 8.26343 8.47656 8.0752C8.43555 7.93237 8.39062 7.7312 8.32324 7.41211C8.24707 7.04419 8.18164 6.73999 8.17969 6.73657C8.17773 6.73462 8.1377 6.75293 8.08887 6.77832L8 6.82397L7.91406 6.77466C7.86719 6.74731 7.82617 6.72925 7.82324 6.73462C7.82031 6.73828 7.75293 7.04419 7.67676 7.41211C7.52051 8.15137 7.4873 8.25708 7.33789 8.47363C7.18262 8.69775 6.96875 8.86523 6.71875 8.95801C6.60449 8.99829 6.58789 9 6 9H5.39844L5.2627 8.9436C5.0752 8.86523 4.91699 8.74512 4.77832 8.57568C4.64355 8.41187 4.55957 8.24976 4.50488 8.04761C4.47949 7.95728 4.46777 7.86914 4.44629 7.5481L4.42188 7.14429C4.39648 6.72192 4.375 6.34668 4.375 6.30859V6.24121H4.1875H4V5.95898C4 5.70215 4.00293 5.67651 4.02832 5.67651C4.04492 5.6748 4.27344 5.29785 4.72656 4.51855C5.44531 3.28027 5.48633 3.21826 5.67383 3.10718Z"></path></svg>