<svg xmlns="http://www.w3.org/2000/svg" viewBox="0 0 21 24" height="24" width="21"><title>alcohol_shop.svg</title><rect fill="none" x="0" y="0" width="21" height="24"></rect><path fill="#d97200" transform="translate(2 2)" d="M16.129 8.06452C16.129 11.4401 14.0551 14.3313 11.112 15.5334L8.76596 19.5968C8.45556 20.1344 7.67955 20.1344 7.36915 19.5968L5.02501 15.5366C2.07765 14.3365 0 11.4431 0 8.06452C0 3.61061 3.61061 0 8.06452 0C12.5184 0 16.129 3.61061 16.129 8.06452ZM7.11319 3.03516C7.08053 3.06836 7.07617 3.16797 7.07617 4.07617V4.76327C7.07503 4.78683 7.07429 4.81414 7.07383 4.84597V5.03933L6.94972 5.09402C6.54691 5.2698 6.26386 5.58035 6.13104 5.99245C6.1112 6.05325 6.09437 6.10482 6.0801 6.15709C6.0004 6.44901 6.0004 6.76269 6.0004 8.82838C5.99822 10.5042 6.00475 11.1272 6.02652 11.3479C6.07225 11.8206 6.1441 12.0881 6.25079 12.1897L6.29869 12.2366H7.77494H9.24901L9.30344 12.178C9.36659 12.1135 9.43626 11.9338 9.47328 11.7483C9.4907 11.6565 9.49941 10.9045 9.50158 9.07252C9.50594 6.43191 9.50376 6.30886 9.41667 6.00417C9.36006 5.80496 9.20764 5.54324 9.06394 5.40261C8.93765 5.27566 8.68072 5.10964 8.54572 5.06668L8.47387 5.04324L8.46516 4.85183C8.46129 4.76547 8.46297 4.70645 8.44791 4.66616V4.07226C8.44791 3.12109 8.44573 3.0625 8.40871 3.0332C8.37388 3.00391 8.29549 3 7.75768 3C7.19593 3 7.14585 3.00195 7.11319 3.03516ZM8.90281 7.51393C8.88757 7.47487 8.85709 7.44753 8.81354 7.43386C8.72645 7.40651 6.7407 7.40651 6.65796 7.43386C6.62312 7.44557 6.59046 7.47682 6.5774 7.51393C6.54473 7.59792 6.54473 10.4885 6.5774 10.5725C6.59264 10.6116 6.62312 10.6389 6.66667 10.6526C6.75812 10.6819 8.74822 10.6819 8.83314 10.6526C8.8658 10.6428 8.90063 10.6213 8.90934 10.6096C8.93765 10.5706 8.93112 7.58425 8.90281 7.51393Z"></path></svg>