<svg xmlns="http://www.w3.org/2000/svg" viewBox="0 0 17 20" height="20" width="17"><title>antiques.svg</title><rect fill="none" x="0" y="0" width="17" height="20"></rect><path fill="#5e758d" transform="translate(0 0)" d="M11.1123 15.5334C14.0547 14.3313 16.1289 11.4402 16.1289 8.06445C16.1289 3.6106 12.5186 0 8.06445 0C3.61035 0 0 3.6106 0 8.06445C0 11.4431 2.07812 14.3364 5.02539 15.5366L7.36914 19.5967C7.67969 20.1345 8.45508 20.1345 8.76562 19.5967L11.1123 15.5334ZM7.35742 3.03979C7.45508 3.02734 7.55273 3.01294 7.57129 3.00854L7.70605 3.00415L7.98047 3.00024C8.75195 2.99609 9.39453 3.16284 10.0303 3.53174C10.292 3.68579 10.6631 3.98584 10.8447 4.19434L10.9639 4.32983H11.4346L11.5195 4.33008C11.8018 4.33057 11.918 4.33081 11.9658 4.38818C12 4.42871 11.999 4.4978 11.999 4.61548V4.66528V4.73779C12.001 4.83228 12.002 4.89258 11.9727 4.9314C11.9385 4.97803 11.8613 4.99292 11.6895 4.99731C11.6074 4.99927 11.5049 4.99902 11.376 4.99878L11.209 4.99854H10.5107L10.3828 4.81934C10.1494 4.49438 9.74707 4.16919 9.33008 3.96924C8.53809 3.59009 7.46191 3.59009 6.66992 3.96924C6.25293 4.16919 5.85059 4.49438 5.61719 4.81934L5.48926 4.99854H4.79395L4.62598 4.99878C4.22266 4.99976 4.07812 5.00024 4.02734 4.93115C3.99805 4.89258 3.99902 4.83203 4.00098 4.73755V4.66528V4.61548C4.00098 4.55835 4.00098 4.5127 4.00488 4.47632C4.00879 4.4375 4.0166 4.40918 4.03418 4.38818C4.08203 4.33081 4.19824 4.33057 4.48047 4.33008L4.56543 4.32983H5.03613L5.15527 4.19434C5.33691 3.98584 5.70801 3.68579 5.96973 3.53174C6.23047 3.38086 6.52637 3.25317 6.82129 3.16235C7.00293 3.10645 7.18457 3.06445 7.35742 3.03979ZM5.78613 5.16748C6.11426 4.60059 6.74805 4.17969 7.47656 4.03809C7.63281 4.00781 7.88867 3.99756 8.13086 4.00537C8.32227 4.01172 8.50488 4.02905 8.62305 4.05664C9.30664 4.21924 9.9043 4.63599 10.2139 5.16748C10.2656 5.25708 10.3018 5.29028 10.3584 5.30908C10.4043 5.32153 10.6035 5.33203 10.835 5.33203H11.2373V8.49927V11.6665H8H4.7627V8.49927V5.33203H5.16504C5.39551 5.33203 5.5957 5.32153 5.64062 5.30908C5.69824 5.29028 5.7334 5.25708 5.78613 5.16748ZM8 4.99854C7.86133 4.99854 7.80957 4.94434 7.80957 4.80054V4.78638C7.80957 4.74121 7.80957 4.71411 7.7959 4.70093C7.77637 4.6814 7.72559 4.69312 7.59863 4.72241L7.57617 4.72778C7.23242 4.80762 6.92188 4.98926 6.69434 5.22998C6.53711 5.39722 6.41895 5.59302 6.35742 5.80298C6.33105 5.89258 6.30957 5.97168 6.30957 5.98218C6.30957 5.99048 6.36914 5.99878 6.44043 5.99878C6.60547 5.99878 6.66699 6.04468 6.66699 6.16553C6.66699 6.28638 6.60547 6.33228 6.44043 6.33228C6.36914 6.33228 6.30957 6.34058 6.30957 6.34888C6.30957 6.35938 6.33105 6.43848 6.35742 6.52808C6.50781 7.04492 6.99512 7.47192 7.58594 7.60327C7.68848 7.62622 7.77832 7.64502 7.79004 7.64502C7.79492 7.64502 7.7998 7.63232 7.80273 7.61206C7.80664 7.59131 7.80957 7.56201 7.80957 7.53027C7.80957 7.44238 7.8291 7.38794 7.87598 7.35889C7.90527 7.34033 7.94629 7.33228 8 7.33228C8.1377 7.33228 8.19043 7.38647 8.19043 7.53027C8.19043 7.59277 8.2002 7.64502 8.20898 7.64502C8.2207 7.64502 8.31152 7.62622 8.41406 7.60327C8.7373 7.53125 9.03027 7.37012 9.25391 7.15381C9.43848 6.97607 9.5752 6.76123 9.64258 6.52808C9.66797 6.43848 9.68945 6.35938 9.68945 6.34888C9.68945 6.34058 9.62988 6.33228 9.55859 6.33228C9.39453 6.33228 9.33301 6.28638 9.33301 6.16553C9.33301 6.04468 9.39453 5.99878 9.55859 5.99878C9.62988 5.99878 9.68945 5.99048 9.68945 5.98218C9.68945 5.97168 9.66797 5.89258 9.64258 5.80298C9.55566 5.50513 9.35742 5.23706 9.09082 5.03833C8.89551 4.89209 8.66406 4.78345 8.41406 4.72778C8.31152 4.70483 8.2207 4.68604 8.20898 4.68604C8.2041 4.68604 8.19824 4.70386 8.19434 4.73145L8.19043 4.80054C8.19043 4.94434 8.1377 4.99854 8 4.99854ZM9.64453 9.13477C9.47754 9.10352 9.21387 8.87231 9.17773 8.72632L9.16113 8.66602H8H6.83789L6.82129 8.72632C6.78613 8.87231 6.52148 9.10352 6.35547 9.13477L6.28613 9.14941V10.2412V11.3333H8H9.71387V10.2412V9.14941L9.64453 9.13477ZM7.85742 5.37354C7.81445 5.41089 7.80957 5.44214 7.80957 5.74219V6.06934L7.52344 6.32153C7.39648 6.43335 7.32617 6.49707 7.28711 6.54126C7.24121 6.59253 7.23828 6.61768 7.23828 6.66113C7.23828 6.77783 7.2998 6.83203 7.43359 6.83203C7.53125 6.83203 7.54492 6.82373 7.8623 6.54443L8.19043 6.25708V5.83618C8.19043 5.44214 8.18848 5.41309 8.14258 5.37354C8.1123 5.34644 8.06445 5.33179 8 5.33179C7.96191 5.33179 7.92969 5.33691 7.90332 5.34692C7.88477 5.35376 7.86914 5.36255 7.85742 5.37354ZM7.80957 9.68286V9.33057V8.97852H8H8.19043V9.33057V9.68286L8.25977 9.69727C8.4375 9.73071 8.67871 9.95166 8.73828 10.135C8.78809 10.2891 8.75879 10.533 8.67871 10.6643C8.54297 10.8809 8.29492 11.0059 7.99805 11.0059C7.69727 11.0059 7.45996 10.885 7.32129 10.6643C7.24023 10.533 7.21191 10.2891 7.26172 10.135C7.32129 9.95166 7.56152 9.73071 7.74023 9.69727L7.80957 9.68286ZM4.5127 12.0396C4.45996 12.0603 4.38379 12.1104 4.3418 12.1477C4.21484 12.2666 4.19141 12.3416 4.19141 12.6458C4.19141 12.8896 4.19629 12.9209 4.23926 12.9585C4.26562 12.9814 4.28711 12.9917 4.93262 12.9963C5.44824 13 6.36328 13 8 13C11.6816 13 11.7129 13 11.7607 12.9585C11.8037 12.9209 11.8086 12.8896 11.8086 12.6396C11.8086 12.3291 11.7793 12.25 11.6396 12.1311L11.5879 12.0854C11.4727 11.9919 11.2754 11.9998 7.99512 11.9998C4.74609 11.9998 4.60352 12.002 4.5127 12.0396Z"></path></svg>