<svg xmlns="http://www.w3.org/2000/svg" viewBox="0 0 17 20" height="20" width="17"><title>art_gallery.svg</title><rect fill="none" x="0" y="0" width="17" height="20"></rect><path fill="#5e758d" transform="translate(0 0)" d="M11.1123 15.5334C14.0547 14.3313 16.1289 11.4402 16.1289 8.06445C16.1289 3.6106 12.5186 0 8.06445 0C3.61035 0 0 3.6106 0 8.06445C0 11.4431 2.07812 14.3364 5.02539 15.5366L7.36914 19.5967C7.67969 20.1345 8.45508 20.1345 8.76562 19.5967L11.1123 15.5334ZM4 11V3H12V11H4ZM11 4H5V7L6 6L10 10H11V9L9 7L10 6L11 7V4Z"></path></svg>