<svg xmlns="http://www.w3.org/2000/svg" viewBox="0 0 21 24" height="24" width="21"><title>atm.svg</title><rect fill="none" x="0" y="0" width="21" height="24"></rect><path fill="#5e758d" transform="translate(2 2)" d="M11.112 15.5334C14.0551 14.3313 16.129 11.4401 16.129 8.06452C16.129 3.61061 12.5184 0 8.06452 0C3.61061 0 0 3.61061 0 8.06452C0 11.4431 2.07765 14.3365 5.02501 15.5366L7.36915 19.5968C7.67955 20.1344 8.45556 20.1344 8.76596 19.5968L11.112 15.5334ZM4.66806 4H11.3319C11.7014 4 12 4.29861 12 4.66667V9.55556C12 9.92361 11.7014 10.2222 11.3319 10.2222H4.66806C4.29861 10.2222 4 9.92361 4 9.55556V4.66667C4 4.29861 4.29861 4 4.66806 4ZM11.2486 4.66667H4.75139C4.70556 4.66667 4.66806 4.70417 4.66806 4.75V5.33333H11.3319V4.75C11.3319 4.70417 11.2944 4.66667 11.2486 4.66667ZM4.75139 9.55556H11.2486C11.2944 9.55556 11.3319 9.51806 11.3319 9.47222V7.11111H4.66806V9.47222C4.66806 9.51806 4.70556 9.55556 4.75139 9.55556ZM6.66667 8.72222V8.16667C6.66667 8.075 6.59167 8 6.5 8H5.5C5.40833 8 5.33333 8.075 5.33333 8.16667V8.72222C5.33333 8.81389 5.40833 8.88889 5.5 8.88889H6.5C6.59167 8.88889 6.66667 8.81389 6.66667 8.72222ZM9.33333 8.72222V8.16667C9.33333 8.075 9.25833 8 9.16667 8H7.27778C7.18611 8 7.11111 8.075 7.11111 8.16667V8.72222C7.11111 8.81389 7.18611 8.88889 7.27778 8.88889H9.16667C9.25833 8.88889 9.33333 8.81389 9.33333 8.72222Z"></path></svg>