<svg xmlns="http://www.w3.org/2000/svg" viewBox="0 0 17 20" height="20" width="17"><title>attraction.svg</title><rect fill="none" x="0" y="0" width="17" height="20"></rect><path fill="#5e758d" transform="translate(0 0)" d="M11.1123 15.5334C14.0547 14.3313 16.1289 11.4402 16.1289 8.06445C16.1289 3.6106 12.5186 0 8.06445 0C3.61035 0 0 3.6106 0 8.06445C0 11.4431 2.07812 14.3364 5.02539 15.5366L7.36914 19.5967C7.67969 20.1345 8.45508 20.1345 8.76562 19.5967L11.1123 15.5334ZM11.21 9.71411C10.7617 10 10.1367 10 8.88867 10H7.11133C6.35645 10 5.8291 10 5.43164 9.93677C5.17188 9.89551 4.9668 9.82715 4.79004 9.71411C4.5957 9.59009 4.42969 9.43115 4.2998 9.24585C4 8.81787 4 8.22192 4 7.03052C4 5.83862 4 5.24268 4.2998 4.81494C4.42969 4.62915 4.59668 4.46997 4.79004 4.34668C5.07812 4.16309 5.43945 4.09717 5.99121 4.07373C6.25488 4.07373 6.48145 3.8833 6.5332 3.63623C6.61035 3.26636 6.95117 3 7.34668 3H8.65332C8.84375 2.99878 9.02832 3.06152 9.17676 3.17725C9.3252 3.29321 9.42773 3.45532 9.4668 3.63623C9.51855 3.8833 9.74512 4.07373 10.0088 4.07373C10.5615 4.09717 10.9219 4.16284 11.21 4.34668C11.4033 4.46997 11.5703 4.62915 11.7002 4.81494C12 5.24268 12 5.83862 12 7.03052C12 8.22192 12 8.81812 11.7002 9.24585C11.5703 9.43188 11.4033 9.59082 11.21 9.71411ZM6.33301 7.03003C6.33301 6.15161 7.08008 5.43945 8 5.43945C8.91992 5.43945 9.66699 6.15161 9.66699 7.03052C9.66699 7.90894 8.91992 8.62109 8 8.62109C7.08008 8.62109 6.33301 7.90894 6.33301 7.03003ZM7 7.03052C7 6.50317 7.44824 6.07568 8 6.07568C8.2793 6.07568 8.53223 6.18506 8.71387 6.36157C8.89062 6.53394 9 6.77002 9 7.03052C9 7.55737 8.55176 7.98486 8 7.98486C7.44824 7.98486 7 7.55737 7 7.03052ZM10.2227 5.43945C10.0381 5.43945 9.88867 5.58179 9.88867 5.75757C9.88965 5.7998 9.89844 5.84155 9.91504 5.88037C9.93262 5.91919 9.95703 5.95435 9.98828 5.98389C10.0186 6.01343 10.0557 6.03662 10.0957 6.05249C10.1357 6.06836 10.1787 6.07617 10.2227 6.07568H10.667C10.7061 6.07593 10.7451 6.06934 10.7822 6.0564C10.8262 6.04102 10.8672 6.01636 10.9014 5.98364C10.9639 5.92407 10.999 5.84277 11 5.75757C11 5.58179 10.8506 5.43945 10.666 5.43945H10.2227Z"></path></svg>