<svg xmlns="http://www.w3.org/2000/svg" viewBox="0 0 21 24" height="24" width="21"><title>ayurveda.svg</title><rect fill="none" x="0" y="0" width="21" height="24"></rect><path fill="#d97200" transform="translate(2 2)" d="M11.1123 15.5334C14.0547 14.3313 16.1289 11.4402 16.1289 8.06445C16.1289 3.6106 12.5186 0 8.06445 0C3.61035 0 0 3.6106 0 8.06445C0 11.4431 2.07812 14.3364 5.02539 15.5366L7.36914 19.5967C7.67969 20.1345 8.45508 20.1345 8.76562 19.5967L11.1123 15.5334ZM9.58008 4.97412C10.8066 3.66626 10.999 3.47192 11.1016 3.42944C11.167 3.40454 11.2725 3.38208 11.3408 3.38208C11.8232 3.37476 12.1465 3.92285 11.9326 4.37866C11.8975 4.45337 11.5791 4.80981 10.9541 5.47729L10.8008 5.64062H11.0664L11.2051 5.94458C11.3594 6.28833 11.4414 6.53516 11.5166 6.89868C11.5635 7.11548 11.5684 7.22021 11.5684 7.72095C11.5703 8.26392 11.5654 8.30884 11.502 8.59277C11.4521 8.82373 11.4062 8.99121 11.3418 9.16479C11.3047 9.26636 11.2607 9.37012 11.207 9.48975C10.9443 10.0688 10.5547 10.5642 10.0771 10.9446C10.0977 10.9954 10.1064 11.0647 10.1064 11.1655C10.1064 11.4868 9.91895 11.7883 9.63086 11.9277L9.48535 12H7.7998H6.11426L5.97852 11.9402C5.93652 11.9226 5.89453 11.8992 5.85254 11.8701C5.80566 11.8372 5.75977 11.7971 5.71582 11.751C5.51855 11.5413 5.44043 11.218 5.49414 11.01C5.5 10.9871 5.50781 10.9653 5.5166 10.9456C4.90918 10.4619 4.44043 9.78931 4.19629 9.00391C4.0918 8.6626 4.04883 8.44336 4.01367 8.03735C3.9873 7.73511 3.99707 7.42334 4.04199 7.11426C4.05273 7.03906 4.06543 6.96411 4.08008 6.88965C4.14746 6.55029 4.25488 6.21802 4.40039 5.90967L4.52246 5.65308L4.9248 5.64062L5.32812 5.62817L5.1875 5.4812C4.87598 5.15234 4.72168 4.77124 4.72168 4.32788C4.72168 4.02148 4.85742 3.54541 5.04883 3.18921C5.10547 3.08472 5.1543 3 5.16113 3C5.20801 3 5.49902 3.17676 5.61523 3.27637C6.18457 3.76221 6.33691 4.49219 6.05566 5.38647L6.00293 5.5603L5.98535 5.62573C5.98535 5.6333 6.0625 5.64062 6.15918 5.64062H6.33008L6.29688 5.50854C6.24121 5.29688 6.24805 4.91333 6.30664 4.70654C6.42578 4.30029 6.71191 3.98657 7.18457 3.74731C7.47461 3.60034 7.48145 3.60034 7.55664 3.80957C7.69238 4.17578 7.69922 4.60938 7.5752 4.92578C7.52637 5.04907 7.44434 5.1936 7.35352 5.31958C7.3252 5.35938 7.2959 5.39722 7.2666 5.43188L7.19434 5.51123L7.06543 5.64062H8.95312L9.58008 4.97412Z"></path></svg>