<svg xmlns="http://www.w3.org/2000/svg" viewBox="0 0 21 24" height="24" width="21"><title>bakery.svg</title><rect fill="none" x="0" y="0" width="21" height="24"></rect><path fill="#d97200" transform="translate(2 2)" d="M11.112 15.5334C14.0551 14.3313 16.129 11.4401 16.129 8.06452C16.129 3.61061 12.5184 0 8.06452 0C3.61061 0 0 3.61061 0 8.06452C0 11.4431 2.07765 14.3365 5.02501 15.5366L7.36915 19.5968C7.67955 20.1344 8.45556 20.1344 8.76596 19.5968L11.112 15.5334ZM10.4952 6.63605C10.4952 6.63605 10.9687 5.64091 10.9062 4.22142C12.6644 4.98284 13.9152 8.13408 12.1389 9.25548C10.3627 10.3763 6.39271 10.0614 5.16065 9.42211C3.85471 8.74332 3.1512 6.46424 5.82196 4.80994C5.82196 4.80994 6.28771 5.50973 6.42628 6.69632C6.42628 6.69632 6.62915 5.2452 6.37509 4.58495C6.37509 4.58495 6.85696 4.44178 7.1594 4.47041C7.1594 4.47041 7.51565 5.71427 7.42828 6.68404C7.42828 6.68404 7.95591 5.66054 7.82765 4.26942C7.82765 4.26942 8.41809 4.17697 8.83003 4.32805C8.83003 4.32805 9.06966 5.31747 8.9191 6.62514C9.2236 6.24606 9.63591 5.21629 9.57591 4.03707C9.57591 4.03707 9.99179 3.95743 10.252 4.03161C10.252 4.03161 10.5567 5.54273 10.4952 6.63605Z"></path></svg>