<svg xmlns="http://www.w3.org/2000/svg" viewBox="0 0 21 24" height="24" width="21"><title>bank.svg</title><rect fill="none" x="0" y="0" width="21" height="24"></rect><path fill="#5e758d" transform="translate(2 2)" d="M16.129 8.06452C16.129 11.4401 14.0551 14.3313 11.112 15.5334L8.76596 19.5968C8.45556 20.1344 7.67955 20.1344 7.36915 19.5968L5.02501 15.5366C2.07765 14.3365 0 11.4431 0 8.06452C0 3.61061 3.61061 0 8.06452 0C12.5184 0 16.129 3.61061 16.129 8.06452ZM4.38369 5.81587L4.75826 5.58298V6.46162H5.5071V8.41201H4.7954C4.71924 8.41201 4.64619 8.44408 4.59234 8.50116C4.53848 8.55823 4.50822 8.63564 4.50822 8.71636V8.94131H4.29596C4.2198 8.94131 4.14676 8.97338 4.0929 9.03045C4.03904 9.08753 4.00879 9.16494 4.00879 9.24566V9.99991H11.9998V9.24566C11.9998 9.16494 11.9695 9.08753 11.9157 9.03045C11.8618 8.97338 11.7888 8.94131 11.7126 8.94131H11.5003V8.71636C11.5003 8.63564 11.4701 8.55823 11.4162 8.50116C11.3624 8.44408 11.2893 8.41201 11.2132 8.41201H10.5015V6.46162H11.2509V5.59092L11.6205 5.81587C11.6776 5.84751 11.744 5.85456 11.8058 5.83554C11.8677 5.81652 11.9202 5.77291 11.9525 5.71381C11.9847 5.65471 11.9941 5.5847 11.9788 5.51841C11.9635 5.45211 11.9246 5.39465 11.8702 5.35803L8.0046 3L4.13397 5.35803C4.10413 5.37457 4.07775 5.39734 4.05643 5.42497C4.0351 5.4526 4.01927 5.48451 4.00989 5.51879C4.0005 5.55307 3.99776 5.58901 4.00182 5.62444C4.00588 5.65987 4.01667 5.69407 4.03352 5.72497C4.05037 5.75587 4.07295 5.78284 4.0999 5.80426C4.12684 5.82567 4.1576 5.84109 4.19031 5.84958C4.22302 5.85807 4.25701 5.85946 4.29025 5.85367C4.32348 5.84788 4.35526 5.83502 4.38369 5.81587ZM9.50259 6.46162H8.50371V8.41201H9.50259V6.46162ZM7.50484 6.46162H6.50597V8.41201H7.50484V6.46162ZM7.96714 4.10888C7.99751 4.0903 8.03196 4.08052 8.06703 4.08052C8.10209 4.08052 8.13654 4.0903 8.16691 4.10888L9.84502 5.13837H9.04093L8.06703 4.54555L7.09313 5.13837H6.29153L7.96714 4.10888Z"></path></svg>