<svg xmlns="http://www.w3.org/2000/svg" viewBox="0 0 21 24" height="24" width="21"><title>bar.svg</title><rect fill="none" x="0" y="0" width="21" height="24"></rect><path fill="#d97200" transform="translate(2 2)" d="M11.112 15.5334C14.0551 14.3313 16.129 11.4401 16.129 8.06452C16.129 3.61061 12.5184 0 8.06452 0C3.61061 0 0 3.61061 0 8.06452C0 11.4431 2.07765 14.3365 5.02501 15.5366L7.36915 19.5968C7.67955 20.1344 8.45556 20.1344 8.76596 19.5968L11.112 15.5334ZM4 3.5C4 3.225 4.3 3 4.66667 3H11.3333C11.7 3 12 3.225 12 3.5V6C12 7.485 10.56 8.715 8.66667 8.955V11H10C10.3667 11 10.6667 11.225 10.6667 11.5C10.6667 11.775 10.3667 12 10 12H6C5.63333 12 5.33333 11.775 5.33333 11.5C5.33333 11.225 5.63333 11 6 11H7.33333V8.955C5.44 8.715 4 7.485 4 6V3.5ZM5.33333 5.5H10.6667V4H5.33333V5.5Z"></path></svg>