<svg xmlns="http://www.w3.org/2000/svg" viewBox="0 0 20 23" height="23" width="20"><title>basin.svg</title><rect fill="none" x="0" y="0" width="20" height="23"></rect><path fill="#5e758d" transform="translate(1 1)" d="M11.112 15.5334C14.0551 14.3313 16.129 11.4401 16.129 8.06452C16.129 3.61061 12.5184 0 8.06452 0C3.61061 0 0 3.61061 0 8.06452C0 11.4431 2.07765 14.3365 5.02501 15.5366L7.36915 19.5968C7.67955 20.1344 8.45556 20.1344 8.76596 19.5968L11.112 15.5334ZM7.25586 3.26407C7.25586 3.14843 7.30934 3.04931 7.39037 3.0204C7.46329 2.99355 8.52964 2.99355 8.60419 3.01833C8.6917 3.04931 8.74681 3.1443 8.74681 3.26407C8.74681 3.31776 8.73546 3.3797 8.72088 3.40655C8.67226 3.49741 8.61716 3.51393 8.38217 3.51393H8.16339V3.90627C8.16339 4.14374 8.16987 4.29862 8.1796 4.29862C8.21039 4.29862 8.31249 4.43077 8.3449 4.51337C8.37569 4.58565 8.38055 4.64347 8.38703 4.91191C8.39352 5.18655 8.39838 5.22785 8.42107 5.22785C8.52478 5.22785 9.26864 5.27328 9.45987 5.2898C10.2718 5.36414 10.9751 5.52314 11.377 5.72345C11.8891 5.97744 12.0609 6.3099 11.9815 6.89222C11.847 7.88754 11.262 8.80645 10.4209 9.35366C9.72726 9.80383 8.998 9.99794 8.00133 10C7.02411 10 6.26568 9.79763 5.58503 9.35573C5.08588 9.03153 4.67101 8.57517 4.39551 8.0486C4.13946 7.5592 3.97416 6.92319 4.00333 6.54943C4.0406 6.09927 4.2999 5.82669 4.89303 5.61194C5.46186 5.40544 6.17654 5.29806 7.39037 5.23611L7.6448 5.22372V4.91191C7.6448 4.55467 7.66425 4.47001 7.77607 4.35644L7.83927 4.29242V3.90214V3.51393H7.62049C7.38551 3.51393 7.33041 3.49741 7.28179 3.40655C7.2672 3.3797 7.25586 3.31776 7.25586 3.26407ZM8.00781 6.15709C7.72745 6.15709 7.72421 6.15709 7.6837 6.10547C7.67482 6.09416 7.66789 6.08533 7.65939 6.07846C7.62904 6.05394 7.5786 6.05429 7.34823 6.05591C6.50876 6.06623 5.46672 6.19013 4.86062 6.35326C4.71153 6.3925 4.67911 6.41521 4.67911 6.4751C4.67911 6.5515 4.72449 6.58454 4.93031 6.65062C6.10848 7.02644 7.66263 7.19577 8.86025 7.07807C9.67865 6.99753 10.4468 6.84886 11.0724 6.65062C11.2782 6.58454 11.3235 6.5515 11.3235 6.4751C11.3235 6.41108 11.2895 6.3925 11.1015 6.34087C10.5359 6.19219 9.68513 6.08895 8.82459 6.06004L8.39352 6.04765L8.34166 6.10134C8.32907 6.11486 8.31955 6.12511 8.3083 6.13287C8.2732 6.15709 8.22138 6.15709 8.00781 6.15709Z"></path></svg>