<svg xmlns="http://www.w3.org/2000/svg" viewBox="0 0 20 23" height="23" width="20"><title>beauty.svg</title><rect fill="none" x="0" y="0" width="20" height="23"></rect><path fill="#5e758d" transform="translate(1 1)" d="M11.112 15.5334C14.0551 14.3313 16.129 11.4401 16.129 8.06452C16.129 3.61061 12.5184 0 8.06452 0C3.61061 0 0 3.61061 0 8.06452C0 11.4431 2.07765 14.3365 5.02501 15.5366L7.36915 19.5968C7.67955 20.1344 8.45556 20.1344 8.76596 19.5968L11.112 15.5334ZM8.88603 3.69945C8.79919 3.5158 8.65627 3.32824 8.43013 3.10356L8.3252 3.00001H8.43917C8.67255 3.00001 8.9204 3.0977 9.04885 3.24227C9.14473 3.34778 9.1972 3.44937 9.25509 3.63693C9.33831 3.90068 9.35459 4.08629 9.36545 4.89514C9.37088 5.30933 9.37992 5.6825 9.38535 5.72548C9.39439 5.79777 9.39259 5.80167 9.36726 5.76651C9.2967 5.67077 9.17006 5.14913 9.0579 4.48485C8.94935 3.84598 8.94392 3.82449 8.88603 3.69945ZM7.80099 3.09769C7.80099 3.08792 7.84441 3.07229 7.89688 3.06056C8.12483 3.01368 8.30755 3.07815 8.46676 3.2618C8.5934 3.40833 8.69652 3.61934 8.78697 3.90654C8.86477 4.16248 8.8919 4.28751 9.01312 4.9342C9.12709 5.55745 9.15785 5.67858 9.2483 5.872C9.42198 6.24321 9.6228 6.5519 10.4333 7.68898C10.692 8.05042 10.8693 8.33176 10.9326 8.48024C11.1877 9.07223 11.1642 9.88498 10.8566 10.9498C10.8277 11.0514 10.8078 11.1373 10.8096 11.1412C10.8204 11.153 11.0393 10.7251 11.137 10.4985C11.318 10.0843 11.3994 9.75213 11.4138 9.35943C11.4211 9.13279 11.4175 9.05464 11.3867 8.9003C11.2818 8.34739 11.005 7.92929 10.4532 7.48384C10.0823 7.18491 9.89417 6.90748 9.73858 6.43077C9.59928 6.0029 9.54319 5.66295 9.44912 4.64896C9.35685 3.66818 9.30077 3.37316 9.16689 3.16216L9.12166 3.08792L9.18137 3.08206C9.33695 3.06643 9.57395 3.23836 9.7223 3.4728C9.89778 3.75219 10.028 4.1234 10.227 4.89513C10.3772 5.47344 10.4496 5.70398 10.5346 5.85246C10.5726 5.9228 10.7463 6.1846 10.9181 6.43468C11.2655 6.93874 11.4102 7.17905 11.5658 7.50533C11.9023 8.21649 12 8.89834 11.8535 9.51963C11.7974 9.75604 11.5911 10.3031 11.4283 10.6489C10.7987 11.9872 9.95749 12.798 9.01673 12.9738C8.92628 12.9914 8.8123 13.0032 8.76707 12.9992L8.68204 12.9934L8.77069 12.925C8.91 12.8195 9.15061 12.5597 9.2664 12.3936C9.85617 11.5496 9.93758 10.3031 9.48168 9.13865C9.34781 8.7987 9.19946 8.5369 8.9498 8.20672C8.87019 8.09926 8.7725 7.9625 8.7327 7.90389L8.71344 7.87413C8.68314 7.82727 8.65728 7.78728 8.65129 7.7808C8.64405 7.77299 8.68566 7.86872 8.74356 7.99572C9.13252 8.85732 9.09995 9.53722 8.64586 10.0354C8.5554 10.137 8.4161 10.2562 8.40525 10.2445C8.39982 10.2386 8.43962 10.1683 8.49208 10.0901C8.71461 9.75408 8.8322 9.42195 8.84668 9.08395C8.86296 8.67171 8.76707 8.33762 8.51922 7.94492C8.39982 7.75345 8.1194 7.45453 7.93668 7.31972C7.77386 7.20054 7.62732 7.05597 7.53867 6.92702C7.38128 6.69648 7.25825 6.32136 7.20036 5.9013C7.16418 5.6356 7.17322 4.91662 7.22026 4.36371C7.26187 3.86746 7.2673 3.61347 7.24016 3.56658C7.2275 3.54314 7.21664 3.54509 7.17503 3.58612C7.09362 3.66622 7.01221 3.89091 6.92356 4.26993C6.7915 4.83652 6.71913 5.00258 6.40072 5.47148C6.31208 5.60043 6.24514 5.71961 6.24514 5.74501C6.24514 5.79385 6.33379 5.88958 6.42605 5.94038C6.45681 5.95796 6.48033 5.97555 6.48033 5.97945C6.48033 5.98532 6.44414 6.03807 6.39891 6.09863C6.35369 6.15724 6.3175 6.22172 6.3175 6.24321C6.3175 6.26275 6.35549 6.31354 6.40072 6.35653L6.48394 6.43272L6.41339 6.4718C6.31569 6.5265 6.3175 6.57144 6.42243 6.68866L6.51108 6.78635L6.4749 6.88013C6.43329 6.9954 6.43148 7.14193 6.47128 7.20836C6.52736 7.30018 6.61239 7.32558 6.8512 7.32754C6.9706 7.32754 7.15332 7.31386 7.25644 7.29823C7.43736 7.27088 7.44459 7.27088 7.50972 7.30995C7.67978 7.41545 7.95839 7.90194 8.06151 8.2751C8.19901 8.77917 8.22614 9.38873 8.12664 9.80879C8.05066 10.137 7.763 10.6762 7.47897 11.0221C7.09 11.5007 6.58526 11.8133 6.03709 11.9188C5.81637 11.9618 5.3659 11.9833 5.3858 11.9501C5.39303 11.9364 5.5251 11.8583 5.68069 11.7782C5.91587 11.6531 5.97919 11.6101 6.07327 11.5105C6.22343 11.3503 6.26685 11.2292 6.26685 10.9713C6.26685 10.4926 5.97739 9.78339 5.37494 8.78698C5.15604 8.42554 5.12166 8.31027 5.109 7.91366C5.10357 7.70265 5.109 7.56003 5.13071 7.40373C5.20669 6.84301 5.42379 6.16701 5.77114 5.41482C5.87788 5.18233 5.96472 4.99282 5.96291 4.99282C5.9611 4.99282 5.89055 5.10613 5.80552 5.24289C5.36771 5.95796 5.109 6.57925 4.98417 7.22008C4.95884 7.34707 4.95161 7.47407 4.95161 7.74759L4.95165 7.76053C4.95221 7.91403 4.95258 8.01826 4.96603 8.12078C4.99448 8.33767 5.08145 8.54689 5.3524 9.19872L5.35241 9.19874L5.35504 9.20508C5.61918 9.83614 5.71325 10.096 5.79466 10.4008C5.85979 10.6528 5.88331 10.94 5.84713 11.0826C5.74582 11.4871 5.42922 11.7293 5.09815 11.657C4.96427 11.6277 4.86658 11.5691 4.76888 11.4558C4.62596 11.2917 4.54817 11.0729 4.5337 10.7857L4.52284 10.6098L4.57892 10.6997C4.673 10.8579 4.81049 10.9322 5.00407 10.9322C5.1886 10.9302 5.32791 10.8365 5.35866 10.688C5.39484 10.5102 5.25554 10.305 4.90276 10.0178C4.70918 9.86154 4.45771 9.58801 4.35097 9.41804C4.20624 9.1875 4.08865 8.89053 4.0398 8.63654C4.00543 8.44703 4 8.38842 4 8.12075C4 7.47797 4.17187 6.84887 4.59882 5.94038C4.82497 5.45781 4.95161 5.22531 5.12709 4.96937C5.74582 4.06283 6.72818 3.27352 7.27635 3.24031C7.45545 3.22859 7.51153 3.26571 7.5839 3.43764C7.67255 3.64864 7.71597 3.96905 7.77386 4.82675C7.85527 6.03025 7.92583 6.47766 8.0995 6.84887C8.14473 6.94656 8.4161 7.39787 8.4559 7.44476C8.46676 7.45453 8.43962 7.39006 8.39801 7.30018C8.22795 6.93093 8.0796 6.41318 8.00181 5.91107C7.98191 5.77627 7.93487 5.35816 7.9005 4.98305C7.8028 3.92803 7.74853 3.63106 7.58571 3.22859L7.5799 3.21414C7.55535 3.15309 7.54622 3.13039 7.55353 3.12201C7.55785 3.11705 7.56793 3.11711 7.58398 3.1172L7.59114 3.11722C7.8209 3.11722 8.34193 4.52392 8.43419 5.39333C8.4957 5.97945 8.50656 6.04197 8.60425 6.28424C8.68204 6.47766 8.82316 6.71015 9.01312 6.95632C9.25735 7.27088 9.68611 7.98985 9.87788 8.40405C10.3175 9.35552 10.3935 10.2855 10.104 11.2057C10.0045 11.5222 9.78562 11.9813 9.60109 12.2607C9.51244 12.3955 9.50882 12.4053 9.55405 12.3799C9.63365 12.333 9.80733 12.1611 9.89417 12.0439C10.1113 11.743 10.2542 11.3796 10.3446 10.8833C10.3935 10.6274 10.3935 9.83223 10.3464 9.5548C10.2705 9.10935 10.1692 8.75572 10.0118 8.38256C9.86703 8.0387 9.7422 7.81792 9.45455 7.39592C8.91723 6.61051 8.72546 6.12599 8.47942 4.92248C8.30393 4.06088 8.19177 3.73656 7.91859 3.30283C7.85346 3.19928 7.80099 3.10745 7.80099 3.09769ZM9.82683 3.55107C10.0946 4.08444 10.2592 4.50059 10.4419 5.10039C10.6554 5.81155 10.6753 5.84867 11.0028 6.21402C11.493 6.75911 11.6613 7.05218 11.92 7.81609L11.9996 8.05054L11.9906 7.77701C11.9634 6.99161 11.721 5.87798 11.446 5.28599C11.2452 4.85226 10.8056 4.27591 10.3587 3.85976C10.176 3.68979 9.74722 3.33225 9.72732 3.33225C9.72009 3.33225 9.76532 3.43189 9.82683 3.55107Z"></path></svg>