<svg xmlns="http://www.w3.org/2000/svg" viewBox="0 0 20 23" height="23" width="20"><title>bed.svg</title><rect fill="none" x="0" y="0" width="20" height="23"></rect><path fill="#5e758d" transform="translate(1 1)" d="M11.1123 15.5334C14.0547 14.3313 16.1289 11.4402 16.1289 8.06445C16.1289 3.6106 12.5186 0 8.06445 0C3.61035 0 0 3.6106 0 8.06445C0 11.4431 2.07812 14.3364 5.02539 15.5366L7.36914 19.5967C7.67969 20.1345 8.45508 20.1345 8.76562 19.5967L11.1123 15.5334ZM11.5996 4.28564V5.47705C11.8438 5.71289 12 6.05151 12 6.42847V9H11.2002V8.14282H4.7998V9H4V6.42847C4 6.05151 4.15625 5.71289 4.40039 5.47705V4.28564C4.40039 3.57861 4.94043 3 5.59961 3H7.2002C7.37207 3 7.53516 3.04004 7.68262 3.11084C7.79883 3.16724 7.90625 3.24316 8 3.33423C8.21191 3.12866 8.49219 3 8.7998 3H10.4004C10.8164 3 11.1846 3.22998 11.4004 3.57715C11.5264 3.78052 11.5996 4.02441 11.5996 4.28564ZM10.4004 3.85718H8.7998C8.58008 3.85718 8.40039 4.05005 8.40039 4.28564V5.14282H10.7998V4.28564C10.7998 4.05005 10.6201 3.85718 10.4004 3.85718ZM5.59961 3.85718C5.37988 3.85718 5.2002 4.05005 5.2002 4.28564V5.14282H7.59961V4.28564C7.59961 4.05005 7.41992 3.85718 7.2002 3.85718H5.59961Z"></path></svg>