<svg xmlns="http://www.w3.org/2000/svg" viewBox="0 0 21 24" height="24" width="21"><title>beer.svg</title><rect fill="none" x="0" y="0" width="21" height="24"></rect><path fill="#d97200" transform="translate(2 2)" d="M11.1123 15.5334C14.0547 14.3313 16.1289 11.4402 16.1289 8.06445C16.1289 3.6106 12.5186 0 8.06445 0C3.61035 0 0 3.6106 0 8.06445C0 11.4431 2.07812 14.3364 5.02539 15.5366L7.36914 19.5967C7.67969 20.1345 8.45508 20.1345 8.76562 19.5967L11.1123 15.5334ZM9.76953 6.3999H11.2119C11.2881 6.3999 11.3613 6.42993 11.415 6.48291C11.4697 6.53613 11.5 6.60815 11.5 6.68335V10.0833C11.5 10.1584 11.4697 10.2305 11.415 10.2837C11.3613 10.3369 11.2881 10.3667 11.2119 10.3667H9.76953V11.2166C9.76953 11.2559 9.76172 11.2944 9.74609 11.3298C9.73145 11.3621 9.71094 11.3916 9.68457 11.417C9.63086 11.4702 9.55762 11.5 9.48047 11.5H4.86523C4.83105 11.5 4.79785 11.4941 4.7666 11.4829C4.72754 11.469 4.69141 11.4465 4.66113 11.417C4.60742 11.3638 4.57715 11.2917 4.57715 11.2166V6.80737C4.50391 6.76611 4.43652 6.71753 4.37402 6.66211C4.31055 6.6062 4.25391 6.54346 4.20508 6.47534C4.16309 6.41699 4.12695 6.35474 4.09766 6.28906C4.06152 6.20972 4.03516 6.12671 4.01953 6.0415C4.00684 5.97461 4 5.90649 4 5.83789C3.99902 5.68872 4.02832 5.54077 4.08594 5.40259C4.11621 5.33081 4.15332 5.26245 4.19727 5.19849C4.23828 5.1394 4.28516 5.08423 4.33691 5.03369L4.37207 5.00049L4.3877 4.98657C4.30273 4.81201 4.27148 4.6167 4.29785 4.42505C4.3125 4.31836 4.34473 4.21533 4.39258 4.11987C4.43066 4.0437 4.47949 3.97241 4.53711 3.90771C4.66602 3.76172 4.83691 3.65625 5.02637 3.604C5.21582 3.55176 5.41699 3.55518 5.60449 3.61401C5.9873 3.21753 6.48926 3 7.0293 3C7.29102 2.99902 7.55078 3.05005 7.79199 3.14941C8.03418 3.24902 8.25293 3.39502 8.43652 3.57935C8.6709 3.81323 8.8418 4.10107 8.93359 4.41675C9.03125 4.41895 9.12793 4.43335 9.2207 4.45923C9.33691 4.4917 9.44727 4.54199 9.54883 4.60889C9.73145 4.72925 9.87402 4.89819 9.96191 5.0957C10.0498 5.29346 10.0781 5.51172 10.0439 5.72485C10.0098 5.93774 9.91504 6.13672 9.76953 6.29834V6.3999ZM5.73047 10.3667H6.30762V6.96655H5.73047V10.3667ZM6.88477 10.3667H7.46191V6.96655H6.88477V10.3667ZM8.03809 10.3667H8.61523V6.96655H8.03809V10.3667ZM8.42285 5.9165C8.5332 6.0249 8.75391 6.1167 8.9043 6.1167C8.9873 6.1167 9.06836 6.09912 9.14258 6.06567C9.19727 6.0415 9.24707 6.00903 9.29199 5.96899C9.39844 5.87427 9.46484 5.74365 9.47754 5.60327C9.49121 5.46289 9.45117 5.32275 9.36523 5.20996C9.2793 5.09717 9.15332 5.02002 9.01172 4.99341C9.01074 5.10889 8.99902 5.22412 8.97656 5.3374L8.92285 5.61597L8.35645 5.50952L8.41016 5.2312C8.45312 5.00708 8.44043 4.77612 8.37305 4.55786C8.30664 4.3396 8.18652 4.14038 8.02441 3.97705C7.89551 3.84668 7.74023 3.74316 7.56934 3.67261C7.45996 3.62769 7.3457 3.59668 7.22852 3.58032C7.16211 3.57104 7.0957 3.56641 7.0293 3.56665C6.67969 3.56665 6.35059 3.69849 6.08887 3.94092L6.11035 3.96753C6.15625 4.02563 6.19629 4.08765 6.23047 4.15283C6.25293 4.19458 6.27246 4.23755 6.29004 4.28174L6.3916 4.54736L5.85059 4.74634L5.74902 4.48071C5.72754 4.42407 5.69727 4.37061 5.65918 4.32251L5.65234 4.31421L5.64746 4.30811C5.58496 4.22388 5.49316 4.16528 5.38867 4.14355C5.28516 4.12207 5.17676 4.13867 5.08398 4.19043C4.99219 4.24243 4.92188 4.32568 4.88867 4.4248C4.86719 4.48706 4.86133 4.55273 4.87012 4.6167C4.875 4.65454 4.88574 4.69189 4.90137 4.72754C4.98438 4.70923 5.06934 4.7002 5.1543 4.69995C5.38477 4.70679 5.6084 4.78223 5.7959 4.91602L6.02637 5.08594L5.68066 5.53931L5.44922 5.36938C5.31836 5.27271 5.15527 5.2666 5.1543 5.2666C5.05273 5.2666 4.9541 5.29297 4.86719 5.3418C4.82715 5.36475 4.78906 5.39258 4.75488 5.42505L4.74609 5.43384C4.69238 5.48657 4.64941 5.54932 4.62109 5.61841C4.5918 5.68726 4.57715 5.76147 4.57812 5.83594C4.57812 5.91284 4.59473 5.98901 4.62695 6.05908C4.65918 6.12915 4.70508 6.19189 4.76367 6.24341C4.82617 6.29907 4.90039 6.34155 4.98047 6.36816C5.06152 6.39453 5.14648 6.4043 5.23047 6.39673C5.34766 6.38672 5.48926 6.34961 5.60156 6.24536C5.66113 6.19067 5.71289 6.11743 5.74902 6.01978L5.81738 5.83325H8.33789L8.42285 5.9165ZM9.76953 9.80005H10.9229V6.96655H9.76953V9.80005Z"></path></svg>