<svg xmlns="http://www.w3.org/2000/svg" viewBox="0 0 21 24" height="24" width="21"><title>bicycle_rental.svg</title><rect fill="none" x="0" y="0" width="21" height="24"></rect><path fill="#4898ff" transform="translate(2 2)" d="M11.1123 15.5334C14.0547 14.3313 16.1289 11.4402 16.1289 8.06445C16.1289 3.6106 12.5186 0 8.06445 0C3.61035 0 0 3.6106 0 8.06445C0 11.4431 2.07812 14.3364 5.02539 15.5366L7.36914 19.5967C7.67969 20.1345 8.45508 20.1345 8.76562 19.5967L11.1123 15.5334ZM4.62012 3.14893C4.63184 3.12085 4.65137 3.09351 4.67578 3.07031C4.69727 3.04956 4.72363 3.03198 4.75098 3.02026C4.78711 3.00439 4.87207 3.00146 5.13477 3.00439C5.25195 3.0061 5.33008 3.00781 5.3877 3.01099L5.4707 3.0188L5.51855 3.02783L5.55957 3.04053C5.80566 3.12305 5.97266 3.31689 6.01562 3.56445C6.06055 3.84229 5.90527 4.12891 5.64941 4.2417L5.58008 4.27466C5.56641 4.28198 5.55859 4.2876 5.55859 4.28955C5.55664 4.2937 5.6582 4.43262 5.78418 4.59912C5.91699 4.7771 6.01367 4.92041 6.01953 4.94946C6.02441 4.97461 6.02539 4.99976 6.02246 5.02393C6.01367 5.09644 5.9707 5.15991 5.90137 5.19263C5.83203 5.22583 5.71191 5.21997 5.65039 5.18091C5.61914 5.16211 5.49609 5.01172 5.34766 4.81348L5.0957 4.47754L5.08789 4.7771C5.08105 5.03467 5.0752 5.08398 5.05176 5.11719C4.95605 5.25195 4.72266 5.24463 4.63867 5.10571L4.60254 5.04785V4.11865L4.60352 3.55933C4.60547 3.40991 4.6084 3.30151 4.6123 3.2334C4.61426 3.18433 4.61719 3.15625 4.62012 3.14893ZM5.43359 3.83496C5.58203 3.7439 5.57227 3.55566 5.41602 3.48047C5.3916 3.46924 5.36914 3.46167 5.34277 3.45679C5.31152 3.45068 5.27344 3.44849 5.21777 3.44849H5.08789V3.65845V3.86841H5.23438L5.30176 3.86743L5.34961 3.8645L5.38184 3.85889L5.4043 3.85132L5.43359 3.83496ZM6.58008 3.08984C6.56445 3.10815 6.55176 3.12842 6.54395 3.14893C6.54102 3.1543 6.53906 3.17041 6.53711 3.198L6.5332 3.30957C6.52832 3.46533 6.52637 3.73389 6.52637 4.11865V5.04785L6.5625 5.10571C6.59473 5.15845 6.61719 5.18579 6.69336 5.19971C6.76562 5.21289 6.88574 5.21436 7.10645 5.21436C7.49805 5.21436 7.50879 5.21289 7.56055 5.18091C7.70312 5.09277 7.70117 4.88135 7.55566 4.80176C7.53125 4.78833 7.50879 4.78101 7.45801 4.77637L7.39941 4.77271L7.25879 4.76855L7.01172 4.7627V4.54712V4.33154H7.25098C7.51172 4.33154 7.56543 4.31836 7.62598 4.2417C7.67285 4.18237 7.67969 4.07373 7.63867 4C7.58398 3.90161 7.52246 3.88281 7.24316 3.88281H7.01172V3.66577V3.44873H7.25098C7.51172 3.44873 7.56543 3.43555 7.62598 3.35889C7.70898 3.2561 7.66211 3.07959 7.53809 3.02734C7.47949 3.00293 7.43359 3 7.09766 3.00146C6.81934 3.00146 6.70898 3.00586 6.6748 3.02026C6.63965 3.03467 6.60547 3.06006 6.58008 3.08984ZM8.18652 3.14893C8.20801 3.09546 8.25977 3.04346 8.31738 3.02026C8.34375 3.01001 8.38281 3.00146 8.40723 3C8.47266 3 8.57227 3.04199 8.60547 3.08545C8.62109 3.10571 8.72168 3.30249 8.82715 3.521L9.02148 3.91895L9.0293 3.54272C9.03613 3.30957 9.04492 3.15186 9.05566 3.12866C9.11719 3.00146 9.34863 2.96094 9.44727 3.06079C9.51562 3.13013 9.51465 3.11865 9.51465 4.12158V5.08545L9.45508 5.14478C9.40039 5.19824 9.38477 5.20557 9.30762 5.21143C9.27539 5.21362 9.24512 5.2124 9.21777 5.20776C9.15625 5.19678 9.1084 5.16797 9.07812 5.12158C9.07031 5.10986 9.04395 5.05835 9.00586 4.98389L8.85547 4.67871L8.66211 4.28076L8.6543 4.68018C8.64746 5.03198 8.64258 5.08252 8.61816 5.11743C8.52051 5.25635 8.28809 5.24463 8.20508 5.09839L8.16895 5.03638V4.11304L8.1709 3.61133L8.17383 3.3877C8.17578 3.30103 8.17773 3.23779 8.18066 3.198L8.18652 3.14893ZM10.1025 3.0144C9.91309 3.06812 9.89746 3.33862 10.0771 3.42261C10.1182 3.44287 10.1719 3.44873 10.2842 3.44873H10.4375L10.4404 4.27222L10.4453 5.0957L10.4844 5.13477C10.5527 5.20288 10.6465 5.22729 10.7305 5.20947C10.7871 5.19751 10.8389 5.16602 10.875 5.11597L10.9141 5.06372L10.9189 4.2561L10.9238 3.44873H11.0723C11.1416 3.44873 11.1904 3.44629 11.2275 3.43799C11.2803 3.42651 11.3125 3.40405 11.3506 3.36182C11.3682 3.3418 11.3809 3.31543 11.3877 3.28613C11.4014 3.22412 11.3916 3.1499 11.3555 3.09985C11.2852 3.00146 11.2744 3 10.6797 3.00146C10.3877 3.00146 10.1279 3.00854 10.1025 3.0144ZM9.21582 5.78467C9.23633 5.76025 9.26367 5.7395 9.29688 5.72363C9.36621 5.69043 9.36914 5.69043 9.92969 5.69482C10.4424 5.69922 10.4971 5.70215 10.5361 5.7251C10.6768 5.81055 10.6768 6.02197 10.5361 6.10718C10.5 6.13037 10.4453 6.13477 10.1309 6.14062L9.76855 6.14771L9.99316 6.69629L10.2217 7.24927C10.2246 7.25049 10.2891 7.24634 10.3672 7.23755C10.7314 7.19849 11.2031 7.32593 11.4795 7.5415C11.7061 7.71655 11.8799 7.96997 11.957 8.23193C12.0039 8.39673 12.0146 8.71948 11.9785 8.89771C11.8906 9.32886 11.6016 9.6792 11.1826 9.86157C10.9229 9.9729 10.6191 10.0208 10.3486 9.9917C10.1465 9.96997 9.96191 9.91724 9.79883 9.83618C9.45801 9.66748 9.20996 9.37549 9.08301 8.98438C9.04395 8.86719 9.04102 8.83105 9.03906 8.61548C9.03711 8.42432 9.04395 8.35498 9.06738 8.26807C9.15625 7.94531 9.35352 7.67896 9.64258 7.49097L9.76367 7.4126L9.73535 7.34473L9.64746 7.12769C9.61523 7.04663 9.58301 6.98438 9.57715 6.98999C9.57129 6.99585 9.25293 7.40405 8.87305 7.896C8.38672 8.52417 8.16602 8.79761 8.13184 8.81519C8.08984 8.83691 8.01562 8.8396 7.52441 8.84399L6.96484 8.84839L6.94922 8.90918C6.9248 8.99463 6.90723 9.05127 6.88574 9.10449C6.86523 9.15332 6.84277 9.19922 6.80957 9.26221C6.7168 9.43384 6.58398 9.58325 6.42188 9.70166C6.26758 9.8147 6.08789 9.89941 5.89258 9.94824C5.71582 9.9917 5.39355 10.002 5.20801 9.96997C4.61914 9.86719 4.19238 9.50391 4.03613 8.97729C4.00488 8.86865 4 8.82227 4 8.59375C4.00195 8.34766 4.00293 8.32593 4.04492 8.21021C4.09277 8.07715 4.15137 7.96338 4.22656 7.85938C4.28027 7.78467 4.34277 7.71509 4.41602 7.64722C4.8584 7.23755 5.53906 7.11304 6.08496 7.34326C6.18359 7.38379 6.19043 7.38525 6.21484 7.3606C6.24316 7.33154 6.60645 6.89893 6.62695 6.86572C6.63574 6.85254 6.62207 6.81055 6.58887 6.74829L6.53711 6.6499L6.29785 6.64429C6.17773 6.64185 6.11523 6.63989 6.07617 6.63354C6.04688 6.62866 6.03125 6.62134 6.01465 6.60938C5.87109 6.50952 5.88086 6.28809 6.03223 6.22168C6.07617 6.20288 6.14453 6.19849 6.41699 6.19849C6.66211 6.19849 6.7666 6.19849 6.83691 6.24731C6.88867 6.28345 6.92188 6.34644 6.98047 6.45605L7.04883 6.58911H8.23535C8.8877 6.58911 9.4209 6.58643 9.4209 6.5835L9.2959 6.27368C9.21875 6.08545 9.1709 5.94653 9.1709 5.91333C9.1709 5.86426 9.18652 5.82056 9.21582 5.78467ZM7.9834 8.25366C7.98926 8.25366 8.20508 7.97998 8.46484 7.64575L8.93555 7.03784H8.12207C7.6748 7.03784 7.30859 7.04077 7.30859 7.04517C7.30859 7.05566 7.55664 7.50391 7.75195 7.85132C7.87598 8.073 7.97949 8.25366 7.9834 8.25366ZM7.49609 8.38965C7.49609 8.38525 7.3623 8.13916 7.19727 7.84399L6.89453 7.30127C6.88965 7.29541 6.58887 7.6543 6.58887 7.66602C6.58887 7.67041 6.625 7.71509 6.66895 7.7644C6.77246 7.88306 6.89453 8.1145 6.93652 8.27246L6.96973 8.39819H7.2334C7.37793 8.39819 7.49609 8.39404 7.49609 8.38965ZM5.88184 7.75415C5.88086 7.75146 5.83203 7.73535 5.77539 7.71802C5.50781 7.6355 5.17676 7.68481 4.91992 7.84546C4.7168 7.9729 4.53809 8.20874 4.49414 8.40991C4.46973 8.51978 4.47266 8.73975 4.50098 8.8396C4.63184 9.31592 5.15723 9.62988 5.66797 9.53589C5.97559 9.47803 6.25293 9.2854 6.38281 9.03516C6.41699 8.96704 6.45117 8.89771 6.45605 8.88013L6.46582 8.84839L5.93359 8.84399C5.42383 8.8396 5.40039 8.83813 5.3584 8.80933C5.24707 8.73413 5.21094 8.60083 5.27344 8.50684C5.28906 8.48218 5.43262 8.3042 5.59375 8.11035C5.75488 7.91772 5.88477 7.75708 5.88184 7.75415ZM11.502 8.39258C11.415 8.0813 11.1523 7.8208 10.8242 7.72534C10.7373 7.69922 10.6084 7.68042 10.5176 7.67627C10.4629 7.67358 10.4229 7.67627 10.416 7.68628C10.4111 7.69482 10.4844 7.89185 10.5801 8.12476C10.6758 8.35767 10.7568 8.56909 10.7617 8.59521C10.7725 8.65308 10.7197 8.7644 10.666 8.79639C10.5723 8.85425 10.4375 8.84839 10.3623 8.78467C10.3096 8.73975 10.291 8.69922 10.1074 8.2522C10.0049 7.9978 9.96777 7.89233 9.92676 7.87524C9.89453 7.86157 9.85938 7.90503 9.78516 7.97412C9.67578 8.07837 9.56152 8.271 9.53223 8.40991C9.48535 8.62109 9.52441 8.85718 9.64258 9.06689C9.83984 9.4187 10.2832 9.61255 10.7051 9.53589C11.2744 9.43018 11.6426 8.90332 11.502 8.39258ZM6.45801 8.35767C6.44238 8.3042 6.3623 8.14502 6.32324 8.09302C6.30469 8.06982 6.28418 8.05103 6.27637 8.05103C6.26855 8.05103 6.2041 8.12036 6.13379 8.20581L5.99023 8.37939C5.97949 8.39404 6.02734 8.39819 6.22168 8.39819H6.4668L6.45801 8.35767Z"></path></svg>