<svg xmlns="http://www.w3.org/2000/svg" viewBox="0 0 21 24" height="24" width="21"><title>bicycle.svg</title><rect fill="none" x="0" y="0" width="21" height="24"></rect><path fill="#4898ff" transform="translate(2 2)" d="M11.1123 15.5334C14.0547 14.3313 16.1289 11.4402 16.1289 8.06445C16.1289 3.6106 12.5186 0 8.06445 0C3.61035 0 0 3.6106 0 8.06445C0 11.4431 2.07812 14.3364 5.02539 15.5366L7.36914 19.5967C7.67969 20.1345 8.45508 20.1345 8.76562 19.5967L11.1123 15.5334ZM9.83301 3.68286C9.83301 4.05859 9.5332 4.36597 9.16699 4.36597C8.7998 4.36597 8.5 4.05859 8.5 3.68286C8.5 3.46899 8.59766 3.2771 8.74902 3.15161C8.86328 3.05688 9.00879 3 9.16699 3C9.5332 3 9.83301 3.30737 9.83301 3.68286ZM4 8.29272C4 7.33667 4.7334 6.58545 5.66699 6.58545C6.59961 6.58545 7.33301 7.33667 7.33301 8.29272C7.33301 9.24878 6.59961 10 5.66699 10C4.7334 10 4 9.24878 4 8.29272ZM4.5 8.29272C4.5 8.94141 5.0332 9.48779 5.66699 9.48779C6.2998 9.48779 6.83301 8.94141 6.83301 8.29272C6.83301 7.6438 6.2998 7.09766 5.66699 7.09766C5.3584 7.09766 5.07324 7.22729 4.8623 7.4353C4.64062 7.6543 4.5 7.95996 4.5 8.29272ZM8.40039 5.25366L7.59961 6.07324L8.33301 6.85864V8.97559H7.66699V7.26831L6.59961 6.31226C6.4668 6.20972 6.40039 6.03906 6.40039 5.83423C6.40039 5.66333 6.4668 5.49268 6.59961 5.3562L7.5332 4.3999C7.63379 4.26343 7.7998 4.19507 8 4.19507C8.2002 4.19507 8.36621 4.26343 8.5332 4.3999L9.16699 5.04883C9.4668 5.3562 9.86621 5.56104 10.3662 5.56104V6.2439C9.66699 6.2439 9.09961 5.9707 8.66699 5.52686L8.40039 5.25366ZM8.66699 8.29272C8.66699 7.33667 9.40039 6.58545 10.333 6.58545C11.2666 6.58545 12 7.33667 12 8.29272C12 9.24878 11.2666 10 10.333 10C9.40039 10 8.66699 9.24878 8.66699 8.29272ZM9.60645 9.22046C9.80762 9.38696 10.0615 9.48779 10.333 9.48779C10.9668 9.48779 11.5 8.94141 11.5 8.29272C11.5 7.6438 10.9668 7.09766 10.333 7.09766C9.7002 7.09766 9.16699 7.6438 9.16699 8.29272C9.16699 8.6626 9.33984 8.99927 9.60645 9.22046Z"></path></svg>