<svg xmlns="http://www.w3.org/2000/svg" viewBox="0 0 21 24" height="24" width="21"><title>bicycle_parking.svg</title><rect fill="none" x="0" y="0" width="21" height="24"></rect><path fill="#4898ff" transform="translate(2 2)" d="M16.1289 8.06445C16.1289 11.4402 14.0547 14.3313 11.1123 15.5334L8.76562 19.5967C8.45508 20.1345 7.67969 20.1345 7.36914 19.5967L5.02539 15.5366C2.07812 14.3364 0 11.4431 0 8.06445C0 3.6106 3.61035 0 8.06445 0C12.5186 0 16.1289 3.6106 16.1289 8.06445ZM4.11816 3.12354C4.08203 3.16406 4.05176 3.21167 4.03125 3.2644C3.99805 3.34863 3.99805 3.36108 4.00098 5.0415L4.00488 5.98682C4.00879 6.68091 4.01465 6.75317 4.03516 6.79761C4.05957 6.84985 4.09766 6.90259 4.14258 6.94629C4.16895 6.97192 4.19727 6.99463 4.22656 7.01221C4.28418 7.0459 4.29492 7.05029 5.0791 7.05444V7.9165C5.0791 8.3999 5.08398 8.79565 5.08887 8.79565C5.09375 8.79565 5.1377 8.75684 5.1875 8.70947C5.24512 8.65503 5.30469 8.60596 5.36719 8.56152C5.48438 8.47827 5.6123 8.41113 5.75781 8.35596L5.89746 8.30518L5.90234 7.67041L5.90527 7.05762C6.60645 7.05908 6.72168 7.05078 6.80078 6.99292L6.83887 6.96094L6.84668 6.9541C6.87793 6.92603 6.92285 6.86108 6.94531 6.81006L6.98633 6.71851V5.02563C6.98633 3.14307 6.99316 3.26611 6.87793 3.13257C6.85449 3.10596 6.83887 3.08447 6.81934 3.06738C6.7373 2.99438 6.58496 2.99927 5.49219 3.00073C4.32715 3.00073 4.29102 3.00073 4.22852 3.03589C4.20801 3.04736 4.18848 3.06055 4.16992 3.0752C4.15137 3.08984 4.13379 3.10596 4.11816 3.12354ZM5.7832 3.78125C5.91797 3.81982 5.99609 3.87085 6.09961 3.98511C6.26953 4.17261 6.32324 4.41382 6.28516 4.63477C6.23438 4.92529 6.02344 5.18066 5.70703 5.23145C5.64648 5.24023 5.47949 5.24902 5.33789 5.24902H5.0791V5.72363V6.19995L5.03906 6.24219C5.01562 6.27026 4.98242 6.28613 4.95215 6.28613C4.92188 6.28613 4.88867 6.27026 4.86426 6.24219L4.82422 6.19995V5.0293V3.85669L4.87109 3.80566L4.91699 3.75488H5.30469C5.59766 3.75488 5.71484 3.76172 5.7832 3.78125ZM5.0791 4.9502V4.49121V4.03247L5.41016 4.03955C5.58691 4.04297 5.68555 4.04639 5.75195 4.06128C5.82129 4.07666 5.85645 4.10449 5.91016 4.15723C5.99805 4.24341 6.03906 4.35425 6.03906 4.50195C6.03906 4.64087 6.00586 4.73218 5.91797 4.82715C5.81836 4.9397 5.77734 4.9502 5.41016 4.9502H5.0791ZM9.80469 7.06665C9.63672 7.12646 9.5 7.28101 9.44922 7.46924L9.43359 7.52856L9.4248 7.57324C9.41797 7.62354 9.41895 7.6748 9.4248 7.76636C9.44238 8.06152 9.50586 8.32886 9.62207 8.58008L9.66992 8.6875L9.57324 8.7561C9.43945 8.85083 9.22461 9.0813 9.11523 9.24463C9.00195 9.41162 8.89258 9.64893 8.83691 9.84595L8.7959 9.9917L8.70801 9.94775C8.66699 9.92651 8.62207 9.91138 8.57617 9.90234C8.48828 9.8855 8.39746 9.89087 8.32031 9.91968L8.2334 9.95312L7.80371 9.10767L7.37305 8.26367L7.55273 8.25488C7.71289 8.24805 7.7373 8.24097 7.76855 8.20581C7.81836 8.15137 7.81836 8.04224 7.76855 7.98779C7.7334 7.94727 7.73047 7.94727 7.14746 7.94214L6.83203 7.94141C6.65137 7.94263 6.53809 7.94727 6.52148 7.95435C6.43164 7.99121 6.4082 8.14258 6.48145 8.21289C6.50781 8.24097 6.5498 8.24805 6.77539 8.25488L7.03906 8.26367L7.1875 8.55371C7.26855 8.71387 7.33691 8.85278 7.33691 8.86499C7.33691 8.87549 7.27734 8.96338 7.20605 9.05835L7.07227 9.23584C7.07227 9.23755 7.0625 9.2334 7.04785 9.22534L6.96777 9.17969C6.50977 8.90015 5.93164 8.94067 5.50391 9.28149C5.24023 9.49072 5.04395 9.82666 4.97461 10.1887C4.94531 10.3398 4.94531 10.665 4.97559 10.8215C5.08203 11.3787 5.48633 11.8323 5.99609 11.9658C6.20117 12.0205 6.52441 12.0081 6.7168 11.9395C7.02832 11.8271 7.30469 11.5933 7.45996 11.3083C7.50098 11.2339 7.54102 11.1418 7.57422 11.0525C7.60547 10.9673 7.62891 10.8843 7.63965 10.8215C7.64941 10.7583 7.66113 10.6968 7.66406 10.6843C7.66699 10.6704 7.70996 10.6633 7.80859 10.6633H7.94824L7.98633 10.76C8.05469 10.9341 8.22949 11.0764 8.40625 11.1011L8.48535 11.1116L8.52051 11.2451L8.55566 11.3806L8.48242 11.3894C8.34863 11.405 8.28906 11.5598 8.37793 11.6565L8.39746 11.6768C8.40625 11.6836 8.41699 11.6885 8.43359 11.6919C8.47461 11.7004 8.55566 11.7004 8.75098 11.7004C9.02637 11.7004 9.07617 11.7004 9.10547 11.6763L9.125 11.6565C9.17676 11.6003 9.17676 11.5088 9.12793 11.4456C9.1123 11.4243 9.09863 11.4116 9.07422 11.4033C9.05176 11.3958 9.02148 11.3916 8.97363 11.3875L8.85645 11.3752L8.81152 11.2029L8.7666 11.0325L8.85938 10.9304C8.93848 10.8464 8.97949 10.7773 9.00488 10.6616C9.01953 10.5957 9.02832 10.5146 9.03613 10.4067C9.04883 10.2197 9.07617 10.0581 9.12207 9.90796C9.16895 9.75757 9.23438 9.61914 9.32324 9.47852C9.41211 9.33618 9.60352 9.12329 9.72559 9.03198L9.79883 8.97388L9.85742 9.10059C9.90527 9.20776 9.91016 9.22876 9.89062 9.24292C9.85352 9.26465 9.79102 9.32202 9.72852 9.38647C9.68066 9.43652 9.63281 9.49097 9.59863 9.53638C9.50098 9.6665 9.37109 9.94604 9.32812 10.1184C9.30762 10.2046 9.2998 10.2976 9.2998 10.4963C9.2998 10.8093 9.31836 10.9041 9.43457 11.1643C9.52148 11.3601 9.62891 11.5166 9.7666 11.6433C9.84863 11.7192 9.94141 11.7844 10.0469 11.8411C10.2832 11.9695 10.3691 11.9905 10.6504 11.9888C10.9336 11.9888 11.0215 11.9678 11.2549 11.8411C11.5361 11.6899 11.7285 11.4773 11.8662 11.1643C11.9824 10.9023 12.002 10.8093 12 10.4963C12 10.1833 11.9814 10.0867 11.8662 9.82837C11.791 9.6582 11.7002 9.51758 11.5869 9.40015C11.4932 9.30249 11.3838 9.22095 11.2549 9.15161C11.1562 9.09863 11.084 9.06421 11.0127 9.04199C10.9131 9.01099 10.8154 9.00391 10.6504 9.00391C10.5547 9.00391 10.4902 9.00562 10.4375 9.01123C10.3828 9.01685 10.3418 9.02661 10.293 9.04248C10.2275 9.06177 10.1738 9.07764 10.1719 9.07593C10.1514 9.04956 9.81934 8.29004 9.79688 8.21973C9.72754 8 9.69043 7.69238 9.71875 7.57642C9.72656 7.54565 9.74316 7.51318 9.76465 7.48315C9.80566 7.42578 9.86523 7.37769 9.91504 7.36719C9.94336 7.36206 10.1104 7.3584 10.2871 7.36206L10.6064 7.36719L10.6631 7.4165C10.7393 7.47974 10.7695 7.54834 10.7695 7.64844C10.7695 7.74878 10.7393 7.81738 10.6631 7.88062C10.6064 7.92969 10.6025 7.92969 10.3232 7.93848C10.0039 7.94922 9.9834 7.95605 9.96387 8.08447C9.95605 8.13892 9.96191 8.15479 10.0049 8.20215L10.0547 8.25854L10.3594 8.25146C10.6475 8.24609 10.6709 8.24268 10.7461 8.20215C10.8594 8.14185 10.9443 8.0498 10.9961 7.93604C11.0352 7.85083 11.0557 7.75366 11.0557 7.64844C11.0557 7.57202 11.0459 7.50195 11.0264 7.43823C10.9854 7.29932 10.8984 7.18994 10.7666 7.1106L10.667 7.05078L10.2695 7.04736L10.0703 7.04639C9.91504 7.04736 9.8418 7.05371 9.80469 7.06665ZM7.77051 9.69653C7.99609 10.1411 8.00586 10.1641 7.98828 10.2151C7.97656 10.2432 7.96582 10.2854 7.96094 10.3064C7.95605 10.3289 7.95117 10.3389 7.92285 10.3435C7.90234 10.3467 7.86816 10.3469 7.81152 10.3469C7.6543 10.3469 7.67383 10.3662 7.63965 10.1782C7.60156 9.96899 7.49512 9.71924 7.36328 9.53833L7.29395 9.44336L7.39648 9.30615C7.4873 9.18677 7.50293 9.17261 7.51758 9.19897L7.77051 9.69653ZM6.53027 9.33789C6.59375 9.35376 6.69727 9.39233 6.7627 9.42578C6.86914 9.48022 6.87695 9.48901 6.8584 9.51538L6.50684 9.98291C6.32422 10.2239 6.1709 10.4382 6.16699 10.4629C6.16309 10.4773 6.16309 10.5 6.16699 10.522L6.17578 10.5596C6.21387 10.6597 6.23145 10.6633 6.82812 10.6633C7.43945 10.6633 7.3877 10.6475 7.34277 10.8181C7.24707 11.1873 6.9707 11.5054 6.63672 11.6318C6.49512 11.6846 6.20898 11.6987 6.06445 11.6582C5.75293 11.572 5.48828 11.3367 5.34766 11.0237L5.3125 10.9392L5.2832 10.8516C5.26074 10.7793 5.24707 10.709 5.23926 10.6343C5.23535 10.5903 5.2334 10.5447 5.2334 10.4963C5.2334 9.74756 5.87402 9.17603 6.53027 9.33789ZM10.9941 9.37476C11.4375 9.54346 11.7236 9.98486 11.7236 10.4946C11.7236 10.7107 11.6982 10.8337 11.6094 11.0325C11.5566 11.1538 11.5166 11.2117 11.4072 11.3313C11.292 11.458 11.1729 11.5483 11.043 11.6057C10.9238 11.658 10.7949 11.6829 10.6504 11.6829C10.5732 11.6829 10.5 11.6758 10.4307 11.6609C10.3418 11.6421 10.2588 11.6108 10.1797 11.5664C10.0801 11.51 9.98633 11.4321 9.89551 11.3313C9.66504 11.0781 9.56836 10.8005 9.58203 10.4436C9.59473 10.1272 9.69824 9.87573 9.90723 9.64722L9.99219 9.55957C10.0156 9.53589 10.0322 9.52075 10.0352 9.52075C10.042 9.52075 10.1592 9.76855 10.2959 10.0708C10.5156 10.5579 10.5508 10.6245 10.5938 10.6458C10.6924 10.6897 10.7861 10.6228 10.7861 10.5051C10.7861 10.4487 10.7354 10.324 10.5459 9.90576C10.415 9.61377 10.3105 9.37305 10.3135 9.36938C10.3154 9.36621 10.335 9.35986 10.3623 9.35205L10.4219 9.33618C10.4961 9.31714 10.585 9.3103 10.6768 9.31421C10.7881 9.31909 10.9023 9.34009 10.9941 9.37476ZM7.20996 9.85815C7.22949 9.89331 7.24902 9.93335 7.26465 9.96899C7.30176 10.0527 7.34277 10.1814 7.36035 10.2629C7.36914 10.303 7.37207 10.3318 7.36621 10.3381C7.3623 10.3433 7.19141 10.3452 6.98828 10.3433L6.61914 10.3381L6.85449 10.0251C6.9834 9.85474 7.09473 9.71411 7.10156 9.71411C7.10645 9.71411 7.13477 9.7439 7.16113 9.77905C7.17383 9.79688 7.19141 9.82544 7.20996 9.85815ZM8.58594 10.2397C8.67676 10.2854 8.72461 10.3662 8.73242 10.4858C8.7373 10.5667 8.73242 10.5947 8.7002 10.644C8.6875 10.665 8.67383 10.6836 8.66016 10.6995L8.63184 10.729C8.59766 10.7583 8.55957 10.7749 8.51562 10.781C8.4248 10.7952 8.37891 10.7776 8.30566 10.7056C8.18652 10.5859 8.18848 10.4172 8.30762 10.2905C8.3916 10.2009 8.47754 10.1851 8.58594 10.2397Z"></path></svg>