<svg xmlns="http://www.w3.org/2000/svg" viewBox="0 0 20 23" height="23" width="20"><title>boutique.svg</title><rect fill="none" x="0" y="0" width="20" height="23"></rect><path fill="#5e758d" transform="translate(1 1)" d="M16.1289 8.06445C16.1289 11.4402 14.0547 14.3313 11.1123 15.5334L8.76562 19.5967C8.45508 20.1345 7.67969 20.1345 7.36914 19.5967L5.02539 15.5366C2.07812 14.3364 0 11.4431 0 8.06445C0 3.6106 3.61035 0 8.06445 0C12.5186 0 16.1289 3.6106 16.1289 8.06445ZM5.0166 3.28735V3.57788L4.52441 4.03027L4.02832 4.48584H4L4.01758 4.72363C4.02832 4.87549 4.06445 5.01416 4.11133 5.09668C4.16211 5.18799 4.27148 5.30444 4.37988 5.39404C4.46289 5.46338 4.5459 5.51636 4.60059 5.5293L4.69336 5.54907V7.53027V9.50806L4.35254 9.49805L4.01074 9.48828V9.74243V10H8H11.9893V9.74243V9.48828L11.6475 9.49805L11.3066 9.50806V7.53345V5.55566L11.4287 5.51611C11.4932 5.49292 11.6084 5.42358 11.6797 5.35767C11.874 5.18262 11.9609 5.00098 11.9824 4.72363L12 4.48584H11.96L11.4893 4.03345L11.0186 3.58105V3.29053V3H8.01758H5.0166V3.28735ZM6.38965 5.39062C6.31055 5.33105 6.20703 5.20239 6.15625 5.10669C6.10645 5.01074 6.05176 4.89868 6.03418 4.85571C6.00879 4.79297 5.99805 4.80933 5.94434 4.97119C5.87207 5.19897 5.66016 5.41699 5.42676 5.5127L5.26855 5.57227V7.54004V9.50464L6.39355 9.49805L7.51465 9.48828L7.52539 9.41235C7.53613 9.34619 7.55762 9.3396 7.72363 9.3396H7.91016L7.89941 8.95996L7.88867 8.58008H7.4209C6.97559 8.58008 6.95801 8.5769 6.95801 8.51074C6.95801 8.41504 7.08691 8.14771 7.31348 7.78784L7.6084 7.30908L7.70898 7.1438L7.65137 6.89624C7.58691 6.60229 7.54688 6.54956 7.50781 6.70142C7.49414 6.7478 7.4834 6.77515 7.46289 6.79224C7.43848 6.81274 7.39941 6.81812 7.32422 6.82349C7.15137 6.83691 7.15137 6.83008 7.22363 6.58252C7.32031 6.23584 7.4209 6.13013 7.66895 6.10376C7.82031 6.08716 7.83789 6.07739 7.86328 5.97827C7.89258 5.88257 7.90625 5.87256 8.03613 5.87256C8.16895 5.87256 8.17578 5.87915 8.20117 5.98828C8.22266 6.09717 8.23047 6.10376 8.36621 6.10376C8.4209 6.10376 8.4834 6.11182 8.5293 6.12207L8.5791 6.13672C8.66113 6.17969 8.80859 6.43408 8.84473 6.59912C8.85254 6.64551 8.86621 6.70093 8.87598 6.73877L8.88379 6.77075C8.90234 6.82031 8.87695 6.83008 8.74414 6.83008C8.59277 6.83008 8.58594 6.8269 8.5498 6.70483L8.51367 6.58252L8.47461 6.67163C8.45312 6.71802 8.41699 6.84668 8.3916 6.95239L8.34863 7.14722L8.60742 7.59619C8.7041 7.76416 8.78711 7.91724 8.85449 8.04932C8.97461 8.28613 9.04199 8.45508 9.04199 8.52075C9.04199 8.57349 9.00293 8.58008 8.59277 8.58008H8.14355V8.95996V9.3396H8.3418C8.52832 9.3396 8.53906 9.34302 8.53906 9.42212V9.50464H9.63477H10.7314V7.53687V5.57227L10.5986 5.52271C10.3428 5.427 10.1025 5.15942 10.0303 4.89868C10.0059 4.79956 10.0059 4.80273 9.93359 4.9812C9.88281 5.1001 9.79297 5.21875 9.6709 5.33105C9.29785 5.67456 8.72949 5.69775 8.35254 5.38403C8.20508 5.26172 8.03906 4.99097 8.03613 4.86548C8.03223 4.82935 7.97852 4.90527 7.91406 5.03076C7.83789 5.18262 7.74512 5.30469 7.64746 5.38062C7.48633 5.5061 7.20215 5.6084 7.01172 5.6084C6.8252 5.6084 6.53711 5.50952 6.38965 5.39062Z"></path></svg>