<svg xmlns="http://www.w3.org/2000/svg" viewBox="0 0 20 23" height="23" width="20"><title>brownfield.svg</title><rect fill="none" x="0" y="0" width="20" height="23"></rect><path fill="#5e758d" transform="translate(1 1)" d="M11.1123 15.5334C14.0547 14.3313 16.1289 11.4402 16.1289 8.06445C16.1289 3.6106 12.5186 0 8.06445 0C3.61035 0 0 3.6106 0 8.06445C0 11.4431 2.07812 14.3364 5.02539 15.5366L7.36914 19.5967C7.67969 20.1345 8.45508 20.1345 8.76562 19.5967L11.1123 15.5334ZM6.18457 3.35522L6.25586 3H6.68555L6.75684 3.35522H6.18457ZM6.31836 3.92383V3.67505H6.62305V3.92383H6.31836ZM5.66797 5.91382L5.79883 4.24365H8.23242L8.2666 4.49243H6.05859L5.95801 5.91382H5.66797ZM10.918 5.97778V4.65234H11.2227V6.00732C11.1211 5.99585 11.0195 5.98584 10.918 5.97778ZM6.2627 5.91382L6.3418 4.81226H6.85938V6.10278C6.7002 5.98975 6.53809 5.91382 6.36914 5.91382H6.2627ZM7.16406 6.30908V4.81226H8.30957L8.4834 6.08496V6.46338L7.16406 6.30908ZM4.875 6.30249C4.97266 6.25757 5.05762 6.2334 5.11816 6.2334H6.36914C6.45117 6.2334 6.58691 6.28857 6.73633 6.40234C6.88672 6.51636 7.05176 6.68286 7.20898 6.875C7.4668 7.18921 7.70312 7.57056 7.85742 7.90356H7.51172C7.30762 7.06885 6.58203 6.44678 5.72656 6.44678C5.14453 6.44678 4.62305 6.73486 4.28418 7.18213L4 7.10742C4.12695 6.90723 4.30176 6.70874 4.48633 6.55371C4.61816 6.44336 4.75586 6.35742 4.875 6.30249ZM8.78711 8.18774V6.23462C9.33203 6.23486 10.1094 6.23779 10.7891 6.28809C11.0352 6.3064 11.2646 6.3313 11.459 6.36279V7.01123C11.2471 6.9668 11.043 6.94458 10.8506 6.94824C10.6006 6.95312 10.3701 7.00122 10.1611 7.10059C9.77344 7.28589 9.48438 7.6521 9.33105 8.18774H8.78711ZM11.7637 6.7666V6.42676C11.832 6.44653 11.9326 6.48022 12 6.52832V6.7666H11.7637ZM8.23633 8.00562C8.08008 7.58276 7.77734 7.07812 7.43652 6.66284L8.4834 6.78516V8.75635H7.53516L7.55273 8.64526C7.56445 8.55957 7.57031 8.47192 7.57031 8.3833C7.57031 8.32935 7.56738 8.27612 7.56348 8.22339H8.31641L8.23633 8.00562ZM4.18848 8.3833C4.18848 7.49341 4.87988 6.7666 5.72656 6.7666C6.57324 6.7666 7.26562 7.49341 7.26562 8.3833C7.26562 9.27295 6.57324 10 5.72656 10C4.87988 10 4.18848 9.27295 4.18848 8.3833ZM11.7637 7.33496V7.08618H12V7.33496H11.7637ZM6.89355 8.3833C6.89355 7.70532 6.37207 7.15747 5.72656 7.15747C5.08105 7.15747 4.56055 7.70532 4.56055 8.3833C4.56055 9.06128 5.08105 9.60913 5.72656 9.60913C6.12207 9.60913 6.4707 9.40381 6.68164 9.08911C6.81543 8.88965 6.89355 8.64624 6.89355 8.3833ZM10.7451 7.27905C10.8066 7.27295 10.8682 7.26953 10.9277 7.2688C11.0918 7.27148 11.2695 7.29492 11.459 7.33765V7.6123C11.3877 7.58228 11.3145 7.55884 11.2393 7.54224C11.1504 7.52271 11.0596 7.5127 10.9688 7.5127C10.7012 7.5127 10.4521 7.59668 10.2422 7.74048C10.0752 7.85547 9.93359 8.00854 9.8291 8.18774H9.65039C9.73047 7.94409 9.83887 7.75854 9.97168 7.61938C10.0645 7.52222 10.1699 7.44775 10.2871 7.39185C10.416 7.33179 10.5811 7.29565 10.7451 7.27905ZM5.28516 7.60107C5.41406 7.52197 5.56445 7.47705 5.72656 7.47705C6.20996 7.47705 6.58887 7.87524 6.58887 8.3833C6.58887 8.66382 6.47363 8.91089 6.28809 9.07593C6.1377 9.20947 5.94238 9.28931 5.72656 9.28931C5.5 9.28931 5.2959 9.20166 5.14355 9.0564C4.9707 8.89185 4.86426 8.65308 4.86426 8.3833C4.86426 8.0459 5.03125 7.75708 5.28516 7.60107ZM11.7637 7.79102V7.65479H12V8.02832C11.9307 7.93945 11.8506 7.85986 11.7637 7.79102ZM9.9375 8.91626C9.9375 8.32129 10.4023 7.83252 10.9688 7.83252C11.5352 7.83252 12 8.32129 12 8.91626C12 9.51123 11.5352 10 10.9688 10C10.4023 10 9.9375 9.51123 9.9375 8.91626ZM11.6279 8.91626C11.6279 8.53394 11.332 8.22339 10.9688 8.22339C10.7158 8.22339 10.4961 8.37305 10.3857 8.59253C10.3369 8.68921 10.3096 8.79932 10.3096 8.91626C10.3096 9.29858 10.6045 9.60913 10.9688 9.60913C11.332 9.60913 11.6279 9.29858 11.6279 8.91626ZM8.78711 8.78076V8.50757H9.69141C9.65332 8.63721 9.63281 8.77441 9.63281 8.92896L8.78711 8.78076ZM10.6133 8.91626C10.6133 8.70142 10.7637 8.54321 10.9688 8.54321C11.1729 8.54321 11.3232 8.70142 11.3232 8.91626C11.3232 9.1311 11.1729 9.28931 10.9688 9.28931C10.7637 9.28931 10.6133 9.1311 10.6133 8.91626Z"></path></svg>