<svg xmlns="http://www.w3.org/2000/svg" viewBox="0 0 21 24" height="24" width="21"><title>bus.svg</title><rect fill="none" x="0" y="0" width="21" height="24"></rect><path fill="#4898ff" transform="translate(2 2)" d="M11.1123 15.5334C14.0547 14.3313 16.1289 11.4402 16.1289 8.06445C16.1289 3.6106 12.5186 0 8.06445 0C3.61035 0 0 3.6106 0 8.06445C0 11.4431 2.07812 14.3364 5.02539 15.5366L7.36914 19.5967C7.56543 19.9368 7.94727 20.0618 8.28027 19.9717C8.47461 19.9194 8.65137 19.7944 8.76562 19.5967L11.1123 15.5334ZM5.26855 3.46875C5.7373 3 6.49121 3 8 3C9.50879 3 10.2627 3 10.7314 3.46875C11.1572 3.89404 11.1963 4.55444 11.2002 5.80005H11.5996C11.7061 5.80005 11.8076 5.84204 11.8828 5.91724C11.958 5.99219 12 6.09399 12 6.19995V6.6001C12 6.66211 11.9854 6.72339 11.958 6.77881C11.9297 6.83447 11.8896 6.88281 11.8398 6.91992L11.2002 7.3999C11.1963 8.64551 11.1572 9.30591 10.7314 9.7312C10.6348 9.82764 10.5225 9.90698 10.4004 9.96606V10.6001C10.4004 10.6462 10.3926 10.6914 10.377 10.7339C10.3574 10.7893 10.3252 10.8403 10.2832 10.8828C10.208 10.9578 10.1064 11 10 11H9.40039C9.29395 11 9.19238 10.9578 9.11719 10.8828C9.04199 10.8079 9 10.7061 9 10.6001V10.1929C8.70898 10.2 8.37793 10.2 8 10.2C7.62207 10.2 7.29102 10.2 7 10.1929V10.6001C7 10.6865 6.97168 10.77 6.9209 10.8386L6.88281 10.8828C6.80762 10.9578 6.70605 11 6.59961 11H6C5.89355 11 5.79199 10.9578 5.7168 10.8828C5.64258 10.8079 5.59961 10.7061 5.59961 10.6001V9.96606C5.47461 9.90527 5.36523 9.82837 5.26855 9.7312C4.84277 9.30591 4.80371 8.64551 4.7998 7.3999L4.16016 6.91992C4.11035 6.88281 4.07031 6.83447 4.04199 6.77881C4.01465 6.72339 4 6.66211 4 6.6001V6.19995C4 6.12158 4.02344 6.04565 4.06543 5.98096C4.08008 5.95825 4.09766 5.93677 4.11719 5.91724C4.19238 5.84204 4.29395 5.80005 4.40039 5.80005H4.7998C4.80176 5.07642 4.81641 4.55029 4.91113 4.15308C4.97949 3.86646 5.08984 3.64697 5.26855 3.46875ZM5.57617 7.02393C5.40039 6.84839 5.40039 6.56567 5.40039 6V5C5.40039 4.66309 5.40039 4.42651 5.4375 4.25317C5.46289 4.13525 5.50488 4.04688 5.57617 3.97607C5.75195 3.80005 6.03418 3.80005 6.59961 3.80005H9.40039C9.7832 3.80005 10.0361 3.80005 10.2139 3.85449C10.2988 3.88062 10.3672 3.91919 10.4238 3.97607C10.5234 4.07568 10.5664 4.20996 10.585 4.41113C10.5996 4.56421 10.5996 4.75562 10.5996 5V6C10.5996 6.23975 10.5996 6.42871 10.5859 6.58008C10.5684 6.78613 10.5254 6.92285 10.4238 7.02393C10.248 7.19995 9.96582 7.19995 9.40039 7.19995H6.59961C6.03418 7.19995 5.75195 7.19995 5.57617 7.02393ZM5.78809 8.38794C5.73145 8.44409 5.7002 8.52051 5.7002 8.6001C5.7002 8.67944 5.73145 8.75586 5.78809 8.81201C5.84375 8.86841 5.9209 8.8999 6 8.8999H6.59961C6.67969 8.8999 6.75586 8.86841 6.8125 8.81201C6.86816 8.75586 6.90039 8.67944 6.90039 8.6001C6.90039 8.52051 6.86816 8.44409 6.8125 8.38794C6.75586 8.33154 6.67969 8.30005 6.59961 8.30005H6C5.9209 8.30005 5.84375 8.33154 5.78809 8.38794ZM10.2119 8.38794C10.2686 8.44409 10.2998 8.52051 10.2998 8.6001C10.2998 8.67944 10.2686 8.75586 10.2119 8.81201C10.1562 8.86841 10.0791 8.8999 10 8.8999H9.40039C9.32031 8.8999 9.24414 8.86841 9.1875 8.81201C9.16113 8.78589 9.14062 8.75513 9.12598 8.72192C9.10938 8.68384 9.09961 8.64233 9.09961 8.6001C9.09961 8.52051 9.13184 8.44409 9.1875 8.38794C9.24414 8.33154 9.32031 8.30005 9.40039 8.30005H10C10.0791 8.30005 10.1562 8.33154 10.2119 8.38794Z"></path></svg>