<svg xmlns="http://www.w3.org/2000/svg" viewBox="0 0 21 24" height="24" width="21"><title>butcher.svg</title><rect fill="none" x="0" y="0" width="21" height="24"></rect><path fill="#d97200" transform="translate(2 2)" d="M16.1289 8.06445C16.1289 11.4402 14.0547 14.3313 11.1123 15.5334L8.76562 19.5967C8.45508 20.1345 7.67969 20.1345 7.36914 19.5967L5.02539 15.5366C2.07812 14.3364 0 11.4431 0 8.06445C0 3.6106 3.61035 0 8.06445 0C12.5186 0 16.1289 3.6106 16.1289 8.06445ZM10.167 3.44116L9.54004 3.73877L9.20801 3.89746C9.18359 3.91943 9.51562 4.41968 9.55957 4.41968C9.58398 4.41968 9.83496 4.31519 10.1172 4.18872L10.625 3.95239L10.8379 4.08984C11.1387 4.28784 11.5078 4.27686 11.7588 4.06787C12.1104 3.771 12.0723 3.30371 11.6777 3.09473C11.5293 3.01465 11.4102 2.98022 11.2305 3.01172L11.1367 3.03247L11.083 3.04785C10.9863 3.07715 10.873 3.12061 10.7344 3.17993C10.6514 3.21558 10.5596 3.25684 10.458 3.30396L10.167 3.44116ZM8.56348 4.20532L8.73926 4.1228C8.83301 4.07886 8.9209 4.04028 8.92676 4.03491C9.02051 4.01831 9.6543 5.28296 9.61035 5.39282C9.5791 5.45972 9.51758 5.47852 9.44727 5.45581C9.37305 5.43188 9.28906 5.36255 9.22168 5.25537C9.15234 5.14551 8.9707 4.85962 8.82715 4.62866L8.56348 4.20532ZM6.19434 5.34888C4.06348 6.38257 3.94434 6.45947 4.01367 6.77832C4.03027 6.84546 4.29297 7.30151 4.5498 7.72778C4.77734 8.10425 5.00098 8.45776 5.04785 8.49902C5.06348 8.50952 5.14551 8.50244 5.25586 8.48096C5.32129 8.46826 5.39648 8.4502 5.47363 8.42773L5.85645 8.32324L5.8877 7.92725C5.9248 7.47095 6.0752 7.16309 6.40723 6.86621C6.91504 6.4209 7.70508 6.27808 8.39355 6.50342C8.58789 6.56934 8.78223 6.65723 8.82031 6.70142C8.93262 6.82227 9.00781 6.80029 9.31543 6.57495L9.58496 6.36597L8.9707 5.36523C8.62598 4.81567 8.3252 4.36475 8.28711 4.37036C8.26855 4.37036 7.93359 4.52246 7.43457 4.75708C7.08496 4.92163 6.6543 5.12695 6.19434 5.34888ZM6.21973 7.63037C6.35156 7.229 6.79004 6.82788 7.22852 6.70679C7.41406 6.6543 7.59668 6.63184 7.77539 6.63843C7.94434 6.64453 8.10938 6.67676 8.26855 6.73462C8.53809 6.83203 8.79199 7.00195 9.02051 7.23999C9.17383 7.40161 9.30957 7.53027 9.44238 7.63672C9.65332 7.80591 9.85742 7.91968 10.1113 8.02075C10.5244 8.18018 10.7002 8.37817 10.7002 8.68604C10.7002 9.02148 10.4375 9.2854 10.0049 9.3623C9.61035 9.43921 7.94336 9.43921 7.49805 9.36768C6.53906 9.20825 5.95605 8.41675 6.21973 7.63037ZM8.9082 7.50391C8.79688 7.38794 8.67578 7.28076 8.55566 7.19385C8.46582 7.12842 8.37695 7.07446 8.29395 7.03662C6.96484 6.43188 5.76855 7.96021 6.87793 8.83984C7.00879 8.94434 7.22852 9.05444 7.36035 9.0874C7.41504 9.10107 7.55957 9.11401 7.75684 9.12427C8.03223 9.13867 8.40918 9.14795 8.78906 9.14795C10.0732 9.14795 10.2178 9.12036 10.3809 8.86206C10.5059 8.67505 10.4062 8.46606 10.1299 8.33423C9.55371 8.05933 9.17773 7.8064 8.9082 7.50391ZM7.41016 7.19604C6.60742 7.4436 6.48926 8.36719 7.20996 8.75757C7.41602 8.86743 7.49805 8.87305 8.76953 8.86206C10.0918 8.84546 10.1045 8.84546 10.123 8.72461C10.1338 8.67212 10.1211 8.63354 10.0625 8.58862C10.0098 8.54858 9.9209 8.50342 9.7793 8.43872C9.30273 8.22974 8.95801 7.98242 8.61328 7.60303C8.23145 7.19067 7.85449 7.06421 7.41016 7.19604ZM8.41309 7.91089C8.80762 8.25171 8.3877 8.78491 7.87402 8.59814C7.71094 8.5376 7.61328 8.39575 7.59277 8.24707C7.57324 8.09888 7.62988 7.94385 7.77344 7.85596C7.97363 7.73486 8.2373 7.75684 8.41309 7.91089ZM4.00684 9.90112C3.99512 9.84595 4.00098 9.76367 4.01953 9.71973C4.05078 9.65356 4.60254 9.64258 8.01758 9.65356L11.9854 9.67017V9.83496V10H8.00586C4.2207 10 4.02637 9.99438 4.00684 9.90112Z"></path></svg>