<svg xmlns="http://www.w3.org/2000/svg" viewBox="0 0 21 24" height="24" width="21"><title>cafe.svg</title><rect fill="none" x="0" y="0" width="21" height="24"></rect><path fill="#d97200" transform="translate(2 2)" d="M11.112 15.5334C14.0551 14.3313 16.129 11.4401 16.129 8.06452C16.129 3.61061 12.5184 0 8.06452 0C3.61061 0 0 3.61061 0 8.06452C0 11.4431 2.07765 14.3365 5.02501 15.5366L7.36915 19.5968C7.67955 20.1344 8.45556 20.1344 8.76596 19.5968L11.112 15.5334ZM9.33333 5.2H10.6667C11.0203 5.2 11.3594 5.32643 11.6095 5.55147C11.8595 5.77652 12 6.08174 12 6.4C12 6.71826 11.8595 7.02348 11.6095 7.24853C11.3594 7.47357 11.0203 7.6 10.6667 7.6H8.96667C8.67112 8.05338 8.21836 8.4069 7.67793 8.60625C7.1375 8.8056 6.5393 8.83975 5.97522 8.70346C5.41113 8.56718 4.91236 8.26798 4.55552 7.85185C4.19869 7.43571 4.00352 6.92564 4 6.4V4H9.33333V5.2ZM9.24 7H10.6667C10.8435 7 11.013 6.93679 11.1381 6.82426C11.2631 6.71174 11.3333 6.55913 11.3333 6.4C11.3333 6.24087 11.2631 6.08826 11.1381 5.97574C11.013 5.86321 10.8435 5.8 10.6667 5.8H9.33333V6.4C9.33051 6.60275 9.29915 6.80435 9.24 7ZM9.2357 9.91213C9.29821 9.85587 9.33333 9.77956 9.33333 9.7C9.33333 9.62043 9.29821 9.54413 9.2357 9.48787C9.17319 9.43161 9.08841 9.4 9 9.4H4.33333C4.24493 9.4 4.16014 9.43161 4.09763 9.48787C4.03512 9.54413 4 9.62043 4 9.7C4 9.77956 4.03512 9.85587 4.09763 9.91213C4.16014 9.96839 4.24493 10 4.33333 10H9C9.08841 10 9.17319 9.96839 9.2357 9.91213Z"></path></svg>