<svg xmlns="http://www.w3.org/2000/svg" viewBox="0 0 17 20" height="20" width="17"><title>camera.svg</title><rect fill="none" x="0" y="0" width="17" height="20"></rect><path fill="#5e758d" transform="translate(0 0)" d="M11.112 15.5334C14.0551 14.3313 16.129 11.4401 16.129 8.06452C16.129 3.61061 12.5184 0 8.06452 0C3.61061 0 0 3.61061 0 8.06452C0 11.4431 2.07765 14.3365 5.02501 15.5366L7.36915 19.5968C7.67955 20.1344 8.45556 20.1344 8.76596 19.5968L11.112 15.5334ZM11.21 9.71417C10.7616 10 10.1372 10 8.8888 10H7.1112C5.8628 10 5.2384 10 4.79 9.71417C4.5956 9.59011 4.4292 9.43106 4.2996 9.24595C4 8.81778 4 8.222 4 7.03045C4 5.83851 4 5.24273 4.3 4.81496C4.43015 4.62914 4.59665 4.47004 4.79 4.34674C5.0784 4.16318 5.4392 4.09707 5.9912 4.07374C6.2548 4.07374 6.4816 3.88318 6.5332 3.63624C6.6108 3.26641 6.9512 3.00002 7.3464 3.00002H8.6536C8.84378 2.99878 9.02857 3.06141 9.17674 3.17733C9.32491 3.29325 9.42737 3.45535 9.4668 3.63624C9.5184 3.88318 9.7452 4.07374 10.0088 4.07374C10.5612 4.09707 10.922 4.16279 11.21 4.34674C11.4035 4.47002 11.5701 4.62911 11.7004 4.81496C12 5.24273 12 5.83851 12 7.03045C12 8.222 12 8.81817 11.7004 9.24595C11.5701 9.43179 11.4035 9.59088 11.21 9.71417ZM6.3332 7.03006C6.3332 6.15157 7.0796 5.43951 8 5.43951C8.9204 5.43951 9.6668 6.15157 9.6668 7.03045C9.6668 7.90895 8.9204 8.621 8 8.621C7.0796 8.621 6.3332 7.90895 6.3332 7.03006ZM7 7.03045C7 6.50312 7.448 6.07573 8 6.07573C8.552 6.07573 9 6.50312 9 7.03045C9 7.5574 8.552 7.98478 8 7.98478C7.448 7.98478 7 7.5574 7 7.03045ZM10.2224 5.43951C10.038 5.43951 9.8888 5.58184 9.8888 5.75762C9.88922 5.79981 9.89818 5.8415 9.91517 5.88031C9.93216 5.91913 9.95685 5.95431 9.98783 5.98385C10.0188 6.01339 10.0555 6.03671 10.0957 6.05248C10.136 6.06824 10.179 6.07614 10.2224 6.07573H10.6668C10.7544 6.07646 10.8386 6.04336 10.9011 5.98372C10.9636 5.92407 10.9992 5.84275 11 5.75762C11 5.58184 10.8504 5.43951 10.6664 5.43951H10.2224Z"></path></svg>