<svg xmlns="http://www.w3.org/2000/svg" viewBox="0 0 17 20" height="20" width="17"><title>campsite.svg</title><rect fill="none" x="0" y="0" width="17" height="20"></rect><path fill="#5e758d" transform="translate(0 0)" d="M11.112 15.5334C14.0551 14.3313 16.129 11.4401 16.129 8.06452C16.129 3.61061 12.5184 0 8.06452 0C3.61061 0 0 3.61061 0 8.06452C0 11.4431 2.07765 14.3365 5.02501 15.5366L7.36915 19.5968C7.67955 20.1344 8.45556 20.1344 8.76596 19.5968L11.112 15.5334ZM7.8599 7.33911C7.78663 7.13796 7.86218 7.00167 8.09769 7.00167H8.53791C8.75003 7.00167 8.88518 7.10225 8.95475 7.28396C8.99815 7.39785 9.04928 7.53619 9.09385 7.65679L9.09386 7.6568L9.11584 7.71626L9.16317 7.84483C9.21335 7.98055 9.17999 8.14626 8.94448 8.14626H8.45807C8.24566 8.14626 8.11708 8.08483 8.02812 7.84483C7.95713 7.65311 7.88556 7.42825 7.8599 7.33911ZM10.9754 3.81018C10.9782 3.84932 11.0039 3.91932 11.0541 3.9359C11.1652 3.96259 11.2699 4.01128 11.362 4.07912C11.4541 4.14695 11.5317 4.23255 11.5903 4.33089C11.6489 4.42923 11.6873 4.53831 11.7032 4.65173C11.7192 4.76515 11.7123 4.88062 11.683 4.99134C11.6829 4.99681 11.6815 5.00217 11.679 5.00705L11.6776 5.01105C11.6754 5.01842 11.6731 5.02575 11.6708 5.03305C11.6565 5.08248 11.6451 5.1502 11.6936 5.20077C11.8279 5.31363 11.9245 5.46509 11.9703 5.63469C12.0161 5.8043 12.0088 5.98389 11.9495 6.14924C11.8902 6.31458 11.7817 6.4577 11.6386 6.5593C11.4956 6.66089 11.3249 6.71606 11.1496 6.71737H10.8439V7.28566H11.413C11.7266 7.28566 11.9832 7.53995 11.9832 7.85652V10.1406C11.9825 10.3684 11.8918 10.5866 11.731 10.7476C11.5702 10.9087 11.3524 10.9994 11.125 11H4.8582C4.63074 10.9998 4.41262 10.9093 4.25173 10.7481C4.09083 10.587 4.0003 10.3685 4 10.1406V7.85652C4 7.54281 4.25375 7.28566 4.57023 7.28566H5.56244C5.74691 6.81794 5.89317 6.44793 5.91427 6.39708L5.92225 6.37736C5.94535 6.3205 5.975 6.24822 6.01891 6.19307C6.04944 6.15399 6.08882 6.12275 6.13379 6.10194C6.17875 6.08112 6.22802 6.07132 6.27751 6.07336H8.30383C8.26435 5.91916 8.26831 5.75701 8.31527 5.60494C8.36224 5.45286 8.45035 5.31682 8.56984 5.21191C8.59835 5.17706 8.60975 5.1282 8.59236 5.08706C8.59107 5.08413 8.59011 5.08106 8.58951 5.07791C8.54513 4.96157 8.52652 4.83695 8.53499 4.71269C8.54346 4.58843 8.57879 4.4675 8.63855 4.35829C8.6983 4.24908 8.78104 4.1542 8.88103 4.08022C8.98102 4.00625 9.09588 3.95495 9.21762 3.9299C9.24955 3.91447 9.25839 3.88247 9.26324 3.84818C9.26593 3.62558 9.3548 3.41273 9.51109 3.25452C9.66738 3.09632 9.87889 3.00514 10.101 3.00021C10.3231 2.99528 10.5384 3.07699 10.7015 3.2281C10.8647 3.37922 10.9628 3.58792 10.9754 3.81018ZM6.22476 7.07709C5.87948 8.03281 5.26962 9.67684 5.24453 9.74398C5.21859 9.81284 5.18181 9.8517 5.16641 9.86255H6.23816V7.0368L6.23759 7.0348L6.22476 7.07709ZM7.14682 9.28169C7.30535 9.66655 7.38803 9.85313 7.68769 9.86284H10.7852C10.9933 9.86284 11.084 9.69312 10.9842 9.43826L10.8915 9.20512L10.8904 9.20197V9.20169C10.7828 8.93205 10.6754 8.66233 10.5682 8.39253L10.5451 8.3331L10.5206 8.27139L10.4077 7.98567L10.3561 7.85538H10.3578L9.91159 6.71708H9.91017L9.89221 6.67079L9.81494 6.47022L9.79156 6.41079C9.79008 6.40704 9.78874 6.40322 9.78757 6.39936L9.78215 6.38507L9.77217 6.35879H7.3102L7.32588 6.36107H6.38642C6.23789 6.36107 6.18137 6.50222 6.14713 6.5877L6.14692 6.58822L6.14208 6.60108C6.10843 6.68451 6.11955 6.71965 6.14208 6.77251C6.15941 6.81396 6.2562 7.06191 6.3054 7.18794L6.30557 7.18839L6.3083 7.19537H6.30687C6.57374 7.86167 7.02765 8.99254 7.14682 9.28169ZM10.5588 7.58709V6.71708H10.2178L10.5588 7.58709ZM6.13282 3.79237C6.01442 3.84121 5.90722 3.91377 5.8178 4.00561C5.71365 3.97522 5.60301 3.97737 5.50011 4.01178C5.39721 4.04618 5.30723 4.11121 5.24215 4.19818C4.85867 4.21847 4.5459 4.54819 4.5459 4.97105C4.5459 5.18591 4.61974 5.38077 4.77684 5.51992C4.93195 5.65706 5.1512 5.72563 5.4155 5.72563H6.56566C7.13247 5.72563 7.51795 5.25077 7.51795 4.68533C7.51795 4.08332 6.9711 3.7216 6.50636 3.7216C6.37833 3.71945 6.25122 3.74354 6.13282 3.79237ZM5.91132 4.34504C5.99315 4.21475 6.16963 4.00732 6.50636 4.00732C6.85733 4.00732 7.23312 4.28161 7.23312 4.68533C7.23312 5.12534 6.94486 5.4402 6.56595 5.4402H5.4155C5.19767 5.4402 5.05369 5.38363 4.96559 5.30591C4.87948 5.22963 4.83101 5.11848 4.83101 4.97105C4.83101 4.68247 5.04628 4.48304 5.27979 4.48304C5.33363 4.48122 5.38735 4.48925 5.43831 4.50676C5.45383 4.51187 5.46952 4.51644 5.48536 4.52047C5.54466 4.54276 5.62734 4.56619 5.7163 4.5319C5.80298 4.49904 5.86199 4.42361 5.91132 4.34504Z"></path></svg>