<svg xmlns="http://www.w3.org/2000/svg" viewBox="0 0 21 24" height="24" width="21"><title>car.svg</title><rect fill="none" x="0" y="0" width="21" height="24"></rect><path fill="#4898ff" transform="translate(2 2)" d="M11.1123 15.5334C14.0547 14.3313 16.1289 11.4402 16.1289 8.06445C16.1289 3.6106 12.5186 0 8.06445 0C3.61035 0 0 3.6106 0 8.06445C0 11.4431 2.07812 14.3364 5.02539 15.5366L7.36914 19.5967C7.67969 20.1345 8.45508 20.1345 8.76562 19.5967L11.1123 15.5334ZM5.45703 3.81689C5.72363 3.00977 7.01758 2.9873 7.94922 3.00269C8.88086 3.01831 10.2578 2.9978 10.543 3.81714L11.1982 5.54932C11.2266 5.51196 11.2646 5.48486 11.3076 5.47119L11.5713 5.3877C11.5996 5.37842 11.6309 5.37573 11.6602 5.37964L11.6953 5.38745C11.7129 5.39307 11.7295 5.40088 11.7451 5.41089C11.7715 5.42749 11.7949 5.44971 11.8135 5.47656C11.8262 5.49487 11.8369 5.51489 11.8447 5.53638L11.8535 5.56641L11.9912 6.11719C12 6.1499 12.002 6.18384 11.998 6.21777C11.9951 6.25146 11.9854 6.28394 11.9707 6.31372C11.9561 6.34326 11.9365 6.36938 11.9121 6.39038C11.8887 6.41113 11.8613 6.42676 11.833 6.43579L11.5693 6.51953L11.543 6.5249C11.5703 6.60254 11.5918 6.68457 11.6064 6.75806C11.6182 6.81836 11.624 6.87305 11.624 6.91479V8.92798C11.624 9.03125 11.5859 9.0791 11.5254 9.10132V9.6377C11.5254 9.6853 11.5166 9.73242 11.501 9.77637C11.4844 9.82056 11.4609 9.86035 11.4316 9.89404C11.4014 9.92773 11.3662 9.95459 11.3271 9.97266C11.2881 9.99072 11.2461 10 11.2041 10H10.3418C10.2998 10 10.2578 9.99072 10.2188 9.97266C10.1797 9.95435 10.1436 9.92773 10.1143 9.89404C10.084 9.86035 10.0605 9.82056 10.0449 9.77637C10.0283 9.73242 10.0205 9.6853 10.0205 9.6377V9.12109H5.97949V9.6377C5.98047 9.6853 5.97168 9.73242 5.95605 9.77637C5.94629 9.80151 5.93457 9.82495 5.9209 9.84668C5.91016 9.86353 5.89844 9.87939 5.88574 9.89404C5.85645 9.92773 5.82031 9.95435 5.78125 9.97266C5.76465 9.98022 5.74805 9.98633 5.73047 9.99072C5.70703 9.99683 5.68262 10 5.6582 10H4.7959C4.75391 10 4.71191 9.99072 4.67285 9.97266C4.63379 9.95435 4.59863 9.92773 4.56934 9.89404C4.53906 9.86035 4.51562 9.82056 4.49902 9.77637C4.4873 9.74438 4.47949 9.71094 4.47656 9.67651L4.47461 9.6377V9.10132C4.41406 9.07886 4.37598 9.03125 4.37598 8.92798V6.91455C4.37598 6.82202 4.40723 6.66626 4.45703 6.52466L4.43066 6.51953L4.16699 6.43579L4.13379 6.42139C4.11719 6.41309 4.10156 6.40259 4.08789 6.39014C4.06348 6.36914 4.04395 6.34326 4.0293 6.31348C4.01465 6.28394 4.00488 6.25122 4.00195 6.21753L4 6.16821C4.00098 6.15088 4.00391 6.13379 4.00879 6.11694L4.14648 5.56641C4.1543 5.53369 4.16797 5.50317 4.18652 5.47632C4.20508 5.44971 4.22852 5.42749 4.25488 5.41064C4.28125 5.39404 4.30957 5.38354 4.33984 5.37964C4.37012 5.37549 4.40039 5.37842 4.42871 5.38745L4.69238 5.47119C4.73535 5.48462 4.77344 5.51172 4.80176 5.54932L5.45703 3.81689ZM10.5391 5.74829C10.5869 5.74512 10.6338 5.71069 10.6182 5.65869C9.88672 3.4751 9.875 3.63501 7.96387 3.61157L7.5918 3.60522C6.04688 3.57642 5.98828 3.5752 5.38184 5.65869C5.36621 5.71045 5.41309 5.74512 5.46094 5.74829C5.46094 5.74829 7.15234 5.91772 8 5.91772L8.11523 5.91528C8.24902 5.40796 8.66699 5.0354 9.15918 5.0354C9.60742 5.0354 9.99414 5.34473 10.1611 5.78345L10.5391 5.74829ZM9.49707 5.55371C9.39355 5.49097 9.27734 5.45825 9.15918 5.45874C9.02637 5.45825 8.89648 5.49951 8.78418 5.57788C8.72559 5.61816 8.67285 5.66772 8.62793 5.72437C8.58594 5.77783 8.5498 5.83765 8.52051 5.90234C8.93164 5.8833 9.37207 5.85059 9.75488 5.8186C9.68945 5.70752 9.60156 5.61646 9.49707 5.55371ZM4.77051 6.21387L4.75293 6.1853L4.74512 6.21387H4.77051ZM6.24414 7.08594C6.24414 7.08594 5.34375 6.74438 5.17578 6.74756C5.00879 6.75073 4.81543 6.85352 4.81543 6.98535V7.54688C4.81543 7.57812 4.82031 7.60889 4.83105 7.6377C4.8418 7.66675 4.85742 7.69287 4.87695 7.71484C4.89648 7.73706 4.91992 7.75439 4.94531 7.76636C4.9707 7.77832 4.99805 7.78442 5.02539 7.78442C5.4375 7.78247 6.45312 7.93652 6.45508 7.49292C6.45508 7.36133 6.35645 7.12183 6.24414 7.08594ZM11.1846 6.98535C11.1846 6.85352 10.9912 6.75073 10.8242 6.74756C10.6562 6.74438 9.75586 7.08594 9.75586 7.08594C9.64355 7.12183 9.54492 7.36133 9.54492 7.49292C9.5459 7.70361 9.77539 7.77954 10.0605 7.80127C10.375 7.82544 10.7578 7.78345 10.9746 7.78442C11.002 7.78442 11.0293 7.77832 11.0547 7.7666C11.0801 7.75464 11.1035 7.73706 11.123 7.71509C11.1426 7.69287 11.1582 7.66675 11.1689 7.63794C11.1797 7.60889 11.1846 7.57812 11.1846 7.54688V6.98535Z"></path></svg>