<svg xmlns="http://www.w3.org/2000/svg" viewBox="0 0 20 23" height="23" width="20"><title>carpet.svg</title><rect fill="none" x="0" y="0" width="20" height="23"></rect><path fill="#5e758d" transform="translate(1 1)" d="M11.1123 15.5334C14.0547 14.3313 16.1289 11.4402 16.1289 8.06445C16.1289 3.6106 12.5186 0 8.06445 0C3.61035 0 0 3.6106 0 8.06445C0 11.4431 2.07812 14.3364 5.02539 15.5366L7.36914 19.5967C7.67969 20.1345 8.45508 20.1345 8.76562 19.5967L11.1123 15.5334ZM4.69434 3.09717C4.75293 3.07129 4.81738 3.04932 4.88965 3.02979C4.92188 3.02124 4.95898 3.01465 4.99902 3.00977C5.03613 3.00513 5.07715 3.0022 5.11914 3.00073C5.28418 2.99536 5.4707 3.0144 5.58984 3.05493C5.94043 3.17505 6.2168 3.45166 6.34375 3.80688L6.39062 3.94019L6.39551 6.32446C6.39648 7.63501 6.39355 8.70044 6.38477 8.69214L6.29004 8.57861C6.18555 8.4519 5.97363 8.29346 5.80469 8.21362C5.46289 8.05347 5.05469 8.03687 4.69824 8.16846C4.58301 8.21118 4.45312 8.28467 4.33691 8.36987C4.23438 8.44434 4.14355 8.52759 4.08105 8.60693L4.00586 8.70044L4.00098 8.23022V5.84937L4.00586 3.94019L4.05273 3.80688C4.11426 3.63184 4.22168 3.46338 4.35156 3.33667C4.38965 3.29956 4.42676 3.2666 4.46387 3.23706C4.49121 3.21484 4.51855 3.19482 4.54688 3.17627C4.57812 3.15601 4.61035 3.1377 4.64355 3.12109L4.69434 3.09717ZM5.29883 3.45093C5.30566 3.43945 5.31055 3.42725 5.3125 3.41504C5.31836 3.3811 5.30566 3.34619 5.27637 3.31836L5.25781 3.30518C5.24023 3.29517 5.2168 3.28857 5.19043 3.28516C5.16699 3.28198 5.1416 3.28125 5.11328 3.28271C5.00488 3.28857 4.86719 3.32666 4.74805 3.39014C4.69531 3.4187 4.63379 3.46729 4.5752 3.52344C4.54883 3.5481 4.52344 3.57422 4.5 3.60083C4.45215 3.6543 4.41211 3.70923 4.38672 3.75684C4.32129 3.88013 4.28125 4.03198 4.28125 4.1521C4.28125 4.22534 4.28809 4.25024 4.31934 4.27881L4.34277 4.29712L4.36035 4.30762C4.3877 4.32129 4.41406 4.32153 4.4375 4.30957C4.46191 4.29736 4.4834 4.27271 4.5 4.23682C4.50781 4.2207 4.51367 4.20264 4.51855 4.18237L4.5332 4.11523C4.57324 3.79858 4.79688 3.57178 5.11133 3.53345C5.20117 3.52173 5.24512 3.5083 5.27539 3.47998C5.28516 3.47095 5.29297 3.46118 5.29883 3.45093ZM11.3594 4.34375C11.4209 4.35547 11.4541 4.40869 11.4629 4.50708L11.4697 4.59888H11.6973L11.8301 4.5979C11.875 4.59692 11.9014 4.59448 11.9199 4.58936C11.9404 4.58374 11.9502 4.57495 11.9629 4.56055C12.0127 4.50708 12.0107 4.41553 11.9609 4.36865C11.9248 4.33374 11.9092 4.33203 11.623 4.33374L11.4951 4.33594L11.3975 4.33936L11.3711 4.34082C11.3594 4.3418 11.3545 4.34277 11.3594 4.34375ZM6.66504 4.86548V4.73218V4.59888H8.93262H11.2002V7.66675V10.7344H8.6123H6.02344L6.08203 10.6895C6.11328 10.6646 6.18164 10.6045 6.2334 10.5562L6.32715 10.4678L8.5791 10.4644L10.833 10.4595L10.8779 10.4126L10.9248 10.3677V7.66675V4.96558L10.8779 4.92065L10.833 4.87402L8.74902 4.8689L6.66504 4.86548ZM6.66016 7.42822C6.6543 9.48071 6.65137 9.73755 6.62793 9.8374C6.62012 9.86646 6.61133 9.89795 6.59961 9.93188L6.58008 9.98999C6.55859 10.0479 6.5332 10.1116 6.50293 10.1809C6.50098 10.1846 6.52539 10.1877 6.58887 10.1904C6.67383 10.1938 6.83008 10.1963 7.08594 10.198C7.40625 10.2002 7.88477 10.2009 8.58008 10.2009H10.666V7.66675V5.13232H8.66504H6.66602L6.66016 7.42822ZM9.53906 5.44751C9.5957 5.50073 9.5957 5.56421 9.53906 5.61743L9.51953 5.6333C9.5127 5.63843 9.50586 5.64258 9.49707 5.64575C9.46973 5.65625 9.42773 5.65747 9.33203 5.65747C9.18164 5.65747 9.16504 5.6543 9.125 5.61743C9.07227 5.56763 9.06836 5.49927 9.12012 5.4541C9.17578 5.40405 9.19336 5.39917 9.35254 5.40405C9.47852 5.40747 9.5 5.41235 9.53906 5.44751ZM10.3438 5.4541C10.3887 5.49756 10.3906 5.50757 10.3906 5.66431C10.3906 5.81592 10.3877 5.83252 10.3506 5.87256C10.3076 5.91797 10.2588 5.92554 10.2178 5.90332C10.1758 5.88062 10.1436 5.8269 10.1357 5.75098L10.1289 5.66919L10.0469 5.6626C9.90234 5.64746 9.83203 5.53247 9.9209 5.4541C9.97559 5.40405 9.99414 5.39917 10.1523 5.40405C10.209 5.40552 10.2441 5.40698 10.2695 5.41138L10.2939 5.41724L10.3027 5.4209C10.3174 5.42798 10.3291 5.43848 10.3438 5.4541ZM7.45801 5.44751C7.48535 5.46387 7.50977 5.48462 7.53223 5.50977C7.57129 5.55176 7.60352 5.60571 7.63086 5.67065C7.68555 5.80444 7.71484 5.98413 7.71484 6.19946C7.71484 6.45215 7.67383 6.65649 7.59961 6.79321C7.53418 6.91528 7.44238 6.98315 7.33203 6.98315C7.09668 6.98315 6.94824 6.67798 6.94824 6.19946C6.94824 5.72095 7.09668 5.41577 7.33203 5.41577C7.37695 5.41577 7.42871 5.4292 7.45801 5.44751ZM8.89355 6.04761C8.9502 6.08984 8.9834 6.14722 8.99316 6.21655C9.0127 6.3606 8.93262 6.5564 8.75684 6.77808C8.47559 7.13647 8.06641 7.34497 7.86816 7.23315C7.6582 7.11475 7.69629 6.83472 7.97168 6.48779C8.13477 6.28125 8.33203 6.12769 8.54492 6.0376C8.66992 5.98608 8.81543 5.98926 8.89355 6.04761ZM9.12402 7.30981C9.41895 7.36646 9.58203 7.49316 9.58203 7.66675C9.58203 7.68433 9.58008 7.70142 9.57617 7.71802C9.57227 7.73584 9.56641 7.75293 9.55859 7.76953L9.54395 7.79785L9.53223 7.81567C9.50977 7.84766 9.47949 7.87671 9.44238 7.90283C9.30859 7.99707 9.08301 8.05176 8.79883 8.05176C8.42676 8.05176 8.14551 7.95508 8.04688 7.79346C8.00879 7.73169 8.00488 7.6167 8.04004 7.55151C8.10059 7.43262 8.27148 7.3457 8.49023 7.30469C8.67969 7.26929 8.9043 7.26807 9.12402 7.30981ZM7.52637 7.33325C7.58887 7.3689 7.63574 7.41479 7.66699 7.47021L7.68262 7.50073C7.69336 7.52539 7.70117 7.55151 7.70703 7.57935C7.71191 7.60693 7.71484 7.63623 7.71484 7.66675C7.71484 7.7124 7.71289 7.74341 7.70508 7.77246C7.69824 7.80054 7.68555 7.82642 7.66504 7.86182C7.51855 8.11694 7.14453 8.11694 6.99805 7.86182C6.98047 7.83105 6.96777 7.79858 6.95898 7.76562C6.94922 7.72876 6.94531 7.69141 6.94629 7.6543C6.94922 7.52197 7.01855 7.39526 7.13965 7.32983C7.26172 7.26318 7.40625 7.26489 7.52637 7.33325ZM8.25391 8.13843C8.52051 8.27197 8.78906 8.53857 8.91992 8.79883C8.98242 8.92554 8.99023 8.95215 8.99023 9.05713C8.99023 9.1145 8.98828 9.14819 8.97949 9.17505C8.97363 9.19434 8.96387 9.21021 8.9502 9.229C8.87988 9.32178 8.77148 9.35083 8.63574 9.31885C8.51562 9.29053 8.37402 9.21436 8.21973 9.09229C7.86133 8.8103 7.65332 8.40186 7.76465 8.20361C7.85156 8.05005 8.02832 8.02686 8.25391 8.13843ZM7.45801 8.38184C7.62305 8.48193 7.71484 8.75195 7.71484 9.13379C7.71484 9.6123 7.56641 9.91748 7.33203 9.91748C7.09668 9.91748 6.94824 9.6123 6.94824 9.13379C6.94824 8.75537 7.04102 8.48193 7.20508 8.38184C7.27344 8.34033 7.38965 8.34033 7.45801 8.38184ZM7.20703 6.19946C7.20703 5.91919 7.22559 5.81104 7.29199 5.70264L7.30664 5.68359L7.32031 5.67114L7.33203 5.66577C7.3584 5.66577 7.41406 5.79102 7.44238 5.91089C7.48047 6.07764 7.4668 6.45288 7.41699 6.59448C7.37012 6.72412 7.33594 6.75952 7.2959 6.69946C7.28027 6.67627 7.26367 6.63843 7.24512 6.58618C7.21191 6.48779 7.20703 6.44287 7.20703 6.19946ZM8.59082 6.28931C8.36035 6.39771 8.08008 6.69287 8.00879 6.90454L8.00098 6.92993C7.99121 6.95947 7.98535 6.97632 7.98535 6.98633C7.98535 7.00122 7.99902 6.99976 8.0293 6.99976C8.14355 6.99976 8.38574 6.83618 8.53711 6.65454C8.63574 6.53955 8.74902 6.33789 8.74902 6.28101C8.74902 6.23779 8.69434 6.24097 8.59082 6.28931ZM8.4043 7.58496C8.46094 7.56665 8.52246 7.54834 8.54102 7.54492C8.62891 7.5249 9.01465 7.53491 9.10742 7.55835C9.17383 7.57617 9.23242 7.59766 9.27344 7.61816C9.30469 7.63403 9.3252 7.64917 9.3291 7.66162C9.33301 7.67529 9.30762 7.69556 9.26562 7.71631C9.2207 7.73804 9.15625 7.7605 9.08789 7.77661C8.92285 7.81519 8.54785 7.80176 8.4043 7.75C8.22559 7.68823 8.22559 7.64331 8.4043 7.58496ZM7.23242 7.56665C7.21094 7.58838 7.19922 7.62158 7.19922 7.66675C7.19922 7.71167 7.21094 7.74512 7.23242 7.7666C7.25391 7.78833 7.28711 7.80005 7.33301 7.80005C7.37793 7.80005 7.41113 7.78833 7.43262 7.7666L7.43945 7.7583L7.4502 7.7417L7.46094 7.71362C7.46387 7.69971 7.46582 7.68408 7.46582 7.66675C7.46582 7.64746 7.46387 7.63037 7.45996 7.61523C7.4541 7.59521 7.44531 7.5791 7.43262 7.56665C7.42188 7.55542 7.40723 7.54688 7.38965 7.54126C7.37305 7.53589 7.35449 7.5332 7.33301 7.5332C7.28711 7.5332 7.25391 7.54492 7.23242 7.56665ZM8.37402 8.90039C8.18066 8.73706 7.99902 8.47705 7.99902 8.36523C7.99902 8.3418 7.99805 8.32837 8.00391 8.323C8.01172 8.31616 8.03027 8.32251 8.0752 8.3374L8.09375 8.34351C8.20312 8.38086 8.33691 8.47705 8.45508 8.58984C8.61621 8.74414 8.74805 8.9292 8.74902 9.03711L8.74805 9.05542C8.74707 9.06519 8.74512 9.07178 8.74023 9.07617L8.72949 9.08179L8.70605 9.08374C8.6709 9.08374 8.60352 9.05518 8.53125 9.01221C8.47852 8.98071 8.42188 8.94141 8.37402 8.90039ZM7.28223 8.66699C7.2168 8.79541 7.19531 8.94043 7.2041 9.19238C7.21094 9.43237 7.25098 9.604 7.30859 9.65234C7.34375 9.68237 7.37402 9.64746 7.41699 9.52905C7.4668 9.38745 7.48047 9.01221 7.44238 8.84546C7.41406 8.72534 7.35938 8.60034 7.33203 8.60034C7.32422 8.60034 7.30078 8.63037 7.28223 8.66699ZM11.4668 5.39917V5.26587V5.13232H11.6953C11.9072 5.13232 11.9248 5.13574 11.9619 5.16895C12.0117 5.21582 12.0137 5.30737 11.9639 5.36084C11.9307 5.39746 11.917 5.39917 11.6973 5.39917H11.4668ZM11.4668 6.06616V6.19946H11.6973C11.917 6.19946 11.9307 6.19775 11.9639 6.16113C12.0137 6.10767 12.0117 6.01611 11.9619 5.96924C11.9248 5.93604 11.9072 5.93262 11.6953 5.93262H11.4668V6.06616ZM11.4668 6.99976V6.86646V6.73291H11.6953C11.9072 6.73291 11.9248 6.73633 11.9619 6.76953C12.0117 6.81641 12.0137 6.90796 11.9639 6.96143C11.9307 6.99805 11.917 6.99976 11.6973 6.99976H11.4668ZM11.4668 7.66675V7.80005H11.6973C11.8203 7.80005 11.8789 7.79956 11.9121 7.79272C11.9248 7.79004 11.9336 7.78638 11.9414 7.78149L11.9639 7.76172C12.0137 7.70825 12.0117 7.6167 11.9619 7.57007C11.9248 7.53662 11.9072 7.5332 11.6953 7.5332H11.4668V7.66675ZM4.71875 8.42236C4.77148 8.40088 4.82812 8.38232 4.89062 8.36523C5.07031 8.31689 5.40918 8.32861 5.59082 8.39038C5.85547 8.4812 6.0791 8.66211 6.22656 8.89868C6.27441 8.97461 6.31348 9.05615 6.34375 9.14233C6.3877 9.26733 6.39062 9.29395 6.39062 9.53394C6.39062 9.77417 6.3877 9.80249 6.34375 9.92578C6.28516 10.0906 6.19434 10.2385 6.07812 10.3621C5.94531 10.5034 5.7793 10.6128 5.59082 10.6794C5.46582 10.7229 5.43848 10.7261 5.19922 10.7261C4.95898 10.7261 4.93164 10.7229 4.80664 10.6794C4.62988 10.6162 4.49902 10.5344 4.36035 10.4026C4.22363 10.271 4.11719 10.106 4.05371 9.92578C4.00977 9.80249 4.00684 9.77417 4.00684 9.53394L4.00977 9.33643C4.01172 9.30737 4.01465 9.28345 4.01953 9.26099C4.02637 9.22363 4.03711 9.19019 4.05371 9.14233C4.08398 9.05591 4.125 8.97168 4.1748 8.89307C4.22656 8.81226 4.28613 8.7373 4.35156 8.67212C4.4707 8.55493 4.58105 8.479 4.71875 8.42236ZM5.56836 8.68823C5.52637 8.67017 5.4834 8.65527 5.43848 8.6438C5.28418 8.60376 5.16406 8.60864 5.11914 8.65527C5.08301 8.69336 5.07227 8.73096 5.08398 8.76416C5.10254 8.81494 5.17188 8.85474 5.28223 8.8689C5.51758 8.89722 5.70215 9.0271 5.80371 9.23218C5.85352 9.33569 5.85742 9.35059 5.85742 9.53394L5.85449 9.67285C5.85254 9.69458 5.85059 9.71265 5.84668 9.729C5.83984 9.75952 5.8291 9.78516 5.8125 9.8208C5.77832 9.89502 5.72656 9.96509 5.66504 10.0239C5.61523 10.0708 5.55957 10.1104 5.50098 10.1392C5.44824 10.1648 5.41797 10.1782 5.37695 10.1853C5.33789 10.1919 5.28809 10.1926 5.19922 10.1926L5.07422 10.1907L5.03906 10.1877C4.9873 10.1816 4.95703 10.1685 4.89746 10.1392C4.77051 10.0764 4.67188 9.98193 4.6084 9.86328C4.56934 9.78979 4.54395 9.70728 4.5332 9.61743C4.51562 9.48071 4.47363 9.41724 4.39844 9.41724C4.35156 9.41724 4.31738 9.44287 4.29883 9.48779C4.29102 9.50537 4.28613 9.52588 4.28418 9.54907L4.28223 9.58228C4.28223 9.79419 4.37988 10.0159 4.54883 10.1843C4.57812 10.2136 4.6084 10.2405 4.63965 10.2649L4.70117 10.3098C4.75293 10.344 4.80664 10.3718 4.86328 10.3933C4.96484 10.4321 5.07617 10.4509 5.19922 10.4509C5.46094 10.4509 5.66699 10.366 5.85059 10.1826C6.02734 10.0059 6.11523 9.79419 6.11523 9.53564C6.11523 9.27393 6.03027 9.06543 5.84863 8.88379C5.80371 8.83838 5.75684 8.79907 5.70703 8.76562C5.66211 8.73511 5.61621 8.70947 5.56836 8.68823ZM5.58203 9.50244C5.58203 9.37231 5.48047 9.23047 5.34375 9.17065C5.26855 9.13892 5.10059 9.14722 5.02344 9.18726C4.97363 9.21338 4.94141 9.23364 4.91504 9.26123C4.89355 9.28442 4.87598 9.31274 4.85547 9.354C4.76172 9.53906 4.82715 9.76587 5.00391 9.86743C5.05176 9.89502 5.09961 9.91162 5.14355 9.91675C5.16016 9.9187 5.17578 9.91895 5.19141 9.91772C5.20996 9.91602 5.22656 9.91187 5.24219 9.90503C5.25586 9.89868 5.26855 9.89014 5.2793 9.87915C5.34863 9.8042 5.30566 9.70239 5.19043 9.67407C5.11133 9.65576 5.07031 9.59717 5.06543 9.53906C5.06348 9.5144 5.06836 9.48975 5.0791 9.46826C5.09863 9.4292 5.13965 9.40063 5.2002 9.40063C5.21191 9.40063 5.22363 9.4021 5.23438 9.40503C5.25586 9.4104 5.27539 9.4209 5.29102 9.43604C5.31348 9.45728 5.33008 9.48779 5.33887 9.52563C5.38086 9.70239 5.58203 9.68237 5.58203 9.50244ZM11.4668 8.46704V8.60034H11.6973C11.8105 8.60034 11.8691 8.59985 11.9033 8.59448C11.9355 8.58936 11.9473 8.57983 11.9639 8.56201C11.9834 8.54102 11.9951 8.51416 11.999 8.48657C12.0049 8.4436 11.9922 8.39868 11.9619 8.37036C11.9248 8.33691 11.9072 8.3335 11.6953 8.3335H11.4668V8.46704ZM11.4668 9.40063V9.26733V9.13379H11.6953C11.9072 9.13379 11.9248 9.13721 11.9619 9.17065C12.0117 9.21729 12.0137 9.30884 11.9639 9.3623C11.9473 9.3811 11.9355 9.39062 11.8984 9.39575C11.8623 9.40039 11.8047 9.40063 11.6973 9.40063H11.4668ZM11.4668 10.0676V10.2009H11.6973C11.8008 10.2009 11.8584 10.2007 11.8945 10.1965C11.9346 10.1917 11.9463 10.1821 11.9639 10.1626C11.9746 10.1514 11.9824 10.1387 11.9883 10.1252C11.9941 10.1123 11.998 10.0984 11.999 10.0845C12.0039 10.0425 11.9912 9.99878 11.9619 9.97095C11.9248 9.9375 11.9072 9.93408 11.6953 9.93408H11.4668V10.0676ZM11.3594 10.9846C11.4043 10.9663 11.4492 10.8711 11.4492 10.7944V10.7344H11.6855C11.9062 10.7344 11.9248 10.7378 11.9609 10.7712C12.0107 10.8179 12.0127 10.9097 11.9629 10.9629C11.9453 10.9812 11.9346 10.9907 11.8916 10.9954C11.8486 11.0002 11.7734 11.0005 11.626 10.9995C11.4443 10.9995 11.3379 10.9929 11.3594 10.9846Z"></path></svg>