<svg xmlns="http://www.w3.org/2000/svg" viewBox="0 0 20 23" height="23" width="20"><title>castle.svg</title><rect fill="none" x="0" y="0" width="20" height="23"></rect><path fill="#5e758d" transform="translate(1 1)" d="M11.1123 15.5334C14.0547 14.3313 16.1289 11.4402 16.1289 8.06445C16.1289 3.6106 12.5186 0 8.06445 0C3.61035 0 0 3.6106 0 8.06445C0 11.4431 2.07812 14.3364 5.02539 15.5366L7.36914 19.5967C7.67969 20.1345 8.45508 20.1345 8.76562 19.5967L11.1123 15.5334ZM10.4004 6.31567H11.2002V5.57886H12V10H9.2002V8.15796C9.2002 7.93457 9.12695 7.71851 8.99219 7.53662C8.9502 7.47974 8.90234 7.42603 8.84863 7.37646C8.62305 7.16919 8.31836 7.05273 8 7.05273C7.75391 7.05273 7.51562 7.12231 7.31641 7.25C7.25781 7.28735 7.20215 7.32959 7.15137 7.37646C6.92676 7.58374 6.7998 7.86475 6.7998 8.15796V10H4V5.57886H4.7998V6.31567H5.59961V4.47363H5.2002V3H6V3.73682H6.40039V3H7.2002V3.73682H7.59961V3H8.40039V3.73682H8.7998V3H9.59961V3.73682H10V3H10.7998V4.47363H10.4004V6.31567ZM6.40039 5.94727H7.2002V4.84204H6.40039V5.94727ZM8.7998 5.94727H9.59961V4.84204H8.7998V5.94727Z"></path></svg>