<svg xmlns="http://www.w3.org/2000/svg" viewBox="0 0 20 23" height="23" width="20"><title>cemetery.svg</title><rect fill="none" x="0" y="0" width="20" height="23"></rect><path fill="#5e758d" transform="translate(1 1)" d="M11.1123 15.5334C14.0547 14.3313 16.1289 11.4402 16.1289 8.06445C16.1289 3.6106 12.5186 0 8.06445 0C3.61035 0 0 3.6106 0 8.06445C0 11.4431 2.07812 14.3364 5.02539 15.5366L7.36914 19.5967C7.67969 20.1345 8.45508 20.1345 8.76562 19.5967L11.1123 15.5334ZM10.915 10.4614H11.5195C11.582 10.4592 11.6445 10.4683 11.7021 10.4871C11.7559 10.5046 11.8057 10.531 11.8486 10.5649C11.9385 10.6355 11.9922 10.7336 11.999 10.8384V12H4.00098V10.8462C4.00781 10.7393 4.0625 10.6392 4.1543 10.5671C4.19336 10.5369 4.2373 10.5127 4.2832 10.4951C4.34766 10.4707 4.41797 10.459 4.48926 10.4614H5.06738L4.00098 3.96143C3.99707 3.90576 4.00684 3.84985 4.0293 3.79761C4.04297 3.76562 4.06152 3.7356 4.08398 3.70776C4.09863 3.68994 4.11523 3.67334 4.13281 3.65796C4.17773 3.61816 4.23145 3.58691 4.29199 3.56616C4.35156 3.54565 4.41602 3.53613 4.48047 3.53857H5.57422C5.57422 2.83081 6.6582 2 8.00879 2C9.35938 2 10.4531 2.83081 10.4531 3.53857H11.502C11.5674 3.53394 11.6338 3.54175 11.6953 3.56128C11.7578 3.58081 11.8145 3.61182 11.8613 3.65186C11.9092 3.69189 11.9453 3.74023 11.9697 3.7937C11.9932 3.84717 12.0029 3.9043 11.999 3.96143L10.915 10.4614ZM10.666 5.0769H5.33398V5.84619H10.666V5.0769Z"></path></svg>