<svg xmlns="http://www.w3.org/2000/svg" viewBox="0 0 20 23" height="23" width="20"><title>charity.svg</title><rect fill="none" x="0" y="0" width="20" height="23"></rect><path fill="#5e758d" transform="translate(1 1)" d="M11.1123 15.5334C14.0547 14.3313 16.1289 11.4402 16.1289 8.06445C16.1289 3.6106 12.5186 0 8.06445 0C3.61035 0 0 3.6106 0 8.06445C0 11.4431 2.07812 14.3364 5.02539 15.5366L7.36914 19.5967C7.67969 20.1345 8.45508 20.1345 8.76562 19.5967L11.1123 15.5334ZM5.42383 3.67773C5.99316 3.37305 6.9541 3 8.00879 3C9.04395 3 9.98145 3.35938 10.5479 3.66089C10.6836 3.73169 10.8154 3.81152 10.9424 3.90015L10.3311 4.85742L9.98535 5.04932C9.20801 5.46924 8.25684 5.61475 7.35938 5.48608C6.88281 5.41772 6.4209 5.27222 6.00879 5.04932L5.7041 4.91968L5.05664 3.90015C5.11719 3.85791 5.19238 3.80981 5.28027 3.7583L5.42383 3.67773ZM6.20703 4.08594C6.30566 4.11133 6.4043 4.13403 6.50391 4.15405C7.00781 4.25391 7.51562 4.26831 7.9502 4.13379C8.30176 4.02515 8.66406 3.92944 9.02148 3.85303C9.22559 3.80957 9.42773 3.77222 9.625 3.74268C9.16113 3.5791 8.60156 3.44995 8.00879 3.44995C7.15332 3.44995 6.35938 3.71875 5.82715 3.97217C5.95215 4.01465 6.0791 4.05273 6.20703 4.08594ZM10.1738 5.45117L10.2314 5.42017C12.1826 7.65234 13.7217 12 8.00879 12C2.2959 12 3.79785 7.73218 5.76465 5.42163L5.81934 5.45117C7.12793 6.1582 8.86523 6.1582 10.1738 5.45117ZM7.43555 7.64673C7.52344 7.55298 7.64258 7.50049 7.76562 7.50049V8.50049C7.64258 8.50049 7.52344 8.44775 7.43555 8.354C7.34863 8.26025 7.29883 8.13306 7.29883 8.00049C7.29883 7.94287 7.30859 7.88647 7.32617 7.83325C7.34863 7.76392 7.38672 7.69995 7.43555 7.64673ZM8.2334 6.75024V7.00024C8.42676 7.00024 8.61523 7.06445 8.77246 7.18384C8.93066 7.30322 9.0498 7.47217 9.11426 7.66724C9.125 7.69824 9.13086 7.73169 9.12988 7.76514C9.12891 7.79834 9.12109 7.8313 9.1084 7.86157C9.09863 7.88403 9.08594 7.90454 9.07129 7.92285L9.05371 7.94189C9.03027 7.96436 9.00293 7.98169 8.97363 7.99292C8.94434 8.00391 8.91309 8.00854 8.88184 8.00659C8.86523 8.00562 8.84961 8.00269 8.83398 7.9978C8.81934 7.99365 8.80566 7.98804 8.79297 7.9812C8.76465 7.96631 8.73926 7.94556 8.71875 7.92017C8.69922 7.89502 8.68359 7.86548 8.67383 7.83374C8.60938 7.63916 8.43652 7.50049 8.2334 7.50049V8.50049C8.48047 8.50049 8.71875 8.60571 8.89355 8.79346C8.98242 8.88818 9.05078 8.99976 9.09668 9.12134C9.14258 9.24048 9.16699 9.36914 9.16699 9.50049C9.16699 9.76587 9.06934 10.0203 8.89355 10.2078C8.71875 10.3953 8.48047 10.5007 8.2334 10.5007V10.7507H7.76562V10.5007C7.57324 10.5007 7.38477 10.4365 7.22656 10.3171C7.12891 10.2432 7.0459 10.1501 6.98145 10.0435C6.94141 9.97803 6.90918 9.90771 6.88477 9.83374C6.87402 9.80273 6.86816 9.76929 6.86914 9.73584C6.87109 9.70239 6.87793 9.66968 6.89062 9.6394C6.9043 9.60889 6.92285 9.58179 6.94531 9.55908C6.96875 9.53662 6.99609 9.51929 7.02539 9.50806C7.05469 9.49707 7.08594 9.49219 7.11719 9.49438C7.14844 9.49634 7.17871 9.50488 7.20703 9.51978C7.23438 9.53467 7.25977 9.55542 7.28027 9.58081C7.30078 9.60596 7.31543 9.6355 7.3252 9.66724C7.38965 9.86182 7.5625 10.0005 7.76562 10.0005V9.00049C7.51855 9.00049 7.28027 8.89502 7.10547 8.70752C6.93066 8.52002 6.83203 8.26562 6.83203 8.00049C6.83203 7.73511 6.93066 7.48071 7.10547 7.29321C7.28027 7.10571 7.51855 7.00024 7.76562 7.00024V6.75024H8.2334ZM8.2334 10.0005V9.00049C8.29688 9.00049 8.35938 9.0144 8.41699 9.04053C8.4707 9.06543 8.52051 9.10132 8.56348 9.14697C8.65137 9.24072 8.7002 9.36792 8.7002 9.50049C8.7002 9.63306 8.65137 9.76025 8.56348 9.854C8.47559 9.948 8.35742 10.0005 8.2334 10.0005Z"></path></svg>