<svg xmlns="http://www.w3.org/2000/svg" viewBox="0 0 21 24" height="24" width="21"><title>chemist.svg</title><rect fill="none" x="0" y="0" width="21" height="24"></rect><path fill="#ba272a" transform="translate(2 2)" d="M11.1123 15.5334C14.0547 14.3313 16.1289 11.4402 16.1289 8.06445C16.1289 3.6106 12.5186 0 8.06445 0C3.61035 0 0 3.6106 0 8.06445C0 11.4431 2.07812 14.3364 5.02539 15.5366L7.36914 19.5967C7.58203 19.9661 8.01465 20.0818 8.36523 19.9438C8.52539 19.8809 8.66797 19.7651 8.76562 19.5967L11.1123 15.5334ZM6.80371 3.14185C6.96777 3.05347 7.15234 3.00342 7.34473 3H7.39062C7.45703 3.00146 7.52344 3.00879 7.58887 3.02148C7.63184 3.02979 7.6748 3.04053 7.7168 3.05347C8.30371 3.23755 8.66797 3.84497 8.56641 4.47144L6.25098 3.74976C6.36621 3.48242 6.56348 3.271 6.80371 3.14185ZM7.0127 5.47241C6.42383 5.28857 6.05957 4.67969 6.16309 4.05151L8.47949 4.77222C8.23242 5.35522 7.60254 5.65625 7.0127 5.47241ZM9.43652 5.54419C9.78125 5.04175 10.2373 4.82837 10.666 4.82666H10.709C10.9756 4.83545 11.2275 4.92456 11.4385 5.07861C11.998 5.48999 12.2461 6.3562 11.6777 7.1875L9.5625 10.2817C8.99414 11.1113 8.12012 11.1584 7.55859 10.7473C6.99902 10.3376 6.75098 9.46973 7.31934 8.64014L9.43652 5.54419ZM10.7002 5.1311L10.6357 5.12939C10.3154 5.13647 9.97461 5.30786 9.6875 5.72607L8.58984 7.32935C8.78418 7.62402 9.10645 7.9292 9.45801 8.17261C9.74805 8.3728 10.0576 8.53101 10.332 8.60693L11.4268 7.00537C11.917 6.28979 11.6982 5.6543 11.2617 5.33594C11.1631 5.26318 11.0537 5.20679 10.9375 5.17163C10.8613 5.14844 10.7812 5.13452 10.7002 5.1311ZM4.73145 6.56787C4.88086 6.49976 5.04199 6.4646 5.20508 6.46289C5.64062 6.45776 6.04395 6.69214 6.2666 7.0791L4.04883 8.07837C3.87793 7.46924 4.16992 6.82178 4.73145 6.56787ZM4.16992 8.36694L6.38672 7.36597C6.56152 7.97681 6.26953 8.62793 5.70605 8.8833C5.1416 9.13721 4.48242 8.9165 4.16992 8.36694Z"></path></svg>