<svg xmlns="http://www.w3.org/2000/svg" viewBox="0 0 17 20" height="20" width="17"><title>cinema.svg</title><rect fill="none" x="0" y="0" width="17" height="20"></rect><path fill="#5e758d" transform="translate(0 0)" d="M11.1123 15.5334C14.0547 14.3313 16.1289 11.4402 16.1289 8.06445C16.1289 3.6106 12.5186 0 8.06445 0C3.61035 0 0 3.6106 0 8.06445C0 11.4431 2.07812 14.3364 5.02539 15.5366L7.36914 19.5967C7.53711 19.8877 7.84082 20.0212 8.13379 19.9973C8.38184 19.9771 8.62305 19.8435 8.76562 19.5967L11.1123 15.5334ZM4 7C4 4.79102 5.79102 3 8 3C10.209 3 12 4.79102 12 7C12 9.20898 10.209 11 8 11C5.79102 11 4 9.20898 4 7ZM10.0391 7.06348C9.99219 7.02393 9.93164 7 9.86621 7H9.33301C9.61621 7 9.8877 6.8877 10.0879 6.6875C10.2881 6.48755 10.4004 6.21631 10.4004 5.93335C10.4004 5.65039 10.2881 5.37915 10.0879 5.1792C9.8877 4.979 9.61621 4.8667 9.33301 4.8667C9.14258 4.8667 8.95605 4.91772 8.79102 5.01465C8.62695 5.11157 8.49219 5.25049 8.40039 5.41748C8.30762 5.25049 8.17285 5.11157 8.00879 5.01465C7.84473 4.91772 7.65723 4.8667 7.4668 4.8667C7.18359 4.8667 6.91211 4.979 6.71289 5.1792C6.5127 5.37915 6.40039 5.65039 6.40039 5.93335C6.40039 6.21631 6.5127 6.48755 6.71289 6.6875C6.91211 6.8877 7.18359 7 7.4668 7H6.7998C6.65332 7 6.5332 7.12012 6.5332 7.2666V7.33325L5.86621 7V9.1333L6.5332 8.80005V8.8667C6.5332 9.01343 6.65332 9.1333 6.7998 9.1333H9.86621C9.9502 9.1333 10.0254 9.09448 10.0742 9.03418C10.1113 8.98853 10.1338 8.93018 10.1338 8.8667V7.2666C10.1338 7.18555 10.0967 7.11255 10.0391 7.06348Z"></path></svg>