<svg xmlns="http://www.w3.org/2000/svg" viewBox="0 0 20 23" height="23" width="20"><title>citizenship.svg</title><rect fill="none" x="0" y="0" width="20" height="23"></rect><path fill="#5e758d" transform="translate(1 1)" d="M11.112 15.5334C14.0551 14.3313 16.129 11.4401 16.129 8.06452C16.129 3.61061 12.5184 0 8.06452 0C3.61061 0 0 3.61061 0 8.06452C0 11.4431 2.07765 14.3365 5.02501 15.5366L7.36915 19.5968C7.67955 20.1344 8.45556 20.1344 8.76596 19.5968L11.112 15.5334ZM6.7 6.75581L6.72 5.37442L6.73333 4H9.21333C11.6667 4 11.6933 4 11.8467 4.15349L12 4.3V7C12 9.61628 11.9933 9.7 11.8667 9.84651L11.7267 10H8H4.27333L4.13333 9.84651C4.00667 9.70698 4 9.6093 4 8.24186V6.7907L5.35333 6.77674L6.7 6.75581ZM9.3 5.04651C11.0067 5.04651 11.2667 5.03256 11.2667 4.94186C11.2667 4.85116 11.0067 4.83721 9.3 4.83721C7.59333 4.83721 7.33333 4.85116 7.33333 4.94186C7.33333 5.03256 7.59333 5.04651 9.3 5.04651ZM9.3 5.84884C10.9733 5.84884 11.2333 5.83488 11.2333 5.74419C11.2333 5.65349 10.9667 5.63953 9.28 5.6186C7.44 5.60465 7.32667 5.61163 7.34667 5.72326C7.36667 5.84186 7.50667 5.84884 9.3 5.84884ZM8 7.90698C10.86 7.90698 11.2667 7.89302 11.2667 7.80233C11.2667 7.71163 10.86 7.69767 8 7.69767C5.14 7.69767 4.73333 7.71163 4.73333 7.80233C4.73333 7.89302 5.14 7.90698 8 7.90698ZM8 8.67442C10.86 8.67442 11.2667 8.66047 11.2667 8.56977C11.2667 8.47907 10.86 8.46512 8 8.46512C5.14 8.46512 4.73333 8.47907 4.73333 8.56977C4.73333 8.66047 5.14 8.67442 8 8.67442ZM4.45333 4.13961C4.49333 4.13961 4.53333 4.10472 4.53333 4.06984C4.53333 4.02798 4.9 4.00007 5.5 4.00007H6.46667V5.30472V6.60938L6.28667 6.22565C6.14 5.93263 6.03333 5.81403 5.8 5.68844C5.64 5.60472 5.40667 5.53496 5.28 5.53496C4.83333 5.53496 4.34 5.93263 4.23333 6.3931C4.20667 6.49775 4.14667 6.58147 4.09333 6.58147C4.02 6.58147 4 6.37914 4 5.53496V4.48147L4.18 4.31403C4.28667 4.22333 4.40667 4.13961 4.45333 4.13961ZM5.27333 5.46519C5.82667 5.46519 6.06 4.88612 5.67333 4.48147C5.43333 4.23031 5.20667 4.22333 4.94 4.46054C4.53333 4.81635 4.75333 5.46519 5.27333 5.46519ZM5.07958 5.82083C4.81292 5.87665 4.56625 6.10688 4.47292 6.37897L4.40625 6.5813H5.27292C5.82625 6.5813 6.13292 6.55339 6.13292 6.51153C6.13292 6.35804 5.92625 6.02316 5.79292 5.94641C5.54625 5.80688 5.30625 5.76502 5.07958 5.82083Z"></path></svg>