<svg xmlns="http://www.w3.org/2000/svg" viewBox="0 0 21 24" height="24" width="21"><title>clinic.svg</title><rect fill="none" x="0" y="0" width="21" height="24"></rect><path fill="#ba272a" transform="translate(2 2)" d="M11.1123 15.5334C14.0547 14.3313 16.1289 11.4402 16.1289 8.06445C16.1289 3.6106 12.5186 0 8.06445 0C3.61035 0 0 3.6106 0 8.06445C0 11.4431 2.07812 14.3364 5.02539 15.5366L7.36914 19.5967C7.67969 20.1345 8.45508 20.1345 8.76562 19.5967L11.1123 15.5334ZM8.27148 3.09033L11.8799 6.30249C12.04 6.42285 12.04 6.70386 11.8799 6.82446C11.8086 6.89624 11.7207 6.94385 11.6309 6.96021C11.5205 6.98071 11.4072 6.95337 11.3184 6.8645L11.1982 6.74414V10.5984C11.1982 10.8394 11.0381 11 10.7969 11H5.18457C5.05957 11 4.95605 10.9563 4.88477 10.8801C4.82031 10.8105 4.7832 10.7136 4.7832 10.5984V6.74414L4.66309 6.90454C4.50293 7.06519 4.2627 7.02515 4.10254 6.8645C4.02148 6.78418 3.99121 6.68359 4.00195 6.58325C4.0127 6.48291 4.0625 6.38257 4.14258 6.30249L7.75 3.09033C7.91113 2.96997 8.11133 2.96997 8.27148 3.09033ZM8.3916 8.18945H8.79297C8.93555 8.18945 9.05078 8.13281 9.12012 8.03589C9.16699 7.96997 9.19336 7.8855 9.19336 7.78784C9.19336 7.54712 9.0332 7.38647 8.79297 7.38647H8.3916V6.98486C8.3916 6.74414 8.23145 6.5835 7.99121 6.5835C7.75 6.5835 7.58984 6.74414 7.58984 6.98486V7.38647H7.18945C6.94824 7.38647 6.78809 7.54712 6.78809 7.78784C6.78809 8.02881 6.94824 8.18945 7.18945 8.18945H7.58984V8.59106C7.58984 8.83179 7.75 8.99243 7.99121 8.99243C8.13184 8.99243 8.24512 8.93774 8.31445 8.84399C8.36426 8.77734 8.3916 8.69116 8.3916 8.59106V8.18945Z"></path></svg>