<svg xmlns="http://www.w3.org/2000/svg" viewBox="0 0 21 24" height="24" width="21"><title>clothing_store.svg</title><rect fill="none" x="0" y="0" width="21" height="24"></rect><path fill="#5e758d" transform="translate(2 2)" d="M11.1123 15.5334C14.0547 14.3313 16.1289 11.4402 16.1289 8.06445C16.1289 3.6106 12.5186 0 8.06445 0C3.61035 0 0 3.6106 0 8.06445C0 11.4431 2.07812 14.3364 5.02539 15.5366L7.36914 19.5967C7.67969 20.1345 8.45508 20.1345 8.76562 19.5967L11.1123 15.5334ZM4.78223 3.24878L5.7832 3C5.88281 3.06982 6.00391 3.11157 6.13574 3.14282C6.30566 3.18262 6.49707 3.20117 6.68848 3.20117C6.87988 3.20117 7.07129 3.18262 7.24121 3.14282C7.3291 3.12207 7.41113 3.09668 7.48633 3.06152C7.52441 3.0437 7.56055 3.02344 7.59375 3L8.59473 3.24878L9.37695 5.06445L8.77539 5.46338L8.28027 4.47705L7.9707 4.56494L8.06836 5.53711H7.9873L7.9707 5.68262L7.80469 7.26221H5.13379L5.40527 4.56494L5.09766 4.47705L4.60156 5.46338L4 5.06445L4.78223 3.24878ZM8.25293 6.1123L8.28027 5.8606H11.4561L11.4834 6.1123H8.25293ZM7.73633 11L8.21875 6.43555H11.5176L12 11H10.8672L10.0273 7.10229H9.70898L8.86914 11H7.73633Z"></path></svg>