<svg xmlns="http://www.w3.org/2000/svg" viewBox="0 0 21 24" height="24" width="21"><title>coffee.svg</title><rect fill="none" x="0" y="0" width="21" height="24"></rect><path fill="#d97200" transform="translate(2 2)" d="M11.112 15.5334C14.0551 14.3313 16.129 11.4401 16.129 8.06452C16.129 3.61061 12.5184 0 8.06452 0C3.61061 0 0 3.61061 0 8.06452C0 11.4431 2.07765 14.3365 5.02501 15.5366L7.36915 19.5968C7.67955 20.1344 8.45556 20.1344 8.76596 19.5968L11.112 15.5334ZM6.01514 10.4598L5.35513 5.16337L5.35578 5.16367C6.16659 5.43837 7.47849 5.46889 8.00065 5.46889C8.54746 5.46889 9.96054 5.43531 10.7568 5.12277L9.98487 10.4598C9.98487 10.758 9.09622 11 8 11C6.90378 11 6.01514 10.758 6.01514 10.4598ZM10.5148 3.35954L10.6368 3.87231V3.8717C10.8683 3.95807 11 4.05727 11 4.16257V4.55477C11 4.89081 9.65665 5.16367 8 5.16367C6.34335 5.16367 5 4.89081 5 4.55507V4.16287C5 4.05757 5.13168 3.95868 5.36324 3.872L5.48519 3.36015C5.48519 3.16176 6.61124 3 8 3C9.38876 3 10.5148 3.16115 10.5148 3.35954Z"></path></svg>