<svg xmlns="http://www.w3.org/2000/svg" viewBox="0 0 20 23" height="23" width="20"><title>computer.svg</title><rect fill="none" x="0" y="0" width="20" height="23"></rect><path fill="#5e758d" transform="translate(1 1)" d="M11.112 15.5334C14.0551 14.3313 16.129 11.4401 16.129 8.06452C16.129 3.61061 12.5184 0 8.06452 0C3.61061 0 0 3.61061 0 8.06452C0 11.4431 2.07765 14.3365 5.02501 15.5366L7.36915 19.5968C7.67955 20.1344 8.45556 20.1344 8.76596 19.5968L11.112 15.5334ZM8.8 7.85714V4.85714H4.8V7.85714H8.8ZM4 4.85714C4 4.38438 4.35875 4 4.8 4H8.8C9.24125 4 9.6 4.38438 9.6 4.85714V7.85714C9.6 8.32991 9.24125 8.71429 8.8 8.71429H7.3325L7.46625 9.14286H8.4C8.62125 9.14286 8.8 9.33438 8.8 9.57143C8.8 9.80848 8.62125 10 8.4 10H5.2C4.97875 10 4.8 9.80848 4.8 9.57143C4.8 9.33438 4.97875 9.14286 5.2 9.14286H6.1325L6.26625 8.71429H4.8C4.35875 8.71429 4 8.32991 4 7.85714V4.85714ZM10 4.64286C10 4.28795 10.2688 4 10.6 4H11.4C11.7312 4 12 4.28795 12 4.64286V9.35714C12 9.71205 11.7312 10 11.4 10H10.6C10.2688 10 10 9.71205 10 9.35714V4.64286ZM11.2 4.85714H10.8C10.69 4.85714 10.6 4.95357 10.6 5.07143C10.6 5.18929 10.69 5.28571 10.8 5.28571H11.2C11.31 5.28571 11.4 5.18929 11.4 5.07143C11.4 4.95357 11.31 4.85714 11.2 4.85714ZM10.8 5.71429C10.69 5.71429 10.6 5.81071 10.6 5.92857C10.6 6.04643 10.69 6.14286 10.8 6.14286H11.2C11.31 6.14286 11.4 6.04643 11.4 5.92857C11.4 5.81071 11.31 5.71429 11.2 5.71429H10.8ZM11.2828 8.19695C11.2078 8.11658 11.1061 8.07143 11 8.07143C10.8939 8.07143 10.7922 8.11658 10.7172 8.19695C10.6421 8.27733 10.6 8.38634 10.6 8.5C10.6 8.61366 10.6421 8.72267 10.7172 8.80305C10.7922 8.88342 10.8939 8.92857 11 8.92857C11.1061 8.92857 11.2078 8.88342 11.2828 8.80305C11.3579 8.72267 11.4 8.61366 11.4 8.5C11.4 8.38634 11.3579 8.27733 11.2828 8.19695Z"></path></svg>