<svg xmlns="http://www.w3.org/2000/svg" viewBox="0 0 20 23" height="23" width="20"><title>convenience.svg</title><rect fill="none" x="0" y="0" width="20" height="23"></rect><path fill="#5e758d" transform="translate(1 1)" d="M11.1123 15.5334C14.0547 14.3313 16.1289 11.4402 16.1289 8.06445C16.1289 3.6106 12.5186 0 8.06445 0C3.61035 0 0 3.6106 0 8.06445C0 11.4431 2.07812 14.3364 5.02539 15.5366L7.36914 19.5967C7.59961 19.9951 8.08398 20.0984 8.44629 19.9065C8.57324 19.8394 8.68555 19.7361 8.76562 19.5967L11.1123 15.5334ZM7.01758 4.37085L7.10352 4.16553V3.70947C7.08594 3.60303 7.04102 3.50024 6.97168 3.40723C6.90234 3.31396 6.80957 3.23242 6.69824 3.16724C6.58789 3.10181 6.46094 3.0542 6.3252 3.02686C6.22168 3.00586 6.11523 2.99707 6.00879 3.00073L5.91113 3.00781C5.67871 3.03027 5.46484 3.11401 5.30469 3.24438C5.2002 3.32983 5.12402 3.4314 5.0791 3.5415C5.05469 3.59985 5.04004 3.66064 5.03516 3.72266C4.97656 4.54175 4.94531 6.00342 5.33594 7.12769C5.53223 6.55103 5.87402 5.96289 6.21973 5.44922C6.47754 5.06519 6.75684 4.69653 7.01758 4.37085ZM11.3457 8.55981C11.2305 8.63232 11.0986 8.68042 10.9619 8.70435C11.123 8.69189 11.2842 8.71167 11.4316 8.76074C11.5791 8.81006 11.707 8.88721 11.8057 8.98511C11.9033 9.08301 11.9668 9.19849 11.9902 9.32031C12.0029 9.3877 12.0039 9.45581 11.9922 9.52271C11.9824 9.57715 11.9648 9.63062 11.9395 9.68213C11.8184 9.92822 11.6406 10.1543 11.416 10.3501C11.3115 10.4409 11.1973 10.5254 11.0742 10.6023C10.8154 10.7649 10.5195 10.8911 10.2031 10.9744C10.165 10.9839 10.126 10.991 10.0859 10.9951C10.0537 10.9985 10.0215 11.0002 9.98926 11H6.45117C6.35645 11.0005 6.26562 10.9731 6.19727 10.9233C6.12891 10.8738 6.08887 10.8057 6.08398 10.7336C6.05566 10.198 6.04492 9.66211 6.05371 9.12622C6.05957 8.7251 6.07617 8.32397 6.10254 7.9231C6.1875 6.65845 7.74316 4.78955 8.48145 3.94263C8.6123 3.79468 8.80664 3.68628 9.03125 3.63623C9.16699 3.60596 9.30859 3.59839 9.44727 3.61279C9.53711 3.62207 9.62598 3.64087 9.70996 3.66895C9.83887 3.71021 9.95605 3.771 10.0547 3.84717C10.1533 3.92358 10.2305 4.01416 10.2822 4.11377C10.335 4.21338 10.3604 4.32007 10.3584 4.42725C10.3564 4.53467 10.3262 4.64038 10.2705 4.73877L9.54199 5.89893C9.23828 5.88232 8.91113 5.91138 8.62695 5.95728C8.50195 5.97778 8.37695 6.00317 8.25977 6.03198C8.11426 6.06787 7.98047 6.10913 7.87109 6.1543C7.76172 6.19946 7.68164 6.27588 7.64551 6.36694C7.62891 6.41187 7.62305 6.45898 7.62891 6.50562C7.63281 6.53052 7.63965 6.55518 7.64941 6.57886C7.6582 6.59961 7.66895 6.61963 7.68262 6.63892C7.71191 6.68018 7.75195 6.7168 7.79883 6.74634C7.84668 6.77588 7.90137 6.7981 7.95996 6.81128C8.01855 6.82471 8.08008 6.8291 8.1416 6.82422C8.20215 6.81934 8.26074 6.80542 8.31445 6.78296C8.47656 6.72437 8.64648 6.68164 8.82129 6.65601C8.92676 6.63916 9.0332 6.62622 9.13965 6.61719C9.33691 6.61133 9.53418 6.62134 9.72754 6.64673C9.96582 6.67773 10.1982 6.73218 10.4199 6.80884C10.8213 6.948 11.1748 7.15698 11.4521 7.41895C11.7822 7.72998 11.751 8.30664 11.3457 8.55981ZM8.41602 8.82178C8.39062 9.01343 8.46582 9.20483 8.62402 9.354C8.72949 9.45239 8.86719 9.52856 9.02246 9.57373C9.17773 9.61914 9.34668 9.63232 9.51074 9.61206C9.6748 9.59155 9.8291 9.53833 9.95801 9.45776C10.0869 9.37695 10.1855 9.27173 10.2441 9.15234C10.2773 9.08472 10.3242 9.02148 10.3818 8.9646C10.4189 8.92725 10.4609 8.89282 10.5078 8.86182C10.625 8.78296 10.7656 8.72778 10.918 8.70093C10.6143 8.72314 10.3008 8.63232 10.0928 8.43677C9.93359 8.2876 9.7041 8.19263 9.4541 8.1731C9.20508 8.15356 8.95508 8.21094 8.75977 8.33252C8.56543 8.4541 8.44141 8.63013 8.41602 8.82178Z"></path></svg>