<svg xmlns="http://www.w3.org/2000/svg" viewBox="0 0 21 24" height="24" width="21"><title>copyshop.svg</title><rect fill="none" x="0" y="0" width="21" height="24"></rect><path fill="#5e758d" transform="translate(2 2)" d="M16.1289 8.06445C16.1289 11.4402 14.0547 14.3313 11.1123 15.5334L8.76562 19.5967C8.45508 20.1345 7.67969 20.1345 7.36914 19.5967L5.02539 15.5366C2.07812 14.3364 0 11.4431 0 8.06445C0 3.6106 3.61035 0 8.06445 0C12.5186 0 16.1289 3.6106 16.1289 8.06445ZM11.2725 3.20581C10.8691 3.06177 10.4258 3 10 3C9.29102 3 8.52734 3.16479 8 3.61768C7.73535 3.39038 7.41113 3.2356 7.06445 3.13794C6.7207 3.04077 6.35352 3 6 3C5.69141 3 5.37305 3.03125 5.06836 3.10376C4.67188 3.198 4.29785 3.36182 4 3.61768V10C4.52734 9.54712 5.29102 9.38232 6 9.38232C6.2959 9.38232 6.60156 9.41113 6.89648 9.47754C7.30664 9.57031 7.69336 9.73633 8 10C8.52734 9.54712 9.29102 9.38232 10 9.38232C10.4258 9.38232 10.8691 9.44409 11.2725 9.58813C11.5459 9.69116 11.7822 9.8147 12 10V3.61768C11.8662 3.50366 11.7246 3.41309 11.5723 3.33618C11.4775 3.28809 11.3779 3.24536 11.2725 3.20581ZM11.2725 8.76465C11.0713 8.69214 10.8604 8.64038 10.6455 8.60693C10.4336 8.57397 10.2168 8.55884 10 8.55884C9.66406 8.55884 9.24707 8.63794 8.85742 8.76636C8.72559 8.80981 8.59766 8.85889 8.47656 8.91235C8.29688 8.9917 8.13379 9.08105 8 9.17651V4.44116C8.49121 4.09106 9.38184 3.82349 10 3.82349C10.4365 3.82349 10.873 3.88525 11.2725 4.0293V8.76465ZM10.9102 5.57739C10.6299 5.50757 10.3203 5.47046 10.001 5.47046C9.64551 5.47046 9.31543 5.5127 9.02246 5.59326C8.87402 5.63428 8.73438 5.68506 8.60645 5.74536C8.52051 5.7854 8.43945 5.82983 8.36426 5.87817V5.19458C8.82227 4.97217 9.38281 4.85278 10.001 4.85278C10.2168 4.85278 10.4307 4.87061 10.6377 4.90186C10.7305 4.91577 10.8213 4.93262 10.9102 4.95166V5.57739ZM8.36426 6.28979V6.97339C8.55176 6.85303 8.77246 6.75757 9.01953 6.68945C9.21191 6.63623 9.4209 6.59961 9.6416 6.58081C9.75781 6.5708 9.87793 6.56567 10.001 6.56567C10.1123 6.56567 10.2227 6.57031 10.3311 6.5791C10.5332 6.5957 10.7275 6.6272 10.9102 6.67285V6.04688C10.6221 5.98511 10.3135 5.948 10.001 5.948C9.38281 5.948 8.82227 6.07153 8.36426 6.28979ZM8.36426 7.3894C8.82227 7.16699 9.38281 7.04761 10.001 7.04761C10.3135 7.04761 10.6221 7.08057 10.9102 7.14648V7.77222C10.7627 7.73535 10.6074 7.70776 10.4463 7.6897C10.3018 7.67358 10.1523 7.66528 10.001 7.66528C9.3457 7.66528 8.77539 7.80933 8.36426 8.07275V7.3894Z"></path></svg>