<svg xmlns="http://www.w3.org/2000/svg" viewBox="0 0 21 24" height="24" width="21"><title>cosmetics.svg</title><rect fill="none" x="0" y="0" width="21" height="24"></rect><path fill="#5e758d" transform="translate(2 2)" d="M11.1123 15.5334C14.0547 14.3313 16.1289 11.4402 16.1289 8.06445C16.1289 3.6106 12.5186 0 8.06445 0C3.61035 0 0 3.6106 0 8.06445C0 11.4431 2.07812 14.3364 5.02539 15.5366L7.36914 19.5967C7.67969 20.1345 8.45508 20.1345 8.76562 19.5967L11.1123 15.5334ZM10.792 6.55542L10.8496 6.61475C10.9062 6.67358 10.9463 6.74585 10.9688 6.82446C10.9814 6.86963 10.9883 6.91699 10.9883 6.96484C10.9883 7.05981 10.9619 7.1521 10.9141 7.23096C10.8955 7.26074 10.874 7.28857 10.8496 7.31396L9.54492 8.67041L9.60352 8.73169C9.66699 8.79712 9.70215 8.88599 9.70215 8.97852C9.70215 9.07104 9.66699 9.15991 9.60352 9.22534L7.2373 11.6863C7.04199 11.8872 6.7793 12 6.50488 12C6.34082 12 6.18066 11.9597 6.03711 11.8848C5.94043 11.834 5.85059 11.7673 5.77246 11.6863L4.30176 10.1572C4.1084 9.95483 4 9.68091 4 9.39575C4 9.11035 4.1084 8.83643 4.30273 8.63354L6.66797 6.17383C6.73145 6.1084 6.81641 6.07178 6.90527 6.07178C6.95996 6.07178 7.0127 6.08521 7.05957 6.1106C7.08984 6.12695 7.11816 6.14819 7.14258 6.17383L7.18555 6.21802L8.49023 4.86035C8.5791 4.76782 8.7002 4.71582 8.82617 4.71582C8.89648 4.71582 8.96582 4.73218 9.02832 4.76294C9.07812 4.78687 9.12305 4.81982 9.16211 4.86035L9.24414 4.94604L10.9355 3.18652C11.0234 3.09668 11.1348 3.03589 11.2549 3.01172C11.376 2.98755 11.501 3.00098 11.6143 3.05078C11.7275 3.09912 11.8252 3.1814 11.8936 3.28735C11.9629 3.39331 11.999 3.51807 12 3.64575V5.04883C12 5.13403 11.9844 5.21851 11.9541 5.29736C11.9229 5.37622 11.877 5.44775 11.8193 5.5083L10.792 6.55542ZM9.79492 6.98047L8.85742 7.95605L7.87207 6.93237L8.81055 5.95703L9.79492 6.98047Z"></path></svg>