<svg xmlns="http://www.w3.org/2000/svg" viewBox="0 0 20 23" height="23" width="20"><title>cycle_barrier.svg</title><rect fill="none" x="0" y="0" width="20" height="23"></rect><path fill="#5e758d" transform="translate(1 1)" d="M11.1123 15.5334C14.0547 14.3313 16.1289 11.4402 16.1289 8.06445C16.1289 3.6106 12.5186 0 8.06445 0C3.61035 0 0 3.6106 0 8.06445C0 11.4431 2.07812 14.3364 5.02539 15.5366L7.36914 19.5967C7.67969 20.1345 8.45508 20.1345 8.76562 19.5967L11.1123 15.5334ZM5.875 4.86011C4.72852 6.01465 4.70898 7.87427 5.8125 9.06055L6.9375 7.92725L6.94531 10.7732L4.25781 10.6262L5.10645 9.77173C3.6123 8.19019 3.63086 5.69312 5.16699 4.14673C5.4834 3.82617 5.85059 3.56445 6.25 3.37012C6.64258 3.1792 7.06738 3.05322 7.50684 3L7.54004 4.01318C6.9082 4.1084 6.32422 4.40552 5.875 4.86011ZM9.0625 6.07275L9.05469 3.22681L11.7422 3.37329L10.8936 4.22876C12.3877 5.80933 12.3691 8.3064 10.834 9.85376C10.2051 10.4888 9.38086 10.8928 8.49316 11L8.45996 9.9873C8.91699 9.91846 9.34961 9.74365 9.72363 9.47998C9.86621 9.37939 10.001 9.26587 10.125 9.14038C11.2715 7.98682 11.291 6.1272 10.1875 4.93994L9.0625 6.07275Z"></path></svg>