<svg xmlns="http://www.w3.org/2000/svg" viewBox="0 0 21 24" height="24" width="21"><title>dentist.svg</title><rect fill="none" x="0" y="0" width="21" height="24"></rect><path fill="#ba272a" transform="translate(2 2)" d="M11.1123 15.5334C14.0547 14.3313 16.1289 11.4402 16.1289 8.06445C16.1289 3.6106 12.5186 0 8.06445 0C3.61035 0 0 3.6106 0 8.06445C0 11.4431 2.07812 14.3364 5.02539 15.5366L7.36914 19.5967C7.67969 20.1345 8.45508 20.1345 8.76562 19.5967L11.1123 15.5334ZM9.24121 9.1084C9.16309 8.38257 8.79492 7.87134 8 7.87134C7.20996 7.87134 6.83691 8.38257 6.75977 9.1084C6.74121 9.28198 6.76074 9.5354 6.78613 9.82837C6.87598 10.8027 6.97852 12 6.21289 12C5.56641 12 5.2334 10.9475 5.04199 9.74756C4.93359 9.05298 4.95605 8.56226 4.97363 8.16919C4.98633 7.89038 4.99609 7.6604 4.95605 7.44141C4.8877 7.07373 4.70605 6.71997 4.51855 6.3562C4.19727 5.73145 3.86035 5.07715 4.06055 4.27197C4.2373 3.56519 4.69629 3.23267 5.15039 3.09302C6.19824 2.76978 6.875 3.39258 8 3.39258C9.125 3.39258 9.80176 2.76978 10.8496 3.09302C11.3047 3.23267 11.7637 3.56519 11.9395 4.27197C12.1406 5.07739 11.8037 5.73169 11.4824 6.35645C11.2949 6.71997 11.1123 7.07373 11.0439 7.44141C11.0039 7.65967 11.0146 7.88916 11.0273 8.16724C11.0449 8.56079 11.0674 9.05176 10.959 9.74756C10.7666 10.9473 10.4346 12 9.78711 12C9.02148 12 9.125 10.8027 9.21387 9.82837C9.22852 9.66943 9.24023 9.52197 9.24512 9.39282C9.24902 9.28369 9.24902 9.18774 9.24121 9.1084Z"></path></svg>