<svg xmlns="http://www.w3.org/2000/svg" viewBox="0 0 21 24" height="24" width="21"><title>district_court.svg</title><rect fill="none" x="0" y="0" width="21" height="24"></rect><path fill="#5e758d" transform="translate(2 2)" d="M11.1123 15.5334C14.0547 14.3313 16.1289 11.4402 16.1289 8.06445C16.1289 3.6106 12.5186 0 8.06445 0C3.61035 0 0 3.6106 0 8.06445C0 11.4431 2.07812 14.3364 5.02539 15.5366L7.36914 19.5967C7.67969 20.1345 8.45508 20.1345 8.76562 19.5967L11.1123 15.5334ZM4.38965 7.59741C4.20117 7.41162 4.08008 7.15552 4.04688 6.87646H6.0957C6.06348 7.15552 5.94141 7.41162 5.75293 7.59741C5.56445 7.78296 5.32227 7.88525 5.07129 7.88525C4.82031 7.88525 4.57812 7.78296 4.38965 7.59741ZM9.61719 9.27881C9.625 9.25684 9.62891 9.23364 9.62891 9.20996C9.62891 9.11133 9.55762 9.03174 9.46973 9.03174H6.48438C6.44238 9.03149 6.40137 9.05029 6.37207 9.08374C6.3418 9.11719 6.32422 9.1626 6.32422 9.20996C6.32422 9.30933 6.39648 9.38989 6.48438 9.38989H9.46973C9.49023 9.38989 9.51172 9.38525 9.53027 9.37622C9.5498 9.36719 9.56738 9.35376 9.58301 9.33716C9.59766 9.32031 9.60938 9.30054 9.61719 9.27881ZM9.6123 9.48169H6.3418V10H9.6123V9.48169ZM10.1318 7.46582C10.0088 7.29858 9.92969 7.09448 9.9043 6.87646H11.9521C11.9199 7.15552 11.7988 7.41211 11.6104 7.5979C11.4219 7.78394 11.1797 7.88647 10.9287 7.88647C10.6777 7.88623 10.4346 7.78369 10.2461 7.5979C10.2051 7.55713 10.167 7.51294 10.1318 7.46582ZM11.0566 5.21924L11.8955 6.51587H12V6.75537H9.85742V6.51587H9.96191L10.8008 5.21924H8.87402C8.87402 5.1687 8.87012 5.11914 8.86328 5.07153C8.85645 5.04907 8.85254 5.02612 8.85156 5.00269C8.81543 4.83203 8.73828 4.67603 8.62793 4.55151C8.51855 4.427 8.37988 4.33887 8.22852 4.29663V6.75537H8.23633C8.25391 7.68042 8.64648 8.48682 9.22754 8.94019H6.79395C7.37598 8.48682 7.76758 7.68042 7.78516 6.75537H7.79297V4.29663C7.6416 4.33887 7.50293 4.427 7.39355 4.55151C7.34375 4.60815 7.2998 4.67114 7.26465 4.73926C7.22168 4.8208 7.18945 4.90967 7.16992 5.00269C7.16992 5.02612 7.16504 5.04907 7.1582 5.07153C7.15137 5.1189 7.14648 5.1687 7.14648 5.21924H5.19922L6.03809 6.51538H6.14355V6.75488H4V6.51538H4.10449L4.94336 5.21899H4.51562C4.40723 5.21899 4.31934 5.1189 4.31934 4.99463C4.31934 4.94775 4.33203 4.9043 4.35352 4.86841C4.38867 4.8103 4.44824 4.77246 4.51562 4.77246H6.8916C6.96289 4.55444 7.08301 4.36108 7.24121 4.21191C7.39941 4.06274 7.58984 3.96313 7.79297 3.92285V3.22363C7.79297 3.19434 7.79785 3.16528 7.80762 3.13794C7.81836 3.11084 7.83301 3.08618 7.85059 3.06543C7.86914 3.04468 7.8916 3.02808 7.91602 3.01685C7.93945 3.00562 7.96582 3 7.99219 3L8.01074 3.00244L8.0293 3C8.13965 3 8.22852 3.09937 8.22852 3.22363V3.92334C8.43164 3.96362 8.62207 4.06323 8.78027 4.2124C8.93848 4.36157 9.05957 4.55469 9.12988 4.77271H11.5059C11.6143 4.77271 11.7021 4.87207 11.7021 4.99487C11.7021 5.1189 11.6143 5.21924 11.5059 5.21924H11.0566ZM4.31641 6.51587H4.98633V5.48096L4.31641 6.51587ZM5.1582 5.48096V6.51587H5.82715L5.1582 5.48096ZM10.1729 6.51587H10.8428V5.48096L10.1729 6.51587ZM11.0137 5.48096V6.51587H11.6836L11.0137 5.48096ZM5.20996 4.6145C5.24707 4.57397 5.26953 4.5188 5.27051 4.46069C5.27051 4.33765 5.18164 4.23682 5.07227 4.23706C4.96191 4.23706 4.87305 4.33765 4.87305 4.46069C4.87402 4.50708 4.8877 4.55176 4.91309 4.58838L4.93359 4.6145C4.9707 4.65479 5.01953 4.67749 5.07129 4.67749C5.08691 4.67749 5.10254 4.67554 5.11719 4.67163C5.15137 4.66235 5.18359 4.64282 5.20996 4.6145ZM10.8525 4.65479C10.877 4.66577 10.9023 4.67139 10.9287 4.67139C11.0381 4.67139 11.127 4.573 11.127 4.44897C11.1279 4.41895 11.124 4.38892 11.1143 4.36084L11.0996 4.32593C11.0918 4.31128 11.083 4.29761 11.0723 4.2854C11.0537 4.26367 11.0312 4.24634 11.0068 4.23462L10.9746 4.22314C10.96 4.21899 10.9443 4.2168 10.9287 4.2168C10.9014 4.2168 10.875 4.2229 10.8506 4.23462C10.8359 4.2417 10.8223 4.25049 10.8096 4.26123L10.7852 4.2854C10.7666 4.30688 10.752 4.33276 10.7422 4.36084C10.7334 4.38892 10.7285 4.41895 10.7295 4.44897C10.7295 4.46558 10.7314 4.48193 10.7344 4.49805L10.7451 4.53418C10.7549 4.56128 10.7695 4.58594 10.7881 4.60669L10.8086 4.62695C10.8223 4.63818 10.8369 4.64746 10.8525 4.65479Z"></path></svg>