<svg xmlns="http://www.w3.org/2000/svg" viewBox="0 0 21 24" height="24" width="21"><title>doctors.svg</title><rect fill="none" x="0" y="0" width="21" height="24"></rect><path fill="#ba272a" transform="translate(2 2)" d="M11.1123 15.5334C14.0547 14.3313 16.1289 11.4402 16.1289 8.06445C16.1289 3.6106 12.5186 0 8.06445 0C3.61035 0 0 3.6106 0 8.06445C0 11.4431 2.07812 14.3364 5.02539 15.5366L7.36914 19.5967C7.67969 20.1345 8.45508 20.1345 8.76562 19.5967L11.1123 15.5334ZM9.61621 6.84106C9.1875 7.26294 8.60645 7.5 8 7.5C7.39355 7.5 6.8125 7.26294 6.38379 6.84106C6.21973 6.67993 6.08398 6.49683 5.97852 6.29883C5.80664 5.97852 5.71387 5.6189 5.71387 5.25C5.71387 4.65332 5.95508 4.08105 6.38379 3.65894C6.8125 3.23706 7.39355 3 8 3C8.60645 3 9.1875 3.23706 9.61621 3.65894C10.0449 4.08105 10.2861 4.65332 10.2861 5.25C10.2861 5.84668 10.0449 6.41895 9.61621 6.84106ZM4 11.478C4 10.0542 4.96387 8.85181 6.28613 8.47021V9.50928C6.12988 9.55493 5.98926 9.63721 5.875 9.74585C5.6875 9.9248 5.57129 10.1753 5.57129 10.4531C5.57129 10.9963 6.01953 11.4375 6.57129 11.4375C7.12305 11.4375 7.57129 10.9963 7.57129 10.4531C7.57129 10.217 7.4873 10.0005 7.34668 9.83105C7.22168 9.67993 7.05176 9.56641 6.85742 9.50928V8.35962C6.92383 8.35303 6.99219 8.34839 7.06055 8.34595L7.18359 8.34375H8.81641C8.92676 8.34375 9.03613 8.34912 9.14258 8.35962V9.36328C8.65039 9.48804 8.28613 9.9292 8.28613 10.4531V11.1562C8.28613 11.311 8.41406 11.4375 8.57129 11.4375H8.85742C9.01465 11.4375 9.14258 11.311 9.14258 11.1562C9.14258 11.0015 9.01465 10.875 8.85742 10.875V10.4531C8.85742 10.2886 8.92871 10.1409 9.04199 10.0381C9.14355 9.94653 9.2793 9.89062 9.42871 9.89062C9.74512 9.89062 10 10.1421 10 10.4531V10.875C9.84277 10.875 9.71387 11.0015 9.71387 11.1562C9.71387 11.311 9.84277 11.4375 10 11.4375H10.2861C10.4424 11.4375 10.5713 11.311 10.5713 11.1562V10.4531C10.5713 9.9292 10.207 9.48804 9.71387 9.36328V8.47021C11.0361 8.85181 12 10.0542 12 11.478C12 11.7661 11.7627 12 11.4697 12H4.53027C4.2373 12 4 11.7661 4 11.478ZM6.87402 10.7515C6.79395 10.8306 6.68555 10.875 6.57129 10.875C6.50586 10.875 6.44141 10.8601 6.38379 10.8323C6.3418 10.812 6.30273 10.7849 6.26855 10.7515C6.18848 10.6724 6.14258 10.5649 6.14258 10.4531C6.14258 10.3413 6.18848 10.2339 6.26855 10.1548C6.34863 10.0757 6.45801 10.0312 6.57129 10.0312C6.64258 10.0312 6.71289 10.0488 6.77441 10.0815C6.81055 10.1008 6.84473 10.1255 6.87402 10.1548C6.92188 10.2014 6.95703 10.2581 6.97754 10.3196C6.99219 10.3623 7 10.4072 7 10.4531C7 10.5649 6.95508 10.6724 6.87402 10.7515Z"></path></svg>