<svg xmlns="http://www.w3.org/2000/svg" viewBox="0 0 21 24" height="24" width="21"><title>dog_park.svg</title><rect fill="none" x="0" y="0" width="21" height="24"></rect><path fill="#598017" transform="translate(2 2)" d="M11.1123 15.5334C14.0547 14.3313 16.1289 11.4402 16.1289 8.06445C16.1289 3.6106 12.5186 0 8.06445 0C3.61035 0 0 3.6106 0 8.06445C0 11.4431 2.07812 14.3364 5.02539 15.5366L7.36914 19.5967C7.67969 20.1345 8.45508 20.1345 8.76562 19.5967L11.1123 15.5334ZM7.84766 5.29468L7.51758 3C7.67285 3.09302 7.83203 3.18506 7.96973 3.28564C8.08496 3.37012 8.18555 3.46045 8.25488 3.56274H9.73145L10.0205 4.17041L11.5098 4.12817C11.6699 4.37939 11.5215 4.65625 11.3291 4.85303C11.207 4.97949 11.0615 5.08203 10.8994 5.16846C10.4404 5.41382 9.85156 5.52832 9.30664 5.68677L7.84766 5.29468ZM5.41895 11.0632C5.45312 8.57373 6.70215 6.15503 7.62988 5.77661C8.09473 5.86841 8.73926 6.01367 9.16797 6.13794C9.76855 6.31055 10.0967 7.77612 10.4482 9.34204C10.6025 10.0293 10.7607 10.7361 10.9482 11.3613C10.9482 11.3613 11.1777 11.3511 11.4238 11.3818C11.6367 11.4087 11.8623 11.4663 11.9619 11.5889C12.0498 11.696 11.958 12 11.958 12H10.4453C10.1152 11.499 9.39941 10.218 9.31055 9.07471C9.25488 9.41333 9.19531 9.75391 9.0625 10.1165C8.95312 10.4128 8.79492 10.7241 8.54785 11.0613C8.54785 11.0613 9.24902 11.218 9.50098 11.4475C9.6543 11.5889 9.7793 12 9.7793 12H5.56934C3.03125 11.2639 4.03125 8.17798 5.3623 7.18945C4.92676 8.71899 4.74609 9.95239 5.41895 11.0632Z"></path></svg>