<svg xmlns="http://www.w3.org/2000/svg" viewBox="0 0 20 23" height="23" width="20"><title>doityourself.svg</title><rect fill="none" x="0" y="0" width="20" height="23"></rect><path fill="#5e758d" transform="translate(1 1)" d="M11.1123 15.5334C14.0547 14.3313 16.1289 11.4402 16.1289 8.06445C16.1289 3.6106 12.5186 0 8.06445 0C3.61035 0 0 3.6106 0 8.06445C0 11.4431 2.07812 14.3364 5.02539 15.5366L7.36914 19.5967C7.67969 20.1345 8.45508 20.1345 8.76562 19.5967L11.1123 15.5334ZM7.34375 4.33057C7.34375 4.19067 7.34961 4.1311 7.37402 4.09326C7.38477 4.07715 7.39941 4.06494 7.41895 4.05225C7.47363 4.01636 7.57617 4 7.76172 4C8.10742 4 8.16504 4.0459 8.16504 4.31738C8.16504 4.46802 8.1416 4.54004 8.0459 4.71021L7.92578 4.91968V5.60352V6.29077H8.09668H8.26855V6.40845C8.26855 6.42847 8.26562 6.45093 8.26074 6.47412C8.25488 6.5 8.24707 6.52661 8.23633 6.55127C8.22461 6.57788 8.21094 6.60229 8.19629 6.62134L8.12402 6.71948L8.2168 6.83081L8.30566 6.94531H8.69238H9.08008L9.55176 6.19263C9.8125 5.77686 10.0352 5.43335 10.0449 5.42358C10.0586 5.41699 10.2021 5.4856 10.3633 5.57397L10.6611 5.73779L10.2852 6.33325L9.91113 6.92896L10.6406 6.94531C11.1162 6.95508 11.3906 6.97461 11.4385 7.00098C11.5859 7.08276 11.5928 7.15137 11.582 8.65015L11.5723 10.0706L11.4795 10.2571C11.3525 10.5156 11.2402 10.6497 11.0312 10.7871C10.9824 10.8191 10.9414 10.8464 10.8984 10.8699C10.7881 10.9299 10.6631 10.9631 10.3516 10.981C10.1533 10.9924 9.87988 10.9976 9.48633 10.9993C9.09473 11.0007 8.58594 10.9993 7.91602 10.9973H7.9043L7.76855 10.9966L5.10156 10.9868L4.90625 10.8984C4.64551 10.7839 4.43359 10.5876 4.29297 10.342L4.17676 10.136L4.16699 8.63062L4.15625 7.12207L4.24512 7.04346C4.33105 6.96484 4.36133 6.96167 4.84766 6.94531L5.3584 6.92896L5.2207 6.66382C5.07715 6.38232 5.05664 6.36279 4.58398 6.10083C4.50879 6.05908 4.44141 6.01514 4.38086 5.96875C4.27246 5.88599 4.18652 5.79565 4.125 5.69849C4.00586 5.51221 3.97168 5.2998 4.02246 5.06348C4.06348 4.88037 4.10547 4.83765 4.14258 4.9458C4.17676 5.05713 4.48535 5.30249 4.61816 5.32544C4.81348 5.36133 4.96387 5.31885 5.07715 5.19458C5.16309 5.10083 5.20703 4.99609 5.20898 4.8855C5.21094 4.74121 5.1416 4.58716 5.00195 4.4353L4.86133 4.28467L5.07031 4.30444C5.62891 4.35986 5.97461 4.69385 5.97461 5.1748L5.96777 5.28833L5.95996 5.37354L5.9502 5.44751C5.94238 5.50464 5.93359 5.55908 5.92285 5.60352C5.83398 5.98633 5.85156 6.11719 6.0498 6.55249L6.22754 6.94531H6.70703H7.18945L7.26465 6.84058L7.34082 6.73901L7.2373 6.62134C7.17285 6.5459 7.13867 6.46753 7.13867 6.39868V6.29077H7.34375H7.54883V5.56763V4.84766L7.44629 4.70361C7.35742 4.57935 7.34375 4.53345 7.34375 4.33057ZM11.1885 10.1719C11.2607 10.041 11.2637 10.0017 11.2744 8.84985L11.2842 7.66528H7.87402H4.46777V8.8335C4.46777 9.26636 4.46777 9.53979 4.47168 9.7207C4.47461 9.8208 4.47852 9.89258 4.48438 9.94751C4.49219 10.0205 4.50293 10.0637 4.51953 10.1038L4.5498 10.1687C4.56445 10.2007 4.58789 10.239 4.61621 10.2786C4.66504 10.3481 4.72852 10.4207 4.7832 10.4666C4.92969 10.5969 4.96875 10.6582 5.36914 10.6855C5.75293 10.7119 6.46875 10.707 7.92969 10.7021L10.5791 10.6924L10.7607 10.594C10.8252 10.5608 10.8799 10.5269 10.9287 10.4893C10.9707 10.4573 11.0078 10.4229 11.042 10.384L11.085 10.3318C11.1211 10.2854 11.1543 10.2327 11.1885 10.1719ZM5.83691 9.18701V9.98877H6.32617C6.8877 9.98877 7.04199 9.95605 7.19238 9.81201C7.33008 9.68115 7.37793 9.52075 7.37793 9.18701C7.37793 8.85303 7.33008 8.69287 7.19238 8.56177C7.04883 8.42432 6.83984 8.38525 6.28223 8.38525H5.83691V9.18701ZM6.83105 9.22339C6.83203 9.36133 6.82227 9.49219 6.79883 9.52734C6.78223 9.55347 6.68945 9.57959 6.57617 9.58936L6.38477 9.60254V9.18701V8.76807L6.55957 8.7876C6.65527 8.80078 6.75488 8.8269 6.78223 8.84668C6.8125 8.87012 6.83008 9.05225 6.83105 9.22339ZM7.65234 9.98877V9.18701V8.38525H7.90918H8.16602V9.18701V9.98877H7.90918H7.65234ZM8.61426 8.948C8.83008 9.46509 8.85059 9.53052 8.85059 9.74976V9.98877H9.12402H9.39844V9.7793C9.39844 9.73828 9.40234 9.69336 9.41211 9.64087C9.4209 9.5957 9.43359 9.54468 9.45117 9.4856C9.51367 9.27441 9.63867 8.95874 9.86719 8.42432C9.87402 8.40942 9.86035 8.39966 9.81641 8.39355C9.77246 8.3877 9.7002 8.38525 9.58984 8.38525H9.29883L9.26465 8.50635L9.22168 8.66602L9.18945 8.78442C9.16895 8.86938 9.1377 8.93481 9.12793 8.92505C9.11426 8.91846 9.07324 8.79419 9.03906 8.64697L8.97754 8.38525H8.67578H8.37793L8.61426 8.948ZM9.33301 4.58252C9.38086 4.54663 9.48047 4.50073 9.55566 4.47461C9.62793 4.44824 9.69629 4.42871 9.70605 4.42871C9.8291 4.42212 10.1279 4.5564 10.7197 4.88354C11.3877 5.25 11.4385 5.27295 11.4658 5.21094C11.4756 5.19067 11.4893 5.17236 11.501 5.16016C11.5107 5.15088 11.5205 5.14526 11.5273 5.14526C11.582 5.14526 12 5.38745 12 5.41699C12 5.46289 11.5518 6.19263 11.5244 6.19263C11.4658 6.19263 11.0586 5.93726 11.0693 5.90454L11.0801 5.85205L11.0859 5.82935C11.0898 5.8064 10.7715 5.61328 10.374 5.39404C9.66895 5.00464 9.65137 4.99805 9.44922 5.00146C9.35352 5.00146 9.27441 5.01172 9.20312 5.03296C9.16699 5.0437 9.13379 5.05713 9.10059 5.07349C9.04102 5.10254 9.00293 5.11841 8.97949 5.12134C8.96094 5.12354 8.95312 5.11743 8.95312 5.10278C8.95312 5.03735 9.2334 4.64795 9.33301 4.58252Z"></path></svg>