<svg xmlns="http://www.w3.org/2000/svg" viewBox="0 0 20 23" height="23" width="20"><title>drinking_water_tap.svg</title><rect fill="none" x="0" y="0" width="20" height="23"></rect><path fill="#5e758d" transform="translate(1 1)" d="M11.1123 15.5334C14.0547 14.3313 16.1289 11.4402 16.1289 8.06445C16.1289 3.6106 12.5186 0 8.06445 0C3.61035 0 0 3.6106 0 8.06445C0 11.4431 2.07812 14.3364 5.02539 15.5366L7.36914 19.5967C7.51562 19.8501 7.76465 19.9841 8.01953 19.9988C8.30664 20.0151 8.60156 19.8811 8.76562 19.5967L11.1123 15.5334ZM7.42871 3.20166C7.57129 3.06714 7.64258 3 7.71387 3C7.78613 3 7.85742 3.06714 8 3.20166V3.7395H8.85742C9.15234 3.4707 9.15137 3.4707 9.4375 3.7395C9.58008 3.87378 9.65137 3.94092 9.65137 4.00806C9.65234 4.07544 9.58105 4.14282 9.4375 4.27734C9.15137 4.54614 9.15234 4.54614 8.87012 4.27734H8V4.81519H7.42871V4.27734H6.5498C6.28613 4.54614 6.28613 4.54614 6 4.27734C5.85645 4.14282 5.78516 4.07544 5.78613 4.00806C5.78613 3.94092 5.85742 3.87378 6 3.7395C6.18262 3.56763 6.24902 3.50562 6.34473 3.55347C6.39941 3.58057 6.46289 3.64258 6.5625 3.7395H7.42871V3.20166ZM4 8.61353V4.31104H4.57129V8.61353H4ZM4.85742 4.84863L5.14258 5.11768V7.80664L4.85742 8.07568V4.84863ZM6.83496 5.62183C6.85059 5.08398 7.14258 5.08398 7.71387 5.08398C8.28613 5.08398 8.57812 5.08398 8.57129 5.62183H10C11.1426 5.62183 11.7139 6.15967 11.7139 7.23535V8.31104H10V7.77319C10 7.23535 10 7.23535 8.85742 7.23535C8.57129 7.50415 8.28613 7.77319 7.71387 7.77319C7.14258 7.77319 6.85742 7.50415 6.58301 7.23535H5.42871V5.62183H6.83496ZM9.71387 8.84863V8.57983H12V8.84863H9.71387ZM10.2861 10.4958C10.1641 9.98584 10.8574 9.11768 10.8574 9.11768C10.8574 9.11768 11.5508 9.98584 11.4287 10.4958C11.3779 10.7068 11.293 10.8611 11.1396 10.9402C11.0635 10.9792 10.9707 11 10.8574 11C10.5137 11 10.3613 10.811 10.2861 10.4958Z"></path></svg>