<svg xmlns="http://www.w3.org/2000/svg" viewBox="0 0 20 23" height="23" width="20"><title>driving_license.svg</title><rect fill="none" x="0" y="0" width="20" height="23"></rect><path fill="#5e758d" transform="translate(1 1)" d="M11.112 15.5334C14.0551 14.3313 16.129 11.4401 16.129 8.06452C16.129 3.61061 12.5184 0 8.06452 0C3.61061 0 0 3.61061 0 8.06452C0 11.4431 2.07765 14.3365 5.02501 15.5366L7.36915 19.5968C7.67955 20.1344 8.45556 20.1344 8.76596 19.5968L11.112 15.5334ZM11.3333 4H4.66667C4.31667 4 4 4.36944 4 4.77778V10.2222C4 10.6306 4.31667 11 4.66667 11H11.3333C11.6833 11 12 10.6306 12 10.2222V4.77778C12 4.36944 11.6833 4 11.3333 4ZM8.66667 5.55556V5.16667H11.3333V5.55556H8.66667ZM8.66667 6.33333V5.94444H11.3333V6.33333H8.66667ZM8.66667 7.11111V6.72222H11V7.11111H8.66667ZM4.66667 9.44444C4.66667 8.66667 6 8.24278 6.66667 8.24278C7.33333 8.24278 8.66667 8.66667 8.66667 9.44444V9.83333H4.66667V9.44444ZM5.95956 5.50838C6.1471 5.28958 6.40145 5.16667 6.66667 5.16667C6.93188 5.16667 7.18624 5.28958 7.37377 5.50838C7.56131 5.72717 7.66667 6.02391 7.66667 6.33333C7.66667 6.64275 7.56131 6.9395 7.37377 7.15829C7.18624 7.37708 6.93188 7.5 6.66667 7.5C6.40145 7.5 6.1471 7.37708 5.95956 7.15829C5.77202 6.9395 5.66667 6.64275 5.66667 6.33333C5.66667 6.02391 5.77202 5.72717 5.95956 5.50838Z"></path></svg>