<svg xmlns="http://www.w3.org/2000/svg" viewBox="0 0 21 24" height="24" width="21"><title>electronics.svg</title><rect fill="none" x="0" y="0" width="21" height="24"></rect><path fill="#5e758d" transform="translate(2 2)" d="M11.1123 15.5334C14.0547 14.3313 16.1289 11.4402 16.1289 8.06445C16.1289 3.6106 12.5186 0 8.06445 0C3.61035 0 0 3.6106 0 8.06445C0 11.4431 2.07812 14.3364 5.02539 15.5366L7.36914 19.5967C7.67969 20.1345 8.45508 20.1345 8.76562 19.5967L11.1123 15.5334ZM4.59961 3H11.4004C11.5596 3 11.7119 3.06909 11.8242 3.19214C11.9365 3.31519 12 3.48218 12 3.65625V8.03125C12 8.20532 11.9365 8.37231 11.8242 8.49536C11.7119 8.61841 11.5596 8.6875 11.4004 8.6875H8.40039V9.125H10.5996C10.6533 9.125 10.7041 9.14795 10.7412 9.18896C10.7793 9.22998 10.7998 9.28564 10.7998 9.34375V9.78125C10.7998 9.82129 10.79 9.86011 10.7715 9.8938C10.7637 9.90918 10.7529 9.92334 10.7412 9.93604C10.7041 9.97705 10.6533 10 10.5996 10H5.40039C5.34668 10 5.2959 9.97705 5.25879 9.93604C5.2207 9.89502 5.2002 9.83936 5.2002 9.78125V9.34375C5.2002 9.28564 5.2207 9.22998 5.25879 9.18896C5.2959 9.14795 5.34668 9.125 5.40039 9.125H7.59961V8.6875H4.59961C4.44043 8.6875 4.28809 8.61841 4.17578 8.49536C4.06348 8.37231 4 8.20532 4 8.03125V3.65625C4 3.48218 4.06348 3.31519 4.17578 3.19214C4.28809 3.06909 4.44043 3 4.59961 3ZM4.7998 7.8125H11.2002V3.875H4.7998V7.8125Z"></path></svg>