<svg xmlns="http://www.w3.org/2000/svg" viewBox="0 0 21 24" height="24" width="21"><title>embassy.svg</title><rect fill="none" x="0" y="0" width="21" height="24"></rect><path fill="#299091" transform="translate(2 2)" d="M11.1123 15.5334C14.0547 14.3313 16.1289 11.4402 16.1289 8.06445C16.1289 3.6106 12.5186 0 8.06445 0C3.61035 0 0 3.6106 0 8.06445C0 11.4431 2.07812 14.3364 5.02539 15.5366L7.36914 19.5967C7.67969 20.1345 8.45508 20.1345 8.76562 19.5967L11.1123 15.5334ZM7.86816 3.6875C7.86816 3.35254 7.8877 3.06201 7.91406 3.04297C7.97461 2.97998 8.05469 2.98633 8.10156 3.06201C8.11426 3.08325 8.22754 3.10474 8.38379 3.11621C8.45898 3.12183 8.54492 3.12524 8.63477 3.12524H9.12109L9.14746 3.40942C9.16113 3.56104 9.16113 3.71899 9.14746 3.75684C9.13379 3.79492 8.90723 3.82007 8.62793 3.82007H8.13477V4.05371V4.29395L9.3877 4.79932L10.6338 5.30469C10.959 5.31055 11.2393 5.31738 11.4541 5.32568C11.7344 5.33643 11.9043 5.34937 11.9199 5.36475C11.9551 5.39771 11.9785 5.46973 11.9912 5.55542C11.998 5.60303 12.001 5.65479 12.001 5.7063L11.999 5.75879C11.9922 5.87964 11.9658 5.99072 11.9199 6.03418C11.9082 6.04541 11.8164 6.05542 11.6592 6.06421C11.5205 6.07202 11.3311 6.07886 11.1035 6.08496C11.5508 6.11743 11.6689 6.20898 11.374 6.31543L11.2002 6.37866V7.64209C11.2002 8.32495 11.2051 8.64453 11.2314 8.79932C11.249 8.90527 11.2773 8.93433 11.3203 8.94971C11.4541 9.00024 11.54 9.10132 11.4941 9.1709C11.4844 9.18237 11.4238 9.19385 11.3301 9.20312C11.6475 9.2124 11.8457 9.22363 11.873 9.2373C11.9668 9.28784 12 9.36987 12 9.57202C12 9.72363 11.9668 9.87524 11.9199 9.91943C11.8066 10.0269 4.19531 10.0269 4.08105 9.91943C3.95508 9.79932 3.98145 9.31934 4.12109 9.24341C4.14746 9.229 4.3623 9.21655 4.70996 9.20654C4.59473 9.19702 4.51855 9.18384 4.50879 9.1709C4.46191 9.10132 4.54883 9.00024 4.68848 8.94971C4.78809 8.91187 4.80176 8.79175 4.80176 7.64209V6.37866L4.63477 6.31543C4.46875 6.25854 4.42871 6.18262 4.51562 6.10693C4.52441 6.0957 4.58203 6.08569 4.6709 6.07812C4.50195 6.07251 4.36426 6.06616 4.26465 6.05933C4.15527 6.05176 4.0918 6.04346 4.08203 6.03418C3.97559 5.93311 3.97559 5.46582 4.08203 5.36475C4.11133 5.3374 4.62207 5.31812 5.375 5.30469L6.62109 4.79932L7.86816 4.29395V3.6875ZM5.61719 9.18945C5.88965 9.18579 6.18945 9.18262 6.50195 9.18018C6.47363 9.16138 6.46777 9.13403 6.46777 9.09497C6.46777 9.04834 6.48242 9.01392 6.51074 8.99292C6.52441 8.98364 6.54004 8.97681 6.55859 8.9729C6.57129 8.97021 6.58594 8.96875 6.60156 8.96875C6.62109 8.96875 6.6377 8.96777 6.65234 8.96118C6.66406 8.95532 6.6748 8.94556 6.68359 8.92896C6.70605 8.88672 6.71875 8.80054 6.72559 8.62451L6.73145 8.3042L6.73438 7.64209C6.73438 7.12378 6.7334 6.80786 6.72363 6.61523C6.70898 6.33105 6.67676 6.31543 6.60156 6.31543C6.54199 6.31543 6.50098 6.29443 6.48145 6.25464C6.47266 6.23657 6.46777 6.2146 6.46777 6.18896C6.46777 6.15356 6.47363 6.12793 6.49609 6.10938L5.62891 6.09985C5.6377 6.10474 5.64453 6.11011 5.64941 6.11621C5.65723 6.12549 5.66211 6.13647 5.66504 6.14966L5.66797 6.18896C5.66797 6.27124 5.62207 6.31543 5.53516 6.31543C5.4541 6.31543 5.42188 6.3335 5.40918 6.68555C5.40234 6.88208 5.40137 7.18262 5.40137 7.64209C5.40137 8.25024 5.40234 8.58008 5.41797 8.75854C5.43457 8.95654 5.46875 8.96875 5.53516 8.96875C5.57422 8.96875 5.60449 8.97754 5.62695 8.99487C5.6543 9.01611 5.66797 9.0498 5.66797 9.09497C5.66797 9.14111 5.66016 9.17065 5.61719 9.18945ZM7.57422 9.1748C7.8584 9.17407 8.14258 9.1748 8.42676 9.1748C8.4043 9.15625 8.40039 9.13062 8.40039 9.09497C8.40039 9.06934 8.40527 9.04736 8.41406 9.0293C8.42188 9.01343 8.43262 9.00073 8.44727 8.99097C8.45508 8.98535 8.46484 8.98071 8.47559 8.97729C8.49219 8.97168 8.51172 8.96875 8.53418 8.96875C8.66016 8.96875 8.66699 8.92432 8.66699 7.64209C8.66699 6.35962 8.66016 6.31543 8.53418 6.31543C8.44727 6.31543 8.40039 6.27124 8.40039 6.18896C8.40039 6.17163 8.40137 6.15625 8.40527 6.14331C8.4082 6.13232 8.41309 6.1228 8.4209 6.11475H7.57812C7.59473 6.13257 7.60059 6.15698 7.60059 6.18896C7.60059 6.22607 7.5918 6.25562 7.57324 6.27661C7.55078 6.30225 7.51562 6.31543 7.46777 6.31543C7.34082 6.31543 7.33398 6.35962 7.33398 7.64209C7.33398 8.92432 7.34082 8.96875 7.46777 8.96875C7.49902 8.96875 7.52539 8.97461 7.5459 8.98608C7.58203 9.00586 7.60059 9.04272 7.60059 9.09497C7.60059 9.13062 7.59668 9.15625 7.57422 9.1748ZM9.50293 9.17749C9.81152 9.17944 10.1064 9.18164 10.375 9.18481C10.3398 9.16602 10.334 9.13745 10.334 9.09497C10.334 9.01294 10.3809 8.96875 10.4678 8.96875C10.5938 8.96875 10.6006 8.92432 10.6006 7.64209C10.6006 6.35962 10.5938 6.31543 10.4678 6.31543C10.3809 6.31543 10.334 6.27124 10.334 6.18896C10.334 6.14746 10.3379 6.1189 10.3623 6.09985L9.50879 6.10938C9.52051 6.11938 9.52637 6.13159 9.53027 6.146C9.5332 6.15845 9.5332 6.17261 9.5332 6.18896C9.5332 6.27124 9.4873 6.31543 9.40039 6.31543C9.27344 6.31543 9.2666 6.35962 9.2666 7.64209C9.2666 8.92432 9.27344 8.96875 9.40039 8.96875C9.4873 8.96875 9.5332 9.01294 9.5332 9.09497C9.5332 9.13232 9.52832 9.15869 9.50293 9.17749Z"></path></svg>