<svg xmlns="http://www.w3.org/2000/svg" viewBox="0 0 21 24" height="24" width="21"><title>entrance.svg</title><rect fill="none" x="0" y="0" width="21" height="24"></rect><path fill="#299091" transform="translate(2 2)" d="M11.1123 15.5334C14.0547 14.3313 16.1289 11.4402 16.1289 8.06445C16.1289 3.6106 12.5186 0 8.06445 0C3.61035 0 0 3.6106 0 8.06445C0 11.4431 2.07812 14.3364 5.02539 15.5366L7.36914 19.5967C7.67969 20.1345 8.45508 20.1345 8.76562 19.5967L11.1123 15.5334ZM7.8623 3.48975V3H8.1377V3.48975C8.22949 3.5022 8.32129 3.52661 8.41406 3.55933V3.23999H8.68945V3.67749L8.77832 3.72217C8.83984 3.75439 8.90234 3.78931 8.96582 3.82568V3.47998H9.24121V3.99292L9.51758 4.17017V3.95996H9.79297V4.34937C9.88672 4.40967 9.97852 4.46802 10.0693 4.52344V4.19995H10.3447V4.68311L10.3984 4.71216L10.5078 4.76636L10.6211 4.81665V4.67993H10.8965V4.90454C10.9463 4.91455 10.9922 4.91992 11.0342 4.91992H11.1729V4.43994H12V9H11.1729V5.15991H11.0342C10.9883 5.15991 10.9424 5.15649 10.8965 5.15015V9H10.6211V5.08081C10.5303 5.04858 10.4375 5.00854 10.3447 4.96265V9H10.0693V4.81421C9.97754 4.76172 9.88574 4.70532 9.79297 4.64722V9H9.51758V6.84009H9.24121V9H8.96582V4.1167C8.87109 4.05908 8.7793 4.00537 8.68945 3.95679V6.12012H8.41406V3.82349C8.31348 3.78223 8.2207 3.7522 8.1377 3.73535V6.12012H7.8623V3.73535C7.82129 3.74365 7.77832 3.75513 7.73242 3.76953C7.68555 3.78442 7.63672 3.80249 7.58594 3.82349V6.12012H7.31055V3.95679L7.19629 4.02026L7.03418 4.1167V9H6.75879V6.84009H6.48242V9H6.20703V4.64722C6.11426 4.70532 6.02246 4.76172 5.93066 4.81421V9H5.65527V4.96265C5.5625 5.00854 5.46973 5.04858 5.37891 5.08081V9H5.10352V5.15015L5.0332 5.15747L4.96582 5.15991H4.82715V9H4V4.43994H4.82715V4.91992H4.96582C5.00781 4.91992 5.05371 4.91455 5.10352 4.90454V4.67993H5.37891V4.81665L5.49609 4.7644L5.60156 4.71216L5.65527 4.68311V4.19995H5.93066V4.52344C6.02148 4.46802 6.11328 4.40967 6.20703 4.34937V3.95996H6.48242V4.17017L6.75879 3.99292V3.47998H7.03418V3.82568C7.09766 3.78931 7.16016 3.75439 7.22168 3.72217L7.31055 3.67749V3.23999H7.58594V3.55933C7.64355 3.53906 7.7002 3.52197 7.75684 3.50903C7.79199 3.50098 7.82715 3.49438 7.8623 3.48975ZM4.08887 3.61572C4.16406 3.53271 4.28125 3.47998 4.41406 3.47998C4.64355 3.47998 4.82715 3.63965 4.82715 3.84009C4.82715 4.04028 4.64355 4.19995 4.41406 4.19995C4.18359 4.19995 4 4.04028 4 3.84009C4 3.75488 4.0332 3.677 4.08887 3.61572ZM11.1729 3.84009C11.1729 3.63965 11.3564 3.47998 11.5859 3.47998C11.8164 3.47998 12 3.63965 12 3.84009C12 4.04028 11.8164 4.19995 11.5859 4.19995C11.3564 4.19995 11.1729 4.04028 11.1729 3.84009ZM6.75879 6.6001V4.29053L6.56543 4.41602L6.48242 4.46973V6.6001H6.75879ZM9.43457 4.41602L9.24121 4.29053V6.6001H9.51758V4.46973L9.43457 4.41602ZM8.68945 6.84009H7.31055V6.36011H8.68945V6.84009ZM7.31055 9V7.08008H7.58594V9H7.31055ZM7.8623 9V7.08008H8.1377V9H7.8623ZM8.41406 9V7.08008H8.68945V9H8.41406Z"></path></svg>