<svg xmlns="http://www.w3.org/2000/svg" viewBox="0 0 20 23" height="23" width="20"><title>erotic.svg</title><rect fill="none" x="0" y="0" width="20" height="23"></rect><path fill="#5e758d" transform="translate(1 1)" d="M11.1123 15.5334C14.0547 14.3313 16.1289 11.4402 16.1289 8.06445C16.1289 3.6106 12.5186 0 8.06445 0C3.61035 0 0 3.6106 0 8.06445C0 11.4431 2.07812 14.3364 5.02539 15.5366L7.36914 19.5967C7.67969 20.1345 8.45508 20.1345 8.76562 19.5967L11.1123 15.5334ZM4.10156 4.95972C4.01562 4.5752 4 4.37842 4 3.65259C4 3.03564 4.00195 2.99634 4.03125 3.00757L4.35352 3.18945C4.85547 3.47998 5.21387 3.75952 5.55176 4.12524C5.85254 4.44946 6.10742 4.80908 6.3125 5.19702C6.51367 5.57642 6.66699 5.98291 6.76953 6.40942C6.80469 6.55176 6.85254 6.70752 6.87695 6.75806C6.93359 6.87256 7.03418 6.96631 7.14062 7.00391C7.21875 7.03198 7.22852 7.03198 7.33594 6.99634C7.72168 6.86694 8.28027 6.86694 8.66699 6.99634C8.75293 7.02515 8.77637 7.03076 8.82324 7.01758L8.86035 7.00562C8.95898 6.96997 9.05859 6.88379 9.11523 6.78638C9.1377 6.74512 9.1875 6.5874 9.22559 6.43555C9.44629 5.53345 9.85059 4.77222 10.4502 4.12524C10.792 3.75586 11.1494 3.47827 11.668 3.17993L11.9072 3.04419C11.957 3.0166 11.9893 3 11.9922 3C11.999 3 12.0029 3.33569 11.9971 3.74438C11.9902 4.53955 11.9854 4.59399 11.8887 5.01025C11.6631 5.98926 11.0801 6.86694 10.2783 7.43701C10.042 7.604 9.97949 7.68823 9.9502 7.88159C9.94434 7.92847 9.94141 7.95508 9.94824 7.98315C9.9541 8.00903 9.96777 8.03638 9.99316 8.08203C10.1553 8.3728 10.2715 8.70483 10.3213 9.01221C10.3379 9.11743 10.3467 9.29736 10.3467 9.52051C10.3467 9.75732 10.3467 9.8335 10.3701 9.95825C10.3809 10.0132 10.3965 10.0776 10.418 10.1694C10.5576 10.7751 10.499 11.0208 10.1074 11.4653C9.86914 11.7334 9.5625 11.9116 9.21387 11.9846C9.15039 11.9978 9.01758 12.0034 8.88574 11.9978C8.63281 11.9885 8.49121 11.9453 8.28418 11.8159C8.07227 11.6829 7.92871 11.6809 7.72363 11.814C7.52734 11.9397 7.37207 11.9885 7.11621 11.9978C6.81152 12.009 6.60059 11.9622 6.33691 11.8179C6.09375 11.6865 5.86816 11.469 5.68652 11.1934C5.62109 11.093 5.58105 11.0151 5.55664 10.9277C5.53613 10.8547 5.52637 10.7751 5.52246 10.6702C5.51465 10.4863 5.51953 10.4526 5.58496 10.1694C5.62402 10.0022 5.6416 9.92578 5.64941 9.83301C5.65527 9.7583 5.65527 9.67285 5.65527 9.52051C5.65527 9.29736 5.66406 9.11743 5.68164 9.01221C5.73145 8.70483 5.84766 8.3728 6.00977 8.08203C6.0625 7.98657 6.06445 7.97144 6.05273 7.88159C6.03027 7.7356 5.98926 7.65186 5.86914 7.54761C5.83008 7.51392 5.78223 7.47803 5.72461 7.43701C4.90723 6.85571 4.33105 5.97607 4.10156 4.95972ZM7.5166 10.6533C7.36621 10.3269 7.03711 9.93115 6.81152 9.80737C6.72852 9.7605 6.52832 9.73999 6.44922 9.76807C6.39258 9.78809 6.3418 9.81519 6.2959 9.84937C6.22168 9.90503 6.16211 9.97925 6.12012 10.0701C6.10547 10.1001 6.0957 10.1274 6.08887 10.1628C6.08008 10.2068 6.07617 10.2629 6.07324 10.3513C6.06641 10.5276 6.07129 10.5652 6.1123 10.6982C6.24707 11.1353 6.64551 11.4202 7.08691 11.3977C7.21875 11.3904 7.32031 11.3601 7.39844 11.303C7.46191 11.2571 7.50977 11.1936 7.5459 11.1108C7.61133 10.9626 7.60254 10.8408 7.5166 10.6533ZM9.76172 9.89673C9.72852 9.86401 9.69043 9.83618 9.64844 9.81299C9.55664 9.7605 9.3623 9.73804 9.27734 9.76807C9.03418 9.85425 8.66016 10.2725 8.48438 10.657C8.39941 10.8408 8.39258 10.9626 8.45703 11.1108C8.53809 11.2964 8.67773 11.3845 8.91504 11.3977C9.34277 11.4202 9.74316 11.1426 9.88281 10.7263C9.90234 10.6702 9.91309 10.6287 9.91895 10.5718C9.92383 10.5242 9.9248 10.4658 9.9248 10.3794C9.9248 10.2649 9.92285 10.2048 9.91406 10.1602C9.9082 10.1267 9.89844 10.1023 9.88281 10.0701C9.85059 10.0012 9.81055 9.94385 9.76172 9.89673Z"></path></svg>