<svg xmlns="http://www.w3.org/2000/svg" viewBox="0 0 20 23" height="23" width="20"><title>escape_game.svg</title><rect fill="none" x="0" y="0" width="20" height="23"></rect><path fill="#5e758d" transform="translate(1 1)" d="M11.1123 15.5334C14.0547 14.3313 16.1289 11.4402 16.1289 8.06445C16.1289 3.6106 12.5186 0 8.06445 0C3.61035 0 0 3.6106 0 8.06445C0 11.4431 2.07812 14.3364 5.02539 15.5366L7.36914 19.5967C7.67969 20.1345 8.45508 20.1345 8.76562 19.5967L11.1123 15.5334ZM8.54395 3H8.5625C8.58398 3 8.60645 3.00269 8.62891 3.0083C8.64941 3.01343 8.66992 3.021 8.69043 3.03076C8.75195 3.06201 8.80176 3.11377 8.82422 3.17188C8.84863 3.22974 8.85156 3.29468 8.80859 3.38623L6.46191 8.35864C6.38965 8.3125 6.31348 8.27002 6.23633 8.23096C6.15723 8.19189 6.07812 8.15649 5.99707 8.12646L8.34375 3.15332C8.36621 3.10571 8.39062 3.073 8.41699 3.05005C8.44238 3.02881 8.46973 3.01611 8.49902 3.00806C8.5127 3.00366 8.52832 3.00171 8.54395 3ZM8.31348 5.16821L8.90039 3.92456L9.17969 4.06421L9.00391 4.43384L8.58984 5.30835L8.31348 5.16821ZM8.74902 5.7019L9.5791 3.94873L10.3516 4.33643L10.2197 4.61475L9.60449 4.62183L9.28125 5.31006L9.65625 5.81372L9.52344 6.09033L8.74902 5.7019ZM8.45215 9.16577C8.45215 8.15479 9.24512 7.33887 10.2266 7.33887C11.208 7.33887 12 8.15479 12 9.16577C12 9.80249 11.6855 10.3618 11.208 10.6885C10.9268 10.8806 10.5898 10.9924 10.2266 10.9924C9.24512 10.9924 8.45215 10.1765 8.45215 9.16577ZM10.6162 7.98389C10.5127 7.87769 10.3721 7.81787 10.2266 7.81787C10.0801 7.81787 9.94043 7.87769 9.83691 7.98389C9.77832 8.04443 9.73438 8.11719 9.70703 8.19629C9.68555 8.25635 9.6748 8.32031 9.6748 8.38525C9.6748 8.49341 9.70508 8.59912 9.76172 8.69019C9.81836 8.78149 9.89844 8.854 9.99414 8.89966L9.6748 10.3716H10.7773L10.459 8.89966C10.5537 8.854 10.6348 8.78149 10.6904 8.69019C10.7471 8.59912 10.7773 8.49341 10.7773 8.38525C10.7773 8.33716 10.7715 8.28979 10.7598 8.24414C10.7354 8.14648 10.6865 8.0564 10.6162 7.98389ZM5.08789 8.30688L5.19629 8.302H5.24219C5.51855 8.30542 5.81445 8.37646 6.10059 8.51831C6.51562 8.72583 6.82715 9.04688 6.99219 9.39087C7.15723 9.73145 7.17969 10.0862 7.03711 10.3877C6.89551 10.6892 6.61133 10.8894 6.25 10.9658C5.88477 11.0437 5.44727 10.9907 5.03125 10.7832C4.61621 10.5757 4.30469 10.2546 4.13867 9.91064C3.97363 9.57007 3.95215 9.21533 4.09375 8.91382C4.23633 8.6123 4.52051 8.41187 4.88281 8.33569C4.94922 8.32153 5.01758 8.31201 5.08789 8.30688ZM5.46973 8.88184C5.36328 8.82861 5.24902 8.802 5.13867 8.802C4.89551 8.79858 4.66602 8.91748 4.55859 9.14624C4.40234 9.47778 4.58008 9.87695 4.91895 10.0471C5.05566 10.1162 5.2041 10.1394 5.34375 10.1233C5.41699 10.2458 5.52637 10.3503 5.66309 10.4194C6.00195 10.5881 6.41699 10.4868 6.57422 10.1553C6.73047 9.82373 6.55176 9.42456 6.21191 9.25439C6.10547 9.20117 5.99316 9.17456 5.88281 9.17285C5.85254 9.17285 5.81934 9.17456 5.78809 9.17798C5.71582 9.05566 5.60547 8.95117 5.46973 8.88184Z"></path></svg>