<svg xmlns="http://www.w3.org/2000/svg" viewBox="0 0 20 23" height="23" width="20"><title>events_venue.svg</title><rect fill="none" x="0" y="0" width="20" height="23"></rect><path fill="#5e758d" transform="translate(1 1)" d="M16.1289 8.06445C16.1289 11.4402 14.0547 14.3313 11.1123 15.5334L8.76562 19.5967C8.45508 20.1345 7.67969 20.1345 7.36914 19.5967L5.02539 15.5366C2.07812 14.3364 0 11.4431 0 8.06445C0 3.6106 3.61035 0 8.06445 0C12.5186 0 16.1289 3.6106 16.1289 8.06445ZM6.11816 4.15649L4.25781 5.30957V5.6709C4.25781 5.95166 4.25684 6.04736 4.30176 6.07983C4.32617 6.09717 4.36328 6.09668 4.41895 6.09668H4.5166L4.51953 6.61279L4.52441 7.13062L4.65332 7.04517C4.9209 6.86938 5.0918 6.64185 5.16113 6.37427C5.18359 6.28711 5.22754 6.24194 5.29004 6.24194C5.35449 6.24194 5.40332 6.29199 5.40332 6.35962C5.40332 6.39209 5.38574 6.46143 5.36133 6.53369C5.3418 6.59424 5.31738 6.65674 5.29395 6.70166C5.24512 6.79834 5.12891 6.94849 5.02246 7.05493C4.91797 7.15796 4.67773 7.32422 4.57422 7.36279L4.50781 7.38867L4.38184 8.64185C4.3125 9.33057 4.25684 9.92578 4.25781 9.96289C4.25781 9.98975 4.26172 10.0127 4.26855 10.0312C4.27344 10.0439 4.28027 10.0544 4.28906 10.063C4.32422 10.0984 4.45117 10.1292 4.56445 10.1292H4.64551V10.3064V10.4839H4.32227H4V10.7419V11H8H12V10.7419V10.4839H11.6777H11.3545V10.3064V10.1292H11.4355C11.4814 10.1292 11.5303 10.124 11.5742 10.1155C11.6377 10.1033 11.6904 10.084 11.7109 10.063C11.7324 10.042 11.7422 10.0081 11.7422 9.96289C11.7432 9.94214 11.7256 9.74805 11.6982 9.46118L11.6182 8.64185L11.4922 7.38867L11.4258 7.36279C11.377 7.34473 11.2998 7.29956 11.2197 7.24536C11.1279 7.18311 11.0322 7.10938 10.9727 7.05151C10.7773 6.85962 10.6211 6.58228 10.6016 6.39526C10.5967 6.35278 10.5967 6.32886 10.6035 6.31006C10.6074 6.29761 10.6152 6.2876 10.627 6.27588C10.6689 6.23389 10.748 6.23218 10.7891 6.27246C10.7979 6.28198 10.8115 6.30786 10.8252 6.34082C10.835 6.36499 10.8457 6.39282 10.8535 6.4209C10.9277 6.66455 11.1084 6.89355 11.3516 7.04834L11.4756 7.12915L11.4805 6.61279L11.4834 6.09668H11.5811C11.6367 6.09668 11.6738 6.09717 11.6982 6.07983C11.7432 6.04736 11.7422 5.95166 11.7422 5.6709V5.30957L9.88086 4.15479L8.59961 3.36328C8.23535 3.13989 8.00391 3 7.99805 3C7.98535 3.00171 7.13867 3.521 6.11816 4.15649ZM7.30664 4.30493C7.49707 4.32593 7.64844 4.37915 7.79492 4.479C7.90527 4.55493 7.93066 4.56445 8.00195 4.56445C8.07227 4.56445 8.09668 4.55493 8.1875 4.49023C8.40137 4.33716 8.66602 4.27734 9.05664 4.29346C9.25977 4.30322 9.34668 4.33228 9.43066 4.4209C9.50977 4.50488 9.53516 4.58398 9.54492 4.77734L9.55371 4.95166H9.59473C9.6582 4.95312 9.75977 5.00488 9.81738 5.06616C9.89551 5.14844 9.92285 5.229 9.93262 5.41455L9.94043 5.58057H10.7109H11.4834V5.70972V5.83862H10.5625C10.0938 5.83862 9.86328 5.83813 9.75195 5.8335C9.65625 5.82959 9.64941 5.82227 9.65527 5.80957C9.66113 5.79517 9.6709 5.66455 9.67383 5.521C9.68262 5.18384 9.68848 5.1936 9.43359 5.1936C9.26953 5.1936 9.25684 5.19189 9.26758 5.16455L9.27539 5.11011C9.28027 5.05591 9.28516 4.96851 9.28711 4.87573L9.28906 4.81421C9.29199 4.68823 9.29395 4.62134 9.26367 4.58643C9.22949 4.54736 9.1543 4.54761 8.99609 4.54834H8.93066C8.74121 4.54834 8.61719 4.55591 8.51758 4.58325C8.40918 4.61328 8.33105 4.66699 8.2334 4.75977C8.17285 4.81763 8.14648 4.83228 8.12891 4.82251C8.11816 4.81543 8.08398 4.81104 8.04395 4.80908C7.99316 4.80664 7.93359 4.80835 7.89844 4.81445C7.88574 4.81665 7.87598 4.81934 7.87109 4.82251C7.85352 4.83228 7.82715 4.81763 7.7666 4.75977C7.5791 4.58228 7.46582 4.54834 7.06934 4.54834H7.00391C6.84863 4.54761 6.77344 4.54736 6.73828 4.58447C6.71777 4.60669 6.71094 4.64209 6.70898 4.69897C6.70801 4.74365 6.71094 4.80127 6.71289 4.87573C6.71582 5.01929 6.72559 5.1499 6.73242 5.16455C6.74316 5.19189 6.73047 5.1936 6.56641 5.1936C6.4502 5.1936 6.3877 5.19165 6.35547 5.22168C6.31934 5.25562 6.32129 5.33105 6.32617 5.49829V5.521C6.32812 5.59595 6.33105 5.66724 6.33496 5.72046C6.33789 5.76929 6.3418 5.80273 6.34473 5.80957C6.3584 5.83716 6.30762 5.83862 5.4375 5.83862H4.5166V5.70972V5.58057H5.28906H6.05957L6.06738 5.41455C6.07715 5.229 6.10449 5.14844 6.18262 5.06616C6.24023 5.00488 6.3418 4.95312 6.40527 4.95166H6.44629L6.45508 4.77734C6.46094 4.65894 6.47266 4.5835 6.5 4.52393C6.5166 4.48608 6.53906 4.45459 6.56934 4.42261C6.60156 4.38843 6.63281 4.36328 6.66797 4.34448C6.7002 4.3269 6.73633 4.31494 6.7793 4.3064C6.87305 4.28882 7.1416 4.28882 7.30664 4.30493ZM7.45117 4.87427C7.51953 4.90967 7.57227 4.95166 7.6084 4.99683C7.64746 5.04907 7.66504 5.07788 7.65918 5.09058C7.65332 5.10229 7.62793 5.10034 7.58105 5.09033C7.52246 5.07837 7.46387 5.08179 7.40918 5.0979C7.32324 5.12329 7.24902 5.18066 7.20996 5.25977C7.19238 5.29346 7.1709 5.32251 7.16309 5.32251C7.13672 5.32251 7.06152 5.22095 7.02246 5.13721C7.00879 5.10547 6.99609 5.05859 6.98633 5.00879L6.97461 4.92896L6.96289 4.80151L7.15527 4.81128C7.3291 4.82104 7.35645 4.82593 7.45117 4.87427ZM9.00391 5.05664C8.99805 5.08496 8.99023 5.10962 8.98242 5.12573C8.9502 5.20312 8.86133 5.32251 8.83691 5.32251C8.8291 5.32251 8.80762 5.29346 8.79004 5.25977C8.7627 5.20557 8.71973 5.16162 8.66797 5.1311C8.5957 5.08887 8.50586 5.07251 8.41895 5.09033C8.32129 5.11133 8.31641 5.09668 8.3916 4.99829C8.49316 4.86621 8.63867 4.81299 8.91016 4.80811L9.03516 4.8064L9.02441 4.93066C9.02051 4.97095 9.0127 5.01709 9.00391 5.05664ZM6.97559 5.52905C7.01855 5.56714 7.06543 5.59814 7.12891 5.63037C7.16797 5.6499 7.21289 5.66992 7.2666 5.69189C7.30762 5.70972 7.30957 5.7146 7.28516 5.72754C7.27051 5.7356 7.23828 5.77734 7.21484 5.81934C7.17773 5.88062 7.16895 5.91455 7.16895 5.99683V6.09839L7.08887 6.08862C6.9873 6.07544 6.90625 6.05103 6.83887 6.01318C6.77539 5.97729 6.72461 5.92896 6.68262 5.86621C6.62109 5.77588 6.60352 5.7146 6.58691 5.55811L6.57617 5.44678L6.73828 5.45483L6.90039 5.46289L6.97559 5.52905ZM9.41309 5.55957C9.39648 5.7146 9.37695 5.77588 9.31738 5.86621C9.23047 5.99512 9.1084 6.06299 8.91113 6.08862L8.83105 6.09839V5.99683C8.83105 5.91455 8.82227 5.88062 8.78516 5.81934C8.76172 5.77734 8.72949 5.7356 8.71484 5.72754C8.69922 5.71924 8.69434 5.71411 8.7041 5.70679L8.7334 5.69189C8.87402 5.6355 8.95508 5.59033 9.01953 5.53394C9.09961 5.46289 9.11914 5.45654 9.29688 5.45312L9.42383 5.45166L9.41309 5.55957ZM8.12598 5.5C8.33594 5.62744 8.24512 5.95166 8 5.95166C7.92578 5.95166 7.86035 5.9209 7.81641 5.87061C7.7793 5.82837 7.75781 5.77246 7.75781 5.70972C7.75781 5.66675 7.76855 5.62598 7.78809 5.59033C7.80859 5.55396 7.83789 5.52295 7.87402 5.5C7.90625 5.48071 7.95605 5.46777 8 5.46777C8.04395 5.46777 8.09375 5.48071 8.12598 5.5ZM6.97363 6.34766C7.0332 6.35352 7.11719 6.35474 7.26953 6.35474C7.52246 6.35327 7.59473 6.34839 7.61914 6.33057C7.64844 6.30811 7.65137 6.31299 7.67773 6.38867C7.70312 6.46533 7.74512 6.52246 7.80176 6.55981C7.85449 6.59497 7.9209 6.61279 8 6.61279C8.16309 6.61279 8.27246 6.53711 8.32227 6.38867C8.34863 6.31299 8.35156 6.30811 8.38086 6.33057C8.40527 6.34839 8.47754 6.35327 8.73047 6.35474C9.00977 6.35474 9.06152 6.3501 9.14648 6.32251C9.26172 6.28394 9.35645 6.22754 9.4375 6.1499C9.46289 6.12476 9.4834 6.11011 9.50293 6.10352C9.51562 6.09912 9.52734 6.09814 9.54004 6.1001C9.5791 6.10474 9.58887 6.11938 9.62891 6.22754C9.72363 6.48608 9.87793 6.73047 10.0703 6.92896C10.1504 7.01123 10.2363 7.08569 10.3271 7.1499C10.377 7.18701 10.4189 7.22583 10.4189 7.23877C10.4189 7.25171 10.3389 7.7146 10.2422 8.26611C10.1436 8.81763 10.0645 9.28882 10.0645 9.31128C10.0645 9.34351 10.0908 9.38599 10.1299 9.42505C10.1592 9.45459 10.1963 9.48218 10.2354 9.50171C10.2998 9.53223 10.3271 9.5354 10.4453 9.52734L10.5811 9.51929V9.64355C10.5811 9.79199 10.5918 9.80957 10.7334 9.91284L10.8389 9.98706V10.2356V10.4839H8H5.16113V10.2356V9.98706L5.2666 9.91284C5.4082 9.80957 5.41895 9.79199 5.41895 9.64355V9.51929L5.55469 9.52734L5.6416 9.53125C5.69336 9.53101 5.71973 9.52295 5.76465 9.50171C5.79883 9.48511 5.83105 9.46191 5.8584 9.43652C5.9043 9.39478 5.93555 9.34692 5.93555 9.31299C5.93555 9.28882 5.85645 8.81763 5.75781 8.26611C5.66113 7.71289 5.58105 7.25 5.58105 7.23877C5.58105 7.2356 5.58398 7.23071 5.58887 7.22485C5.60254 7.20679 5.63574 7.17773 5.67383 7.1499C6.0166 6.90796 6.25293 6.57593 6.41113 6.11621C6.41895 6.09546 6.4502 6.09131 6.4834 6.1001C6.50684 6.10645 6.53223 6.11963 6.5498 6.13867C6.57227 6.16406 6.60547 6.19141 6.64453 6.21777C6.70801 6.26001 6.78418 6.29907 6.85156 6.32104C6.8916 6.33447 6.92383 6.34277 6.97363 6.34766ZM5.04883 7.61621L5.09863 8.64185C5.14648 9.56299 5.14844 9.6145 5.12305 9.64355C5.08203 9.68701 4.89355 9.78223 4.80176 9.80493C4.78125 9.80981 4.75391 9.81396 4.72363 9.81738C4.64453 9.82617 4.55078 9.8291 4.54199 9.82104L4.54492 9.77319L4.57715 9.40527L4.63867 8.75L4.71875 7.92017L4.74219 7.65161C4.74219 7.62085 4.75781 7.61279 4.86816 7.59204C4.99023 7.56836 5.03027 7.5603 5.04297 7.5752C5.04883 7.58276 5.04883 7.59619 5.04883 7.61621ZM11.1143 7.59033C11.2422 7.6145 11.2578 7.62085 11.2578 7.65161C11.2578 7.66943 11.3047 8.16455 11.3613 8.75L11.4189 9.36597C11.4443 9.63892 11.46 9.81885 11.458 9.82104C11.4531 9.82544 11.4229 9.82666 11.3828 9.8252C11.3232 9.82324 11.2432 9.81543 11.1982 9.80493C11.1064 9.78223 10.918 9.68701 10.877 9.64355C10.8516 9.6145 10.8535 9.56299 10.9014 8.64185L10.9512 7.61621C10.9512 7.58862 10.9561 7.56445 10.9609 7.56445L11.1143 7.59033ZM6.89062 8.14355C6.97266 7.979 7.11816 7.84839 7.2793 7.79834C7.2998 7.79102 7.33887 7.78491 7.38379 7.78101C7.41895 7.77783 7.45703 7.77588 7.49219 7.77588C7.5459 7.77539 7.59863 7.77954 7.64941 7.78833C7.75 7.80615 7.84277 7.84204 7.9209 7.89355L7.97754 7.92725L7.99902 7.93555C8.00879 7.93555 8.04883 7.91455 8.08887 7.88867C8.22168 7.80493 8.36523 7.76929 8.5459 7.77734C8.67969 7.78223 8.71777 7.79028 8.79883 7.83057C8.92285 7.89038 9.0459 8.01294 9.10645 8.13721C9.13379 8.19458 9.14551 8.22241 9.15039 8.28149C9.15332 8.31714 9.15332 8.36401 9.15332 8.43555C9.15332 8.60815 9.14844 8.65161 9.11523 8.74194C8.98633 9.09204 8.62598 9.39185 8.14746 9.54688C8.06738 9.57324 8.02441 9.5835 7.96875 9.57593C7.92871 9.57056 7.88281 9.55566 7.81152 9.53076C7.39355 9.38379 7.08105 9.14185 6.93945 8.85645C6.85645 8.6936 6.83398 8.58228 6.84277 8.38721C6.84766 8.25977 6.85547 8.21777 6.89062 8.14355Z"></path></svg>