<svg xmlns="http://www.w3.org/2000/svg" viewBox="0 0 20 23" height="23" width="20"><title>farm.svg</title><rect fill="none" x="0" y="0" width="20" height="23"></rect><path fill="#5e758d" transform="translate(1 1)" d="M11.1123 15.5334C14.0547 14.3313 16.1289 11.4402 16.1289 8.06445C16.1289 3.6106 12.5186 0 8.06445 0C3.61035 0 0 3.6106 0 8.06445C0 11.4431 2.07812 14.3364 5.02539 15.5366L7.36914 19.5967C7.67969 20.1345 8.45508 20.1345 8.76562 19.5967L11.1123 15.5334ZM7.32031 7.26489C7.39844 7.28784 7.48145 7.30054 7.56738 7.30054C7.64453 7.30054 7.71973 7.29004 7.79199 7.271C7.86719 7.25098 7.93848 7.22119 8.00293 7.18384C8.02637 7.1709 8.05078 7.1814 8.06348 7.20142C8.07422 7.21753 8.07715 7.23975 8.06543 7.2605C7.95898 7.44409 7.77734 7.56396 7.56738 7.56396C7.35645 7.56396 7.17578 7.44409 7.06934 7.2605C7.04199 7.21387 7.08984 7.15723 7.13086 7.18384C7.19043 7.21777 7.25391 7.24512 7.32031 7.26489ZM7.4541 6.18311L7.30078 6.74683C7.26758 6.86353 7.34473 6.98047 7.4541 6.98047H7.68555C7.72656 6.98047 7.76367 6.96313 7.79199 6.93506C7.83594 6.89014 7.8584 6.81836 7.83984 6.74683L7.68555 6.18311C7.66406 6.11914 7.61133 6.08838 7.56152 6.09082C7.51465 6.09302 7.46973 6.12378 7.4541 6.18311ZM6.52344 5.6394C6.50879 5.64941 6.49707 5.65283 6.48145 5.65283C6.45215 5.65283 6.42578 5.63623 6.41113 5.6062C6.39258 5.573 6.39648 5.53223 6.41699 5.50293C6.42383 5.4939 6.43164 5.48584 6.44043 5.47949C6.47461 5.45874 6.72949 5.30542 7.02441 5.36597C7.03516 5.36816 7.04492 5.37256 7.05371 5.37915C7.06348 5.38574 7.07129 5.39404 7.07715 5.40405C7.08301 5.41406 7.08691 5.42505 7.08984 5.43701C7.0918 5.44873 7.0918 5.46094 7.08984 5.47266C7.08594 5.49683 7.0752 5.51685 7.06055 5.53052C7.04297 5.54736 7.01953 5.55493 6.99512 5.54956C6.74609 5.49951 6.52344 5.6394 6.52344 5.6394ZM6.76953 5.82959C6.83984 5.83032 6.9082 5.85181 6.96777 5.8916C7.03809 5.91968 7.09961 5.96729 7.14746 6.03003C7.19629 6.09277 7.22949 6.16846 7.24414 6.25C7.25 6.30005 7.21777 6.34326 7.17285 6.34326H7.14941C7.15332 6.32568 7.15625 6.30811 7.15723 6.29053L7.1582 6.26318C7.16016 6.16772 7.12012 6.08081 7.05664 6.02417C7.00879 5.98193 6.94922 5.9563 6.88477 5.9563C6.73438 5.9563 6.6123 6.09302 6.6123 6.26318C6.6123 6.29028 6.61523 6.31714 6.62109 6.34326H6.49121C6.46387 6.34326 6.44043 6.32983 6.4248 6.30884C6.41895 6.30127 6.41504 6.29297 6.41211 6.28394C6.40527 6.2666 6.40332 6.24683 6.4082 6.22656L6.41992 6.18262L6.41113 6.1731C6.37598 6.13965 6.3623 6.09082 6.36816 6.04492C6.37305 6.0083 6.39062 5.97339 6.41992 5.94971C6.51758 5.87305 6.64746 5.82959 6.76953 5.82959ZM8.37109 5.82959C8.29883 5.82959 8.2334 5.85303 8.17383 5.89111C8.03418 5.94727 7.92773 6.08301 7.89648 6.25C7.89062 6.30005 7.92285 6.34326 7.96777 6.34326H7.99121C7.98047 6.29785 7.97949 6.25 7.9873 6.20386C7.99609 6.15771 8.01367 6.11426 8.03906 6.0769C8.06445 6.03955 8.09668 6.00928 8.13477 5.98853C8.17188 5.96753 8.21289 5.95654 8.25488 5.9563C8.2959 5.9563 8.33398 5.96631 8.36914 5.98413C8.39844 5.99902 8.4248 6.01978 8.44727 6.04468C8.49707 6.1001 8.52832 6.17749 8.52832 6.26318C8.52832 6.28076 8.52734 6.29956 8.52441 6.31689L8.51953 6.34326H8.64941C8.70605 6.34326 8.74414 6.28662 8.73242 6.22656L8.72168 6.18481L8.73242 6.1731C8.79199 6.11304 8.78613 6.00317 8.7207 5.94971C8.62305 5.87305 8.49219 5.82959 8.37109 5.82959ZM7.04199 6.26318C7.04102 6.23438 7.03516 6.20581 7.02246 6.18042C7.00977 6.15503 6.99219 6.1333 6.9707 6.11719C6.94922 6.10107 6.9248 6.09131 6.89941 6.08813C6.87402 6.08521 6.84766 6.08936 6.82422 6.1001L6.83594 6.11841L6.83789 6.12915L6.83984 6.14062C6.83984 6.14819 6.83789 6.15576 6.83496 6.1626L6.83008 6.17041L6.82227 6.18042C6.81738 6.1853 6.81152 6.18872 6.80469 6.19092C6.79883 6.19287 6.79199 6.19336 6.78516 6.19214L6.77637 6.18945L6.7666 6.18408C6.76074 6.17993 6.75586 6.17456 6.75195 6.16821C6.7373 6.19409 6.72852 6.22388 6.72754 6.25464C6.72656 6.2854 6.73242 6.31592 6.74512 6.34326H7.02344L7.03125 6.32373C7.03809 6.30444 7.04199 6.28296 7.04199 6.26318ZM8.19434 6.1001C8.21777 6.08936 8.24414 6.08521 8.26953 6.08813C8.29492 6.09131 8.31934 6.10107 8.34082 6.11719C8.3623 6.1333 8.37988 6.15503 8.39258 6.18042L8.40137 6.20386C8.40723 6.2229 8.41113 6.24292 8.41113 6.26318V6.27734C8.40918 6.30151 8.40332 6.32349 8.39355 6.34326H8.11816C8.10449 6.31958 8.09668 6.29175 8.09766 6.26318C8.09766 6.22852 8.10645 6.1958 8.12207 6.16821C8.12598 6.17456 8.13086 6.17993 8.13672 6.18408C8.1416 6.18823 8.14844 6.19116 8.15527 6.19214C8.16211 6.19336 8.16797 6.19287 8.1748 6.19092C8.18164 6.18872 8.1875 6.1853 8.19238 6.18042C8.19824 6.17554 8.20215 6.16943 8.20508 6.1626L8.20996 6.14062L8.20605 6.11841L8.19434 6.1001ZM11.1465 13L4.29688 12.9897C4.21777 12.9897 4.14258 12.9546 4.08691 12.8918C4.03125 12.8293 4 12.7446 4 12.656V11.4888C3.99902 11.2058 4.02539 10.9243 4.07715 10.6492C4.13477 10.345 4.22461 10.0483 4.34473 9.76587C4.57324 9.22803 4.90625 8.75488 5.32031 8.38184C5.10645 8.12109 4.98633 7.78076 4.98242 7.42627L4.98438 7.32275C4.71484 7.10645 4.51074 6.80298 4.39746 6.45288C4.28516 6.10303 4.27051 5.72266 4.35449 5.36279C4.38965 5.21484 4.44043 5.073 4.50586 4.94043C4.59961 4.75098 4.72266 4.58057 4.87012 4.43799C5.12109 4.19556 5.43164 4.04468 5.76074 4.00586C5.8877 3.81665 6.03613 3.64893 6.20312 3.50732C6.31152 3.41528 6.42773 3.33423 6.5498 3.26538C6.86035 3.09082 7.20312 3 7.55078 3C7.89746 3 8.24023 3.09082 8.55078 3.26538C8.86133 3.43994 9.13184 3.69336 9.33984 4.00586C9.55469 4.02881 9.7627 4.09985 9.95312 4.21411C10.1426 4.32837 10.3105 4.48413 10.4473 4.67188C10.583 4.85986 10.6846 5.07617 10.7461 5.30859C10.7832 5.44897 10.8047 5.59351 10.8115 5.73901C10.8154 5.83447 10.8125 5.93018 10.8037 6.02563C10.9883 6.09546 11.1074 6.29395 11.1074 6.50659C11.1064 6.37915 11.1494 6.25586 11.2256 6.16211C11.3027 6.06812 11.4082 6.01025 11.5215 6.00024C11.7861 5.97998 11.9912 6.21509 12 6.48828V8.86133C12 8.96704 11.9814 9.07153 11.9453 9.16919C11.9102 9.2666 11.8574 9.35547 11.791 9.42993C11.7246 9.50464 11.6455 9.56396 11.5586 9.60425C11.4727 9.64453 11.3789 9.66528 11.2852 9.66528H11.1846V9.92554C11.1846 9.96484 11.1797 10.0042 11.1689 10.0422C11.2559 10.0522 11.3389 10.0835 11.4121 10.1328C11.4629 10.1667 11.5088 10.209 11.5488 10.2588C11.5811 10.2993 11.6084 10.3438 11.6309 10.3909C11.6768 10.4868 11.7012 10.5947 11.7012 10.7053V12.3521C11.7031 12.4705 11.6758 12.5862 11.623 12.6865C11.6006 12.729 11.5732 12.7688 11.543 12.8047C11.4385 12.926 11.2969 12.9963 11.1465 13ZM10.7432 6.36108C10.7178 6.34497 10.6885 6.33374 10.6582 6.33276C10.5781 6.33496 10.5146 6.4082 10.5146 6.5V7.99097C10.5146 8.1709 10.3926 8.32446 10.2324 8.33447C10.208 8.33594 10.1846 8.33398 10.1621 8.3291C10.0752 8.31079 10.0029 8.24902 9.95996 8.16504L9.9541 8.17432C9.93652 8.14111 9.92285 8.104 9.91602 8.06421C9.91309 8.0437 9.91113 8.02246 9.91113 8.00098V6.50659C9.91113 6.44458 9.88281 6.38892 9.83887 6.35815C9.81934 6.34424 9.7959 6.33521 9.77051 6.33325C9.68652 6.33643 9.625 6.40918 9.625 6.5V8.86133C9.625 9.12158 9.81152 9.33179 10.043 9.33179H10.4404V9.92554C10.4404 9.96533 10.4697 9.99878 10.5059 9.99878H10.8223C10.8584 9.99878 10.8877 9.96533 10.8877 9.92554V9.33179H11.2852C11.4336 9.33179 11.5635 9.24536 11.6377 9.11475C11.6787 9.04175 11.7031 8.95483 11.7031 8.86133V6.5C11.7012 6.43018 11.6631 6.37085 11.6094 6.3457C11.5889 6.33594 11.5664 6.3313 11.543 6.33325C11.4629 6.33984 11.4043 6.4165 11.4043 6.50659V7.99097C11.4043 8.1709 11.2822 8.32446 11.1221 8.33447C10.9531 8.34448 10.8105 8.19092 10.8105 8.00098V6.5C10.8086 6.44263 10.7832 6.39111 10.7432 6.36108ZM9.83496 9.63086C9.76074 9.60522 9.68945 9.56567 9.625 9.51343V12.3308H9.80176C9.80664 12.3062 9.81348 12.282 9.82129 12.2585L9.84082 12.2129C9.80859 12.1499 9.79102 12.0784 9.79102 12.0054C9.79102 11.9324 9.80762 11.8608 9.83984 11.7976C9.80762 11.7341 9.79004 11.6619 9.79102 11.5886C9.79102 11.5154 9.80859 11.4434 9.8418 11.3804C9.80957 11.3167 9.79102 11.2419 9.79395 11.1611C9.79883 10.9453 9.95312 10.782 10.1328 10.7612C10.1445 10.7576 10.1572 10.7559 10.1699 10.7559H10.2188V10.1733C10.1973 10.1423 10.1797 10.1074 10.167 10.0706C10.1572 10.0422 10.1504 10.0127 10.1465 9.98267C10.1436 9.96216 10.1416 9.94141 10.1416 9.92041V9.87109C10.1064 9.80078 10.0693 9.73193 10.0303 9.66528C9.96387 9.66406 9.89844 9.65234 9.83496 9.63086ZM11.1084 12.333V11.0896H10.2002L10.1699 11.0928C10.1221 11.0928 10.0908 11.1348 10.0898 11.1704C10.0898 11.187 10.0938 11.2014 10.0996 11.2144C10.1055 11.2271 10.1143 11.238 10.125 11.2463C10.1445 11.262 10.1611 11.283 10.1719 11.3071C10.1836 11.3315 10.1885 11.3586 10.1885 11.386C10.1875 11.4133 10.1816 11.4402 10.1699 11.4641C10.1582 11.488 10.1406 11.5083 10.1201 11.5232C10.0996 11.5378 10.0869 11.5637 10.0869 11.5898C10.0869 11.6028 10.0898 11.6155 10.0947 11.627C10.1006 11.6382 10.1084 11.6479 10.1182 11.6548C10.1387 11.6697 10.1572 11.6902 10.1689 11.7146C10.1816 11.7393 10.1875 11.7668 10.1885 11.7949C10.1885 11.8096 10.1865 11.8242 10.1836 11.8384C10.1807 11.8513 10.1768 11.8638 10.1709 11.8755L10.1533 11.9041C10.1445 11.9167 10.1328 11.9277 10.1201 11.9368C10.0996 11.9514 10.0869 11.9773 10.0869 12.0034C10.0869 12.0164 10.0898 12.0291 10.0947 12.0405C10.1006 12.0518 10.1084 12.0615 10.1182 12.0684C10.1367 12.0818 10.1533 12.1001 10.165 12.1218C10.1777 12.1433 10.1846 12.168 10.1875 12.1934C10.1895 12.2188 10.1865 12.2444 10.1787 12.2683C10.1709 12.2922 10.1582 12.3137 10.1416 12.3313L11.1084 12.333ZM10.8086 10.3391H10.5176V10.7559H10.8086V10.3391ZM8.8916 10.3323C8.95996 10.3323 9.0127 10.2722 9.0127 10.1956V8.46729C9.00879 8.44653 9.00684 8.42554 9.00684 8.40381C8.96094 8.37622 8.91309 8.34985 8.86523 8.32471L8.74121 8.26367V9.69531C8.74121 9.84863 8.58984 9.93555 8.47949 9.84863L7.89551 9.38721L7.73242 9.55054C7.68262 9.59961 7.61914 9.62671 7.55273 9.62671C7.4873 9.62671 7.42383 9.59961 7.37305 9.54956L7.21289 9.38843L6.62988 9.84863C6.51953 9.93555 6.36816 9.84546 6.36816 9.69873V8.26367C6.28027 8.30444 6.19434 8.34985 6.11035 8.39917C6.11035 8.42041 6.1084 8.44141 6.10449 8.46191C6.10156 8.47998 6.09668 8.4978 6.09082 8.51514V10.1956C6.09082 10.2136 6.09375 10.2314 6.09961 10.248C6.10547 10.2646 6.11426 10.2798 6.12598 10.2925C6.13672 10.3052 6.15039 10.3154 6.16504 10.3223C6.17969 10.3291 6.19531 10.3325 6.21191 10.3323H8.8916ZM7.97754 8.45117C7.69727 8.52539 7.40625 8.52271 7.12793 8.44312C7.19434 8.60303 7.35254 8.72461 7.55469 8.72461C7.75098 8.72461 7.90723 8.60767 7.97754 8.45117ZM5.48242 9.11035C5.27441 9.33716 5.09863 9.59717 4.95898 9.88208C4.71777 10.3748 4.59082 10.928 4.59277 11.49V12.323L5.48242 12.3242V9.11035ZM6.37988 11.4397V12.3252L8.72949 12.3293V11.4397C8.72656 11.3496 8.66113 11.2729 8.5791 11.2729H6.52832C6.44531 11.2729 6.37988 11.3462 6.37988 11.4397ZM7.72852 9.10718C7.75781 9.07739 7.78516 9.04541 7.81152 9.01123C7.64355 9.07373 7.46191 9.07324 7.29492 9.01025L7.34766 9.07373L7.37891 9.10718L7.55371 9.28296L7.72852 9.10718ZM6.45898 5.21436C6.42773 5.23608 6.39551 5.25537 6.3623 5.27246L6.32227 5.29346C6.27637 5.32153 6.17285 5.40527 6.16992 5.6272L6.17773 5.82495L6.05566 5.85498C5.97852 5.87402 5.91016 5.92285 5.8623 5.99316C5.82812 6.04297 5.80566 6.10132 5.79688 6.1626C5.79297 6.18774 5.79199 6.21338 5.79297 6.23926C5.79688 6.32788 5.82715 6.41235 5.88086 6.47754C5.91016 6.51318 5.94434 6.54199 5.98242 6.5625C6.01465 6.57983 6.04883 6.59155 6.08398 6.59668L6.20605 6.61475L6.21289 6.7522C6.25879 7.60571 6.8457 8.1709 7.56641 8.1709C8.28809 8.1709 8.87207 7.6062 8.91992 6.75244L8.92773 6.61377L9.05078 6.59766C9.12988 6.5874 9.20312 6.54565 9.25781 6.47974C9.3125 6.41406 9.34375 6.32886 9.34668 6.23926C9.34863 6.19165 9.34277 6.14453 9.3291 6.1001C9.31641 6.06104 9.29883 6.02417 9.27637 5.99097C9.22656 5.92017 9.15723 5.87158 9.0791 5.854L8.95508 5.82544L8.96094 5.68018C8.95801 5.49829 8.90332 5.42969 8.86816 5.40039C8.82422 5.36401 8.77539 5.35913 8.76465 5.35913H8.32422C8.45117 5.3728 8.5752 5.41455 8.6875 5.48267C8.70801 5.49634 8.72168 5.51807 8.72656 5.54199C8.73145 5.56421 8.72949 5.58838 8.71777 5.60938C8.70508 5.63599 8.67871 5.65283 8.64941 5.65283C8.63477 5.65283 8.62207 5.64941 8.60254 5.63647"></path></svg>