<svg xmlns="http://www.w3.org/2000/svg" viewBox="0 0 21 24" height="24" width="21"><title>fast_food.svg</title><rect fill="none" x="0" y="0" width="21" height="24"></rect><path fill="#d97200" transform="translate(2 2)" d="M11.1123 15.5334C14.0547 14.3313 16.1289 11.4402 16.1289 8.06445C16.1289 3.6106 12.5186 0 8.06445 0C3.61035 0 0 3.6106 0 8.06445C0 11.4431 2.07812 14.3364 5.02539 15.5366L7.36914 19.5967C7.67969 20.1345 8.45508 20.1345 8.76562 19.5967L11.1123 15.5334ZM10 6.70581L8.7998 7.94116L7.86328 6.97632C7.76562 6.87573 7.66016 6.7854 7.54785 6.70581H10ZM11.7275 6.49902C11.7402 6.51074 11.7529 6.52295 11.7656 6.5354C11.8398 6.61206 11.8984 6.70239 11.9385 6.80054C11.9785 6.90015 12 7.00781 12 7.11768C12 7.33618 11.916 7.54541 11.7656 7.69995C11.6152 7.85449 11.4121 7.94116 11.2002 7.94116H11.6006V8.76465C11.6006 8.88623 11.583 9.00586 11.5498 9.12012C11.4932 9.31396 11.3906 9.49243 11.249 9.63818C11.0234 9.86987 10.7188 10 10.4004 10H5.60059C5.44043 10 5.2832 9.96704 5.1377 9.90479C4.99512 9.84326 4.86328 9.75317 4.75195 9.63818C4.65137 9.53467 4.57031 9.41455 4.51172 9.28418C4.43848 9.12305 4.40039 8.9458 4.40039 8.76465V7.94116H4.7998C4.58789 7.94116 4.38477 7.85449 4.23438 7.69995C4.16992 7.63403 4.11816 7.55835 4.0791 7.47607C4.02734 7.36523 4 7.24292 4 7.11768C4 7.06274 4.00586 7.00854 4.01562 6.95557C4.02734 6.896 4.0459 6.83813 4.06934 6.78296C4.1084 6.69165 4.16406 6.60742 4.23438 6.5354C4.24609 6.52295 4.25977 6.51074 4.27246 6.49902C4.10059 6.34277 3.99414 6.1084 4.02637 5.83374C4.14355 4.82812 4.64941 4.10156 5.38672 3.63989C6.1084 3.18823 7.03223 3 8 3C8.96777 3 9.8916 3.18823 10.6133 3.63989C11.3506 4.10156 11.8564 4.82812 11.9736 5.83374C12.0059 6.1084 11.8994 6.34277 11.7275 6.49902ZM5.7168 4.35596C5.79199 4.27856 5.89355 4.23535 6 4.23535C6.10645 4.23535 6.20801 4.27856 6.2832 4.35596C6.3584 4.43311 6.40039 4.53784 6.40039 4.64697C6.40039 4.75635 6.3584 4.86108 6.2832 4.93823C6.20801 5.01538 6.10645 5.05884 6 5.05884C5.89355 5.05884 5.79199 5.01538 5.7168 4.93823C5.64258 4.86108 5.59961 4.75635 5.59961 4.64697C5.59961 4.53784 5.64258 4.43311 5.7168 4.35596ZM9.31738 4.35596C9.24219 4.43311 9.2002 4.53784 9.2002 4.64697C9.2002 4.75635 9.24219 4.86108 9.31738 4.93823C9.39258 5.01538 9.49414 5.05884 9.60059 5.05884C9.66211 5.05884 9.72363 5.04395 9.77832 5.01611C9.81738 4.99634 9.85254 4.97021 9.88281 4.93823C9.95801 4.86108 10 4.75635 10 4.64697C10 4.53784 9.95801 4.43311 9.88281 4.35596C9.80859 4.27856 9.70605 4.23535 9.59961 4.23535C9.49414 4.23535 9.39258 4.27856 9.31738 4.35596ZM7.31738 5.17944C7.39258 5.10229 7.49414 5.05884 7.59961 5.05884C7.70605 5.05884 7.80859 5.10229 7.88281 5.17944C7.95801 5.25659 8 5.36133 8 5.4707C8 5.57983 7.95801 5.68457 7.88281 5.76172C7.80859 5.83887 7.70605 5.88232 7.60059 5.88232C7.54688 5.88232 7.49512 5.87134 7.44629 5.85083C7.39844 5.83032 7.35449 5.80029 7.31738 5.76172C7.24219 5.68457 7.2002 5.57983 7.2002 5.4707C7.2002 5.36133 7.24219 5.25659 7.31738 5.17944Z"></path></svg>