<svg xmlns="http://www.w3.org/2000/svg" viewBox="0 0 20 23" height="23" width="20"><title>fire_station.svg</title><rect fill="none" x="0" y="0" width="20" height="23"></rect><path fill="#5e758d" transform="translate(1 1)" d="M11.112 15.5334C14.0551 14.3313 16.129 11.4401 16.129 8.06452C16.129 3.61061 12.5184 0 8.06452 0C3.61061 0 0 3.61061 0 8.06452C0 11.4431 2.07765 14.3365 5.02501 15.5366L7.36915 19.5968C7.67955 20.1344 8.45556 20.1344 8.76596 19.5968L11.112 15.5334ZM11 8.90625C11 10.875 9.657 12 8 12C6.343 12 5 10.875 5 8.90625C5 7.91006 5.375 6.9375 6 6.375C7.25 5.25 7.1785 4.125 7 3C8.5 3.28125 9.5 5.25 9.125 6.65625C9.125 6.65625 9.875 6.375 9.75 5.53125C10.75 6.65625 11 8.0625 11 8.90625ZM6.5 9.89062C6.5 10.875 7.1715 11.4375 8 11.4375C8.8285 11.4375 9.5 10.875 9.5 9.89062C9.5 9.39225 9.3125 8.90625 9 8.625C8.375 8.0625 8.4105 7.5 8.5 6.9375C7.75 7.07812 7.3125 8.20312 7.5 8.90625C7.5 8.90625 7.0625 8.625 7.125 8.20312C6.625 8.76562 6.5 9.46875 6.5 9.89062Z"></path></svg>