<svg xmlns="http://www.w3.org/2000/svg" viewBox="0 0 20 23" height="23" width="20"><title>florist.svg</title><rect fill="none" x="0" y="0" width="20" height="23"></rect><path fill="#5e758d" transform="translate(1 1)" d="M11.1123 15.5334C14.0547 14.3313 16.1289 11.4402 16.1289 8.06445C16.1289 3.6106 12.5186 0 8.06445 0C3.61035 0 0 3.6106 0 8.06445C0 11.4431 2.07812 14.3364 5.02539 15.5366L7.36914 19.5967C7.67969 20.1345 8.45508 20.1345 8.76562 19.5967L11.1123 15.5334ZM6.44629 4.68604C6.77441 3.6731 6.94531 3.36084 7.28711 3.14746C7.61426 2.94946 9.31738 2.94946 9.64453 3.15527C9.97949 3.36084 10.2031 3.77222 10.4932 4.70898C10.835 5.80566 10.8945 6.22461 10.7383 6.38452C10.6562 6.47583 10.6191 6.65112 10.6191 7.0166C10.6191 7.61841 10.5303 7.77832 10.0537 8.06763L9.71191 8.27344L9.95703 8.37988L9.98438 8.3916C10.1455 8.46069 10.2168 8.49121 10.2305 8.53833C10.2354 8.55591 10.2324 8.57568 10.2227 8.60059C10.2119 8.62866 10.1934 8.66333 10.1689 8.70874L10.165 8.71509L10.0762 8.89038L10.0166 8.72266C9.99316 8.65967 9.94824 8.60889 9.89551 8.58032C9.86523 8.56421 9.83301 8.55518 9.80078 8.55518C9.75195 8.55518 9.71875 8.56128 9.69629 8.59644C9.6582 8.65747 9.65234 8.80664 9.65234 9.16455V9.77368H8.46191H7.27246V9.16455C7.27246 8.6084 7.25781 8.55518 7.13086 8.55518C6.9375 8.55518 6.92285 8.59326 6.82617 9.21021C6.78125 9.49194 6.70703 9.75098 6.66992 9.78149C6.625 9.8042 6.53613 10.0784 6.46875 10.3906L6.34277 10.9543L5.86621 10.9771L5.39062 11L5.43555 10.6191C5.50195 10.0403 5.75488 9.51489 6.16406 9.12646C6.25195 9.03955 6.33984 8.96069 6.41309 8.90039C6.50098 8.82861 6.56738 8.78369 6.58789 8.78369C6.625 8.78369 6.67773 8.71509 6.69922 8.63135C6.72168 8.55518 6.84082 8.44092 6.97461 8.3877L7.2207 8.28857L6.84863 8.05249C6.55859 7.86963 6.4248 7.71729 6.26855 7.38232C6.0752 6.98608 6.06738 6.89478 6.09766 6.2854C6.12695 5.78271 6.20898 5.39429 6.44629 4.68604ZM9.74902 5.16602C9.41406 5.31055 9.27344 5.30298 9.22852 5.1355C9.19141 4.97559 9.05762 4.90698 9.05762 5.04395C9.05762 5.08203 9.00488 5.17358 8.93848 5.23438C8.78223 5.39429 7.74805 5.4021 7.36914 5.24219C7.22754 5.18115 7.09375 5.12793 7.0791 5.12793C7.04688 5.12793 7.04297 5.43604 7.0625 5.78662C7.0752 6.00049 7.0957 6.23022 7.12402 6.41504C7.16797 6.72632 7.25879 6.98462 7.4082 7.20801C7.53613 7.3999 7.70703 7.56592 7.92676 7.71729C8.35059 8.00684 8.56641 8.00684 9.00488 7.7251C9.62207 7.32129 9.875 6.69678 9.875 5.55444C9.875 5.16602 9.86035 5.12012 9.74902 5.16602ZM8.81934 8.06763C8.72266 8.10571 8.56641 8.12866 8.46191 8.12866C8.3584 8.12866 8.20215 8.10571 8.1123 8.06763C8.02832 8.04199 7.98535 8.03564 7.96289 8.06201C7.94531 8.08252 7.94141 8.12305 7.94141 8.1897C7.94141 8.29126 7.91504 8.37671 7.86816 8.43945C7.8125 8.51294 7.72949 8.55518 7.62891 8.55518C7.56445 8.55518 7.52832 8.57886 7.51074 8.65576C7.5 8.70215 7.49512 8.76807 7.49512 8.85986C7.49512 9.1416 7.51074 9.16455 7.77832 9.23291C8.14258 9.3396 8.87891 9.33203 9.20605 9.21777C9.43652 9.13403 9.4668 9.09595 9.4668 8.85986C9.4668 8.6543 9.42871 8.58569 9.31738 8.57031C9.09473 8.52466 8.9834 8.40283 8.9834 8.19727C8.9834 8.03735 8.96094 8.02197 8.81934 8.06763ZM4.06934 7.31519C4 7.18604 4 7.01953 4 6.54468C4 6.14087 4.02246 5.81348 4.05176 5.81348C4.08203 5.81348 4.17871 5.88965 4.27539 5.98096L4.44629 6.14087L4.63184 5.96582L4.81836 5.79053L5.00391 5.96582L5.19043 6.14087L5.36816 5.97339C5.47266 5.87451 5.58398 5.82104 5.62891 5.85156C5.67383 5.87451 5.71094 6.14868 5.71094 6.48364C5.71094 7.18433 5.56152 7.55005 5.21191 7.71753C4.97461 7.83179 4.9668 7.83936 4.97461 8.3269V8.82202L5.07812 8.54761C5.18262 8.2583 5.49512 7.71753 5.56152 7.71753C5.58398 7.71753 5.58398 7.96899 5.55469 8.26587C5.49512 8.86011 5.33887 9.3855 5.13086 9.69775C5.05566 9.81201 4.98926 10.1016 4.9668 10.4138C4.92188 11.061 4.74414 11.2209 4.74414 10.6194C4.74414 10.3376 4.69141 10.1624 4.55762 9.95679C4.33496 9.61401 4.1709 9.09619 4.10449 8.4563C4.05176 8.00708 4.05957 7.9917 4.18555 8.09839C4.22461 8.12964 4.28418 8.21313 4.34863 8.32129C4.40918 8.42334 4.47363 8.54736 4.52832 8.66968L4.73633 9.12646L4.74414 8.4563C4.74414 7.90039 4.72168 7.7937 4.625 7.7937C4.55762 7.7937 4.39453 7.67944 4.25293 7.53467C4.2041 7.48462 4.16406 7.44409 4.13184 7.40625C4.10645 7.37549 4.08594 7.34644 4.06934 7.31519ZM11.7803 6.8186C11.8916 7.4812 11.6533 7.91528 11.0957 8.06006C10.9795 8.08838 10.8994 8.1123 10.8418 8.14282C10.7432 8.19434 10.709 8.26392 10.6719 8.40283C10.5752 8.78369 10.6943 8.82935 11.1631 8.60083C11.6309 8.37988 11.8467 8.12866 11.958 7.70972C12.0049 7.53516 12.0107 7.31323 11.9854 7.11377C11.9619 6.92993 11.9111 6.76514 11.8398 6.67383C11.7432 6.552 11.7354 6.56738 11.7803 6.8186ZM10.5967 10.2688C10.6045 9.89575 10.6562 9.49194 10.7012 9.37769C10.7461 9.26343 10.8047 9.16455 10.835 9.16455C10.9277 9.16455 11.0957 9.44751 11.2412 9.78711C11.3857 10.1257 11.5078 10.5208 11.5117 10.7488V11L11.0508 10.9771L10.582 10.9543L10.5967 10.2688ZM6.64746 10.2842C6.625 10.4441 6.58105 10.6497 6.55859 10.741L6.51367 10.9163H8.24707H9.9873L9.96484 10.4592L9.93457 10.0022H8.31348H6.69922L6.64746 10.2842Z"></path></svg>