<svg xmlns="http://www.w3.org/2000/svg" viewBox="0 0 21 24" height="24" width="21"><title>frozen_food.svg</title><rect fill="none" x="0" y="0" width="21" height="24"></rect><path fill="#d97200" transform="translate(2 2)" d="M11.1123 15.5334C14.0547 14.3313 16.1289 11.4402 16.1289 8.06445C16.1289 3.6106 12.5186 0 8.06445 0C3.61035 0 0 3.6106 0 8.06445C0 11.4431 2.07812 14.3364 5.02539 15.5366L7.36914 19.5967C7.67969 20.1345 8.45508 20.1345 8.76562 19.5967L11.1123 15.5334ZM11.5332 4.00586C11.625 4.0437 11.708 4.09961 11.7783 4.16968C11.8193 4.21118 11.8564 4.25732 11.8867 4.30688C11.9082 4.34131 11.9268 4.37769 11.9424 4.41553C11.9805 4.50732 12 4.60596 12 4.70532C12 4.80469 11.9805 4.90332 11.9424 4.99512C11.9277 5.03149 11.9092 5.06665 11.8887 5.10034C11.8574 5.15137 11.8203 5.19849 11.7783 5.24097C11.6035 5.41577 11.4111 5.46509 11.2275 5.46509C10.9883 5.46509 10.7627 5.38184 10.6064 5.38184L10.5635 5.38428L10.5557 5.38403C10.4873 5.38403 10.3916 5.42993 10.2832 5.50073C10.2168 5.54443 10.1455 5.5979 10.0742 5.65601C10.5596 6.20337 10.9131 6.7522 10.8486 7.0166C10.834 7.07959 10.7686 7.18579 10.667 7.32056C10.6094 7.39624 10.541 7.4812 10.4639 7.57251L7.02246 4.8938C7.45703 4.49268 7.83594 4.18604 7.9834 4.15039C8.24219 4.0874 8.77246 4.42529 9.30859 4.89526C9.46973 4.70703 9.60449 4.52637 9.61523 4.43579C9.625 4.35864 9.60547 4.25952 9.58301 4.14722C9.52832 3.87329 9.45898 3.52173 9.75879 3.22144C9.87793 3.10181 10.0352 3.02588 10.2031 3.00537C10.2754 2.99658 10.3477 2.99829 10.4189 3.01025C10.5127 3.02588 10.6035 3.05933 10.6855 3.10938C10.8311 3.19702 10.9424 3.33081 11.002 3.48926C11.0439 3.59985 11.0586 3.71826 11.0469 3.83472C11.042 3.88477 11.0322 3.93457 11.0166 3.98315C11.0908 3.95996 11.167 3.94849 11.2432 3.94849C11.3428 3.94849 11.4414 3.96777 11.5332 4.00586ZM7.98242 4.42261L7.84863 4.55591L7.98242 4.68945L8.11523 4.55591L7.98242 4.42261ZM8.00977 5.27222L8.14355 5.40576L8.27637 5.27222L8.14355 5.13892L8.00977 5.27222ZM8.11523 4.7561L8.31543 4.95605L8.51562 4.7561L8.31543 4.55591L8.11523 4.7561ZM8.61523 5.37427L8.74902 5.50757L8.88184 5.37427L8.74902 5.24097L8.61523 5.37427ZM11.2275 5.19849C11.377 5.19849 11.4883 5.15332 11.5898 5.05249C11.6816 4.96021 11.7334 4.83545 11.7334 4.70532C11.7334 4.5752 11.6816 4.45044 11.5898 4.3584C11.4971 4.26611 11.374 4.21509 11.2432 4.21509C11.1934 4.21533 11.1445 4.22266 11.0967 4.23755C11.0498 4.2522 11.001 4.25366 10.9531 4.24219C10.9062 4.23047 10.8633 4.2063 10.8281 4.17188C10.7939 4.13745 10.7695 4.09424 10.7578 4.04688C10.7461 3.99976 10.748 3.9502 10.7627 3.90381C10.8164 3.72876 10.7705 3.53955 10.6416 3.41016C10.5957 3.3645 10.542 3.32812 10.4824 3.30347C10.4229 3.27881 10.3584 3.26611 10.2939 3.26611C10.2295 3.26611 10.166 3.27881 10.1064 3.30347C10.0469 3.32812 9.99219 3.36426 9.94727 3.41016C9.88281 3.47461 9.84375 3.5415 9.82227 3.61353C9.7832 3.74902 9.80566 3.90356 9.84375 4.09497C9.87012 4.22559 9.89453 4.34863 9.87988 4.46826C9.87207 4.53564 9.83398 4.62256 9.76758 4.72827C9.70605 4.82764 9.61914 4.9436 9.50781 5.07544C9.63867 5.19897 9.76758 5.32642 9.8916 5.45752C10.1377 5.2605 10.375 5.11914 10.5527 5.11768L10.6064 5.11548C10.7021 5.11548 10.8008 5.13477 10.9043 5.15527C10.9551 5.16553 11.0068 5.17578 11.0586 5.18359C11.1152 5.19238 11.1719 5.19849 11.2275 5.19849ZM5.89551 8.30859C5.42578 7.77271 5.08789 7.2417 5.15137 6.98267C5.17773 6.86987 5.36523 6.62036 5.63184 6.31445L8.68555 9.36768C8.37988 9.63428 8.12988 9.82178 8.0166 9.84912C7.75293 9.91309 7.2041 9.55981 6.65625 9.07397C6.50098 9.26636 6.37891 9.45435 6.38477 9.56372C6.35254 9.82959 6.66504 10.355 6.24121 10.7783C6.1709 10.8486 6.08789 10.9045 5.99609 10.9426C5.9043 10.9805 5.80566 11 5.70605 11C5.60645 11 5.50781 10.9805 5.41602 10.9426C5.32422 10.9045 5.24023 10.8486 5.16992 10.7783C5.07227 10.6804 5.00391 10.5579 4.9707 10.4236C4.9375 10.2893 4.94238 10.1487 4.9834 10.0168C4.82227 10.0674 4.64746 10.0625 4.48926 10.0024C4.33105 9.94263 4.19727 9.8313 4.10938 9.68628C4.02148 9.5415 3.98535 9.37134 4.00586 9.20312C4.02637 9.03491 4.10254 8.87842 4.22168 8.75879C4.39648 8.58374 4.58887 8.53442 4.77246 8.53442C4.9043 8.53442 5.0332 8.56006 5.14746 8.58276C5.24023 8.60107 5.32324 8.61768 5.39355 8.61768L5.43652 8.61499C5.52637 8.604 5.70801 8.46948 5.89551 8.30859ZM6.24805 9.19067C6.30469 9.09473 6.37598 8.9939 6.45801 8.8916C6.32715 8.76733 6.19922 8.63916 6.0752 8.50708C5.80371 8.7373 5.59961 8.86377 5.46875 8.87964L5.43457 8.88257L5.39258 8.88403C5.29688 8.88403 5.19922 8.8645 5.09473 8.84399C4.98926 8.823 4.87891 8.80103 4.77246 8.80103C4.62305 8.80103 4.51172 8.84619 4.41016 8.94702C4.31738 9.04004 4.2666 9.16333 4.2666 9.29419C4.2666 9.42505 4.31738 9.54834 4.41016 9.64136C4.43555 9.66675 4.46387 9.68921 4.49414 9.7085C4.51758 9.72363 4.54297 9.73682 4.56934 9.74756C4.62891 9.77197 4.69238 9.78467 4.75684 9.78442C4.80664 9.78442 4.85645 9.7771 4.9043 9.76221C4.9502 9.74756 5 9.74609 5.04688 9.75781C5.09473 9.76953 5.1377 9.79395 5.17188 9.82837C5.20605 9.86279 5.23047 9.90576 5.24219 9.95312C5.25391 10.0002 5.25293 10.0498 5.23828 10.0962C5.21484 10.1697 5.20898 10.2476 5.22168 10.3235C5.23438 10.3994 5.26465 10.4712 5.31055 10.5334C5.35645 10.5955 5.41602 10.6458 5.48438 10.6807C5.51562 10.6963 5.54785 10.7085 5.58105 10.7173C5.62207 10.7278 5.66406 10.7334 5.70605 10.7334C5.74902 10.7334 5.79102 10.7278 5.83301 10.7168C5.85352 10.7114 5.87402 10.7046 5.89355 10.6963C5.95312 10.6716 6.00781 10.6353 6.05273 10.5896C6.23828 10.4043 6.21387 10.1978 6.15527 9.9043C6.13086 9.78052 6.10742 9.66309 6.11816 9.54907C6.12109 9.44556 6.16992 9.323 6.24805 9.19067ZM6.25977 7.30664L6.12598 7.17334L5.99316 7.30664L6.12598 7.43994L6.25977 7.30664ZM5.68164 7.25635L5.81543 7.12329L5.68164 6.98999L5.54883 7.12329L5.68164 7.25635ZM8.88867 9.18628L5.7373 6.19458C6.0459 5.85034 6.43457 5.4519 6.80469 5.09814L10.3555 7.69897C10.083 8.01147 9.72949 8.38086 9.37695 8.72485C9.21094 8.88721 9.04492 9.04395 8.88867 9.18628ZM6.53613 6.00244L6.66895 6.13574L6.80273 6.00244L6.66895 5.86914L6.53613 6.00244ZM7.46875 6.88745L7.60254 6.75415L7.46875 6.62085L7.33594 6.75415L7.46875 6.88745ZM7.33594 6.5542L7.13574 6.35425L6.93555 6.5542L7.13574 6.75415L7.33594 6.5542Z"></path></svg>