<svg xmlns="http://www.w3.org/2000/svg" viewBox="0 0 21 24" height="24" width="21"><title>fuel.svg</title><rect fill="none" x="0" y="0" width="21" height="24"></rect><path fill="#4898ff" transform="translate(2 2)" d="M11.1123 15.5334C14.0547 14.3313 16.1289 11.4402 16.1289 8.06445C16.1289 3.6106 12.5186 0 8.06445 0C3.61035 0 0 3.6106 0 8.06445C0 11.4431 2.07812 14.3364 5.02539 15.5366L7.36914 19.5967C7.67969 20.1345 8.45508 20.1345 8.76562 19.5967L11.1123 15.5334ZM4.25 10H9.25C9.3877 10 9.5 10.1125 9.5 10.25V10.75C9.5 10.8875 9.3877 11 9.25 11H4.25C4.1123 11 4 10.8875 4 10.75V10.25C4 10.1125 4.1123 10 4.25 10ZM10.4404 3.41089L11.7061 4.67651C11.8936 4.86401 12 5.11865 12 5.38428V8.875C12 9.53442 11.4297 10.0625 10.7578 9.99536C10.1719 9.93433 9.75 9.39844 9.75 8.80933V8.375C9.75 8.02979 9.4707 7.75 9.125 7.75H9V9.5H4.5V4C4.5 3.44849 4.94824 3 5.5 3H8C8.55176 3 9 3.44849 9 4V7H9.125C9.88477 7 10.5 7.61572 10.5 8.375V8.875C10.5 9.0813 10.6689 9.25 10.875 9.25C11.0811 9.25 11.25 9.0813 11.25 8.875V6.36255C10.8262 6.30151 10.5 5.93896 10.5 5.5V4.52979L9.91113 3.94067C9.81445 3.84375 9.81445 3.68433 9.91113 3.5874L10.0879 3.41089C10.1846 3.31396 10.3438 3.31396 10.4404 3.41089ZM5.5 6H8V4H5.5V6Z"></path></svg>