<svg xmlns="http://www.w3.org/2000/svg" viewBox="0 0 20 23" height="23" width="20"><title>furniture.svg</title><rect fill="none" x="0" y="0" width="20" height="23"></rect><path fill="#5e758d" transform="translate(1 1)" d="M11.112 15.5334C14.0551 14.3313 16.129 11.4401 16.129 8.06452C16.129 3.61061 12.5184 0 8.06452 0C3.61061 0 0 3.61061 0 8.06452C0 11.4431 2.07765 14.3365 5.02501 15.5366L7.36915 19.5968C7.67955 20.1344 8.45556 20.1344 8.76596 19.5968L11.112 15.5334ZM4.41883 4H11.5812C11.8117 4 12 4.25879 12 4.51469C12 4.7706 11.8117 5.02918 11.5812 5.02918H11.4902V6.05856H4.52V5.02918H4.41883C4.1885 5.02918 4 4.7706 4 4.51469C4 4.25879 4.1885 4 4.41883 4ZM7.79067 5.2822C7.79067 5.42899 7.88433 5.54819 8 5.54819C8.11583 5.54819 8.20933 5.42899 8.20933 5.2822C8.20933 5.13541 8.11583 5.01621 8 5.01621C7.88433 5.01621 7.79067 5.13541 7.79067 5.2822ZM11.4902 8.11711H4.52V6.47052H11.4902V8.11711ZM8.20933 7.27652C8.20933 7.12973 8.11583 7.01074 8 7.01074C7.88433 7.01074 7.7905 7.12973 7.79067 7.27652C7.79067 7.42352 7.88433 7.54251 8 7.54251C8.11583 7.54251 8.20933 7.42352 8.20933 7.27652ZM4.52 10.734V9.53704V8.52928H11.49V10.734C11.49 10.8802 11.4648 11 11.35 11H10.5125C10.3975 11 10.3555 10.8802 10.3555 10.734V9.97021H5.65467V10.734C5.65467 10.8802 5.6025 11 5.48733 11H4.65C4.53483 11 4.52 10.8802 4.52 10.734ZM8.20933 9.27105C8.20933 9.12447 8.11583 9.00527 8 9.00527C7.88433 9.00527 7.7905 9.12467 7.79067 9.27105C7.79067 9.41825 7.88433 9.53684 8 9.53684C8.11583 9.53684 8.20933 9.41825 8.20933 9.27105Z"></path></svg>