<svg xmlns="http://www.w3.org/2000/svg" viewBox="0 0 21 24" height="24" width="21"><title>garden_centre.svg</title><rect fill="none" x="0" y="0" width="21" height="24"></rect><path fill="#598017" transform="translate(2 2)" d="M11.1123 15.5334C14.0547 14.3313 16.1289 11.4402 16.1289 8.06445C16.1289 3.6106 12.5186 0 8.06445 0C3.61035 0 0 3.6106 0 8.06445C0 11.4431 2.07812 14.3364 5.02539 15.5366L7.36914 19.5967C7.67969 20.1345 8.45508 20.1345 8.76562 19.5967L11.1123 15.5334ZM6.41797 4.18579V11H4V4.18579L5.20898 3L6.41797 4.18579ZM9.20898 4.18579V11H6.79102V4.18579L8 3L9.20898 4.18579ZM12 4.18579V11H9.58203V4.18579L10.791 3L12 4.18579Z"></path></svg>