<svg xmlns="http://www.w3.org/2000/svg" viewBox="0 0 20 23" height="23" width="20"><title>gate.svg</title><rect fill="none" x="0" y="0" width="20" height="23"></rect><path fill="#5e758d" transform="translate(1 1)" d="M11.1123 15.5334C14.0547 14.3313 16.1289 11.4402 16.1289 8.06445C16.1289 3.6106 12.5186 0 8.06445 0C3.61035 0 0 3.6106 0 8.06445C0 11.4431 2.07812 14.3364 5.02539 15.5366L7.36914 19.5967C7.67969 20.1345 8.45508 20.1345 8.76562 19.5967L11.1123 15.5334ZM6.73633 4.16724C6.90137 4.08618 7.06152 4.02856 7.20117 4L7.22559 9.93994L5.32031 10.6235L5.3125 7.95361L5.32422 5.65894C5.38184 5.44531 5.51953 5.21021 5.7041 4.98608C5.82715 4.83667 5.97168 4.69238 6.12695 4.5625C6.32031 4.4021 6.53223 4.26709 6.73633 4.16724ZM9.77246 9.93994L9.79688 4C10.1094 4.06396 10.5205 4.27197 10.8711 4.5625C11.2627 4.88696 11.5791 5.30273 11.6738 5.65894L11.6865 7.96387L11.6777 10.6235L9.77246 9.93994ZM4.16504 4.77515C4.16504 4.63257 4.2998 4.52026 4.46973 4.52026C4.5752 4.52026 4.66602 4.56323 4.7207 4.62964C4.75391 4.67065 4.77344 4.7207 4.77344 4.77515C4.77344 4.91772 4.63965 5.02954 4.46973 5.02954C4.2998 5.02954 4.16504 4.91772 4.16504 4.77515ZM12.2256 4.77515C12.2256 4.63257 12.3594 4.52026 12.5293 4.52026C12.7002 4.52026 12.834 4.63257 12.834 4.77515C12.834 4.91772 12.7002 5.02954 12.5293 5.02954C12.3594 5.02954 12.2256 4.91772 12.2256 4.77515ZM4 11L4.02832 5.33496H4.96094L4.93262 11H4ZM12.0674 11L12.0371 5.33496H12.9697L13 11H12.0674ZM6.90137 6.83252H6.53711V7.64673H6.90137V6.83252ZM10.4619 6.83252H10.0967V7.64673H10.4619V6.83252Z"></path></svg>