<svg xmlns="http://www.w3.org/2000/svg" viewBox="0 0 20 23" height="23" width="20"><title>general.svg</title><rect fill="none" x="0" y="0" width="20" height="23"></rect><path fill="#5e758d" transform="translate(1 1)" d="M11.1123 15.5334C14.0547 14.3313 16.1289 11.4402 16.1289 8.06445C16.1289 3.6106 12.5186 0 8.06445 0C3.61035 0 0 3.6106 0 8.06445C0 11.4431 2.07812 14.3364 5.02539 15.5366L7.36914 19.5967C7.67969 20.1345 8.45508 20.1345 8.76562 19.5967L11.1123 15.5334ZM4 6.15332L8.08984 3L12 6.15332H11.2002V10H6.87988V7.3772H5.59961V10H4.95996V6.15332H4ZM7.67969 8.95093H10.7197V7.3772H7.67969V8.95093ZM5.44043 6.85278H10.7197V5.45386H5.44043V6.85278ZM10.4004 6.50293V5.80347H5.75977V6.50293H10.4004ZM5.59961 5.62866H10.5596V6.67773H5.59961V5.62866Z"></path></svg>