<svg xmlns="http://www.w3.org/2000/svg" viewBox="0 0 21 24" height="24" width="21"><title>gift.svg</title><rect fill="none" x="0" y="0" width="21" height="24"></rect><path fill="#5e758d" transform="translate(2 2)" d="M11.1123 15.5334C14.0547 14.3313 16.1289 11.4402 16.1289 8.06445C16.1289 3.6106 12.5186 0 8.06445 0C3.61035 0 0 3.6106 0 8.06445C0 11.4431 2.07812 14.3364 5.02539 15.5366L7.36914 19.5967C7.67969 20.1345 8.45508 20.1345 8.76562 19.5967L11.1123 15.5334ZM5.87988 4.62231C5.57422 3.72144 6.24316 2.99609 6.93066 3C7.24707 3.00391 7.56348 3.15942 7.79297 3.51416L8 3.8252L8.20703 3.52222C8.94531 2.39819 10.5459 3.31885 10.1201 4.62231H11.2725C11.4658 4.62231 11.6504 4.7063 11.7871 4.85571C11.9238 5.00537 12 5.20801 12 5.41943V6.2168C12 6.32251 11.9619 6.42383 11.8936 6.49854C11.8252 6.57324 11.7324 6.61523 11.6367 6.61523H8.36328V5.41943H7.63672V6.61523H4.36328C4.26758 6.61523 4.1748 6.57324 4.10645 6.49854C4.03809 6.42383 4 6.32251 4 6.2168V5.41943C4 5.20801 4.07617 5.00537 4.21289 4.85571C4.34961 4.7063 4.53418 4.62231 4.72754 4.62231H5.87988ZM7.16699 4.50684C7.39648 4.25562 7.23242 3.8252 6.90918 3.8252C6.8125 3.8252 6.71973 3.86719 6.65234 3.94189C6.58398 4.0166 6.5459 4.11792 6.5459 4.22363C6.5459 4.57837 6.93848 4.75781 7.16699 4.50684ZM9.34863 4.50684C9.57812 4.25562 9.41406 3.8252 9.09082 3.8252C8.99414 3.8252 8.90234 3.86719 8.83398 3.94189C8.76562 4.0166 8.72754 4.11792 8.72754 4.22363C8.72754 4.57837 9.12012 4.75781 9.34863 4.50684ZM4.36328 10.2029V7.01392H7.63672V10.2029H8.36328V7.01392H11.6367V10.2029C11.6367 10.4143 11.5596 10.6169 11.4238 10.7666C11.2871 10.916 11.1016 11 10.9092 11H5.09082C4.89844 11 4.71289 10.916 4.57617 10.7666C4.44043 10.6169 4.36328 10.4143 4.36328 10.2029Z"></path></svg>