<svg xmlns="http://www.w3.org/2000/svg" viewBox="0 0 20 23" height="23" width="20"><title>golf.svg</title><rect fill="none" x="0" y="0" width="20" height="23"></rect><path fill="#5e758d" transform="translate(1 1)" d="M11.1123 15.5334C14.0547 14.3313 16.1289 11.4402 16.1289 8.06445C16.1289 3.6106 12.5186 0 8.06445 0C3.61035 0 0 3.6106 0 8.06445C0 11.4431 2.07812 14.3364 5.02539 15.5366L7.36914 19.5967C7.67969 20.1345 8.45508 20.1345 8.76562 19.5967L11.1123 15.5334ZM5.35547 3.68286C5.18652 3.34619 5.13672 3.20312 5.15137 3.14307C5.18848 3.01172 5.22656 2.98682 5.39551 3.00562C5.58887 3.02441 5.63281 3.09302 6.78223 5.16357C7.43164 6.34595 7.98145 7.30933 8 7.30933C8.00977 7.30933 8.17676 7.02466 8.43164 6.57495C8.64551 6.19727 8.9209 5.70312 9.21777 5.16357C10.3672 3.09302 10.4111 3.02441 10.6045 3.00562C10.7734 2.98682 10.8115 3.01172 10.8486 3.14307C10.8799 3.26831 10.6299 3.7561 9.59961 5.60791L8.3125 7.91602L8.78711 8.76685L9.25586 9.62378L9.42383 9.49878C9.66797 9.32349 10.9678 8.87305 11.2363 8.87305C11.4922 8.87305 11.8359 9.07959 11.9297 9.29858C12.0068 9.46655 12.0176 9.81958 11.9756 10.1277C11.9541 10.29 11.917 10.4399 11.8672 10.5435C11.667 10.9563 11.5293 11 10.4805 11C10.0811 11 9.85254 10.9971 9.70605 10.9807C9.55469 10.9636 9.49121 10.9321 9.41797 10.875C9.33105 10.7998 8.9873 10.2556 8.64941 9.65503C8.55078 9.47681 8.45605 9.30786 8.37012 9.15845C8.16797 8.80469 8.01758 8.5603 8 8.5603C7.97461 8.5603 7.68164 9.05444 7.35059 9.65503C7.0127 10.2556 6.66895 10.7998 6.58203 10.875C6.49023 10.9468 6.41309 10.978 6.1582 10.991C6.01465 10.9983 5.81348 11 5.51953 11C4.4707 11 4.33301 10.9563 4.13281 10.5435C4.03906 10.3472 3.99023 9.98462 4.00098 9.68579C4.00684 9.52759 4.0293 9.38721 4.07031 9.29858C4.16406 9.07959 4.50781 8.87305 4.76367 8.87305C5.03223 8.87305 6.33203 9.32349 6.57617 9.49878L6.74414 9.62378L7.21289 8.76685L7.6875 7.91602L6.40039 5.60791C5.86328 4.64331 5.53906 4.04883 5.35547 3.68286Z"></path></svg>