<svg xmlns="http://www.w3.org/2000/svg" viewBox="0 0 21 24" height="24" width="21"><title>greengrocer.svg</title><rect fill="none" x="0" y="0" width="21" height="24"></rect><path fill="#5e758d" transform="translate(2 2)" d="M11.1123 15.5334C14.0547 14.3313 16.1289 11.4402 16.1289 8.06445C16.1289 3.6106 12.5186 0 8.06445 0C3.61035 0 0 3.6106 0 8.06445C0 11.4431 2.07812 14.3364 5.02539 15.5366L7.36914 19.5967C7.67969 20.1345 8.45508 20.1345 8.76562 19.5967L11.1123 15.5334ZM6.93555 3.52686V4.75122C7.09766 4.72656 7.29395 4.67212 7.56348 4.55151C7.83398 4.43066 8.06738 4.40942 8.28418 4.46948C8.46191 4.5188 8.62891 4.6228 8.79492 4.77173C8.9502 4.9104 9.06738 5.05127 9.15527 5.18896C9.16699 5.20703 9.17773 5.2251 9.18848 5.24292C9.22168 4.90649 9.33789 4.57324 9.51953 4.27905C9.79785 3.82739 10.2432 3.45044 10.8105 3.30029L11.0586 3.23486L11.0996 3.46436C11.2002 4.01611 11.0361 4.57593 10.749 5.0188C10.8447 5.02441 10.9395 5.04175 11.0303 5.07129C11.2861 5.15405 11.4951 5.32495 11.6113 5.54663C11.7275 5.76807 11.7412 6.02222 11.6494 6.25269L11.6367 6.27881L11.6201 6.30273C11.8066 6.44678 11.9287 6.64624 11.9658 6.86475C12.002 7.08301 11.9512 7.30615 11.8213 7.49341C11.7988 7.52588 11.7744 7.55713 11.7471 7.58667C11.6982 7.64087 11.6416 7.68994 11.5801 7.73291C11.6006 7.9165 11.5596 8.10132 11.4619 8.26367C11.5889 8.32544 11.7002 8.41064 11.7881 8.51392C11.876 8.61694 11.9385 8.73584 11.9727 8.8623C11.9863 8.9126 11.9941 8.96387 11.998 9.01538C12.001 9.06348 12 9.11206 11.9961 9.16016C11.9932 9.1897 11.9883 9.21899 11.9824 9.24805C11.9551 9.37573 11.8984 9.49707 11.8164 9.60376C11.7646 9.6709 11.7031 9.7312 11.6348 9.78369C11.5938 9.8147 11.5498 9.84277 11.5039 9.86768C11.3799 9.93457 11.2422 9.97754 11.0986 9.99316C10.9551 10.009 10.8096 9.99731 10.6719 9.95898C10.5342 9.92041 10.4062 9.85645 10.2979 9.77051C10.125 9.89868 9.90918 9.97192 9.68555 9.97949C9.56348 9.9834 9.44238 9.96777 9.32812 9.93408C9.23242 9.90576 9.1416 9.86475 9.05762 9.81177C8.97363 9.75903 8.90039 9.6958 8.83887 9.62427C8.76465 9.53857 8.70703 9.44116 8.66992 9.33643C8.62988 9.2229 8.61523 9.10425 8.625 8.98706C8.63184 8.90552 8.65039 8.82471 8.68164 8.74658C8.53516 8.7395 8.39453 8.70435 8.2666 8.64502C8.20215 8.69897 8.13379 8.74487 8.06348 8.77954C7.99219 8.81445 7.91797 8.83789 7.84082 8.84644C7.79199 8.85205 7.74219 8.85156 7.69141 8.84399C7.39355 8.79956 7.19531 8.77295 7.05762 8.75708C6.85352 8.73364 6.78027 8.73364 6.70703 8.73364H6.60059C6.51562 8.73364 6.43066 8.73364 6.12891 8.77417C6.00977 8.79028 5.85547 8.81274 5.6543 8.84399C5.08691 8.93164 4.63184 8.07349 4.40527 7.63354C4.21094 7.25537 4.10156 6.8728 4.04688 6.54395L4.03809 6.48535C4.00781 6.29004 3.99805 6.11597 4 5.97583L4.00488 5.87207C4.04883 5.56592 4.17773 5.16089 4.5957 4.77173C4.72363 4.65259 4.85059 4.56201 4.98438 4.50537C4.7627 4.34155 4.57031 4.14429 4.42578 3.92139C4.28906 3.71167 4.19531 3.47925 4.16113 3.23071L4.12891 3.00024H4.38672C5.03418 3.00024 5.64355 3.26245 6.08887 3.61035C6.2334 3.7229 6.36426 3.84912 6.47949 3.98633V3.52686L6.48242 3.4917C6.48633 3.4707 6.49414 3.45068 6.50586 3.43188C6.5166 3.41357 6.53027 3.39648 6.54688 3.38159C6.58887 3.34302 6.64746 3.32153 6.70801 3.32153C6.76855 3.32153 6.82617 3.34302 6.86914 3.38159C6.91211 3.42017 6.93555 3.47241 6.93555 3.52686ZM10.5781 9.44531C10.6396 9.49854 10.7129 9.53882 10.7939 9.56299C10.874 9.58716 10.96 9.59473 11.0439 9.58545C11.1289 9.57593 11.21 9.54956 11.2812 9.5083C11.3184 9.48682 11.3525 9.46143 11.3828 9.43311C11.4111 9.40698 11.4365 9.37793 11.458 9.34668C11.4785 9.31714 11.4951 9.28589 11.5088 9.25342C11.5244 9.2146 11.5352 9.17383 11.54 9.13232C11.5498 9.05615 11.54 8.97925 11.5117 8.90698C11.4834 8.83472 11.4385 8.7688 11.3779 8.7146C11.3418 8.68188 11.3018 8.65405 11.2588 8.63135C11.2295 8.61621 11.1982 8.60327 11.166 8.59277L11.1426 8.58423C10.9912 8.67871 10.8105 8.7373 10.6143 8.74683C10.6523 8.84326 10.6738 8.94751 10.6738 9.05591C10.6738 9.09766 10.6709 9.13867 10.665 9.17896C10.6562 9.2334 10.6436 9.28662 10.625 9.33765C10.6113 9.37476 10.5957 9.41064 10.5781 9.44531ZM10.6143 6.90186C10.7734 6.90942 10.9277 6.94995 11.0654 7.02051L11.124 7.05273L11.1699 7.08179C11.2637 7.1438 11.3447 7.22021 11.4102 7.30762C11.4639 7.2417 11.5 7.16479 11.5146 7.08374C11.5312 6.98853 11.5176 6.89087 11.4756 6.80225C11.4336 6.71362 11.3652 6.63721 11.2773 6.58203C11.2393 6.55835 11.1982 6.53906 11.1553 6.52417C11.126 6.51367 11.0957 6.50562 11.0645 6.5C11.0361 6.49487 11.0078 6.4917 10.9795 6.49048C10.9229 6.48804 10.8672 6.49292 10.8135 6.50513C10.7646 6.51611 10.7178 6.5332 10.6729 6.55566C10.6777 6.67334 10.6582 6.79102 10.6143 6.90186ZM10.5498 6.15283C10.7627 6.07178 10.999 6.05737 11.2207 6.11182C11.2715 5.98364 11.2627 5.84277 11.1982 5.72021C11.1748 5.67676 11.1455 5.63672 11.1104 5.60107C11.0469 5.53662 10.9658 5.48706 10.875 5.45752C10.7324 5.41187 10.5762 5.41895 10.4404 5.47705C10.376 5.50415 10.3184 5.5415 10.2705 5.58691C10.2168 5.63818 10.1748 5.69946 10.1475 5.76733L10.1406 5.78198C10.3145 5.86768 10.4561 5.99634 10.5498 6.15283ZM9.38184 6.13892C9.33203 6.1626 9.28516 6.19312 9.24512 6.22974C9.1377 6.32593 9.07812 6.4563 9.07812 6.59253C9.07812 6.67017 9.09766 6.74609 9.13477 6.81494C9.16211 6.86646 9.19922 6.91406 9.24512 6.95532C9.28223 6.98926 9.32422 7.01782 9.37012 7.04077C9.4541 7.08301 9.5498 7.10571 9.64746 7.10571C9.7334 7.10571 9.81836 7.08813 9.89453 7.05518C9.95215 7.03027 10.0049 6.99683 10.0508 6.95532C10.1572 6.85913 10.2178 6.72852 10.2178 6.59253C10.2178 6.54297 10.21 6.49414 10.1943 6.44727C10.167 6.36572 10.1182 6.29077 10.0508 6.22974C10.0186 6.20044 9.98242 6.17505 9.94336 6.15381C9.85547 6.10547 9.75293 6.07935 9.64746 6.07935C9.55469 6.07935 9.46289 6.1001 9.38184 6.13892ZM8.5 7.35742C8.43848 7.38281 8.38184 7.41772 8.33301 7.46143C8.22656 7.55762 8.16602 7.68823 8.16602 7.82422C8.16602 7.87744 8.1748 7.92969 8.19238 7.97925C8.2207 8.05688 8.26855 8.12842 8.33301 8.18726C8.44043 8.28345 8.58496 8.3374 8.73633 8.3374C8.85742 8.3374 8.97363 8.30322 9.06934 8.24048C9.09375 8.22461 9.11719 8.20679 9.13867 8.18726C9.24609 8.09082 9.30566 7.96045 9.30566 7.82422C9.30566 7.68823 9.24609 7.55762 9.13867 7.46143C9.10547 7.43115 9.06836 7.40503 9.02832 7.3833C8.94043 7.33618 8.83984 7.31104 8.73633 7.31104C8.65332 7.31104 8.57324 7.32715 8.5 7.35742ZM9.99023 7.82422C9.99023 7.68823 10.0498 7.55762 10.1562 7.46143C10.208 7.41528 10.2676 7.37891 10.333 7.35352C10.4033 7.32568 10.4805 7.31104 10.5596 7.31104C10.6416 7.31104 10.7227 7.3269 10.7959 7.35718C10.8574 7.38232 10.9141 7.41748 10.9629 7.46143C11.0693 7.55762 11.1289 7.68823 11.1289 7.82422C11.1289 7.87085 11.1221 7.91675 11.1084 7.96094C11.083 8.04565 11.0332 8.12378 10.9629 8.18726C10.9141 8.2312 10.8574 8.26636 10.7959 8.2915C10.7217 8.32153 10.6416 8.3374 10.5596 8.3374C10.498 8.3374 10.4385 8.32861 10.3818 8.31177C10.2979 8.28687 10.2207 8.24463 10.1562 8.18726C10.0498 8.09082 9.99023 7.96045 9.99023 7.82422ZM9.64746 8.54272C9.49707 8.54272 9.35156 8.59692 9.24512 8.69312C9.1377 8.78931 9.07812 8.91992 9.07812 9.05591C9.07812 9.19214 9.1377 9.32251 9.24512 9.41895C9.2998 9.46851 9.36523 9.50684 9.43652 9.53247C9.50293 9.5564 9.57422 9.56909 9.64746 9.56909C9.72363 9.56909 9.79883 9.55518 9.86816 9.52905C9.93555 9.50366 9.99805 9.46655 10.0508 9.41895C10.1572 9.32251 10.2178 9.19214 10.2178 9.05591C10.2178 8.91992 10.1572 8.78931 10.0508 8.69312C9.94434 8.59692 9.79883 8.54272 9.64746 8.54272ZM6.0957 4.20898C6.01074 4.11035 5.9082 4.0127 5.79004 3.92017C5.63867 3.80176 5.4668 3.69702 5.2832 3.61377C5.0918 3.52686 4.88672 3.46362 4.67676 3.43237C4.78711 3.73242 5.0127 4.00293 5.30957 4.21362C5.61328 4.42944 5.98047 4.57495 6.35059 4.62378C6.30273 4.49219 6.2168 4.34985 6.0957 4.20898ZM9.91797 4.47852C10.1016 4.18115 10.3613 3.93726 10.6729 3.79126C10.6719 4.1665 10.5322 4.54468 10.3164 4.85889C10.1152 5.15088 9.86719 5.3623 9.63477 5.46997C9.62891 5.1333 9.72949 4.7832 9.91797 4.47852Z"></path></svg>