<svg xmlns="http://www.w3.org/2000/svg" viewBox="0 0 21 24" height="24" width="21"><title>grocery.svg</title><rect fill="none" x="0" y="0" width="21" height="24"></rect><path fill="#5e758d" transform="translate(2 2)" d="M11.1123 15.5334C14.0547 14.3313 16.1289 11.4402 16.1289 8.06445C16.1289 3.6106 12.5186 0 8.06445 0C3.61035 0 0 3.6106 0 8.06445C0 11.4431 2.07812 14.3364 5.02539 15.5366L7.36914 19.5967C7.67969 20.1345 8.45508 20.1345 8.76562 19.5967L11.1123 15.5334ZM5.60352 10.2C5.60352 9.76001 5.95898 9.3999 6.39941 9.3999C6.66797 9.3999 6.90723 9.53491 7.05273 9.74023C7.14551 9.87061 7.19922 10.0293 7.19922 10.2C7.19922 10.6399 6.83887 11 6.39941 11C5.95898 11 5.60352 10.6399 5.60352 10.2ZM4.7998 3.80005H4.39941C4.17969 3.80005 4 3.62012 4 3.3999C4 3.17993 4.17969 3 4.39941 3H5.05566C5.13086 3 5.20508 3.02124 5.26855 3.06152C5.33301 3.10205 5.38379 3.15967 5.41602 3.22803L5.68359 3.80005H11.6016C11.6709 3.80005 11.7393 3.81812 11.7998 3.85254C11.8594 3.88721 11.9102 3.93677 11.9453 3.99658C11.9805 4.0564 11.999 4.12427 12 4.1936C12.001 4.26294 11.9834 4.3313 11.9502 4.39209L10.5186 6.98804C10.3818 7.23608 10.1182 7.3999 9.81836 7.3999H6.83887L6.39941 8.19995H10.7979C11.0186 8.19995 11.1982 8.37988 11.1982 8.6001C11.1982 8.82007 11.0186 9 10.7979 9H6.39941C5.79199 9 5.40723 8.3479 5.69922 7.81201L6.23926 6.83594L4.7998 3.80005ZM9.60254 10.2C9.60254 9.76001 9.95801 9.3999 10.3984 9.3999C10.8379 9.3999 11.1982 9.76001 11.1982 10.2C11.1982 10.6399 10.8379 11 10.3984 11C9.95801 11 9.60254 10.6399 9.60254 10.2Z"></path></svg>