<svg xmlns="http://www.w3.org/2000/svg" viewBox="0 0 20 23" height="23" width="20"><title>gym.svg</title><rect fill="none" x="0" y="0" width="20" height="23"></rect><path fill="#5e758d" transform="translate(1 1)" d="M11.1123 15.5334C14.0547 14.3313 16.1289 11.4402 16.1289 8.06445C16.1289 3.6106 12.5186 0 8.06445 0C3.61035 0 0 3.6106 0 8.06445C0 11.4431 2.07812 14.3364 5.02539 15.5366L7.36914 19.5967C7.53613 19.886 7.83789 20.0198 8.12891 19.9978C8.37891 19.979 8.62207 19.8452 8.76562 19.5967L11.1123 15.5334ZM12 7.57202L11.4277 8.14404L12 8.71606L11.1436 9.57202L11.7158 10.144L11.1436 10.7161L10.5723 10.144L9.71582 11L9.14355 10.428L8.57227 11L8 10.428L9.42773 9L6 5.57202L4.57227 7L4 6.42798L4.57227 5.85596L4 5.28394L4.85645 4.42798L4.28418 3.85596L4.85645 3.28394L5.42773 3.85596L6.28418 3L6.85645 3.57202L7.42773 3L8 3.57202L6.57227 5L10 8.42798L11.4277 7L12 7.57202Z"></path></svg>