<svg xmlns="http://www.w3.org/2000/svg" viewBox="0 0 20 23" height="23" width="20"><title>hackerspace.svg</title><rect fill="none" x="0" y="0" width="20" height="23"></rect><path fill="#5e758d" transform="translate(1 1)" d="M11.1123 15.5334C14.0547 14.3313 16.1289 11.4402 16.1289 8.06445C16.1289 3.6106 12.5186 0 8.06445 0C3.61035 0 0 3.6106 0 8.06445C0 11.4431 2.07812 14.3364 5.02539 15.5366L7.36914 19.5967C7.67969 20.1345 8.45508 20.1345 8.76562 19.5967L11.1123 15.5334ZM5.7041 5.03931C6.02441 4.10767 6.78223 3.2749 7.48242 3.07007C8.57617 2.75293 9.71289 3.53271 10.2744 4.97998C10.5664 5.75317 10.5518 5.95142 10.1504 6.38086C9.80078 6.75098 9.77148 6.80371 9.91699 6.80371C10.1357 6.80371 10.5664 6.95581 10.7559 7.10107C10.9307 7.2334 11.0176 7.42505 11.3164 8.40967C11.5498 9.18945 11.6523 9.6189 11.6152 9.73779C11.5498 9.96924 11.0176 10.4978 10.7988 10.5439C10.4199 10.6299 10.6611 10.7026 11.3242 10.7026C11.7627 10.7026 11.9238 10.7053 11.9766 10.7451C12.0059 10.7666 12.0029 10.7991 11.9951 10.8479L11.9727 11H8H4.02734L4.00488 10.8479C3.9834 10.7092 3.99805 10.7026 4.67578 10.7026C5.33887 10.7026 5.58008 10.6299 5.20117 10.5439C4.98242 10.4978 4.4502 9.96924 4.38477 9.73779C4.34766 9.6189 4.4502 9.18945 4.69043 8.40308C5.0918 7.11426 5.11328 7.0813 5.80566 6.87646L6.17773 6.77075L5.84961 6.40723C5.45605 5.97119 5.43359 5.79932 5.7041 5.03931ZM9.04199 5.99097C9.00586 5.63403 8.99902 5.62744 8.73633 5.58789C8.45898 5.54834 7.50391 5.54834 7.19043 5.59448C7.01562 5.62085 6.99414 5.65405 6.95801 5.99097C6.92871 6.25537 6.94336 6.42041 7.03027 6.56592C7.17676 6.83032 7.54785 7.18701 7.80273 7.30591C7.9707 7.39185 8.0293 7.39185 8.2041 7.30591C8.45215 7.18701 8.92578 6.72437 9.02051 6.50635C9.04199 6.45923 9.05371 6.35596 9.05469 6.23828C9.05469 6.1582 9.05078 6.07129 9.04199 5.99097ZM10.624 8.58789C10.6973 8.24438 10.7412 7.94043 10.7188 7.90747C10.6924 7.86816 8.80176 7.85449 7.25488 7.86499C6.19141 7.87231 5.29102 7.89111 5.27344 7.92065C5.24414 7.9668 5.5 9.47339 5.63086 10.022L5.66699 10.1741H7.99316H10.3184L10.4053 9.69165C10.457 9.43384 10.5518 8.93164 10.624 8.58789Z"></path></svg>