<svg xmlns="http://www.w3.org/2000/svg" viewBox="0 0 20 23" height="23" width="20"><title>hairdresser.svg</title><rect fill="none" x="0" y="0" width="20" height="23"></rect><path fill="#5e758d" transform="translate(1 1)" d="M11.1123 15.5334C14.0547 14.3313 16.1289 11.4402 16.1289 8.06445C16.1289 3.6106 12.5186 0 8.06445 0C3.61035 0 0 3.6106 0 8.06445C0 11.4431 2.07812 14.3364 5.02539 15.5366L7.36914 19.5967C7.67969 20.1345 8.45508 20.1345 8.76562 19.5967L11.1123 15.5334ZM4 7C4 4.79199 5.79199 3 8 3C10.208 3 12 4.79199 12 7C12 9.20801 10.208 11 8 11C5.79199 11 4 9.20801 4 7ZM11.8096 7C11.8096 4.89478 10.1055 3.19043 8 3.19043C5.89453 3.19043 4.19043 4.89478 4.19043 7C4.19043 9.10522 5.89453 10.8096 8 10.8096C10.1055 10.8096 11.8096 9.10522 11.8096 7ZM6.14844 4.21436C6.3125 4.0437 6.55566 3.95239 6.85742 3.95239H9.33301C9.38574 3.95312 9.4375 3.95923 9.48828 3.97021C9.53711 3.97949 9.58496 3.99316 9.63086 4.01172C9.67285 4.03003 9.71191 4.052 9.75 4.07764C9.79199 4.10767 9.83203 4.1416 9.86914 4.17847C9.90918 4.21802 9.94531 4.26196 9.97656 4.30957C9.99414 4.34277 10.0156 4.37524 10.0352 4.42261C10.0459 4.44702 10.0547 4.47168 10.0615 4.49658L10.0713 4.53564L10.0771 4.55957L10.083 4.58936C10.0898 4.62964 10.0957 4.67212 10.0957 4.71436V4.73804C10.0938 4.78223 10.0898 4.83325 10.0771 4.88086C10.0537 4.97778 10.0137 5.073 9.96484 5.14282L9.94531 5.16724L9.92871 5.18457L9.89746 5.22095L9.86914 5.25C9.8457 5.27344 9.82422 5.29517 9.79785 5.31543C9.76855 5.3335 9.74414 5.35278 9.71191 5.37183L9.67285 5.39282L9.64551 5.40527C9.62598 5.41406 9.60645 5.4231 9.58301 5.42847L9.57422 5.43188C9.5459 5.44189 9.51855 5.4519 9.48828 5.45825L9.45117 5.46484C9.4248 5.47021 9.39648 5.47607 9.35742 5.47607H8.33301C8.22461 5.92603 7.87988 6.27417 7.42871 6.38086V7.38086C7.42871 7.7356 7.18555 8.02832 6.85742 8.11304V8.42847L6.85449 8.4519C6.84961 8.46802 6.83984 8.48291 6.82812 8.49487C6.81055 8.51245 6.78711 8.52295 6.76172 8.52393H6.66699V9.38086C6.66699 9.74805 6.36719 10.0476 6 10.0476H5.9043V9.85718H6C6.26465 9.85718 6.47656 9.64526 6.47656 9.38086V8.52393H6.38086C6.33105 8.52393 6.28613 8.47852 6.28613 8.42847V8.04175C6.13477 7.95459 6.0166 7.81665 5.9541 7.65137C5.92188 7.56738 5.9043 7.47607 5.9043 7.38086V4.90479C5.9043 4.62793 5.98535 4.38501 6.14844 4.21436ZM9.75586 4.33325H9.48828C9.43555 4.39038 9.39453 4.45288 9.36914 4.52393H9.875C9.8584 4.47729 9.83398 4.43408 9.80566 4.39404L9.75586 4.33325ZM7.21484 4.48462C7.19141 4.48047 7.16699 4.47607 7.14258 4.47607C7.01855 4.47656 6.89648 4.51489 6.79492 4.58618C6.7666 4.60596 6.74023 4.62793 6.71582 4.65186C6.65234 4.71436 6.60254 4.79028 6.57129 4.87476L7.23828 4.48828L7.21484 4.48462ZM7.61914 4.7085C7.5752 4.65283 7.52539 4.60889 7.46484 4.57153L7.41113 4.60107L6.58887 5.07739L6.5293 5.11304C6.5332 5.17847 6.54688 5.24292 6.57129 5.30371L6.60156 5.28564L7.55957 4.7439L7.61914 4.7085ZM9.9043 4.7085H9.33301C9.33203 4.77319 9.3418 4.83765 9.36328 4.89893H9.875C9.88965 4.85645 9.89941 4.81177 9.90234 4.76514L9.9043 4.73218V4.7085ZM7.72656 4.90967L7.71387 4.875L7.6543 4.91089L6.69629 5.45264L6.66699 5.47046C6.6875 5.49658 6.71094 5.521 6.73535 5.54321C6.76172 5.56689 6.79102 5.58838 6.82129 5.60693L6.875 5.57739L7.69629 5.10107L7.75586 5.06543C7.75391 5.01123 7.74316 4.95923 7.72656 4.90967ZM9.69531 5.15381C9.7168 5.13574 9.7373 5.11621 9.75586 5.09521H9.48242C9.52148 5.13965 9.56836 5.17773 9.61914 5.2085C9.64648 5.19238 9.67188 5.17407 9.69531 5.15381ZM7.49023 5.59253C7.59277 5.52124 7.6709 5.42065 7.71387 5.30396L7.04785 5.69092L7.06641 5.69385C7.0918 5.698 7.11719 5.70239 7.14258 5.70239C7.26758 5.7019 7.38867 5.66357 7.49023 5.59253ZM7.91113 7.38086H7.61914V6.61914H7.91113C7.93555 6.61987 7.95898 6.63037 7.97656 6.64795C7.99414 6.66553 8.00488 6.68921 8.00586 6.71436V7.28564C8.00488 7.31079 7.99414 7.33447 7.97656 7.35205C7.95898 7.36963 7.93555 7.38013 7.91113 7.38086Z"></path></svg>