<svg xmlns="http://www.w3.org/2000/svg" viewBox="0 0 20 23" height="23" width="20"><title>halt.svg</title><rect fill="none" x="0" y="0" width="20" height="23"></rect><path fill="#5e758d" transform="translate(1 1)" d="M11.1123 15.5334C14.0547 14.3313 16.1289 11.4402 16.1289 8.06445C16.1289 3.6106 12.5186 0 8.06445 0C3.61035 0 0 3.6106 0 8.06445C0 11.4431 2.07812 14.3364 5.02539 15.5366L7.36914 19.5967C7.67969 20.1345 8.45508 20.1345 8.76562 19.5967L11.1123 15.5334ZM10.9756 6.97388V4.96729C10.9756 4.87695 11.0156 4.79028 11.0869 4.72632C11.1582 4.6626 11.2549 4.62671 11.3564 4.62671H11.6201C11.7207 4.62671 11.8174 4.6626 11.8887 4.72632C11.9395 4.77222 11.9746 4.82983 11.9912 4.89233C11.9971 4.91675 12 4.94189 12 4.96729V9.32104C12 10.0315 11.6846 10.7129 11.124 11.2153C10.5625 11.7178 9.80176 12 9.00781 12H7.65625C7.41113 12 7.16895 11.9497 6.94922 11.8525C6.72949 11.7556 6.53711 11.6147 6.3877 11.4407L4.11621 8.94019C4.03418 8.84937 3.99316 8.73413 4.00098 8.61719C4.00977 8.50049 4.06641 8.39062 4.16113 8.30981L4.28516 8.2041C4.37598 8.12646 4.49512 8.08105 4.62109 8.07617C4.74609 8.07129 4.87012 8.10742 4.96777 8.17798L6.38672 9.19556V3.94434C6.38672 3.854 6.42676 3.76733 6.49805 3.70337C6.56934 3.63965 6.66602 3.60376 6.76758 3.60376H7.03125C7.13184 3.60376 7.22852 3.63965 7.2998 3.70337C7.37109 3.76733 7.41113 3.854 7.41113 3.94434V6.97388H7.91699V3.34058C7.91699 3.29468 7.92773 3.24976 7.94727 3.2085C7.96582 3.16821 7.99316 3.13135 8.02832 3.09985C8.09961 3.03589 8.19629 3 8.29688 3H8.56055C8.66113 3 8.75781 3.03589 8.8291 3.09985C8.90039 3.16357 8.94043 3.25024 8.94043 3.34058V6.97388H9.44531V3.81958C9.44531 3.77734 9.4541 3.73584 9.4707 3.69702C9.48926 3.65308 9.51855 3.61279 9.55664 3.57886C9.62793 3.51489 9.72461 3.479 9.8252 3.479H10.0889C10.1895 3.479 10.2861 3.51489 10.3574 3.57886C10.3984 3.61597 10.4297 3.66064 10.4482 3.70947C10.4619 3.74463 10.4688 3.78174 10.4688 3.81958V6.97388H10.9756Z"></path></svg>