<svg xmlns="http://www.w3.org/2000/svg" viewBox="0 0 20 23" height="23" width="20"><title>harbor.svg</title><rect fill="none" x="0" y="0" width="20" height="23"></rect><path fill="#5e758d" transform="translate(1 1)" d="M11.1123 15.5334C14.0547 14.3313 16.1289 11.4402 16.1289 8.06445C16.1289 3.6106 12.5186 0 8.06445 0C3.61035 0 0 3.6106 0 8.06445C0 11.4431 2.07812 14.3364 5.02539 15.5366L7.36914 19.5967C7.53027 19.8762 7.81738 20.0105 8.09961 19.9995C8.36035 19.9893 8.61621 19.855 8.76562 19.5967L11.1123 15.5334ZM6.13379 4.8667C6.13379 3.83569 6.93359 3 8 3C9.06641 3 9.86719 3.83569 9.86719 4.8667C9.86621 5.26758 9.73535 5.65771 9.49512 5.97876C9.25488 6.30005 8.91797 6.53491 8.5332 6.64917V9.8667C9.0293 9.77759 9.53223 9.57056 9.94531 9.18555C10.5068 8.66016 10.9336 7.82715 10.9336 6.46558C10.8984 5.72168 12.0342 5.72168 11.999 6.46558C11.999 8.05981 11.4609 9.22925 10.6729 9.96533C9.88574 10.7014 8.88867 11 8 11C7.11328 11 6.11719 10.7051 5.32812 9.9707C4.54004 9.23682 4 8.06714 4 6.46558C4 6.32397 4.05664 6.18823 4.15625 6.08813C4.25684 5.98804 4.39258 5.93164 4.53418 5.93164C4.67578 5.93164 4.81152 5.98804 4.91113 6.08813C5.01172 6.18823 5.06738 6.32397 5.06738 6.46558C5.06738 7.83569 5.49316 8.66772 6.05469 9.19043C6.4668 9.57446 6.9707 9.77979 7.4668 9.86768V6.64697C7.08301 6.5332 6.74512 6.29834 6.50488 5.97778C6.37891 5.80933 6.2832 5.62207 6.21973 5.42407C6.16309 5.24487 6.13379 5.05713 6.13379 4.8667ZM8.30664 4.12744C8.20898 4.0874 8.10547 4.06665 8 4.06665C7.87598 4.06665 7.75488 4.09546 7.64551 4.14941C7.56836 4.18774 7.49707 4.23877 7.43457 4.30103C7.34668 4.38867 7.28125 4.49463 7.24219 4.60986C7.21484 4.69189 7.2002 4.77856 7.2002 4.8667C7.2002 5.07886 7.28418 5.28223 7.43457 5.43237C7.58496 5.58228 7.78809 5.66675 8 5.66675C8.10547 5.66675 8.20898 5.646 8.30664 5.60571C8.3457 5.5896 8.38281 5.57056 8.41895 5.54858C8.47168 5.51587 8.52148 5.47681 8.56543 5.43237C8.64062 5.35815 8.69922 5.26978 8.73926 5.17285C8.7793 5.07568 8.7998 4.97168 8.7998 4.8667C8.7998 4.76172 8.7793 4.65747 8.73926 4.56055C8.69922 4.46338 8.64062 4.37524 8.56543 4.30103C8.49121 4.22681 8.40332 4.16772 8.30664 4.12744Z"></path></svg>