<svg xmlns="http://www.w3.org/2000/svg" viewBox="0 0 20 23" height="23" width="20"><title>hardware.svg</title><rect fill="none" x="0" y="0" width="20" height="23"></rect><path fill="#5e758d" transform="translate(1 1)" d="M11.1123 15.5334C14.0547 14.3313 16.1289 11.4402 16.1289 8.06445C16.1289 3.6106 12.5186 0 8.06445 0C3.61035 0 0 3.6106 0 8.06445C0 11.4431 2.07812 14.3364 5.02539 15.5366L7.36914 19.5967C7.67969 20.1345 8.45508 20.1345 8.76562 19.5967L11.1123 15.5334ZM10.5576 5.70679C10.8281 5.43359 11.8574 4.40479 11.8574 4.40479C11.8896 4.50415 11.918 4.5835 11.9365 4.66333C12.0059 4.94409 12.0186 5.23584 11.9736 5.52148C11.9287 5.80713 11.8281 6.08105 11.6758 6.32715C11.5244 6.57324 11.3242 6.78662 11.0898 6.95483C10.8545 7.12305 10.5879 7.24268 10.3057 7.30664C9.92188 7.39893 9.51953 7.37988 9.14648 7.2522C9.08691 7.23242 9.04688 7.23633 9.00977 7.26074C8.99414 7.27051 8.97852 7.28369 8.96289 7.30005L5.5498 10.7148C5.37402 10.8906 5.15918 10.9861 4.94141 10.9985C4.74902 11.0098 4.55371 10.9558 4.37988 10.8347C4.2793 10.7642 4.19531 10.6743 4.13184 10.5701C4.06738 10.4658 4.02637 10.3496 4.00879 10.2288C3.99902 10.1577 3.99707 10.0859 4.00488 10.0149C4.00977 9.96484 4.01855 9.91528 4.03223 9.8667C4.06445 9.74902 4.12012 9.63892 4.19629 9.5437C4.23047 9.50244 4.26758 9.46313 4.30566 9.42578L7.70801 6.02612C7.75879 5.97583 7.77344 5.93457 7.75098 5.86401C7.65039 5.56348 7.61719 5.24487 7.65234 4.92993C7.68848 4.61523 7.79199 4.31201 7.95703 4.0415C8.12207 3.771 8.34375 3.53979 8.60742 3.36401C8.75781 3.26392 8.91895 3.18311 9.08789 3.12329C9.21582 3.07788 9.34766 3.04443 9.48242 3.02344C9.83691 2.96582 10.3125 3.01733 10.5889 3.14819C10.4609 3.27515 9.58984 4.14502 9.27734 4.45996C9.25195 4.48584 9.22852 4.53198 9.23242 4.56567C9.25391 4.77808 9.27832 4.99048 9.30371 5.2041L9.35547 5.64233L10.1104 5.73193L10.3037 5.75513L10.3848 5.76636C10.416 5.77271 10.4482 5.77051 10.4795 5.76001C10.5098 5.74951 10.5371 5.7312 10.5576 5.70679Z"></path></svg>