<svg xmlns="http://www.w3.org/2000/svg" viewBox="0 0 21 24" height="24" width="21"><title>healthpost.svg</title><rect fill="none" x="0" y="0" width="21" height="24"></rect><path fill="#ba272a" transform="translate(2 2)" d="M11.1123 15.5334C14.0547 14.3313 16.1289 11.4402 16.1289 8.06445C16.1289 3.6106 12.5186 0 8.06445 0C3.61035 0 0 3.6106 0 8.06445C0 11.4431 2.07812 14.3364 5.02539 15.5366L7.36914 19.5967C7.67969 20.1345 8.45508 20.1345 8.76562 19.5967L11.1123 15.5334ZM4.88867 3H11.1113C11.5996 3 12 3.3999 12 3.88892V10.1111C12 10.6001 11.5996 11 11.1113 11H4.88867C4.40039 11 4 10.6001 4 10.1111L4.00488 3.88892C4.00488 3.3999 4.40039 3 4.88867 3ZM8.88867 7.88892H10.2227C10.4668 7.88892 10.667 7.68896 10.667 7.44434V6.55566C10.667 6.31104 10.4668 6.11108 10.2227 6.11108H8.88867V4.77783C8.88867 4.53345 8.68848 4.33325 8.44434 4.33325H7.55566C7.31152 4.33325 7.11133 4.53345 7.11133 4.77783V6.11108H5.77734C5.5332 6.11108 5.33301 6.31104 5.33301 6.55566V7.44434C5.33301 7.68896 5.5332 7.88892 5.77734 7.88892H7.11133V9.22217C7.11133 9.46655 7.31152 9.66675 7.55566 9.66675H8.44434C8.68848 9.66675 8.88867 9.46655 8.88867 9.22217V7.88892Z"></path></svg>