<svg xmlns="http://www.w3.org/2000/svg" viewBox="0 0 21 24" height="24" width="21"><title>hearing_aids.svg</title><rect fill="none" x="0" y="0" width="21" height="24"></rect><path fill="#ba272a" transform="translate(2 2)" d="M11.1123 15.5334C14.0547 14.3313 16.1289 11.4402 16.1289 8.06445C16.1289 3.6106 12.5186 0 8.06445 0C3.61035 0 0 3.6106 0 8.06445C0 11.4431 2.07812 14.3364 5.02539 15.5366L7.36914 19.5967C7.67969 20.1345 8.45508 20.1345 8.76562 19.5967L11.1123 15.5334ZM4.06934 5.67188C4.27344 4.49561 5.06348 3.49072 6.06348 3.13232C6.26855 3.06226 6.68359 3.03125 7.45215 3.04663L8.54492 3.06226L8.98828 3.32715C9.8623 3.85693 10.3486 4.69824 10.3984 5.79663C10.4473 6.88721 10.208 7.55713 9.38281 8.60889C9.11328 8.95142 8.90723 9.25854 8.75195 9.55762C8.52832 9.98608 8.4082 10.3984 8.35449 10.8757C8.22754 12.0051 8.07227 12.3792 7.58594 12.7375C7.38965 12.8818 7.08594 12.9705 6.78516 12.9937C6.68164 13.0017 6.57812 13.002 6.47949 12.9941C6.30859 12.9807 6.15332 12.9426 6.03613 12.8777C5.7041 12.6907 5.42285 12.387 5.24609 12.0208C5.1123 11.748 5.0918 11.5535 5.07031 10.4783C5.04883 9.67603 5.07031 9.25537 5.11914 9.25537C5.12598 9.25537 5.13965 9.26123 5.15723 9.27222L5.19531 9.29761L5.27344 9.35791C5.3418 9.41333 5.4248 9.48682 5.50684 9.56689C5.55469 9.6123 5.60547 9.65527 5.6582 9.69556C5.73145 9.75146 5.80664 9.802 5.88281 9.8457C6.08984 9.96436 6.30176 10.0344 6.46582 10.0344C6.52148 10.0266 6.69141 9.97974 6.83203 9.92529L7.09277 9.82397L7.05078 10.3538L7.00781 10.8914H7.21289C7.41699 10.8914 7.42383 10.8757 7.50195 10.3381C7.61426 9.52808 7.91699 8.92041 8.65039 8.04785C9.00293 7.63501 9.34082 7.18311 9.4043 7.05078C9.58789 6.67676 9.57324 5.80444 9.37598 5.39941C8.89648 4.4021 7.83984 3.99707 6.97266 4.47241C6.56055 4.70044 6.29102 4.9978 6.12598 5.44116C6.01465 5.73999 5.95117 6.10522 5.92285 6.56006C5.88086 7.26123 5.87402 7.30786 5.67676 7.46362C5.49316 7.61084 5.38867 7.61328 5.2627 7.42139C5.22852 7.36963 5.19336 7.30347 5.1543 7.22217C5.05469 7.00708 5.0293 6.57056 5.06152 6.09766C5.10059 5.50928 5.22852 4.8645 5.4082 4.51904C5.5918 4.17627 5.46484 4.19971 5.21094 4.55811C4.78125 5.16553 4.67578 5.49268 4.64746 6.3418C4.6123 7.3623 4.77441 7.76758 5.35254 8.09473L5.60547 8.24268L5.85254 7.96997C6.06348 7.73633 6.14844 7.69727 6.43066 7.69727C6.71191 7.69727 6.79688 7.73633 7.00098 7.96216C7.20508 8.18823 7.24121 8.28149 7.24121 8.59326C7.24121 8.90479 7.20508 8.99829 7.00098 9.22412C6.79688 9.4502 6.71191 9.48901 6.42285 9.48901C6.23828 9.48901 6.14355 9.47705 6.04297 9.40186C5.98242 9.35645 5.91895 9.28809 5.83105 9.1853C5.76465 9.1084 5.68164 9.03149 5.60059 8.96924C5.50879 8.89893 5.41895 8.84717 5.35938 8.83472C5.07715 8.76465 4.64062 8.44531 4.42188 8.14136C4.34277 8.03101 4.27344 7.8999 4.21484 7.75269C4.18066 7.66553 4.15039 7.573 4.12402 7.47559C4.04688 7.18848 4.00391 6.86084 4 6.51611C3.99902 6.41089 4.00195 6.30396 4.00879 6.19604C4.01855 6.02271 4.03906 5.84717 4.06934 5.67188ZM9.82715 3.38159C10.9766 4.55811 11.2227 6.51318 10.4053 7.93896C10.1514 8.375 10.1445 8.65552 10.377 8.90479C10.7363 9.30981 11.1592 9.09961 11.5186 8.34399C12.0117 7.3313 12.1455 5.75757 11.8291 4.86963C11.5117 3.97363 10.6094 3.16357 9.79883 3.05444L9.46094 3L9.82715 3.38159ZM7.10059 4.93188C7.10059 4.91626 7.20605 4.86182 7.33301 4.82275C7.45215 4.77612 7.69238 4.7605 7.86133 4.77612C8.62207 4.86963 9.07324 5.42261 9.07324 6.24854C9.06641 6.51318 9.03125 6.80151 8.98145 6.88721C8.89746 7.05859 7.76953 8.39844 7.71289 8.39844C7.69238 8.39844 7.66406 8.29712 7.64258 8.17261C7.57227 7.81421 7.11426 7.3313 6.72656 7.22998L6.39551 7.13647V6.56006C6.39551 5.82007 6.55762 5.3291 6.77637 5.40723C7.14941 5.53955 7.52344 6.03027 7.52344 6.4043C7.52344 6.48999 7.58691 6.52881 7.73438 6.52881C7.91797 6.52881 7.94629 6.4978 7.94629 6.32642C7.94629 6.01465 7.74902 5.63306 7.41016 5.28247C7.24121 5.11108 7.10059 4.95532 7.10059 4.93188Z"></path></svg>