<svg xmlns="http://www.w3.org/2000/svg" viewBox="0 0 21 24" height="24" width="21"><title>herbalist.svg</title><rect fill="none" x="0" y="0" width="21" height="24"></rect><path fill="#ba272a" transform="translate(2 2)" d="M16.1289 8.06445C16.1289 11.4402 14.0547 14.3313 11.1123 15.5334L8.76562 19.5967C8.45508 20.1345 7.67969 20.1345 7.36914 19.5967L5.02539 15.5366C2.07812 14.3364 0 11.4431 0 8.06445C0 3.6106 3.61035 0 8.06445 0C12.5186 0 16.1289 3.6106 16.1289 8.06445ZM10.1279 3.72974C10.0244 3.87354 9.92676 4.01636 9.84375 4.14404C9.69238 4.37476 9.59082 4.55591 9.59082 4.60474C9.58887 4.62158 9.57324 4.65674 9.54688 4.70654C9.52539 4.74731 9.49609 4.79785 9.45996 4.85596C9.34375 5.0459 9.16113 5.31714 8.95508 5.59741L8.32812 6.44727H6.35547C4.8916 6.44727 4.36426 6.47241 4.29102 6.5481C4.01855 6.87622 3.90918 9.27417 4.12793 10.4014L4.22754 10.9482L7.28223 10.9736L10.3457 10.9905H7.27246H4V11.3521C4 11.5273 3.99414 11.6553 4.04785 11.7485C4.19922 12.0093 4.81641 12 7.32715 12C9.53613 12 10.3545 11.9746 10.4365 11.8989C10.5 11.8401 10.5459 11.613 10.5459 11.3943V10.9905H10.3457L10.3916 10.8052C10.791 9.30762 10.6279 6.57349 10.1367 6.44727C10.04 6.42383 10.0039 6.40308 10.0498 6.30591C10.0859 6.229 10.1748 6.104 10.3281 5.89185C10.5273 5.61426 10.7363 5.39551 10.7822 5.41235C10.8916 5.44604 12 3.99048 12 3.82227C12 3.69604 11.6553 3.37646 11.2734 3.14087C11.0918 3.02661 10.9629 2.97461 10.8301 3.01221C10.6504 3.06323 10.4629 3.2793 10.1279 3.72974ZM7.49121 7.70068C7.57324 7.78491 7.68262 7.96167 7.71875 8.09619C7.74023 8.17383 7.77734 8.23755 7.83008 8.28833C7.88672 8.34229 7.96094 8.38159 8.05469 8.40747C8.37305 8.50854 8.63672 8.7019 8.63672 8.85352C8.63672 8.97119 8.19141 9.22363 7.97363 9.22363C7.94336 9.22363 7.89453 9.26514 7.8418 9.3335C7.78223 9.40991 7.7168 9.52002 7.66406 9.64429C7.5459 9.89673 7.40918 10.0649 7.32812 10.0649C7.16406 10.0649 6.94629 9.78735 6.86426 9.45068C6.82812 9.31616 6.7373 9.22363 6.64551 9.22363C6.56445 9.22363 6.36426 9.14795 6.2002 9.05542C5.94629 8.91235 5.91895 8.86182 6 8.71875C6.03125 8.67041 6.11133 8.60815 6.20996 8.55444C6.25 8.53247 6.29297 8.51196 6.33691 8.49438C6.37305 8.47998 6.41016 8.46753 6.44629 8.45801C6.58789 8.4187 6.68262 8.37939 6.74805 8.3269C6.80762 8.27856 6.8418 8.21899 6.86426 8.13818C6.91113 7.96924 7.01953 7.7688 7.11914 7.64819C7.17383 7.58276 7.22559 7.54102 7.26367 7.54102C7.30078 7.54102 7.40918 7.6167 7.49121 7.70068Z"></path></svg>