<svg xmlns="http://www.w3.org/2000/svg" viewBox="0 0 20 23" height="23" width="20"><title>hifi.svg</title><rect fill="none" x="0" y="0" width="20" height="23"></rect><path fill="#5e758d" transform="translate(1 1)" d="M11.1123 15.5334C14.0547 14.3313 16.1289 11.4402 16.1289 8.06445C16.1289 3.6106 12.5186 0 8.06445 0C3.61035 0 0 3.6106 0 8.06445C0 11.4431 2.07812 14.3364 5.02539 15.5366L7.36914 19.5967C7.67969 20.1345 8.45508 20.1345 8.76562 19.5967L11.1123 15.5334ZM5.38477 3.43945C5.63086 3.15796 5.96484 3 6.3125 3H10.6875C11.0352 3 11.3691 3.15796 11.6152 3.43945C11.8613 3.7207 12 4.10229 12 4.5V11.5C12 11.8977 11.8613 12.2793 11.6152 12.5605C11.4873 12.7065 11.3359 12.8193 11.1719 12.894C11.0195 12.9634 10.8545 13 10.6875 13H6.3125C5.96484 13 5.63086 12.842 5.38477 12.5605C5.13867 12.2793 5 11.8977 5 11.5V4.5C5 4.10229 5.13867 3.7207 5.38477 3.43945ZM8.08203 5.35425C8.06934 5.40112 8.0625 5.4502 8.0625 5.5C8.0625 5.63257 8.1084 5.75977 8.19043 5.85352C8.27246 5.94727 8.38379 6 8.5 6C8.62012 6 8.73145 5.94727 8.81348 5.85352C8.89551 5.75977 8.94141 5.63257 8.94141 5.5C8.94141 5.36743 8.89551 5.24023 8.81348 5.14648C8.77734 5.10547 8.73633 5.07227 8.69141 5.0481C8.63281 5.01685 8.56934 5 8.50391 5C8.38379 5 8.27246 5.05273 8.19043 5.14648C8.13965 5.20483 8.10254 5.27637 8.08203 5.35425ZM7.88086 8.29297C7.7168 8.48047 7.625 8.73486 7.625 9C7.625 9.17725 7.66602 9.34985 7.74219 9.50098C7.78027 9.57568 7.82617 9.64502 7.88086 9.70703C8.04492 9.89453 8.26758 10 8.5 10C8.73242 10 8.95508 9.89453 9.11914 9.70703C9.2832 9.51953 9.375 9.26514 9.375 9C9.375 8.9165 9.36621 8.83398 9.34863 8.75439C9.30957 8.5813 9.23145 8.42139 9.11914 8.29297C8.95508 8.10547 8.73242 8 8.5 8C8.26758 8 8.04492 8.10547 7.88086 8.29297ZM7.2627 7.58569C7.59082 7.21069 8.03613 7 8.5 7C8.96387 7 9.40918 7.21069 9.7373 7.58569C10.0654 7.96094 10.25 8.46948 10.25 9C10.25 9.53052 10.0654 10.0391 9.7373 10.4143C9.60352 10.5669 9.4502 10.6924 9.28516 10.7874C9.04395 10.9258 8.77539 11 8.5 11C8.03613 11 7.59082 10.7893 7.2627 10.4143C7.07715 10.2021 6.9375 9.94727 6.85156 9.66992C6.78516 9.45679 6.75 9.23047 6.75 9C6.75 8.46948 6.93457 7.96094 7.2627 7.58569Z"></path></svg>