<svg xmlns="http://www.w3.org/2000/svg" viewBox="0 0 21 24" height="24" width="21"><title>high_court.svg</title><rect fill="none" x="0" y="0" width="21" height="24"></rect><path fill="#5e758d" transform="translate(2 2)" d="M11.1123 15.5334C14.0547 14.3313 16.1289 11.4402 16.1289 8.06445C16.1289 3.6106 12.5186 0 8.06445 0C3.61035 0 0 3.6106 0 8.06445C0 11.4431 2.07812 14.3364 5.02539 15.5366L7.36914 19.5967C7.5127 19.8447 7.75488 19.9783 8.00391 19.9976C8.2959 20.02 8.59863 19.8865 8.76562 19.5967L11.1123 15.5334ZM11.5371 5.76147L11.8906 6.11499C12.0361 6.26147 12.0361 6.49902 11.8906 6.64526L9.94531 8.58984C9.86523 8.66968 9.75879 8.70605 9.6543 8.69897C9.56738 8.69287 9.48145 8.65649 9.41504 8.58984L9.06152 8.23633C8.91504 8.08984 8.91504 7.85254 9.06152 7.70605L9.15039 7.61768L8.53125 6.99902L7.26562 8.26514L7.35352 8.35352C7.47168 8.47168 7.51855 8.63403 7.49414 8.78735C7.47754 8.88745 7.43066 8.98364 7.35352 9.06079L5.56055 10.8535C5.41113 11.0034 5.18945 11.0383 5.00684 10.9583C4.95117 10.9338 4.89941 10.8989 4.85352 10.8535L4.14648 10.1465C3.95117 9.95117 3.95117 9.63452 4.14648 9.43945L5.93945 7.64648C6.13477 7.45117 6.45117 7.45117 6.64648 7.64648L6.73438 7.73486L8.00098 6.46851L7.38281 5.84985L7.29395 5.93823C7.14746 6.08472 6.91016 6.08472 6.76367 5.93823L6.41016 5.58472C6.26367 5.43823 6.26367 5.20093 6.41016 5.05444L8.35449 3.10986C8.50098 2.96338 8.73828 2.96338 8.88477 3.10986L9.23828 3.46338C9.38477 3.60986 9.38477 3.84717 9.23828 3.99365L9.15039 4.08203L10.918 5.84985L11.0059 5.76147C11.0898 5.67749 11.2041 5.6416 11.3135 5.65381C11.3955 5.66309 11.4746 5.69897 11.5371 5.76147Z"></path></svg>