<svg xmlns="http://www.w3.org/2000/svg" viewBox="0 0 21 24" height="24" width="21"><title>hindu.svg</title><rect fill="none" x="0" y="0" width="21" height="24"></rect><path fill="#5e758d" transform="translate(2 2)" d="M11.1123 15.5334C14.0547 14.3313 16.1289 11.4402 16.1289 8.06445C16.1289 3.6106 12.5186 0 8.06445 0C3.61035 0 0 3.6106 0 8.06445C0 11.4431 2.07812 14.3364 5.02539 15.5366L7.36914 19.5967C7.67969 20.1345 8.45508 20.1345 8.76562 19.5967L11.1123 15.5334ZM8.61914 3.67505L9.25098 3L9.88281 3.67505L9.25098 4.3501L8.61914 3.67505ZM11.3584 4.80005C10.0938 6.6001 7.14355 6.1499 7.56543 3.44995C8.4082 5.69995 10.0938 4.80005 10.5156 4.125L11.3584 4.80005ZM5.6377 5.50903C5.97266 5.37012 6.36621 5.25 6.72266 5.25C7.98633 5.25 8.8291 6.6001 7.35449 8.17505C8.1084 8.52002 8.36719 8.04248 8.66504 7.49292C8.94922 6.96704 9.26953 6.375 10.0938 6.375C12.2012 6.375 12.2012 9.30005 11.7793 10.2C10.5156 12.8999 8.19727 10.875 8.8291 8.8501H8.19727C8.8291 11.1001 7.98633 12 6.72266 12C5.45801 12 3.35059 10.6499 4.19336 7.94995C4.19336 9.30005 6.30078 12 7.56543 9.9751C7.98633 9.30005 7.14355 8.3999 5.87891 9.07495V7.5C6.72266 7.94995 7.98633 7.05005 7.14355 6.6001C6.72266 6.375 5.87891 6.6001 5.45801 7.05005L4.82617 5.92505C4.82617 5.92505 5.17773 5.69946 5.6377 5.50903ZM10.9365 7.5C12.2012 8.8501 9.25098 11.55 9.25098 8.8501C9.25098 7.94995 10.0938 6.82495 10.9365 7.5Z"></path></svg>