<svg xmlns="http://www.w3.org/2000/svg" viewBox="0 0 21 24" height="24" width="21"><title>hospital.svg</title><rect fill="none" x="0" y="0" width="21" height="24"></rect><path fill="#ba272a" transform="translate(2 2)" d="M11.1123 15.5334C14.0547 14.3313 16.1289 11.4402 16.1289 8.06445C16.1289 3.6106 12.5186 0 8.06445 0C3.61035 0 0 3.6106 0 8.06445C0 11.4431 2.07812 14.3364 5.02539 15.5366L7.36914 19.5967C7.67969 20.1345 8.45508 20.1345 8.76562 19.5967L11.1123 15.5334ZM4.89648 3.00073C4.89453 2.99902 11.1182 3.00073 11.1182 3.00073C11.4209 3.00073 11.6445 3.08179 11.791 3.23975C11.9307 3.39111 12 3.61304 12 3.90186V10.1379C12 10.4131 11.9346 10.6211 11.8047 10.7639C11.6611 10.9221 11.4385 11 11.1367 11H4.86328C4.29004 11 4 10.7039 4 10.1379V3.90186C4 3.50073 4.1416 3.23535 4.4043 3.10205C4.53809 3.03442 4.70312 3.00073 4.89648 3.00073ZM8.99512 9.68945H10.0547V4.62866H8.99512V6.5459H7.01855V4.62866H5.95898V9.68945H7.01855V7.41992H8.99512V9.68945Z"></path></svg>