<svg xmlns="http://www.w3.org/2000/svg" viewBox="0 0 17 20" height="20" width="17"><title>ice_rink.svg</title><rect fill="none" x="0" y="0" width="17" height="20"></rect><path fill="#5e758d" transform="translate(0 0)" d="M11.1123 15.5334C14.0547 14.3313 16.1289 11.4402 16.1289 8.06445C16.1289 3.6106 12.5186 0 8.06445 0C3.61035 0 0 3.6106 0 8.06445C0 11.4431 2.07812 14.3364 5.02539 15.5366L7.36914 19.5967C7.67969 20.1345 8.45508 20.1345 8.76562 19.5967L11.1123 15.5334ZM11.8086 9.5249L11.7891 9.53662C11.9375 9.7749 12.0039 10.054 11.9824 10.3333C11.958 10.5764 11.8516 10.7537 11.668 10.8643C11.5176 10.9546 11.3145 11 11.0625 11H4.28613C4.20996 11 4.1377 10.9697 4.08398 10.916C4.03027 10.8623 4 10.7896 4 10.7134C4 10.6375 4.03027 10.5647 4.08398 10.511C4.1377 10.457 4.20996 10.427 4.28613 10.427H5.27637V9.72363L4.86621 9.71826C4.76074 9.70679 4.66016 9.66309 4.58008 9.59302C4.49902 9.52271 4.44238 9.42969 4.41504 9.32617C4.38574 9.2168 4.37305 9.10376 4.37695 8.99048C4.38184 8.66357 4.42773 8.44214 4.47461 8.21484C4.51758 8.00562 4.5625 7.7915 4.57715 7.48584C4.6084 6.84814 4.0166 4.35645 4.0166 4.35645C4.39844 4.35962 4.77832 4.28589 5.13184 4.13916C5.4209 3.99414 5.6416 3.75098 5.83496 3.53833C5.94531 3.4165 6.04688 3.30469 6.14648 3.22705C6.53418 2.92505 7.18652 3.01147 7.18652 3.01147C7.18652 3.01147 7.20703 3.20166 7.24414 3.48633C7.2627 3.63159 7.28516 3.80176 7.31152 3.98389L6.66016 4.1001C6.64258 4.10254 6.62598 4.10864 6.61133 4.11768C6.59668 4.12671 6.58398 4.13843 6.57422 4.15259C6.56445 4.1665 6.55664 4.18262 6.55273 4.19946C6.5498 4.21631 6.54883 4.23364 6.55176 4.25073C6.55469 4.26782 6.56152 4.28394 6.57129 4.29858C6.57715 4.30811 6.58496 4.31665 6.59375 4.32422L6.60645 4.33521C6.62109 4.34473 6.63672 4.35156 6.6543 4.35498C6.6709 4.35815 6.68848 4.35815 6.70508 4.35474L7.35547 4.23828C7.37012 4.32837 7.38477 4.41992 7.39648 4.51172L6.75391 4.64966C6.72266 4.65649 6.69531 4.67432 6.67676 4.7002C6.6582 4.72607 6.64941 4.75781 6.65332 4.78955C6.65625 4.82129 6.6709 4.85059 6.69434 4.87207C6.71875 4.89355 6.74902 4.90527 6.78027 4.90552L6.80762 4.90259L7.44727 4.76611L7.49609 5.0249L6.86426 5.17603C6.83301 5.18311 6.80664 5.20166 6.78809 5.22754C6.76953 5.25366 6.76172 5.2854 6.76562 5.31689C6.76953 5.34839 6.78418 5.37744 6.80762 5.39844C6.83203 5.41968 6.8623 5.43115 6.89355 5.43115C6.9043 5.4314 6.91406 5.43018 6.92383 5.42749L7.55566 5.27661L7.61328 5.50537L7.01367 5.69336C6.98145 5.70337 6.9541 5.72632 6.9375 5.75659C6.92188 5.78711 6.91895 5.82251 6.92871 5.85522C6.93945 5.88818 6.96191 5.91553 6.99219 5.9314C7.02246 5.94727 7.05762 5.95044 7.09082 5.94019L7.69043 5.7522L7.69824 5.74805C7.73047 5.83105 7.76465 5.91113 7.79883 5.98633L7.25977 6.17749C7.24316 6.18286 7.22852 6.19165 7.21484 6.20288C7.20215 6.21411 7.19238 6.22803 7.18457 6.24341C7.17969 6.25269 7.17676 6.2627 7.1748 6.27295L7.17188 6.29272C7.1709 6.30981 7.17285 6.32715 7.17871 6.34326C7.18457 6.35938 7.19336 6.37427 7.20508 6.38696C7.21582 6.39966 7.23047 6.41016 7.24609 6.41724C7.26172 6.42456 7.27832 6.42871 7.29492 6.42944C7.3125 6.43018 7.3291 6.42725 7.3457 6.42139L7.89844 6.22559L7.91504 6.21558C7.95703 6.29077 7.99902 6.36157 8.04395 6.42798L7.49609 6.71997L7.47559 6.73145L7.4541 6.75098C7.44238 6.76392 7.43359 6.7793 7.42773 6.7959C7.42188 6.81274 7.41992 6.83032 7.4209 6.8479L7.42676 6.87476L7.43555 6.89795C7.44434 6.91357 7.45508 6.92725 7.46875 6.93823C7.48242 6.94946 7.49805 6.95752 7.51562 6.96216L7.54785 6.9668L7.56738 6.96582L7.59668 6.95801L7.61621 6.94824L8.17773 6.64868L8.19531 6.63428C8.2373 6.68628 8.2793 6.7356 8.32324 6.78125L7.84961 7.20874C7.82422 7.23169 7.80957 7.26367 7.80762 7.2981C7.80566 7.33228 7.81738 7.36572 7.84082 7.39136C7.85156 7.40405 7.86523 7.41431 7.88086 7.42163C7.89648 7.42896 7.91309 7.43311 7.92969 7.43408C7.94629 7.43481 7.96387 7.43237 7.97949 7.42676C7.99512 7.4209 8.00977 7.41211 8.02246 7.40088L8.50098 6.96948L8.50977 6.95703C8.57422 7.01172 8.6416 7.06299 8.70996 7.11157L8.38184 7.62744C8.36426 7.65649 8.35938 7.69067 8.36719 7.72339C8.37207 7.74219 8.38086 7.75928 8.39258 7.77417C8.40137 7.78516 8.41211 7.79468 8.42383 7.80249C8.45117 7.82056 8.48535 7.8269 8.51855 7.82031C8.55078 7.81348 8.58008 7.79443 8.59961 7.76685M9.33594 10.4265V9.73657L9.05957 9.7334C7.98633 9.72559 6.51074 9.73096 5.53418 9.72559V10.4265H9.33594ZM9.59375 10.4265H11.0068C11.6494 10.427 11.2139 9.70654 11.2139 9.70654C10.6768 9.74316 10.1348 9.75342 9.59375 9.73657V10.4265Z"></path></svg>