<svg xmlns="http://www.w3.org/2000/svg" viewBox="0 0 21 24" height="24" width="21"><title>ice_cream.svg</title><rect fill="none" x="0" y="0" width="21" height="24"></rect><path fill="#d97200" transform="translate(2 2)" d="M11.1123 15.5334C14.0547 14.3313 16.1289 11.4402 16.1289 8.06445C16.1289 3.6106 12.5186 0 8.06445 0C3.61035 0 0 3.6106 0 8.06445C0 11.4431 2.07812 14.3364 5.02539 15.5366L7.36914 19.5967C7.67969 20.1345 8.45508 20.1345 8.76562 19.5967L11.1123 15.5334ZM11.125 5.8125C11.125 5.91797 11.1191 6.02148 11.1084 6.125H11.125C11.6084 6.125 12 6.54492 12 7.0625C12 7.3916 11.8418 7.68115 11.6025 7.84839C11.4648 7.94434 11.3008 8 11.125 8H5.875C5.3916 8 5 7.58008 5 7.0625C5 6.54492 5.3916 6.125 5.875 6.125H5.8916C5.88086 6.02148 5.875 5.91797 5.875 5.8125C5.875 4.25977 7.05078 3 8.5 3C9.94922 3 11.125 4.25977 11.125 5.8125ZM8.07715 12.7207L6.16699 8.625H10.833L8.92285 12.7207C8.88574 12.8013 8.83008 12.8677 8.7627 12.9155C8.68652 12.9697 8.5957 13 8.5 13C8.31934 13 8.15723 12.8926 8.07715 12.7207Z"></path></svg>