<svg xmlns="http://www.w3.org/2000/svg" viewBox="0 0 20 23" height="23" width="20"><title>info.svg</title><rect fill="none" x="0" y="0" width="20" height="23"></rect><path fill="#5e758d" transform="translate(1 1)" d="M11.1123 15.5334C14.0547 14.3313 16.1289 11.4402 16.1289 8.06445C16.1289 3.6106 12.5186 0 8.06445 0C3.61035 0 0 3.6106 0 8.06445C0 11.4431 2.07812 14.3364 5.02539 15.5366L7.36914 19.5967C7.67969 20.1345 8.45508 20.1345 8.76562 19.5967L11.1123 15.5334ZM5.77734 3.67407C6.43555 3.23462 7.20898 3 8 3C9.06055 3 10.0781 3.42139 10.8281 4.17163C11.5781 4.92163 12 5.93921 12 7C12 7.79102 11.7656 8.56445 11.3262 9.22217C10.8867 9.88013 10.2617 10.3928 9.53027 10.6956C8.7998 10.9983 7.99512 11.0774 7.21973 10.9231C6.44336 10.7688 5.73145 10.3879 5.17188 9.82837C4.6123 9.26904 4.23145 8.5564 4.07715 7.78027C3.92285 7.00439 4.00195 6.2002 4.30469 5.46924C4.60742 4.73828 5.12012 4.11353 5.77734 3.67407ZM8.23828 4.78662C8.16797 4.7395 8.08496 4.71436 8 4.71436C7.88672 4.71436 7.77734 4.75952 7.69727 4.83984C7.61621 4.92017 7.57129 5.0293 7.57129 5.14282C7.57129 5.22754 7.59668 5.31055 7.64355 5.38086C7.69043 5.45142 7.75781 5.50635 7.83594 5.53882C7.91406 5.57129 8 5.57983 8.08398 5.56323C8.16699 5.54663 8.24316 5.50586 8.30273 5.4458C8.36328 5.38599 8.40332 5.30957 8.41992 5.22656C8.42871 5.18481 8.43066 5.14233 8.42578 5.10059C8.42188 5.05884 8.41211 5.01782 8.39551 4.97876C8.36328 4.90063 8.30859 4.8335 8.23828 4.78662ZM6.85742 8.67847V9.32153H9.14258V8.67847H8.32129V6.39282H7.14258V7.03564H7.67871V8.67847H6.85742Z"></path></svg>