<svg xmlns="http://www.w3.org/2000/svg" viewBox="0 0 21 24" height="24" width="21"><title>interior_decoration.svg</title><rect fill="none" x="0" y="0" width="21" height="24"></rect><path fill="#5e758d" transform="translate(2 2)" d="M16.1289 8.06445C16.1289 11.4402 14.0547 14.3313 11.1123 15.5334L8.76562 19.5967C8.45508 20.1345 7.67969 20.1345 7.36914 19.5967L5.02539 15.5366C2.07812 14.3364 0 11.4431 0 8.06445C0 3.6106 3.61035 0 8.06445 0C12.5186 0 16.1289 3.6106 16.1289 8.06445ZM6.03516 5.84741V6.25415H10.1025V5.84741C10.1025 5.52441 10.2305 5.21436 10.459 4.9856C10.5596 4.88477 10.6758 4.80322 10.8027 4.74365C10.9629 4.66821 11.1396 4.62769 11.3203 4.6272C11.3193 4.52075 11.3105 4.41455 11.292 4.30981C11.2656 4.18042 11.2246 4.05542 11.1689 3.93726C11.0898 3.76685 10.9814 3.61084 10.8467 3.47656C10.6191 3.24902 10.3291 3.09399 10.0127 3.03125C9.85645 3 9.66699 3 9.28906 3H6.84863C6.46973 3 6.28125 3 6.12402 3.03125C5.80859 3.09399 5.51855 3.24902 5.29102 3.47656C5.06348 3.7041 4.9082 3.99414 4.8457 4.30981C4.82715 4.41455 4.81738 4.52075 4.81738 4.6272C5.14062 4.62793 5.4502 4.75684 5.67871 4.9856C5.76855 5.07593 5.84277 5.17871 5.90039 5.29004C5.98828 5.46094 6.03516 5.65186 6.03516 5.84741ZM5.44629 8.28809H10.6895C10.7998 8.28809 10.9092 8.27563 11.0166 8.25073V8.69507C11.0166 8.77588 11.0488 8.85352 11.1064 8.91064C11.1357 8.93994 11.1699 8.96265 11.207 8.97778C11.2432 8.99243 11.2822 9 11.3223 9C11.4033 9 11.4805 8.96777 11.5381 8.91064C11.5947 8.85352 11.627 8.77588 11.627 8.69507V7.94287C11.7871 7.80713 11.915 7.63843 12.0029 7.44824C12.0908 7.25806 12.1357 7.05103 12.1357 6.84155V5.84741C12.1357 5.63184 12.0498 5.4248 11.8975 5.27222C11.7451 5.11963 11.5381 5.03394 11.3223 5.03394C11.1064 5.03394 10.8994 5.11963 10.7471 5.27222C10.6641 5.35474 10.6016 5.45288 10.5605 5.55981C10.5264 5.65088 10.5088 5.74829 10.5088 5.84741V6.33569C10.5088 6.42188 10.4746 6.50464 10.4131 6.56567C10.3525 6.62671 10.2695 6.66113 10.1826 6.66113H5.95215C5.91895 6.66113 5.88574 6.65601 5.85449 6.64624C5.80566 6.63086 5.75977 6.60327 5.72266 6.56567C5.66113 6.50464 5.62695 6.42188 5.62695 6.33569V5.84741C5.62695 5.63184 5.54102 5.4248 5.38867 5.27222C5.23633 5.11963 5.0293 5.03394 4.81348 5.03394C4.59766 5.03394 4.39062 5.11963 4.23828 5.27222C4.08594 5.4248 4 5.63184 4 5.84741V6.84155C4 7.05103 4.04492 7.25806 4.13281 7.44824C4.2207 7.63843 4.34863 7.80713 4.50879 7.94287V8.69507C4.50879 8.77588 4.54102 8.85352 4.59766 8.91064C4.63281 8.94531 4.6748 8.9707 4.7207 8.9856C4.75 8.99512 4.78125 9 4.81348 9C4.89453 9 4.97168 8.96777 5.0293 8.91064C5.08691 8.85352 5.11816 8.77588 5.11816 8.69507V8.25073C5.22656 8.27563 5.33594 8.28809 5.44629 8.28809Z"></path></svg>