<svg xmlns="http://www.w3.org/2000/svg" viewBox="0 0 20 23" height="23" width="20"><title>jewelry.svg</title><rect fill="none" x="0" y="0" width="20" height="23"></rect><path fill="#5e758d" transform="translate(1 1)" d="M11.1123 15.5334C14.0547 14.3313 16.1289 11.4402 16.1289 8.06445C16.1289 3.6106 12.5186 0 8.06445 0C3.61035 0 0 3.6106 0 8.06445C0 11.4431 2.07812 14.3364 5.02539 15.5366L7.36914 19.5967C7.67969 20.1345 8.45508 20.1345 8.76562 19.5967L11.1123 15.5334ZM5.99902 10.5317C5.81641 10.4397 5.6416 10.3347 5.47656 10.218C4.98828 9.87109 4.59961 9.42822 4.34473 8.92578C4.08887 8.42334 3.97266 7.87524 4.00586 7.32593C4.03809 6.77686 4.21973 6.24219 4.53418 5.76587C4.84766 5.28931 5.28711 4.88428 5.81445 4.58398V4.83447C5.81445 5.07739 5.91309 5.3125 6.0918 5.49805C5.61816 5.84058 5.27734 6.30249 5.11523 6.8208C4.95312 7.33887 4.97754 7.88818 5.18652 8.39355C5.39551 8.89893 5.77734 9.33569 6.28125 9.64453C6.78418 9.95337 7.38477 10.1189 8 10.1189C8.61523 10.1189 9.21582 9.95337 9.71973 9.64453C10.0732 9.42749 10.3672 9.14746 10.583 8.82471C10.6748 8.68823 10.752 8.54395 10.8135 8.39355C11.0225 7.88818 11.0479 7.33887 10.8857 6.8208C10.8135 6.58862 10.7041 6.36792 10.5635 6.16406C10.3906 5.91284 10.1699 5.68726 9.9082 5.49805C10.0879 5.3125 10.1865 5.07739 10.1855 4.83447V4.58398C10.6406 4.84277 11.0303 5.17993 11.3311 5.57446C11.6309 5.96899 11.8369 6.41284 11.9346 6.87915C12.0322 7.34521 12.0205 7.82373 11.8994 8.28589C11.7783 8.7478 11.5518 9.18335 11.2314 9.56616C11.083 9.74365 10.916 9.90796 10.7334 10.0571C10.5225 10.23 10.2891 10.3828 10.0381 10.5125C9.57129 10.7542 9.05273 10.9099 8.51465 10.9709C7.97656 11.032 7.42871 10.9966 6.90723 10.8672C6.58887 10.7883 6.28418 10.6755 5.99902 10.5317ZM9.26367 5.02563C9.24805 5.04175 9.23047 5.0564 9.21094 5.06934L8.20215 5.72974C8.14355 5.76782 8.07324 5.78857 8 5.78857C7.92773 5.78857 7.85645 5.76782 7.79883 5.72974L6.79004 5.06934C6.74805 5.04199 6.71387 5.00659 6.69043 4.96582C6.66699 4.92505 6.65527 4.88013 6.65527 4.83447V3.95386C6.65527 3.92651 6.65918 3.89941 6.66699 3.87329C6.67285 3.85596 6.68066 3.83911 6.69043 3.82275C6.71387 3.78198 6.74805 3.74658 6.79004 3.71924L7.79883 3.05859C7.85645 3.02051 7.92773 3 8 3C8.0332 3 8.06641 3.00415 8.09766 3.01245C8.13477 3.02222 8.16992 3.03784 8.20215 3.05859L9.21094 3.71924C9.25293 3.74658 9.28613 3.78198 9.30957 3.82275C9.33301 3.86353 9.3457 3.90845 9.3457 3.95386V4.83447C9.3457 4.88013 9.33301 4.92505 9.30957 4.96582C9.29688 4.9873 9.28223 5.00757 9.26367 5.02563Z"></path></svg>