<svg xmlns="http://www.w3.org/2000/svg" viewBox="0 0 20 23" height="23" width="20"><title>kiosk.svg</title><rect fill="none" x="0" y="0" width="20" height="23"></rect><path fill="#5e758d" transform="translate(1 1)" d="M11.1123 15.5334C14.0547 14.3313 16.1289 11.4402 16.1289 8.06445C16.1289 3.6106 12.5186 0 8.06445 0C3.61035 0 0 3.6106 0 8.06445C0 11.4431 2.07812 14.3364 5.02539 15.5366L7.36914 19.5967C7.67969 20.1345 8.45508 20.1345 8.76562 19.5967L11.1123 15.5334ZM4.3291 3.32959C4.54004 3.11841 4.82617 3 5.125 3H10.875C11.0225 3 11.1689 3.02905 11.3057 3.08569C11.4424 3.14209 11.5664 3.2251 11.6709 3.32959C11.7754 3.43408 11.8574 3.55811 11.9141 3.69458C11.9502 3.78271 11.9756 3.875 11.9893 3.96924C11.9961 4.02075 12 4.07275 12 4.125V7.375C12 7.52271 11.9707 7.66895 11.9141 7.80542C11.8574 7.94189 11.7754 8.06592 11.6709 8.17041C11.5664 8.2749 11.4424 8.35791 11.3057 8.41431C11.1689 8.47095 11.0225 8.5 10.875 8.5H9.25V12.25H10.125C10.2246 12.25 10.3203 12.2896 10.3906 12.3599C10.4258 12.395 10.4531 12.4363 10.4717 12.4812C10.4902 12.5264 10.5 12.5752 10.5 12.625C10.5 12.7244 10.4609 12.8198 10.3906 12.8901C10.3203 12.9604 10.2246 13 10.125 13H5.875C5.77539 13 5.67969 12.9604 5.60938 12.8901C5.53906 12.8198 5.5 12.7244 5.5 12.625C5.5 12.5256 5.53906 12.4302 5.60938 12.3599C5.67969 12.2896 5.77539 12.25 5.875 12.25H6.75V8.5H5.125C4.82617 8.5 4.54004 8.38159 4.3291 8.17041C4.11816 7.95947 4 7.67334 4 7.375V4.125C4 3.82666 4.11816 3.54053 4.3291 3.32959ZM7.5 8.5V12.25H8.5V8.5H7.5Z"></path></svg>