<svg xmlns="http://www.w3.org/2000/svg" viewBox="0 0 20 23" height="23" width="20"><title>lamp.svg</title><rect fill="none" x="0" y="0" width="20" height="23"></rect><path fill="#5e758d" transform="translate(1 1)" d="M11.1123 15.5334C14.0547 14.3313 16.1289 11.4402 16.1289 8.06445C16.1289 3.6106 12.5186 0 8.06445 0C3.61035 0 0 3.6106 0 8.06445C0 11.4431 2.07812 14.3364 5.02539 15.5366L7.36914 19.5967C7.67969 20.1345 8.45508 20.1345 8.76562 19.5967L11.1123 15.5334ZM5 6.76611L6.71875 3H10.1484L12 6.76611H5ZM8.05078 7.80518V7.15576H8.95898V7.80518H8.05078ZM7.50684 8.3064C7.68945 8.22949 7.85352 8.19482 7.87305 8.19482H9.13672C9.15137 8.19482 9.23535 8.21167 9.34668 8.24829C9.39453 8.26392 9.44824 8.2832 9.50293 8.3064C9.62305 8.35718 9.75977 8.42456 9.89844 8.50586C9.96875 8.54736 10.0391 8.59229 10.1084 8.64062C10.5195 8.92725 10.8555 9.32031 10.8555 9.73169C10.8555 11.0151 10.2861 11.9922 9.67383 13H7.33594C6.72363 11.9922 6.1543 11.0151 6.1543 9.73169C6.1543 9.32031 6.49023 8.92725 6.90137 8.64062C7.10742 8.49731 7.3252 8.38306 7.50684 8.3064Z"></path></svg>