<svg xmlns="http://www.w3.org/2000/svg" viewBox="0 0 20 23" height="23" width="20"><title>laundry.svg</title><rect fill="none" x="0" y="0" width="20" height="23"></rect><path fill="#5e758d" transform="translate(1 1)" d="M11.1123 15.5334C14.0547 14.3313 16.1289 11.4402 16.1289 8.06445C16.1289 3.6106 12.5186 0 8.06445 0C3.61035 0 0 3.6106 0 8.06445C0 11.4431 2.07812 14.3364 5.02539 15.5366L7.36914 19.5967C7.67969 20.1345 8.45508 20.1345 8.76562 19.5967L11.1123 15.5334ZM4 12.3064V5.12769H12V12.3064C12 12.6191 11.6914 13 11.3799 13H4.56641C4.25391 13 4 12.6191 4 12.3064ZM5.81543 8.64111C5.81543 9.84717 6.79004 10.8247 7.99219 10.8247C9.19336 10.8247 10.168 9.84741 10.168 8.64111C10.168 7.43481 9.19336 6.45752 7.99219 6.45752C6.79004 6.45752 5.81543 7.43481 5.81543 8.64111ZM4.56641 3H11.3799C11.6289 3 11.876 3.14038 11.9648 3.35669C11.9873 3.41113 12 3.47021 12 3.53296V4.70215H4V3.53296C4 3.21973 4.25391 3 4.56641 3ZM4.41016 4.27661H6.66699V3.42554H4.41016V4.27661ZM10.1309 3.75146C10.1309 4.00879 10.3379 4.21704 10.5938 4.21704C10.8506 4.21704 11.0576 4.00854 11.0576 3.75146C11.0576 3.49463 10.8506 3.28638 10.5938 3.28638C10.3379 3.28638 10.1309 3.49463 10.1309 3.75146Z"></path></svg>