<svg xmlns="http://www.w3.org/2000/svg" viewBox="0 0 20 23" height="23" width="20"><title>level_crossing.svg</title><rect fill="none" x="0" y="0" width="20" height="23"></rect><path fill="#5e758d" transform="translate(1 1)" d="M11.1123 15.5334C14.0547 14.3313 16.1289 11.4402 16.1289 8.06445C16.1289 3.6106 12.5186 0 8.06445 0C3.61035 0 0 3.6106 0 8.06445C0 11.4431 2.07812 14.3364 5.02539 15.5366L7.36914 19.5967C7.67969 20.1345 8.45508 20.1345 8.76562 19.5967L11.1123 15.5334ZM5.0625 3.87402V3H5.37012V3.87646L5.21875 3.95288L5.0625 3.87402ZM4 4.06372L4.38867 3.91724L4.83887 4.1438L4.49902 4.31494L4 4.06372ZM4 4.94824L6.04883 3.91724L6.4375 4.06372L4.38867 5.09473L4 4.94824ZM5.59863 4.86816L5.93848 4.69702L6.4375 4.94824L6.04883 5.09473L5.59863 4.86816ZM10.6455 4.98096L10.9316 4.79419L10.959 4.84912L10.791 5.55713L10.457 5.77563L10.6455 4.98096ZM5.0625 5.13794L5.21875 5.05908L5.37012 5.1355V6.2478C5.30469 6.32715 5.25684 6.42432 5.2334 6.52979C5.20508 6.40479 5.14453 6.2937 5.0625 6.20972V5.13794ZM9.93262 5.44604L10.2676 5.22754L10.0791 6.02246L9.74512 6.24097L9.93262 5.44604ZM9.2207 5.91138L9.55566 5.69287L9.36719 6.48755L9.03223 6.70605L9.2207 5.91138ZM8.50879 6.37646L8.84277 6.15796L8.6543 6.95264L8.32031 7.17114L8.50879 6.37646ZM4.51367 6.46777C4.55859 6.42188 4.61914 6.39429 4.68555 6.39429C4.8291 6.39429 4.94238 6.52271 4.94238 6.6853C4.94238 6.84814 4.8291 6.97632 4.68555 6.97632C4.54199 6.97632 4.42871 6.84814 4.42871 6.6853C4.42871 6.59814 4.46094 6.52075 4.51367 6.46777ZM5.59961 6.47827C5.64551 6.42627 5.70996 6.39429 5.78125 6.39429C5.92578 6.39429 6.03809 6.52271 6.03809 6.6853C6.03809 6.84814 5.92578 6.97632 5.78125 6.97632C5.6377 6.97632 5.52441 6.84814 5.52441 6.6853C5.52441 6.60376 5.55273 6.53076 5.59961 6.47827ZM7.7959 6.84155L8.13086 6.62305L7.94238 7.41797L7.60742 7.63623L7.7959 6.84155ZM5.0625 7.16089C5.14453 7.0769 5.20508 6.96606 5.2334 6.84082C5.25684 6.94653 5.30469 7.04346 5.37012 7.1228V8.02271L5.0625 8.22388V7.16089ZM7.08398 7.30664L7.41895 7.08813L7.23047 7.88306L6.89551 8.10156L7.08398 7.30664ZM6.37207 7.77197L6.70605 7.55347L6.51758 8.34814L6.18359 8.56665L6.37207 7.77197ZM5.42969 8.38721L5.99414 8.01855L5.80566 8.81348L5.66992 8.9021L5.42969 8.38721ZM4.31348 9.11621L5.16211 8.56177L5.40234 9.07666L4.56934 9.62036L4.31348 9.11621ZM4.54785 10.0376L5.88477 9.16479V11.9612H4.54785V10.0376ZM11.6914 12V9.20679H12V12H11.6914Z"></path></svg>