<svg xmlns="http://www.w3.org/2000/svg" viewBox="0 0 20 23" height="23" width="20"><title>library.svg</title><rect fill="none" x="0" y="0" width="20" height="23"></rect><path fill="#5e758d" transform="translate(1 1)" d="M11.1123 15.5334C14.0547 14.3313 16.1289 11.4402 16.1289 8.06445C16.1289 3.6106 12.5186 0 8.06445 0C3.61035 0 0 3.6106 0 8.06445C0 11.4431 2.07812 14.3364 5.02539 15.5366L7.36914 19.5967C7.67969 20.1345 8.45508 20.1345 8.76562 19.5967L11.1123 15.5334ZM4 3.72925C4 3.32666 4.31934 3 4.71387 3H4.99902C5.39355 3 5.71289 3.32617 5.71289 3.72852V9.26782C5.71289 9.67017 5.39355 9.99683 5 9.99683H4.71387C4.5293 9.99683 4.36035 9.92456 4.2334 9.80615C4.08984 9.67285 4 9.48096 4 9.26782V3.72925ZM6.66113 3.08691C6.76172 3.03149 6.87695 3 6.99902 3H7.2832C7.37402 3 7.46289 3.01758 7.5459 3.05103C7.63574 3.08716 7.71875 3.14209 7.78809 3.21338C7.92188 3.34985 7.99707 3.5354 7.99805 3.72852V9.26782C7.99805 9.46094 7.92285 9.64624 7.78906 9.78296C7.65527 9.91968 7.47363 9.99658 7.28418 9.99683H6.99902C6.60449 9.99683 6.28418 9.67017 6.28418 9.26782V3.72925C6.28418 3.45166 6.43652 3.20996 6.66113 3.08691ZM9.90234 4.22827C10.0703 4.30566 10.2012 4.44604 10.2695 4.61987L11.9482 8.87988C11.9844 8.97119 12.002 9.06909 12 9.16772C11.998 9.26611 11.9766 9.36328 11.9365 9.45288C11.8965 9.54272 11.8389 9.62329 11.7676 9.6897C11.6973 9.75635 11.6133 9.80737 11.5225 9.84009L11.1895 9.95898C10.8291 10.0874 10.4336 9.90479 10.292 9.54321L8.61328 5.28247C8.57715 5.19116 8.55957 5.09326 8.56152 4.99487C8.56445 4.89648 8.58594 4.79956 8.62598 4.70972C8.66504 4.62012 8.72266 4.53955 8.79395 4.47314C8.86523 4.40674 8.94824 4.35547 9.03906 4.323L9.37207 4.20386C9.5459 4.14209 9.73535 4.15088 9.90234 4.22827Z"></path></svg>