<svg xmlns="http://www.w3.org/2000/svg" viewBox="0 0 20 23" height="23" width="20"><title>locksmith.svg</title><rect fill="none" x="0" y="0" width="20" height="23"></rect><path fill="#5e758d" transform="translate(1 1)" d="M11.1123 15.5334C14.0547 14.3313 16.1289 11.4402 16.1289 8.06445C16.1289 3.6106 12.5186 0 8.06445 0C3.61035 0 0 3.6106 0 8.06445C0 11.4431 2.07812 14.3364 5.02539 15.5366L7.36914 19.5967C7.67969 20.1345 8.45508 20.1345 8.76562 19.5967L11.1123 15.5334ZM11.2002 6.75H11.6318C11.7676 6.75 12 6.94922 12 7.06128V11.8347C12 11.8933 11.9365 11.9358 11.8564 11.9629C11.7832 11.9878 11.6963 12 11.6318 12H4.32227C4.18652 12 4 11.9468 4 11.8347V7.06128C4 6.94922 4.18652 6.75 4.32227 6.75H4.7998V5.13159C4.7998 4.44067 5.26074 3.74902 5.89453 3.34839C6.2373 3.13159 6.63086 3 7.0293 3H8.9248C10.0605 3 11.2002 4.06689 11.2002 5.13159V6.75ZM7.41699 9.3811L7.0127 11.25H8.94238L8.53809 9.38647C8.78223 9.22363 8.94238 8.88159 8.94238 8.58081C8.94238 8.08545 8.50977 7.69385 7.97754 7.69385C7.44434 7.69385 7.0127 8.11597 7.0127 8.61157C7.0127 8.91235 7.17285 9.21851 7.41699 9.3811ZM6.2002 6.75H9.7998V5.13159C9.7998 4.64819 9.41602 4.3125 8.90625 4.3125H7.04785C6.53906 4.3125 6.2002 4.64819 6.2002 5.13159V6.75Z"></path></svg>