<svg xmlns="http://www.w3.org/2000/svg" viewBox="0 0 21 24" height="24" width="21"><title>lodging.svg</title><rect fill="none" x="0" y="0" width="21" height="24"></rect><path fill="#d97200" transform="translate(2 2)" d="M11.1123 15.5334C14.0547 14.3313 16.1289 11.4402 16.1289 8.06445C16.1289 3.6106 12.5186 0 8.06445 0C3.61035 0 0 3.6106 0 8.06445C0 11.4431 2.07812 14.3364 5.02539 15.5366L7.36914 19.5967C7.67969 20.1345 8.45508 20.1345 8.76562 19.5967L11.1123 15.5334ZM4 4.28564C4 4.11426 4.10645 4 4.2666 4C4.42676 4 4.5332 4.11426 4.5332 4.28564V8.28564H11.7334C11.7842 8.28564 11.8291 8.29688 11.8672 8.31763C11.9502 8.36304 12 8.45386 12 8.57153V9.71436C12 9.88574 11.8936 10 11.7334 10C11.5732 10 11.4668 9.88574 11.4668 9.71436V8.85718H4.5332V9.71436C4.5332 9.80811 4.50098 9.88477 4.44629 9.93506C4.40039 9.97656 4.33887 10 4.2666 10C4.10645 10 4 9.88574 4 9.71436V4.28564ZM5.06641 5.14282C5.06641 4.68579 5.44043 4.28564 5.86621 4.28564C6.29297 4.28564 6.66699 4.68579 6.66699 5.14282C6.66699 5.6001 6.29297 6 5.86621 6C5.44043 6 5.06641 5.6001 5.06641 5.14282ZM6.93359 5.71436C6.93359 5.71436 6.93359 4.85718 7.7334 4.85718H10.667C10.667 4.85718 11.0791 4.85718 11.4453 5.10303C11.7373 5.29907 12 5.65161 12 6.28564V7.71436H5.33301C5.17285 7.71436 5.06641 7.6001 5.06641 7.42847V6.85718C5.06641 6.74414 5.1123 6.65601 5.19043 6.60889C5.23047 6.58472 5.27832 6.57153 5.33301 6.57153H6.93359V5.71436Z"></path></svg>