<svg xmlns="http://www.w3.org/2000/svg" viewBox="0 0 21 24" height="24" width="21"><title>mall.svg</title><rect fill="none" x="0" y="0" width="21" height="24"></rect><path fill="#5e758d" transform="translate(2 2)" d="M11.1123 15.5334C14.0547 14.3313 16.1289 11.4402 16.1289 8.06445C16.1289 3.6106 12.5186 0 8.06445 0C3.61035 0 0 3.6106 0 8.06445C0 11.4431 2.07812 14.3364 5.02539 15.5366L7.36914 19.5967C7.67969 20.1345 8.45508 20.1345 8.76562 19.5967L11.1123 15.5334ZM10.2227 5.14282H11.1113C11.5996 5.14282 12 5.52856 12 6V11.1428C12 11.6143 11.5996 12 11.1113 12H4.88867C4.5791 12 4.30469 11.845 4.14551 11.6111C4.05371 11.4763 4 11.3152 4 11.1428L4.00488 6C4.00488 5.52856 4.40039 5.14282 4.88867 5.14282H5.77734C5.77734 3.95996 6.77344 3 8 3C9.22656 3 10.2227 3.95996 10.2227 5.14282ZM9.33301 5.14282C9.33301 4.4314 8.7373 3.85718 8 3.85718C7.2627 3.85718 6.66699 4.4314 6.66699 5.14282H9.33301ZM5.77734 6C5.77734 7.18286 6.77344 8.14282 8 8.14282C9.22656 8.14282 10.2227 7.18286 10.2227 6H9.33301C9.33301 6.71143 8.7373 7.28564 8 7.28564C7.2627 7.28564 6.66699 6.71143 6.66699 6H5.77734Z"></path></svg>