<svg xmlns="http://www.w3.org/2000/svg" viewBox="0 0 21 24" height="24" width="21"><title>marketplace.svg</title><rect fill="none" x="0" y="0" width="21" height="24"></rect><path fill="#5e758d" transform="translate(2 2)" d="M11.1123 15.5334C14.0547 14.3313 16.1289 11.4402 16.1289 8.06445C16.1289 3.6106 12.5186 0 8.06445 0C3.61035 0 0 3.6106 0 8.06445C0 11.4431 2.07812 14.3364 5.02539 15.5366L7.36914 19.5967C7.67969 20.1345 8.45508 20.1345 8.76562 19.5967L11.1123 15.5334ZM4.44434 5H11.5557V5.875H4.44434V5ZM12 8.5V9.375H11.5557V12H10.667V9.375H8.88867V12H4.44434V9.375H4V8.5L4.44434 6.3125H11.5557L12 8.5ZM5.33301 11.125H8V9.375H5.33301V11.125Z"></path></svg>