<svg xmlns="http://www.w3.org/2000/svg" viewBox="0 0 20 23" height="23" width="20"><title>massage.svg</title><rect fill="none" x="0" y="0" width="20" height="23"></rect><path fill="#5e758d" transform="translate(1 1)" d="M11.1123 15.5334C14.0547 14.3313 16.1289 11.4402 16.1289 8.06445C16.1289 3.6106 12.5186 0 8.06445 0C3.61035 0 0 3.6106 0 8.06445C0 11.4431 2.07812 14.3364 5.02539 15.5366L7.36914 19.5967C7.67969 20.1345 8.45508 20.1345 8.76562 19.5967L11.1123 15.5334ZM9.18262 3.3877C9.15332 3.23242 9.18262 3.14233 9.26855 3.08521C9.46875 2.95435 9.90625 2.979 10.0137 3.12598C10.0645 3.19971 10.1074 3.41211 10.1074 3.6001C10.0996 4.0415 9.99219 5.03882 9.94922 5.03882C9.94141 5.03882 9.90918 5.01562 9.86328 4.97705C9.81934 4.93945 9.7627 4.88672 9.70605 4.82617C9.58398 4.71191 9.39062 4.59741 9.27539 4.57275C9.10352 4.53198 9.08203 4.49927 9.11816 4.35205C9.21777 3.99243 9.27539 3.64917 9.21777 3.69019C9.18945 3.70654 9.14648 3.86987 9.11816 4.0415C9.06738 4.4502 8.93164 4.57275 8.60938 4.53198C8.47266 4.51562 8.3584 4.52368 8.3584 4.5564C8.3584 4.58911 8.30078 4.63013 8.23633 4.64648C8.16504 4.66284 8.36523 4.66284 8.6875 4.64648C9.36133 4.60547 9.64062 4.72803 9.86328 5.14502C10.0566 5.50464 10.0498 6.26489 9.85645 6.75513C9.77734 6.95947 9.74902 7.08228 9.79883 7.0249C9.82129 6.99927 9.85742 6.92432 9.89746 6.82568C9.93359 6.73608 9.97266 6.6272 10.0068 6.51831L10.1289 6.10132L10.2715 6.28931C10.4668 6.53027 10.6143 6.87622 10.7188 7.35742C10.8057 7.75757 10.8633 8.25122 10.8955 8.85596C10.96 9.9021 11.0605 10.3108 11.5977 11.5205C11.8271 12.0601 12.0137 12.5095 11.999 12.5259C11.9414 12.5833 10.1504 12.9919 10.1143 12.9509C10.0928 12.9265 9.94922 12.3789 9.79199 11.7332C9.55469 10.7605 9.46191 10.4744 9.2041 10.0657L8.89551 9.5752L8.85254 8.5127L8.81641 7.44995L8.80273 8.80688C8.79492 9.55884 8.82422 10.3599 8.85938 10.605C8.96777 11.2427 8.95996 12.1826 8.8457 12.4441C8.75879 12.6531 8.58398 12.8135 8.35938 12.907C8.21387 12.9673 8.04785 13 7.87109 13C7.50098 12.9912 7.2627 12.874 7.09375 12.5422C6.94531 12.2502 6.85059 11.792 6.7666 11.0955C6.69531 10.458 6.69531 10.3354 6.7959 10.2126C6.97363 9.97119 7 9.89575 6.91113 9.98071C6.86816 10.0225 6.79688 10.1028 6.70215 10.2209C6.42285 10.5806 6.35156 10.7605 6.08594 11.7659C5.9209 12.387 5.77051 12.9182 5.74902 12.9509C5.71289 12.9919 4.06445 12.5095 4 12.4441C3.99512 12.4314 4.12012 12.1172 4.2998 11.6899L4.46582 11.2998L4.94629 10.1799L5.01074 9.22363C5.08203 8.05493 5.22559 7.29468 5.43359 6.94312C5.62695 6.63257 6.04297 6.34644 6.30859 6.34644H6.49414V7.24561C6.49414 7.60229 6.49902 7.82544 6.51367 7.96021C6.5293 8.10034 6.55469 8.14478 6.59473 8.14478C6.65234 8.14478 6.72363 8.11206 6.74512 8.06299C6.77441 8.01392 6.73828 8.00586 6.67383 8.03857C6.56641 8.07935 6.55859 7.99756 6.58008 7.23755C6.59473 6.77148 6.6377 6.31396 6.67383 6.23218C6.7168 6.11768 6.70996 6.09326 6.65234 6.13403C6.60352 6.16504 6.5791 6.09253 6.57031 5.87378C6.56738 5.8042 6.56641 5.71973 6.56641 5.61914C6.56641 4.8916 6.66699 4.63013 6.93848 4.63013C7.10352 4.63013 7.13965 4.59741 7.13965 4.41748C7.13965 4.06616 7.26172 3.89453 7.52637 3.89453C7.6084 3.89453 7.66699 3.88452 7.71387 3.85889C7.76953 3.82812 7.80664 3.7749 7.8418 3.69019C7.90625 3.52661 7.97852 3.48584 8.17188 3.48584C8.30078 3.48584 8.45117 3.42847 8.50098 3.36304C8.55176 3.29785 8.70215 3.24048 8.83789 3.24048C9.01758 3.24048 9.09668 3.28955 9.15332 3.42041C9.19141 3.52124 9.20703 3.56274 9.20605 3.53857C9.20605 3.52148 9.19727 3.47192 9.18262 3.3877Z"></path></svg>