<svg xmlns="http://www.w3.org/2000/svg" viewBox="0 0 20 23" height="23" width="20"><title>mobile_phone.svg</title><rect fill="none" x="0" y="0" width="20" height="23"></rect><path fill="#5e758d" transform="translate(1 1)" d="M11.1123 15.5334C14.0547 14.3313 16.1289 11.4402 16.1289 8.06445C16.1289 3.6106 12.5186 0 8.06445 0C3.61035 0 0 3.6106 0 8.06445C0 11.4431 2.07812 14.3364 5.02539 15.5366L7.36914 19.5967C7.67969 20.1345 8.45508 20.1345 8.76562 19.5967L11.1123 15.5334ZM6.0498 3H10.9502C11.5293 3 12 3.41992 12 3.9375V12.0625C12 12.5801 11.5293 13 10.9502 13H6.0498C5.4707 13 5 12.5801 5 12.0625V3.9375C5 3.41992 5.4707 3 6.0498 3ZM7.7998 11.75C7.7998 12.0957 8.11328 12.375 8.5 12.375C8.88672 12.375 9.2002 12.0957 9.2002 11.75C9.2002 11.4043 8.88672 11.125 8.5 11.125C8.11328 11.125 7.7998 11.4043 7.7998 11.75ZM10.6875 10.5C10.832 10.5 10.9502 10.3945 10.9502 10.2656V4.17188C10.9502 4.04297 10.832 3.9375 10.6875 3.9375H6.3125C6.16797 3.9375 6.0498 4.04297 6.0498 4.17188V10.2656C6.0498 10.3945 6.16797 10.5 6.3125 10.5H10.6875Z"></path></svg>