<svg xmlns="http://www.w3.org/2000/svg" viewBox="0 0 21 24" height="24" width="21"><title>monastry.svg</title><rect fill="none" x="0" y="0" width="21" height="24"></rect><path fill="#5e758d" transform="translate(2 2)" d="M11.1123 15.5334C14.0547 14.3313 16.1289 11.4402 16.1289 8.06445C16.1289 3.6106 12.5186 0 8.06445 0C3.61035 0 0 3.6106 0 8.06445C0 11.4431 2.07812 14.3364 5.02539 15.5366L7.36914 19.5967C7.67969 20.1345 8.45508 20.1345 8.76562 19.5967L11.1123 15.5334ZM7.70508 3.27197C7.70508 3.19995 7.76953 3.09668 7.85059 3.04126C7.88281 3.01855 7.90527 3.00659 7.93457 3.0022C7.95508 2.99902 7.97852 2.99951 8.01074 3.00244C8.07031 3.00635 8.12695 3.02466 8.16406 3.05054C8.18457 3.06519 8.20508 3.08691 8.22363 3.11206C8.26465 3.16577 8.29492 3.23413 8.29492 3.2793C8.29492 3.34375 8.24902 3.44336 8.19531 3.49707L8.14746 3.54492L8.32812 3.55591C8.67188 3.57812 9.15234 3.71094 9.50293 3.88257C9.7041 3.98022 9.92383 4.10938 9.98145 4.16309C10.001 4.1814 10.0234 4.19629 10.0293 4.19629C10.0361 4.19629 10.0586 4.21094 10.0791 4.22754L10.1523 4.29028L10.2129 4.34375C10.2939 4.41187 10.3301 4.44287 10.3477 4.44214C10.3613 4.44141 10.3613 4.41943 10.3613 4.37891C10.3613 4.29224 10.4053 4.21094 10.4883 4.15015C10.5234 4.1228 10.582 4.10986 10.6426 4.11011C10.709 4.1106 10.7773 4.1272 10.8164 4.15918C11.0342 4.33447 10.9219 4.67944 10.6465 4.67944C10.6016 4.67944 10.582 4.68115 10.5801 4.68872C10.5791 4.69214 10.582 4.69702 10.5879 4.70361C10.6318 4.74976 10.6875 4.81616 10.7666 4.9248L10.8604 5.04492C10.8867 5.06689 11.0342 5.32715 11.1172 5.49683C11.292 5.85474 11.4199 6.31958 11.4434 6.67578C11.4551 6.84546 11.457 6.85474 11.4844 6.81958C11.5264 6.76416 11.6445 6.70532 11.709 6.70532C11.7871 6.70532 11.8994 6.76807 11.9492 6.83618C12.0098 6.92285 12.0176 7.05396 11.9658 7.13867C11.9121 7.22559 11.7998 7.29565 11.7188 7.29565C11.6465 7.29565 11.5303 7.23853 11.4863 7.18311C11.4717 7.16479 11.4648 7.1582 11.4609 7.17212C11.457 7.18359 11.4551 7.20898 11.4531 7.25317C11.4434 7.43408 11.3604 7.89893 11.3223 7.98755C11.3125 8.00781 11.2832 8.09082 11.2559 8.17188C11.1777 8.40625 10.9326 8.88403 10.8457 8.9707C10.833 8.9856 10.8145 9.01123 10.8037 9.02979C10.7852 9.06299 10.752 9.10352 10.6338 9.23828L10.5654 9.31567L10.6611 9.3269C10.793 9.34155 10.8057 9.34521 10.8535 9.40063C10.9424 9.50317 10.9492 9.62256 10.9072 9.71875C10.8408 9.87378 10.6484 9.96948 10.4736 9.8396C10.4014 9.78809 10.3594 9.70508 10.3574 9.62012C10.3574 9.55566 10.3535 9.55005 10.3242 9.57031L10.1855 9.68042L10.0879 9.76221C10.0625 9.78613 10.0361 9.80469 10.0293 9.80469L10.0059 9.81738L9.98145 9.83789C9.87207 9.93921 9.41699 10.1755 9.1709 10.2566L9.03711 10.3035L8.98633 10.323C8.92578 10.3489 8.5918 10.4153 8.41504 10.4355C8.16992 10.4614 8.15527 10.4651 8.19043 10.4927C8.24023 10.5315 8.29492 10.6533 8.29492 10.7234C8.29297 10.8083 8.21777 10.9226 8.12891 10.9707C8.08301 10.9961 8.02344 11.0046 7.96484 10.9978C7.91797 10.9922 7.87207 10.9761 7.83594 10.9504C7.77148 10.9043 7.70508 10.7881 7.70508 10.7214C7.70508 10.6931 7.71387 10.6567 7.72852 10.6206C7.74805 10.5723 7.77734 10.5247 7.80664 10.4983L7.85254 10.4558L7.66797 10.4448C7.56641 10.4392 7.45215 10.4246 7.41504 10.4153L7.33203 10.3965L7.23438 10.3765C6.89746 10.3101 6.18457 10.0002 6.04492 9.86011L5.9248 9.76782C5.86426 9.72168 5.78711 9.65894 5.75391 9.62939C5.64844 9.5354 5.63867 9.5354 5.63867 9.62207C5.63867 9.70874 5.59473 9.78979 5.51172 9.85083C5.47656 9.87842 5.43652 9.8877 5.35352 9.8877C5.27832 9.8877 5.22168 9.8728 5.17773 9.83765C5.14258 9.80981 5.11426 9.76953 5.08984 9.71436C5.00684 9.52783 5.14453 9.32129 5.35352 9.32129C5.41992 9.32129 5.43066 9.31763 5.41211 9.29736C5.36816 9.25122 5.3125 9.18481 5.2334 9.07593L5.14062 8.95605C5.10449 8.91919 5.02832 8.79004 4.92188 8.58154C4.7207 8.18677 4.58008 7.70508 4.55664 7.32886L4.54492 7.14795L4.49707 7.19604C4.44336 7.24951 4.34473 7.29565 4.2793 7.29565C4.21289 7.29565 4.09668 7.22925 4.05078 7.16455C3.99023 7.07788 3.98242 6.94702 4.03418 6.86206C4.08789 6.77539 4.2002 6.70532 4.28125 6.70532C4.31543 6.70532 4.3623 6.71899 4.40527 6.73877C4.44922 6.75879 4.48926 6.78516 4.50879 6.8103C4.53613 6.84546 4.54004 6.83081 4.56543 6.58521C4.58398 6.41675 4.64062 6.15625 4.69336 5.96973C4.72363 5.8645 4.75195 5.78296 4.77246 5.75513C4.77734 5.74414 4.7998 5.69434 4.81836 5.64453C4.85352 5.54663 5.02441 5.20898 5.04688 5.19238C5.05078 5.18896 5.06055 5.17285 5.07324 5.15112L5.09473 5.11304C5.11523 5.07617 5.13574 5.04492 5.14062 5.04492C5.14648 5.04492 5.16699 5.01904 5.18555 4.98755C5.2041 4.95435 5.2334 4.91577 5.25 4.89722C5.2959 4.84937 5.4082 4.70898 5.41406 4.69067C5.41602 4.68774 5.41113 4.68481 5.40234 4.68237C5.38867 4.67847 5.36621 4.67578 5.33887 4.67578C5.18945 4.67578 5.06738 4.55029 5.06738 4.39355C5.06738 4.2146 5.23926 4.0708 5.40625 4.10767C5.54297 4.13892 5.63867 4.2478 5.63867 4.37695C5.63867 4.45068 5.64062 4.45459 5.67188 4.43237C5.71875 4.40088 5.85449 4.29028 5.91211 4.23682C5.9375 4.2146 5.96387 4.19629 5.9707 4.19629C5.97461 4.19629 5.98535 4.18994 5.99805 4.18042L6.01855 4.16309L6.05176 4.13647L6.11816 4.09277C6.15332 4.07446 6.18652 4.05225 6.19238 4.04688C6.20117 4.03589 6.29785 3.98438 6.40137 3.93164C6.50977 3.87695 6.62598 3.82104 6.66309 3.80884L6.72363 3.78711L6.75488 3.77197C6.77539 3.7561 6.89453 3.7168 7.02148 3.68042C7.10254 3.65723 7.1875 3.63501 7.25293 3.62061C7.46094 3.57642 7.61035 3.5542 7.74316 3.54688L7.84863 3.54126L7.80273 3.49707C7.74707 3.44165 7.70508 3.34375 7.70508 3.27197ZM7.69531 5.88062L7.69922 5.01172C7.70312 4.20532 7.69922 4.14087 7.67188 4.14258C7.52051 4.15015 7.11426 4.24976 6.95801 4.31616C6.64648 4.45264 6.38086 4.604 6.21973 4.73853L6.16504 4.78467L6.78223 5.39355C7.12207 5.72925 7.41016 6.00049 7.41895 5.99487L7.56641 5.93408L7.69531 5.88062ZM9.04199 4.31616C8.9502 4.27734 8.75586 4.22021 8.6084 4.19067L8.46875 4.16333L8.38184 4.15015L8.29492 4.13892L8.29883 5.00977L8.30469 5.88062L8.43359 5.93408L8.58105 5.99487C8.5918 6.00049 8.87793 5.72925 9.21777 5.39355L9.83496 4.78467L9.78027 4.73853C9.62109 4.60571 9.35352 4.45264 9.04199 4.31616ZM6.93945 6.36572L6.3252 5.75879L5.93164 5.375C5.82617 5.27393 5.75879 5.21094 5.75391 5.21094C5.7373 5.21094 5.7334 5.21631 5.59668 5.42114C5.50488 5.56152 5.41602 5.72925 5.32031 5.94873C5.25195 6.10742 5.14062 6.56128 5.14062 6.69043C5.14062 6.69312 5.23828 6.6958 5.39551 6.698L6.00977 6.70337H6.87695L6.9043 6.63525L6.96387 6.49487L6.99707 6.42285L6.93945 6.36572ZM10.5273 5.63892C10.5273 5.60938 10.3779 5.36597 10.2949 5.26074C10.2725 5.23291 10.25 5.21094 10.2461 5.21094C10.2373 5.21094 10.0791 5.36597 9.42969 6.0061L9.00293 6.4248L9.03613 6.49683C9.05469 6.5354 9.08105 6.59814 9.0957 6.63525L9.12109 6.70337L9.99023 6.70166H10.8594L10.8477 6.60742C10.8428 6.55396 10.8262 6.46167 10.8105 6.40088L10.7773 6.25317C10.748 6.10376 10.5732 5.67212 10.542 5.67212C10.5322 5.67212 10.5273 5.65723 10.5273 5.63892ZM8.35156 6.55298C8.31543 6.52588 8.27441 6.5022 8.22656 6.48022C7.75977 6.26978 7.26758 6.76245 7.48145 7.22729C7.54785 7.37305 7.62891 7.45435 7.77344 7.52075C8.23828 7.73291 8.73047 7.23853 8.51855 6.77344C8.47559 6.67603 8.42383 6.60767 8.35156 6.55298ZM6.96387 7.50415C6.94531 7.46533 6.91895 7.40259 6.9043 7.36377L6.87695 7.29565H6.00781H5.1377L5.15039 7.37305C5.17578 7.54639 5.2207 7.76782 5.2334 7.78442C5.24023 7.7937 5.25684 7.84351 5.26855 7.89526C5.2998 8.01685 5.43457 8.32886 5.45996 8.32886C5.46777 8.32886 5.47266 8.34351 5.47266 8.36011C5.47266 8.37646 5.50488 8.43579 5.54688 8.50537C5.62402 8.6311 5.73535 8.79004 5.75391 8.79004C5.76074 8.79004 5.9082 8.64917 6.28418 8.27759L6.57031 7.99487L6.99707 7.57593L6.96387 7.50415ZM10.8311 7.49854L10.8594 7.30859C10.8594 7.30103 10.4678 7.29565 9.99023 7.29565H9.12305L9.0957 7.36377C9.08105 7.40259 9.05469 7.46533 9.03613 7.50586L9.00293 7.57593L9.26855 7.83789C10.0049 8.56299 10.2207 8.77148 10.2373 8.7771C10.2441 8.77954 10.2588 8.77222 10.2734 8.75952L10.2959 8.73657C10.3594 8.65894 10.4717 8.48193 10.4717 8.45972C10.4717 8.44873 10.4805 8.43945 10.4922 8.43945C10.4961 8.43945 10.499 8.43726 10.501 8.43408C10.5029 8.43066 10.502 8.42578 10.499 8.4209C10.4941 8.40991 10.4951 8.40259 10.5029 8.40259C10.5176 8.40259 10.5615 8.31592 10.6611 8.08887C10.7314 7.93213 10.7998 7.69214 10.8311 7.49854ZM7.69531 8.12036L7.56641 8.06665L7.41895 8.00586C7.41016 8.0022 7.3916 8.00781 7.37988 8.02075C7.36914 8.03345 7.09082 8.30664 6.7627 8.62939L6.16504 9.21606L6.21973 9.26221C6.31836 9.34546 6.46387 9.43848 6.62988 9.52686C6.72559 9.57739 6.82715 9.62671 6.93066 9.67188C7.10547 9.74756 7.36523 9.81567 7.61621 9.85083L7.70508 9.86182L7.69922 8.99097L7.69531 8.12036ZM9.83496 9.21606L9.21875 8.61108C8.88184 8.27881 8.59961 8.00415 8.5918 8.0022C8.58691 8.00024 8.54785 8.01514 8.50684 8.03345C8.4668 8.05396 8.40234 8.08154 8.36523 8.09619L8.29492 8.12402V8.99097C8.29492 9.46899 8.30078 9.86011 8.30957 9.86011C8.38867 9.86011 8.59863 9.81641 8.76953 9.77075C8.88867 9.73901 8.98926 9.7063 9.0127 9.68652C9.02734 9.67554 9.04004 9.66821 9.04004 9.67188C9.0459 9.69019 9.40137 9.52612 9.40137 9.50391C9.40137 9.49976 9.4043 9.49756 9.4082 9.49707L9.41992 9.50024C9.43164 9.50586 9.43848 9.5022 9.43848 9.49292C9.43848 9.48169 9.44824 9.47266 9.45898 9.47266C9.48145 9.47266 9.69922 9.33057 9.78027 9.26221L9.83496 9.21606Z"></path></svg>