<svg xmlns="http://www.w3.org/2000/svg" viewBox="0 0 20 23" height="23" width="20"><title>monument.svg</title><rect fill="none" x="0" y="0" width="20" height="23"></rect><path fill="#5e758d" transform="translate(1 1)" d="M11.1123 15.5334C14.0547 14.3313 16.1289 11.4402 16.1289 8.06445C16.1289 3.6106 12.5186 0 8.06445 0C3.61035 0 0 3.6106 0 8.06445C0 11.4431 2.07812 14.3364 5.02539 15.5366L7.36914 19.5967C7.67969 20.1345 8.45508 20.1345 8.76562 19.5967L11.1123 15.5334ZM7.03418 3.20166C7.20215 3.10278 7.32617 3.03052 7.34668 3.02148C7.3623 3.01392 7.38281 3.00806 7.4082 3.00439C7.44043 2.99976 7.47949 2.99854 7.52148 3.00195C7.63477 3.00781 7.66797 3.02539 8.22363 3.35352C8.62598 3.59375 8.81641 3.71875 8.84473 3.76367C8.86621 3.79492 8.88086 3.88647 8.91699 4.34033L8.96191 4.92871L9.04395 6.08203L9.21484 8.49805L9.22754 8.66016H7.49707H5.76758L5.78027 8.51953C5.78906 8.44141 5.86328 7.38867 5.94629 6.17969C6.0293 4.9707 6.10352 3.94531 6.11035 3.89844C6.11523 3.85156 6.13867 3.78711 6.1582 3.75586C6.16797 3.74121 6.21191 3.70801 6.28516 3.65918C6.38672 3.59131 6.54297 3.49341 6.74316 3.37305L7.03418 3.20166ZM5.22266 9.88086L5.10059 10.5352H7.5H9.90039L9.77734 9.88086L9.65527 9.22656H7.5H5.3457L5.22266 9.88086ZM4.15137 12.9512C4 12.8613 4 12.8672 4 11.9355V11.1016H7.5H11V11.9355C11 12.8672 11 12.8613 10.8486 12.9512L10.7744 12.9961H7.5H4.22559L4.15137 12.9512Z"></path></svg>