<svg xmlns="http://www.w3.org/2000/svg" viewBox="0 0 21 24" height="24" width="21"><title>motorcycle.svg</title><rect fill="none" x="0" y="0" width="21" height="24"></rect><path fill="#4898ff" transform="translate(2 2)" d="M11.1123 15.5334C14.0547 14.3313 16.1289 11.4402 16.1289 8.06445C16.1289 3.6106 12.5186 0 8.06445 0C3.61035 0 0 3.6106 0 8.06445C0 11.4431 2.07812 14.3364 5.02539 15.5366L7.36914 19.5967C7.67969 20.1345 8.45508 20.1345 8.76562 19.5967L11.1123 15.5334ZM9.71484 3.16699C9.8584 3.24219 9.90234 3.23364 9.94531 3.12524C9.97656 3.05835 10.0264 3 10.0645 3C10.1328 3 10.2578 3.40063 10.2207 3.49243C10.2021 3.52588 10.3574 3.85156 10.5635 4.21875C10.9258 4.86987 11.0068 5.12036 10.8574 5.18726C10.7139 5.25391 10.8633 5.48779 11.082 5.53784C11.3633 5.61279 11.7129 6.00537 11.8818 6.44775C12.0752 6.95703 12.0254 7.79175 11.7754 8.26758C11.6621 8.48291 11.5342 8.64795 11.3887 8.76636C11.1729 8.94141 10.917 9.01367 10.6074 8.9939C10.2637 8.96875 10.1396 8.9187 9.9209 8.70996C9.54004 8.35107 9.3584 7.87524 9.3584 7.23242C9.3584 6.92407 9.3584 6.80249 9.33789 6.8064C9.32422 6.80884 9.30176 6.86475 9.26465 6.95703C9.19629 7.14062 9.17773 7.33252 9.20898 7.71655L9.24609 8.23413L9.01465 8.29248C8.88379 8.31763 8.32812 8.34277 7.78516 8.34277C6.94141 8.34277 6.77344 8.31763 6.67285 8.20068C6.56641 8.07544 6.54785 8.08398 6.32324 8.40112C6.00488 8.86865 5.69238 9.03564 5.20508 8.9939C4.48047 8.9353 4 8.23413 4 7.24072C4 6.42261 4.34961 5.76318 4.89941 5.54614C5.17773 5.43262 5.31348 5.40479 5.50293 5.44824C5.56445 5.4624 5.63184 5.48413 5.71094 5.5127C5.96777 5.60449 6.4668 6.17212 6.5293 6.43091C6.54297 6.47583 6.56934 6.51807 6.60156 6.54785C6.62891 6.57349 6.66016 6.5896 6.69141 6.5896C6.81055 6.5896 6.81055 6.56445 6.64844 6.18066C6.49805 5.82983 6.41113 5.72974 6.06738 5.521C5.83594 5.37915 5.58008 5.24561 5.48633 5.22046C5.39941 5.19556 5.11816 4.96167 4.86816 4.71143C4.61816 4.46094 4.3623 4.2522 4.29395 4.2522C4.21191 4.2522 4.1875 4.21045 4.21191 4.11865C4.22266 4.07593 4.2334 4.02808 4.24121 3.98535C4.24707 3.95288 4.25 3.92334 4.25 3.90161C4.25 3.83472 4.4375 3.82642 4.82422 3.85986C5.27441 3.90161 5.43066 3.94336 5.55469 4.08521C5.99219 4.55273 6.20508 4.69458 6.49805 4.73633C6.7666 4.76978 6.8291 4.74463 7.00391 4.55273C7.49707 3.99341 8.17188 3.78467 8.69043 4.01855C8.94043 4.13525 8.9834 4.12695 9.14648 3.99341C9.24609 3.91113 9.28711 3.87646 9.27539 3.8501C9.26855 3.83374 9.24121 3.8208 9.19629 3.80151C9.12793 3.76807 9.05859 3.67627 9.04004 3.58447C8.97754 3.26709 9.39648 3.0083 9.71484 3.16699ZM5.90527 6.84009C6.16113 6.84009 6.01758 6.43945 5.67383 6.20557C5.48633 6.08032 5.16211 6.06372 4.96191 6.17212C4.79297 6.26416 4.51172 6.71484 4.46191 6.97363C4.35645 7.54956 4.70605 8.27588 5.14258 8.38452C5.35352 8.43994 5.63184 8.3186 5.83789 8.13135C6.00391 7.98047 6.12305 7.78687 6.12305 7.60815C6.12305 7.50781 6.05469 7.49121 5.69238 7.54126C5.33691 7.58301 5.25488 7.56641 5.22363 7.45776C5.13086 7.12378 5.18066 7.02368 5.49902 6.93188C5.67383 6.88184 5.85449 6.84009 5.90527 6.84009ZM11.2695 8.06714C11.6445 7.59131 11.6504 6.98193 11.2881 6.44775C11.1133 6.19727 11.0322 6.14722 10.7695 6.12207C10.5732 6.09985 10.4414 6.11084 10.3271 6.17871C10.2275 6.23853 10.1416 6.34229 10.0391 6.5061C9.74609 6.97363 9.73926 7.54126 10.0332 8.00049C10.1836 8.24048 10.3838 8.37305 10.5928 8.39697C10.8262 8.42383 11.0713 8.31421 11.2695 8.06714Z"></path></svg>