<svg xmlns="http://www.w3.org/2000/svg" viewBox="0 0 21 24" height="24" width="21"><title>motorcycle_parking.svg</title><rect fill="none" x="0" y="0" width="21" height="24"></rect><path fill="#4898ff" transform="translate(2 2)" d="M16.1289 8.06445C16.1289 11.4402 14.0547 14.3313 11.1123 15.5334L8.76562 19.5967C8.45508 20.1345 7.67969 20.1345 7.36914 19.5967L5.02539 15.5366C2.07812 14.3364 0 11.4431 0 8.06445C0 3.6106 3.61035 0 8.06445 0C12.5186 0 16.1289 3.6106 16.1289 8.06445ZM4.58398 3.56299C4.42676 3.71631 4.29492 3.896 4.19629 4.09717C4.03711 4.41992 4.01074 4.55151 4.01074 5.03223C4.01074 5.51294 4.03711 5.63818 4.18945 5.92798C4.41504 6.34937 4.88574 6.77075 5.28418 6.90234C5.94043 7.12622 6.72949 7.00781 7.29883 6.6062C7.45215 6.50073 7.51758 6.48096 7.57812 6.54028C7.61719 6.57983 7.79688 6.61279 7.96875 6.61279C8.13086 6.61279 8.21094 6.6145 8.25 6.64331C8.28613 6.66992 8.28711 6.71899 8.28711 6.8103V7.00781H7.75684C7.26562 7.00781 7.21289 7.021 7.00781 7.20532C6.78906 7.38965 6.74902 7.40283 6.21191 7.40283C6.02832 7.40283 5.90332 7.40112 5.81738 7.39307C5.66797 7.37915 5.63672 7.34644 5.61523 7.27124C5.59863 7.21338 5.57617 7.18066 5.48828 7.16235C5.39648 7.14282 5.23242 7.1394 4.92578 7.1394C4.02441 7.1394 3.9375 7.24487 4.3418 7.85059L4.58105 8.19312H5.34375C5.48535 8.19312 5.60352 8.19434 5.7002 8.19702C6.00195 8.20508 6.09863 8.22729 6.0791 8.27197C6.05957 8.33789 5.90723 8.35107 5.52246 8.3313C5.08496 8.31812 4.94531 8.33789 4.71973 8.44995C3.9043 8.86475 3.75195 9.94458 4.41504 10.603C4.67188 10.8579 4.99902 10.9871 5.32715 10.999C5.80371 11.0164 6.2832 10.7856 6.5498 10.3333C6.61914 10.2131 6.65723 10.1289 6.6748 10.0085C6.69043 9.89795 6.68848 9.75684 6.67578 9.52979C6.63672 8.86475 6.72266 8.7395 6.94141 9.11499C6.98145 9.18164 7.01562 9.23242 7.0498 9.27075C7.12207 9.35376 7.19043 9.37842 7.29883 9.37842C7.44531 9.37842 7.49121 9.41138 7.49121 9.50342C7.49121 9.52759 7.50098 9.55688 7.51758 9.58813C7.55176 9.65063 7.61523 9.7207 7.69043 9.77344C7.85645 9.89185 7.96191 9.90503 8.46582 9.89185L9.0498 9.87231L9.06934 9.54297C9.07715 9.44116 9.08691 9.36621 9.10547 9.30518C9.13672 9.2002 9.19238 9.13647 9.30176 9.04907C9.48047 8.9043 9.5 8.9043 9.4541 9.01611C9.4209 9.08862 9.38086 9.33228 9.36133 9.55615C9.33691 9.88721 9.40039 10.1709 9.53906 10.3943C9.73926 10.7175 10.0986 10.9143 10.5811 10.9456C11.1445 10.9851 11.543 10.8008 11.8076 10.3792C11.9668 10.1223 12 10.0105 12 9.64185C12 9.27295 11.9668 9.16113 11.8076 8.9043C11.7256 8.7771 11.623 8.66772 11.5049 8.57935C11.2861 8.41626 11.0127 8.32471 10.7207 8.32471C10.6484 8.32471 10.5908 8.32251 10.5439 8.31641C10.4297 8.30176 10.3779 8.26538 10.3359 8.18652C10.2363 7.99561 10.3428 7.89014 10.5352 7.99561C10.6143 8.03491 10.7598 8.06128 10.8594 8.0481C10.9111 8.04321 10.9502 8.03369 10.9795 8.01611C11.0293 7.98682 11.0498 7.93481 11.0586 7.84399C11.0723 7.72559 11.1182 7.66626 11.1982 7.66626C11.377 7.66626 11.4697 7.52808 11.4697 7.27124C11.4697 7.11938 11.4375 7.00903 11.374 6.94409C11.3301 6.89917 11.2715 6.87598 11.1982 6.87598C11.1641 6.87598 11.1367 6.86523 11.1152 6.84326C11.085 6.81372 11.0664 6.76367 11.0586 6.69165C11.0449 6.55347 10.999 6.50732 10.8594 6.49414C10.7598 6.48096 10.6143 6.50732 10.5352 6.54688C10.4844 6.57715 10.4443 6.59204 10.4092 6.59229C10.376 6.59253 10.3486 6.57935 10.3223 6.55347C10.2832 6.51392 10.1699 6.48096 10.0703 6.48096C9.90527 6.48096 9.88477 6.45459 9.86523 6.23071C9.85547 6.11938 9.85059 6.05884 9.81836 6.02417C9.7793 5.98291 9.70215 5.97803 9.5332 5.96729C9.42676 5.95947 9.33398 5.94458 9.27734 5.92578C9.23828 5.91284 9.21582 5.89795 9.21582 5.88184C9.21582 5.84888 9.15527 5.76318 9.08301 5.69092C8.90332 5.51294 8.46582 5.51294 8.28711 5.69092C8.21387 5.76318 8.09473 5.82251 8.02148 5.82251C7.90918 5.82251 7.90234 5.80273 7.96191 5.63818C8.09473 5.31543 8.06152 4.57788 7.88965 4.18945C7.69043 3.72852 7.13965 3.22803 6.68262 3.08984C6.48242 3.03198 6.26367 3.0022 6.04688 3.00024C5.76953 2.99756 5.49414 3.04053 5.26367 3.12939C5.00781 3.22729 4.77637 3.375 4.58398 3.56299ZM6.66895 3.9458C7.77637 4.59106 7.3125 6.28345 6.0332 6.28345C5.0918 6.28345 4.47461 5.28247 4.89941 4.45288C5.23047 3.80762 6.03906 3.57715 6.66895 3.9458ZM8.47266 7.3501C8.51953 7.39624 8.55273 7.57397 8.55273 7.74536V8.06787L7.80957 8.0481C7.42773 8.0376 7.24023 8.03101 7.14551 8.00562C7.06055 7.98291 7.0498 7.94531 7.04102 7.87695C7.02637 7.7832 7.05273 7.68457 7.1084 7.59668C7.18066 7.4812 7.30176 7.38477 7.44531 7.34351C7.50195 7.32788 7.56934 7.31519 7.6416 7.30542C7.7373 7.29224 7.8418 7.28442 7.94434 7.28149C8.18945 7.27466 8.41895 7.29712 8.47266 7.3501ZM4.97168 5.03223C4.97168 4.60425 5.13086 4.30811 5.44922 4.11035C5.74707 3.93262 6.31738 3.93262 6.61621 4.11035C6.93457 4.30811 7.09375 4.60425 7.09375 5.03223C7.09375 5.69092 6.69531 6.08594 6.03223 6.08594C5.36914 6.08594 4.97168 5.69092 4.97168 5.03223ZM6.41016 5.02563C6.52344 4.927 6.52344 4.61084 6.39746 4.50562C6.25098 4.38696 5.81348 4.34741 5.7207 4.44629C5.68848 4.47485 5.66602 4.55811 5.65137 4.68823C5.63965 4.79736 5.63477 4.93994 5.63477 5.11133C5.63477 5.64478 5.64844 5.69092 5.76758 5.69092C5.87988 5.69092 5.89941 5.64478 5.89941 5.43408C5.89941 5.20361 5.91992 5.17725 6.1123 5.1377C6.22461 5.11792 6.35742 5.06519 6.41016 5.02563Z"></path></svg>