<svg xmlns="http://www.w3.org/2000/svg" viewBox="0 0 17 20" height="20" width="17"><title>museum.svg</title><rect fill="none" x="0" y="0" width="17" height="20"></rect><path fill="#5e758d" transform="translate(0 0)" d="M11.1123 15.5334C14.0547 14.3313 16.1289 11.4402 16.1289 8.06445C16.1289 3.6106 12.5186 0 8.06445 0C3.61035 0 0 3.6106 0 8.06445C0 11.4431 2.07812 14.3364 5.02539 15.5366L7.36914 19.5967C7.5752 19.9541 7.9873 20.074 8.33105 19.9563C8.50488 19.897 8.66113 19.7771 8.76562 19.5967L11.1123 15.5334ZM7.91602 3.1665C7.86133 3.1665 7.81348 3.125 7.81348 3.08325C7.81348 3.0332 8.07422 3 8.46484 3C8.63574 3 8.78125 3.00635 8.8916 3.01758C9.03418 3.03198 9.11719 3.05493 9.11719 3.08325C9.11719 3.125 9.06934 3.1665 9.01465 3.1665C8.84277 3.1665 8.88379 3.73315 9.06934 3.9248C9.21973 4.07495 9.21289 4.07495 8.46484 4.07495C7.75879 4.07495 7.7168 4.06665 7.86816 3.94165C7.88477 3.92773 7.89941 3.9104 7.91309 3.89038C7.93164 3.86426 7.94824 3.8335 7.96289 3.79956C7.97754 3.7644 7.99023 3.72583 8 3.68555C8.00879 3.65137 8.01562 3.61597 8.02051 3.58057C8.0498 3.375 8.01953 3.1665 7.91602 3.1665ZM7.50195 4.82056C7.49121 4.96484 7.49316 5.10864 7.51172 5.2002L7.55273 5.41675H8.50684H9.45996V5.05835V4.99976C9.45996 4.8252 9.45996 4.69629 9.44531 4.60107C9.43359 4.53076 9.41309 4.479 9.37793 4.44067C9.33984 4.39917 9.28516 4.37378 9.20508 4.35815C9.07617 4.33301 8.88184 4.33325 8.58984 4.3335H8.49316C8.0127 4.3335 7.60059 4.3584 7.58691 4.39185C7.5459 4.47778 7.51562 4.64941 7.50195 4.82056ZM7.91016 6.07495C7.81445 5.96655 7.7041 5.80835 7.66992 5.72485C7.6084 5.59155 7.66992 5.58325 8.5 5.58325C9.02832 5.58325 9.39258 5.6167 9.39258 5.66675C9.39258 5.70825 9.28223 5.875 9.15234 6.0332C9.10645 6.09131 9.06348 6.15161 9.02734 6.2085C8.98633 6.27295 8.95215 6.33325 8.93164 6.38159C8.91895 6.41284 8.91211 6.43896 8.91211 6.45825C8.91211 6.55835 8.82324 6.58325 8.5 6.58325C8.20605 6.58325 8.11523 6.56567 8.09473 6.4856L8.08984 6.46069L8.08887 6.43335C8.08887 6.34985 8.00586 6.19165 7.91016 6.07495ZM6.23535 7.33325V7.83325H8.5H10.7646V7.33325V6.83325H8.5H6.23535V7.33325ZM7.19629 10.0833V9.08325V8.08325H8.5H9.80371V9.08325V10.0833L10.0986 9.94165C10.5859 9.70825 10.9775 9.33325 11.1006 8.9917C11.1699 8.79175 11.2588 8.66675 11.334 8.66675C11.3965 8.66675 11.4512 8.69995 11.4512 8.75C11.4512 8.79175 11.5742 8.83325 11.7256 8.83325H12V10.375V11.9167H11.7256H11.4512V10.5166V9.125L11.3135 9.3833C11.1357 9.71655 10.751 10.0417 10.2363 10.2917L9.83789 10.4917L9.81738 11.2417L9.79688 12H8.5H7.19629V11.25C7.19629 10.6084 7.17578 10.4917 7.0791 10.45C6.64746 10.2749 6.08398 9.8916 5.87109 9.6333L5.61719 9.32495V10.6667V12H5.30859H5V10.4167V8.83325H5.27441C5.42578 8.83325 5.54883 8.79175 5.54883 8.75C5.54883 8.72314 5.56445 8.70117 5.58984 8.68652C5.61133 8.67383 5.64062 8.66675 5.67285 8.66675C5.71777 8.66675 5.77148 8.72021 5.82227 8.81348C5.84961 8.86255 5.87598 8.92261 5.89941 8.9917C6.02246 9.33325 6.41406 9.70825 6.9082 9.94165L7.19629 10.0833Z"></path></svg>