<svg xmlns="http://www.w3.org/2000/svg" viewBox="0 0 17 20" height="20" width="17"><title>music.svg</title><rect fill="none" x="0" y="0" width="17" height="20"></rect><path fill="#5e758d" transform="translate(0 0)" d="M11.1123 15.5334C14.0547 14.3313 16.1289 11.4402 16.1289 8.06445C16.1289 3.6106 12.5186 0 8.06445 0C3.61035 0 0 3.6106 0 8.06445C0 11.4431 2.07812 14.3364 5.02539 15.5366L7.36914 19.5967C7.51367 19.8472 7.75879 19.981 8.01074 19.998C8.30078 20.0178 8.59961 19.884 8.76562 19.5967L11.1123 15.5334ZM6.16992 4H11.6572C11.6865 4 11.7158 4.00342 11.7441 4.01001C11.8018 4.02368 11.8555 4.05127 11.8994 4.09009C11.9639 4.14771 12 4.22607 12 4.30762V9.05908C12 9.64038 11.3516 10.1116 10.5527 10.1116C9.75293 10.1116 9.10449 9.64062 9.10449 9.05908C9.10449 8.47778 9.75293 8.00659 10.5527 8.00659C10.6797 8.00684 10.8076 8.01953 10.9326 8.04443V5.50391H6.89551V9.94751C6.89551 10.5288 6.24707 11 5.44727 11C4.64844 11 4 10.5288 4 9.94751C4 9.36621 4.64844 8.89502 5.44727 8.89502C5.5752 8.89526 5.70312 8.90796 5.82812 8.93286V4.30737C5.82812 4.22583 5.86426 4.14771 5.92773 4.09009C5.99219 4.03247 6.0791 4 6.16992 4Z"></path></svg>