<svg xmlns="http://www.w3.org/2000/svg" viewBox="0 0 21 24" height="24" width="21"><title>muslim.svg</title><rect fill="none" x="0" y="0" width="21" height="24"></rect><path fill="#5e758d" transform="translate(2 2)" d="M11.1123 15.5334C14.0547 14.3313 16.1289 11.4402 16.1289 8.06445C16.1289 3.6106 12.5186 0 8.06445 0C3.61035 0 0 3.6106 0 8.06445C0 11.4431 2.07812 14.3364 5.02539 15.5366L7.36914 19.5967C7.67969 20.1345 8.45508 20.1345 8.76562 19.5967L11.1123 15.5334ZM9.8252 5.47021C9.77637 5.46045 9.72168 5.44995 9.66699 5.44995H6.33301C6.27344 5.44995 6.21387 5.46265 6.16113 5.47266C6.12598 5.47949 6.09375 5.48511 6.06641 5.48511C6.0332 5.37988 6 5.2749 6 5.13501C6 4.67993 6.2334 4.26001 6.56641 3.97998L8 3L9.43359 4.01489C9.63574 4.15015 9.78711 4.33862 9.88281 4.55688C9.95996 4.73413 10 4.93115 10 5.13501C10 5.23999 9.9668 5.37988 9.93359 5.48511C9.90332 5.48511 9.86621 5.47803 9.8252 5.47021ZM11.7783 4.58228C11.9004 4.76025 12 4.95117 12 5.1001C12 5.25708 11.9453 5.41406 11.8535 5.53394C11.8018 5.60132 11.7383 5.65723 11.667 5.69507V10H8.66699V8.6001C8.66699 8.21509 8.36621 7.8999 8 7.8999C7.63379 7.8999 7.33301 8.21509 7.33301 8.6001V10H4.33301V5.69507C4.13379 5.59009 4 5.34497 4 5.1001C4 4.71509 4.66699 4.05005 4.66699 4.05005C4.66699 4.05005 5.33301 4.71509 5.33301 5.1001C5.33301 5.34497 5.2002 5.59009 5 5.69507V7.19995H5.66699V6.5C5.66699 6.11499 5.9668 5.80005 6.33301 5.80005H9.66699C10.0332 5.80005 10.333 6.11499 10.333 6.5V7.19995H11V5.69507C10.7998 5.59009 10.667 5.34497 10.667 5.1001C10.667 4.71509 11.333 4.05005 11.333 4.05005C11.333 4.05005 11.584 4.30005 11.7783 4.58228Z"></path></svg>