<svg xmlns="http://www.w3.org/2000/svg" viewBox="0 0 21 24" height="24" width="21"><title>ngo.svg</title><rect fill="none" x="0" y="0" width="21" height="24"></rect><path fill="#299091" transform="translate(2 2)" d="M11.1123 15.5334C14.0547 14.3313 16.1289 11.4402 16.1289 8.06445C16.1289 3.6106 12.5186 0 8.06445 0C3.61035 0 0 3.6106 0 8.06445C0 11.4431 2.07812 14.3364 5.02539 15.5366L7.36914 19.5967C7.67969 20.1345 8.45508 20.1345 8.76562 19.5967L11.1123 15.5334ZM10.999 5.6001V11.4666H11.999V12H8.49902V10.3999H7.49902V12H4V11.4666H5V4H9.49902V5.6001H10.999ZM6 9.33325H7V8.2666H6V9.33325ZM6 7.7334H7V6.66675H6V7.7334ZM6 6.1333H7V5.06665H6V6.1333ZM7.49902 9.33325H8.49902V8.2666H7.49902V9.33325ZM7.49902 7.7334H8.49902V6.66675H7.49902V7.7334ZM7.49902 6.1333H8.49902V5.06665H7.49902V6.1333ZM9.49902 9.33325H10.499V8.2666H9.49902V9.33325ZM9.49902 7.7334H10.499V6.66675H9.49902V7.7334Z"></path></svg>