<svg xmlns="http://www.w3.org/2000/svg" viewBox="0 0 21 24" height="24" width="21"><title>nid.svg</title><rect fill="none" x="0" y="0" width="21" height="24"></rect><path fill="#299091" transform="translate(2 2)" d="M11.1123 15.5334C14.0547 14.3313 16.1289 11.4402 16.1289 8.06445C16.1289 3.6106 12.5186 0 8.06445 0C3.61035 0 0 3.6106 0 8.06445C0 11.4431 2.07812 14.3364 5.02539 15.5366L7.36914 19.5967C7.67969 20.1345 8.45508 20.1345 8.76562 19.5967L11.1123 15.5334ZM4.66699 3H11.333C11.7012 3 12 3.33594 12 3.75V9.25C12 9.66406 11.7012 10 11.333 10H4.66699C4.29883 10 4 9.66406 4 9.25V3.75C4 3.33594 4.29883 3 4.66699 3ZM8.21094 9.25H11.333V4.75H4.66699V9.25H5.12207C5.1084 9.17969 5.11133 9.30615 5.11133 8.8999C5.11133 8.40308 5.5293 8 6.04492 8C6.10742 8 6.15918 8.01953 6.22168 8.04297C6.31836 8.0791 6.44043 8.125 6.66699 8.125C7.0293 8.125 7.13867 8 7.28906 8C7.80371 8 8.22266 8.40308 8.22266 8.8999L8.22168 9.19727C8.2207 9.22998 8.21777 9.21338 8.21094 9.25ZM10.5557 8H9C8.93848 8 8.88867 7.94385 8.88867 7.875V7.625C8.88867 7.55615 8.93848 7.5 9 7.5H10.5557C10.6162 7.5 10.667 7.55615 10.667 7.625V7.875C10.667 7.94385 10.6162 8 10.5557 8ZM10.5557 7H9C8.93848 7 8.88867 6.94385 8.88867 6.875V6.625C8.88867 6.55615 8.93848 6.5 9 6.5H10.5557C10.6162 6.5 10.667 6.55615 10.667 6.625V6.875C10.667 6.94385 10.6162 7 10.5557 7ZM10.5557 6H9C8.93848 6 8.88867 5.94385 8.88867 5.875V5.625C8.88867 5.55615 8.93848 5.5 9 5.5H10.5557C10.6162 5.5 10.667 5.55615 10.667 5.625V5.875C10.667 5.94385 10.6162 6 10.5557 6ZM7.55566 6.5C7.55566 7.05151 7.15723 7.5 6.66699 7.5C6.17676 7.5 5.77734 7.05151 5.77734 6.5C5.77734 5.94849 6.17676 5.5 6.66699 5.5C7.15723 5.5 7.55566 5.94849 7.55566 6.5Z"></path></svg>