<svg xmlns="http://www.w3.org/2000/svg" viewBox="0 0 21 24" height="24" width="21"><title>office.svg</title><rect fill="none" x="0" y="0" width="21" height="24"></rect><path fill="#299091" transform="translate(2 2)" d="M11.1123 15.5334C14.0547 14.3313 16.1289 11.4402 16.1289 8.06445C16.1289 3.6106 12.5186 0 8.06445 0C3.61035 0 0 3.6106 0 8.06445C0 11.4431 2.07812 14.3364 5.02539 15.5366L7.36914 19.5967C7.67969 20.1345 8.45508 20.1345 8.76562 19.5967L11.1123 15.5334ZM9.33301 4.46924V6.69482H11.1113C11.5996 6.69482 12 7.08228 12 7.55591V10.1389C12 10.6125 11.5996 11 11.1113 11H4.88867C4.40039 11 4 10.6125 4 10.1389V5.83374C4 5.36035 4.40039 4.9729 4.88867 4.9729H6.66699V4.46924C6.66699 4.24097 6.75977 4.02148 6.92871 3.85791L7.68457 3.12598C7.85742 2.95801 8.1377 2.95801 8.31152 3.12598L9.07129 3.86206C9.24023 4.02148 9.33301 4.24097 9.33301 4.46924ZM4.88867 10.1389H5.77734V9.27783H4.88867V10.1389ZM4.88867 8.41699H5.77734V7.55591H4.88867V8.41699ZM4.88867 6.69482H5.77734V5.83374H4.88867V6.69482ZM7.55566 10.1389H8.44434V9.27783H7.55566V10.1389ZM7.55566 8.41699H8.44434V7.55591H7.55566V8.41699ZM7.55566 6.69482H8.44434V5.83374H7.55566V6.69482ZM7.55566 4.9729H8.44434V4.11182H7.55566V4.9729ZM10.2227 10.1389H11.1113V9.27783H10.2227V10.1389ZM10.2227 8.41699H11.1113V7.55591H10.2227V8.41699Z"></path></svg>