<svg xmlns="http://www.w3.org/2000/svg" viewBox="0 0 21 24" height="24" width="21"><title>optician.svg</title><rect fill="none" x="0" y="0" width="21" height="24"></rect><path fill="#ba272a" transform="translate(2 2)" d="M11.112 15.5334C14.0551 14.3313 16.129 11.4401 16.129 8.06452C16.129 3.61061 12.5184 0 8.06452 0C3.61061 0 0 3.61061 0 8.06452C0 11.4431 2.07765 14.3365 5.02501 15.5366L7.36915 19.5968C7.67955 20.1344 8.45556 20.1344 8.76596 19.5968L11.112 15.5334ZM7.63219 5.51005C7.86235 5.2475 8.17451 5.1 8.5 5.1C8.82549 5.1 9.13765 5.2475 9.36781 5.51005C9.59797 5.7726 9.72727 6.1287 9.72727 6.5C9.72727 6.8713 9.59797 7.2274 9.36781 7.48995C9.13765 7.7525 8.82549 7.9 8.5 7.9C8.17451 7.9 7.86235 7.7525 7.63219 7.48995C7.40203 7.2274 7.27273 6.8713 7.27273 6.5C7.27273 6.1287 7.40203 5.7726 7.63219 5.51005ZM7.05365 8.14992C7.43724 8.5875 7.95751 8.83333 8.5 8.83333C9.04249 8.83333 9.56276 8.5875 9.94635 8.14992C10.33 7.71233 10.5455 7.11884 10.5455 6.5C10.5455 5.88116 10.33 5.28767 9.94635 4.85008C9.56276 4.4125 9.04249 4.16667 8.5 4.16667C7.95751 4.16667 7.43724 4.4125 7.05365 4.85008C6.67005 5.28767 6.45455 5.88116 6.45455 6.5C6.45455 7.11884 6.67005 7.71233 7.05365 8.14992ZM4 6.5C4.70773 4.45133 6.45455 3 8.5 3C10.5455 3 12.2923 4.45133 13 6.5C12.2923 8.54867 10.5455 10 8.5 10C6.45455 10 4.70773 8.54867 4 6.5Z"></path></svg>