<svg xmlns="http://www.w3.org/2000/svg" viewBox="0 0 20 23" height="23" width="20"><title>outdoor.svg</title><rect fill="none" x="0" y="0" width="20" height="23"></rect><path fill="#5e758d" transform="translate(1 1)" d="M11.1123 15.5334C14.0547 14.3313 16.1289 11.4402 16.1289 8.06445C16.1289 3.6106 12.5186 0 8.06445 0C3.61035 0 0 3.6106 0 8.06445C0 11.4431 2.07812 14.3364 5.02539 15.5366L7.36914 19.5967C7.67969 20.1345 8.45508 20.1345 8.76562 19.5967L11.1123 15.5334ZM7.29883 3.47607C7.39258 3.37622 7.61133 3.23242 7.78027 3.15112C7.95215 3.06836 8.16895 3.0188 8.39258 3.00439C8.625 2.98926 8.86523 3.01245 9.06934 3.07617C9.58203 3.22632 10.126 3.91357 10.126 4.40723C10.126 4.57593 10.1572 4.60718 10.4385 4.70728C11.1084 4.94458 11.502 5.50708 11.502 6.23193C11.502 6.76489 11.2959 7.2124 10.9541 7.50513C10.6826 7.73755 10.3262 7.87256 9.91992 7.87549C9.66309 7.87549 9.50098 7.91309 9.3877 7.98804C9.22559 8.10034 8.85645 8.25049 8.74316 8.25049C8.72266 8.25049 8.70508 8.15112 8.69531 8.00171C8.69043 7.9231 8.6875 7.83081 8.6875 7.73169V7.21924L9.3125 6.59448C9.75098 6.15698 9.93848 5.93213 9.92578 5.84448C9.88867 5.58203 9.66992 5.66968 9.21875 6.12573C8.98145 6.36328 8.7627 6.56323 8.7373 6.56323C8.71191 6.56323 8.68066 6.06323 8.6748 5.45093L8.65625 4.34473H8.5H8.34375L8.32422 5.38843C8.32031 5.73315 8.31055 6.03833 8.29785 6.22949C8.28906 6.3606 8.27832 6.43823 8.26855 6.43823C8.24316 6.43823 8.04883 6.31958 7.82422 6.17578C7.68164 6.08154 7.58008 6.02246 7.50488 5.99097C7.41602 5.95361 7.36426 5.95483 7.32324 5.98193C7.12988 6.10083 7.21094 6.21313 7.76758 6.59448L8.31836 6.96948L8.28027 7.59424L8.27148 7.7146C8.25195 8.00269 8.23535 8.22607 8.22461 8.23169C8.20996 8.24609 8.13965 8.22998 8.0498 8.19824C7.90625 8.14771 7.71191 8.05713 7.61133 7.98804C7.49902 7.91309 7.33594 7.87549 7.08008 7.87549C6.17285 7.86914 5.49707 7.18188 5.49707 6.25708C5.49707 5.51953 5.8916 4.94458 6.56055 4.70728C6.8418 4.60718 6.87305 4.57593 6.87305 4.40723C6.875 4.33813 6.89258 4.2522 6.92188 4.15918C6.94043 4.10083 6.96387 4.03955 6.99023 3.97803C7.07129 3.79102 7.18359 3.60083 7.29883 3.47607ZM11.5459 7.43188C11.3018 7.85059 10.6445 8.21924 10.0254 8.28784C9.9248 8.29736 9.79395 8.32422 9.66504 8.35986C9.53906 8.39502 9.41504 8.43823 9.3252 8.48169C9.14355 8.56299 8.81152 8.65039 8.59277 8.66919L8.18652 8.70654V9.77515C8.18652 10.3191 8.19238 10.6233 8.22754 10.7925C8.25 10.8992 8.2832 10.9521 8.33398 10.9778C8.37012 10.9956 8.41406 11 8.46777 11C8.72461 11 8.74902 10.8938 8.74902 9.91895C8.74902 9.43945 8.75391 9.20483 8.77441 9.09863C8.78906 9.02222 8.8125 9.01221 8.84961 9.02539C8.90625 9.04395 9.0625 9.08154 9.20605 9.10034C9.34961 9.11914 9.55664 9.17529 9.66895 9.22534L9.86914 9.31909L9.8877 10.1438L9.90625 10.9688H10.126H10.3447L10.376 10.1377L10.4072 9.31274L10.5889 9.21899C10.6826 9.16895 10.8516 9.12524 10.9639 9.12524C11.1104 9.12207 11.2852 9.06885 11.4443 8.98608C11.5986 8.90625 11.7383 8.79834 11.8213 8.68164C12.0273 8.38794 12.0645 7.74414 11.8838 7.45044C11.7266 7.20679 11.6836 7.20068 11.5459 7.43188ZM4.26465 9.28149C4.02051 8.63159 3.94531 8.26294 4.03906 8.16919C4.07324 8.13184 4.15039 8.11938 4.22852 8.12695C4.30664 8.13452 4.38574 8.1626 4.4209 8.20679C4.45801 8.25049 4.58301 8.55029 4.70215 8.87524C4.84082 9.26758 4.89258 9.40063 4.97461 9.45166C5.01367 9.47632 5.06055 9.48169 5.12793 9.48779C5.33398 9.50024 5.35254 9.48145 5.62207 9.01904L5.90332 8.53174L6.29688 8.51294C6.74805 8.49414 6.8916 8.56299 6.86035 8.80664C6.8418 8.9502 6.81055 8.97534 6.54102 9.00024C6.29102 9.02539 6.22852 9.06274 6.12207 9.23779C6.05371 9.35034 5.99707 9.45654 5.99707 9.46899C5.99707 9.48779 6.36035 9.50024 6.80371 9.50024C7.66699 9.50024 7.78027 9.53784 7.73633 9.8252C7.72363 9.94385 7.67383 9.9751 7.48633 9.98755C7.35449 10.0002 7.24805 10.0251 7.24805 10.0439C7.24805 10.0562 7.2666 10.0955 7.29492 10.1499C7.3252 10.2065 7.36621 10.2798 7.41113 10.3564C7.62305 10.7251 7.59863 10.9624 7.33594 10.9875C7.1543 11.0063 7.12305 10.9751 6.85449 10.5063L6.55957 10.0002H6.12207H5.68457L5.39062 10.5063C5.12109 10.9751 5.08984 11.0063 4.9082 10.9875C4.64551 10.9624 4.62109 10.7251 4.83398 10.3564C4.88867 10.2622 4.93848 10.1731 4.96777 10.1135C4.98535 10.0781 4.99609 10.0532 4.99609 10.0439C4.99609 10.0251 4.88965 10.0002 4.76465 9.98755L4.52734 9.96899L4.26465 9.28149Z"></path></svg>