<svg xmlns="http://www.w3.org/2000/svg" viewBox="0 0 17 20" height="20" width="17"><title>paint.svg</title><rect fill="none" x="0" y="0" width="17" height="20"></rect><path fill="#5e758d" transform="translate(0 0)" d="M11.1123 15.5334C14.0547 14.3313 16.1289 11.4402 16.1289 8.06445C16.1289 3.6106 12.5186 0 8.06445 0C3.61035 0 0 3.6106 0 8.06445C0 11.4431 2.07812 14.3364 5.02539 15.5366L7.36914 19.5967C7.67969 20.1345 8.45508 20.1345 8.76562 19.5967L11.1123 15.5334ZM4 7C4 4.79102 5.79102 3 8 3C10.209 3 12 4.59106 12 6.55566C12 7.78223 11.0049 8.77783 9.77734 8.77783H8.99121C8.7334 8.77783 8.50977 8.92334 8.39941 9.13696C8.35156 9.22876 8.32422 9.33325 8.32422 9.44434C8.32422 9.61328 8.39062 9.7688 8.49316 9.88452C8.59961 10.0044 8.66699 10.1599 8.66699 10.3333C8.66699 10.7021 8.36914 11 8 11C5.79102 11 4 9.20898 4 7ZM4.88867 6.33325C4.88867 6.70215 5.18652 7 5.55566 7C5.9248 7 6.22266 6.70215 6.22266 6.33325C6.22266 5.96436 5.9248 5.66675 5.55566 5.66675C5.18652 5.66675 4.88867 5.96436 4.88867 6.33325ZM6.34766 4.9458C6.46875 5.11328 6.66504 5.22217 6.88867 5.22217C7.25781 5.22217 7.55566 4.92456 7.55566 4.55566C7.55566 4.18677 7.25781 3.88892 6.88867 3.88892C6.51953 3.88892 6.22266 4.18677 6.22266 4.55566C6.22266 4.70142 6.26855 4.83618 6.34766 4.9458ZM8.44434 4.55566C8.44434 4.92456 8.74219 5.22217 9.11133 5.22217C9.48047 5.22217 9.77734 4.92456 9.77734 4.55566C9.77734 4.18677 9.48047 3.88892 9.11133 3.88892C8.96191 3.88892 8.82422 3.9375 8.71289 4.02002C8.5498 4.14136 8.44434 4.33594 8.44434 4.55566ZM10.0664 6.88281C10.1738 6.95679 10.3037 7 10.4443 7C10.8135 7 11.1113 6.70215 11.1113 6.33325C11.1113 5.96436 10.8135 5.66675 10.4443 5.66675C10.0752 5.66675 9.77734 5.96436 9.77734 6.33325C9.77734 6.56152 9.8916 6.7627 10.0664 6.88281Z"></path></svg>