<svg xmlns="http://www.w3.org/2000/svg" viewBox="0 0 21 24" height="24" width="21"><title>park.svg</title><rect fill="none" x="0" y="0" width="21" height="24"></rect><path fill="#598017" transform="translate(2 2)" d="M11.1123 15.5334C14.0547 14.3313 16.1289 11.4402 16.1289 8.06445C16.1289 3.6106 12.5186 0 8.06445 0C3.61035 0 0 3.6106 0 8.06445C0 11.4431 2.07812 14.3364 5.02539 15.5366L7.36914 19.5967C7.48145 19.7915 7.65527 19.9158 7.8457 19.9695C8.18066 20.064 8.56738 19.9397 8.76562 19.5967L11.1123 15.5334ZM7.67773 3.43726C7.81055 3.25049 8.0332 3.09375 8.25293 3.03223C8.35938 3.0022 8.43555 3.00049 9.39258 3.00049C10.3623 2.99878 10.4238 3.00049 10.5371 3.03223C10.9004 3.13037 11.2002 3.43872 11.3027 3.81885C11.3301 3.91064 11.3301 3.91235 11.4219 3.94727C11.6846 4.04883 11.9043 4.30737 11.9766 4.59912C12.0059 4.71729 12.0059 4.98242 11.9766 5.104C11.9033 5.40405 11.6797 5.6626 11.4014 5.76587C11.3262 5.79419 11.2559 5.8042 11.0859 5.81079L10.8672 5.81909L10.8154 5.93433C10.7754 6.0249 10.7158 6.11133 10.6455 6.18213C10.5967 6.23145 10.543 6.27344 10.4873 6.3042C10.3359 6.3894 10.2168 6.41602 9.97363 6.41602H9.76562V7.14111V7.86621H9.81445C9.91699 7.86621 10.0312 7.73291 10.0312 7.61108V7.56616H10.2734H10.5156V7.61938C10.5156 7.71118 10.4736 7.89111 10.4326 7.97632C10.3223 8.20947 10.0703 8.38281 9.8418 8.38281H9.76562V9.43311V10.4832H10.8828H12V10.7417V11H8H4V10.7417V10.4832H4.25H4.5V10.1748V9.86646H4.25H4V9.60815V9.34985H4.25H4.5V8.44971V7.54956H6.29688H8.09375V8.44971V9.34985H8.34375H8.59375V9.60815V9.86646H8.34375H8.09375V10.1748V10.4832H8.6875H9.28125V8.98462V7.48779L9.14551 7.47778C8.97168 7.46606 8.8418 7.41943 8.69336 7.31274C8.51465 7.18555 8.38086 6.98877 8.31836 6.7749C8.29395 6.68896 8.28125 6.60059 8.28125 6.5127V6.40259L8.22461 6.39087C8.00977 6.34937 7.75 6.11426 7.67676 5.89746L7.65039 5.81909L7.4082 5.8125C7.20898 5.80591 7.14648 5.79761 7.07227 5.76929C6.78906 5.65918 6.5752 5.41748 6.49219 5.11084C6.46094 4.99585 6.45801 4.75562 6.48438 4.62891C6.51758 4.47241 6.60742 4.30054 6.71875 4.18066C6.89062 3.9939 7.07031 3.90894 7.33008 3.88892L7.48242 3.8772L7.49414 3.82568C7.51074 3.7356 7.60156 3.54395 7.67773 3.43726ZM9.28125 6.97095V6.69263V6.41602H9.02344H8.76562V6.49097C8.76562 6.65601 8.87695 6.83936 9.02344 6.91943C9.05762 6.93945 9.12988 6.95776 9.18262 6.96265L9.28125 6.97095ZM7.60938 9.34985V9.14966V8.94971H6.29688H4.98438V9.14966V9.34985H6.29688H7.60938ZM7.60938 10.4832V10.1748V9.86646H6.29688H4.98438V10.1748V10.4832H6.29688H7.60938Z"></path></svg>