<svg xmlns="http://www.w3.org/2000/svg" viewBox="0 0 21 24" height="24" width="21"><title>parking.svg</title><rect fill="none" x="0" y="0" width="21" height="24"></rect><path fill="#4898ff" transform="translate(2 2)" d="M11.1123 15.5334C14.0547 14.3313 16.1289 11.4402 16.1289 8.06445C16.1289 3.6106 12.5186 0 8.06445 0C3.61035 0 0 3.6106 0 8.06445C0 11.4431 2.07812 14.3364 5.02539 15.5366L7.36914 19.5967C7.67969 20.1345 8.45508 20.1345 8.76562 19.5967L11.1123 15.5334ZM5 12V3H8.9375C9.33984 3 9.73828 3.07397 10.1094 3.21802C10.4814 3.36182 10.8184 3.57275 11.1025 3.83862C11.3877 4.10474 11.6133 4.42041 11.7666 4.76782C11.9209 5.11523 12 5.48755 12 5.86353C12 6.23975 11.9209 6.61206 11.7666 6.95947C11.6133 7.30688 11.3877 7.62256 11.1025 7.88843C10.8184 8.15454 10.4814 8.36548 10.1094 8.50928C9.73828 8.65332 9.33984 8.72729 8.9375 8.72729H6.75V12H5ZM6.75 4.63647V7.09082H8.9375C9.10938 7.09082 9.28027 7.05908 9.43945 6.99756C9.52148 6.96558 9.60059 6.92603 9.67383 6.87964C9.74219 6.83618 9.80664 6.78662 9.86523 6.73145C9.91211 6.68774 9.95508 6.64087 9.99414 6.59131C10.0566 6.51147 10.1094 6.42505 10.1504 6.33325C10.2158 6.18433 10.25 6.0249 10.25 5.86353C10.25 5.70239 10.2158 5.54297 10.1504 5.39404C10.084 5.24512 9.9873 5.10986 9.86523 4.99585C9.74414 4.88184 9.59863 4.7915 9.43945 4.72974C9.28027 4.66821 9.10938 4.63647 8.9375 4.63647H6.75Z"></path></svg>