<svg xmlns="http://www.w3.org/2000/svg" viewBox="0 0 21 24" height="24" width="21"><title>passport.svg</title><rect fill="none" x="0" y="0" width="21" height="24"></rect><path fill="#5e758d" transform="translate(2 2)" d="M11.1123 15.5334C14.0547 14.3313 16.1289 11.4402 16.1289 8.06445C16.1289 3.6106 12.5186 0 8.06445 0C3.61035 0 0 3.6106 0 8.06445C0 11.4431 2.07812 14.3364 5.02539 15.5366L7.36914 19.5967C7.53516 19.884 7.83398 20.0178 8.12305 19.998C8.375 19.981 8.62109 19.8472 8.76562 19.5967L11.1123 15.5334ZM4.625 3.06567C4.74316 3.02271 4.87012 3 5 3H11C11.2656 3 11.5195 3.09473 11.707 3.26367C11.8945 3.43237 12 3.66138 12 3.8999V11.1001C12 11.3386 11.8945 11.5676 11.707 11.7363C11.5195 11.9053 11.2656 12 11 12H5C4.73438 12 4.48047 11.9053 4.29297 11.7363C4.10547 11.5676 4 11.3386 4 11.1001V3.8999C4 3.7915 4.02148 3.68481 4.0625 3.58521C4.1123 3.46558 4.19043 3.35571 4.29297 3.26367C4.38867 3.17749 4.50195 3.1106 4.625 3.06567ZM8.72266 4.44604C8.49023 4.38306 8.24707 4.3501 8 4.3501C7.33691 4.3501 6.70117 4.58716 6.23242 5.00903C5.76367 5.43091 5.5 6.00317 5.5 6.6001C5.5 7.19678 5.76367 7.76904 6.23242 8.19092C6.70117 8.61304 7.33691 8.8501 8 8.8501C8.66309 8.8501 9.29883 8.61304 9.76758 8.19092C10.2363 7.76904 10.5 7.19678 10.5 6.6001C10.5 6.00317 10.2363 5.43091 9.76758 5.00903C9.47363 4.74414 9.11328 4.55225 8.72266 4.44604ZM7.51953 5.69995C7.625 5.38062 7.79492 5.0791 8 4.80005C8.21094 5.07593 8.37207 5.37964 8.48047 5.69995H7.51953ZM6.26953 5.69995C6.5 5.32642 6.88965 5.03857 7.34961 4.89893C7.2002 5.15088 7.08984 5.4209 7 5.69995H6.26953ZM8.83398 5.26318C8.77734 5.13843 8.71484 5.01685 8.64453 4.89893C9.10547 5.04297 9.5 5.32642 9.73047 5.69995H9C8.95215 5.55127 8.89746 5.40527 8.83398 5.26318ZM6 6.6001C6 6.44238 6.02539 6.29395 6.06543 6.1499H6.91016C6.88965 6.29858 6.875 6.44702 6.875 6.6001C6.875 6.68945 6.87988 6.77734 6.88867 6.86475C6.89453 6.92676 6.90137 6.98853 6.91016 7.05005H6.06543C6.02539 6.90601 6 6.75757 6 6.6001ZM7.375 6.6001C7.375 6.44702 7.38965 6.29395 7.41504 6.1499H8.58496C8.60547 6.29395 8.625 6.44702 8.625 6.6001C8.625 6.75293 8.60547 6.90161 8.58496 7.05005H7.41504C7.38965 6.90161 7.375 6.75293 7.375 6.6001ZM9.11621 6.38086C9.10938 6.30347 9.10059 6.22681 9.08984 6.1499H9.93457C9.97461 6.29395 10 6.44238 10 6.6001C10 6.75757 9.97461 6.90601 9.93457 7.05005H9.08984C9.11035 6.90161 9.125 6.75293 9.125 6.6001C9.125 6.52612 9.12207 6.45312 9.11621 6.38086ZM7.34961 8.30103C6.88965 8.15698 6.5 7.87354 6.26953 7.5H7C7.08984 7.78345 7.2002 8.04907 7.34961 8.30103ZM7.70312 7.93066C7.62988 7.79224 7.56836 7.64893 7.51953 7.5H8.48047C8.375 7.82397 8.20996 8.12109 8 8.3999C7.88965 8.24927 7.78906 8.09351 7.70312 7.93066ZM8.83594 7.93481C8.89844 7.79443 8.95215 7.64966 9 7.5H9.73047C9.6084 7.69849 9.43945 7.87158 9.23828 8.01172C9.06152 8.1355 8.86035 8.23364 8.64453 8.30103C8.71582 8.18213 8.7793 8.0603 8.83594 7.93481ZM10.5 10.6499V9.75H5.5V10.6499H10.5Z"></path></svg>