<svg xmlns="http://www.w3.org/2000/svg" viewBox="0 0 21 24" height="24" width="21"><title>peak.svg</title><rect fill="none" x="0" y="0" width="21" height="24"></rect><path fill="#598017" transform="translate(2 2)" d="M11.1123 15.5334C14.0547 14.3313 16.1289 11.4402 16.1289 8.06445C16.1289 3.6106 12.5186 0 8.06445 0C3.61035 0 0 3.6106 0 8.06445C0 11.4431 2.07812 14.3364 5.02539 15.5366L7.36914 19.5967C7.67969 20.1345 8.45508 20.1345 8.76562 19.5967L11.1123 15.5334ZM7.78418 3.09912C7.83789 3.04346 7.87695 3.02197 7.94531 3.00635C7.99219 2.99634 8 2.99756 8.08398 3.01489C8.19531 3.0376 8.2793 3.14209 8.28125 3.25659C8.28125 3.32227 8.22852 3.43091 8.18555 3.45239L8.17383 3.46045L8.16797 3.46606L8.15918 3.48291L8.15625 3.50098C8.15625 3.53101 8.16699 3.53687 8.27832 3.56104C8.37207 3.58105 8.46094 3.58691 8.67969 3.58691C8.84082 3.58618 8.94629 3.58179 9.07617 3.55957C9.21582 3.53564 9.38184 3.49097 9.67188 3.40796C10.1377 3.27515 10.2842 3.2478 10.5391 3.24512C10.6074 3.24463 10.6807 3.24756 10.748 3.25269C10.876 3.26221 10.9824 3.27979 10.9941 3.29663C10.998 3.30225 10.9814 3.33228 10.9561 3.3623C10.9004 3.42676 10.7207 3.67407 10.6113 3.83276C10.5898 3.86548 10.5703 3.89917 10.5557 3.92749C10.541 3.95605 10.5312 3.97925 10.5312 3.98999C10.5312 4.01147 10.5889 4.11597 10.6699 4.24316C10.7471 4.36182 10.8467 4.52344 10.8926 4.60059L10.9736 4.74219L10.9199 4.73218C10.834 4.71777 10.7559 4.70752 10.6787 4.70239C10.5547 4.69385 10.4326 4.69849 10.2881 4.71973C10.0801 4.75024 9.8252 4.81494 9.44531 4.92383C9.06445 5.03394 8.9043 5.05664 8.60938 5.0481C8.43262 5.04395 8.33887 5.03394 8.2627 5.01392L8.15625 4.98535V6.08618C8.15625 7.14453 8.1582 7.19019 8.18555 7.21729C8.23633 7.2688 10.2812 9.96851 10.2812 9.98438C10.2812 9.99561 9.60352 10 8.01562 10C6.52344 10 5.75 9.99561 5.75 9.9856C5.75 9.97974 6.02832 9.60132 6.37988 9.12549C6.97656 8.31885 7.78516 7.23193 7.81445 7.20312C7.8418 7.17456 7.84375 7.12305 7.84375 5.32275V3.46948L7.80469 3.43677C7.7666 3.40405 7.74121 3.3606 7.73047 3.31445C7.71191 3.2395 7.72949 3.15674 7.78418 3.09912ZM10.0156 7.68628C9.95508 7.71509 9.91113 7.76367 9.68262 8.05542C9.60938 8.14893 9.54492 8.23633 9.49902 8.30103C9.4541 8.36377 9.42773 8.40503 9.42969 8.40991L9.55273 8.57788L10.0342 9.21509L10.6299 10H11.3154L11.7822 9.99756C11.9287 9.99512 12 9.99121 12 9.9856C12 9.96997 10.3818 7.78931 10.3301 7.73511C10.3184 7.7229 10.2998 7.70996 10.2773 7.69824C10.2617 7.6897 10.2441 7.68188 10.2256 7.67529C10.1924 7.66309 10.1582 7.65503 10.1328 7.65503C10.1162 7.65503 10.0889 7.66064 10.0615 7.66895L10.0156 7.68628ZM5.35742 8.17969C5.40039 8.13672 5.46387 8.10107 5.53125 8.08252C5.64355 8.05249 5.79395 8.08545 5.87793 8.16113C5.90723 8.18726 6.02441 8.34229 6.12891 8.48755C6.21973 8.61377 6.30078 8.73242 6.30664 8.75317C6.30859 8.76025 6.27734 8.81055 6.21484 8.90015C6.13965 9.00757 6.02051 9.17163 5.8623 9.38525L5.41113 9.99292L4.70605 9.99707C4.21387 9.99854 4 9.99561 4 9.9856C4 9.97168 4.63184 9.12695 5.03418 8.59741C5.20898 8.36694 5.34082 8.19629 5.35742 8.17969Z"></path></svg>