<svg xmlns="http://www.w3.org/2000/svg" viewBox="0 0 21 24" height="24" width="21"><title>perfume.svg</title><rect fill="none" x="0" y="0" width="21" height="24"></rect><path fill="#5e758d" transform="translate(2 2)" d="M11.1123 15.5334C14.0547 14.3313 16.1289 11.4402 16.1289 8.06445C16.1289 3.6106 12.5186 0 8.06445 0C3.61035 0 0 3.6106 0 8.06445C0 11.4431 2.07812 14.3364 5.02539 15.5366L7.36914 19.5967C7.67969 20.1345 8.45508 20.1345 8.76562 19.5967L11.1123 15.5334ZM5.71289 3.17383C5.71777 3.07544 5.72656 3.05908 5.74316 3.04028C5.77734 3.00195 5.80176 3 6.56543 3C7.05273 3 7.23926 3.00073 7.31934 3.01123C7.36426 3.01733 7.375 3.02637 7.3877 3.04028C7.42188 3.07861 7.42383 3.10693 7.42383 3.43945V3.80029L7.60742 3.8125C8.31348 3.86279 9.03223 4.16138 9.6582 4.66943C9.89062 4.85889 10.3193 5.33862 10.4951 5.60474C10.9521 6.29834 11.2344 7.14722 11.2793 7.95361L11.29 8.16138H11.4209C11.4922 8.16138 11.5635 8.16724 11.5801 8.17334C11.6211 8.19165 12 9.05249 12 9.12915C12 9.20557 11.6211 10.0667 11.5801 10.0847C11.541 10.1008 10.7432 10.1008 10.7041 10.0847C10.6631 10.0667 10.2842 9.20557 10.2842 9.12915C10.2842 9.05249 10.6631 8.19165 10.7041 8.17334C10.7197 8.16724 10.79 8.16138 10.8574 8.16138H10.9814V8.06055C10.9814 7.96729 10.9688 7.8374 10.9473 7.69312C10.9102 7.4353 10.8447 7.13232 10.7754 6.91138C10.6396 6.48145 10.3936 6.00732 10.1143 5.62622C10.0342 5.51782 9.95215 5.41699 9.86914 5.32666C9.25391 4.65527 8.40137 4.21582 7.60547 4.15723L7.42383 4.14307V4.37695V4.61279H7.53027C7.58496 4.61279 7.62305 4.60889 7.64941 4.62451C7.71582 4.66309 7.70996 4.82227 7.70996 5.45972V6.22583H7.80566C7.85938 6.22583 7.91504 6.23193 7.93164 6.23779C8.01172 6.27222 8.39746 6.92529 8.59082 7.34888C8.80176 7.81665 8.92871 8.19751 9.02344 8.64526C9.11328 9.07666 9.12891 9.23193 9.12891 9.73389C9.12891 10.1411 9.12402 10.2439 9.08984 10.4678C8.98438 11.123 8.77832 11.6895 8.43359 12.2742C8.28906 12.5181 8.11914 12.7681 7.99023 12.9233L7.92773 13H6.56543H5.20312L5.14062 12.9253C4.91504 12.6511 4.5957 12.1331 4.43945 11.7922C4.24512 11.3669 4.11621 10.9355 4.04102 10.4678C4.00488 10.2439 4 10.1411 4 9.73389C4.00195 9.33057 4.00684 9.22168 4.04102 9.00195C4.09375 8.67114 4.16016 8.38232 4.25195 8.09375C4.32812 7.85303 4.42188 7.61279 4.54004 7.34888C4.7334 6.92529 5.11914 6.27222 5.19922 6.23779C5.21582 6.23193 5.27148 6.22583 5.32422 6.22583H5.4209V5.45972C5.4209 4.82178 5.41504 4.66284 5.48047 4.62451C5.50684 4.60889 5.54492 4.61279 5.59961 4.61279H5.70703V3.84668C5.70703 3.46875 5.70801 3.27661 5.71289 3.17383ZM6.25879 4.01685C6.27441 3.90039 6.23242 3.77466 6.13281 3.70557C6.10059 3.68335 6.05566 3.66528 6.03418 3.66528C6.00879 3.66528 5.99902 3.66602 5.99512 3.73706C5.99316 3.78125 5.99316 3.85254 5.99316 3.96777C5.99316 4.26807 5.99316 4.27026 6.03418 4.27026C6.05566 4.27026 6.10059 4.25195 6.13281 4.22974C6.20508 4.17993 6.24707 4.10083 6.25879 4.01685ZM7.42383 6.22583V5.58057V4.93555H6.56543H5.70703V5.58057V6.22583H6.56543H7.42383ZM7.17285 7.71582C7.0752 7.52612 6.89941 7.32861 6.77832 7.26416C6.74707 7.24854 6.71973 7.23706 6.69141 7.229C6.65332 7.21826 6.61426 7.21362 6.56543 7.21362C6.4082 7.21362 6.29004 7.27832 6.14746 7.43945C5.90723 7.71167 5.73242 8.17139 5.63184 8.79834C5.59668 9.03027 5.59082 9.1189 5.59082 9.61279C5.59082 10.0503 5.59863 10.2097 5.62305 10.3689C5.72656 11.0303 5.90039 11.5 6.14551 11.7822C6.21289 11.8604 6.27441 11.916 6.33789 11.9529C6.40918 11.9941 6.48145 12.0122 6.56543 12.0122C6.72461 12.0122 6.84277 11.9475 6.98535 11.7822C7.23047 11.5 7.40332 11.0303 7.50781 10.3689C7.55176 10.0786 7.55176 9.14722 7.50781 8.85693C7.43457 8.39111 7.31641 7.98779 7.17285 7.71582Z"></path></svg>