<svg xmlns="http://www.w3.org/2000/svg" viewBox="0 0 21 24" height="24" width="21"><title>perfumery.svg</title><rect fill="none" x="0" y="0" width="21" height="24"></rect><path fill="#5e758d" transform="translate(2 2)" d="M11.1123 15.5334C14.0547 14.3313 16.1289 11.4402 16.1289 8.06445C16.1289 3.6106 12.5186 0 8.06445 0C3.61035 0 0 3.6106 0 8.06445C0 11.4431 2.07812 14.3364 5.02539 15.5366L7.36914 19.5967C7.67969 20.1345 8.45508 20.1345 8.76562 19.5967L11.1123 15.5334ZM7.06543 4.47632C7.06543 3.65942 7.71387 3 8.51953 3C8.89453 3 9.23535 3.14307 9.49316 3.37842C9.78809 3.64844 9.97363 4.04004 9.97363 4.47656C9.97363 5.29346 9.3252 5.95288 8.51953 5.95288C7.71387 5.95288 7.06543 5.29346 7.06543 4.47632ZM6.68652 5.72485C6.68652 5.54932 6.75098 5.37866 6.875 5.22314C7.15625 5.86133 7.78809 6.30688 8.51953 6.30688C9.23828 6.30688 9.86133 5.87573 10.1494 5.25391C10.2578 5.40112 10.3145 5.56079 10.3145 5.72485C10.3145 6.01514 10.1367 6.29175 9.81055 6.50781C9.48535 6.72388 9.01855 6.86548 8.5 6.86548C8.1748 6.86548 7.87109 6.81006 7.60938 6.71533C7.45312 6.65894 7.31152 6.58862 7.18945 6.50781C6.86328 6.29175 6.68652 6.01514 6.68652 5.72485ZM5 8.26953C5 7.34326 5.5332 6.50781 6.36914 5.97607C6.44922 6.30786 6.68359 6.59546 7 6.80518C7.39355 7.06592 7.9209 7.21973 8.5 7.21973C9.0791 7.21973 9.60645 7.06592 10 6.80518C10.2217 6.65796 10.4033 6.47266 10.5195 6.2605C10.5693 6.17041 10.6074 6.07544 10.6318 5.97656C11.4668 6.50854 12 7.34351 12 8.26953C12 9.84741 10.4521 11.1614 8.5 11.1614C6.54785 11.1614 5 9.84741 5 8.26953ZM8.50195 9.93677C6.99609 9.93677 5.74316 9.13428 5.4707 8.07178C5.43359 8.2146 5.41016 8.35669 5.41016 8.50757C5.41016 9.77661 6.79785 10.8074 8.50195 10.8074C10.207 10.8074 11.5938 9.77661 11.5938 8.50757C11.5938 8.35669 11.5586 8.2146 11.5205 8.07178C11.249 9.13428 10.0088 9.93677 8.50195 9.93677ZM8.5 11.5156C9.68359 11.5156 10.752 11.0625 11.4609 10.3435C11.4014 10.5735 11.2812 10.792 11.1094 10.9915C10.9834 11.137 10.8291 11.2722 10.6504 11.3943C10.1094 11.7637 9.34668 12 8.50098 12C7.6543 12 6.89062 11.7637 6.34961 11.3943C5.92676 11.105 5.64355 10.7419 5.54004 10.3447C6.24902 11.063 7.31641 11.5156 8.5 11.5156Z"></path></svg>