<svg xmlns="http://www.w3.org/2000/svg" viewBox="0 0 17 20" height="20" width="17"><title>pet.svg</title><rect fill="none" x="0" y="0" width="17" height="20"></rect><path fill="#5e758d" transform="translate(0 0)" d="M11.1123 15.5334C14.0547 14.3313 16.1289 11.4402 16.1289 8.06445C16.1289 3.6106 12.5186 0 8.06445 0C3.61035 0 0 3.6106 0 8.06445C0 11.4431 2.07812 14.3364 5.02539 15.5366L7.36914 19.5967C7.67969 20.1345 8.45508 20.1345 8.76562 19.5967L11.1123 15.5334ZM6.18555 3.16919C6.2959 3.06543 6.42578 3 6.57129 3C6.85449 3 7.07617 3.24707 7.21289 3.54175C7.35156 3.83936 7.42871 4.22729 7.42871 4.63647C7.42871 5.04468 7.35156 5.43335 7.21289 5.7312C7.07617 6.02637 6.85449 6.27271 6.57129 6.27271C6.42969 6.27271 6.30371 6.21118 6.19629 6.11328C6.08789 6.01465 5.99805 5.87891 5.92969 5.7312C5.79102 5.43335 5.71387 5.04541 5.71387 4.63647C5.71387 4.22803 5.79102 3.83936 5.92969 3.54175C5.99609 3.39844 6.08203 3.26685 6.18555 3.16919ZM9.14551 3.08813C9.23145 3.03247 9.32617 3 9.42871 3C9.71191 3 9.93359 3.24707 10.0703 3.54175C10.1494 3.71143 10.208 3.91064 10.2441 4.12646C10.2715 4.28882 10.2861 4.46069 10.2861 4.63647C10.2861 5.04468 10.209 5.43335 10.0703 5.7312C9.93359 6.02637 9.71191 6.27271 9.42871 6.27271C9.14551 6.27271 8.92383 6.02563 8.78711 5.7312C8.64844 5.43335 8.57129 5.04541 8.57129 4.63647C8.57129 4.3728 8.60352 4.11719 8.66309 3.88916C8.69629 3.76416 8.73828 3.64722 8.78711 3.54175C8.87402 3.35376 8.99609 3.18555 9.14551 3.08813ZM4.21582 7.22339C4.35254 6.92798 4.57422 6.68188 4.85742 6.68188C5.13965 6.68188 5.36133 6.92896 5.49902 7.22339C5.6377 7.52124 5.71387 7.90918 5.71387 8.31812C5.71387 8.72656 5.6377 9.11499 5.49902 9.41284C5.36133 9.70825 5.13965 9.95459 4.85742 9.95459C4.57422 9.95459 4.35254 9.70752 4.21582 9.41284C4.07617 9.11499 4 8.72729 4 8.31812C4 7.90991 4.07617 7.52124 4.21582 7.22339ZM6.48145 7.86255C6.80664 7.20874 7.31445 6.68188 8 6.68188C8.68652 6.68188 9.19434 7.20801 9.51855 7.86255C9.83887 8.50635 10 9.30566 10 9.95459C10 10.7104 9.68262 11.2358 9.29395 11.5518C8.91113 11.8633 8.43066 12 8 12C7.56934 12 7.08887 11.8625 6.70605 11.5518C6.31738 11.2358 6 10.7104 6 9.95459C6 9.30566 6.16113 8.50635 6.48145 7.86255ZM10.501 7.22339C10.6387 6.92798 10.8604 6.68188 11.1426 6.68188C11.4258 6.68188 11.6475 6.92896 11.7842 7.22339C11.9238 7.52124 12 7.90918 12 8.31812C12 8.72656 11.9238 9.11499 11.7842 9.41284C11.6475 9.70825 11.4258 9.95459 11.1426 9.95459C10.9629 9.95459 10.8086 9.85474 10.6836 9.7063C10.6123 9.62134 10.5508 9.52026 10.501 9.41284C10.4258 9.25171 10.3691 9.06396 10.333 8.86084C10.3027 8.68896 10.2861 8.50586 10.2861 8.31812C10.2861 7.90991 10.3623 7.52124 10.501 7.22339Z"></path></svg>