<svg xmlns="http://www.w3.org/2000/svg" viewBox="0 0 21 24" height="24" width="21"><title>pharmacy.svg</title><rect fill="none" x="0" y="0" width="21" height="24"></rect><path fill="#ba272a" transform="translate(2 2)" d="M11.1123 15.5334C14.0547 14.3313 16.1289 11.4402 16.1289 8.06445C16.1289 3.6106 12.5186 0 8.06445 0C3.61035 0 0 3.6106 0 8.06445C0 11.4431 2.07812 14.3364 5.02539 15.5366L7.36914 19.5967C7.67969 20.1345 8.45508 20.1345 8.76562 19.5967L11.1123 15.5334ZM10.8877 3.78052L10.0557 4.87744H8.11133L10.0557 2.98999V2.9187C10.0498 2.7417 10.1006 2.56665 10.2041 2.41675C10.3066 2.2666 10.457 2.14795 10.6338 2.07617C10.8105 2.00439 11.0068 1.98267 11.1973 2.01367C11.3066 2.03149 11.4111 2.06592 11.5059 2.11523C11.5771 2.15234 11.6436 2.19775 11.7031 2.25073C11.8428 2.37402 11.9385 2.53247 11.9785 2.70581C12.0186 2.87939 12.001 3.05981 11.9287 3.22412C11.8564 3.38843 11.7314 3.5293 11.5713 3.62842C11.4102 3.72754 11.2217 3.78052 11.0273 3.78052C10.9814 3.78418 10.9346 3.78418 10.8877 3.78052ZM12 5.58984V6.302L11.2227 8.79492L12 11.2878V12H5V11.2878L6.16699 8.79492L5 6.302V5.58984H12ZM8.88867 9.15088H10.4443V8.43872H8.88867V7.01416H8.11133V8.43872H6.55566V9.15088H8.11133V10.5754H8.88867V9.15088Z"></path></svg>