<svg xmlns="http://www.w3.org/2000/svg" viewBox="0 0 17 20" height="20" width="17"><title>photo.svg</title><rect fill="none" x="0" y="0" width="17" height="20"></rect><path fill="#5e758d" transform="translate(0 0)" d="M11.1123 15.5334C14.0547 14.3313 16.1289 11.4402 16.1289 8.06445C16.1289 3.6106 12.5186 0 8.06445 0C3.61035 0 0 3.6106 0 8.06445C0 11.4431 2.07812 14.3364 5.02539 15.5366L7.36914 19.5967C7.48535 19.7986 7.66797 19.9248 7.86621 19.9751C8.19629 20.0588 8.57129 19.9326 8.76562 19.5967L11.1123 15.5334ZM12 3.88892V10.1111C12 10.6001 11.5996 11 11.1113 11H4.88867C4.40039 11 4 10.6001 4 10.1111V3.88892C4 3.3999 4.40039 3 4.88867 3H11.1113C11.5996 3 12 3.3999 12 3.88892ZM7.55566 9.00439L6.62207 7.87988C6.5293 7.7688 6.36035 7.77344 6.27539 7.88892L5.16895 9.31104C5.05371 9.45776 5.15527 9.67114 5.3418 9.67114H10.6709C10.8535 9.67114 10.96 9.46216 10.8486 9.31567L9.28906 7.2356C9.23535 7.16235 9.14844 7.13379 9.06836 7.14868C9.0166 7.15845 8.96875 7.18604 8.93359 7.2312L7.55566 9.00439Z"></path></svg>