<svg xmlns="http://www.w3.org/2000/svg" viewBox="0 0 17 20" height="20" width="17"><title>picnic_site.svg</title><rect fill="none" x="0" y="0" width="17" height="20"></rect><path fill="#5e758d" transform="translate(0 0)" d="M11.1123 15.5334C14.0547 14.3313 16.1289 11.4402 16.1289 8.06445C16.1289 3.6106 12.5186 0 8.06445 0C3.61035 0 0 3.6106 0 8.06445C0 11.4431 2.07812 14.3364 5.02539 15.5366L7.36914 19.5967C7.47168 19.7749 7.62598 19.894 7.79688 19.9541C8.14258 20.0754 8.55762 19.9563 8.76562 19.5967L11.1123 15.5334ZM7.22559 3.73975C7.12891 3.6814 7.1416 3.08057 7.24512 3.04175C7.40527 2.9707 8.10059 2.99634 8.17773 3.07397C8.27441 3.1709 8.28027 3.65552 8.18359 3.75269C8.12598 3.81079 8.1582 3.8689 8.3125 3.99805L8.51172 4.17261V4.97412V5.77539H8.86621C9.07422 5.77539 9.15723 5.77539 9.17871 5.73926C9.19238 5.71509 9.17871 5.6748 9.15527 5.60742C9.11719 5.51685 9.09082 5.21313 9.09082 4.92871V4.41821H9.92773H10.7637V4.61206C10.7637 4.73486 10.7959 4.80591 10.8535 4.80591C11.1494 4.80591 11.2656 5.36182 11.0078 5.54272C10.9307 5.60083 10.8154 5.64624 10.751 5.64624C10.6865 5.64624 10.6348 5.67212 10.6348 5.71069C10.6348 5.74316 10.7959 5.77539 10.9951 5.77539C11.3105 5.77539 11.375 5.80127 11.5488 5.96924C11.709 6.13721 11.7354 6.2019 11.7031 6.36987C11.6387 6.70605 11.4971 6.80933 11.1045 6.80933H10.7637V7.02271C10.7637 7.37158 10.5645 7.50732 10.0107 7.5332L9.55469 7.55273L10.0107 8.12134L10.4678 8.68359H11.0273C11.709 8.68359 11.9023 8.74829 11.9668 8.9873C12.0693 9.38794 11.9346 9.58838 11.542 9.64648L11.2783 9.6853L11.5361 10.0085C11.7295 10.2539 11.8174 10.4587 11.7979 10.6235C11.7822 10.7539 11.6992 10.8591 11.5488 10.9392C11.2588 11.0942 11.0723 10.9778 10.5322 10.2993L10.0234 9.65942L7.99707 9.65308H5.9707L5.50098 10.2346C4.94141 10.9263 4.79395 11.0361 4.52344 10.9778C4.11133 10.8875 4.08594 10.4609 4.46582 9.98267L4.72949 9.65308H4.50391C4.11133 9.65308 3.9248 9.38794 4.02832 8.9873C4.0918 8.74829 4.28516 8.68359 4.96094 8.68359H5.52051L5.99023 8.10205L6.45996 7.52026H5.99609C5.43652 7.52026 5.23145 7.38452 5.23145 7.02271V6.80933H4.88965C4.67383 6.80933 4.53418 6.77783 4.44141 6.69336C4.36523 6.62451 4.32129 6.52051 4.29199 6.36987C4.25977 6.2019 4.28516 6.13721 4.44629 5.96924C4.55566 5.86597 4.69727 5.77539 4.76172 5.77539C4.83008 5.77539 4.8584 5.75757 4.86426 5.63623C4.86816 5.56396 4.86426 5.45483 4.85742 5.29077L4.83203 4.79956L5.55957 4.81885L6.29297 4.83838L6.31152 5.12256C6.32422 5.27124 6.30566 5.48462 6.2666 5.58789L6.20215 5.77539H6.52441H6.83887V5.06445C6.83887 4.29541 6.92285 4.01099 7.16113 3.93359C7.30273 3.88818 7.32812 3.8042 7.22559 3.73975ZM10.4102 7.16479L10.4297 6.98389L10.4482 6.80933H7.99707H5.5459L5.56543 6.98389L5.58496 7.16479H7.99707H10.4102ZM9.22656 8.68359L8.75684 8.10205C8.50977 7.79541 8.39258 7.65039 8.29297 7.58179C8.20605 7.52173 8.13281 7.52026 7.99707 7.52026C7.70801 7.52026 7.70117 7.52686 7.23828 8.10205L6.76855 8.68359H7.99707H9.22656ZM9.74121 9.32983L9.625 9.16821L9.50879 9.01318H7.99707H6.48535L6.37012 9.16821L6.25391 9.32983H7.99707H9.74121Z"></path></svg>