<svg xmlns="http://www.w3.org/2000/svg" viewBox="0 0 21 24" height="24" width="21"><title>pipal_bot.svg</title><rect fill="none" x="0" y="0" width="21" height="24"></rect><path fill="#598017" transform="translate(2 2)" d="M11.1123 15.5334C14.0547 14.3313 16.1289 11.4402 16.1289 8.06445C16.1289 3.6106 12.5186 0 8.06445 0C3.61035 0 0 3.6106 0 8.06445C0 11.4431 2.07812 14.3364 5.02539 15.5366L7.36914 19.5967C7.67969 20.1345 8.45508 20.1345 8.76562 19.5967L11.1123 15.5334ZM7.31152 2.21289C7.2666 2.1665 7.27051 2.14136 7.33203 2.06421C7.38965 1.99463 7.39844 1.99072 7.45117 2.01001C7.47949 2.01978 7.48828 2.04639 7.47852 2.07544C7.47266 2.0918 7.46094 2.10889 7.44336 2.12402C7.38574 2.17236 7.3916 2.20142 7.46777 2.24585C7.49902 2.26587 7.52148 2.27441 7.54199 2.27466C7.55273 2.27466 7.5625 2.27197 7.57227 2.26709C7.61328 2.24585 7.65625 2.26709 7.69141 2.33276C7.70801 2.35986 7.70605 2.3772 7.67871 2.4043C7.60352 2.48364 7.71777 2.51245 7.79785 2.4353C7.87793 2.36182 8.00488 2.41211 7.95801 2.49902C7.92773 2.55127 7.92969 2.5647 7.97656 2.61304C8.00586 2.6416 8.02734 2.65503 8.05176 2.65283C8.07324 2.65063 8.09766 2.63574 8.13281 2.60718C8.16504 2.58008 8.21289 2.55884 8.2373 2.55884C8.26367 2.55884 8.28613 2.54346 8.29492 2.52222C8.30957 2.47876 8.35352 2.46094 8.39648 2.46704C8.43262 2.47192 8.46777 2.49316 8.48535 2.53003C8.50781 2.57446 8.60059 2.61499 8.62695 2.58984C8.63281 2.58398 8.63086 2.55884 8.61914 2.53369C8.60254 2.49902 8.60449 2.47974 8.63477 2.44482C8.65723 2.41968 8.67383 2.38501 8.67383 2.36572C8.67383 2.32324 8.70898 2.29614 8.77832 2.27881C8.84863 2.26318 8.87305 2.29614 8.83789 2.35596C8.82422 2.3811 8.81738 2.41602 8.82617 2.4353C8.83789 2.46606 8.84277 2.46606 8.87695 2.4353C8.8877 2.42627 8.89844 2.40942 8.9082 2.38965C8.91699 2.37061 8.9248 2.34888 8.92871 2.32886C8.93457 2.28833 8.95508 2.2439 8.97168 2.23047L8.9873 2.21362C8.99609 2.19995 9.00195 2.18335 9.00195 2.17041C9.00195 2.15674 9.01367 2.13721 9.03125 2.12085L9.05371 2.10278C9.12305 2.0603 9.21191 2.09326 9.2666 2.18408C9.29102 2.22192 9.3125 2.24365 9.3291 2.24976C9.35742 2.26001 9.37305 2.22803 9.36719 2.15698L9.36133 2.06616H9.47168C9.55859 2.06616 9.58691 2.07373 9.60547 2.10278C9.61816 2.12183 9.62012 2.1333 9.60938 2.14502L9.59082 2.16089C9.48242 2.22266 9.48242 2.22461 9.51953 2.26123C9.5498 2.29028 9.5625 2.29224 9.60547 2.26904C9.67285 2.23608 9.71582 2.26709 9.72461 2.35205C9.73242 2.43335 9.78613 2.44287 9.81641 2.36572C9.83301 2.3252 9.84961 2.31152 9.87207 2.31934C9.91699 2.33472 9.91699 2.4873 9.87402 2.52026C9.8457 2.54346 9.84766 2.55127 9.88672 2.58984C9.90332 2.60645 9.91309 2.62061 9.91699 2.63672C9.9209 2.65259 9.91992 2.67041 9.91504 2.69434C9.90332 2.74438 9.91309 2.76562 9.97852 2.83521C10.0225 2.87988 10.0859 2.92432 10.1182 2.93188C10.207 2.95508 10.2334 2.98022 10.2334 3.04028C10.2334 3.08472 10.248 3.09619 10.3545 3.13306C10.4609 3.16772 10.4814 3.16968 10.5146 3.14648C10.5674 3.10986 10.6191 3.11353 10.6338 3.15625C10.6396 3.17749 10.6572 3.19458 10.6768 3.20337C10.6943 3.21143 10.7129 3.21289 10.7275 3.20459C10.7383 3.19873 10.7461 3.17358 10.7461 3.14648C10.7461 3.11353 10.7568 3.1001 10.7852 3.1001C10.8076 3.1001 10.832 3.10986 10.8408 3.12134C10.8467 3.13306 10.875 3.13672 10.9023 3.1311C10.9365 3.12134 10.9678 3.13501 11.0166 3.17554C11.0469 3.19897 11.0693 3.21338 11.0908 3.21997C11.1064 3.22461 11.1221 3.2251 11.1396 3.22192C11.1855 3.21411 11.1992 3.22192 11.2266 3.27026C11.2451 3.30298 11.2588 3.33398 11.2588 3.3418C11.2588 3.35645 11.2334 3.35596 11.2041 3.34546C11.1836 3.33813 11.1611 3.32593 11.1445 3.31079C11.1172 3.2876 11.083 3.27417 11.0664 3.27979C11.0215 3.29736 11.0254 3.32617 11.0742 3.35132C11.0967 3.36304 11.1152 3.39185 11.1152 3.41504C11.1152 3.43823 11.1338 3.48267 11.1562 3.51562C11.2061 3.58521 11.208 3.61816 11.167 3.66064C11.1396 3.68774 11.1377 3.70312 11.1582 3.74365C11.1787 3.78418 11.1768 3.80176 11.1543 3.8269C11.1396 3.84424 11.1172 3.87524 11.1055 3.89844C11.1006 3.90845 11.0898 3.9209 11.0762 3.93286C11.0605 3.94653 11.042 3.95972 11.0254 3.96802C10.9814 3.99121 10.9512 4.02808 10.9443 4.05737C10.9395 4.07666 10.9453 4.09253 10.9639 4.09937C10.9805 4.10522 11.0107 4.09546 11.0312 4.07812C11.0596 4.0542 11.0869 4.04492 11.1084 4.04932C11.126 4.05273 11.1396 4.06445 11.1465 4.08398C11.1504 4.09717 11.1592 4.11035 11.1699 4.11963L11.1895 4.13208C11.2363 4.14966 11.249 4.08765 11.21 4.02588C11.1836 3.9834 11.1807 3.96216 11.1973 3.93115C11.2246 3.88281 11.2568 3.88086 11.2715 3.92529C11.2773 3.94482 11.2959 3.98535 11.3125 4.0144C11.3271 4.04517 11.3408 4.08569 11.3408 4.10718C11.3408 4.12842 11.3613 4.15161 11.3906 4.16309C11.4482 4.18237 11.4727 4.21338 11.4541 4.24048C11.4355 4.26758 11.3613 4.22681 11.3613 4.19019C11.3613 4.1709 11.3477 4.16309 11.3271 4.16699C11.3066 4.1709 11.2939 4.18823 11.2979 4.20361C11.3018 4.21924 11.3125 4.26953 11.3184 4.31763C11.333 4.41821 11.3818 4.44336 11.4189 4.36597C11.4414 4.32153 11.5049 4.29639 11.5049 4.33521C11.5049 4.36987 11.6055 4.45312 11.6367 4.44141C11.6855 4.42407 11.6758 4.36401 11.6162 4.32935C11.5752 4.30225 11.5645 4.28296 11.5713 4.23462L11.5771 4.17285H11.7002C11.8193 4.17285 11.8232 4.1748 11.8291 4.22681C11.834 4.25781 11.8584 4.29272 11.8867 4.31006C11.9131 4.32739 11.9365 4.35059 11.9365 4.36401C11.9365 4.37573 11.9033 4.44531 11.8643 4.51685L11.793 4.65015L11.834 4.69849C11.8643 4.73511 11.8682 4.75635 11.8516 4.78345C11.8359 4.81201 11.8174 4.823 11.7959 4.81641C11.7803 4.81201 11.7627 4.79907 11.7432 4.77783L11.7041 4.73706L11.6465 4.80273C11.6211 4.83203 11.5986 4.87109 11.5898 4.89917L11.5869 4.9187C11.5869 4.94775 11.5732 4.97485 11.5566 4.98267C11.5381 4.98828 11.5254 5.01733 11.5254 5.04834C11.5254 5.07935 11.5068 5.11987 11.4844 5.13916C11.4297 5.18555 11.4336 5.22607 11.4912 5.22607C11.5459 5.22607 11.5869 5.19336 11.5869 5.14893C11.5869 5.10059 11.6309 5.06763 11.6631 5.09277C11.6924 5.11597 11.7002 5.19897 11.6738 5.2146C11.6562 5.22388 11.6504 5.31714 11.6553 5.40039C11.6572 5.43701 11.6621 5.47192 11.6689 5.49683C11.6816 5.53735 11.7041 5.58179 11.7227 5.59521C11.751 5.61646 11.7617 5.6145 11.793 5.57788C11.8359 5.52759 11.8848 5.52173 11.9033 5.56641C11.918 5.60107 11.8828 5.65137 11.8457 5.65137C11.8311 5.65137 11.7988 5.67261 11.7715 5.69971C11.7451 5.72681 11.7002 5.74805 11.6738 5.74805C11.6445 5.74805 11.6035 5.76538 11.5791 5.78662C11.502 5.85498 11.4619 5.89258 11.4414 5.91943C11.4268 5.9397 11.4229 5.95361 11.4229 5.97021C11.4229 5.99536 11.4092 6.02441 11.3926 6.03784C11.374 6.05151 11.3613 6.08228 11.3662 6.10352C11.3701 6.12817 11.3779 6.13843 11.4082 6.14014L11.458 6.13843C11.5322 6.13257 11.5488 6.13843 11.5791 6.18286C11.6074 6.22534 11.6104 6.24268 11.5918 6.27173C11.5586 6.32007 11.5605 6.35669 11.6016 6.43018C11.6201 6.46509 11.6367 6.53076 11.6367 6.5791C11.6387 6.65454 11.6445 6.66602 11.6855 6.67188C11.7246 6.67773 11.7305 6.66992 11.7305 6.61768C11.7305 6.58496 11.71 6.50366 11.6855 6.43604C11.6611 6.37036 11.6465 6.30078 11.6553 6.28345C11.6758 6.23315 11.7334 6.21948 11.7617 6.25635C11.7764 6.27563 11.8154 6.28906 11.8496 6.28906C11.9219 6.28906 11.9609 6.33545 11.9365 6.39551C11.9336 6.40283 11.9297 6.40942 11.9238 6.41504C11.9111 6.427 11.8936 6.43408 11.8721 6.43408C11.8418 6.43408 11.8232 6.4458 11.8232 6.46313C11.8232 6.48242 11.8418 6.49023 11.8828 6.48828C11.9912 6.48047 12.043 6.57324 11.957 6.61768C11.9277 6.63306 11.916 6.6582 11.916 6.70459C11.916 6.74146 11.9092 6.77222 11.9014 6.77222C11.8477 6.77417 11.7842 6.85156 11.7744 6.92896C11.7637 6.99854 11.7539 7.01587 11.7148 7.01978C11.7021 7.02148 11.6885 7.02002 11.6738 7.01587C11.6533 7.00977 11.6318 6.99805 11.6143 6.98096C11.5732 6.94434 11.5645 6.92505 11.5752 6.87085C11.5811 6.8313 11.5752 6.79541 11.5596 6.77393C11.5508 6.76074 11.5381 6.75293 11.5234 6.75293C11.5137 6.75293 11.5049 6.77417 11.5049 6.79736C11.5049 6.81274 11.499 6.83154 11.4902 6.84741C11.4844 6.85767 11.4775 6.8667 11.4707 6.8728C11.4512 6.88843 11.4043 6.89771 11.3574 6.89941C11.3125 6.90112 11.2666 6.89575 11.2451 6.88257C11.2041 6.85742 11.1357 6.90381 11.1357 6.95581C11.1357 6.98877 11.1484 7.00415 11.1807 7.00806C11.2061 7.01196 11.2285 7.02539 11.2344 7.03711C11.2471 7.07764 11.1787 7.08936 11.1377 7.05444C11.1172 7.03711 11.0811 7.02368 11.0557 7.02368C11.0312 7.02368 10.9844 7.01001 10.9512 6.99463C10.8984 6.96753 10.8896 6.9541 10.8896 6.88062C10.8896 6.77808 10.9043 6.76465 10.9678 6.80322C11.0088 6.82837 11.0215 6.83032 11.0352 6.80908C11.0459 6.79346 11.0537 6.7666 11.0537 6.74902C11.0537 6.73169 11.0625 6.71045 11.0742 6.70459C11.1016 6.68921 11.1016 6.62354 11.0742 6.60815C11.0645 6.60229 11.0439 6.61768 11.0293 6.64478C11.0215 6.6604 11.0117 6.6748 11.0029 6.68408C10.9961 6.69092 10.9893 6.69507 10.9844 6.69507C10.9785 6.69507 10.9648 6.70264 10.9463 6.71484C10.9238 6.729 10.8965 6.74951 10.8691 6.77222C10.8184 6.81494 10.7646 6.84961 10.75 6.84961C10.7363 6.84961 10.7129 6.87085 10.7012 6.89795C10.6846 6.93262 10.6611 6.94824 10.6357 6.9458C10.6064 6.94287 10.5742 6.91699 10.5449 6.8689C10.5137 6.81543 10.4775 6.78931 10.4395 6.79077C10.4121 6.79199 10.3838 6.8064 10.3564 6.83423C10.3213 6.87036 10.3086 6.89844 10.3203 6.91699C10.3252 6.92432 10.334 6.93018 10.3457 6.93457C10.3623 6.94043 10.3867 6.96753 10.4014 6.99268C10.4199 7.03125 10.418 7.05054 10.3896 7.09131C10.3604 7.13379 10.3398 7.13965 10.2412 7.13965C10.1699 7.13965 10.0996 7.15308 10.0488 7.17822C9.93945 7.23047 9.91504 7.22656 9.85547 7.15308C9.7959 7.07959 9.78809 7.02734 9.83301 7.01196C9.88672 6.99072 9.86621 6.93262 9.79004 6.89014C9.74902 6.86694 9.70605 6.84961 9.69336 6.85156C9.66309 6.85498 9.64453 6.85303 9.62988 6.84155C9.61914 6.8335 9.61133 6.82056 9.60156 6.80127C9.57031 6.7395 9.52734 6.7395 9.49902 6.80127C9.46582 6.86694 9.46582 6.86304 9.53809 6.87866C9.62012 6.896 9.63379 6.93652 9.5752 6.98291C9.52734 7.01782 9.52734 7.02173 9.5625 7.05835C9.58301 7.07764 9.62988 7.11255 9.66895 7.13184C9.71973 7.15771 9.74414 7.18896 9.73828 7.21313C9.73535 7.22705 9.72168 7.23877 9.69824 7.24585C9.65918 7.25732 9.4248 7.14526 9.32422 7.06421C9.30664 7.0498 9.2959 7.04346 9.2832 7.04907C9.27246 7.05371 9.25977 7.06714 9.24023 7.09131C9.20996 7.12793 9.18945 7.1377 9.17871 7.12402C9.16211 7.09888 9.08008 7.09326 9.05566 7.1145C9.0332 7.13574 8.91016 7.17236 8.88379 7.16284C8.84668 7.15112 8.85449 7.08545 8.89551 7.06421C8.91602 7.05444 8.94922 7.04688 8.96973 7.04858C8.99219 7.05054 9.0127 7.04297 9.0166 7.03125C9.02051 7.01782 9.00684 7.01196 8.97559 7.01782C8.95898 7.021 8.94629 7.02002 8.93359 7.01294C8.91602 7.00366 8.89844 6.98413 8.875 6.9502C8.82227 6.87476 8.81934 6.87476 8.64941 6.85938L8.47949 6.8457L8.42383 6.90576C8.37695 6.95581 8.36621 6.98682 8.3623 7.07764C8.35742 7.2002 8.36426 7.34326 8.38184 7.49805C8.39941 7.65625 8.42871 7.82666 8.4668 7.99951C8.48535 8.08813 8.52246 8.18481 8.56445 8.26514C8.6084 8.34985 8.65723 8.4165 8.69629 8.43652C8.71875 8.44604 8.73535 8.46533 8.73535 8.479C8.73535 8.5293 8.83789 8.6084 8.90625 8.6084C8.9248 8.6084 8.94336 8.61182 8.96191 8.61841C8.98828 8.62769 9.01562 8.64355 9.04297 8.6665C9.08203 8.69727 9.12793 8.72241 9.1416 8.72437C9.19727 8.72437 9.29004 8.78442 9.29004 8.81714C9.29004 8.84155 9.30078 8.86353 9.31934 8.87842C9.33496 8.89087 9.35547 8.89844 9.37793 8.89844C9.39844 8.89844 9.43945 8.91577 9.46777 8.93701C9.51953 8.97363 9.51953 8.97363 9.59961 8.93701C9.70605 8.88477 9.73242 8.88867 9.74902 8.9563C9.75977 9.01196 9.84277 9.06641 9.94824 9.09814C10.0078 9.11572 10.0742 9.12646 10.1387 9.12646C10.2129 9.12646 10.291 9.13599 10.3135 9.14771C10.3662 9.1748 10.4307 9.1748 10.5098 9.14575C10.5674 9.12842 10.5898 9.13037 10.668 9.16504C10.7178 9.18823 10.7773 9.20752 10.7979 9.20752C10.8086 9.20752 10.8262 9.21338 10.8457 9.22266C10.8652 9.23193 10.8867 9.24438 10.9062 9.25781C10.9961 9.32349 11.1562 9.38159 11.249 9.38159C11.3066 9.38159 11.3203 9.38916 11.3203 9.42017C11.3203 9.48584 11.2363 9.50708 11.1016 9.47998C11.0352 9.46655 10.96 9.44141 10.9326 9.42603C10.9023 9.40674 10.8633 9.40088 10.8135 9.4104C10.7627 9.41821 10.7217 9.41235 10.666 9.3855C10.5537 9.32935 10.4756 9.31958 10.3418 9.34277C10.2275 9.3623 10.1455 9.35449 9.96484 9.3042C9.9502 9.30029 9.93164 9.29834 9.91602 9.29907C9.90039 9.29956 9.88672 9.30249 9.87793 9.30811C9.85547 9.31958 9.8291 9.31592 9.79395 9.29443C9.76172 9.27319 9.72656 9.26758 9.69531 9.2771C9.66895 9.28491 9.61816 9.28882 9.58105 9.28882C9.54199 9.28687 9.48828 9.30029 9.46191 9.31763C9.4248 9.33911 9.3877 9.34473 9.32812 9.33521C9.25488 9.32349 9.23828 9.32935 9.19531 9.37183C9.13379 9.43359 9.08887 9.41821 9.08008 9.32739C9.07227 9.24438 9.03125 9.22681 8.96094 9.28101C8.94238 9.29541 8.93066 9.3042 8.92578 9.31567C8.91895 9.33301 8.92676 9.35669 8.94727 9.41626C8.96777 9.47046 8.98145 9.52832 8.98145 9.54395C8.98145 9.58838 9.07227 9.63672 9.12793 9.62305C9.14355 9.61938 9.16016 9.62012 9.17871 9.62524C9.19922 9.63086 9.22168 9.64233 9.24609 9.65991C9.27441 9.67944 9.2998 9.69165 9.32422 9.69702C9.33984 9.70044 9.35449 9.70093 9.36914 9.69849C9.41309 9.69067 9.42871 9.70044 9.45801 9.74878C9.49219 9.80664 9.49902 9.80859 9.58691 9.79712C9.67285 9.78345 9.68359 9.78735 9.73438 9.84351C9.76367 9.875 9.78906 9.89185 9.81836 9.89917C9.83008 9.9021 9.84277 9.90332 9.85742 9.90332C9.90527 9.90332 9.92578 9.91309 9.92578 9.93237C9.92578 9.97485 9.83984 10 9.7041 10C9.60742 10 9.57031 9.98853 9.49512 9.94214C9.45996 9.9209 9.41992 9.90161 9.39062 9.89136C9.37695 9.88672 9.36621 9.88403 9.35938 9.88403C9.33496 9.88403 9.28125 9.85693 9.23828 9.82617C9.18945 9.78931 9.1377 9.76807 9.09473 9.76807C9.05762 9.76807 9.01465 9.75464 9 9.73511C8.95801 9.68945 8.88672 9.66406 8.7627 9.65625L8.65137 9.65405C8.54883 9.65405 8.44043 9.66553 8.41309 9.67725C8.39062 9.68652 8.37695 9.69019 8.36621 9.68799C8.35742 9.68604 8.35059 9.6792 8.34375 9.66748C8.32129 9.62695 8.11816 9.56909 7.84277 9.52271C7.69629 9.49829 7.62109 9.48022 7.58203 9.43896C7.5498 9.40527 7.54102 9.35596 7.53516 9.27515C7.5293 9.20166 7.51465 9.13208 7.50488 9.12256C7.49414 9.11279 7.44336 9.10132 7.39355 9.09937C7.30176 9.09351 7.27539 9.10889 7.22754 9.19409C7.21191 9.22461 7.19043 9.24561 7.16699 9.25562C7.14355 9.26611 7.11816 9.26465 7.09473 9.25C7.08203 9.24365 7.05664 9.23706 7.02637 9.23242C7.00293 9.229 6.97754 9.22681 6.95312 9.22681C6.875 9.22681 6.83789 9.23853 6.79297 9.27319C6.75977 9.30029 6.70898 9.32739 6.67773 9.33325C6.64941 9.34082 6.61426 9.3584 6.59961 9.37378C6.58789 9.38916 6.55469 9.40088 6.52637 9.40088C6.49902 9.40088 6.43359 9.42212 6.37793 9.44727C6.25781 9.50513 6.08105 9.53223 6.05859 9.49756C6.04004 9.46851 6.09961 9.42017 6.1543 9.42017C6.21875 9.42017 6.5791 9.24805 6.60449 9.20557C6.63672 9.14575 6.58105 9.09546 6.51562 9.12451C6.48926 9.13599 6.38281 9.15527 6.27539 9.16699L6.09375 9.19336L6.0498 9.20361C6.00879 9.22314 5.63379 9.21924 5.52051 9.198C5.45312 9.18628 5.41602 9.19214 5.35645 9.21924C5.25 9.26758 4.99121 9.28101 4.97559 9.23853C4.95898 9.19604 4.99609 9.17847 5.10449 9.17847C5.17383 9.17847 5.22754 9.16113 5.31934 9.10718C5.46094 9.02393 5.59082 8.99121 5.78516 8.9873C5.89453 8.98535 5.93359 8.97559 5.98047 8.94092C6.04199 8.89453 6.24316 8.80176 6.28223 8.80176C6.29004 8.80176 6.30664 8.8103 6.32812 8.82373L6.37598 8.85962C6.41504 8.89062 6.45801 8.91577 6.46875 8.91772C6.51367 8.91895 6.58203 8.896 6.64648 8.86108C6.67871 8.84375 6.70996 8.82349 6.7373 8.80176C6.78906 8.75928 6.85254 8.72437 6.87695 8.72437C6.93555 8.72437 7.02637 8.65552 7.10547 8.56885C7.18945 8.47607 7.25879 8.36255 7.25879 8.2915C7.25879 8.26245 7.27539 8.20264 7.2959 8.1582C7.32617 8.09424 7.33398 8.01904 7.33887 7.80444C7.34277 7.5686 7.33691 7.52026 7.2998 7.42358C7.2666 7.34058 7.26074 7.30005 7.27539 7.25171C7.28516 7.2168 7.29102 7.17041 7.28711 7.14917L7.2666 6.99854C7.25488 6.90186 7.24414 6.88257 7.19531 6.85742C7.17969 6.84985 7.16504 6.84106 7.1543 6.83276C7.14258 6.82397 7.13574 6.81592 7.13574 6.81104C7.13574 6.79932 7.10449 6.79346 7.06934 6.79541C7.04004 6.79785 7.02344 6.79932 7.01367 6.79199C7.00098 6.78223 6.99902 6.75757 6.99609 6.70093C6.98926 6.61182 6.99609 6.59644 7.04102 6.56738C7.10645 6.52881 7.1084 6.50952 7.04883 6.49023C6.99609 6.47314 6.9541 6.47876 6.93262 6.50098C6.91699 6.5166 6.91211 6.54077 6.91992 6.57129C6.92578 6.59644 6.91406 6.62549 6.88965 6.64673C6.83398 6.69312 6.83789 6.71826 6.91016 6.79175C6.95898 6.8418 6.97168 6.87085 6.97168 6.93848C6.97168 6.98389 6.96777 7.00708 6.95508 7.02271C6.94727 7.03247 6.93555 7.03931 6.91797 7.04688C6.87402 7.06519 6.81445 7.052 6.77051 7.02197C6.74023 7.00171 6.71777 6.97363 6.71094 6.94238C6.70215 6.90356 6.6875 6.88672 6.67188 6.89014C6.65625 6.89355 6.63965 6.91724 6.62891 6.95972C6.62109 6.99438 6.61523 7.0127 6.60156 7.02319C6.58789 7.03369 6.56543 7.03613 6.52441 7.03906C6.4707 7.04297 6.43164 7.0564 6.42383 7.07373C6.40723 7.11255 6.34766 7.10669 6.30469 7.06226C6.28418 7.04102 6.25293 7.02368 6.23438 7.02368C6.21582 7.02368 6.1748 7.0061 6.14062 6.98486C6.10742 6.96362 6.0625 6.94629 6.04395 6.94629C6.02344 6.94629 5.99902 6.92896 5.98633 6.90771C5.96387 6.86694 5.89453 6.85547 5.87402 6.89014C5.85938 6.91138 5.68945 6.89795 5.60742 6.8689C5.56641 6.85547 5.45898 6.90381 5.41211 6.95776C5.39746 6.97144 5.36914 6.98486 5.34668 6.98486C5.29688 6.98486 5.14551 7.0564 5.09863 7.10278C5.05762 7.14526 4.99805 7.14917 4.94238 7.11646C4.91113 7.09888 4.88867 7.09888 4.8457 7.11646C4.80078 7.1377 4.78613 7.13574 4.75586 7.1106C4.73047 7.08911 4.71484 7.06348 4.70996 7.03711C4.70312 7.00171 4.71582 6.9646 4.74707 6.93262C4.77441 6.90576 4.79688 6.8689 4.79688 6.85352C4.79688 6.83618 4.82129 6.79932 4.85156 6.76855C4.90527 6.71631 4.90527 6.71436 4.86816 6.67578C4.8457 6.65259 4.81055 6.63696 4.78809 6.64087C4.76953 6.64307 4.75879 6.64893 4.75195 6.66187C4.74609 6.6731 4.74414 6.68994 4.74316 6.71436C4.74316 6.76465 4.73145 6.78784 4.69824 6.80322C4.67188 6.81494 4.63086 6.84375 4.60352 6.86694C4.5791 6.88818 4.53613 6.90771 4.51172 6.90771C4.46582 6.90771 4.46387 6.90186 4.47461 6.81494C4.48242 6.75098 4.47461 6.7085 4.45215 6.66992C4.42969 6.63745 4.4248 6.61963 4.43262 6.59937L4.44336 6.5791C4.48438 6.51538 4.47266 6.50366 4.35156 6.4978C4.29199 6.49487 4.26172 6.49292 4.24121 6.48169C4.22266 6.47144 4.21191 6.45312 4.19531 6.4187L4.17773 6.37817C4.16504 6.34448 4.16992 6.32788 4.19141 6.28711C4.24902 6.18677 4.19531 6.12109 4.10156 6.177C4.07031 6.19434 4.05371 6.19434 4.0293 6.17505C3.98047 6.13647 3.98633 6.12671 4.09863 6.04565C4.16895 5.99536 4.20117 5.95874 4.20117 5.92969C4.20117 5.87549 4.26562 5.85229 4.32227 5.88525C4.34277 5.89844 4.3584 5.90186 4.38281 5.89209C4.39844 5.88599 4.41797 5.875 4.44531 5.85815C4.49316 5.8291 4.53027 5.79639 4.53027 5.78662C4.53027 5.75757 4.44336 5.76538 4.39844 5.79639C4.3457 5.83496 4.28613 5.83301 4.23828 5.79248C4.20801 5.76733 4.19141 5.76538 4.14844 5.78271C4.08496 5.81177 4.02344 5.81177 4.00684 5.78662C3.98438 5.75366 4.03711 5.70923 4.09668 5.70923C4.17871 5.70923 4.19531 5.68799 4.18945 5.59326C4.1875 5.54492 4.18555 5.50439 4.18359 5.50049C4.18066 5.49683 4.16016 5.5083 4.13574 5.52368C4.07812 5.5625 4.06836 5.5625 4.0293 5.52368C3.98633 5.48315 3.98828 5.47168 4.05176 5.4021C4.09668 5.35376 4.12402 5.34204 4.19141 5.34204C4.22461 5.34204 4.24609 5.33984 4.2627 5.33203C4.28125 5.32349 4.29395 5.30835 4.31055 5.28223C4.33008 5.24854 4.34082 5.22949 4.34082 5.21021C4.3418 5.1853 4.32422 5.16016 4.28418 5.10254C4.22461 5.02124 4.21777 4.95557 4.27148 4.95557C4.28418 4.95557 4.33887 4.91699 4.39258 4.86865C4.42969 4.83643 4.46484 4.80835 4.48633 4.79346L4.50781 4.78149C4.51758 4.78149 4.54883 4.79907 4.57715 4.82031C4.60059 4.83789 4.62012 4.84912 4.63672 4.854C4.67188 4.86426 4.69727 4.84668 4.7207 4.80103C4.73535 4.77393 4.74219 4.75708 4.74121 4.73755C4.74121 4.71948 4.73438 4.69897 4.7207 4.66553L4.6875 4.58643L4.77246 4.50513C4.82129 4.45874 4.8584 4.40479 4.8584 4.37964C4.8584 4.35645 4.88086 4.32349 4.90918 4.30615C4.96289 4.27319 4.98145 4.17676 4.94043 4.15356C4.90332 4.13208 4.91992 4.08569 4.9707 4.06641C5.00586 4.05298 5.02246 4.03369 5.02246 4.00073C5.02246 3.98047 5.03516 3.9563 5.05566 3.93237L5.08594 3.9021L5.15137 3.85205L5.20898 3.90405C5.28711 3.97363 5.33594 3.9563 5.31738 3.86353C5.30762 3.80566 5.31152 3.79395 5.3584 3.77466C5.42188 3.74756 5.42871 3.70703 5.37109 3.6897C5.32227 3.67407 5.31738 3.62573 5.36328 3.6084C5.4043 3.59302 5.49414 3.63354 5.49414 3.66821C5.49414 3.68188 5.52246 3.70508 5.55762 3.71851C5.63965 3.75146 5.66895 3.71655 5.625 3.6394C5.61133 3.61035 5.60254 3.57178 5.60938 3.55615C5.61523 3.53882 5.60742 3.5022 5.58691 3.4751C5.55566 3.43066 5.55566 3.4209 5.58203 3.39575C5.62988 3.35132 5.68945 3.38232 5.72559 3.46729C5.74609 3.51758 5.77148 3.54468 5.7959 3.54468C5.81641 3.54468 5.86914 3.56592 5.91504 3.59302C5.95996 3.61816 6.01758 3.64136 6.04199 3.64136C6.05762 3.64136 6.07715 3.64893 6.09375 3.66113C6.10449 3.66919 6.11426 3.67896 6.12207 3.6897C6.15918 3.74365 6.22266 3.75342 6.24121 3.70703C6.25977 3.6626 6.2207 3.6084 6.15723 3.59302C6.03613 3.56592 5.96387 3.51953 5.92285 3.44604C5.90039 3.40356 5.87598 3.37061 5.86719 3.36865L5.80566 3.36304C5.73828 3.35522 5.71582 3.31274 5.75098 3.26245C5.76953 3.23535 5.77539 3.19482 5.7666 3.15039L5.75488 3.07886L5.86523 3.09229C5.93945 3.1001 5.98633 3.11548 6.00488 3.14062C6.04199 3.18896 6.16113 3.18896 6.27539 3.13867C6.39062 3.09033 6.42969 3.09033 6.49316 3.13867C6.53418 3.16772 6.55273 3.17163 6.57324 3.15625C6.60254 3.13379 6.6084 3.10889 6.59082 3.07837C6.58105 3.06152 6.56445 3.04321 6.54004 3.02271C6.45605 2.94751 6.45996 2.91064 6.55469 2.90308C6.61035 2.89917 6.63477 2.88745 6.63867 2.8623C6.64551 2.83716 6.63281 2.82959 6.5791 2.82959C6.53027 2.82959 6.49121 2.81201 6.44434 2.76758C6.36035 2.69043 6.36035 2.65552 6.4375 2.60156C6.47266 2.57642 6.49902 2.53955 6.49902 2.51636C6.49902 2.49316 6.51367 2.4585 6.53418 2.43921C6.56543 2.40625 6.56543 2.40234 6.53223 2.36768C6.4707 2.30371 6.50586 2.25928 6.62891 2.23804C6.7168 2.22461 6.73926 2.21094 6.76172 2.1665C6.79688 2.09888 6.8418 2.08154 6.88281 2.12012C6.92188 2.15698 6.90332 2.21094 6.8457 2.22461C6.82812 2.22974 6.81738 2.2356 6.81348 2.24634C6.80957 2.25537 6.80957 2.26782 6.81348 2.28638C6.82129 2.32129 6.81152 2.3501 6.78027 2.3811C6.74609 2.41602 6.74121 2.43335 6.75781 2.4585C6.77637 2.48584 6.79785 2.49536 6.81934 2.48657C6.83594 2.47998 6.85254 2.46289 6.86914 2.4353C6.88477 2.4043 6.91797 2.36963 6.93652 2.35791C6.9834 2.32886 7.00391 2.35986 7.01855 2.4873C7.02832 2.56274 7.02441 2.59375 7 2.6189C6.96875 2.65161 6.97559 2.69434 7.0127 2.69434C7.02246 2.69434 7.05957 2.67114 7.09668 2.64209C7.13965 2.60718 7.18262 2.5918 7.21582 2.59375C7.25195 2.59766 7.28516 2.58398 7.31836 2.55127C7.33789 2.53174 7.35156 2.52051 7.36328 2.51636C7.375 2.51221 7.38477 2.51465 7.39551 2.52222C7.41016 2.53369 7.42285 2.56079 7.42285 2.58008C7.42285 2.60156 7.43262 2.61694 7.44336 2.61694C7.44922 2.61694 7.46094 2.62305 7.47461 2.63281C7.48828 2.64185 7.50195 2.65405 7.51465 2.66724C7.60156 2.75415 7.64648 2.66919 7.56445 2.57056C7.54199 2.54346 7.50488 2.52026 7.48438 2.52026C7.47266 2.52026 7.45996 2.51709 7.44922 2.5127C7.44141 2.50928 7.43555 2.50513 7.43262 2.50098C7.41602 2.47583 7.28711 2.47583 7.2334 2.50293C7.20117 2.52026 7.18457 2.51831 7.16016 2.49316C7.13086 2.46606 7.13086 2.4585 7.17188 2.41772L7.21777 2.37134L7.17676 2.33667C7.08984 2.26318 7.15625 2.19946 7.25879 2.25732C7.32812 2.29419 7.36328 2.26514 7.31152 2.21289ZM9.15625 2.28833C9.16211 2.27686 9.16211 2.25171 9.15625 2.23047C9.13965 2.18408 9.07422 2.18018 9.05566 2.22266C9.0332 2.28052 9.12305 2.33862 9.15625 2.28833ZM9.32227 2.55518C9.35742 2.5144 9.37207 2.47778 9.36719 2.43726C9.36328 2.4043 9.35156 2.37524 9.33887 2.37134C9.31055 2.36182 9.26953 2.46411 9.26953 2.5376C9.26953 2.58008 9.25488 2.5957 9.19727 2.61499C9.13379 2.63623 9.09473 2.69434 9.14355 2.69434C9.18652 2.69434 9.26953 2.65552 9.26953 2.63428C9.26953 2.6228 9.29199 2.58594 9.32227 2.55518ZM9.63672 2.57837C9.69336 2.57837 9.68945 2.52417 9.62793 2.45654C9.5752 2.39844 9.56445 2.39453 9.5459 2.42358C9.52344 2.4585 9.59277 2.57837 9.63672 2.57837ZM9.11719 2.53955C9.1748 2.51831 9.1748 2.51636 9.1377 2.48926C9.05176 2.4314 8.9248 2.48169 8.99219 2.54736C9.01074 2.5647 9.0332 2.57446 9.04102 2.5686L9.11719 2.53955ZM7.84766 2.62646C7.86621 2.61304 7.87598 2.58984 7.86816 2.57056C7.85938 2.55322 7.84082 2.53955 7.82227 2.53955C7.78613 2.53955 7.76074 2.58594 7.78125 2.61694C7.79004 2.62842 7.7793 2.64966 7.76074 2.66333C7.73047 2.68457 7.72852 2.69604 7.75098 2.76001C7.76562 2.80249 7.7959 2.84106 7.8291 2.85669C7.9375 2.90674 7.97852 2.84302 7.87402 2.78711C7.80469 2.74829 7.79004 2.66528 7.84766 2.62646ZM8.83008 2.66724C8.94922 2.72119 8.98828 2.64404 8.875 2.57837C8.80176 2.53564 8.76465 2.53003 8.74805 2.55688C8.72559 2.58984 8.76074 2.63623 8.83008 2.66724ZM6.92578 2.82178C6.98535 2.76758 6.97559 2.71362 6.90527 2.71362C6.88086 2.71362 6.83984 2.69043 6.81738 2.66333C6.77832 2.61694 6.77246 2.61499 6.74805 2.64404C6.72266 2.67114 6.72754 2.68848 6.76855 2.76196C6.83008 2.87012 6.8623 2.88159 6.92578 2.82178ZM8.42871 2.68774L8.41113 2.66919C8.3623 2.62646 8.33105 2.62842 8.31543 2.67285C8.30273 2.70972 8.2334 2.74634 8.19434 2.73682C8.16309 2.72705 8.12012 2.77539 8.12012 2.81982C8.12012 2.84302 8.13672 2.88354 8.15723 2.90869C8.17969 2.93384 8.20215 2.98022 8.20996 3.00928C8.22852 3.08081 8.29297 3.073 8.30078 2.99756C8.30664 2.95703 8.29297 2.93384 8.25391 2.90308C8.17969 2.84888 8.1875 2.75806 8.26367 2.76758C8.29297 2.77148 8.32324 2.78125 8.33398 2.79077C8.36035 2.81592 8.44824 2.76953 8.44824 2.73291C8.44824 2.72095 8.44043 2.70312 8.42871 2.68774ZM9.31836 2.84692C9.35938 2.87793 9.39258 2.8335 9.36914 2.77539C9.35352 2.73291 9.32812 2.72119 9.30371 2.74634C9.2793 2.76758 9.28711 2.82373 9.31836 2.84692ZM8.78711 2.88159C8.83594 2.89722 8.86719 2.8584 8.85059 2.80249C8.84277 2.76953 8.82422 2.7522 8.79492 2.7522C8.72363 2.7522 8.7168 2.85474 8.78711 2.88159ZM7.19727 2.8584C7.22754 2.87598 7.25879 2.85083 7.24414 2.81982C7.23828 2.80444 7.22168 2.79077 7.20508 2.79077C7.17188 2.79077 7.16602 2.84106 7.19727 2.8584ZM7.36133 2.88745C7.38379 2.88745 7.40234 2.87598 7.40234 2.86035C7.40234 2.82568 7.37988 2.81201 7.34668 2.82373C7.30371 2.83716 7.31641 2.88745 7.36133 2.88745ZM9.10938 2.85278C9.11914 2.88159 9.16602 2.88745 9.16895 2.8584C9.16895 2.84692 9.1543 2.83521 9.13379 2.8335C9.11328 2.82764 9.10254 2.83521 9.10938 2.85278ZM9.67969 2.90479C9.70215 2.94165 9.76562 2.9165 9.75684 2.87402C9.75293 2.85669 9.74121 2.83911 9.72852 2.83521C9.69336 2.82373 9.65918 2.87598 9.67969 2.90479ZM7.6377 2.92627C7.6543 2.92627 7.66895 2.9126 7.66895 2.89722C7.66895 2.88159 7.6543 2.86816 7.6377 2.86816C7.62207 2.86816 7.60742 2.88159 7.60742 2.89722C7.60742 2.9126 7.62207 2.92627 7.6377 2.92627ZM8.60059 2.9187L8.60254 2.90869C8.60254 2.89331 8.5918 2.87793 8.58008 2.87402C8.54883 2.86426 8.4541 2.93774 8.47266 2.95703C8.48145 2.96484 8.50195 2.96094 8.51855 2.94751C8.53418 2.93579 8.55957 2.92798 8.57324 2.92993C8.58594 2.93286 8.59668 2.92798 8.60059 2.9187ZM8.97949 2.92627C8.99219 2.92627 9.00684 2.9165 9.0127 2.90674C9.01855 2.89526 9.01074 2.88745 8.99414 2.88745C8.97559 2.88745 8.96094 2.89526 8.96094 2.90674C8.96094 2.91113 8.96289 2.91553 8.96582 2.91895C8.96875 2.92334 8.97363 2.92627 8.97949 2.92627ZM7.0166 2.98022C7.04297 2.97632 7.06348 2.96094 7.06348 2.94556C7.06348 2.89526 6.98535 2.90674 6.90137 2.96484C6.8584 2.99756 6.80469 3.02271 6.78711 3.02271C6.7666 3.02271 6.73926 3.03638 6.72461 3.05371C6.70215 3.07886 6.70703 3.09033 6.75 3.13306L6.80273 3.1814L6.83789 3.1311C6.8584 3.104 6.88477 3.08081 6.89941 3.08081C6.91211 3.08081 6.93457 3.05957 6.94629 3.03442C6.95508 3.01636 6.97168 3.00024 6.98926 2.98999C6.99805 2.98486 7.00781 2.98145 7.0166 2.98022ZM9.50781 3.05664C9.51562 3.02686 9.50684 2.99097 9.48242 2.95703C9.42676 2.87402 9.39648 2.89331 9.4043 3.00537C9.41309 3.11938 9.42285 3.13501 9.46973 3.10791C9.49023 3.09595 9.50293 3.07788 9.50781 3.05664ZM7.86621 3.03247C7.88379 3.01709 7.89258 2.98999 7.88672 2.97437C7.88281 2.96655 7.87793 2.95923 7.87207 2.95386C7.86621 2.94873 7.86035 2.94556 7.85547 2.94556C7.82715 2.94556 7.70996 3.10205 7.70996 3.14062C7.70996 3.15991 7.70117 3.1814 7.68945 3.18701C7.65039 3.20825 7.66699 3.27417 7.70996 3.27417C7.72656 3.27417 7.74316 3.26392 7.75977 3.24341C7.77051 3.23047 7.78125 3.21362 7.79199 3.19287C7.81445 3.14844 7.83301 3.10205 7.83301 3.08862C7.83301 3.07495 7.84766 3.0498 7.86621 3.03247ZM9.95801 3.06152C10.0117 3.06152 10.0244 3.02661 9.9834 2.98804C9.9541 2.96094 9.91113 2.95703 9.89648 2.98218C9.87402 3.01709 9.90918 3.06152 9.95801 3.06152ZM7.3291 3.0498C7.32227 3.0376 7.31348 3.02563 7.30371 3.01709C7.25684 2.97632 7.21973 2.97437 7.20312 3.01514C7.18457 3.06152 7.22363 3.10986 7.28711 3.11548C7.32812 3.12134 7.34082 3.11353 7.34082 3.08472C7.34082 3.07495 7.33594 3.06226 7.3291 3.0498ZM8.76074 3.12915C8.83984 3.14648 8.89355 3.104 8.86328 3.04785C8.83398 2.99951 8.68457 2.98999 8.66602 3.03638C8.6582 3.05249 8.66016 3.06812 8.66895 3.08179C8.68262 3.10278 8.71484 3.11963 8.76074 3.12915ZM9.00879 3.1272C9.10254 3.11182 9.22754 3.05957 9.22754 3.03442C9.22754 3.02686 9.21387 3.02124 9.18848 3.01758C9.16699 3.01465 9.1377 3.01318 9.10254 3.01318C8.97559 3.01318 8.94043 3.03247 8.94043 3.10791C8.94043 3.1311 8.95703 3.13501 9.00879 3.1272ZM9.69141 3.10596C9.70801 3.1001 9.7207 3.0769 9.71582 3.05371C9.70801 3.00537 9.64258 2.98804 9.62598 3.03052C9.60938 3.07104 9.65234 3.11938 9.69141 3.10596ZM7.14062 3.1709C7.13086 3.14478 7.11914 3.11987 7.1084 3.104C7.09863 3.09229 7.08398 3.08081 7.07422 3.08081C7.03516 3.08081 7.03516 3.11938 7.07617 3.20459C7.11523 3.28955 7.1416 3.31079 7.16406 3.27783C7.1709 3.26807 7.1582 3.21753 7.14062 3.1709ZM7.50879 3.23535C7.54004 3.23535 7.54785 3.22388 7.54199 3.1814C7.53516 3.12134 7.45117 3.09424 7.43066 3.14648C7.41406 3.18701 7.45703 3.23535 7.50879 3.23535ZM7.9209 3.32617L7.94531 3.23926C7.95801 3.20459 7.95215 3.19678 7.91895 3.19678C7.87402 3.19678 7.85352 3.23145 7.85352 3.3147C7.85352 3.38232 7.9043 3.39185 7.9209 3.32617ZM8.24512 3.29346C8.26953 3.29346 8.28418 3.27979 8.28418 3.25659C8.28418 3.20459 8.25781 3.19287 8.21289 3.22388C8.16895 3.25269 8.1875 3.29346 8.24512 3.29346ZM9.34082 3.23535C9.35742 3.23535 9.37207 3.22583 9.37207 3.21606C9.37207 3.20459 9.35742 3.19678 9.34082 3.19678C9.32422 3.19678 9.31055 3.20459 9.31055 3.21606C9.31055 3.22583 9.32422 3.23535 9.34082 3.23535ZM10.8232 3.22778C10.8262 3.22339 10.8281 3.21875 10.8281 3.21411C10.8281 3.20996 10.8262 3.20605 10.8232 3.20312C10.8203 3.19922 10.8154 3.19678 10.8096 3.19678C10.7852 3.19678 10.7588 3.23535 10.7725 3.24902C10.7842 3.25977 10.8135 3.24585 10.8232 3.22778ZM9.61816 3.32227C9.64844 3.33984 9.7002 3.29541 9.7002 3.25269C9.7002 3.21606 9.64062 3.20068 9.61133 3.22949C9.58887 3.24902 9.5957 3.30884 9.61816 3.32227ZM8.42578 3.35132C8.47754 3.35132 8.49512 3.32422 8.47949 3.27417C8.46484 3.22949 8.39062 3.22192 8.375 3.2644C8.35645 3.30884 8.38086 3.35132 8.42578 3.35132ZM8.64941 3.36304C8.66797 3.35327 8.66602 3.33398 8.64355 3.2915C8.6084 3.22778 8.57129 3.21802 8.57129 3.27026C8.57129 3.32056 8.62305 3.37842 8.64941 3.36304ZM10.2021 3.29346C10.2246 3.32812 10.2744 3.3147 10.2744 3.27417C10.2744 3.26123 10.2695 3.24976 10.2627 3.24268C10.2578 3.23804 10.252 3.23535 10.2451 3.23535C10.209 3.23535 10.1865 3.26636 10.2021 3.29346ZM10.5947 3.33008C10.6211 3.31079 10.6191 3.30298 10.5898 3.27222C10.5537 3.2334 10.5166 3.22583 10.4941 3.24902C10.4443 3.29541 10.5391 3.37256 10.5947 3.33008ZM7.26855 3.43262C7.34473 3.41333 7.36523 3.35132 7.2959 3.35132C7.27832 3.35132 7.25586 3.34912 7.23535 3.34595L7.20312 3.33984C7.16211 3.33008 7.15625 3.33594 7.15625 3.37842C7.15625 3.44019 7.18457 3.45386 7.26855 3.43262ZM9.88672 3.4751C9.92578 3.44214 9.92578 3.44019 9.86426 3.38623C9.7959 3.32812 9.77148 3.32056 9.75098 3.35132C9.74316 3.36255 9.75488 3.39771 9.77246 3.43091C9.78809 3.45972 9.80859 3.4873 9.8252 3.49634C9.83496 3.50415 9.86426 3.49438 9.88672 3.4751ZM9.74316 3.53101C9.70801 3.5022 9.67969 3.46729 9.67969 3.45581C9.67969 3.44409 9.66699 3.4248 9.6543 3.41333C9.63379 3.39966 9.60547 3.41138 9.5498 3.45581C9.50879 3.48804 9.48926 3.50537 9.4873 3.51831C9.48535 3.5271 9.49121 3.53418 9.50293 3.54272C9.52148 3.55811 9.5625 3.56396 9.59961 3.56006C9.63281 3.55493 9.65039 3.55566 9.66406 3.56812C9.6709 3.57446 9.67578 3.58374 9.68164 3.59692C9.69336 3.62964 9.71191 3.64136 9.74512 3.63745C9.8125 3.62769 9.8125 3.58716 9.74316 3.53101ZM7.08789 3.61816C7.1543 3.60645 7.1416 3.54468 7.05957 3.47705C6.95508 3.38818 6.91016 3.38818 6.91016 3.47705C6.91016 3.54663 6.94043 3.56592 6.98535 3.52344C7 3.50977 7.01465 3.52148 7.03125 3.56396C7.04492 3.60645 7.06348 3.62378 7.08789 3.61816ZM8.95508 3.63354C8.98145 3.6084 9.04102 3.44214 9.03125 3.4248C9.01074 3.39502 8.96387 3.41504 8.92773 3.45288C8.90039 3.4812 8.87891 3.51953 8.87891 3.5542C8.87891 3.60059 8.93262 3.65479 8.95508 3.63354ZM6.60449 3.52344C6.65332 3.49048 6.65918 3.47705 6.64062 3.45581C6.6084 3.41895 6.57324 3.4209 6.53418 3.46338C6.49512 3.50415 6.4873 3.56396 6.52246 3.56396C6.53418 3.56396 6.57129 3.54663 6.60449 3.52344ZM8.25391 3.47241L8.2334 3.45581C8.17773 3.41797 8.12695 3.42358 8.11035 3.45483C8.10156 3.47144 8.10254 3.49512 8.11816 3.52344C8.13086 3.54468 8.14062 3.58325 8.14062 3.6123C8.14062 3.64087 8.15527 3.66284 8.17285 3.67212C8.18945 3.68115 8.20996 3.67847 8.22266 3.65869C8.23047 3.64917 8.2334 3.63696 8.23242 3.62695L8.22852 3.61621C8.22266 3.6084 8.23047 3.57373 8.24512 3.54077C8.26172 3.50244 8.26562 3.48706 8.25391 3.47241ZM9.27734 3.51758C9.37402 3.51562 9.39844 3.4751 9.32031 3.448C9.23242 3.41699 9.14551 3.43066 9.14551 3.47705C9.14551 3.50977 9.17676 3.51953 9.27734 3.51758ZM11.0459 3.59497C11.0869 3.54077 11.0811 3.49438 11.0293 3.45947C10.9678 3.41895 10.9453 3.4209 10.9717 3.46533C10.9824 3.48657 10.9863 3.51758 10.9805 3.53491C10.9678 3.56201 10.9619 3.56201 10.9209 3.53687C10.9033 3.52588 10.8916 3.51953 10.8818 3.51782C10.8691 3.51587 10.8613 3.521 10.8506 3.53296C10.8311 3.55396 10.8516 3.58716 10.8779 3.59644C10.8877 3.6001 10.8984 3.60034 10.9082 3.59497C10.9209 3.58716 10.9492 3.59302 10.9717 3.60645C11.0088 3.62769 11.0186 3.62573 11.0459 3.59497ZM7.34082 3.54468C7.36328 3.54468 7.38184 3.53296 7.38184 3.51758C7.38184 3.48853 7.33203 3.46338 7.31152 3.48096C7.28516 3.50781 7.30176 3.54468 7.34082 3.54468ZM10.6865 3.67139C10.6953 3.65161 10.7031 3.61792 10.7129 3.56201C10.7236 3.50977 10.7197 3.48853 10.6973 3.48096C10.6436 3.46143 10.6006 3.51172 10.5967 3.60254C10.5928 3.67798 10.5986 3.6897 10.6377 3.69531C10.6631 3.69849 10.6758 3.6958 10.6865 3.67139ZM7.78418 3.65088C7.81055 3.6123 7.8125 3.59692 7.79199 3.57373C7.76074 3.53687 7.74902 3.53687 7.69727 3.57178C7.67676 3.58716 7.6377 3.59497 7.61133 3.58911C7.56836 3.57935 7.56641 3.5813 7.58887 3.62769C7.60938 3.67212 7.66016 3.69922 7.72461 3.69922C7.7334 3.69922 7.74805 3.69043 7.76172 3.67725L7.78418 3.65088ZM8.75586 3.64697C8.75586 3.60449 8.75 3.59863 8.70117 3.6084C8.66211 3.61621 8.63086 3.60645 8.60059 3.5813C8.55469 3.54077 8.53027 3.55054 8.53027 3.60645C8.53027 3.63159 8.54492 3.64136 8.58203 3.64136C8.6123 3.64136 8.63281 3.65283 8.63281 3.66821C8.63281 3.68188 8.64746 3.70508 8.66406 3.71851C8.70508 3.75146 8.75586 3.71094 8.75586 3.64697ZM10.1475 3.7146C10.1514 3.69531 10.1348 3.65479 10.1104 3.62183C10.0605 3.55615 10.0449 3.55225 10.0098 3.59106C9.99121 3.6123 9.99316 3.62378 10.0156 3.64502C10.0303 3.66064 10.0488 3.6897 10.0527 3.71094C10.0557 3.72827 10.0684 3.7395 10.083 3.74438C10.1084 3.7522 10.1406 3.74243 10.1475 3.7146ZM10.4258 3.72437C10.5078 3.71289 10.5449 3.66821 10.498 3.6394C10.459 3.61621 10.4385 3.61816 10.373 3.65283C10.2744 3.70312 10.3047 3.74365 10.4258 3.72437ZM5.92871 3.71851C5.89648 3.71851 5.85742 3.70508 5.84277 3.6897C5.79395 3.63354 5.73438 3.65869 5.75293 3.72632C5.75879 3.75342 5.74902 3.78052 5.71973 3.80566C5.68262 3.83643 5.67285 3.83838 5.625 3.81519C5.56836 3.78418 5.50879 3.80566 5.49805 3.86157C5.49219 3.88281 5.50684 3.89258 5.54102 3.89258C5.57227 3.89258 5.60449 3.91187 5.625 3.94092C5.66602 3.99878 5.71973 4.00464 5.71973 3.94849C5.71973 3.92725 5.75488 3.88086 5.7959 3.84424C5.85938 3.79004 5.87793 3.78247 5.9209 3.79785C5.98047 3.81909 6.01953 3.7959 6.00098 3.74951C5.99316 3.73022 5.96387 3.71851 5.92871 3.71851ZM6.5918 3.7688C6.62207 3.78052 6.78711 3.72046 6.78711 3.69727C6.78711 3.68628 6.74219 3.67773 6.69531 3.67578C6.66113 3.67432 6.625 3.67651 6.60449 3.68384C6.55469 3.70117 6.54688 3.75342 6.5918 3.7688ZM7.42676 3.83447C7.48633 3.83447 7.49219 3.78418 7.44141 3.72046C7.38379 3.64697 7.34668 3.64502 7.32812 3.70898C7.31348 3.76685 7.36523 3.83447 7.42676 3.83447ZM9.23242 3.7417L9.20996 3.70117C9.17676 3.64502 9.125 3.64893 9.125 3.70898C9.125 3.75928 9.20996 3.82886 9.24414 3.80737C9.25684 3.80176 9.27539 3.80933 9.29004 3.82495C9.33301 3.87329 9.34277 3.85767 9.34277 3.75732C9.34277 3.70312 9.33887 3.66064 9.33301 3.66064C9.32812 3.66064 9.30176 3.67798 9.27734 3.70117L9.23242 3.7417ZM9.51953 3.73218C9.52734 3.77466 9.60742 3.78052 9.60742 3.73779C9.60742 3.72241 9.58496 3.70703 9.56055 3.70312C9.52148 3.69727 9.5127 3.70312 9.51953 3.73218ZM6.88672 3.83447C6.94629 3.86353 6.97168 3.85767 6.97168 3.81519C6.97168 3.77466 6.91602 3.73779 6.875 3.75146C6.85254 3.75928 6.8457 3.77808 6.85156 3.79688C6.85645 3.81079 6.86816 3.82471 6.88672 3.83447ZM9.90918 3.82568C9.91797 3.81421 9.91992 3.80225 9.91309 3.79199C9.89258 3.76099 9.80078 3.77856 9.75293 3.81909C9.72656 3.84424 9.6875 3.87329 9.66699 3.88477C9.61816 3.91187 9.60742 3.94849 9.64648 3.96216C9.66504 3.96973 9.7041 3.95239 9.74121 3.92529C9.77344 3.89844 9.82324 3.86938 9.84766 3.86157C9.87598 3.854 9.89746 3.84033 9.90918 3.82568ZM8.0791 3.87329C8.10547 3.87329 8.12012 3.85962 8.12012 3.83447C8.12012 3.80933 8.10547 3.7959 8.0791 3.7959C8.05273 3.7959 8.03809 3.80933 8.03809 3.83447C8.03809 3.85962 8.05273 3.87329 8.0791 3.87329ZM8.41797 3.98926C8.4541 3.92163 8.44434 3.89062 8.36816 3.84814C8.31738 3.81982 8.29395 3.8103 8.28809 3.823C8.28516 3.83032 8.28809 3.84497 8.29492 3.86743L8.30273 3.90771C8.30566 3.93481 8.30859 3.96558 8.30859 3.98926C8.30664 4.05493 8.33398 4.10522 8.36816 4.10522C8.37891 4.10522 8.38672 4.09155 8.38672 4.07617C8.38672 4.05884 8.40137 4.02002 8.41797 3.98926ZM10.4795 3.98145C10.4795 3.96606 10.5039 3.93701 10.5371 3.91382C10.5859 3.87891 10.5879 3.87329 10.5615 3.84619C10.5469 3.83203 10.5371 3.8252 10.5234 3.82666C10.5107 3.82812 10.4951 3.83643 10.4688 3.85205C10.4346 3.87134 10.3936 3.9021 10.377 3.91968C10.3506 3.95044 10.3525 3.95825 10.3867 3.98145C10.4365 4.01611 10.4795 4.01611 10.4795 3.98145ZM7.89453 3.91187C7.9043 3.89453 7.9043 3.87524 7.89062 3.85962C7.85938 3.823 7.68945 3.8269 7.68945 3.86353C7.68945 3.87891 7.70801 3.89258 7.73047 3.89258C7.75098 3.89258 7.79395 3.9021 7.82227 3.91577C7.86621 3.93506 7.87988 3.93311 7.89453 3.91187ZM10.2637 3.98926C10.2949 3.9563 10.2969 3.94287 10.2783 3.9021C10.2539 3.85205 10.2041 3.83838 10.1797 3.87524C10.1738 3.88672 10.1387 3.89062 10.1016 3.88477C10.0244 3.87134 9.97656 3.89648 9.99512 3.94092C10.0059 3.96606 10.0244 3.96973 10.0879 3.96021C10.1572 3.94849 10.1699 3.95239 10.1816 3.9873C10.1982 4.0376 10.2168 4.0376 10.2637 3.98926ZM6.72266 3.93896C6.7666 3.9873 6.83203 3.97949 6.82324 3.92725C6.81738 3.87891 6.77246 3.86353 6.72754 3.89062C6.70215 3.90601 6.70215 3.91382 6.72266 3.93896ZM10.7363 4.06641C10.7891 4.06641 10.8691 3.97754 10.8545 3.93506C10.8389 3.89648 10.7725 3.90796 10.7402 3.95825C10.6924 4.02393 10.5576 4.08569 10.5127 4.0625C10.4766 4.04395 10.4434 4.04932 10.4287 4.07129C10.4229 4.08081 10.4199 4.09351 10.4219 4.10889C10.4238 4.1311 10.4307 4.14355 10.4502 4.15063C10.4629 4.15527 10.4814 4.15771 10.5078 4.15918C10.5742 4.16504 10.5986 4.15527 10.6377 4.1167C10.6641 4.0896 10.709 4.06641 10.7363 4.06641ZM6.98145 4.00854C6.99805 3.99487 7.0127 3.97168 7.0127 3.95825C7.0127 3.92163 6.93262 3.92334 6.91602 3.96216C6.89746 4.00659 6.94238 4.03931 6.98145 4.00854ZM8.17773 4.06445C8.16504 4.05688 8.14648 4.03174 8.13477 4.00854C8.10352 3.95044 8.07129 3.94092 8.03223 3.97949C8.01172 3.99829 8.00488 4.01929 8.01074 4.03711C8.0166 4.0542 8.0332 4.0686 8.06055 4.07617C8.08691 4.08398 8.09961 4.10718 8.09961 4.1438C8.09961 4.17847 8.11621 4.20947 8.14453 4.22876C8.18164 4.25317 8.21875 4.26221 8.24121 4.25635C8.25488 4.25293 8.26367 4.24438 8.26367 4.23071C8.26367 4.19995 8.22168 4.11621 8.19238 4.07983L8.17773 4.06445ZM9.19531 4.0708C9.21191 4.05811 9.21777 4.04492 9.21777 4.02588C9.21777 3.95825 9.16406 3.96021 9.09473 4.02783C9.07031 4.05078 9.04492 4.06763 9.02051 4.07715C9.00586 4.08276 8.99121 4.08569 8.97754 4.08569C8.94727 4.08569 8.91992 4.09351 8.91992 4.10522C8.91992 4.1438 9.0166 4.14575 9.11719 4.10889C9.15527 4.09399 9.17969 4.08276 9.19531 4.0708ZM7.46387 4.26758C7.5498 4.21924 7.68945 4.08765 7.68945 4.05493C7.68945 4.0105 7.64258 4.02979 7.55762 4.10718C7.47559 4.18433 7.42871 4.198 7.36328 4.16309C7.33691 4.15161 7.31348 4.15356 7.2832 4.1748C7.21973 4.21729 7.22559 4.25977 7.2959 4.25977C7.31738 4.25977 7.34082 4.2644 7.35742 4.27124L7.375 4.28101C7.3916 4.29639 7.41602 4.29272 7.46387 4.26758ZM9.85352 4.10522C9.87012 4.10522 9.88477 4.09351 9.88477 4.07812C9.88477 4.04517 9.85547 4.02393 9.83496 4.04126C9.81055 4.06445 9.82324 4.10522 9.85352 4.10522ZM5.83691 4.13794C5.86328 4.11279 5.86523 4.10132 5.84277 4.07812C5.81641 4.04517 5.80762 4.04321 5.7666 4.06079C5.73047 4.07422 5.73438 4.14185 5.77344 4.15723C5.79004 4.16309 5.82031 4.15527 5.83691 4.13794ZM6.75781 4.12256C6.78711 4.09937 6.78711 4.09546 6.75391 4.07227C6.7334 4.05884 6.69824 4.04907 6.67578 4.05103C6.54297 4.06079 6.49707 4.07031 6.50586 4.09155C6.50977 4.10522 6.53223 4.11279 6.55273 4.11084C6.57324 4.10889 6.62207 4.1167 6.65918 4.12646C6.71094 4.14185 6.73535 4.14185 6.75781 4.12256ZM9.58301 4.13794C9.5957 4.13403 9.60742 4.11865 9.60742 4.10522C9.60742 4.09155 9.5957 4.07617 9.58301 4.07031C9.56641 4.06641 9.55664 4.08008 9.55664 4.10522C9.55664 4.13037 9.56641 4.1438 9.58301 4.13794ZM10.2227 4.16309C10.2783 4.16309 10.291 4.12842 10.25 4.0896C10.2285 4.06958 10.209 4.06372 10.1953 4.07031C10.1807 4.0769 10.1719 4.09692 10.1719 4.12842C10.1719 4.15356 10.1865 4.16309 10.2227 4.16309ZM9.39062 4.16113C9.37988 4.15259 9.37207 4.14258 9.36719 4.13208C9.33887 4.07617 9.29785 4.07227 9.2832 4.12451C9.26953 4.18042 9.39844 4.29834 9.49219 4.31958C9.53125 4.32739 9.56836 4.33325 9.57031 4.32935C9.5752 4.32739 9.5625 4.29639 9.54395 4.26172C9.52148 4.21924 9.49219 4.19604 9.44922 4.18823C9.42676 4.18457 9.40625 4.17456 9.39062 4.16113ZM10.9004 4.23267C10.9268 4.19604 10.9287 4.17676 10.9102 4.14575C10.8818 4.09155 10.8691 4.09351 10.8057 4.16699C10.7568 4.22681 10.748 4.22876 10.6953 4.20557C10.6436 4.18433 10.6338 4.18628 10.5986 4.21924C10.5879 4.2312 10.5723 4.24316 10.5557 4.25269C10.54 4.26172 10.5234 4.26855 10.5098 4.27124C10.4404 4.28687 10.4463 4.32349 10.5225 4.35059C10.5781 4.37183 10.5859 4.36987 10.6064 4.32544C10.627 4.28491 10.6416 4.27905 10.748 4.27905C10.8525 4.27905 10.873 4.27319 10.9004 4.23267ZM5.44727 4.24243C5.47754 4.27124 5.625 4.22119 5.63379 4.1748C5.64355 4.13037 5.53125 4.13403 5.47168 4.18042C5.43262 4.20947 5.42871 4.22314 5.44727 4.24243ZM7.94531 4.27905C7.98926 4.27905 7.98438 4.21533 7.93945 4.17676C7.88867 4.13208 7.83301 4.13794 7.83301 4.18628C7.83301 4.21338 7.91309 4.27905 7.94531 4.27905ZM11.0869 4.17676C11.0576 4.20557 11.0762 4.25977 11.1152 4.25977C11.1426 4.25977 11.1562 4.24634 11.1562 4.22314C11.1562 4.18628 11.1094 4.15527 11.0869 4.17676ZM6.96094 4.27905C7.00391 4.31396 7.05762 4.28882 7.04883 4.23657C7.04102 4.17676 6.93066 4.15918 6.93066 4.21729C6.93066 4.23853 6.94434 4.26562 6.96094 4.27905ZM8.73535 4.30811C8.75781 4.32153 8.83789 4.28491 8.83789 4.26367C8.83789 4.25391 8.82617 4.23267 8.81152 4.21338C8.78711 4.18237 8.7832 4.18237 8.75 4.21729C8.71094 4.25781 8.70508 4.29077 8.73535 4.30811ZM8.53711 4.29272C8.56152 4.2771 8.58203 4.25391 8.58203 4.24048C8.58203 4.20361 8.54492 4.198 8.5 4.22681C8.47461 4.24438 8.4668 4.26562 8.47461 4.28882C8.48145 4.30371 8.48633 4.31152 8.49414 4.31226C8.50293 4.31323 8.51465 4.30664 8.53711 4.29272ZM9.83301 4.25977C9.84961 4.25977 9.86426 4.24634 9.86426 4.23071C9.86426 4.19995 9.83984 4.19214 9.81641 4.21533C9.79199 4.23657 9.80078 4.25977 9.83301 4.25977ZM9.15039 4.33325C9.18457 4.32935 9.19727 4.31396 9.19727 4.27905C9.19727 4.25415 9.19141 4.23926 9.1748 4.2312L9.15039 4.22485C9.10059 4.21729 9.07227 4.25977 9.09277 4.31006C9.09863 4.32739 9.12305 4.33716 9.15039 4.33325ZM5.20117 4.39111C5.28906 4.3855 5.29883 4.37964 5.29883 4.34082C5.29883 4.27319 5.19824 4.23853 5.11035 4.27319C4.9834 4.32153 5.04297 4.40088 5.20117 4.39111ZM6.2002 4.47437C6.18164 4.45117 6.16504 4.39502 6.16504 4.35059C6.16113 4.26367 6.11816 4.23267 6.07227 4.28491C6.05859 4.30029 6.02539 4.30811 5.99707 4.30225C5.98047 4.2998 5.96875 4.29932 5.96094 4.30176C5.94922 4.30542 5.94531 4.31543 5.94531 4.33521C5.94531 4.3623 5.96777 4.38354 6.01758 4.40283C6.05957 4.42017 6.08008 4.42725 6.08496 4.44019C6.08984 4.45166 6.08203 4.46777 6.06836 4.49951C6.05176 4.54443 6.01367 4.55884 5.97949 4.54028C5.96875 4.53418 5.95801 4.52441 5.94922 4.51099C5.93262 4.48462 5.9082 4.47192 5.8877 4.47339C5.87207 4.47461 5.8584 4.48389 5.85156 4.50146C5.84277 4.52075 5.84863 4.54126 5.86328 4.55737C5.87988 4.57544 5.90723 4.58838 5.9375 4.58838C5.99023 4.58838 6.00098 4.625 5.96191 4.66187C5.94922 4.67383 5.94434 4.68213 5.94824 4.68994C5.95117 4.69458 5.95703 4.69922 5.96582 4.70435C6.00488 4.72754 6.06445 4.69263 6.15723 4.59595C6.19141 4.5603 6.20898 4.54004 6.21484 4.52417C6.22168 4.50732 6.21484 4.49512 6.2002 4.47437ZM7.78418 4.36792C7.79199 4.34863 7.78125 4.31958 7.76074 4.29834C7.74023 4.2771 7.71191 4.25977 7.69531 4.25977C7.65234 4.25977 7.66504 4.30615 7.71973 4.35645C7.76562 4.39502 7.77148 4.39697 7.78418 4.36792ZM6.37598 4.31763C6.38867 4.31763 6.39648 4.30811 6.39648 4.29834C6.39648 4.28687 6.38867 4.27905 6.37598 4.27905C6.36621 4.27905 6.35547 4.28687 6.35547 4.29834C6.35547 4.30811 6.36621 4.31763 6.37598 4.31763ZM8.95605 4.36157C8.95898 4.35449 8.95898 4.34497 8.95703 4.33325C8.95312 4.30371 8.92773 4.28271 8.90332 4.28076C8.89258 4.28003 8.88184 4.28296 8.87305 4.29077C8.8584 4.30444 8.87598 4.34082 8.90039 4.36133C8.91016 4.36987 8.92188 4.37573 8.93262 4.37573C8.94434 4.37573 8.95215 4.37085 8.95605 4.36157ZM10.1514 4.36987C10.1514 4.40088 10.1631 4.41431 10.1885 4.41431C10.2393 4.41431 10.3047 4.36597 10.2891 4.34277C10.2773 4.32593 10.2246 4.31006 10.1895 4.30859C10.1768 4.30811 10.166 4.30957 10.1611 4.31396C10.1553 4.31958 10.1514 4.34473 10.1514 4.36987ZM10.0078 4.37573C10.0195 4.37573 10.0283 4.36597 10.0283 4.35645C10.0283 4.34473 10.0195 4.33716 10.0078 4.33716C9.99707 4.33716 9.9873 4.34473 9.9873 4.35645C9.9873 4.36597 9.99707 4.37573 10.0078 4.37573ZM7.61719 4.3999L7.60352 4.37964C7.55762 4.33716 7.52539 4.3584 7.52539 4.42407C7.52539 4.44922 7.51074 4.47827 7.49414 4.4917C7.47363 4.50781 7.46387 4.5354 7.46484 4.55713C7.46484 4.57471 7.47363 4.58838 7.49023 4.58838C7.53125 4.58838 7.62793 4.48584 7.62793 4.44141C7.62793 4.42822 7.62402 4.41284 7.61719 4.3999ZM9.36914 4.47827C9.40039 4.45508 9.41016 4.43188 9.40234 4.40869C9.39258 4.38721 9.36523 4.37573 9.32617 4.37573C9.27148 4.37573 9.2666 4.38159 9.27344 4.4375C9.28125 4.51099 9.31055 4.52466 9.36914 4.47827ZM9.84375 4.41431C9.82324 4.41431 9.79883 4.40479 9.79199 4.39502C9.77344 4.36792 9.72656 4.37183 9.71582 4.39893C9.70801 4.41968 9.71191 4.44946 9.72168 4.47681C9.73145 4.50293 9.74805 4.52686 9.76758 4.53809C9.79883 4.55542 9.81445 4.54956 9.85547 4.50513C9.90918 4.44531 9.90527 4.41431 9.84375 4.41431ZM11.1992 4.52466C11.2529 4.48193 11.2588 4.46655 11.2383 4.44336C11.2061 4.40479 11.1787 4.40674 11.1631 4.44727C11.1543 4.46655 11.1279 4.50146 11.0986 4.52637C11.0723 4.54956 11.0537 4.58057 11.0605 4.59399C11.0664 4.6145 11.0938 4.62524 11.1133 4.62305C11.126 4.62183 11.1357 4.61548 11.1357 4.60376C11.1357 4.59033 11.165 4.55347 11.1992 4.52466ZM5.4043 4.54956C5.44922 4.54956 5.45508 4.54199 5.44922 4.49561C5.44531 4.45874 5.43066 4.44141 5.39746 4.4375C5.34473 4.42993 5.32227 4.45874 5.33984 4.51099C5.34863 4.53613 5.37109 4.54956 5.4043 4.54956ZM5.74219 4.51294C5.7832 4.47827 5.78711 4.47046 5.76074 4.45312C5.71777 4.42603 5.68652 4.42993 5.6582 4.4646C5.63574 4.48779 5.63574 4.49951 5.66211 4.52271C5.68945 4.54761 5.69727 4.54761 5.74219 4.51294ZM6.39648 4.49121C6.40332 4.48584 6.40723 4.47949 6.40723 4.47241C6.40723 4.44141 6.33301 4.42212 6.30859 4.44531C6.27344 4.47998 6.2959 4.51294 6.35156 4.50708C6.37109 4.50488 6.3877 4.49902 6.39648 4.49121ZM8.40527 4.53027C8.38477 4.53027 8.34375 4.50903 8.31348 4.48193L8.25586 4.43359L8.21875 4.45508C8.19434 4.46826 8.18164 4.48315 8.18066 4.49609C8.17969 4.51514 8.20312 4.53027 8.24512 4.53027C8.28809 4.53027 8.32129 4.5459 8.34766 4.57666C8.39746 4.63477 8.46094 4.65015 8.49316 4.61353C8.51367 4.59033 8.51172 4.57861 8.47949 4.55737C8.45898 4.54199 8.42383 4.53027 8.40527 4.53027ZM11.6514 4.56909C11.6279 4.56909 11.5977 4.55737 11.583 4.54395C11.5693 4.53027 11.5215 4.49951 11.4805 4.47437L11.4043 4.43188L11.3633 4.49365C11.3398 4.52979 11.3301 4.55444 11.335 4.5686C11.3408 4.58374 11.3633 4.58667 11.4023 4.57861C11.4521 4.56909 11.4688 4.57666 11.5068 4.625C11.54 4.66748 11.5605 4.67725 11.585 4.66553C11.6035 4.65601 11.6348 4.64429 11.6553 4.63867C11.6777 4.63208 11.6895 4.61523 11.6895 4.59985C11.6895 4.58374 11.6768 4.56909 11.6514 4.56909ZM7.80176 4.51099C7.81836 4.51099 7.83301 4.49756 7.83301 4.48193C7.83301 4.45117 7.80859 4.44336 7.78613 4.46655C7.76074 4.48779 7.76953 4.51099 7.80176 4.51099ZM5.10645 4.56909C5.17578 4.56909 5.18848 4.52271 5.12695 4.4917C5.07812 4.46851 5.0752 4.46851 5.04883 4.49365C5.01172 4.52832 5.04297 4.56909 5.10645 4.56909ZM6.63965 4.54102L6.64258 4.53027C6.64258 4.5188 6.63477 4.51099 6.62207 4.51099C6.6123 4.51099 6.60156 4.5188 6.60156 4.53027C6.60156 4.54004 6.6123 4.54956 6.62207 4.54956C6.62988 4.54956 6.63574 4.5459 6.63965 4.54102ZM8.8877 4.63867C8.94238 4.65796 8.95312 4.58643 8.90137 4.5459C8.84473 4.50317 8.76074 4.49951 8.74414 4.54004C8.72363 4.58838 8.75195 4.62695 8.80566 4.62695C8.83203 4.62695 8.86914 4.63281 8.8877 4.63867ZM4.9541 4.64624C4.96875 4.64624 4.98145 4.62891 4.98145 4.60767C4.98145 4.56323 4.92969 4.55542 4.91309 4.59595C4.89941 4.62695 4.91602 4.64624 4.9541 4.64624ZM5.50488 4.70435C5.52051 4.71777 5.53516 4.71777 5.54297 4.7063C5.55176 4.69653 5.53516 4.66553 5.51074 4.64038C5.48438 4.61328 5.46875 4.60181 5.4502 4.60229C5.44043 4.60254 5.43066 4.60571 5.41797 4.61157C5.33984 4.64624 5.36035 4.69653 5.44922 4.68677C5.46582 4.68506 5.48828 4.69263 5.50488 4.70435ZM9.12793 4.64624C9.15234 4.64624 9.16602 4.63672 9.16211 4.62109C9.15234 4.59399 9.09863 4.58057 9.07812 4.59985C9.05566 4.62109 9.08398 4.64624 9.12793 4.64624ZM5.12891 4.76221C5.17578 4.76221 5.26855 4.6792 5.26855 4.63672C5.26855 4.62109 5.25586 4.60767 5.24414 4.60962C5.19824 4.61157 5.04297 4.68311 5.04297 4.70044C5.04297 4.72754 5.08984 4.76221 5.12891 4.76221ZM5.77344 4.66187C5.7793 4.65234 5.78027 4.64038 5.77344 4.62891C5.76465 4.61719 5.75098 4.60767 5.74023 4.60767C5.72754 4.60767 5.7168 4.61523 5.71094 4.62573C5.70312 4.63965 5.7041 4.6582 5.71777 4.67139C5.73633 4.68896 5.7627 4.67969 5.77344 4.66187ZM7.6582 4.66553C7.6748 4.66553 7.68945 4.65601 7.68945 4.64624C7.68945 4.63477 7.6748 4.62695 7.6582 4.62695C7.64258 4.62695 7.62793 4.63477 7.62793 4.64624C7.62793 4.65601 7.64258 4.66553 7.6582 4.66553ZM8.16895 4.74292C8.2373 4.74292 8.25977 4.70435 8.21289 4.67139C8.16699 4.64233 8.16113 4.64038 8.12207 4.66357C8.0791 4.68872 8.1123 4.74292 8.16895 4.74292ZM10.0469 4.68506C10.0586 4.68506 10.0693 4.67529 10.0693 4.66553C10.0693 4.65405 10.0654 4.64624 10.0605 4.64624C10.0547 4.64624 10.0449 4.65405 10.0381 4.66553C10.0322 4.67529 10.0361 4.68506 10.0469 4.68506ZM10.1699 4.88794C10.2041 4.84912 10.2334 4.80664 10.2334 4.79321C10.2334 4.7583 10.1885 4.72754 10.1572 4.73706C10.1426 4.74292 10.1309 4.75635 10.1309 4.76807L10.126 4.78857C10.123 4.79858 10.1182 4.80933 10.1123 4.81836C10.1025 4.83203 10.0947 4.83618 10.0781 4.83032C10.0684 4.8269 10.0566 4.82031 10.04 4.81055C9.9707 4.76611 9.92188 4.80103 9.92969 4.88599C9.93555 4.94189 9.94238 4.9458 10.0195 4.95166C10.0791 4.9563 10.1025 4.95215 10.1396 4.91895L10.1699 4.88794ZM11.3457 4.8125C11.3945 4.82031 11.4229 4.81445 11.4414 4.79321C11.4805 4.74878 11.4521 4.72168 11.3906 4.74292C11.3613 4.75464 11.3223 4.75464 11.3047 4.74683C11.2803 4.73657 11.2344 4.74146 11.1963 4.75342C11.1631 4.76392 11.1357 4.77979 11.1357 4.79517C11.1357 4.83179 11.1973 4.84912 11.2383 4.82422C11.2588 4.8125 11.3066 4.80664 11.3457 4.8125ZM6.08887 4.79321C6.08887 4.82593 6.14453 4.80664 6.15918 4.77002C6.16211 4.7627 6.16211 4.75635 6.16016 4.75146C6.15723 4.74609 6.15137 4.74292 6.14258 4.74292C6.10938 4.74292 6.08887 4.76221 6.08887 4.79321ZM7.51953 4.84912C7.59863 4.86279 7.60547 4.84351 7.54004 4.7854C7.50098 4.75 7.46484 4.73779 7.42871 4.74878C7.4082 4.75513 7.3877 4.76929 7.36719 4.79126C7.33398 4.82788 7.30371 4.8396 7.24023 4.8396C7.16406 4.8396 7.15625 4.84351 7.15625 4.88794C7.15625 4.9458 7.20703 4.97095 7.26074 4.94019C7.28125 4.92651 7.31641 4.91699 7.33691 4.91699C7.35938 4.91699 7.3916 4.89941 7.41406 4.87622C7.44336 4.84546 7.46777 4.8396 7.51953 4.84912ZM5.52734 4.89551C5.55371 4.87622 5.5498 4.86475 5.50195 4.81641C5.44043 4.7583 5.42188 4.75073 5.40137 4.78149C5.36328 4.84155 5.46973 4.94019 5.52734 4.89551ZM11.0742 4.80103C11.0869 4.80103 11.0947 4.79126 11.0947 4.78149C11.0947 4.77002 11.0869 4.76221 11.0742 4.76221C11.0645 4.76221 11.0537 4.77002 11.0537 4.78149C11.0537 4.79126 11.0645 4.80103 11.0742 4.80103ZM5.1123 4.8667C5.11621 4.85498 5.11426 4.83765 5.1084 4.82593C5.08594 4.79321 5.01172 4.77954 4.98535 4.80469C4.95703 4.83179 4.95215 4.92847 4.98145 4.9458C4.99219 4.95166 5.02051 4.94067 5.04785 4.92383C5.07617 4.90674 5.10352 4.88403 5.1123 4.8667ZM5.70801 4.89648C5.71387 4.8811 5.70508 4.8562 5.67871 4.82983C5.64844 4.7981 5.60645 4.7771 5.58691 4.77979C5.58008 4.78076 5.57617 4.78442 5.57617 4.79126C5.57617 4.82031 5.62793 4.89746 5.6543 4.90723C5.68457 4.91772 5.70312 4.91162 5.70801 4.89648ZM5.82422 4.88989C5.85352 4.90527 5.91309 4.84912 5.89648 4.82227C5.88184 4.80078 5.85254 4.7959 5.83008 4.80347C5.81348 4.80884 5.80176 4.8208 5.80176 4.83765C5.80176 4.85889 5.8125 4.88208 5.82422 4.88989ZM10.7773 4.87817C10.8135 4.87817 10.8281 4.86865 10.8281 4.8396C10.8281 4.80103 10.7705 4.7854 10.7402 4.81445C10.707 4.84351 10.7275 4.87817 10.7773 4.87817ZM8.29004 4.98828L8.23535 4.94189C8.2041 4.9187 8.16113 4.89746 8.13672 4.89746C8.10156 4.89746 8.09766 4.90527 8.11035 4.94971L8.13477 5.06567C8.14844 5.14893 8.1875 5.14697 8.24512 5.05786L8.29004 4.98828ZM9.73047 4.99414C9.78223 4.99414 9.76562 4.94775 9.70605 4.92065C9.65918 4.90088 9.64648 4.89575 9.62109 4.90576L9.58691 4.92261C9.50098 4.96948 9.4375 5.02197 9.40918 5.06226C9.38184 5.10156 9.3877 5.12939 9.43945 5.12939C9.46191 5.12939 9.49219 5.10864 9.52148 5.0769C9.54785 5.04761 9.57324 5.00903 9.58887 4.96899C9.60156 4.93823 9.60547 4.93823 9.65039 4.96509C9.66602 4.97412 9.68457 4.98242 9.7002 4.98779C9.71191 4.9917 9.72266 4.99414 9.73047 4.99414ZM4.53223 5.00586C4.56934 5.03857 4.62207 5.00977 4.60547 4.96704C4.5918 4.93237 4.53809 4.92651 4.51758 4.95752C4.51465 4.96338 4.51465 4.97168 4.51758 4.98047C4.52051 4.98901 4.52539 4.99805 4.53223 5.00586ZM11.3408 4.97485C11.3535 4.97485 11.3613 4.96509 11.3613 4.95557C11.3613 4.94385 11.3535 4.93628 11.3408 4.93628C11.3311 4.93628 11.3203 4.94385 11.3203 4.95557C11.3203 4.96509 11.3311 4.97485 11.3408 4.97485ZM5.49219 5.00195C5.47363 4.98657 5.43652 4.97485 5.41016 4.97681C5.38379 4.97681 5.33594 4.97095 5.30762 4.96509C5.28516 4.95898 5.2666 4.96021 5.25098 4.96729C5.24219 4.97119 5.23438 4.97705 5.22754 4.98462C5.18457 5.03296 5.22949 5.05786 5.3584 5.05786H5.47363L5.49414 5.13135C5.52051 5.22607 5.55371 5.24341 5.60059 5.1875C5.6582 5.12183 5.65039 5.05615 5.58203 5.04053C5.5498 5.03296 5.51074 5.01538 5.49219 5.00195ZM6.39648 5.11011C6.4541 5.11011 6.52832 5.04443 6.51367 5.00781C6.49512 4.95947 6.32715 4.9729 6.30664 5.02319C6.29199 5.05786 6.34766 5.11011 6.39648 5.11011ZM7.10254 5.14893C7.14355 5.14893 7.1416 5.11597 7.09668 5.04443C7.05957 4.98462 7.02832 4.96509 7.00586 4.98657C6.96484 5.02515 7.03906 5.14893 7.10254 5.14893ZM10.8184 5.03296C10.834 5.05786 10.8838 5.05786 10.9004 5.03467C10.9033 5.02808 10.9014 5.01953 10.8945 5.01123C10.8887 5.00513 10.8809 4.99902 10.8711 4.99414C10.8496 4.98364 10.8311 4.98438 10.8203 4.99219C10.8096 5.00024 10.8066 5.01538 10.8184 5.03296ZM9.90234 5.06177C9.9043 5.04785 9.89746 5.0332 9.88086 5.01733C9.84375 4.98267 9.78223 4.98828 9.78223 5.02905C9.78223 5.04834 9.77148 5.07349 9.75684 5.08691C9.7207 5.12183 9.7959 5.13916 9.85547 5.11011C9.88477 5.09424 9.90039 5.07861 9.90234 5.06177ZM7.44141 5.26489C7.51465 5.22803 7.58105 5.08105 7.54199 5.03857C7.50684 5 7.46387 5.00977 7.44336 5.06177C7.4375 5.07568 7.42871 5.08813 7.41992 5.09692C7.41113 5.10522 7.40137 5.11011 7.39355 5.11011C7.36328 5.11011 7.34473 5.12256 7.33887 5.14307C7.33398 5.16309 7.34082 5.19067 7.36133 5.22217C7.39551 5.27637 7.4082 5.28223 7.44141 5.26489ZM10.0977 5.07153C10.1025 5.06567 10.1035 5.05859 10.0996 5.05225C10.084 5.0271 10.0547 5.0271 10.0381 5.0542C10.0176 5.08301 10.04 5.09863 10.0791 5.08301C10.0879 5.08057 10.0938 5.07642 10.0977 5.07153ZM11.0479 5.14111C11.0625 5.17969 11.1504 5.17383 11.165 5.13525C11.1689 5.12524 11.168 5.11328 11.1631 5.10083C11.1592 5.08911 11.1514 5.0769 11.1396 5.06567C11.1016 5.02905 11.0986 5.02905 11.0684 5.07153C11.0498 5.09473 11.042 5.12744 11.0479 5.14111ZM9.25586 5.10034C9.26074 5.08716 9.26172 5.07642 9.25879 5.07153C9.24023 5.04443 9.22559 5.04639 9.15039 5.09082C9.07227 5.13525 9.07227 5.17578 9.15039 5.18359C9.18652 5.1875 9.21191 5.17578 9.23633 5.13916C9.24512 5.12622 9.25195 5.1123 9.25586 5.10034ZM11.2471 5.28418C11.2842 5.28418 11.3818 5.20874 11.3818 5.18164C11.3799 5.16821 11.3594 5.1333 11.333 5.10425L11.2861 5.05029V5.11206C11.2861 5.14893 11.2734 5.17969 11.2529 5.19141C11.2119 5.21265 11.2061 5.28418 11.2471 5.28418ZM4.83398 5.17212C4.86426 5.20093 4.92383 5.17578 4.91602 5.13525C4.90723 5.09082 4.87012 5.08301 4.83789 5.11987C4.81738 5.14111 4.81738 5.15649 4.83398 5.17212ZM6.64551 5.21851C6.68359 5.26489 6.75586 5.24536 6.75586 5.1875C6.75586 5.1665 6.75195 5.15332 6.74121 5.14526C6.73242 5.13843 6.71875 5.13501 6.69824 5.1333C6.63281 5.12573 6.60449 5.17212 6.64551 5.21851ZM7.93164 5.28418C7.97266 5.28418 8.02539 5.19702 8.00781 5.16626C7.99512 5.14917 7.96777 5.14551 7.94434 5.15186C7.92773 5.15649 7.91309 5.16602 7.90723 5.17969C7.88184 5.23975 7.89453 5.28418 7.93164 5.28418ZM8.72949 5.27637C8.75586 5.24731 8.77637 5.21069 8.77637 5.19531C8.77637 5.15259 8.70508 5.16235 8.63672 5.21655C8.60254 5.24341 8.55762 5.26489 8.53223 5.26489C8.50781 5.26489 8.48926 5.27441 8.48926 5.28613C8.48926 5.29956 8.51172 5.30347 8.54492 5.29761C8.5752 5.29175 8.62109 5.29761 8.6416 5.30737C8.66113 5.31787 8.6748 5.31982 8.69141 5.31055C8.70215 5.30444 8.71387 5.29321 8.72949 5.27637ZM10.9434 5.22607C10.96 5.22607 10.9717 5.21265 10.9717 5.19702C10.9717 5.18091 10.958 5.17017 10.9424 5.16772C10.9297 5.16602 10.915 5.16943 10.9043 5.17969C10.8857 5.19897 10.9082 5.22607 10.9434 5.22607ZM5.36328 5.30371C5.36816 5.29175 5.37109 5.27954 5.37109 5.26855C5.37109 5.22217 5.31738 5.18945 5.26465 5.20093C5.20508 5.2146 5.21875 5.38086 5.27832 5.38086C5.30664 5.38086 5.3457 5.34253 5.36328 5.30371ZM10.8242 5.33252C10.832 5.32666 10.8242 5.29761 10.8057 5.26855C10.7686 5.20679 10.7051 5.1875 10.7051 5.23975C10.707 5.27832 10.8018 5.35376 10.8242 5.33252ZM6.56055 5.30347C6.58594 5.34009 6.63281 5.29956 6.61621 5.25708C6.60156 5.22021 6.54004 5.21655 6.54004 5.24927C6.54004 5.26294 6.55078 5.28809 6.56055 5.30347ZM9.2832 5.33447C9.37598 5.31689 9.40234 5.29761 9.38574 5.25708C9.37793 5.23975 9.36133 5.22607 9.34668 5.22607C9.32129 5.22607 9.28906 5.23877 9.26172 5.25586C9.23535 5.27271 9.21484 5.29395 9.21191 5.31128C9.20312 5.34204 9.21191 5.34595 9.2832 5.33447ZM5.72168 5.36328C5.74219 5.33813 5.76074 5.30151 5.76074 5.28223C5.76074 5.2417 5.72754 5.23584 5.6748 5.26489C5.65625 5.27637 5.61133 5.28613 5.57227 5.28979C5.47363 5.29761 5.48633 5.34595 5.59277 5.38086C5.64844 5.39917 5.66895 5.40503 5.68652 5.39551C5.69727 5.39014 5.70703 5.37964 5.72168 5.36328ZM8.88965 5.28613C8.89941 5.28613 8.91211 5.27832 8.91602 5.2666C8.91992 5.25513 8.9082 5.24536 8.88965 5.24536C8.87109 5.24536 8.8584 5.25513 8.86328 5.2666C8.86719 5.27832 8.87891 5.28613 8.88965 5.28613ZM4.63086 5.33057C4.64062 5.33813 4.65527 5.33447 4.66113 5.32471C4.66895 5.31494 4.66504 5.30151 4.65527 5.29565C4.64453 5.28809 4.63086 5.29175 4.62402 5.30151C4.61816 5.30835 4.61914 5.31714 4.62305 5.32373L4.63086 5.33057ZM10.083 5.35327C10.0889 5.34937 10.0889 5.34131 10.0859 5.32861C10.0791 5.29175 10.0264 5.27246 9.99902 5.29761C9.99121 5.30542 9.96484 5.31299 9.93945 5.31299C9.90527 5.31299 9.89453 5.32471 9.89453 5.36133C9.89453 5.42334 9.95801 5.43677 9.97656 5.38086C9.9873 5.3479 10.001 5.34204 10.043 5.35181C10.0645 5.35693 10.0771 5.35767 10.083 5.35327ZM4.53027 5.4021C4.53027 5.38086 4.52344 5.35181 4.51758 5.33447C4.51172 5.31689 4.4873 5.30347 4.46387 5.30347C4.42969 5.30347 4.4248 5.31128 4.4375 5.35571C4.44336 5.38647 4.46387 5.42334 4.48047 5.44067C4.49707 5.45605 4.50977 5.47925 4.50977 5.49097C4.50977 5.50244 4.52344 5.52173 4.54199 5.53735C4.56445 5.55469 4.57129 5.57983 4.56055 5.62622C4.55273 5.66504 4.55371 5.68188 4.56641 5.6875L4.58105 5.68994C4.59961 5.68994 4.6123 5.67261 4.6123 5.64355C4.6123 5.57788 4.7373 5.54492 4.79297 5.59717C4.82715 5.63013 4.86426 5.59131 4.85449 5.53345C4.84766 5.49292 4.83594 5.48706 4.76562 5.48706C4.7207 5.48511 4.66309 5.47534 4.63867 5.46191C4.61426 5.44849 4.5791 5.43872 4.5625 5.43872C4.54395 5.43872 4.53027 5.42334 4.53027 5.4021ZM6.10156 5.38086C6.13184 5.38086 6.15039 5.37109 6.14648 5.35767C6.13672 5.33057 6.10938 5.32275 6.0752 5.33618C6.0293 5.35181 6.0459 5.38086 6.10156 5.38086ZM9.17676 5.42334C9.16895 5.38452 9.1582 5.34595 9.1543 5.33813C9.13965 5.31519 9.09473 5.31909 9.05859 5.34106L9.0332 5.36133C8.99609 5.40015 8.99609 5.4021 9.05762 5.46191C9.14355 5.54321 9.19727 5.52563 9.17676 5.42334ZM6.84668 5.41357C6.86523 5.40747 6.88477 5.39624 6.89941 5.38086C6.92188 5.35742 6.92969 5.34814 6.92383 5.34448C6.91992 5.34229 6.91113 5.34204 6.89746 5.34204C6.85059 5.34399 6.78711 5.37695 6.78711 5.40015C6.78711 5.42065 6.81543 5.42383 6.84668 5.41357ZM7.66504 5.39624C7.67871 5.40015 7.68945 5.39038 7.68945 5.37305C7.68945 5.35571 7.6748 5.34204 7.65625 5.34204C7.62207 5.34204 7.62793 5.38452 7.66504 5.39624ZM6.36621 5.38086C6.3457 5.41357 6.39062 5.45215 6.41699 5.42725C6.43359 5.41162 6.42969 5.39819 6.40918 5.38257C6.38867 5.36523 6.37598 5.36523 6.36621 5.38086ZM6.98926 5.51807C7.08008 5.58765 7.12305 5.55469 7.08789 5.44458C7.06152 5.36523 7.00195 5.35938 6.9668 5.43091C6.94434 5.47534 6.94629 5.48706 6.98926 5.51807ZM8.65137 5.51221C8.67188 5.45801 8.66992 5.44458 8.63965 5.42529C8.58398 5.38647 8.40723 5.40771 8.40723 5.45215C8.40723 5.47534 8.5752 5.57397 8.6123 5.57397C8.62109 5.57397 8.63965 5.54492 8.65137 5.51221ZM10.5 5.46729C10.5156 5.45386 10.5166 5.43896 10.4961 5.42725C10.459 5.40576 10.3047 5.4021 10.2656 5.42334C10.248 5.43286 10.2334 5.46387 10.2334 5.49097C10.2334 5.53345 10.2393 5.53735 10.2803 5.52563C10.3047 5.51807 10.3604 5.5083 10.4014 5.50244C10.4473 5.49634 10.4834 5.48267 10.5 5.46729ZM11.2178 5.42896C11.2305 5.42334 11.2383 5.41357 11.2383 5.40771C11.2383 5.40576 11.2363 5.40356 11.2324 5.4021L11.2178 5.40015C11.208 5.40015 11.1973 5.40967 11.1973 5.42139C11.1973 5.43091 11.208 5.43481 11.2178 5.42896ZM8.12793 5.59326C8.17188 5.59326 8.26953 5.48315 8.25781 5.45044C8.23926 5.40576 8.21875 5.41162 8.14258 5.48511C8.10352 5.52271 8.08594 5.55347 8.08984 5.57251C8.0918 5.58569 8.10449 5.59326 8.12793 5.59326ZM8.80957 5.51611C8.86719 5.51611 8.87305 5.49292 8.82617 5.45044C8.80664 5.43066 8.78906 5.4209 8.77539 5.42114C8.76172 5.42114 8.75098 5.43018 8.74414 5.44849C8.72754 5.48901 8.75195 5.51611 8.80957 5.51611ZM11.0928 5.62427C11.1318 5.60107 11.1172 5.54126 11.0625 5.47925C10.9922 5.40015 10.9307 5.40015 10.9307 5.47729C10.9307 5.51807 11.0645 5.63965 11.0928 5.62427ZM5.48633 5.49683C5.50195 5.49683 5.51074 5.48706 5.50488 5.47729C5.50195 5.47192 5.49707 5.46729 5.49121 5.46387C5.48535 5.46021 5.47852 5.45801 5.47168 5.45801C5.46094 5.45801 5.45312 5.46582 5.45312 5.47729C5.45312 5.48706 5.46777 5.49683 5.48633 5.49683ZM9.62305 5.50391L9.61133 5.4812C9.59668 5.45972 9.58496 5.4541 9.55957 5.46655L9.52734 5.48706C9.50488 5.50244 9.46582 5.51611 9.44141 5.51611C9.38965 5.51611 9.36133 5.54321 9.38184 5.57397C9.38965 5.58569 9.41309 5.58569 9.44727 5.57202C9.49707 5.55469 9.50879 5.5625 9.59766 5.64941C9.66211 5.71484 9.69336 5.73853 9.71973 5.72437C9.7334 5.71729 9.74512 5.70044 9.75977 5.67456C9.78809 5.62427 9.77344 5.59326 9.72461 5.59326C9.69727 5.59326 9.67188 5.58398 9.6543 5.56982C9.6416 5.55981 9.63379 5.54712 9.63184 5.53345L9.62305 5.50391ZM8.89941 5.51611C8.91211 5.51611 8.91992 5.50635 8.91992 5.49683C8.91992 5.48511 8.91211 5.47729 8.89941 5.47729C8.88965 5.47729 8.87891 5.48511 8.87891 5.49683C8.87891 5.50635 8.88965 5.51611 8.89941 5.51611ZM10.8486 5.60498C10.8486 5.57593 10.8262 5.54126 10.7959 5.51807C10.7217 5.46387 10.6953 5.46777 10.6455 5.53345C10.5996 5.59326 10.5967 5.65503 10.623 5.67554C10.6367 5.68604 10.6582 5.68579 10.6865 5.6687C10.7031 5.65894 10.7461 5.65137 10.7832 5.65137C10.8389 5.65137 10.8486 5.64355 10.8486 5.60498ZM5.70117 5.56055C5.71387 5.54883 5.71777 5.52954 5.71191 5.51807C5.69824 5.49878 5.6709 5.49316 5.65039 5.5C5.63965 5.50342 5.63086 5.51025 5.62793 5.52002C5.59082 5.62036 5.60059 5.70923 5.65039 5.70923L5.66113 5.7063C5.67285 5.69897 5.67871 5.67871 5.67871 5.64551C5.67871 5.61084 5.68945 5.57202 5.70117 5.56055ZM5.30566 5.72852C5.37305 5.72852 5.41797 5.66089 5.4043 5.58374C5.38965 5.51221 5.36328 5.50049 5.30566 5.54321C5.25195 5.57983 5.25391 5.72852 5.30566 5.72852ZM11.293 5.54614C11.2842 5.56323 11.2852 5.58447 11.3018 5.59521C11.3389 5.61646 11.3838 5.59326 11.3779 5.55664C11.375 5.54468 11.3662 5.53369 11.3555 5.52686L11.3389 5.52002C11.3184 5.51611 11.3018 5.5293 11.293 5.54614ZM6.15039 5.60498C6.16113 5.59521 6.1709 5.57397 6.1709 5.56055C6.1709 5.54492 6.14844 5.5354 6.11621 5.5354C6.06738 5.53662 5.99219 5.56201 5.94043 5.58984C5.90723 5.60791 5.88379 5.6272 5.88379 5.6416C5.88379 5.67651 5.90234 5.67847 5.97461 5.65137C6.04199 5.62817 6.0459 5.66089 5.98242 5.70728C5.9541 5.73047 5.94336 5.75366 5.95117 5.7749C5.97461 5.8291 6.02734 5.802 6.08105 5.71118C6.10742 5.66479 6.13867 5.61646 6.15039 5.60498ZM8.5 5.64209L8.50586 5.63208C8.50684 5.62207 8.50488 5.60864 8.5 5.59546C8.49609 5.58545 8.49023 5.57568 8.4834 5.56812L8.46973 5.55029C8.45508 5.53516 8.44336 5.5415 8.40723 5.57007C8.34375 5.61841 8.36426 5.67651 8.44238 5.66675C8.46582 5.66357 8.48828 5.65356 8.5 5.64209ZM10.0898 5.59326C10.1016 5.59326 10.1104 5.58374 10.1104 5.57397C10.1104 5.5625 10.1016 5.55469 10.0898 5.55469C10.0791 5.55469 10.0693 5.5625 10.0693 5.57397C10.0693 5.58374 10.0791 5.59326 10.0898 5.59326ZM5.1416 5.78662L5.13965 5.68408C5.13477 5.59912 5.12695 5.58374 5.09375 5.57788C5.07129 5.57593 5.04297 5.57983 5.03027 5.58765C5.00586 5.60303 4.94043 5.73633 4.94043 5.76929C4.94043 5.77881 4.98535 5.78662 5.04102 5.78662H5.1416ZM7.54785 5.69971C7.57617 5.71704 7.66895 5.69385 7.66895 5.67065C7.66895 5.64746 7.55371 5.59131 7.53711 5.60693C7.5166 5.62622 7.52344 5.68604 7.54785 5.69971ZM9.9873 5.68994C10.0195 5.68994 10.0488 5.65527 10.0488 5.61084C10.0488 5.58374 9.95215 5.5896 9.94238 5.61646C9.92578 5.65723 9.94629 5.68994 9.9873 5.68994ZM11.4844 5.68994C11.5254 5.71704 11.5752 5.70532 11.583 5.6687C11.5918 5.62427 11.5381 5.60889 11.4912 5.6416C11.4746 5.6543 11.4658 5.66211 11.4648 5.66895C11.4648 5.67554 11.4717 5.6814 11.4844 5.68994ZM6.35742 5.8252C6.38281 5.8252 6.36426 5.69385 6.33301 5.65894C6.30664 5.62817 6.28223 5.62427 6.26367 5.64941C6.24902 5.67261 6.33105 5.8252 6.35742 5.8252ZM4.36816 5.68994C4.37793 5.68994 4.38184 5.68042 4.37598 5.67065C4.37012 5.65894 4.35938 5.65137 4.35352 5.65137C4.34961 5.65137 4.3457 5.65894 4.3457 5.67065C4.3457 5.68042 4.35547 5.68994 4.36816 5.68994ZM4.73535 5.69971C4.74707 5.69385 4.75586 5.68408 4.75586 5.67847C4.75586 5.67456 4.74707 5.67065 4.73535 5.67065C4.72461 5.67065 4.71484 5.68042 4.71484 5.69189C4.71484 5.70166 4.72461 5.70532 4.73535 5.69971ZM6.70215 5.84644C6.77051 5.80005 6.78027 5.76929 6.74121 5.73242C6.70898 5.70166 6.69629 5.70361 6.65332 5.74805C6.63281 5.76929 6.59766 5.78662 6.57324 5.78662C6.53418 5.78662 6.53418 5.79053 6.58594 5.83691L6.63867 5.88916L6.70215 5.84644ZM9.33789 5.77661C9.32617 5.77197 9.31836 5.7627 9.31055 5.74805C9.29785 5.72681 9.2793 5.70923 9.26953 5.70923C9.23828 5.70923 9.21973 5.80396 9.24219 5.85034C9.25879 5.88525 9.2793 5.89282 9.34863 5.89087C9.39258 5.89014 9.42969 5.88086 9.4541 5.86646C9.48438 5.84888 9.49707 5.82373 9.48633 5.79639C9.47656 5.76929 9.45801 5.76538 9.40234 5.7749C9.37012 5.78149 9.35156 5.78247 9.33789 5.77661ZM11.0537 5.83887C11.0518 5.81567 11.0352 5.77686 11.0146 5.75171C10.9658 5.69775 10.9365 5.69775 10.9209 5.75C10.9121 5.7749 10.9189 5.802 10.9414 5.8252C10.9658 5.85229 10.9717 5.87744 10.9619 5.92188C10.9561 5.94604 10.9521 5.96094 10.9541 5.96899C10.957 5.98145 10.9727 5.97827 11.0107 5.97021C11.1016 5.95288 11.1562 5.97412 11.1562 6.02832C11.1562 6.05322 11.167 6.08032 11.1768 6.08618C11.2061 6.10352 11.2588 6.06104 11.249 6.03198L11.2285 5.95483C11.2178 5.90845 11.208 5.90063 11.1602 5.90454C11.0889 5.91235 11.0537 5.89087 11.0537 5.83887ZM5.39551 5.81763C5.43652 5.8562 5.51465 5.82324 5.51465 5.76733C5.51465 5.73999 5.4873 5.72607 5.45703 5.72778C5.43359 5.72925 5.4082 5.7395 5.3916 5.75952C5.36914 5.78271 5.36914 5.79443 5.39551 5.81763ZM5.74023 5.75952C5.74023 5.79443 5.80371 5.78857 5.81836 5.75171C5.82227 5.73828 5.80762 5.72852 5.7832 5.72852C5.75879 5.72852 5.74023 5.74023 5.74023 5.75952ZM9.91699 5.77368C9.91992 5.76465 9.91992 5.75562 9.91504 5.74805C9.90625 5.73438 9.8877 5.72827 9.86914 5.72876C9.84668 5.72925 9.82227 5.74023 9.81445 5.75952C9.79395 5.80981 9.80078 5.8252 9.8418 5.8252C9.875 5.8252 9.90918 5.79883 9.91699 5.77368ZM9.00977 5.83691C9.01758 5.83057 9.02246 5.82007 9.02246 5.80591C9.02246 5.78467 9.01074 5.76733 8.99609 5.76733C8.95703 5.76733 8.94043 5.78662 8.95508 5.81763C8.9668 5.84521 8.99316 5.85034 9.00977 5.83691ZM10.7773 5.86401C10.7959 5.83105 10.8037 5.79639 10.7979 5.78662C10.7744 5.75171 10.7129 5.76538 10.6641 5.81567C10.625 5.85425 10.6211 5.86768 10.6436 5.89282C10.6846 5.93921 10.7422 5.92773 10.7773 5.86401ZM7.68555 5.92188C7.69922 5.92188 7.70996 5.90845 7.70605 5.89087C7.69727 5.85034 7.60742 5.81567 7.60742 5.85034C7.60742 5.86597 7.61719 5.88281 7.63086 5.89624C7.64648 5.91113 7.66699 5.92188 7.68555 5.92188ZM4.81738 6.00122C4.81738 5.99341 4.78809 5.9624 4.75195 5.93359C4.67188 5.87158 4.66504 5.87158 4.6123 5.92578C4.56934 5.97021 4.55664 6.06494 4.5918 6.08618C4.60352 6.09204 4.6123 6.08032 4.6123 6.06104C4.6123 6.03442 4.62402 6.0127 4.64062 5.99951C4.66113 5.98413 4.68945 5.98071 4.7168 5.99536C4.76172 6.02246 4.81738 6.02637 4.81738 6.00122ZM7.41211 5.97998C7.42871 5.97998 7.44336 5.96631 7.44336 5.95093C7.44336 5.91992 7.41895 5.91235 7.39551 5.93555C7.37109 5.95679 7.37988 5.97998 7.41211 5.97998ZM8.88086 6.14233C8.91992 6.10352 8.9248 6.08813 8.90625 6.05322C8.89355 6.02832 8.87891 5.99536 8.87305 5.97803C8.8584 5.93359 8.78711 5.92188 8.7373 5.95483C8.67383 5.99536 8.68262 6.03784 8.75586 6.03784C8.81543 6.03784 8.83789 6.06299 8.79688 6.08618C8.77832 6.09692 8.77344 6.12598 8.78027 6.14893C8.78418 6.16284 8.79297 6.17456 8.80566 6.17896C8.82227 6.18481 8.85449 6.16919 8.88086 6.14233ZM9.64453 5.99927C9.68359 5.99927 9.7002 5.97998 9.68555 5.94897C9.66895 5.90845 9.61816 5.91602 9.61816 5.96045C9.61816 5.97144 9.62109 5.9812 9.62598 5.98828C9.63086 5.99512 9.6377 5.99927 9.64453 5.99927ZM4.26367 6.0127C4.26367 6.05322 4.35352 6.03784 4.36133 5.99341C4.36816 5.96045 4.34082 5.95288 4.29004 5.97412C4.27539 5.97803 4.26367 5.99536 4.26367 6.0127ZM8.42578 6.0437C8.45703 6.07275 8.5 6.03198 8.4834 5.99146C8.47461 5.97412 8.46094 5.96045 8.44824 5.96045C8.41602 5.96045 8.39941 6.01855 8.42578 6.0437ZM7.75098 6.18286C7.7959 6.22144 7.79785 6.21753 7.7998 6.10156C7.80176 6.01855 7.7793 5.99927 7.73438 6.04175C7.69727 6.07642 7.70605 6.14429 7.75098 6.18286ZM10.0762 6.0769C10.0605 6.06543 10.043 6.05396 10.0264 6.04565C9.95215 6.01074 9.90527 6.01074 9.90527 6.04565C9.90527 6.07471 9.98926 6.13843 10.0713 6.1731C10.0977 6.18286 10.1367 6.2041 10.1572 6.21558C10.2041 6.24854 10.2617 6.21387 10.2705 6.146C10.2783 6.08228 10.2246 6.05908 10.1738 6.10352C10.1387 6.13257 10.1348 6.13257 10.1104 6.10547L10.0762 6.0769ZM6.95898 6.11133C6.98535 6.11719 6.99414 6.10938 6.9873 6.08423C6.9834 6.06299 6.96484 6.04565 6.94238 6.04175C6.91602 6.03589 6.90723 6.0437 6.91406 6.06885C6.91797 6.09009 6.93652 6.10742 6.95898 6.11133ZM10.9639 6.18286C11.0605 6.25244 11.0889 6.18091 10.998 6.09204C10.9307 6.02441 10.8896 6.02441 10.8115 6.08618C10.7773 6.11328 10.7402 6.13452 10.7275 6.13452C10.7178 6.13452 10.6973 6.15186 10.6846 6.1731C10.6514 6.2312 10.7158 6.24658 10.7744 6.19434C10.8281 6.14795 10.9062 6.14233 10.9639 6.18286ZM5.0752 6.19238C5.11914 6.14429 5.125 6.12866 5.10449 6.10547C5.07324 6.07275 5.06543 6.0708 5.0166 6.0979C4.99805 6.10938 4.96289 6.11328 4.94238 6.10547C4.88574 6.08862 4.84668 6.11133 4.84082 6.14258C4.83691 6.16528 4.85059 6.19238 4.88867 6.21191C4.92188 6.22729 4.94824 6.26587 4.96094 6.3103C4.96973 6.34033 4.99707 6.38037 5.02539 6.41138C5.05469 6.44434 5.08496 6.46729 5.0957 6.45728C5.09863 6.45508 5.0957 6.43994 5.08789 6.41772L5.06348 6.35107L5.02246 6.25244L5.0752 6.19238ZM5.2998 6.17749C5.31738 6.16626 5.3291 6.14819 5.32617 6.12866C5.31934 6.08618 5.25195 6.06104 5.22168 6.08813C5.20117 6.10938 5.20312 6.16919 5.22754 6.18286C5.25 6.19531 5.27832 6.19092 5.2998 6.17749ZM5.74023 6.22925C5.74023 6.19629 5.73047 6.15381 5.71973 6.13257C5.70508 6.10791 5.69238 6.09644 5.67773 6.09766C5.66602 6.09863 5.65332 6.10767 5.6377 6.12476C5.61719 6.14795 5.61914 6.16748 5.64551 6.22144C5.68945 6.30664 5.74023 6.31226 5.74023 6.22925ZM6.71094 6.1731C6.75 6.1731 6.7666 6.15381 6.75195 6.1228C6.73535 6.08228 6.68359 6.09009 6.68359 6.13452C6.68359 6.14941 6.68945 6.1626 6.69922 6.16895L6.71094 6.1731ZM10.5928 6.2041C10.6338 6.19067 10.6309 6.1228 10.5898 6.10742C10.5576 6.09595 10.543 6.09595 10.459 6.10938C10.3936 6.12109 10.3691 6.14429 10.3828 6.18091C10.3936 6.20605 10.4053 6.20801 10.4463 6.18872C10.4873 6.1731 10.5059 6.1731 10.5312 6.19238C10.5391 6.19946 10.5508 6.20435 10.5625 6.20654C10.5732 6.2085 10.585 6.20801 10.5928 6.2041ZM4.63281 6.16357C4.63281 6.20215 4.61816 6.2002 4.55664 6.15381C4.49707 6.11133 4.47461 6.10742 4.42285 6.13647C4.36328 6.16748 4.37988 6.20801 4.46387 6.2312C4.52344 6.24927 4.55273 6.26221 4.56055 6.2793C4.56641 6.29102 4.56152 6.30493 4.54883 6.32397C4.51562 6.37427 4.55273 6.42432 4.62402 6.42432C4.67773 6.42432 4.68945 6.38965 4.64844 6.35107C4.625 6.3291 4.64551 6.29346 4.68066 6.27759C4.69238 6.27271 4.70508 6.26978 4.71875 6.26978C4.74707 6.26978 4.75586 6.26025 4.74707 6.23877C4.74121 6.22144 4.73535 6.19238 4.73535 6.17114C4.73535 6.14429 4.7207 6.13452 4.68359 6.13452C4.65137 6.13452 4.63281 6.146 4.63281 6.16357ZM9.78809 6.24463C9.76562 6.22144 9.73438 6.18286 9.72266 6.15771C9.69336 6.10547 9.65723 6.10352 9.61133 6.1499C9.5791 6.18286 9.58105 6.18677 9.64844 6.21753C9.72656 6.25244 9.73926 6.29492 9.68945 6.34717C9.62598 6.41479 9.70801 6.48047 9.81055 6.4458C9.86621 6.42432 9.88477 6.36646 9.83496 6.36646C9.81641 6.36646 9.81055 6.35303 9.81641 6.32788C9.8252 6.30273 9.8125 6.26978 9.78809 6.24463ZM9.21777 6.21191C9.18945 6.21191 9.15625 6.19434 9.1416 6.1731C9.11719 6.13843 9.0459 6.12109 9.01855 6.14429C9.0127 6.1499 9.01465 6.18286 9.02051 6.21753C9.0332 6.27368 9.04297 6.28149 9.13379 6.29688C9.21191 6.31226 9.23438 6.3103 9.25098 6.28711C9.28125 6.23877 9.27148 6.21191 9.21777 6.21191ZM5.42871 6.34717C5.47754 6.29102 5.51465 6.2312 5.51074 6.21558C5.5 6.16357 5.46094 6.17114 5.4082 6.23511C5.3584 6.29492 5.35059 6.29688 5.29297 6.27759C5.24219 6.2583 5.22363 6.26025 5.20508 6.28149C5.18457 6.30469 5.19043 6.31812 5.22559 6.35474C5.27051 6.40112 5.27051 6.40308 5.23535 6.47266C5.20703 6.53271 5.20508 6.55005 5.22754 6.58862C5.25 6.62939 5.25 6.64087 5.22168 6.67188C5.20117 6.69116 5.18652 6.72412 5.18652 6.74536C5.18652 6.79346 5.30176 6.87671 5.34473 6.86133C5.37305 6.84961 5.37109 6.84375 5.34277 6.80127C5.30371 6.74536 5.29883 6.65454 5.33398 6.62158C5.35254 6.60425 5.35059 6.58667 5.33008 6.55005C5.30762 6.50977 5.29883 6.50244 5.3457 6.44409L5.42871 6.34717ZM9.45605 6.34717C9.49512 6.32788 9.55664 6.23315 9.55664 6.19238C9.55664 6.17114 9.42871 6.16553 9.40625 6.18677C9.39844 6.19238 9.39258 6.21753 9.39258 6.24268C9.39258 6.26782 9.37598 6.28906 9.35156 6.29492C9.32422 6.30078 9.31445 6.31421 9.32227 6.33545C9.33691 6.37036 9.39648 6.37622 9.45605 6.34717ZM5.99512 6.38184C5.9209 6.41479 5.90039 6.39551 5.9082 6.29297C5.91699 6.18872 5.86914 6.15381 5.85156 6.24854C5.84277 6.28149 5.81641 6.32788 5.79004 6.35303C5.7627 6.37622 5.74023 6.40112 5.74023 6.40698C5.74023 6.43994 5.87988 6.50952 5.94141 6.50366C5.98438 6.50171 6.02734 6.51343 6.0498 6.53076C6.06836 6.5481 6.10352 6.55981 6.12402 6.55591C6.18555 6.54614 6.17969 6.47656 6.11133 6.41675C6.05664 6.36646 6.04395 6.36255 5.99512 6.38184ZM11.4932 6.33154C11.499 6.32202 11.4727 6.28711 11.4336 6.25439C11.3896 6.21436 11.3545 6.19458 11.3301 6.19434C11.3125 6.19409 11.2998 6.20337 11.292 6.22144C11.2861 6.23877 11.2979 6.2583 11.3271 6.27173C11.3516 6.28516 11.3838 6.30664 11.3984 6.32202C11.4297 6.35107 11.4766 6.35474 11.4932 6.33154ZM7.31641 6.31079C7.32715 6.30371 7.33496 6.29443 7.33691 6.28345C7.34277 6.26025 7.33008 6.25049 7.2959 6.25049C7.22559 6.25049 7.18066 6.28149 7.20898 6.30835C7.23438 6.33228 7.28613 6.32959 7.31641 6.31079ZM8.7168 6.27759C8.68652 6.31226 8.72754 6.34326 8.7627 6.3103C8.77832 6.29492 8.77832 6.28345 8.76465 6.26978C8.74805 6.25439 8.7334 6.2583 8.7168 6.27759ZM11.167 6.34717C11.1836 6.34717 11.1973 6.3335 11.1973 6.31812C11.1973 6.28711 11.1729 6.27954 11.1504 6.30273C11.1318 6.31934 11.1318 6.33691 11.1484 6.34399L11.167 6.34717ZM5.66406 6.48828C5.6709 6.44385 5.66211 6.39746 5.64551 6.37036C5.61328 6.32202 5.55957 6.31421 5.54297 6.35474C5.53711 6.36841 5.53516 6.4187 5.53906 6.46509C5.5459 6.54028 5.55176 6.55005 5.59863 6.55591C5.64844 6.56177 5.6543 6.55396 5.66406 6.48828ZM7.7998 6.43555C7.7998 6.42114 7.78809 6.40137 7.76562 6.37793C7.70996 6.32202 7.67871 6.31421 7.66309 6.35474C7.64648 6.3916 7.7041 6.46313 7.75098 6.46313C7.78516 6.46313 7.80078 6.45312 7.7998 6.43555ZM6.86035 6.49976C6.85449 6.47266 6.86035 6.43994 6.875 6.42627C6.91602 6.3877 6.86426 6.36646 6.79492 6.39551C6.73926 6.41675 6.72949 6.43213 6.71875 6.51343C6.70215 6.64478 6.73926 6.6814 6.81543 6.60425C6.83008 6.59033 6.84082 6.57788 6.84863 6.56567C6.86328 6.54395 6.86621 6.52344 6.86035 6.49976ZM10.4482 6.46118C10.4775 6.41089 10.4795 6.39746 10.4551 6.38379C10.4355 6.37109 10.4248 6.36597 10.4111 6.36865C10.4014 6.37061 10.3906 6.37622 10.373 6.38574C10.3359 6.40698 10.3438 6.46704 10.3867 6.50171C10.4102 6.51904 10.4219 6.50952 10.4482 6.46118ZM9.58496 6.47656C9.61328 6.46704 9.61621 6.45532 9.59766 6.42432C9.58301 6.3999 9.55859 6.38647 9.54004 6.38623C9.52637 6.38623 9.51562 6.39331 9.51562 6.40894C9.51562 6.45532 9.55176 6.48828 9.58496 6.47656ZM6.56055 6.56934C6.62012 6.56934 6.63867 6.50952 6.60156 6.4458C6.55469 6.36255 6.48926 6.40894 6.50391 6.51538C6.50781 6.55786 6.51953 6.56934 6.56055 6.56934ZM7.52539 6.48242C7.54785 6.48242 7.56641 6.4707 7.56641 6.45532C7.56641 6.42627 7.5166 6.40112 7.49609 6.4187C7.48047 6.43506 7.47949 6.45483 7.49023 6.46802C7.49805 6.47656 7.50977 6.48242 7.52539 6.48242ZM10.248 6.53955C10.2451 6.52637 10.2402 6.51318 10.2334 6.49976C10.2129 6.46313 10.1514 6.44946 10.125 6.47656C10.0996 6.4978 10.1084 6.55396 10.1406 6.5791C10.1885 6.61572 10.1797 6.67188 10.127 6.67944C10.0967 6.68335 10.0781 6.70166 10.0742 6.71899C10.0693 6.73633 10.0801 6.75293 10.1104 6.75293C10.1328 6.75293 10.1572 6.73755 10.166 6.71826C10.1719 6.70093 10.1943 6.66992 10.2168 6.65063C10.248 6.62109 10.2588 6.58154 10.248 6.53955ZM7.34277 6.59497C7.37012 6.59082 7.39453 6.57739 7.39844 6.55591C7.40234 6.53857 7.3877 6.51538 7.36523 6.50366C7.31348 6.47656 7.24609 6.521 7.26465 6.56738C7.27441 6.59131 7.31055 6.59961 7.34277 6.59497ZM10.9082 6.5791C10.9326 6.56738 10.9492 6.54614 10.9453 6.53467C10.9346 6.50366 10.8369 6.4939 10.8184 6.521C10.8125 6.52954 10.8135 6.54175 10.8193 6.55347C10.8223 6.56055 10.8271 6.56738 10.834 6.57324C10.8594 6.59644 10.873 6.59839 10.9082 6.5791ZM11.2627 6.74536C11.2715 6.75366 11.2822 6.76025 11.2939 6.76416C11.3066 6.76831 11.3193 6.76953 11.3291 6.7666C11.3701 6.75098 11.4131 6.59839 11.3867 6.55981C11.376 6.54419 11.3477 6.52881 11.3223 6.5249C11.2861 6.51904 11.2793 6.52881 11.2793 6.57715C11.2793 6.60986 11.2676 6.65454 11.2549 6.67578C11.2344 6.70654 11.2344 6.72021 11.2627 6.74536ZM9.10059 6.61377C9.11328 6.60229 9.125 6.5791 9.125 6.56543C9.125 6.51904 9.07422 6.54028 9.03125 6.60425C8.97168 6.68726 8.94922 6.83032 8.99219 6.83032C9.01855 6.83032 9.125 6.74341 9.125 6.72021C9.125 6.71631 9.11328 6.69702 9.10059 6.67578C9.08008 6.64673 9.08008 6.63306 9.10059 6.61377ZM5.9375 6.74536C5.96973 6.72217 5.96777 6.71436 5.9043 6.63892L5.8584 6.58887C5.84082 6.57129 5.82715 6.55981 5.82227 6.55981C5.7998 6.55981 5.78125 6.58496 5.78125 6.61377C5.78125 6.63135 5.76465 6.66016 5.74609 6.67944C5.72559 6.70093 5.71973 6.72217 5.73242 6.73169C5.7666 6.7627 5.90039 6.77026 5.9375 6.74536ZM7.9043 6.65625C7.9209 6.65625 7.93555 6.64478 7.93555 6.62939C7.93555 6.59644 7.90723 6.5752 7.88672 6.59253C7.86133 6.61572 7.87402 6.65625 7.9043 6.65625ZM7.7041 6.66797C7.71777 6.70264 7.79199 6.70264 7.79199 6.66797C7.79199 6.65454 7.7793 6.63306 7.76562 6.61963C7.73047 6.59448 7.6875 6.62939 7.7041 6.66797ZM5.52734 6.69507C5.5459 6.69507 5.55566 6.6814 5.55176 6.66211C5.54102 6.61377 5.49414 6.60815 5.49414 6.65454C5.49414 6.67773 5.50684 6.69507 5.52734 6.69507ZM6.21387 6.67578C6.18164 6.67578 6.14648 6.66602 6.14062 6.65625C6.12207 6.62744 6.05664 6.63306 6.0293 6.66406C6.01855 6.67676 6.01465 6.68604 6.01953 6.69556C6.02441 6.70337 6.03418 6.71167 6.05176 6.72217C6.0791 6.73755 6.12402 6.75684 6.15723 6.7627C6.19531 6.77222 6.21191 6.78784 6.21191 6.82056C6.21191 6.87476 6.25781 6.91138 6.30273 6.896C6.34375 6.88062 6.34375 6.83032 6.30664 6.74341C6.29785 6.72314 6.29004 6.70874 6.28125 6.69849C6.26562 6.68042 6.24707 6.67578 6.21387 6.67578ZM8.74902 6.72485C8.74707 6.71191 8.73633 6.69604 8.7168 6.67773C8.66211 6.62549 8.62109 6.62549 8.58984 6.67773C8.5752 6.70508 8.5752 6.7251 8.59082 6.73828C8.60547 6.75024 8.63281 6.75684 8.67383 6.75879C8.72656 6.76123 8.75293 6.74854 8.74902 6.72485ZM9.2793 6.75293C9.34082 6.75293 9.36719 6.70654 9.33105 6.66602C9.31641 6.65063 9.29395 6.63696 9.2793 6.63696C9.26172 6.63696 9.24414 6.64795 9.23145 6.66309C9.21582 6.6814 9.20801 6.70605 9.21582 6.72412C9.22168 6.7395 9.25098 6.75293 9.2793 6.75293ZM7.1582 6.75293C7.18652 6.75293 7.19727 6.74341 7.19238 6.72021C7.18262 6.66992 7.11523 6.66406 7.11523 6.7124C7.11523 6.74146 7.12695 6.75293 7.1582 6.75293ZM6.5918 6.83032C6.63281 6.79736 6.63086 6.7666 6.58594 6.72778C6.54004 6.68921 6.51562 6.68726 6.4834 6.71826C6.4375 6.76074 6.47168 6.82446 6.52148 6.84155C6.54395 6.84937 6.56934 6.84766 6.5918 6.83032ZM9.7207 6.75098C9.74121 6.78394 9.80273 6.76465 9.80273 6.72412C9.80273 6.7085 9.78418 6.69507 9.76367 6.69507C9.71387 6.69507 9.69824 6.71826 9.7207 6.75098ZM7.9248 6.8689C7.94141 6.8689 7.95605 6.85938 7.95605 6.84961C7.95605 6.83813 7.94141 6.83032 7.9248 6.83032C7.90918 6.83032 7.89453 6.83813 7.89453 6.84961C7.89453 6.85938 7.90918 6.8689 7.9248 6.8689ZM4.98926 6.96558C5.03027 6.96558 5.06934 6.91333 5.05469 6.87866C5.04297 6.84961 5.03027 6.8457 4.9873 6.86304C4.9502 6.87671 4.95215 6.96558 4.98926 6.96558ZM7.39648 8.98242C7.40039 8.97656 7.40234 8.97021 7.40234 8.96411C7.40234 8.94849 7.38379 8.93701 7.36133 8.93701C7.33398 8.93701 7.32031 8.95044 7.32031 8.97559C7.32031 9.01807 7.32227 9.02002 7.36914 9.00269C7.38086 8.99902 7.39062 8.99121 7.39648 8.98242ZM8.56152 9.11084C8.57812 9.11084 8.5918 9.10327 8.5918 9.09351C8.5918 9.06836 8.55957 9.05103 8.54297 9.06641C8.52051 9.08765 8.53027 9.11084 8.56152 9.11084ZM8.81738 9.22876C8.81738 9.20752 8.78711 9.16895 8.75 9.14185C8.63477 9.05884 8.57812 9.08765 8.66211 9.18433C8.70898 9.23462 8.71094 9.24243 8.68066 9.27124C8.6416 9.30811 8.66016 9.3623 8.71289 9.3623C8.75586 9.3623 8.81738 9.28491 8.81738 9.22876ZM8.47266 9.26562C8.52246 9.26562 8.54297 9.21533 8.50977 9.17847C8.47754 9.14185 8.45898 9.14185 8.41797 9.18042C8.37891 9.21729 8.40918 9.26562 8.47266 9.26562Z"></path></svg>