<svg xmlns="http://www.w3.org/2000/svg" viewBox="0 0 20 23" height="23" width="20"><title>pitch.svg</title><rect fill="none" x="0" y="0" width="20" height="23"></rect><path fill="#5e758d" transform="translate(1 1)" d="M11.1123 15.5334C14.0547 14.3313 16.1289 11.4402 16.1289 8.06445C16.1289 3.6106 12.5186 0 8.06445 0C3.61035 0 0 3.6106 0 8.06445C0 11.4431 2.07812 14.3364 5.02539 15.5366L7.36914 19.5967C7.67969 20.1345 8.45508 20.1345 8.76562 19.5967L11.1123 15.5334ZM6.51172 8.41357C6.54004 8.4043 6.57031 8.3999 6.59961 8.3999C7.37598 8.3999 8.00391 9.03101 8 9.80762C7.99805 10.136 7.72852 10.3999 7.40039 10.3999H4.59961C4.27148 10.3999 4.00195 10.136 4 9.80762C3.99609 9.03101 4.62402 8.3999 5.40039 8.3999C5.42969 8.3999 5.45996 8.4043 5.48828 8.41357C5.65039 8.46631 5.82031 8.5 6 8.5C6.07129 8.5 6.14062 8.49463 6.20898 8.48511C6.31348 8.47046 6.41406 8.44556 6.51172 8.41357ZM6.41699 7.92554C6.28711 7.97363 6.14648 8 6 8C5.33691 8 4.7998 7.46265 4.7998 6.80005C4.7998 6.13721 5.33691 5.6001 6 5.6001C6.66309 5.6001 7.2002 6.13721 7.2002 6.80005C7.2002 7.31616 6.875 7.7561 6.41699 7.92554ZM6.59961 4H11.4004C11.7305 4 12 4.27808 12 4.61987V8.58008C12 8.7793 11.9082 8.95679 11.7666 9.07031C11.665 9.15161 11.5381 9.19995 11.4004 9.19995H8.34277C8.29102 9.00024 8.20215 8.81665 8.08301 8.65601C8.01367 8.5625 7.93457 8.47681 7.84668 8.3999H8.7998V7.6001H10.4004V8.3999H11.2002V4.80005H6.7998V5.42261C6.56348 5.28467 6.29297 5.19995 6 5.19995V4.61987C6 4.27808 6.26953 4 6.59961 4Z"></path></svg>