<svg xmlns="http://www.w3.org/2000/svg" viewBox="0 0 21 24" height="24" width="21"><title>place_of_worship.svg</title><rect fill="none" x="0" y="0" width="21" height="24"></rect><path fill="#5e758d" transform="translate(2 2)" d="M11.1123 15.5334C14.0547 14.3313 16.1289 11.4402 16.1289 8.06445C16.1289 3.6106 12.5186 0 8.06445 0C3.61035 0 0 3.6106 0 8.06445C0 11.4431 2.07812 14.3364 5.02539 15.5366L7.36914 19.5967C7.49121 19.8076 7.68457 19.9358 7.89258 19.9812C8.21582 20.0518 8.57715 19.9236 8.76562 19.5967L11.1123 15.5334ZM10.751 8.16187L11.8232 9.49414C11.9365 9.63477 12 9.82544 12 10.0244C12 10.2234 11.9365 10.4141 11.8232 10.5547L10.8369 11.7805C10.7236 11.9209 10.5703 12 10.4102 12C10.25 12 10.0967 11.9209 9.9834 11.7805L8.52637 9.96997L8.5 9.93481L8.47363 9.96997L7.0166 11.7805C6.90332 11.9209 6.75 12 6.58984 12C6.42969 12 6.27637 11.9209 6.16309 11.7805L5.17676 10.5547C5.06348 10.4141 5 10.2234 5 10.0244C5 9.91089 5.02051 9.80029 5.05957 9.69995C5.08887 9.62427 5.12793 9.55469 5.17676 9.49414L6.24902 8.16187L7.33984 3.68652C7.375 3.54395 7.43555 3.41333 7.51758 3.30469C7.59961 3.19604 7.7002 3.11255 7.8125 3.06055C7.9248 3.00854 8.0459 2.98975 8.16504 3.00537C8.28418 3.02075 8.39844 3.07056 8.5 3.15039C8.60156 3.07056 8.71582 3.02075 8.83496 3.00537C8.9541 2.98975 9.0752 3.00854 9.1875 3.06055C9.2998 3.11255 9.40039 3.19604 9.48242 3.30469C9.56445 3.41333 9.625 3.54395 9.66016 3.68652L10.751 8.16187ZM5.77539 10.0256L6.58984 11.0381L6.92188 10.6255L6.10645 9.61304L5.77539 10.0256ZM8.09277 9.09033C8.12305 8.99927 8.1377 8.90161 8.1377 8.80322V3.96826C8.1377 3.95215 8.13281 3.93677 8.125 3.9248C8.11621 3.9126 8.10449 3.90479 8.0918 3.90234C8.0791 3.90015 8.06641 3.90332 8.05566 3.91187C8.04492 3.92041 8.03613 3.93335 8.03223 3.94873L6.91602 8.53198C6.89941 8.60278 6.86816 8.66724 6.82617 8.71948L6.62012 8.97559L7.43457 9.98804L7.96094 9.33325C8.01758 9.26392 8.06152 9.18115 8.09277 9.09033ZM9.03906 9.33325L9.57129 9.99487L10.4033 9.0022L10.1738 8.71729C10.1318 8.66504 10.1006 8.60059 10.083 8.52979L8.9668 3.94629C8.96289 3.93115 8.95508 3.91821 8.94434 3.90967C8.93359 3.90112 8.9209 3.89771 8.9082 3.90015C8.89551 3.90259 8.88379 3.9104 8.875 3.92261C8.86719 3.93457 8.8623 3.94995 8.8623 3.96582V8.80322C8.8623 8.90161 8.87695 8.99927 8.90723 9.09033C8.93066 9.15796 8.96094 9.22095 8.99805 9.27759L9.03906 9.33325ZM10.083 10.6316L10.4102 11.0381L11.2256 10.0244L10.917 9.64014L10.083 10.6316Z"></path></svg>