<svg xmlns="http://www.w3.org/2000/svg" viewBox="0 0 21 24" height="24" width="21"><title>playground.svg</title><rect fill="none" x="0" y="0" width="21" height="24"></rect><path fill="#598017" transform="translate(2 2)" d="M11.1123 15.5334C14.0547 14.3313 16.1289 11.4402 16.1289 8.06445C16.1289 3.6106 12.5186 0 8.06445 0C3.61035 0 0 3.6106 0 8.06445C0 11.4431 2.07812 14.3364 5.02539 15.5366L7.36914 19.5967C7.53418 19.8831 7.83203 20.0168 8.12109 19.9983C8.37402 19.9819 8.62012 19.8481 8.76562 19.5967L11.1123 15.5334ZM4.19824 3.96777C4.55957 3.6521 5.27246 3.05103 5.31738 3.02441C5.39062 2.98315 5.49902 2.99487 5.57422 3.0542C5.70215 3.15674 6.68359 3.99585 6.73926 4.052C6.79492 4.1062 6.82227 4.14624 6.83887 4.2085C6.84668 4.23926 6.85156 4.27539 6.85645 4.32104L6.86816 4.44019L7.45703 4.90918L8.0459 5.37988L8.33203 5.30078C8.49023 5.25781 8.62598 5.21631 8.63672 5.21143C8.64648 5.20654 8.8623 4.9043 9.11328 4.54077C9.43457 4.07837 9.58594 3.87354 9.61816 3.85693C9.82129 3.75464 10.0264 3.98584 9.91211 4.18896L9.84766 4.28809L9.63672 4.59741L9.45312 4.86304L9.02637 5.479L9.13281 5.93506C9.19141 6.18604 9.24512 6.39917 9.25 6.40894C9.25293 6.41406 9.26758 6.4126 9.29297 6.40479C9.32715 6.39429 9.38086 6.37256 9.4541 6.3396C9.52832 6.30566 9.58496 6.28271 9.63086 6.2688C9.70898 6.24536 9.75781 6.2478 9.80957 6.26855C9.86426 6.29004 9.91895 6.34448 9.94824 6.40234C9.96094 6.42725 10.0371 6.79883 10.1201 7.22827C10.1924 7.60449 10.2324 7.82422 10.249 7.9541C10.2666 8.08936 10.2578 8.12744 10.2344 8.14331C10.1963 8.1665 9.88574 7.823 9.69629 7.54712L9.60254 7.40991L9.55762 7.17041L9.51367 6.92944L9.45312 6.96069C9.41992 6.97876 9.38379 6.99365 9.37305 6.99365C9.3623 6.99219 9.30469 6.91455 9.24609 6.82031C8.94043 6.32471 8.47266 5.9646 7.87793 5.76489L7.70703 5.70874L7.28711 5.375L6.86816 5.04297L6.86328 5.42773C6.86133 5.63916 6.86328 5.82104 6.86621 5.83081C6.87109 5.84253 6.94727 5.85229 7.06641 5.85889C7.58789 5.88696 8.0791 6.05542 8.50098 6.35449C8.56152 6.39697 8.63281 6.45972 8.70508 6.53174L8.80664 6.63916C8.9082 6.75098 9.00195 6.87134 9.06055 6.96899C9.35742 7.46606 9.4375 7.59326 9.53223 7.72876C9.75781 8.04663 9.9873 8.28955 10.2354 8.46973C10.3271 8.53638 10.4219 8.59448 10.5186 8.64478L10.6279 8.69702L10.7441 8.74463C10.8223 8.77368 10.8936 8.79663 10.9668 8.8147C11.1045 8.84863 11.2471 8.86548 11.4502 8.87524C11.7188 8.88989 11.7393 8.89331 11.8145 8.93628C11.8643 8.96436 11.9141 9.01221 11.9443 9.05859L11.9941 9.13281L11.999 9.39551C12.0049 9.70435 11.9912 9.76221 11.8848 9.86621C11.8037 9.94385 11.7568 9.96045 11.5098 9.98511C11.3467 10.0017 11.1719 10.002 10.999 9.9873C10.8623 9.97583 10.7275 9.95508 10.6016 9.92603C10.5205 9.90723 10.4424 9.88501 10.3691 9.85962C10.0156 9.7373 9.71289 9.54932 9.42285 9.25879C9.14551 8.98022 8.87988 8.60767 8.59473 8.10864C8.51758 7.97241 8.45898 7.87964 8.39746 7.79858C8.34863 7.73413 8.29785 7.67725 8.2334 7.61157C8.11523 7.49097 7.89941 7.3291 7.75586 7.25317C7.55566 7.14575 7.20996 7.03174 6.99316 7.00195C6.95117 6.99536 6.90234 6.98706 6.8877 6.98218C6.86133 6.97559 6.86035 7.05151 6.86035 8.41431C6.86035 9.81079 6.86035 9.92822 6.80371 9.97046L6.78516 9.98193C6.7666 9.9917 6.66504 10 6.54883 10C6.35645 10 6.34473 9.99829 6.30176 9.96045L6.25879 9.92065L6.25391 9.14282L6.24902 8.36475H5.42188H4.5957L4.59082 9.14282L4.58594 9.92065L4.54199 9.96045C4.52246 9.97827 4.50879 9.98804 4.47949 9.99341C4.46387 9.99634 4.44238 9.99805 4.41309 9.99878L4.28711 10C4.19336 10 4.14062 9.99976 4.1084 9.99536C4.07031 9.99023 4.05859 9.97998 4.03906 9.95874L4 9.91895V7.0564C4 4.25342 4 4.19238 4.0293 4.14111C4.03711 4.12842 4.05664 4.10498 4.08301 4.07715C4.11523 4.0437 4.15723 4.00366 4.19824 3.96777ZM6.25098 6.71289V6.37427V6.03564H5.42188H4.59375V6.37427V6.71289H5.42188H6.25098ZM6.25098 7.86914V7.53882V7.2085H5.42188H4.59375V7.53882V7.86914H5.42188H6.25098ZM8.09473 4.16748C7.72461 4.28809 7.60449 4.78857 7.87793 5.07251C8.14062 5.34839 8.5918 5.24609 8.72168 4.8811C8.76562 4.75537 8.75879 4.57544 8.7041 4.45825C8.68066 4.40674 8.64453 4.35571 8.60254 4.31128C8.5498 4.25562 8.48828 4.21021 8.43066 4.18726C8.3418 4.15088 8.1748 4.14258 8.09473 4.16748ZM10.3105 7.25977C10.3008 7.25146 10.1416 6.45361 10.1416 6.41406C10.1416 6.40576 10.1445 6.39917 10.1494 6.39917C10.1611 6.39917 10.4229 6.61792 10.6641 6.82544C10.8701 7.00244 11.0625 7.17114 11.0732 7.18872C11.0898 7.21509 11.1045 7.27466 11.1074 7.33228C11.1104 7.38696 11.1094 7.41699 11.0996 7.44507C11.0947 7.45947 11.0869 7.47314 11.0762 7.48926C11.001 7.60669 10.8652 7.65454 10.7451 7.60498C10.7285 7.59839 10.625 7.51904 10.5195 7.43481C10.4365 7.36841 10.3535 7.29907 10.3105 7.25977Z"></path></svg>