<svg xmlns="http://www.w3.org/2000/svg" viewBox="0 0 21 24" height="24" width="21"><title>police.svg</title><rect fill="none" x="0" y="0" width="21" height="24"></rect><path fill="#5e758d" transform="translate(2 2)" d="M11.1123 15.5334C14.0547 14.3313 16.1289 11.4402 16.1289 8.06445C16.1289 3.6106 12.5186 0 8.06445 0C3.61035 0 0 3.6106 0 8.06445C0 11.4431 2.07812 14.3364 5.02539 15.5366L7.36914 19.5967C7.67969 20.1345 8.45508 20.1345 8.76562 19.5967L11.1123 15.5334ZM7.63672 3.69238L7.27246 3H11.6367L11.2725 3.69238H7.63672ZM7.63672 4.90381V4.03857H11.2725V4.90381C11.2725 4.90381 11.2725 6.80762 9.4541 6.80762C7.63672 6.80762 7.63672 4.90381 7.63672 4.90381ZM4.20508 5.27734C4.33984 5.14575 4.52344 5.07007 4.71582 5.06714C4.81348 5.06567 4.91016 5.08276 5 5.11768C5.0459 5.1355 5.08984 5.15796 5.13184 5.18433C5.1709 5.20923 5.20801 5.23779 5.24121 5.26953C5.29297 5.31836 5.33594 5.37402 5.36914 5.43506L5.40137 5.49878C5.4375 5.58447 5.45605 5.67651 5.45508 5.76929V7.67578L8 7.15381H10.8662C10.9746 7.15576 11.0811 7.17188 11.1846 7.20239L6.90918 12V8.78564L4.88477 9.21484C4.8252 9.22754 4.76465 9.23291 4.7041 9.23096C4.65625 9.22949 4.60938 9.22363 4.5625 9.21338C4.49219 9.19775 4.4248 9.17236 4.3623 9.13818C4.33105 9.12061 4.30078 9.10083 4.27246 9.07886C4.1875 9.01392 4.11816 8.93164 4.07129 8.83813C4.02441 8.74463 4 8.64209 4 8.53857V5.76929C3.99805 5.67627 4.0166 5.58496 4.05273 5.50049C4.08789 5.41821 4.13867 5.34229 4.20508 5.27734ZM7.93652 12L11.8164 7.646C11.9316 7.81494 12 8.01587 12 8.23315V12H7.93652Z"></path></svg>