<svg xmlns="http://www.w3.org/2000/svg" viewBox="0 0 21 24" height="24" width="21"><title>post.svg</title><rect fill="none" x="0" y="0" width="21" height="24"></rect><path fill="#5e758d" transform="translate(2 2)" d="M11.1123 15.5334C14.0547 14.3313 16.1289 11.4402 16.1289 8.06445C16.1289 3.6106 12.5186 0 8.06445 0C3.61035 0 0 3.6106 0 8.06445C0 11.4431 2.07812 14.3364 5.02539 15.5366L7.36914 19.5967C7.67969 20.1345 8.45508 20.1345 8.76562 19.5967L11.1123 15.5334ZM4.4707 4.37012C4.23535 4.146 4 4 4.4707 4H11.5293C11.7178 4 11.793 4.02515 11.7998 4.06934C11.8105 4.13574 11.6699 4.24561 11.5293 4.37988L8 7.51807L4.4707 4.37012ZM4 9.37646V4.73999L8 8.31641L12 4.73999V9.37646C12 9.64917 11.7617 10 11.5732 10H4.42676C4.23828 10 4 9.64917 4 9.37646Z"></path></svg>