<svg xmlns="http://www.w3.org/2000/svg" viewBox="0 0 20 23" height="23" width="20"><title>prison.svg</title><rect fill="none" x="0" y="0" width="20" height="23"></rect><path fill="#5e758d" transform="translate(1 1)" d="M11.1123 15.5334C14.0547 14.3313 16.1289 11.4402 16.1289 8.06445C16.1289 3.6106 12.5186 0 8.06445 0C3.61035 0 0 3.6106 0 8.06445C0 11.4431 2.07812 14.3364 5.02539 15.5366L7.36914 19.5967C7.67969 20.1345 8.45508 20.1345 8.76562 19.5967L11.1123 15.5334ZM4 12V4H4.5332V12H4ZM6.40039 8.70386V4H6.93359V8.69409C6.85352 8.66919 6.76953 8.65552 6.68164 8.65552C6.58594 8.65552 6.49023 8.67188 6.40039 8.70386ZM9.06641 8.69897V4H9.59961V8.69897C9.51562 8.6709 9.42676 8.65552 9.33301 8.65552L9.26074 8.65869C9.19336 8.66455 9.12891 8.67822 9.06641 8.69897ZM11.4668 12V4H12V12H11.4668ZM7.75293 4.78369C7.83301 4.75537 7.91602 4.74072 8 4.74072C8.15918 4.74072 8.3125 4.79248 8.45215 4.88989C8.56152 4.9668 8.66406 5.07178 8.75391 5.20215L8.7666 5.22144V7.55151L8.75391 7.5708C8.5498 7.86646 8.28418 8.03247 8 8.03247C7.71582 8.03247 7.4502 7.86646 7.24609 7.5708L7.2334 7.55151V5.22144L7.24609 5.20215C7.38965 4.99438 7.56348 4.85059 7.75293 4.78369ZM7.2334 8.28052C7.45117 8.19751 7.7041 8.15137 8 8.15137C8.2959 8.15137 8.54883 8.19727 8.7666 8.27979V8.87085C8.53223 9.07227 8.38379 9.39429 8.38379 9.7478C8.38379 9.95142 8.43359 10.1445 8.51953 10.3103C8.58301 10.4324 8.66699 10.5396 8.7666 10.625V12H7.2334V10.6372C7.2959 10.5862 7.35254 10.5266 7.40137 10.4604C7.5459 10.2673 7.63184 10.0168 7.63184 9.7478C7.63184 9.38696 7.47656 9.05908 7.2334 8.85864V8.28052ZM6.03125 9.7478C6.03125 9.2981 6.33398 8.95801 6.68164 8.95801C6.8584 8.95801 7.02441 9.04663 7.14355 9.19336H6.66699V9.49585H7.29785C7.3125 9.54688 7.32227 9.60034 7.32715 9.65601L7.33105 9.7312H6.66699V10.0337H7.28809C7.19238 10.334 6.9502 10.5378 6.68164 10.5378C6.43066 10.5378 6.2041 10.3611 6.09668 10.094C6.05469 9.99048 6.03125 9.87354 6.03125 9.7478ZM9.14746 8.99121C9.20703 8.96948 9.26953 8.95801 9.33301 8.95801C9.68066 8.95801 9.9834 9.2981 9.9834 9.7478C9.9834 10.1978 9.68066 10.5378 9.33301 10.5378C9.06445 10.5378 8.82324 10.334 8.72656 10.0337H9.33301V9.7312H8.68359C8.68555 9.64819 8.69629 9.56934 8.7168 9.49585H9.33301V9.19336H8.87109C8.94727 9.09961 9.04297 9.02954 9.14746 8.99121ZM5.75195 12C5.75586 11.5186 5.77539 10.9194 5.88184 10.3369C5.94043 10.4419 6.01367 10.5352 6.09961 10.6121V12H5.75195ZM10.0391 10.4788C10.0693 10.4397 10.0977 10.3979 10.123 10.3542C10.2266 10.9321 10.2441 11.5244 10.248 12H9.90039V10.625C9.95117 10.5815 9.99707 10.5325 10.0391 10.4788ZM6.40039 12V10.7917C6.49023 10.824 6.58594 10.8403 6.68164 10.8403C6.7666 10.8403 6.85156 10.8274 6.93359 10.8015V12H6.40039ZM9.06641 12V10.7966C9.15137 10.825 9.24023 10.8403 9.33301 10.8403C9.42676 10.8403 9.51562 10.825 9.59961 10.7966V12H9.06641Z"></path></svg>