<svg xmlns="http://www.w3.org/2000/svg" viewBox="0 0 20 23" height="23" width="20"><title>recycling.svg</title><rect fill="none" x="0" y="0" width="20" height="23"></rect><path fill="#5e758d" transform="translate(1 1)" d="M11.1123 15.5334C14.0547 14.3313 16.1289 11.4402 16.1289 8.06445C16.1289 3.6106 12.5186 0 8.06445 0C3.61035 0 0 3.6106 0 8.06445C0 11.4431 2.07812 14.3364 5.02539 15.5366L7.36914 19.5967C7.47461 19.7786 7.63281 19.8989 7.80762 19.9578C8.15039 20.073 8.56055 19.9526 8.76562 19.5967L11.1123 15.5334ZM8.7002 5.00659L8 3.97998L7 5.47339L6.15039 5.00659L7.4502 3H8.5498L9.5498 4.54004L10.4502 4.02661L10.25 4.67993L9.9502 5.93994L8.5498 5.65991L7.90039 5.52002L8.7002 5.00659ZM10.6504 6.12671L12 8.1333L11.3496 9.06665H9.5V10L8 8.6001L9.5 7.19995V8.1333H10.7998L9.7998 6.59326L10.6504 6.12671ZM5.90039 7.06006L5.2002 8.1333H7.5V9.06665H4.65039L4 8.1333L5.0498 6.54663L4.25 6.08008L4.90039 5.93994L6.2998 5.61328L6.75 7.57324L5.90039 7.06006Z"></path></svg>