<svg xmlns="http://www.w3.org/2000/svg" viewBox="0 0 20 23" height="23" width="20"><title>reservoir.svg</title><rect fill="none" x="0" y="0" width="20" height="23"></rect><path fill="#5e758d" transform="translate(1 1)" d="M11.1123 15.5334C14.0547 14.3313 16.1289 11.4402 16.1289 8.06445C16.1289 3.6106 12.5186 0 8.06445 0C3.61035 0 0 3.6106 0 8.06445C0 11.4431 2.07812 14.3364 5.02539 15.5366L7.36914 19.5967C7.67969 20.1345 8.45508 20.1345 8.76562 19.5967L11.1123 15.5334ZM4.00781 3.36279C3.99902 3.30615 3.99805 3.23877 4.00293 3.18188L4.00879 3.14014C4.01172 3.12085 4.0166 3.104 4.02148 3.09082C4.05762 3.00488 4.19434 2.99048 4.72559 3.00488L5.39355 3.02637L5.43652 5.6748C5.45215 6.78271 5.46191 7.43018 5.48145 7.8418C5.50781 8.38477 5.55078 8.5166 5.64453 8.75269C5.6709 8.81982 5.7002 8.88403 5.73242 8.94653C5.75098 8.98291 5.77051 9.0188 5.79199 9.05444C5.90234 9.2373 6.0459 9.41284 6.24805 9.6189C6.78613 10.1558 7.27441 10.3633 8.01465 10.3633C8.75391 10.3633 9.24219 10.1558 9.78125 9.6189C10.0898 9.30396 10.2617 9.06055 10.3838 8.75269C10.4697 8.53833 10.5127 8.40991 10.5391 7.9812C10.5645 7.58032 10.5752 6.91675 10.5928 5.6748L10.6357 3.02637H11.3174H12V3.27686V3.52734L11.5908 3.54883L11.1738 3.57031V6.02539C11.1738 8.25171 11.1602 8.5166 11.0381 8.87427C10.751 9.69751 10.1904 10.3347 9.39355 10.7283C8.96289 10.9431 8.83301 10.9717 8.17969 10.9932C7.38281 11.0291 6.95898 10.9287 6.37695 10.5923C6.16797 10.4722 5.94922 10.2935 5.74707 10.0864C5.54785 9.88208 5.36621 9.6499 5.22754 9.41919C5.18848 9.35425 5.15234 9.28931 5.12012 9.2251L4.89062 8.75269L4.86914 6.16162L4.84766 3.57031L4.43848 3.54883C4.23926 3.53711 4.13574 3.52759 4.0791 3.49707C4.03223 3.47144 4.01758 3.43115 4.00781 3.36279ZM5.80273 3.39136C5.68066 3.47729 5.64453 3.56323 5.65918 3.72778L5.68066 3.95679L6.09766 3.9353C6.37695 3.92822 6.56445 3.95679 6.67188 4.02832C6.87305 4.16455 7.51172 4.17163 7.69824 4.02832C7.74707 3.9895 7.8291 3.95752 7.9082 3.94067C7.94531 3.93262 7.98242 3.92822 8.01465 3.92822C8.11523 3.92822 8.25879 3.97119 8.33105 4.02832C8.51758 4.17163 9.15625 4.16455 9.35742 4.02832C9.46484 3.95679 9.65234 3.92822 9.93164 3.9353L10.3486 3.95679L10.3701 3.72778C10.4062 3.39844 10.1543 3.25537 9.65234 3.29126C9.44336 3.31274 9.1709 3.36987 9.04199 3.41992C8.84766 3.50586 8.7832 3.50586 8.53125 3.39136C8.21582 3.24829 7.77734 3.26245 7.38965 3.42725C7.18848 3.50586 7.12402 3.50586 6.90137 3.39844C6.57812 3.24097 6.01855 3.24097 5.80273 3.39136ZM5.65918 4.87305C5.64453 4.7085 5.68066 4.62256 5.80273 4.53662C6.01855 4.38623 6.57812 4.38623 6.90137 4.5437C7.12402 4.65112 7.18848 4.65112 7.38965 4.57251C7.77734 4.40771 8.21582 4.39355 8.53125 4.53662C8.7832 4.65112 8.84766 4.65112 9.04199 4.56519C9.1709 4.51514 9.44336 4.45801 9.65234 4.43652C9.95801 4.41479 10.1709 4.45898 10.2822 4.57129C10.3047 4.59375 10.3232 4.6189 10.3369 4.64673C10.3594 4.69116 10.3721 4.74268 10.373 4.80103C10.374 4.82397 10.373 4.8479 10.3701 4.87305L10.3486 5.10205L9.93164 5.08057C9.80957 5.07739 9.70508 5.08105 9.61719 5.09229C9.50391 5.10669 9.41797 5.1333 9.35742 5.17358C9.3291 5.19263 9.29199 5.20923 9.24805 5.22339C9.21875 5.23315 9.18652 5.24146 9.15234 5.24854C9.0918 5.26099 9.02441 5.26953 8.95508 5.27417C8.89648 5.27808 8.83594 5.2793 8.77637 5.27759C8.58984 5.27197 8.41504 5.23804 8.33105 5.17358C8.25879 5.11646 8.11523 5.07349 8.01465 5.07349C7.91406 5.07349 7.77051 5.11646 7.69824 5.17358C7.51172 5.31689 6.87305 5.30981 6.67188 5.17358C6.56445 5.10205 6.37695 5.07349 6.09766 5.08057L5.68066 5.10205L5.65918 4.87305ZM5.80273 5.68188C5.68066 5.76782 5.64453 5.85376 5.65918 6.01831L5.68066 6.24731L6.09766 6.22583C6.37695 6.21875 6.56445 6.24731 6.67188 6.31909C6.79199 6.40015 7.06738 6.4353 7.31055 6.42017C7.47461 6.40991 7.62305 6.37671 7.69824 6.31909C7.73828 6.28711 7.80078 6.25952 7.86523 6.24146C7.91699 6.22705 7.96973 6.21875 8.01465 6.21875C8.11523 6.21875 8.25879 6.26172 8.33105 6.31909C8.38184 6.35767 8.46484 6.38525 8.56348 6.40259C8.63281 6.41479 8.70996 6.42163 8.78809 6.42334C9.01172 6.42847 9.24902 6.39258 9.35742 6.31909C9.38672 6.29932 9.42285 6.28296 9.46484 6.26953C9.52246 6.25122 9.59082 6.23877 9.67188 6.23193C9.74805 6.22534 9.83398 6.22339 9.93164 6.22583L10.3486 6.24731L10.3701 6.01831C10.4062 5.68896 10.1543 5.5459 9.65234 5.58179C9.44336 5.60327 9.1709 5.6604 9.04199 5.71045C8.84766 5.79639 8.7832 5.79639 8.53125 5.68188C8.39453 5.61987 8.23535 5.5874 8.06641 5.58398C7.98438 5.58228 7.90039 5.5874 7.81543 5.59937C7.67188 5.61963 7.52734 5.65918 7.38965 5.71777C7.2959 5.75415 7.23242 5.77368 7.16895 5.77344C7.09473 5.77319 7.02051 5.74658 6.90137 5.68896C6.85156 5.66455 6.7959 5.64404 6.73633 5.6272C6.62988 5.59692 6.51172 5.57886 6.39551 5.57251C6.29102 5.56689 6.1875 5.5708 6.09375 5.58423C5.97461 5.60156 5.87109 5.63428 5.80273 5.68188ZM5.65918 7.16357C5.64453 6.99902 5.68066 6.91309 5.80273 6.82715C5.82422 6.8125 5.84863 6.79932 5.87598 6.7876C5.90234 6.77588 5.93164 6.76562 5.96289 6.75684C6.10352 6.71753 6.28613 6.70605 6.46582 6.72314C6.62402 6.73804 6.7793 6.77515 6.90137 6.83447C7.12402 6.94165 7.18848 6.94165 7.38965 6.86304C7.63379 6.75928 7.89746 6.71533 8.13867 6.73242C8.28027 6.74268 8.41406 6.77417 8.53125 6.82715C8.7832 6.94165 8.84766 6.94165 9.04199 6.85571C9.1709 6.80566 9.44336 6.74854 9.65234 6.72705C10.1543 6.69116 10.4062 6.83447 10.3701 7.16357L10.3486 7.39258L9.93164 7.37109C9.65234 7.36401 9.46484 7.39258 9.35742 7.46436C9.15625 7.60034 8.51758 7.60742 8.33105 7.46436C8.25879 7.40698 8.11523 7.36401 8.01465 7.36401C7.95117 7.36401 7.87012 7.38135 7.80078 7.40869C7.76074 7.42432 7.72461 7.44336 7.69824 7.46436C7.60742 7.53394 7.40918 7.56812 7.20605 7.56909C6.99316 7.57007 6.77539 7.53418 6.67188 7.46436C6.56445 7.39258 6.37695 7.36401 6.09766 7.37109L5.68066 7.39258L5.65918 7.16357ZM5.80273 7.97241C5.68066 8.05835 5.64453 8.14429 5.65918 8.30884L5.68066 8.53784L6.09766 8.5166C6.37695 8.50928 6.56445 8.53784 6.67188 8.60962C6.87305 8.74561 7.51172 8.75269 7.69824 8.60962C7.71973 8.59253 7.74805 8.57666 7.7793 8.56274C7.85254 8.53027 7.94434 8.50928 8.01465 8.50928C8.11523 8.50928 8.25879 8.55225 8.33105 8.60962C8.51758 8.75269 9.15625 8.74561 9.35742 8.60962C9.38184 8.59351 9.41016 8.57959 9.44238 8.56763C9.50684 8.54395 9.58887 8.52856 9.68848 8.521C9.75977 8.51562 9.84082 8.51416 9.93164 8.5166L10.3486 8.53784L10.3701 8.30884C10.4062 7.97974 10.1543 7.83643 9.65234 7.87231C9.44336 7.8938 9.1709 7.95093 9.04199 8.00122C8.84766 8.08691 8.7832 8.08691 8.53125 7.97241C8.41504 7.91992 8.2832 7.88867 8.14355 7.87817C8.05957 7.87183 7.97168 7.87305 7.88379 7.88184C7.71875 7.89819 7.5498 7.94043 7.38965 8.0083C7.18848 8.08691 7.12402 8.08691 6.90137 7.97974C6.57812 7.82227 6.01855 7.82227 5.80273 7.97241ZM6.98828 9.17505C7.22461 9.20361 7.39062 9.18213 7.5127 9.1106C7.74902 8.97461 8.25879 8.97461 8.52441 9.11768C8.67578 9.19653 8.83398 9.21069 9.06348 9.17505C9.58008 9.09619 9.78906 9.41846 9.4082 9.71191C9.17871 9.89087 8.5459 9.91943 8.33105 9.75488C8.1582 9.62598 7.87109 9.62598 7.69922 9.75488C7.4834 9.91943 6.85156 9.89087 6.62207 9.71191C6.24121 9.41113 6.44238 9.1106 6.98828 9.17505Z"></path></svg>