<svg xmlns="http://www.w3.org/2000/svg" viewBox="0 0 21 24" height="24" width="21"><title>restaurant.svg</title><rect fill="none" x="0" y="0" width="21" height="24"></rect><path fill="#d97200" transform="translate(2 2)" d="M16.1289 8.06445C16.1289 11.4402 14.0547 14.3313 11.1123 15.5334L8.76562 19.5967C8.45508 20.1345 7.67969 20.1345 7.36914 19.5967L5.02539 15.5366C2.07812 14.3364 0 11.4431 0 8.06445C0 3.6106 3.61035 0 8.06445 0C12.5186 0 16.1289 3.6106 16.1289 8.06445ZM9.6582 6.4668C9.83594 6.46729 10.0117 6.43286 10.1758 6.36572C10.3408 6.29883 10.4893 6.2002 10.6152 6.07593L11.917 4.79297C12.0205 4.69141 12.0293 4.52637 11.9316 4.41968C11.9199 4.40649 11.9062 4.39453 11.8916 4.38403C11.877 4.37329 11.8604 4.36401 11.8438 4.35645C11.8252 4.3479 11.8057 4.3418 11.7852 4.33765L11.7373 4.33228L11.6914 4.33521C11.6709 4.33813 11.6504 4.34351 11.6309 4.35132C11.5967 4.36475 11.5654 4.38477 11.54 4.4104L10.3789 5.55371C10.3398 5.59204 10.2871 5.61377 10.2324 5.61377C10.2178 5.61377 10.2031 5.6123 10.1885 5.60938C10.1494 5.60107 10.1133 5.58179 10.085 5.55371C10.0039 5.47412 10.0088 5.33936 10.0898 5.25977L11.2451 4.12061C11.2705 4.09497 11.291 4.06445 11.3047 4.03101L11.3125 4.0083C11.3213 3.98145 11.3252 3.95361 11.3242 3.92554C11.3232 3.8894 11.3154 3.85376 11.2998 3.82104C11.2842 3.78809 11.2627 3.75854 11.2354 3.73438C11.1865 3.69067 11.123 3.6665 11.0566 3.66699C10.9814 3.66699 10.9102 3.69629 10.8574 3.74854L9.70215 4.88647C9.66309 4.92505 9.61035 4.94653 9.55566 4.94653C9.53906 4.94653 9.52246 4.94458 9.50684 4.94092C9.46973 4.93237 9.43555 4.91357 9.4082 4.88647C9.32812 4.80688 9.33203 4.67212 9.41309 4.59253L10.5684 3.45361C10.5947 3.42822 10.6143 3.39771 10.6279 3.36401C10.6416 3.33057 10.6484 3.29468 10.6475 3.25854C10.6465 3.23926 10.6445 3.22021 10.6396 3.20166C10.6357 3.1853 10.6299 3.16943 10.623 3.15405C10.6084 3.12134 10.5859 3.0918 10.5586 3.06763C10.5098 3.02368 10.4463 2.99976 10.3799 3C10.3047 3 10.2334 3.02954 10.1807 3.08179L8.87891 4.3645C8.82617 4.41675 8.77734 4.47314 8.7334 4.53271C8.67383 4.61475 8.62402 4.70337 8.58496 4.79712C8.54883 4.88208 8.52246 4.97046 8.50586 5.0603C8.49023 5.14185 8.48242 5.22485 8.48242 5.30811V5.44531L8.48047 5.47974C8.47754 5.50293 8.4707 5.52588 8.46191 5.54736C8.4541 5.56543 8.44531 5.58252 8.43359 5.59839C8.4248 5.61108 8.41406 5.62305 8.40332 5.63403L7.80078 6.22803C7.79492 6.23413 7.78711 6.23901 7.7793 6.24243L7.76465 6.24658L7.75293 6.24756C7.74414 6.24756 7.73535 6.24585 7.72754 6.24243C7.71875 6.23901 7.71191 6.23413 7.70508 6.22803L4.77441 3.33887C4.72461 3.28906 4.65527 3.26099 4.58398 3.26074C4.5127 3.2605 4.44434 3.28833 4.39258 3.33789C4.13672 3.58813 4 3.94141 4 4.35938C3.99805 5.04956 4.36621 5.84326 4.95996 6.42798L6.10742 7.55933L4.98242 8.96851C4.72656 9.29077 4.63477 9.76465 4.76172 10.229C4.76855 10.2551 4.77734 10.2808 4.78711 10.3057C4.95703 10.7449 5.28809 11 5.64941 11C5.77441 11.0002 5.89746 10.9697 6.0127 10.9097C6.12793 10.8496 6.23145 10.7615 6.31934 10.6504L7.97559 8.55811V8.65063C7.97559 8.8606 8.05957 9.06226 8.20898 9.21143L9.73145 10.738C9.90234 10.9065 10.1318 11 10.3701 11C10.6094 11 10.8389 10.9062 11.0078 10.7397C11.1768 10.573 11.2715 10.3472 11.2715 10.1116C11.2715 9.87598 11.1768 9.6499 11.0078 9.4834L8.72461 7.23291L8.70996 7.21118C8.70703 7.20312 8.70508 7.19458 8.70508 7.18579C8.70508 7.177 8.70703 7.16821 8.70996 7.16016L8.72461 7.13867L9.32715 6.54492C9.35254 6.52002 9.38184 6.50049 9.41504 6.48706C9.43359 6.47949 9.45312 6.47388 9.47266 6.47046L9.51855 6.4668H9.6582Z"></path></svg>