<svg xmlns="http://www.w3.org/2000/svg" viewBox="0 0 20 23" height="23" width="20"><title>saddle.svg</title><rect fill="none" x="0" y="0" width="20" height="23"></rect><path fill="#5e758d" transform="translate(1 1)" d="M11.1123 15.5334C14.0547 14.3313 16.1289 11.4402 16.1289 8.06445C16.1289 3.6106 12.5186 0 8.06445 0C3.61035 0 0 3.6106 0 8.06445C0 11.4431 2.07812 14.3364 5.02539 15.5366L7.36914 19.5967C7.67969 20.1345 8.45508 20.1345 8.76562 19.5967L11.1123 15.5334ZM11.5049 3.00171L11.5322 3C11.5586 3.00098 11.5791 3.00806 11.5938 3.01831C11.6055 3.02661 11.6152 3.03638 11.624 3.05542C11.6299 3.06738 11.6348 3.08276 11.6377 3.10352C11.709 3.55542 11.7549 3.85376 11.7539 4.10278C11.7539 4.23486 11.7412 4.35571 11.7119 4.48462C11.6904 4.57861 11.6602 4.677 11.6191 4.78711C11.5107 4.82959 11.4062 4.854 11.3066 4.86426L11.2656 4.75708C11.1836 4.55444 11.085 4.36792 10.9688 4.21729L10.9639 4.21118C11.0459 4.00488 11.1885 3.62305 11.2881 3.22437C11.3252 3.0769 11.4268 3.01221 11.5049 3.00171ZM4.02637 3.14941C4.0625 3.13403 4.12988 3.12134 4.20703 3.12109L4.24023 3.12183C4.41992 3.13013 4.61816 3.22852 4.64453 3.27051C4.89941 3.67188 5.19824 3.85205 5.52734 3.96558C5.63672 4.00342 5.75 4.03638 5.87012 4.07129C6.03711 4.11987 6.2168 4.17212 6.41602 4.24609C5.72949 4.73633 5.10645 4.69653 4.69043 4.55029C4.59863 4.51807 4.50391 4.44849 4.41504 4.35107C4.33398 4.26245 4.25879 4.15063 4.19629 4.02344C4.06543 3.75781 3.99121 3.43237 4.00098 3.15894L4.02637 3.14941ZM8.32324 4.19946L8.58008 4.19824C9.18359 4.19775 9.81348 4.21484 10.4746 4.25098C10.5312 4.26611 10.6143 4.32397 10.7002 4.43408L10.7168 4.45703C9.28516 4.58545 8.02246 4.55371 6.71582 4.45654C6.76855 4.41553 6.82031 4.3728 6.87109 4.32837L6.96777 4.24316C7.40723 4.21875 7.85742 4.20361 8.32324 4.19946ZM5.70117 4.94482C5.87207 4.9082 6.04883 4.84912 6.22852 4.76172C7.75879 4.89771 9.21484 4.95483 10.9053 4.79053C10.9209 4.82349 10.9355 4.85693 10.9482 4.89062C11.0713 5.19409 11.1484 5.54932 11.1641 5.82861L7.46191 6.11646C7.25 6.11792 7.04199 6.06494 6.8418 5.97192C6.5791 5.84912 6.33008 5.65698 6.10645 5.42944C5.95703 5.27783 5.82129 5.11206 5.70117 4.94482ZM4.15918 4.91089L4.62988 4.89819C4.82617 4.96094 5.05762 5 5.3125 4.99243C5.39941 5.12256 5.49512 5.25391 5.60059 5.38208C5.68359 5.48315 5.77148 5.58228 5.86523 5.67725C6.04297 5.8584 6.24121 6.02539 6.45605 6.15869C6.64551 6.72534 6.99609 7.07422 7.38086 7.14111L5.57422 7.30884L5.50684 6.66504C5.70312 6.58496 5.84961 6.41357 5.84961 6.19238C5.84961 5.88232 5.5625 5.66992 5.25391 5.66992C4.94434 5.66992 4.65723 5.88232 4.65723 6.19238C4.65723 6.47314 4.89355 6.67358 5.16699 6.70898L5.2334 7.34033L5.03223 7.35913C4.88184 7.34717 4.7207 7.22339 4.57227 6.99585C4.4209 6.7644 4.29395 6.44214 4.21094 6.11719C4.12793 5.79224 4.08789 5.4624 4.09668 5.22314C4.10059 5.10352 4.11816 5.00659 4.13867 4.95239C4.14844 4.92676 4.15527 4.91626 4.15918 4.91089ZM11.4121 5.20264C11.5166 5.18726 11.6191 5.16113 11.7178 5.12451C11.8271 5.28735 11.9141 5.46631 11.96 5.64893C12.0049 5.82788 12.0156 6.0083 11.9727 6.18872C11.9277 6.37451 11.8271 6.5603 11.6484 6.74487L11.0234 6.80298C10.9912 6.60034 10.9531 6.39917 10.9082 6.19922L11.5049 6.15283L11.5117 5.9978C11.5225 5.7583 11.4844 5.47949 11.4121 5.20264ZM5 6.19238C5 6.11841 5.09277 6.01978 5.25391 6.01978C5.41406 6.01978 5.50781 6.11841 5.50781 6.19214C5.50781 6.26587 5.41406 6.36475 5.25391 6.36475C5.09277 6.36475 5 6.26587 5 6.19238ZM8.74805 6.36719L10.5596 6.22632C10.793 7.23193 10.8291 8.21021 10.834 9.18018C10.835 9.35571 10.79 9.45361 10.7129 9.53052C10.6602 9.58276 10.5859 9.62598 10.4912 9.65869C10.4463 9.67407 10.3965 9.68701 10.3418 9.69751C10.043 9.75513 9.62305 9.72754 9.19336 9.67944C9.33887 8.60474 9.25 7.49878 8.74805 6.36719ZM7.10352 6.60205C7.04492 6.54321 6.9873 6.47046 6.93457 6.3833C7.10449 6.43799 7.2832 6.46802 7.47363 6.46606L7.92285 6.4314C7.87793 6.55957 7.81641 6.64941 7.75195 6.70728C7.66016 6.78857 7.56055 6.81592 7.44531 6.79761C7.33984 6.78101 7.21875 6.71777 7.10352 6.60205ZM8.28711 6.40283L8.38379 6.39526C8.4834 6.60669 8.56738 6.81616 8.63672 7.02441L7.75195 7.10669C7.83496 7.07568 7.91016 7.02979 7.97656 6.97119C8.12402 6.84033 8.23047 6.64697 8.28711 6.40283ZM5.27441 7.68774L5.61523 7.65625C5.66797 8.35864 5.68164 9.06812 5.64746 9.78613C5.62207 10.3225 5.57031 10.8635 5.48926 11.4097L5.15039 11.3569C5.33691 10.1099 5.36523 8.8894 5.27441 7.68774ZM10.5859 9.99023L10.7832 9.91309L10.8994 10.6626C10.9463 10.7043 11.0557 10.8064 11.1631 10.9375C11.3027 11.1101 11.4678 11.3347 11.418 11.6094C11.3955 11.7373 11.3125 11.7747 11.249 11.8066C11.1855 11.8386 11.1152 11.8611 11.0352 11.8818C10.958 11.9016 10.873 11.9187 10.7832 11.9336C10.6846 11.9497 10.5811 11.9631 10.4766 11.9736C10.376 11.9839 10.2754 11.9912 10.1797 11.9956C10.0859 11.9998 9.99707 12.001 9.91895 11.999C9.83887 11.9968 9.76953 11.9919 9.70801 11.9802C9.67676 11.9744 9.64746 11.9675 9.61426 11.9529C9.58105 11.9382 9.53223 11.9177 9.49902 11.8413C9.41211 11.6406 9.37988 11.4731 9.4043 11.312C9.42676 11.1624 9.48633 11.0347 9.55957 10.8699L9.40234 10.2834L9.33789 10.0427L9.58105 10.063C9.88965 10.0886 10.29 10.1062 10.5859 9.99023ZM10.543 10.5974L10.5088 10.3777C10.2646 10.4363 10.0156 10.4402 9.7959 10.4287L9.86523 10.6858L10.543 10.5974ZM10.7891 11.0374L10.709 10.959L9.84961 11.0657C9.79395 11.196 9.75293 11.2954 9.74219 11.3652C9.73145 11.4397 9.74023 11.5122 9.78809 11.6379C9.82031 11.6428 9.86621 11.6477 9.92773 11.6494C9.99121 11.6511 10.0654 11.6501 10.1455 11.647C10.2402 11.6431 10.3418 11.6357 10.4434 11.6255C10.6309 11.6067 10.8184 11.5769 10.9512 11.5427C11.0078 11.5281 11.0479 11.5127 11.0762 11.5C11.0625 11.4182 10.9961 11.2803 10.8994 11.1611C10.8643 11.1182 10.8271 11.0769 10.7891 11.0374Z"></path></svg>