<svg xmlns="http://www.w3.org/2000/svg" viewBox="0 0 21 24" height="24" width="21"><title>school.svg</title><rect fill="none" x="0" y="0" width="21" height="24"></rect><path fill="#875c1b" transform="translate(2 2)" d="M11.1123 15.5334C14.0547 14.3313 16.1289 11.4402 16.1289 8.06445C16.1289 3.6106 12.5186 0 8.06445 0C3.61035 0 0 3.6106 0 8.06445C0 11.4431 2.07812 14.3364 5.02539 15.5366L7.36914 19.5967C7.67969 20.1345 8.45508 20.1345 8.76562 19.5967L11.1123 15.5334ZM4 5.61548L8 4L12 5.61548L8 7.23071L5.59961 6.26147V6.81543C5.91992 6.90771 6.13379 7.13843 6.13379 7.46143C6.13379 7.78467 5.91992 8.01538 5.59961 8.15381L6.08008 9.12305C6.24023 9.53857 6.13379 10 5.33301 10C4.5332 10 4.42676 9.53857 4.58691 9.12305L5.06641 8.15381V8.10767C4.74707 8.01538 4.5332 7.73853 4.5332 7.46143C4.5332 7.18457 4.74707 6.90771 5.06641 6.81543V6.03076L4 5.61548ZM7.94629 7.9231L10.3467 7V8.38452C10.3467 8.84619 9.70703 9.76929 7.94629 9.76929C7.41309 9.76929 6.98633 9.677 6.61328 9.53857C6.64258 9.43896 6.63965 9.3396 6.62305 9.24023C6.6084 9.15503 6.58398 9.06982 6.55957 8.98462V8.93848L6.24023 8.29224C6.50684 8.06152 6.66699 7.78467 6.66699 7.46143V7.41528L7.94629 7.9231Z"></path></svg>