<svg xmlns="http://www.w3.org/2000/svg" viewBox="0 0 20 23" height="23" width="20"><title>second_hand.svg</title><rect fill="none" x="0" y="0" width="20" height="23"></rect><path fill="#5e758d" transform="translate(1 1)" d="M11.1123 15.5334C14.0547 14.3313 16.1289 11.4402 16.1289 8.06445C16.1289 3.6106 12.5186 0 8.06445 0C3.61035 0 0 3.6106 0 8.06445C0 11.4431 2.07812 14.3364 5.02539 15.5366L7.36914 19.5967C7.67969 20.1345 8.45508 20.1345 8.76562 19.5967L11.1123 15.5334ZM7.5957 3.19312C7.63574 3.13208 7.69238 3.08154 7.76074 3.04712C7.86719 2.99243 8.0332 2.9856 8.1377 3.02954C8.16602 3.04102 8.19434 3.05859 8.22266 3.08057L8.25488 3.10889L8.28125 3.13428L8.31641 3.17725C8.33105 3.19727 8.34473 3.21777 8.35547 3.23853C8.4082 3.33691 8.4082 3.52686 8.35547 3.62695C8.33594 3.66528 8.30566 3.70361 8.27148 3.73706C8.23242 3.77563 8.1875 3.80762 8.14453 3.82568C8.08887 3.84863 8.08887 3.85034 8.08887 3.97681V4.10522L8.17285 4.17554L8.40918 4.36255L8.64746 4.5481C9.26855 5.02979 9.46484 5.19849 9.51465 5.29517C9.5498 5.36011 9.54785 5.51294 9.51465 5.57812C9.50293 5.60034 9.48633 5.62378 9.46582 5.64648L9.44434 5.6687L9.41699 5.69556C9.39648 5.71313 9.375 5.72949 9.35254 5.74365C9.33301 5.75635 9.3125 5.76758 9.29297 5.77661C9.26172 5.79102 9.2373 5.7998 9.13574 5.80518C8.99121 5.81299 8.68652 5.81372 7.97363 5.81372C7.07031 5.81372 6.7168 5.80835 6.67285 5.79248C6.4668 5.72217 6.34766 5.53418 6.39551 5.35303C6.42871 5.22998 6.6084 5.06836 7.33789 4.50415L7.71875 4.20874L7.82715 4.12085V3.92236C7.82715 3.81348 7.83594 3.70435 7.8457 3.68164C7.86816 3.63232 7.92969 3.59888 7.99414 3.59888C8.00879 3.59888 8.03027 3.59155 8.04883 3.58032C8.06055 3.57349 8.07129 3.56543 8.08008 3.55664C8.16504 3.4707 8.15527 3.35449 8.05371 3.28613C7.98242 3.23682 7.95117 3.23682 7.87695 3.28784C7.83203 3.31763 7.8125 3.34766 7.79688 3.41431C7.76172 3.55859 7.65918 3.60767 7.57324 3.51978C7.54199 3.48999 7.53027 3.45825 7.53027 3.41089C7.53125 3.33179 7.55469 3.25684 7.5957 3.19312ZM8.63867 4.88208L8.20703 4.54468L8.03027 4.40552C7.99023 4.37451 7.96484 4.35571 7.96289 4.35645C7.95801 4.35645 7.47949 4.73267 7.05469 5.06836C6.83008 5.24585 6.6709 5.38477 6.65137 5.41992C6.64746 5.42725 6.64746 5.43579 6.65137 5.44604C6.65625 5.45996 6.66895 5.47705 6.69043 5.49731L6.74121 5.55005H7.94922C9.24609 5.55005 9.22852 5.55176 9.27637 5.46045C9.29297 5.43042 9.28613 5.4165 9.23047 5.36377C9.15234 5.28809 8.89746 5.08057 8.63867 4.88208ZM4.46289 5.71338L4.04004 6.66602L6.02148 6.67139L7.84277 6.67261L9.98145 6.67139L11.9629 6.66602L11.541 5.71338L11.1182 4.75903H10.1279C9.58203 4.75903 9.13672 4.76245 9.13672 4.76782L9.18066 4.80981L9.29004 4.90308C9.40137 4.99634 9.47656 5.06421 9.5293 5.12085L9.57324 5.17114C9.59668 5.20044 9.61328 5.22754 9.62695 5.25464C9.74219 5.47974 9.60938 5.76782 9.33008 5.89966L9.23242 5.94556H7.9668H6.70117L6.59277 5.89453C6.57031 5.88428 6.54785 5.87183 6.52539 5.85742L6.48438 5.82788C6.44629 5.79932 6.41016 5.76636 6.37891 5.73193L6.35938 5.70947L6.33008 5.66919C6.31641 5.64795 6.30469 5.62671 6.2959 5.6062C6.25391 5.50952 6.25879 5.34619 6.30469 5.25635C6.33203 5.2019 6.3623 5.15747 6.41211 5.10547C6.45898 5.05664 6.52148 5.00098 6.61328 4.92432L6.67969 4.86865L6.75586 4.79883C6.77051 4.78467 6.7793 4.77539 6.7793 4.77295C6.7793 4.76611 6.35352 4.75903 5.83301 4.75903H4.88477L4.46289 5.71338ZM4.05957 7.33765L4.03906 7.30396C4.0293 7.28467 4.02344 7.26562 4.01855 7.2373C4.01172 7.19678 4.00977 7.13745 4.00684 7.03174L4 6.79785H4.35254H4.70508L4.69824 7.03174C4.69336 7.25146 4.68945 7.27075 4.64648 7.33765C4.59082 7.42285 4.49609 7.4707 4.39648 7.48169C4.3291 7.48901 4.25977 7.47925 4.19824 7.45264L4.1582 7.43237L4.11523 7.40112L4.08789 7.37476C4.07715 7.36328 4.06836 7.35083 4.05957 7.33765ZM4.82422 7.01758C4.82422 7.24438 4.83789 7.30249 4.91016 7.38501C4.99512 7.4834 5.20117 7.51514 5.33008 7.44824C5.34668 7.44019 5.36523 7.427 5.38281 7.41138C5.4082 7.3894 5.43164 7.36304 5.44727 7.33936C5.49316 7.27075 5.49609 7.25317 5.50195 7.03174L5.50879 6.79785H5.16602H4.82422V7.01758ZM5.68359 7.33765C5.63965 7.27075 5.63672 7.25146 5.63086 7.03174L5.62402 6.7981H5.97656H6.3291L6.32227 7.02124C6.31934 7.13696 6.31445 7.20532 6.30371 7.25317L6.2998 7.26855L6.29297 7.28931L6.28418 7.31299C6.17969 7.5293 5.81738 7.54321 5.68359 7.33765ZM6.43359 7.02124C6.44043 7.28296 6.46484 7.35522 6.5752 7.42725C6.6709 7.49048 6.84766 7.50269 6.94727 7.4519C7.03418 7.40747 7.08203 7.36035 7.10645 7.27124C7.12305 7.20898 7.12891 7.12598 7.12891 7.00879V6.79785H6.77734H6.42676L6.43359 7.02124ZM7.25391 7.15869L7.25098 7.021V6.79785H7.5918H7.93164V7.02637C7.93164 7.28296 7.92188 7.31982 7.82031 7.40942C7.70996 7.5061 7.49219 7.51147 7.37695 7.41821C7.29102 7.34888 7.2627 7.30151 7.25391 7.15869ZM8.05762 7.02124C8.06445 7.2832 8.08887 7.35522 8.19727 7.42725C8.31934 7.50806 8.52539 7.49927 8.64062 7.40967C8.72656 7.34106 8.75293 7.25317 8.75293 7.01245V6.7981H8.40137H8.05078L8.05762 7.02124ZM8.93359 7.34985C8.88477 7.28662 8.88379 7.27783 8.87793 7.04053L8.87109 6.7981H9.21289H9.55566V7.03003C9.55566 7.16284 9.55469 7.22144 9.54395 7.26367L9.5293 7.30444L9.51172 7.33594C9.40039 7.52759 9.07324 7.53638 8.93359 7.34985ZM9.67773 6.98608C9.67773 7.07227 9.68164 7.14282 9.69043 7.20093C9.71191 7.33716 9.7627 7.40576 9.85938 7.44995C9.95215 7.49219 10.1016 7.49219 10.1924 7.44995C10.3379 7.3833 10.374 7.29541 10.376 7.00366V6.79785H10.0273H9.67773V6.98608ZM10.5547 7.36401C10.5098 7.3042 10.5078 7.2937 10.502 7.04932L10.4971 6.79785H10.8379H11.1797V7.02295C11.1797 7.20752 11.1748 7.25684 11.1465 7.30762C11.04 7.51147 10.6924 7.54492 10.5547 7.36401ZM11.3467 7.32495C11.374 7.38135 11.416 7.41724 11.4795 7.44995C11.5078 7.46436 11.543 7.47388 11.582 7.47876L11.6299 7.48242L11.6826 7.48145C11.7314 7.47803 11.7793 7.46753 11.8164 7.44995L11.8584 7.42773C11.9238 7.3894 11.96 7.33984 11.9795 7.2522C11.9932 7.19092 11.999 7.11108 12 7.00366V6.79785H11.6514H11.3018V7.00366C11.3027 7.09961 11.3066 7.1731 11.3174 7.23145C11.3242 7.26831 11.334 7.29883 11.3467 7.32495ZM5.2832 7.58887C5.38086 7.55908 5.42285 7.53442 5.47852 7.47461C5.51758 7.43433 5.55566 7.39917 5.5625 7.39722C5.57129 7.39722 5.59766 7.42017 5.62207 7.44824C5.63672 7.46631 5.66309 7.49023 5.69141 7.51196C5.70996 7.52637 5.72949 7.53979 5.74805 7.55029C5.81738 7.59058 5.84766 7.59766 5.96777 7.59766C6.13184 7.59766 6.20898 7.56616 6.31152 7.45874L6.37988 7.39038L6.4502 7.4624C6.5459 7.55908 6.62598 7.59424 6.76758 7.60303C6.81738 7.60645 6.84961 7.60645 6.87988 7.60083L6.92188 7.58887L6.97852 7.56421C7.03125 7.53784 7.09961 7.48877 7.12891 7.45532L7.18262 7.39209L7.26172 7.46582C7.37012 7.56616 7.46387 7.60645 7.5918 7.60645C7.7207 7.60645 7.82715 7.56079 7.92676 7.4624L8 7.39038L8.06641 7.45874C8.25195 7.65039 8.54883 7.65576 8.72949 7.47119L8.80859 7.3938L8.88574 7.46582C8.93652 7.51318 8.98438 7.54736 9.03418 7.57007C9.08984 7.59521 9.14746 7.60645 9.21484 7.60645C9.34473 7.60645 9.45117 7.56079 9.55078 7.4624L9.62402 7.39038L9.69043 7.45874C9.875 7.65039 10.1631 7.65576 10.3516 7.4729L10.4326 7.3938L10.5078 7.46411C10.5723 7.52368 10.623 7.55884 10.6836 7.57935L10.7207 7.59009L10.7383 7.59351L10.7803 7.59937L10.8213 7.60303C10.9355 7.61011 10.9521 7.60645 11.0625 7.54858L11.1797 7.48511V9.44507V11.4031H10.708H10.2363V11.1782C10.2363 11.0269 10.2295 10.946 10.2158 10.9321C10.2021 10.918 10.1055 10.9109 9.90137 10.9109H9.6084V9.79663C9.6084 8.80518 9.60449 8.67871 9.58008 8.65405C9.55566 8.62939 9.3877 8.62598 8.00195 8.62598L7.36523 8.62646C6.95996 8.6272 6.72949 8.62915 6.59766 8.6333C6.46777 8.63745 6.43359 8.64404 6.42383 8.65405C6.39941 8.67871 6.39551 8.80518 6.39551 9.79663V10.9109H6.10254C5.89844 10.9109 5.80176 10.918 5.78809 10.9321C5.77441 10.946 5.7666 11.0269 5.7666 11.1782V11.4031H5.2959H4.82422V9.44336V7.4834L4.91699 7.53442C5.07227 7.62231 5.14062 7.63281 5.2832 7.58887ZM6.51758 9.83008V10.9109H7.22461H7.93164V9.83008V8.74902H7.22461H6.51758V9.83008ZM8.05371 10.9109V9.83008V8.74902H8.76953H9.48535V9.83008V10.9109H8.76953H8.05371ZM5.88867 11.2185V11.4031H8.00098H10.1143V11.2185V11.0339H8.00098H5.88867V11.2185ZM4.33496 12.0007V11.7634V11.5261H8.00195H11.668V11.7634V12.0007H8.00195H4.33496Z"></path></svg>