<svg xmlns="http://www.w3.org/2000/svg" viewBox="0 0 20 23" height="23" width="20"><title>shelter.svg</title><rect fill="none" x="0" y="0" width="20" height="23"></rect><path fill="#5e758d" transform="translate(1 1)" d="M11.1123 15.5334C14.0547 14.3313 16.1289 11.4402 16.1289 8.06445C16.1289 3.6106 12.5186 0 8.06445 0C3.61035 0 0 3.6106 0 8.06445C0 11.4431 2.07812 14.3364 5.02539 15.5366L7.36914 19.5967C7.67969 20.1345 8.45508 20.1345 8.76562 19.5967L11.1123 15.5334ZM8.5166 3.17383C8.41309 3.12305 8.39941 3.10938 8.39941 3.05859C8.39941 3.02539 8.40723 3 8.41797 3C8.42773 3 8.49219 3.03125 8.56152 3.07227C8.73828 3.17188 8.9209 3.39258 8.96973 3.55859C9.01367 3.71484 9.17871 3.91797 9.3125 3.98438L9.40332 4.03125L9.72168 3.9707L10.042 3.91016L10.0547 3.8457C10.0645 3.79297 10.0752 3.7832 10.1113 3.78906C10.1338 3.79492 10.4648 3.8125 10.8438 3.83203C11.2227 3.84961 11.5391 3.87109 11.5498 3.87891C11.5576 3.88477 11.458 4.29883 11.3311 4.79883L11.0957 5.70508L11.0361 6.49609L10.9756 7.28711L10.6426 8.44922L10.3105 9.61133L10.2998 10.0996L10.2881 10.5879L10.4053 11.1426L10.5215 11.6992L10.5537 11.5527C10.5625 11.5142 10.5771 11.4619 10.5938 11.4082L10.6191 11.3308L10.6338 11.2869L10.6514 11.2461C10.7021 11.1172 10.7236 11.0859 10.7568 11.0859H10.7656C10.7812 11.0854 10.79 11.0852 10.7881 11.104C10.7852 11.1274 10.7666 11.1804 10.7227 11.2996L10.7041 11.3516C10.6631 11.459 10.625 11.5898 10.6182 11.6445L10.6064 11.7402L10.6729 11.6328C10.6973 11.592 10.7266 11.5488 10.7578 11.5056L10.8262 11.4172L10.8945 11.3364L10.957 11.2693L10.9902 11.2383C11.0254 11.2068 11.0703 11.1709 11.1162 11.1372C11.2109 11.0688 11.3086 11.0103 11.3223 11.0195C11.3496 11.0344 11.3467 11.0601 11.3145 11.0913L11.2998 11.1038L11.2559 11.1348C11.208 11.1653 11.1582 11.2026 11.1094 11.2446C11.0244 11.3179 10.9404 11.4055 10.8672 11.4978C10.8027 11.5791 10.7461 11.6641 10.7041 11.7461L10.6494 11.8496L10.7568 11.7676C10.8623 11.6875 11.1602 11.5352 11.2129 11.5352C11.2275 11.5352 11.2393 11.5508 11.2393 11.5703C11.2393 11.5767 11.2363 11.5833 11.2305 11.5901C11.2246 11.5972 11.2148 11.6047 11.2021 11.6128C11.1797 11.6265 11.1484 11.6421 11.1055 11.6602C11.0322 11.6914 10.917 11.7559 10.8496 11.8027L10.7256 11.8906L10.834 11.9805C10.9209 12.0549 11.0059 12.0989 11.1816 12.1484L11.2734 12.1729L11.4336 12.2109C11.6631 12.2617 11.6836 12.2715 11.8379 12.3828L12 12.502L10.2676 12.5078C9.31445 12.5098 8.53125 12.5078 8.52539 12.5039C8.52148 12.498 8.54492 12.4473 8.57812 12.3906C8.63867 12.2891 8.64453 12.2852 8.78223 12.252C8.93066 12.2148 9.05664 12.1406 9.11328 12.0586C9.13184 12.0322 9.16309 11.9683 9.2002 11.8845C9.25 11.7703 9.31055 11.6196 9.36328 11.4766C9.42383 11.3074 9.46094 11.1621 9.47559 11.0381C9.49219 10.8901 9.47559 10.7722 9.42578 10.6797C9.40234 10.6372 9.38574 10.6138 9.34668 10.5903C9.31738 10.5728 9.27441 10.5552 9.20703 10.5293L9.12891 10.4973C9.0918 10.481 9.06836 10.4678 9.06836 10.4629C9.07031 10.457 9.11133 10.4258 9.16211 10.3945C9.42773 10.2324 9.53711 9.87109 9.40332 9.58594C9.34473 9.46094 9.17871 9.28711 9.09082 9.25977C9.08008 9.25635 9.07129 9.25122 9.06445 9.24561L9.05664 9.23633C9.05469 9.23218 9.05371 9.22827 9.05469 9.22461C9.05859 9.21094 9.08496 9.10352 9.10938 8.98633C9.14355 8.83008 9.21094 8.63867 9.35645 8.28906C9.39551 8.19482 9.43848 8.08643 9.48145 7.97217C9.56934 7.74023 9.65918 7.48413 9.72559 7.27344L9.89648 6.74023L9.91895 5.91016L9.93945 5.0957L9.94141 4.96094V4.83984L9.87598 4.83008C9.82129 4.82227 9.78516 4.83398 9.68359 4.90039L9.55566 4.98242V6.08008C9.55566 6.48877 9.55566 6.74561 9.55371 6.90698L9.55078 7.04004L9.54395 7.13013C9.53809 7.17798 9.5293 7.17969 9.51465 7.17969C9.50977 7.17969 9.50488 7.17944 9.50098 7.177C9.49121 7.17139 9.48535 7.15234 9.48145 7.09058C9.47461 6.97559 9.47461 6.71289 9.47461 6.11328L9.47363 5.55835L9.46875 5.22656C9.46484 5.09668 9.45898 5.052 9.4502 5.05469C9.44336 5.05713 9.43848 5.07617 9.43359 5.11914C9.42969 5.15576 9.42676 5.20947 9.42383 5.28516L9.41797 5.49219L9.41406 5.76562L9.40527 6.19019C9.39941 6.4397 9.3916 6.46851 9.36914 6.47266C9.35156 6.47559 9.3418 6.46631 9.33691 6.37158C9.33203 6.28125 9.33203 6.11328 9.33203 5.80469V5.13086L9.18652 5.22852C9.1123 5.27661 9.06055 5.30396 9.01074 5.31982L8.97266 5.32983L8.93652 5.33594L8.9248 5.3374C8.83691 5.34644 8.79395 5.35083 8.7627 5.37451C8.73145 5.39844 8.71191 5.44189 8.6709 5.5293C8.5957 5.68945 8.58398 5.70508 8.39746 5.85156L8.20215 6.00586L7.99609 6.02734C7.84375 6.04492 7.78027 6.04492 7.76465 6.0293C7.73438 6.00024 7.73633 6 7.93457 5.95264L7.94336 5.95117C8.09863 5.91406 8.14551 5.89258 8.29199 5.78906C8.45605 5.66992 8.45996 5.66602 8.50879 5.52344L8.55957 5.37891L8.43359 5.39062C8.36328 5.39844 8.18457 5.39062 8.01562 5.37305L7.70801 5.34375C7.69727 5.34375 7.68945 5.3125 7.68945 5.27344V5.20312L7.77637 5.21289L7.9043 5.22803L8.09473 5.24609C8.31641 5.26562 8.34473 5.26367 8.61621 5.21289L8.9043 5.1582L9.14941 4.96484C9.24121 4.8938 9.31738 4.82788 9.35449 4.79028L9.37402 4.7688C9.37891 4.76294 9.38086 4.75903 9.37891 4.75781C9.37109 4.75 9.16211 4.71094 8.91699 4.67188L8.4707 4.59961L7.79102 4.68945L7.4541 4.7356L7.30371 4.75806L7.21094 4.77368L7.08789 4.79736C7.01465 4.8125 6.95605 4.82788 6.89844 4.8457L6.68555 4.91211L6.49219 4.86914C6.39746 4.8479 6.34863 4.83521 6.32227 4.8208C6.30273 4.80981 6.29688 4.7981 6.29395 4.78125C6.29102 4.76538 6.29004 4.75537 6.30078 4.74951C6.30859 4.74512 6.32324 4.74341 6.34961 4.74341L6.49609 4.75C6.6709 4.75781 6.71777 4.75391 6.78027 4.72461L6.85547 4.68945L6.48633 4.49219L6.11719 4.29297L6.11133 4.83789C6.11035 5.01904 6.10938 5.14014 6.10645 5.22095L6.10352 5.28931C6.09766 5.37817 6.08789 5.38281 6.06641 5.38281C6.02832 5.38281 6.02637 5.36914 6.02637 4.80664C6.02637 4.43555 6.01758 4.23047 6.00586 4.23047C6.00293 4.23047 6.00098 4.23511 5.99902 4.24414L5.99023 4.32495C5.9873 4.38159 5.98535 4.46216 5.98535 4.5625V4.73486C5.98438 4.78052 5.9834 4.81323 5.98047 4.83667C5.97559 4.89062 5.96582 4.89453 5.94434 4.89453C5.90625 4.89453 5.9043 4.88086 5.9043 4.5332V4.17188L5.82324 4.13281L5.74023 4.0918L5.17773 4.14062C4.86914 4.16602 4.61621 4.1875 4.61426 4.18555C4.6123 4.18359 4.60547 4.13086 4.59766 4.06836C4.58594 3.96289 4.58789 3.95703 4.62988 3.95703L5.18359 3.90039L5.69141 3.8457L5.86328 3.89062L6.6084 4.08203L7.18262 4.23047L7.73145 4.22656L8.2832 4.2207L8.02246 4.04883L7.76074 3.87891L7.26367 3.7832L6.70996 3.67383L6.65039 3.6582L6.74609 3.59961L6.8418 3.54102L7.36035 3.5957L7.88184 3.65039L8.25293 3.91406L8.62695 4.17773L8.77051 4.15234L8.9082 4.12573L8.94141 4.11523C8.94531 4.11353 8.94531 4.10986 8.94141 4.10425L8.92383 4.08521L8.90332 4.06665L8.85938 4.03394L8.79688 3.99219L8.62891 3.88086L8.54297 3.67969C8.49512 3.56836 8.44629 3.46875 8.43359 3.45508C8.41992 3.44336 8.30957 3.39258 8.18652 3.3418L7.95703 3.24414C7.95117 3.23901 7.95312 3.22217 7.95898 3.20337C7.96777 3.17285 7.98828 3.13672 8.00195 3.13672C8.01367 3.13672 8.1377 3.17773 8.27539 3.22852L8.52734 3.32031L8.61621 3.50977C8.65723 3.59302 8.68262 3.64233 8.70703 3.67432C8.72852 3.70288 8.74902 3.71753 8.77637 3.73047L8.83008 3.75342L8.85352 3.76172C8.85742 3.76172 8.84766 3.69727 8.83105 3.61914C8.78711 3.41211 8.67285 3.25 8.5166 3.17383ZM6.9873 3.16016C7.00781 3.29688 7.10156 3.45312 7.18652 3.49805C7.21973 3.51538 7.24023 3.52417 7.25879 3.52515C7.27539 3.52588 7.29004 3.52002 7.3125 3.50781C7.46191 3.43164 7.36914 3.24805 7.11914 3.125C6.9834 3.05859 6.97168 3.0625 6.9873 3.16016ZM6.61816 3.5C6.53516 3.45703 6.34961 3.24414 6.34961 3.1875C6.34961 3.18506 6.35254 3.18311 6.35742 3.18188L6.38281 3.17944L6.42871 3.1814L6.47363 3.18579L6.53125 3.19434L6.5957 3.2063L6.64258 3.2168C6.68945 3.22852 6.74316 3.26221 6.78516 3.30005C6.82715 3.33716 6.85742 3.37817 6.85742 3.40625C6.85742 3.45312 6.8252 3.47852 6.80664 3.44922L6.79883 3.43994C6.78418 3.42798 6.75586 3.41211 6.72949 3.39844L6.70117 3.38525C6.67969 3.37549 6.6748 3.37451 6.68262 3.38281L6.70117 3.38525L6.70703 3.4043C6.73145 3.42383 6.76758 3.44922 6.78809 3.46094C6.88379 3.51562 6.72363 3.55273 6.61816 3.5ZM4.93848 3.39258C4.9541 3.48706 4.98926 3.57349 5.03418 3.63892C5.08691 3.71411 5.15234 3.76172 5.2168 3.76172C5.27344 3.76172 5.2959 3.73633 5.25488 3.71289C5.25 3.70972 5.23926 3.69897 5.22754 3.68433L5.19238 3.63867C5.15137 3.58008 5.15332 3.58008 5.22266 3.65039C5.30371 3.73047 5.33594 3.73047 5.33594 3.65039C5.33594 3.54297 5.20996 3.41797 5.02148 3.34375C4.97949 3.32617 4.94043 3.3125 4.93652 3.3125C4.93359 3.3125 4.93164 3.32349 4.93262 3.34033C4.93262 3.35449 4.93457 3.37305 4.93848 3.39258ZM5.92383 3.56836C5.92383 3.55469 6.0625 3.50781 6.17773 3.48242C6.29297 3.45508 6.47168 3.51758 6.47168 3.58203C6.47168 3.60938 6.45312 3.61523 6.36621 3.61133L6.25879 3.60742L6.36621 3.62891C6.48242 3.65234 6.49414 3.66602 6.42676 3.71094C6.33594 3.77344 6.14551 3.73438 5.9834 3.62305L5.94922 3.5979C5.93359 3.58472 5.92383 3.57324 5.92383 3.56836ZM4.30078 3.51562C4.30078 3.55078 4.44531 3.74219 4.50391 3.78516C4.57715 3.83594 4.66797 3.85742 4.72754 3.83594L4.77832 3.81641L4.72949 3.78516L4.70215 3.76562L4.6377 3.7168L4.61621 3.69824L4.60938 3.69067C4.61035 3.68921 4.61523 3.69092 4.62598 3.69556L4.66016 3.71094C4.69434 3.72852 4.73145 3.75 4.7373 3.76172C4.76172 3.79883 4.78809 3.78125 4.78809 3.72656C4.78809 3.70703 4.7832 3.68799 4.77344 3.66992C4.72949 3.58813 4.59277 3.52271 4.40918 3.50195L4.34375 3.49683C4.3125 3.49658 4.30078 3.50269 4.30078 3.51562ZM6.45898 3.85571C6.48926 3.84033 6.53223 3.82397 6.58301 3.80859C6.74805 3.75781 6.95898 3.79492 6.95898 3.87305C6.95898 3.8894 6.95508 3.89868 6.93652 3.90308C6.91699 3.90771 6.88281 3.90723 6.82227 3.9043C6.72168 3.90234 6.70117 3.9043 6.74609 3.91602L6.80176 3.92725L6.88379 3.93555C6.93457 3.9375 6.95898 3.94727 6.95898 3.9668C6.95898 4.00879 6.90527 4.03198 6.83008 4.03589C6.74512 4.04053 6.63184 4.02026 6.53711 3.97461L6.45996 3.93408C6.43066 3.91699 6.41113 3.90308 6.41113 3.89844C6.41113 3.88647 6.42871 3.87158 6.45898 3.85571ZM7.33203 3.93555C7.24902 3.97266 7.10059 4.08594 7.10059 4.11328C7.10059 4.1167 7.1084 4.12109 7.12207 4.12598L7.1875 4.14331L7.24121 4.1543C7.29785 4.16431 7.3584 4.17188 7.39844 4.17188C7.41992 4.17188 7.44531 4.16821 7.47168 4.16235L7.52148 4.14868L7.54199 4.14111C7.58398 4.12524 7.62012 4.10547 7.63184 4.08789L7.6416 4.06494L7.64746 4.04639L7.64844 4.03125C7.64844 4.01343 7.64355 4.00635 7.62793 4.00757L7.59375 4.01562C7.56152 4.02344 7.50391 4.03711 7.46582 4.04297C7.37695 4.05469 7.43555 4.02734 7.56348 3.99609L7.61621 3.98193C7.64844 3.97095 7.6416 3.96265 7.61621 3.93555C7.57129 3.88672 7.44336 3.88672 7.33203 3.93555ZM4.00098 4.35742C3.99805 4.35449 4 4.34839 4.00586 4.34009C4.01367 4.32861 4.0293 4.31274 4.04883 4.29492C4.10254 4.24609 4.18848 4.18237 4.25098 4.15234C4.34863 4.10547 4.46973 4.10156 4.5127 4.14453C4.53125 4.16016 4.54492 4.17773 4.54492 4.18164L4.53711 4.18628L4.49805 4.20044L4.43164 4.2207C4.28906 4.25977 4.29785 4.2793 4.44141 4.24219L4.54688 4.2168L4.54102 4.26758C4.53125 4.35547 4.42773 4.39062 4.2041 4.38086L4.10449 4.37451L4.04102 4.36719C4.01855 4.36377 4.00391 4.36035 4.00098 4.35742ZM5.44531 4.22852C5.40234 4.25366 5.34766 4.31079 5.30273 4.37109C5.27539 4.40771 5.25098 4.44556 5.23438 4.47803L5.2168 4.52222L5.21387 4.54297C5.21387 4.56055 5.23926 4.56543 5.29004 4.55859L5.33691 4.55029L5.42285 4.5293C5.5752 4.48828 5.68066 4.39844 5.68066 4.31055C5.68066 4.28662 5.67969 4.27051 5.67578 4.26147C5.67383 4.25732 5.6709 4.25488 5.66797 4.25366H5.65918L5.64551 4.25977L5.61133 4.28711L5.58301 4.30859C5.55957 4.32544 5.53125 4.34424 5.50781 4.35742L5.46973 4.37793C5.45996 4.38159 5.47461 4.36938 5.5166 4.33594L5.61621 4.25781C5.63184 4.24609 5.63965 4.22656 5.63184 4.21484L5.62012 4.20386L5.60645 4.19751C5.59473 4.1936 5.58008 4.19189 5.56348 4.19263C5.52734 4.19409 5.4834 4.20654 5.44531 4.22852ZM4.70898 4.52539C4.73926 4.44141 4.78027 4.375 4.83105 4.32617L4.85938 4.29956L4.88281 4.28101C4.89453 4.27271 4.90625 4.26636 4.91797 4.26147C4.9375 4.25317 4.95703 4.25 4.98047 4.25C5.01953 4.25 5.05176 4.25586 5.05176 4.26367C5.05176 4.27148 5.01758 4.3125 4.97656 4.35352C4.92578 4.4043 4.91406 4.42383 4.94434 4.4082L4.95898 4.40039L4.98828 4.37769L5.0127 4.35474L5.03125 4.33398C5.06641 4.29102 5.07812 4.28516 5.09473 4.30859C5.13867 4.37695 5.06445 4.50391 4.93652 4.57422C4.89844 4.59595 4.84961 4.61743 4.80371 4.63428C4.76367 4.64917 4.72559 4.66064 4.69922 4.66528C4.67871 4.66895 4.66602 4.66846 4.66602 4.66211L4.68457 4.59814L4.70898 4.52539ZM7.3623 5.16602C7.25488 5.19922 7.06055 5.32617 7.06055 5.36328C7.06055 5.39258 7.2041 5.42188 7.34375 5.42188C7.37598 5.42188 7.40625 5.41968 7.43457 5.41528L7.48828 5.40381L7.52246 5.39209L7.55566 5.37598C7.58887 5.3562 7.60742 5.33105 7.60742 5.30273C7.60742 5.26758 7.59961 5.26367 7.55469 5.27344C7.45117 5.29883 7.37402 5.31055 7.38672 5.29883C7.38965 5.29492 7.4043 5.28882 7.42676 5.28174L7.50195 5.25977C7.59766 5.23633 7.60547 5.23047 7.58301 5.20117C7.56934 5.18359 7.53906 5.16992 7.50195 5.16235C7.45703 5.15332 7.40332 5.15308 7.3623 5.16602ZM7.62207 5.55859C7.65234 5.52344 7.70508 5.47852 7.73926 5.45898C7.84668 5.39453 7.99316 5.42773 7.90039 5.49414L7.81055 5.56055L7.75977 5.59961L7.82324 5.57031L7.85547 5.55273C7.87891 5.53857 7.90039 5.52246 7.91016 5.51172C7.9502 5.46484 7.97266 5.47461 7.97266 5.53906C7.97266 5.61328 7.9043 5.68359 7.78418 5.73438C7.69727 5.77148 7.48633 5.80664 7.48633 5.78516C7.48633 5.75586 7.56934 5.61914 7.62207 5.55859ZM8.77734 5.85742C8.77637 5.86646 8.77246 5.86084 8.7666 5.8418C8.75684 5.80859 8.74902 5.75391 8.74609 5.71875C8.74414 5.67969 8.73438 5.65625 8.71582 5.65625C8.6875 5.65625 8.66797 5.67065 8.65625 5.70117C8.64551 5.73096 8.64355 5.77612 8.64746 5.83789C8.65039 5.8938 8.65723 5.93359 8.67188 5.97339C8.68359 6.00464 8.7002 6.03564 8.72461 6.07422L8.7627 6.13257C8.78516 6.16333 8.80176 6.18359 8.80762 6.18359C8.84375 6.18359 8.89648 5.99023 8.89648 5.85547C8.89648 5.78784 8.89453 5.75024 8.88672 5.72485C8.87988 5.70239 8.86816 5.68945 8.84766 5.67383C8.82129 5.6543 8.79297 5.63672 8.7832 5.63672C8.78027 5.63672 8.77734 5.64429 8.77637 5.65747C8.77344 5.68091 8.77246 5.72144 8.77539 5.76758C8.77832 5.81763 8.7793 5.84717 8.77734 5.85742ZM8.33887 6.42578C8.28125 6.28125 8.27539 6.11328 8.32422 6.04102C8.38281 5.95508 8.41992 5.97266 8.42383 6.08984L8.42773 6.19336L8.43359 6.08984C8.4375 6.03906 8.44629 6.00708 8.45996 5.9939C8.47656 5.97778 8.5 5.99023 8.5293 6.03125C8.59375 6.11914 8.54297 6.35352 8.43359 6.48438L8.38477 6.54297L8.33887 6.42578ZM7.8418 6.14453C7.81543 6.16162 7.78906 6.18457 7.76367 6.21143C7.70117 6.27637 7.64746 6.36523 7.61816 6.45508C7.60938 6.4834 7.60645 6.49463 7.62695 6.49561C7.63965 6.49634 7.65918 6.49341 7.68945 6.48828C7.90234 6.45508 8.0752 6.33594 8.0752 6.2207C8.0752 6.16602 8.04883 6.14453 8.02441 6.18359L8.01074 6.19727C7.99609 6.21021 7.97168 6.22803 7.94727 6.24414L7.96094 6.21289C8.02246 6.15625 8.03223 6.13672 8.01172 6.12305C7.97461 6.1001 7.92578 6.10205 7.87305 6.1272L7.8418 6.14453ZM6.35449 8.76562L6.3623 8.73438C6.36719 8.72168 6.37891 8.71387 6.4082 8.70923C6.43652 8.70459 6.48242 8.70312 6.55469 8.70312C6.75 8.70312 6.76367 8.71289 6.70117 8.80078C6.68262 8.82812 6.61426 8.91406 6.54688 8.99023L6.42969 9.13281H6.5C6.52148 9.13281 6.53711 9.13135 6.54883 9.12744C6.56738 9.12183 6.57715 9.11133 6.58301 9.09375C6.5918 9.07227 6.61426 9.05469 6.63574 9.05469C6.6709 9.05469 6.67676 9.06641 6.6709 9.12695L6.66406 9.20117L6.47754 9.20703L6.36914 9.20947C6.3418 9.20947 6.32422 9.20825 6.3125 9.20532C6.30078 9.20239 6.29492 9.198 6.29199 9.19141L6.29004 9.18335L6.28906 9.16992C6.28906 9.14648 6.3457 9.06055 6.41699 8.97852C6.58789 8.7793 6.58789 8.78125 6.51465 8.78125C6.47168 8.78125 6.44922 8.79297 6.44141 8.82031C6.43652 8.83667 6.42676 8.8479 6.41602 8.85425C6.4082 8.85864 6.39941 8.86084 6.3916 8.8606L6.375 8.85693L6.3623 8.84839C6.35449 8.84009 6.34961 8.82812 6.34961 8.8125C6.34961 8.79834 6.35156 8.78125 6.35449 8.76562ZM6.75098 8.89844L6.74316 8.92578C6.7334 8.94922 6.74316 8.95703 6.78418 8.95703L6.80566 8.95532L6.81836 8.95142C6.83008 8.94629 6.83691 8.93799 6.83691 8.92773C6.83691 8.91016 6.85547 8.89844 6.87988 8.89844C6.89258 8.89844 6.90137 8.89893 6.90527 8.90186C6.90723 8.90356 6.90723 8.90601 6.90625 8.90991L6.89746 8.92578L6.86133 8.9707C6.8291 9.01172 6.78223 9.0625 6.75781 9.08203C6.7334 9.10352 6.71484 9.13867 6.71484 9.16406C6.71484 9.20312 6.72754 9.20898 6.83301 9.21484C6.99316 9.22656 7.04004 9.20703 7.04004 9.13281C7.04004 9.06641 6.99121 9.05273 6.94824 9.10547C6.94238 9.11475 6.93164 9.12231 6.9209 9.12695L6.90625 9.1311L6.8916 9.13086C6.87695 9.12744 6.87598 9.1167 6.89355 9.09082C6.90723 9.07104 6.93164 9.04248 6.96875 9.00195C7.11523 8.8457 7.10645 8.82031 6.90625 8.82031L6.84766 8.82056L6.80176 8.823L6.77344 8.82837C6.7666 8.83081 6.7627 8.83398 6.75977 8.83789C6.75684 8.84302 6.75586 8.84937 6.75586 8.85742L6.75098 8.89844ZM7.14746 8.95703C7.11523 8.95703 7.11035 8.94531 7.11719 8.88867L7.125 8.82031H7.27539C7.36328 8.82031 7.41406 8.82471 7.43066 8.84351C7.45215 8.86743 7.41797 8.91479 7.33398 9.00586C7.22461 9.12695 7.22266 9.13281 7.27148 9.13281C7.28516 9.13281 7.29688 9.13086 7.30566 9.1272C7.31738 9.12207 7.32422 9.11377 7.32422 9.10352C7.32422 9.0957 7.3291 9.08838 7.33691 9.08301C7.34375 9.07764 7.35352 9.07422 7.36426 9.07422C7.38086 9.07422 7.3916 9.07788 7.39746 9.08862C7.40332 9.09863 7.40527 9.11499 7.40527 9.14062C7.40527 9.2168 7.38086 9.22656 7.19824 9.21484L7.13184 9.20947L7.11523 9.20679C7.08594 9.20044 7.08008 9.18994 7.08008 9.16797C7.08008 9.14453 7.12891 9.07812 7.18555 9.01953C7.25879 8.94531 7.2832 8.9082 7.26465 8.90234C7.24902 8.89648 7.22461 8.9082 7.21191 8.92578C7.19824 8.94336 7.16992 8.95703 7.14746 8.95703ZM8.56543 9.25781C8.19238 9.375 8.01953 9.79297 8.2002 10.1426C8.24414 10.2266 8.30762 10.2952 8.38379 10.3469C8.62793 10.5146 8.99902 10.5088 9.22461 10.291C9.3584 10.1621 9.40332 10.0508 9.40332 9.8457C9.40332 9.69922 9.39453 9.6543 9.35449 9.58203C9.28906 9.46094 9.17969 9.35352 9.05859 9.29297C9.00488 9.2666 8.92969 9.24854 8.85156 9.23999C8.75 9.22876 8.64258 9.23364 8.56543 9.25781ZM8.69922 9.99219C8.73926 10.0083 8.77637 10.0293 8.80762 10.0518C8.87109 10.0967 8.91113 10.147 8.90039 10.1758C8.88184 10.2188 8.8457 10.2148 8.63379 10.1465C8.40527 10.0703 8.33789 10.0371 8.33789 10.002C8.33789 9.96069 8.38867 9.93945 8.46387 9.9397C8.53027 9.93994 8.61523 9.95728 8.69922 9.99219ZM7.34473 10.668C7.54688 10.4434 7.77051 10.2773 7.94922 10.2148C8.09668 10.1641 8.14746 10.1777 8.25879 10.293C8.32422 10.3613 8.40332 10.416 8.48633 10.4531C8.57031 10.4907 8.61133 10.5037 8.70801 10.5078L8.83496 10.5098C9.04785 10.5117 9.06445 10.5137 9.2002 10.5781C9.32031 10.6367 9.34863 10.6602 9.38867 10.7344C9.47266 10.8965 9.43164 11.1816 9.26172 11.623C9.12207 11.9814 9.05469 12.1199 8.83594 12.1899C8.7168 12.2278 8.55371 12.2456 8.31152 12.2676C8.08789 12.2878 7.91797 12.3115 7.80273 12.3389C7.68652 12.3667 7.62793 12.3982 7.62793 12.4336C7.62793 12.4526 7.5791 12.4802 7.52637 12.4971C7.49902 12.5059 7.46973 12.5117 7.44531 12.5117C7.35059 12.5117 7.2627 12.459 7.22852 12.3809C7.18848 12.2871 7.20801 12.2031 7.29199 12.1094C7.38281 12.0078 7.50586 11.9397 7.70996 11.8914C7.84277 11.8599 8.00977 11.8369 8.22266 11.8184C8.69727 11.7773 8.6748 11.7852 8.74414 11.6289C8.80078 11.5007 8.84082 11.4026 8.86328 11.335C8.88867 11.2603 8.89258 11.2227 8.87598 11.2227C8.85938 11.2227 8.8457 11.2324 8.8457 11.2422C8.8457 11.2598 8.66699 11.7109 8.6543 11.7246C8.65332 11.7263 8.62598 11.73 8.58008 11.7349L8.31641 11.7598C7.84766 11.8027 7.66309 11.8379 7.49219 11.918C7.33203 11.9922 7.19434 12.123 7.17188 12.2207C7.13965 12.3652 7.20801 12.4883 7.35449 12.543C7.44141 12.5742 7.4502 12.5742 7.53711 12.541C7.58789 12.5234 7.64453 12.4863 7.66309 12.4609C7.71387 12.3848 7.86719 12.3535 8.43555 12.3047L8.58398 12.293L8.51855 12.4062C8.42969 12.5625 8.38672 12.6074 8.26758 12.6602L8.16602 12.707H6.30957C4.54688 12.707 4.44922 12.7051 4.37012 12.6699C4.11035 12.5566 4.09277 12.2012 4.33789 12.0664C4.38086 12.0435 4.40137 12.0327 4.58789 12.0278C4.74902 12.0234 5.03418 12.0234 5.56738 12.0234H6.71777L6.62402 11.9453C6.57324 11.9023 6.52051 11.8672 6.50684 11.8672C6.50195 11.8672 6.49512 11.8699 6.48633 11.8745C6.4707 11.8831 6.4502 11.8984 6.43164 11.916L6.37891 11.9648L5.82324 11.9609L5.26465 11.9551L5.75781 11.5684C6.32617 11.1211 6.36426 11.0957 6.46191 11.0781C6.51074 11.0688 6.55273 11.0686 6.59961 11.083C6.67969 11.1079 6.77637 11.177 6.95117 11.3203C7.15723 11.4922 7.21484 11.5312 7.23438 11.5117C7.24902 11.498 7.33398 11.3711 7.42578 11.2324L7.62402 10.9336C7.64844 10.8984 7.64844 10.8906 7.62598 10.8906C7.61035 10.8906 7.56543 10.9414 7.52246 11.0039L7.32812 11.2969L7.20801 11.4785L7.07422 11.3672C6.99902 11.3066 6.93848 11.2461 6.93848 11.2324C6.93848 11.1934 7.20996 10.8145 7.34473 10.668Z"></path></svg>