<svg xmlns="http://www.w3.org/2000/svg" viewBox="0 0 21 24" height="24" width="21"><title>shoes.svg</title><rect fill="none" x="0" y="0" width="21" height="24"></rect><path fill="#5e758d" transform="translate(2 2)" d="M11.1123 15.5334C14.0547 14.3313 16.1289 11.4402 16.1289 8.06445C16.1289 3.6106 12.5186 0 8.06445 0C3.61035 0 0 3.6106 0 8.06445C0 11.4431 2.07812 14.3364 5.02539 15.5366L7.36914 19.5967C7.52637 19.8689 7.80273 20.0034 8.07715 20C8.3457 19.9968 8.6123 19.8623 8.76562 19.5967L11.1123 15.5334ZM4.55371 6.17505C4.60645 5.0979 4.44922 4.03125 4.30566 3H7.33008C7.37793 3.19824 7.42188 3.40869 7.46289 3.62866H6.61426V4.0061H7.53613L7.58984 4.27344C7.61426 4.39307 7.63965 4.51392 7.66797 4.63477H6.8916V5.01196H7.7627C7.82031 5.22363 7.88574 5.43335 7.96582 5.64062H7.16895V6.01807H8.12598C8.23047 6.23584 8.35449 6.44751 8.50195 6.64673H7.79199V7.02393H8.82617C9.18652 7.38647 9.65039 7.68628 10.2549 7.8894C10.1797 7.95459 10.1055 8.03003 10.0332 8.11157C9.82324 8.34644 9.63477 8.65039 9.54297 8.9939H4.00684C4.03418 8.58398 4.14551 8.16333 4.26074 7.72656C4.3916 7.23267 4.52734 6.71802 4.55371 6.17505ZM6.77051 6.83545C6.77051 6.17725 6.32715 5.64062 5.7832 5.64062C5.24023 5.64062 4.79688 6.17725 4.79688 6.83545C4.79688 7.49341 5.24023 8.03003 5.7832 8.03003C6.32715 8.03003 6.77051 7.49341 6.77051 6.83545ZM5.1084 6.83545C5.1084 6.38257 5.40918 6.01807 5.7832 6.01807C6.15723 6.01807 6.45898 6.38257 6.45898 6.83545C6.45898 7.28809 6.15723 7.65259 5.7832 7.65259C5.40918 7.65259 5.1084 7.28809 5.1084 6.83545ZM10.5918 8.09985C10.666 8.05664 10.7275 8.03247 10.7637 8.03003C11.3037 8.15356 11.6377 8.24365 11.8047 8.35278C11.8877 8.40723 11.9277 8.45752 11.9551 8.52661C11.9756 8.57495 11.9863 8.64819 11.9932 8.73633C11.7676 8.87451 11.5234 8.9939 11.3242 8.9939H9.87695C9.95801 8.77197 10.0938 8.55591 10.2441 8.38843C10.3594 8.25879 10.4873 8.1604 10.5918 8.09985ZM11.9014 9.19092C11.9414 9.17212 11.9658 9.15747 12 9.13867V9.73169C11.832 9.81763 11.4316 10 11.0479 10H4V9.37134H11.3242C11.5156 9.37134 11.7227 9.27686 11.9014 9.19092Z"></path></svg>