<svg xmlns="http://www.w3.org/2000/svg" viewBox="0 0 20 23" height="23" width="20"><title>shrines.svg</title><rect fill="none" x="0" y="0" width="20" height="23"></rect><path fill="#5e758d" transform="translate(1 1)" d="M11.1123 15.5334C14.0547 14.3313 16.1289 11.4402 16.1289 8.06445C16.1289 3.6106 12.5186 0 8.06445 0C3.61035 0 0 3.6106 0 8.06445C0 11.4431 2.07812 14.3364 5.02539 15.5366L7.36914 19.5967C7.67969 20.1345 8.45508 20.1345 8.76562 19.5967L11.1123 15.5334ZM11.8564 3.00171C11.9248 2.99023 11.9873 3.0415 11.9961 3.11865C12.0273 3.37012 11.8594 3.59888 11.6162 3.63037C11.5537 3.63599 11.4902 3.6416 11.4277 3.65015V3.97607C11.4277 4.22461 11.2275 4.42749 10.9795 4.42749H10.5703V5.28491H11.7139C11.8701 5.28491 11.999 5.41333 11.999 5.57056C11.999 5.72778 11.873 5.85645 11.7139 5.85645H10.5713L10.5703 6.71362V10.4285H10.6396C10.7705 10.4285 10.8789 10.5371 10.8789 10.6685V11H9.45117V10.6685C9.45117 10.5371 9.55957 10.4285 9.69141 10.4285H9.71289V5.85645H6.28613L6.28516 6.71362V10.4285H6.33203C6.41797 10.4285 6.49414 10.4749 6.53613 10.5437C6.55859 10.5803 6.57129 10.623 6.57129 10.6685V11H5.14355V10.6685C5.14355 10.6047 5.16895 10.5464 5.20996 10.5032C5.25391 10.4573 5.31543 10.4285 5.38379 10.4285H5.42871V5.85645H4.28613C4.19238 5.85645 4.1084 5.8103 4.05664 5.7395C4.02148 5.69189 4.00098 5.63354 4.00098 5.57056C4.00098 5.41333 4.12988 5.28491 4.28613 5.28491H5.42871V4.42749H5.02344C4.77539 4.42749 4.57227 4.22461 4.57227 3.97607V3.65015C4.50977 3.64453 4.44629 3.63892 4.38379 3.63037M11.8564 3.00171C9.37402 3.3501 6.62598 3.3501 4.14355 3.00171H11.8564ZM4.14355 3.00171C4.12695 2.99951 4.11035 3.00098 4.09473 3.00537L4.14355 3.00171ZM4.09473 3.00537C4.07812 3.01001 4.06348 3.01758 4.05078 3.02808L4.09473 3.00537ZM4.05078 3.02808C4.03711 3.03833 4.02637 3.05127 4.01855 3.06592L4.05078 3.02808ZM4.01855 3.06592C4.01074 3.08057 4.00586 3.09644 4.00391 3.11865L4.01855 3.06592ZM8.57031 5.28491H9.71289V4.42749H8.57031V5.28491ZM6.28516 5.28491H7.42773V4.42749H6.28516V5.28491Z"></path></svg>