<svg xmlns="http://www.w3.org/2000/svg" viewBox="0 0 21 24" height="24" width="21"><title>sports.svg</title><rect fill="none" x="0" y="0" width="21" height="24"></rect><path fill="#598017" transform="translate(2 2)" d="M16.1289 8.06445C16.1289 11.4402 14.0547 14.3313 11.1123 15.5334L8.76562 19.5967C8.45508 20.1345 7.67969 20.1345 7.36914 19.5967L5.02539 15.5366C2.07812 14.3364 0 11.4431 0 8.06445C0 3.6106 3.61035 0 8.06445 0C12.5186 0 16.1289 3.6106 16.1289 8.06445ZM9.21582 7.41626L5.81543 3.94775C5.7959 3.92798 5.77441 3.91016 5.75098 3.89478C5.73047 3.88086 5.70898 3.86914 5.68555 3.85938L5.63184 3.84082C5.59961 3.83252 5.56641 3.82837 5.5332 3.82837C5.50391 3.82837 5.47461 3.83154 5.44629 3.83813L5.42285 3.84424L5.37988 3.85938C5.33203 3.87988 5.28809 3.90991 5.25098 3.94775L4.11719 5.104C4.08008 5.14185 4.05078 5.18677 4.03027 5.23608C4.01074 5.2854 4 5.33838 4 5.39209C4 5.44556 4.01074 5.49854 4.03027 5.54785C4.04297 5.57812 4.05859 5.60669 4.07715 5.63306C4.08887 5.64966 4.10254 5.66528 4.11719 5.67993L7.51758 9.14844C7.67383 9.30762 7.92676 9.30762 8.08301 9.14844L9.21582 7.99219C9.25293 7.95435 9.28223 7.90967 9.30273 7.86011C9.32324 7.81079 9.33301 7.75781 9.33301 7.70435C9.33301 7.65063 9.32324 7.59766 9.30273 7.54834C9.29004 7.5188 9.27441 7.49072 9.25586 7.46484C9.24414 7.44775 9.23047 7.4314 9.21582 7.41626ZM8.93164 9.43848L10.3457 10.8806C10.3984 10.9341 10.4619 10.9695 10.5293 10.9871C10.6621 11.022 10.8105 10.9863 10.9141 10.8806C11.0703 10.7212 11.0703 10.4597 10.9141 10.3005L9.50098 8.8584L8.93164 9.43848ZM12 4.42993C12 5.21948 11.3721 5.85962 10.5977 5.85962C9.82422 5.85962 9.19629 5.21948 9.19629 4.42993C9.19629 4.10083 9.30566 3.79761 9.48926 3.55591C9.74512 3.21777 10.1465 3 10.5977 3C11.3721 3 12 3.64014 12 4.42993Z"></path></svg>