<svg xmlns="http://www.w3.org/2000/svg" viewBox="0 0 21 24" height="24" width="21"><title>sports_centre.svg</title><rect fill="none" x="0" y="0" width="21" height="24"></rect><path fill="#598017" transform="translate(2 2)" d="M16.129 8.06452C16.129 11.4401 14.0551 14.3313 11.112 15.5334L8.76596 19.5968C8.45556 20.1344 7.67955 20.1344 7.36915 19.5968L5.02501 15.5366C2.07765 14.3365 0 11.4431 0 8.06452C0 3.61061 3.61061 0 8.06452 0C12.5184 0 16.129 3.61061 16.129 8.06452ZM7.84302 4C7.15186 4 6.50233 4.2748 6.02768 4.72031C5.89028 4.30394 5.50307 4 5.0409 4C4.76484 4 4.50008 4.10967 4.30487 4.30487C4.10967 4.50008 4 4.76484 4 5.0409C4 5.31697 4.10967 5.58173 4.30487 5.77693C4.50008 5.97214 4.76484 6.08181 5.0409 6.08181C5.12834 6.08181 5.21161 6.06932 5.29489 6.0485C5.27407 6.15259 5.25741 6.26084 5.25325 6.37326C5.23495 6.73577 5.29578 7.09792 5.43153 7.43456C5.56728 7.77119 5.77468 8.07424 6.03934 8.32265C6.30399 8.57106 6.61955 8.75888 6.9641 8.87306C7.30864 8.98724 7.67392 9.02504 8.03454 8.98385C9.09627 8.86727 9.98312 8.04287 10.1955 6.9978C10.2579 6.70219 10.2579 6.4149 10.2204 6.1401C10.183 5.89028 10.3787 5.66961 10.6326 5.66961H12.3272V4H7.84302ZM5.0409 5.24908C4.92432 5.24908 4.83272 5.15749 4.83272 5.0409C4.83272 4.92432 4.92432 4.83272 5.0409 4.83272C5.15749 4.83272 5.24908 4.92432 5.24908 5.0409C5.24908 5.15749 5.15749 5.24908 5.0409 5.24908ZM7.74726 7.74726C7.0561 7.74726 6.49817 7.18933 6.49817 6.49817C6.49817 5.80701 7.0561 5.24908 7.74726 5.24908C8.43842 5.24908 8.99634 5.80701 8.99634 6.49817C8.99634 7.18933 8.43842 7.74726 7.74726 7.74726ZM8.58049 6.49825C8.58049 6.95815 8.20766 7.33097 7.74776 7.33097C7.28786 7.33097 6.91504 6.95815 6.91504 6.49825C6.91504 6.03835 7.28786 5.66553 7.74776 5.66553C8.20766 5.66553 8.58049 6.03835 8.58049 6.49825Z"></path></svg>