<svg xmlns="http://www.w3.org/2000/svg" viewBox="0 0 21 24" height="24" width="21"><title>stadium.svg</title><rect fill="none" x="0" y="0" width="21" height="24"></rect><path fill="#598017" transform="translate(2 2)" d="M16.1289 8.06445C16.1289 11.4402 14.0547 14.3313 11.1123 15.5334L8.76562 19.5967C8.45508 20.1345 7.67969 20.1345 7.36914 19.5967L5.02539 15.5366C2.07812 14.3364 0 11.4431 0 8.06445C0 3.6106 3.61035 0 8.06445 0C12.5186 0 16.1289 3.6106 16.1289 8.06445ZM11.999 7.53687V5.27246C11.999 5.2417 11.9873 5.21191 11.9658 5.18921C11.7568 4.69214 10.5371 4.37646 9.15137 4.26392V3.625L9.63574 3.375L9.15137 3.125V3.0625C9.15137 3.04614 9.14551 3.03052 9.13379 3.0188L9.11914 3.00732C9.11035 3.00269 9.10059 3.00024 9.09082 3C9.07422 3.00024 9.05859 3.00708 9.04785 3.0188C9.03613 3.03052 9.03027 3.04614 9.03027 3.0625V4.25464C8.70801 4.23169 8.38379 4.21924 8.06055 4.21802V3.625L8.5459 3.375L8.06055 3.125V3.0625C8.06055 3.02808 8.0332 3 8 3C7.9668 3 7.93945 3.02808 7.93945 3.0625V4.21802C7.61523 4.21924 7.28906 4.23169 6.96973 4.25464V3.625L7.45508 3.375L6.96973 3.125V3.0625C6.9707 3.04614 6.96387 3.03052 6.95312 3.0188C6.94141 3.00708 6.92578 3.00024 6.90918 3C6.87598 3 6.84863 3.02808 6.84863 3.0625V4.26392C5.35156 4.38525 4.04883 4.74438 4.00391 5.31226L4.00098 5.32593V7.53687L4 9.4375H6.99902L6.62402 10.4375H6.49902L6.81152 9.5625H5.99902L5.62402 10.4375H5.49902L5.87402 9.5625H4.99902L4.62402 10.4375H4.49902L4.87402 9.5625H4V11H12L11.999 9.5625H11.124L11.499 10.4375H11.374L10.999 9.5625H10.124L10.499 10.4375H10.374L9.99902 9.5625H9.18652L9.49902 10.4375H9.37402L8.99902 9.4375H11.999V7.53687ZM11.7236 5.35718C11.6748 5.39575 11.6113 5.43262 11.5391 5.46851C11.3838 5.24097 10.9521 5.04102 10.3428 4.896L10.5215 4.71167C11.2676 4.88086 11.7031 5.11011 11.752 5.30591C11.7451 5.33887 11.7305 5.35205 11.7236 5.35718ZM6.4248 5.6875L6.30762 5.92554C6.02539 5.90112 5.74316 5.86475 5.46387 5.81689C6.47656 5.39478 9.30176 5.40796 10.4756 5.77637C10.3779 5.79443 10.2754 5.81128 10.1689 5.82715C10.0127 5.85083 9.84766 5.87207 9.67578 5.89087L9.5752 5.6875H6.4248ZM9.55957 5.90283C9.36133 5.92285 9.1543 5.93945 8.94043 5.95264C8.77148 5.96313 8.59766 5.97144 8.41992 5.97729L8.06055 5.98584V5.8125H9.51562L9.55957 5.90283ZM7.93945 5.8125V5.98682L7.78027 5.98853C7.29492 5.98853 6.83984 5.96948 6.42383 5.93579L6.48438 5.81274L7.93945 5.8125ZM9.90234 5.3501L10.2305 5.01172C10.4658 5.06665 10.6758 5.13013 10.8545 5.20044C10.9844 5.25171 11.0967 5.3064 11.1914 5.36426C11.2773 5.41699 11.3486 5.47241 11.4014 5.52979C11.2822 5.57764 11.1445 5.62329 10.9863 5.66504C10.8613 5.60767 10.7168 5.5542 10.5547 5.50537C10.3535 5.44434 10.126 5.39062 9.87695 5.3457L9.90234 5.3501ZM8.06055 4.46802C9.01367 4.47168 9.8125 4.56079 10.4219 4.68994L10.2441 4.87329C9.99902 4.81909 9.72754 4.77368 9.43652 4.73853C9.01367 4.68726 8.54883 4.65796 8.06055 4.65552V4.46802ZM8.06055 5.19019V4.7854C8.83887 4.78931 9.55469 4.86475 10.1309 4.9895L9.79883 5.33179C9.27051 5.24146 8.6582 5.19067 7.99707 5.19019H8.06055ZM7.9834 5.19019C6.67383 5.19116 5.5332 5.39551 4.92871 5.69751C4.78711 5.65771 4.66113 5.61475 4.55664 5.5686C4.73047 5.34546 5.16699 5.15015 5.76855 5.0105L6.09473 5.34741L6.19824 5.3291L5.86816 4.98804C6.09766 4.93848 6.34961 4.89673 6.61816 4.86426C7.02539 4.81519 7.47168 4.78711 7.93945 4.78516V5.19019H7.9834ZM7.93945 4.46802V4.65552C7.11426 4.65918 6.35645 4.7395 5.75488 4.87207L5.5791 4.68994C6.1875 4.56079 6.98633 4.47168 7.93945 4.46802ZM5.47852 4.71167L5.65625 4.89478C5.25195 4.99048 4.9248 5.1106 4.70508 5.24683C4.57422 5.32788 4.48047 5.41479 4.43164 5.50562C4.35742 5.46338 4.29883 5.4187 4.25781 5.37231C4.25488 5.36841 4.24512 5.35791 4.24512 5.32568C4.25391 5.24976 4.32227 5.16821 4.44629 5.08691C4.64941 4.95361 5 4.82031 5.47852 4.71167ZM8.71875 8.75854V8.875H8.48438V8H7.51562V8.875H7.26367V8.74512C7.26465 8.72827 7.26172 8.71167 7.25488 8.69629C7.24902 8.68311 7.24121 8.67065 7.23145 8.65991C7.2207 8.64868 7.20898 8.63965 7.19531 8.63306C7.18164 8.62598 7.16602 8.62158 7.14941 8.62036C5.14453 8.51123 4.24316 8.14697 4.24316 7.9231V7.61743C4.95801 8.0769 6.72461 8.20947 7.14844 8.23511L7.1543 8.08716C6.35449 8.03882 5.65332 7.93677 5.12207 7.80151C4.72363 7.7002 4.4209 7.58032 4.24316 7.45068V6.99243C4.95801 7.4519 6.72461 7.58447 7.14844 7.61011L7.1543 7.46216C6.46777 7.4209 5.85449 7.3396 5.3584 7.23193C4.84277 7.12012 4.4541 6.97974 4.24316 6.82568V6.36743C4.95801 6.82715 6.72461 6.95972 7.14844 6.98511L7.1543 6.8374C5.75586 6.75293 4.6582 6.50342 4.24316 6.20068V5.67969C4.86523 6.08862 6.42969 6.23877 7.7793 6.23877C9.29492 6.23853 11.0605 6.05103 11.7568 5.63403V6.14844C11.3584 6.52783 10.3184 6.78687 8.8457 6.85229L8.84961 7C9.59766 6.96704 11.1123 6.83618 11.7568 6.32788V6.77344C11.3584 7.15259 10.3184 7.41162 8.8457 7.47705L8.84961 7.625C9.59766 7.5918 11.1123 7.46118 11.7568 6.95288V7.39819C11.5635 7.58276 11.2178 7.73877 10.7451 7.85791C10.2451 7.98364 9.60254 8.06836 8.8457 8.10205L8.84961 8.24976C9.59766 8.2168 11.1123 8.08594 11.7568 7.57788V7.79492C11.7568 8.22705 10.583 8.56421 8.83496 8.63379C8.76953 8.63623 8.71875 8.69165 8.71875 8.75854ZM8.36426 6.875C8.49805 6.875 8.63672 6.98315 8.67285 7.11523L8.78223 7.50952C8.79102 7.53857 8.79297 7.56885 8.79004 7.59888C8.7666 7.56787 8.73633 7.54224 8.70215 7.5249C8.66992 7.50903 8.63477 7.5 8.59766 7.5H7.38574C7.35352 7.50024 7.32031 7.50708 7.29102 7.52051C7.26074 7.53394 7.2334 7.55347 7.21094 7.57764C7.20996 7.55469 7.21289 7.53174 7.21875 7.50952L7.32812 7.11523C7.36523 6.98315 7.50391 6.875 7.63672 6.875H8.36426ZM4.36328 6.50537L4.48438 6.56274C4.5166 6.57837 4.54492 6.6228 4.54492 6.66138L4.5459 6.82764C4.5459 6.86646 4.51953 6.88501 4.48633 6.86938L4.36523 6.81177C4.33301 6.79614 4.30566 6.75195 4.30566 6.71338L4.30371 6.54712C4.30371 6.5083 4.33008 6.48975 4.36328 6.50537ZM6.41504 7.01514L6.54199 7.02197C6.57715 7.02393 6.60645 7.04712 6.6084 7.07349L6.61719 7.26514C6.61816 7.2915 6.59082 7.31177 6.55566 7.30981L6.42773 7.30273C6.39258 7.30103 6.36328 7.27783 6.3623 7.25146L6.35352 7.05981C6.35156 7.03345 6.37988 7.01343 6.41504 7.01514ZM5.32715 6.8418L5.45215 6.8645C5.48633 6.87085 5.51562 6.89795 5.5166 6.9248L5.52246 7.12061C5.52344 7.14746 5.49609 7.16455 5.46191 7.1582L5.33594 7.1355C5.30176 7.12915 5.27344 7.10205 5.27246 7.07495L5.26562 6.87939C5.26465 6.85229 5.29297 6.83521 5.32715 6.8418ZM11.5791 6.83203L11.458 6.8894C11.4355 6.90015 11.416 6.89478 11.4062 6.87817C11.4014 6.87036 11.3984 6.86011 11.3984 6.8479L11.4004 6.6814C11.4004 6.64282 11.4277 6.59814 11.4609 6.58276L11.582 6.52563C11.6143 6.51001 11.6416 6.52881 11.6406 6.56738L11.6396 6.73364C11.6387 6.77222 11.6123 6.81641 11.5791 6.83203ZM9.5166 7.32275L9.38867 7.32983C9.37305 7.33057 9.35938 7.3269 9.34863 7.32031C9.33496 7.31226 9.32617 7.2998 9.32715 7.28516L9.33691 7.09351C9.33789 7.06714 9.36719 7.04419 9.40234 7.04224L9.53027 7.0354C9.54004 7.03491 9.5498 7.03613 9.55859 7.03906C9.5791 7.0459 9.59277 7.06128 9.5918 7.07983L9.58203 7.27148C9.58105 7.29761 9.55176 7.32104 9.5166 7.32275ZM10.6084 7.15552L10.4824 7.17822C10.4482 7.18457 10.4209 7.16772 10.4219 7.14087L10.4277 6.94507C10.4287 6.91797 10.458 6.89087 10.4922 6.88477L10.6172 6.86182C10.6523 6.85571 10.6797 6.87256 10.6787 6.89941L10.6719 7.09521C10.6709 7.12207 10.6426 7.14917 10.6084 7.15552Z"></path></svg>