<svg xmlns="http://www.w3.org/2000/svg" viewBox="0 0 21 24" height="24" width="21"><title>station.svg</title><rect fill="none" x="0" y="0" width="21" height="24"></rect><path fill="#598017" transform="translate(2 2)" d="M11.1123 15.5334C14.0547 14.3313 16.1289 11.4402 16.1289 8.06445C16.1289 3.6106 12.5186 0 8.06445 0C3.61035 0 0 3.6106 0 8.06445C0 11.4431 2.07812 14.3364 5.02539 15.5366L7.36914 19.5967C7.67969 20.1345 8.45508 20.1345 8.76562 19.5967L11.1123 15.5334ZM5.63379 3.39233C5.61816 3.42651 5.5957 3.45728 5.56836 3.48291C5.39453 3.65625 5.23926 3.84766 5.10645 4.05322C4.99512 4.22583 4.89941 4.40845 4.82031 4.59912C4.64648 5.01685 4.55762 5.46484 4.55859 5.91699C4.55762 6.37451 4.64844 6.82739 4.82617 7.24902C5.00293 7.6709 5.26367 8.05273 5.59082 8.37256C5.64258 8.42456 5.6709 8.49487 5.67188 8.56812C5.67188 8.64136 5.64355 8.71167 5.5918 8.76392C5.57227 8.78369 5.5498 8.80029 5.52637 8.81323C5.4873 8.83496 5.44336 8.84692 5.39746 8.84766C5.32422 8.84888 5.25293 8.82129 5.2002 8.77075C4.81934 8.39893 4.51758 7.95508 4.31152 7.46484C4.10547 6.97461 3.99902 6.44824 4 5.91675C3.99902 5.39136 4.10254 4.87085 4.30469 4.3855C4.50586 3.90015 4.80176 3.45947 5.1748 3.08862C5.2002 3.06128 5.23047 3.03931 5.26465 3.02417C5.29883 3.00879 5.33594 3.00073 5.37402 3C5.39648 2.99951 5.41895 3.00195 5.44141 3.00708L5.4834 3.02026C5.50195 3.02783 5.51953 3.03711 5.53613 3.04834L5.57617 3.08154C5.60254 3.10815 5.62305 3.13965 5.6377 3.17432C5.65137 3.20923 5.6582 3.24634 5.65723 3.28369C5.65723 3.32129 5.64844 3.35815 5.63379 3.39233ZM10.7666 3.05664C10.8008 3.07153 10.8311 3.09277 10.8564 3.11963C11.5635 3.84009 12 4.82788 12 5.91699C12.001 6.44141 11.8975 6.96045 11.6973 7.44507C11.6035 7.67114 11.4893 7.8877 11.3564 8.09204C11.2051 8.32544 11.0293 8.54272 10.8311 8.74023C10.8057 8.76611 10.7744 8.78662 10.7412 8.80078C10.7227 8.80811 10.7041 8.81372 10.6846 8.81714C10.668 8.82031 10.6514 8.82202 10.6338 8.82202C10.6055 8.82202 10.5762 8.81763 10.5479 8.80859L10.5273 8.80103C10.4932 8.78687 10.4629 8.76636 10.4365 8.74048C10.4102 8.7146 10.3896 8.68408 10.376 8.65015C10.3613 8.61621 10.3545 8.58008 10.3545 8.54346C10.3545 8.50684 10.3613 8.47046 10.376 8.43677C10.3896 8.40283 10.4102 8.37207 10.4365 8.34619C10.6172 8.16602 10.7764 7.96655 10.9121 7.75195C11.0156 7.58691 11.1064 7.41284 11.1816 7.23169C11.3535 6.81494 11.4424 6.36816 11.4414 5.91699C11.4434 5.01685 11.0898 4.1521 10.458 3.51001C10.4414 3.49341 10.4268 3.4751 10.415 3.45532L10.3965 3.41895C10.3877 3.39771 10.3818 3.37549 10.3779 3.35303L10.375 3.31104C10.376 3.27417 10.3828 3.23755 10.3975 3.20361C10.4121 3.16943 10.4326 3.13867 10.459 3.11279C10.4854 3.08691 10.5166 3.06665 10.5508 3.05298C10.5859 3.03931 10.6221 3.03247 10.6592 3.0332C10.6963 3.03369 10.7324 3.04175 10.7666 3.05664ZM6.67773 4.54541C6.66309 4.57886 6.64062 4.60889 6.61328 4.63354C6.26074 4.96387 6.04688 5.41479 6.04688 5.90991C6.04688 6.25659 6.15137 6.58179 6.33496 6.85889C6.41699 6.98242 6.51465 7.09644 6.62598 7.19849C6.68066 7.24854 6.71289 7.31812 6.71582 7.39209C6.71973 7.46606 6.69238 7.53809 6.64258 7.59277C6.59277 7.64722 6.52246 7.67944 6.44922 7.68262C6.375 7.68579 6.30273 7.65918 6.24805 7.60913C5.78223 7.18091 5.48828 6.57935 5.48828 5.91016C5.48828 5.24854 5.77539 4.65332 6.23242 4.22632C6.25879 4.20093 6.29102 4.18091 6.3252 4.16772C6.35938 4.15454 6.39648 4.14844 6.43262 4.14941C6.46973 4.15039 6.50586 4.15894 6.54004 4.17407C6.57324 4.18921 6.60352 4.21094 6.62891 4.23779C6.6543 4.26465 6.67383 4.29639 6.68652 4.33081C6.69922 4.36548 6.70508 4.4021 6.7041 4.43896C6.70215 4.47583 6.69336 4.51196 6.67773 4.54541ZM9.58789 4.16748C9.66211 4.16577 9.7334 4.1936 9.78711 4.24487C10.2324 4.67017 10.5117 5.25854 10.5117 5.91064C10.5117 6.57007 10.2266 7.16431 9.77148 7.59106C9.75 7.6106 9.72559 7.62646 9.69922 7.63818C9.66016 7.65625 9.61621 7.66504 9.57227 7.66333C9.49902 7.6604 9.42969 7.62891 9.37988 7.57568C9.33008 7.52222 9.30273 7.45142 9.30469 7.37817C9.30566 7.30518 9.33594 7.2356 9.38867 7.18457C9.64355 6.94507 9.8252 6.64258 9.90625 6.30591C9.9375 6.17847 9.95312 6.0459 9.95312 5.91016C9.95312 5.42212 9.74512 4.97681 9.40137 4.64771C9.34766 4.59668 9.31641 4.52637 9.31543 4.45239C9.31445 4.4043 9.3252 4.35742 9.34766 4.31567C9.35938 4.29321 9.37402 4.27222 9.39258 4.25342C9.44336 4.2002 9.51367 4.16919 9.58789 4.16748ZM7.56543 6.4917C7.4375 6.3999 7.34277 6.27002 7.29297 6.12061C7.24414 5.97095 7.24316 5.80981 7.29199 5.66016C7.33984 5.51025 7.43457 5.37964 7.56152 5.28711C7.68945 5.19458 7.84277 5.14453 8 5.14453C8.09863 5.14453 8.19629 5.16431 8.28613 5.2019C8.33984 5.22412 8.3916 5.25269 8.43848 5.28711C8.56543 5.37964 8.66016 5.51025 8.70801 5.66016C8.75684 5.80981 8.75586 5.97095 8.70703 6.12061C8.6582 6.27002 8.5625 6.3999 8.43457 6.4917L9.75391 10.6365C9.77441 10.698 9.77148 10.7642 9.74805 10.824C9.72363 10.884 9.67969 10.9338 9.62305 10.9648C9.59375 10.9814 9.56152 10.9922 9.52832 10.9971C9.49902 11.0012 9.46875 11.0007 9.43848 10.9951C9.375 10.9836 9.31738 10.9504 9.27539 10.9011L8 9.39526L6.72461 10.9009C6.68359 10.9502 6.62598 10.9834 6.5625 10.9951C6.49902 11.0071 6.43359 10.9963 6.37695 10.9651C6.32031 10.9341 6.27637 10.8843 6.25195 10.8242C6.22852 10.7644 6.22559 10.698 6.24512 10.6365L7.56543 6.4917ZM8.36621 8.96362L8.79883 9.47485L8.56152 8.7312L8.36621 8.96362ZM8.3623 8.10547L8.3457 8.12427L8 8.53247L7.6543 8.125L7.6377 8.10596L8 6.9668L8.3623 8.10547ZM7.43848 8.73169L7.63379 8.96362L7.20117 9.47485L7.43848 8.73169Z"></path></svg>