<svg xmlns="http://www.w3.org/2000/svg" viewBox="0 0 20 23" height="23" width="20"><title>statue.svg</title><rect fill="none" x="0" y="0" width="20" height="23"></rect><path fill="#5e758d" transform="translate(1 1)" d="M11.1123 15.5334C14.0547 14.3313 16.1289 11.4402 16.1289 8.06445C16.1289 3.6106 12.5186 0 8.06445 0C3.61035 0 0 3.6106 0 8.06445C0 11.4431 2.07812 14.3364 5.02539 15.5366L7.36914 19.5967C7.67969 20.1345 8.45508 20.1345 8.76562 19.5967L11.1123 15.5334ZM7.38672 2.51831C7.38672 2.47559 7.47656 2.35742 7.60938 2.2229C7.86426 1.96362 7.92578 1.94727 8.11621 2.08838C8.29004 2.21948 8.5166 2.47559 8.5166 2.54443C8.5166 2.5564 8.52637 2.57568 8.54395 2.59863C8.5752 2.63916 8.62891 2.69189 8.69043 2.73804C8.91016 2.91211 9 3.0957 9 3.36157C9 3.4668 8.9873 3.60449 8.97168 3.66357C8.95703 3.71167 8.95312 3.74219 8.95898 3.75732C8.96191 3.76489 8.9668 3.76855 8.97461 3.76855C9.03906 3.76855 9.12988 3.87695 9.12988 3.95239C9.12988 3.99512 9.10059 4.07715 9.06543 4.1394C8.95801 4.32007 8.89746 4.68091 8.93555 4.8877C8.95508 4.98291 8.96191 5.08789 8.94922 5.12085C8.92578 5.19946 8.80371 5.19629 8.69727 5.11084C8.62598 5.05518 8.61328 5.05176 8.61328 5.0979C8.61328 5.12744 8.63574 5.19629 8.66504 5.25195C8.71289 5.34717 8.70996 5.36035 8.63281 5.54736C8.58398 5.65894 8.55176 5.75098 8.55469 5.75757C8.56152 5.76074 8.60645 5.6853 8.6582 5.58667C8.80957 5.29468 8.94238 5.26196 9.33887 5.41284C9.53906 5.48828 9.77539 5.6853 9.77539 5.7771C9.77539 5.81323 9.80078 5.88208 9.83594 5.92822C9.95898 6.10864 10.043 6.3186 10.3301 7.17529C10.5273 7.76147 10.6211 8.02881 10.6201 8.22852C10.6191 8.40649 10.5439 8.53101 10.4014 8.78003C9.96582 9.54468 9.92969 9.65967 10.0781 9.75806C10.1846 9.83032 10.5625 9.93213 11.0498 10.0173C11.2822 10.0601 11.5312 10.1257 11.6055 10.1619C11.9443 10.3389 12.0859 10.7788 11.9473 11.2153C11.8438 11.5466 11.502 11.8191 11.0723 11.9111C10.8496 11.957 10.0176 11.9341 9.42969 11.8618C9.08984 11.8206 9.03516 11.8164 8.92871 11.8589L8.89062 11.875C8.65527 11.9832 8.29688 12.0161 7.6123 11.9932C6.95117 11.9734 6.66406 11.9241 6.51855 11.8159C6.4375 11.7568 6.37598 11.7502 5.74023 11.7502C4.96289 11.7468 4.65625 11.7109 4.45898 11.5928C4.10059 11.3794 3.91699 10.8936 4.03613 10.4834C4.09473 10.2864 4.32715 10.0601 4.55957 9.97461C4.85254 9.86304 5.46289 9.71533 5.98535 9.62671C6.25 9.58081 6.46973 9.54468 6.47656 9.54468C6.52148 9.54468 6.38965 9.4397 6.06934 9.22974C5.15625 8.62573 5.06641 8.41577 5.35938 7.6084C5.52051 7.16064 5.67773 6.75146 5.79883 6.45435C5.88672 6.23975 5.95605 6.08374 5.99512 6.01343C6.15039 5.74097 6.29883 5.66235 7.08008 5.43262C7.22559 5.38989 7.30957 5.25854 7.27637 5.13062C7.25781 5.05176 7.25391 5.05176 7.16113 5.10767C7.08594 5.15039 7.05078 5.15356 7.00879 5.12744C6.96094 5.09448 6.9541 5.05176 6.96094 4.84839C6.9707 4.63843 6.95703 4.56274 6.85742 4.28052C6.78516 4.07739 6.74707 3.93115 6.74414 3.83813C6.74121 3.76611 6.75977 3.72607 6.79883 3.71606C6.84473 3.70288 6.85449 3.65698 6.86035 3.46338C6.87012 3.06641 7.01172 2.78076 7.26074 2.65283C7.34473 2.60693 7.38672 2.56421 7.38672 2.51831ZM6.78223 8.18091C6.76367 8.04053 6.73438 7.88623 6.69629 7.73315C6.65039 7.55591 6.60254 7.38867 6.58594 7.3623C6.56641 7.32422 6.55371 7.31226 6.50781 7.3833C6.4707 7.44067 6.41113 7.55176 6.30859 7.74634L6.125 8.09424L6.34082 8.28784C6.45703 8.39282 6.60254 8.54053 6.66406 8.61938L6.77051 8.7605L6.79297 8.63892C6.81152 8.53687 6.80664 8.37158 6.78223 8.18091Z"></path></svg>