<svg xmlns="http://www.w3.org/2000/svg" viewBox="0 0 20 23" height="23" width="20"><title>stupa.svg</title><rect fill="none" x="0" y="0" width="20" height="23"></rect><path fill="#5e758d" transform="translate(1 1)" d="M11.1123 15.5334C14.0547 14.3313 16.1289 11.4402 16.1289 8.06445C16.1289 3.6106 12.5186 0 8.06445 0C3.61035 0 0 3.6106 0 8.06445C0 11.4431 2.07812 14.3364 5.02539 15.5366L7.36914 19.5967C7.67969 20.1345 8.45508 20.1345 8.76562 19.5967L11.1123 15.5334ZM7.76465 3.10522C7.78027 3.08032 7.8125 3.04736 7.83789 3.03027C7.89746 2.99121 8.0332 2.98975 8.09766 3.0271C8.12207 3.04272 8.15625 3.07568 8.17188 3.10205C8.20117 3.14966 8.36914 3.90112 8.50098 4.53833C8.59961 5.01123 8.67773 5.42114 8.66602 5.43311C8.66309 5.43628 8.60156 5.42847 8.53027 5.41455C8.20312 5.35352 7.77539 5.35669 7.43164 5.42236L7.29883 5.4458L7.27051 5.44873C7.24219 5.42065 7.71289 3.18652 7.76465 3.10522ZM5.92969 6.85034C6.37207 6.2627 7.06543 5.88306 7.79688 5.83008L7.96875 5.81592C8.00488 5.80664 8.40332 5.84888 8.52832 5.87524C9.1377 5.99878 9.69531 6.35181 10.0703 6.85034C10.1582 6.96582 10.3125 7.21265 10.3125 7.23779C10.3125 7.2439 9.27148 7.25024 8 7.25024C6.72852 7.25024 5.6875 7.2439 5.6875 7.23779C5.6875 7.21265 5.8418 6.96582 5.92969 6.85034ZM5.42969 8.07056C5.41992 8.15894 5.41406 8.2561 5.41113 8.37061L5.40137 8.65649H6.33398H7.26562V8.29077C7.26562 7.96899 7.27637 7.8269 7.30566 7.72998C7.31055 7.71387 7.29199 7.70752 7.0498 7.70508L6.40723 7.70337H5.50098L5.48535 7.76123C5.45898 7.86157 5.44141 7.95898 5.42969 8.07056ZM7.75488 7.84399C7.77344 7.80493 7.8125 7.75806 7.8418 7.73926C7.88086 7.71289 7.91699 7.70337 7.98438 7.70337C8.08887 7.70337 8.15918 7.74243 8.20898 7.82837C8.23926 7.87842 8.24219 7.91284 8.24707 8.26904L8.25195 8.65649H7.98633H7.71875V8.28467C7.71875 7.92993 7.7207 7.90967 7.75488 7.84399ZM8.69141 7.9187C8.7002 8.00928 8.70312 8.1272 8.70312 8.30811V8.65649H9.65039H10.5986L10.5889 8.37061C10.583 8.11133 10.5615 7.94092 10.5146 7.76123L10.499 7.70337H9.57715H8.65332L8.66406 7.74561C8.67676 7.79785 8.68555 7.85059 8.69141 7.9187ZM4.50488 9.21729C4.52344 9.1875 4.56445 9.15161 4.59375 9.13745C4.64551 9.11108 4.84082 9.10938 8 9.10938C10.1611 9.10938 10.9355 9.11011 11.2256 9.11914C11.3594 9.12329 11.3896 9.12915 11.4062 9.13745C11.4355 9.15161 11.4766 9.1875 11.4951 9.21729C11.5293 9.26733 11.5312 9.28589 11.5312 9.53271V9.79688H8H4.46875V9.53271C4.46875 9.28589 4.4707 9.26733 4.50488 9.21729ZM4.0127 10.4182C4.00293 10.4668 4 10.5342 4 10.6328C4 10.7568 4.00293 10.8264 4.01855 10.873C4.0332 10.917 4.05859 10.9407 4.10352 10.9702C4.14648 10.9985 4.25293 11 8 11C11.7471 11 11.8535 10.9985 11.8965 10.9702C11.9893 10.9094 12 10.8735 12 10.6328C12 10.3782 11.9824 10.3313 11.8701 10.2812C11.8066 10.2517 11.7188 10.25 8 10.25C4.28125 10.25 4.19336 10.2517 4.12988 10.2812C4.06152 10.312 4.02832 10.3416 4.0127 10.4182Z"></path></svg>