<svg xmlns="http://www.w3.org/2000/svg" viewBox="0 0 20 23" height="23" width="20"><title>Subtract-1.svg</title><rect fill="none" x="0" y="0" width="20" height="23"></rect><path fill="#5e758d" transform="translate(1 1)" d="M11.1123 15.5334C14.0547 14.3313 16.1289 11.4402 16.1289 8.06445C16.1289 3.6106 12.5186 0 8.06445 0C3.61035 0 0 3.6106 0 8.06445C0 11.4431 2.07812 14.3364 5.02539 15.5366L7.36914 19.5967C7.67969 20.1345 8.45508 20.1345 8.76562 19.5967L11.1123 15.5334ZM4 7C4 3.08984 4 3.06787 4.0332 3.03394C4.04395 3.02368 4.05273 3.01636 4.08398 3.01123C4.15039 3.00073 4.31641 3 4.7998 3C5.51172 3 5.53516 3.00171 5.56641 3.03394C5.58789 3.05566 5.5957 3.07251 5.59863 4.11914L5.59961 7C5.59961 10.9102 5.59961 10.9321 5.56641 10.9661C5.55078 10.9819 5.53711 10.9902 5.44336 10.9949C5.34668 10.9995 5.16309 11 4.7998 11C4.08789 11 4.06543 10.9983 4.0332 10.9661C4.01465 10.9468 4.00684 10.9314 4.00293 10.2139C4 9.66309 4 8.69824 4 7ZM4.77637 3.99316C4.79492 3.9187 4.76953 3.8645 4.70801 3.8374C4.63477 3.80688 4.4248 3.80688 4.35547 3.83887C4.32715 3.85107 4.30664 3.87036 4.29492 3.89526C4.2832 3.92212 4.28125 3.95532 4.29004 3.99316C4.29785 4.02515 4.32617 4.04932 4.37305 4.0647C4.41309 4.07788 4.4668 4.08472 4.5332 4.08472C4.67676 4.08472 4.76172 4.05249 4.77637 3.99316ZM4.77637 4.67114C4.79492 4.59668 4.76953 4.54248 4.70801 4.51514C4.63477 4.48486 4.4248 4.48486 4.35547 4.51685C4.33496 4.52588 4.31836 4.53857 4.30664 4.55444C4.28516 4.58398 4.2793 4.62402 4.29004 4.67114C4.30469 4.73047 4.38965 4.7627 4.5332 4.7627C4.67676 4.7627 4.76172 4.73047 4.77637 4.67114ZM4.73535 5.20947C4.72754 5.20337 4.71875 5.19775 4.70801 5.19312C4.63477 5.1626 4.4248 5.1626 4.35547 5.19482C4.29688 5.22046 4.27344 5.27637 4.29004 5.34912C4.30469 5.40845 4.38965 5.44067 4.5332 5.44067C4.67676 5.44067 4.76172 5.40845 4.77637 5.34912C4.78809 5.30054 4.78125 5.2605 4.75781 5.23096L4.74805 5.21997L4.73535 5.20947ZM4.77637 6.0271C4.79492 5.95264 4.76953 5.89819 4.70801 5.87109C4.63477 5.84058 4.4248 5.84058 4.35547 5.8728C4.29688 5.89819 4.27344 5.95435 4.29004 6.0271C4.30469 6.08643 4.38965 6.11865 4.5332 6.11865C4.67676 6.11865 4.76172 6.08643 4.77637 6.0271ZM4.77637 6.70508C4.79492 6.63062 4.76953 6.57617 4.70801 6.54907C4.63477 6.51855 4.4248 6.51855 4.35547 6.55078C4.29688 6.57617 4.27344 6.63232 4.29004 6.70508C4.30469 6.7644 4.38965 6.79663 4.5332 6.79663C4.59082 6.79663 4.63867 6.7915 4.67676 6.78149C4.70605 6.77368 4.72949 6.76318 4.74609 6.75L4.76074 6.73486C4.76855 6.72583 4.77344 6.71606 4.77637 6.70508ZM4.70801 7.45093C4.77051 7.42383 4.79492 7.36206 4.78027 7.30835C4.77441 7.28638 4.7627 7.26562 4.74316 7.24927C4.7334 7.24048 4.72168 7.23291 4.70801 7.22705C4.63477 7.19653 4.4248 7.19653 4.35547 7.22876C4.25684 7.27124 4.25879 7.40845 4.3584 7.45093C4.43164 7.48145 4.63477 7.48145 4.70801 7.45093ZM4.77344 8.06714C4.78516 8.04199 4.78711 8.01367 4.78027 7.98706C4.77148 7.95312 4.74707 7.92212 4.70801 7.90503C4.63477 7.87451 4.4248 7.87451 4.35547 7.90674C4.25684 7.94922 4.25879 8.08643 4.3584 8.12891C4.43164 8.15942 4.63477 8.15942 4.70801 8.12891C4.73926 8.11523 4.76074 8.09277 4.77344 8.06714ZM4.77734 8.73486C4.79688 8.6792 4.77441 8.61182 4.70801 8.58301C4.63477 8.55249 4.4248 8.55249 4.35547 8.58472C4.25684 8.6272 4.25879 8.7644 4.3584 8.80688C4.43164 8.8374 4.63477 8.8374 4.70801 8.80688C4.74316 8.7915 4.7666 8.76489 4.77734 8.73486ZM4.70801 9.48486C4.76953 9.45825 4.79395 9.39819 4.78125 9.34521C4.77246 9.3103 4.74805 9.27856 4.70801 9.26099C4.63477 9.23047 4.4248 9.23047 4.35547 9.2627C4.25684 9.30518 4.25879 9.44238 4.3584 9.48486C4.43164 9.51514 4.63477 9.51514 4.70801 9.48486ZM4.70801 10.1626C4.80957 10.1187 4.80957 9.98315 4.70801 9.93896C4.63477 9.90845 4.4248 9.90845 4.35547 9.94067C4.25684 9.98315 4.25879 10.1204 4.3584 10.1626C4.43164 10.1931 4.63477 10.1931 4.70801 10.1626ZM6.0332 3.03394C6.00195 3.06616 6 3.08984 6 3.71191V4.35596H6.7998H7.59961V5.27124C7.59961 6.16431 7.59961 6.18652 7.63379 6.22046C7.67871 6.26611 7.78809 6.26611 7.83301 6.22046C7.84375 6.20947 7.85059 6.19995 7.85547 6.15918C7.86621 6.07251 7.86621 5.84546 7.86621 5.16943C7.86621 4.17456 7.86621 4.15259 7.83301 4.11865C7.80371 4.08813 7.77832 4.08472 7.56641 4.08472H7.33301V3.57617C7.33301 3.08984 7.33203 3.06616 7.2998 3.03394C7.26855 3.00171 7.24512 3 6.66699 3C6.08789 3 6.06543 3.00171 6.0332 3.03394ZM8.2666 4.89819C8.2666 3.08984 8.2666 3.06787 8.2998 3.03394C8.32617 3.00708 8.34473 3.00146 9.24316 3.00024L10.1328 3C11.9111 3 11.9336 3 11.9668 3.03394C12 3.06787 12 3.08984 12 4.89819C12 6.70679 12 6.72876 11.9668 6.7627C11.9336 6.79663 11.9111 6.79663 10.1328 6.79663C8.35449 6.79663 8.33301 6.79663 8.2998 6.7627C8.28906 6.75195 8.28223 6.74243 8.27734 6.67773C8.26855 6.56714 8.2666 6.29443 8.2666 5.57666V4.89819ZM11.2695 3.71777L11.2402 3.70166C11.1582 3.66772 9.09961 3.66772 9.02344 3.70166C8.93848 3.74072 8.93359 3.77637 8.93359 4.427V4.62866C8.93457 4.81177 8.93652 4.92676 8.94434 5.00073C8.94824 5.04419 8.95508 5.07373 8.96484 5.09448C8.97949 5.12817 9.00098 5.13916 9.0332 5.15088C9.07129 5.16431 9.39648 5.16943 10.1367 5.16943H10.1895C10.6143 5.16943 10.873 5.16943 11.0332 5.16382C11.1328 5.16016 11.1943 5.1543 11.2334 5.14502C11.2949 5.13013 11.3008 5.1062 11.3145 5.06787C11.3262 5.0332 11.332 4.79248 11.333 4.52783C11.335 4.19434 11.3281 3.823 11.3145 3.77954L11.3057 3.7583L11.2959 3.74341L11.2812 3.72705L11.2695 3.71777ZM9.2002 4.42383V4.89819H10.1338H11.0664V4.42383V3.94922H10.1338H9.2002V4.42383ZM6 9.10181V6.8645V4.6272H6.66699H7.33301V6.8645V9.10181H6.66699H6ZM8.02637 7.64233C7.98828 7.77808 7.99121 8.01025 8.03516 8.14062C8.11816 8.39331 8.29785 8.57617 8.5498 8.66113C8.63965 8.69141 8.68848 8.69653 8.83691 8.69312L9.0166 8.68652L9.13281 8.80518L9.25 8.92383L9.53613 8.63062L9.8252 8.33887L9.70801 8.22046L9.5918 8.10181L9.59863 7.9187C9.59961 7.84668 9.59961 7.79785 9.5957 7.75635C9.59082 7.71118 9.58203 7.67505 9.56641 7.6272C9.52246 7.49292 9.44727 7.37451 9.35156 7.28149C9.2627 7.19482 9.1543 7.13013 9.03516 7.09497C8.95703 7.07153 8.83203 7.06421 8.7207 7.07178C8.6543 7.07617 8.59277 7.08569 8.54688 7.1001C8.30469 7.17969 8.09863 7.39502 8.02637 7.64233ZM9.02344 7.39819C9.25781 7.51196 9.375 7.80176 9.29004 8.05591C9.27344 8.10376 9.23926 8.15869 9.19629 8.20947C9.16602 8.24561 9.13086 8.27954 9.09473 8.30762C9.07227 8.3252 9.04883 8.34058 9.02637 8.35254C8.98926 8.37256 8.96289 8.38403 8.92969 8.39062C8.89746 8.39673 8.85938 8.39819 8.7998 8.39819C8.67871 8.39819 8.64648 8.3916 8.57324 8.35254C8.46484 8.29492 8.34473 8.15942 8.30957 8.05591C8.29492 8.01196 8.28613 7.96191 8.2832 7.91089C8.2793 7.82397 8.29297 7.73413 8.32324 7.66772C8.45312 7.38135 8.75195 7.26782 9.02344 7.39819ZM10.4248 7.64917C10.4961 7.39673 10.7012 7.17969 10.9463 7.1001C11.0781 7.05762 11.3135 7.05762 11.4482 7.1001C11.5752 7.14062 11.6914 7.21533 11.7861 7.3186C11.9385 7.48315 12 7.64746 12 7.88306C12 8.07446 11.9521 8.23169 11.8516 8.36719C11.8232 8.40576 11.79 8.44263 11.7529 8.47803C11.5801 8.64404 11.4199 8.70166 11.1562 8.69312L10.9834 8.68652L9.87012 9.8186C8.78125 10.9255 8.75684 10.9492 8.69336 10.9492C8.67578 10.9492 8.66113 10.948 8.64844 10.9443C8.62207 10.9368 8.60156 10.9197 8.56934 10.8848C8.53809 10.8508 8.48828 10.7729 8.45996 10.7119C8.41113 10.6101 8.4082 10.5881 8.41016 10.4238C8.41016 10.1187 8.35156 10.1931 9.45508 9.07129L10.4082 8.10181L10.4014 7.92554C10.3984 7.79663 10.4043 7.72192 10.4248 7.64917ZM11.4297 8.35596C11.8076 8.1626 11.8213 7.62207 11.4512 7.41699C11.1035 7.22534 10.6826 7.47974 10.6826 7.88135C10.6826 7.92993 10.6885 7.97656 10.7002 8.02026C10.709 8.05127 10.7197 8.08105 10.7334 8.10913C10.7715 8.1897 10.8291 8.25781 10.8994 8.30884C11.0469 8.4165 11.248 8.44727 11.4297 8.35596ZM10.458 9.57617L10.1748 9.8645L10.708 10.4067C10.998 10.7017 11.1309 10.8364 11.2031 10.8979C11.2373 10.9265 11.2568 10.9392 11.2734 10.9448C11.2852 10.9487 11.2949 10.9492 11.3066 10.9492C11.3594 10.9492 11.3818 10.9373 11.4297 10.8848C11.4619 10.8508 11.5117 10.7729 11.54 10.7119C11.5869 10.6118 11.5918 10.5864 11.5918 10.4321C11.5908 10.2896 11.5889 10.2141 11.5312 10.1179C11.4736 10.021 11.3604 9.90283 11.1367 9.67285L10.873 9.40649C10.7998 9.3335 10.7529 9.28809 10.75 9.28809C10.7471 9.28809 10.6904 9.34277 10.6094 9.42383L10.458 9.57617ZM6.28125 10.1338C5.9834 9.5271 5.9668 9.47461 6.0332 9.40674C6.06445 9.37451 6.08789 9.3728 6.66602 9.3728C7.24512 9.3728 7.26855 9.37451 7.2998 9.40674C7.36621 9.47461 7.34961 9.5271 7.05176 10.1338C6.89453 10.4492 6.75684 10.7119 6.74121 10.7188C6.7207 10.7266 6.68555 10.7297 6.65332 10.7285C6.62891 10.7278 6.60645 10.7244 6.5918 10.7188C6.57617 10.7119 6.43848 10.4492 6.28125 10.1338Z"></path></svg>