<svg xmlns="http://www.w3.org/2000/svg" viewBox="0 0 21 24" height="24" width="21"><title>Subtract.svg</title><rect fill="none" x="0" y="0" width="21" height="24"></rect><path fill="#5e758d" transform="translate(2 2)" d="M11.112 15.5334C14.0551 14.3313 16.129 11.4401 16.129 8.06452C16.129 3.61061 12.5184 0 8.06452 0C3.61061 0 0 3.61061 0 8.06452C0 11.4431 2.07765 14.3365 5.02501 15.5366L7.36915 19.5968C7.67955 20.1344 8.45556 20.1344 8.76596 19.5968L11.112 15.5334ZM9 5.6875H10.5C10.7761 5.6875 11 5.87642 11 6.10938V6.95312C11 7.18608 10.7761 7.375 10.5 7.375H9V10.3281C9 10.5611 8.77609 10.75 8.5 10.75H7.5C7.22391 10.75 7 10.5611 7 10.3281V7.375H5.5C5.22391 7.375 5 7.18608 5 6.95312V6.10938C5 5.87642 5.22391 5.6875 5.5 5.6875H7V4.42188C7 4.18892 7.22391 4 7.5 4H8.5C8.77609 4 9 4.18892 9 4.42188V5.6875Z"></path></svg>