<svg xmlns="http://www.w3.org/2000/svg" viewBox="0 0 21 24" height="24" width="21"><title>supreme_court.svg</title><rect fill="none" x="0" y="0" width="21" height="24"></rect><path fill="#5e758d" transform="translate(2 2)" d="M11.1123 15.5334C14.0547 14.3313 16.1289 11.4402 16.1289 8.06445C16.1289 3.6106 12.5186 0 8.06445 0C3.61035 0 0 3.6106 0 8.06445C0 11.4431 2.07812 14.3364 5.02539 15.5366L7.36914 19.5967C7.67969 20.1345 8.45508 20.1345 8.76562 19.5967L11.1123 15.5334ZM8.23633 2.53955V2.27075V2H8.5H8.76367V2.27075V2.53955L8.88672 2.56079C9.06055 2.5896 9.22266 2.63965 9.40234 2.72656C9.61719 2.83008 9.85742 2.98584 10.1729 3.21997C10.7734 3.66455 11.1689 3.85986 11.7393 3.99512C11.9365 4.04199 12.1982 4.0813 12.4453 4.10449C12.5967 4.11865 12.7432 4.12695 12.8652 4.12695H12.9951V4.39404V4.65967L12.5352 4.64722C12.2803 4.64014 11.9746 4.62793 11.8535 4.61914C11.7344 4.61035 11.6318 4.60693 11.6289 4.61035C11.626 4.61255 11.6924 4.85352 11.7949 5.21533L12.0049 5.95337L12.3857 7.29102H12.6924H13L12.9912 7.52295C12.9844 7.7146 12.9736 7.77783 12.9385 7.87451C12.7266 8.44775 12.0869 8.82373 11.2568 8.86597C10.4502 8.9082 9.69043 8.56372 9.41699 8.03271C9.32324 7.85522 9.29004 7.70752 9.29004 7.47021V7.29102H9.58691H9.88184L10.2803 5.89185C10.502 5.12354 10.6768 4.49072 10.6738 4.48901C10.6719 4.48584 10.6279 4.47729 10.5742 4.46631L10.5547 4.46265C10.4912 4.45044 10.2402 4.39404 9.99609 4.33618C9.49219 4.21826 9.20215 4.16748 8.94434 4.1499L8.76367 4.13916V6.83936V9.54102L9.85547 10.2705L10.9492 11H8.5H6.05078L7.14453 10.2705L8.23633 9.54102V6.84277V4.14453H8.1416C7.91895 4.14453 7.58301 4.20068 7.00781 4.33789C6.80957 4.38354 6.57715 4.43628 6.48926 4.45386C6.40332 4.46973 6.32812 4.4856 6.32617 4.48901C6.32324 4.49072 6.49805 5.12354 6.71973 5.89185L7.11816 7.29102H7.41309H7.70996V7.47021C7.70996 7.52783 7.70801 7.58032 7.7041 7.62915C7.69043 7.78101 7.6543 7.89844 7.58301 8.03271C7.48828 8.21924 7.28809 8.4248 7.07812 8.55322C6.43555 8.94873 5.45898 8.97681 4.76855 8.61987C4.41113 8.43701 4.17871 8.19092 4.06152 7.8728L4.04004 7.80615C4.02148 7.73853 4.01367 7.66626 4.00879 7.52295L4 7.29102H4.30762H4.61426L4.99512 5.95337L5.26953 4.98633C5.33398 4.75537 5.37305 4.61206 5.37109 4.61035C5.36816 4.60693 5.26562 4.61035 5.14648 4.61914C5.02539 4.62793 4.71973 4.64014 4.4668 4.64722L4.00488 4.65967V4.39404V4.12695H4.13379C4.49512 4.12695 5.03223 4.05835 5.36816 3.96875C5.88965 3.82983 6.25293 3.64355 6.84277 3.20947C7.06836 3.04346 7.25195 2.91895 7.41309 2.82495C7.67383 2.67261 7.87695 2.59985 8.11328 2.56079L8.23633 2.53955ZM6.25098 6.17358L6.21582 6.04834C6.02832 5.38721 5.87207 4.84766 5.86621 4.84766C5.86133 4.84766 5.70508 5.38721 5.5166 6.04834C5.3291 6.70752 5.17285 7.25757 5.16797 7.26807C5.16504 7.27588 5.19238 7.28125 5.27344 7.28491C5.375 7.28931 5.55762 7.29102 5.86621 7.29102C6.15039 7.29102 6.32812 7.28955 6.43262 7.28589C6.5332 7.28247 6.56738 7.27661 6.56543 7.26807C6.55957 7.2583 6.42285 6.77588 6.25098 6.17358ZM11.5342 6.22705L11.4834 6.04834L11.1807 4.99805C11.1523 4.90234 11.1357 4.84766 11.1338 4.84766C11.1299 4.84766 11.0723 5.04321 10.9854 5.34326L10.7842 6.04834L10.749 6.17358C10.5771 6.77588 10.4404 7.2583 10.4346 7.26807C10.4297 7.28564 10.5771 7.29102 11.1338 7.29102C11.6904 7.29102 11.8379 7.28564 11.832 7.26807C11.8271 7.25854 11.6982 6.8042 11.5342 6.22705Z"></path></svg>