<svg xmlns="http://www.w3.org/2000/svg" viewBox="0 0 17 20" height="20" width="17"><title>swimming.svg</title><rect fill="none" x="0" y="0" width="17" height="20"></rect><path fill="#5e758d" transform="translate(0 0)" d="M11.112 15.5334C14.0551 14.3313 16.129 11.4401 16.129 8.06452C16.129 3.61061 12.5184 0 8.06452 0C3.61061 0 0 3.61061 0 8.06452C0 11.4431 2.07765 14.3365 5.02501 15.5366L7.36915 19.5968C7.67955 20.1344 8.45556 20.1344 8.76596 19.5968L11.112 15.5334ZM8.14898 6.95185C8.19238 6.91247 8.21676 6.85906 8.21676 6.80336C8.21676 6.74767 8.19238 6.69425 8.14898 6.65487C8.10558 6.61549 8.04671 6.59336 7.98533 6.59336C7.92396 6.59336 7.86509 6.61549 7.82169 6.65487C7.77829 6.69425 7.75391 6.74767 7.75391 6.80336C7.75391 6.85906 7.77829 6.91247 7.82169 6.95185C7.86509 6.99124 7.92396 7.01336 7.98533 7.01336C8.04671 7.01336 8.10558 6.99124 8.14898 6.95185ZM8.80743 3.57348C8.45683 3.36842 8.04855 3.25933 7.63143 3.25926H5.65429C5.43483 3.26776 5.22729 3.35218 5.07429 3.49519L4.60571 3.91778C4.56587 3.95365 4.54229 4.00178 4.53965 4.05266C4.537 4.10354 4.55548 4.15347 4.59143 4.19259L4.55143 4.2263C4.5084 4.26458 4.48345 4.31654 4.48185 4.3712C4.48025 4.42587 4.50213 4.47896 4.54286 4.51926C4.5638 4.53952 4.58912 4.55564 4.61724 4.56661C4.64536 4.57758 4.67568 4.58318 4.70629 4.58304C4.76581 4.58309 4.82301 4.56207 4.86571 4.52444H4.86857C4.87925 4.5433 4.8927 4.56074 4.90857 4.5763C4.95092 4.61465 5.00816 4.6364 5.06799 4.63688C5.12782 4.63737 5.18547 4.61655 5.22857 4.57889L5.38571 4.43889C5.43474 4.39239 5.49376 4.3555 5.55912 4.33053C5.62448 4.30556 5.6948 4.29302 5.76571 4.2937L5.97143 4.2963H7.49714C7.73475 4.29601 7.96738 4.35801 8.16708 4.47483C8.36679 4.59165 8.52505 4.75832 8.62286 4.95481L9.32 6.34704C9.28398 6.34752 9.24797 6.34873 9.212 6.35067C9.24146 6.49904 9.23071 6.65168 9.18069 6.79544C9.13067 6.9392 9.04287 7.06977 8.92486 7.17589L8.39629 7.65552L8.39543 7.65656C8.01829 7.99515 7.43286 8.0247 7.00829 7.71956C6.91231 7.70747 6.81499 7.70694 6.71886 7.718C6.47771 7.74558 6.25374 7.84582 6.08286 8.00267C6.03456 8.04675 5.97713 8.08174 5.91388 8.10561C5.85062 8.12948 5.78279 8.14177 5.71429 8.14177C5.64578 8.14177 5.57795 8.12948 5.51469 8.10561C5.45144 8.08174 5.39401 8.04675 5.34571 8.00267C5.17246 7.84411 4.94518 7.74342 4.70085 7.71696C4.45651 7.69051 4.2095 7.73985 4 7.85696V5.85185C4.07486 5.78347 4.16389 5.72919 4.26196 5.69216C4.36003 5.65512 4.4652 5.63606 4.57143 5.63606C4.67765 5.63606 4.78283 5.65512 4.8809 5.69216C4.97897 5.72919 5.068 5.78347 5.14286 5.85185C5.18429 5.88996 5.22943 5.92289 5.27714 5.95089C5.27207 5.78702 5.30429 5.62396 5.37179 5.47189C5.43929 5.31982 5.54061 5.18201 5.66943 5.06707L6.06657 4.7067C6.12857 4.65044 6.19629 4.59989 6.26914 4.55556H5.96743L5.76571 4.55296C5.73218 4.55284 5.69898 4.5591 5.66828 4.57134C5.63757 4.58357 5.61003 4.60151 5.58743 4.624L5.42857 4.7653C5.3478 4.8364 5.24355 4.88149 5.13181 4.89367C5.02008 4.90584 4.90703 4.88443 4.81 4.8327C4.71394 4.85067 4.61421 4.84318 4.52271 4.81113C4.43121 4.77907 4.3518 4.7238 4.29397 4.65192C4.23614 4.58004 4.20232 4.49457 4.19655 4.40573C4.19078 4.31688 4.2133 4.2284 4.26143 4.15085C4.24547 4.07606 4.25016 3.99885 4.27509 3.92611C4.30002 3.85337 4.3444 3.78735 4.40429 3.73396L4.874 3.31111C5.07599 3.12403 5.34829 3.01294 5.63657 3H7.63143C8.10317 3.00102 8.56469 3.12482 8.96122 3.3567C9.35776 3.58858 9.67266 3.91882 9.86857 4.30822L10.6986 5.96489C10.7551 5.93378 10.8086 5.89644 10.8571 5.85185C11.1714 5.56407 11.6857 5.56407 12 5.85185V7.85644C11.8608 7.77875 11.704 7.73054 11.5414 7.71541C11.3904 7.3579 11.1363 7.04379 10.8057 6.80593L9.60857 4.41556C9.4362 4.07086 9.15807 3.77852 8.80743 3.57348ZM8.18457 5.23741L7.99143 5.49667C8.11714 5.61593 8.11429 5.80519 7.98571 5.92185L7.80286 6.08778C7.7 6.18111 7.54857 6.19926 7.42286 6.14741L7.38714 6.17981C7.39971 6.18007 7.41286 6.18293 7.42571 6.18889L7.78286 6.36C7.85429 6.3937 7.86857 6.48444 7.81143 6.5363L7.68571 6.65037C7.62857 6.70481 7.53143 6.69185 7.49143 6.62444L7.30286 6.30037C7.29635 6.29004 7.29244 6.27853 7.29143 6.26667L7.26571 6.29C7.32286 6.40148 7.30286 6.54148 7.2 6.63481L7.01714 6.80074C6.88857 6.91741 6.68 6.92 6.54857 6.80852L6.40143 6.89874L6.59714 7.05326C6.54174 7.12307 6.51709 7.20914 6.52804 7.2946C6.53899 7.38005 6.58475 7.4587 6.65633 7.5151C6.7279 7.57151 6.82013 7.60161 6.91491 7.59948C7.00968 7.59735 7.10016 7.56315 7.16857 7.50359L7.17143 7.50593C7.48571 7.74185 7.91714 7.72111 8.19429 7.47222L8.72286 6.99259C8.99714 6.7437 9.02 6.35222 8.76 6.06444L8.756 6.0603C8.81406 6.00467 8.85005 5.93309 8.85829 5.85684C8.86653 5.7806 8.84655 5.70403 8.80151 5.63924C8.75647 5.57444 8.68893 5.52509 8.60955 5.499C8.53017 5.4729 8.44347 5.47153 8.36314 5.49511C8.32086 5.4277 8.266 5.34941 8.18571 5.23741H8.18457ZM7.84 5.14926C7.7962 5.11119 7.74192 5.0845 7.68286 5.072C7.54943 5.16689 7.30171 5.36548 6.84571 5.77926C6.38886 6.19356 6.17143 6.41678 6.068 6.5363C6.10029 6.58556 6.13943 6.6317 6.18571 6.6737L6.256 6.73748L6.44286 6.62185C6.43143 6.53111 6.46 6.43778 6.53714 6.36778L6.72 6.20185C6.82286 6.10852 6.97429 6.09037 7.1 6.14222L7.25714 5.99963C7.2 5.88815 7.22 5.74815 7.32286 5.65481L7.50571 5.48889C7.58 5.42148 7.68286 5.39296 7.78286 5.40333L7.91543 5.22756L7.84 5.14926ZM12 8.18518C11.6857 7.8974 11.1714 7.8974 10.8571 8.18518C10.5429 8.47296 10.0286 8.47296 9.71429 8.18518C9.4 7.8974 8.88571 7.8974 8.57143 8.18518C8.25714 8.47296 7.74286 8.47296 7.42857 8.18518C7.11429 7.8974 6.6 7.8974 6.28571 8.18518C5.97143 8.47296 5.45714 8.47296 5.14286 8.18518C5.068 8.1168 4.97897 8.06252 4.8809 8.02549C4.78283 7.98845 4.67765 7.96939 4.57143 7.96939C4.4652 7.96939 4.36003 7.98845 4.26196 8.02549C4.16389 8.06252 4.07486 8.1168 4 8.18518V10H12V8.18518Z"></path></svg>