<svg xmlns="http://www.w3.org/2000/svg" viewBox="0 0 17 20" height="20" width="17"><title>swimming_pool.svg</title><rect fill="none" x="0" y="0" width="17" height="20"></rect><path fill="#5e758d" transform="translate(0 0)" d="M11.1123 15.5334C14.0547 14.3313 16.1289 11.4402 16.1289 8.06445C16.1289 3.6106 12.5186 0 8.06445 0C3.61035 0 0 3.6106 0 8.06445C0 11.4431 2.07812 14.3364 5.02539 15.5366L7.36914 19.5967C7.67969 20.1345 8.45508 20.1345 8.76562 19.5967L11.1123 15.5334ZM11.5996 9H11.7998C11.9102 9 12 9.11182 12 9.25V9.75C12 9.83813 11.9629 9.91553 11.9082 9.95996C11.877 9.98535 11.8398 10 11.7998 10H11.5996C11.1172 10 10.6914 9.80957 10.4004 9.50244C10.2422 9.66943 10.0439 9.802 9.81836 9.88818C9.62891 9.96045 9.41992 10 9.2002 10C9.01074 10 8.83008 9.9707 8.66309 9.91675C8.40332 9.83276 8.17676 9.68921 8 9.50244C7.70898 9.80957 7.2832 10 6.7998 10C6.31738 10 5.89062 9.80957 5.59961 9.50244C5.30859 9.80957 4.88281 10 4.40039 10H4.2002C4.08984 10 4 9.88818 4 9.75V9.25C4 9.11182 4.08984 9 4.2002 9H4.40039C4.72559 9 4.97266 8.86841 5.10059 8.72021C5.21191 8.59204 5.34668 8.5 5.49805 8.5H5.70215C5.85352 8.5 5.9873 8.59204 6.09863 8.72021C6.22754 8.86841 6.47461 9 6.7998 9C7.12598 9 7.37207 8.86841 7.50098 8.72021C7.56055 8.65161 7.62695 8.59326 7.69922 8.55396C7.76172 8.51978 7.82812 8.5 7.89844 8.5H8.10156C8.25293 8.5 8.3877 8.59204 8.49902 8.72021C8.62793 8.86841 8.87402 9 9.2002 9C9.52539 9 9.77246 8.86841 9.90039 8.72021C9.96875 8.6416 10.0459 8.57666 10.1299 8.53833C10.1836 8.51392 10.2393 8.5 10.2979 8.5H10.502C10.6533 8.5 10.7881 8.59204 10.8984 8.72021C10.9951 8.83179 11.1592 8.93408 11.373 8.97754C11.4434 8.99194 11.5195 9 11.5996 9ZM6.7998 7V8.5C6.56055 8.5 6.41406 8.40381 6.37012 8.35254C6.25586 8.2207 6.12988 8.12866 6 8.07031V4.5C6 3.67285 6.53809 3 7.2002 3C7.51367 3 7.7998 3.15161 8.01465 3.39941C8.25195 3.67358 8.40039 4.06543 8.40039 4.5V4.75C8.40039 4.88818 8.31055 5 8.2002 5H7.7998C7.68945 5 7.59961 4.88818 7.59961 4.75V4.5C7.59961 4.34912 7.5459 4.21362 7.46191 4.12183C7.3916 4.0459 7.2998 4 7.2002 4C6.97949 4 6.7998 4.22437 6.7998 4.5V6H9.2002V4.5C9.2002 4.0979 9.32715 3.73218 9.53418 3.46265C9.75293 3.17773 10.0605 3 10.4004 3C11.0615 3 11.5996 3.67285 11.5996 4.5V4.75C11.5996 4.82031 11.5771 4.88379 11.54 4.92896C11.5039 4.9729 11.4551 5 11.4004 5H11C10.8896 5 10.7998 4.88818 10.7998 4.75V4.5C10.7998 4.22437 10.6201 4 10.4004 4C10.1797 4 10 4.22437 10 4.5V8.07056C9.87012 8.12866 9.74414 8.2207 9.62988 8.35278C9.58594 8.40381 9.43945 8.5 9.2002 8.5V7H6.7998Z"></path></svg>