<svg xmlns="http://www.w3.org/2000/svg" viewBox="0 0 21 24" height="24" width="21"><title>tailor.svg</title><rect fill="none" x="0" y="0" width="21" height="24"></rect><path fill="#5e758d" transform="translate(2 2)" d="M11.1123 15.5334C14.0547 14.3313 16.1289 11.4402 16.1289 8.06445C16.1289 3.6106 12.5186 0 8.06445 0C3.61035 0 0 3.6106 0 8.06445C0 11.4431 2.07812 14.3364 5.02539 15.5366L7.36914 19.5967C7.67969 20.1345 8.45508 20.1345 8.76562 19.5967L11.1123 15.5334ZM10.7725 3.71313C10.8213 3.95801 10.7588 4.20996 10.5986 4.41382L8.77148 6.73901L9.5293 7.70288C9.95508 7.58179 10.415 7.59888 10.8281 7.75073C11.2412 7.90259 11.5811 8.17993 11.7871 8.5332C11.9932 8.88672 12.0518 9.2937 11.9541 9.68213C11.8555 10.0708 11.6064 10.4158 11.251 10.6565C10.8945 10.8975 10.4551 11.0183 10.0088 10.9978C9.5625 10.9773 9.13867 10.8171 8.81152 10.5452C8.48535 10.2732 8.27734 9.90723 8.22461 9.51172C8.19043 9.26147 8.2207 9.00952 8.30957 8.77393C8.36133 8.63721 8.43262 8.5061 8.52246 8.38403L8 7.7207L7.47852 8.38477C7.72363 8.71777 7.8291 9.11719 7.77539 9.5127C7.72266 9.90796 7.51367 10.2739 7.1875 10.5457C6.86035 10.8176 6.43652 10.9775 5.99023 10.9978C5.54395 11.0181 5.10449 10.897 4.74805 10.656C4.39258 10.415 4.14355 10.0696 4.0459 9.68091C3.94824 9.29248 4.00781 8.8855 4.21387 8.53223C4.41992 8.17896 4.75977 7.90186 5.17285 7.75024C5.44238 7.65137 5.73242 7.61011 6.01855 7.62671C6.1709 7.63574 6.32324 7.66113 6.47168 7.70337L7.22949 6.73901L5.40332 4.41382C5.24316 4.21021 5.18066 3.95801 5.22852 3.71313C5.27734 3.46826 5.43262 3.25049 5.66113 3.10767L5.83398 3L8.00098 5.75781L10.167 3L10.3398 3.10767C10.5684 3.25049 10.7236 3.46802 10.7725 3.71313ZM5.31152 9.09692C5.2793 9.16528 5.26367 9.23828 5.26367 9.31226C5.26367 9.46167 5.33008 9.60474 5.44824 9.71021C5.56641 9.81592 5.72754 9.875 5.89453 9.875C6.0625 9.875 6.22266 9.81592 6.3418 9.71021C6.45996 9.60474 6.52637 9.46167 6.52637 9.31226C6.52637 9.23828 6.50977 9.16528 6.47852 9.09692C6.44629 9.02856 6.40039 8.96655 6.3418 8.91431C6.2832 8.86206 6.21289 8.82056 6.13672 8.79224C6.05957 8.76392 5.97754 8.74951 5.89453 8.74951C5.81152 8.74951 5.72949 8.76392 5.65332 8.79224C5.57617 8.82056 5.50684 8.86206 5.44824 8.91431C5.38965 8.96655 5.34277 9.02856 5.31152 9.09692ZM10.1045 8.74951C9.9375 8.74951 9.77637 8.80884 9.6582 8.91431C9.54004 9.01978 9.47363 9.16309 9.47363 9.31226C9.47363 9.37256 9.48438 9.43188 9.50488 9.48804C9.53516 9.57104 9.58789 9.64722 9.6582 9.71021C9.72168 9.76733 9.79785 9.81104 9.88086 9.83887C9.95215 9.86255 10.0283 9.875 10.1045 9.875C10.2725 9.875 10.4326 9.81592 10.5518 9.71021C10.6162 9.65283 10.665 9.58447 10.6963 9.51001C10.7227 9.44727 10.7363 9.38037 10.7363 9.31226C10.7363 9.16309 10.6699 9.01978 10.5518 8.91431C10.4326 8.80884 10.2725 8.74951 10.1045 8.74951Z"></path></svg>