<svg xmlns="http://www.w3.org/2000/svg" viewBox="0 0 20 23" height="23" width="20"><title>tattoo.svg</title><rect fill="none" x="0" y="0" width="20" height="23"></rect><path fill="#5e758d" transform="translate(1 1)" d="M11.1123 15.5334C14.0547 14.3313 16.1289 11.4402 16.1289 8.06445C16.1289 3.6106 12.5186 0 8.06445 0C3.61035 0 0 3.6106 0 8.06445C0 11.4431 2.07812 14.3364 5.02539 15.5366L7.36914 19.5967C7.67969 20.1345 8.45508 20.1345 8.76562 19.5967L11.1123 15.5334ZM5.15137 7.45874C5.17871 7.4436 5.20703 7.43091 5.2373 7.4209L6.55078 6.9043L8.0957 8.44922L7.5791 9.7627C7.56348 9.80884 7.54199 9.85205 7.51465 9.8916C7.49805 9.91528 7.47852 9.9375 7.45801 9.95825C7.43164 9.98486 7.40234 10.0083 7.37109 10.0281C7.33691 10.0493 7.30078 10.0664 7.2627 10.0791L4.5 11L4.42676 10.9268L5.87793 9.47559C5.91797 9.48584 5.95703 9.5 6 9.5C6.27637 9.5 6.5 9.27612 6.5 9C6.5 8.72388 6.27637 8.5 6 8.5C5.72363 8.5 5.5 8.72388 5.5 9C5.5 9.04321 5.51465 9.08179 5.52441 9.12183L4.07324 10.5732L4 10.5L4.9209 7.7373C4.94531 7.66357 4.9873 7.59668 5.04199 7.54175C5.07422 7.50903 5.11133 7.4812 5.15137 7.45874ZM6.9082 6.55957L9.76953 3.44263C10.9336 2.12598 12.8809 4.05444 11.5547 5.22729L8.4375 8.08838L6.9082 6.55957Z"></path></svg>