<svg xmlns="http://www.w3.org/2000/svg" viewBox="0 0 21 24" height="24" width="21"><title>tea.svg</title><rect fill="none" x="0" y="0" width="21" height="24"></rect><path fill="#d97200" transform="translate(2 2)" d="M11.112 15.5334C14.0551 14.3313 16.129 11.4401 16.129 8.06452C16.129 3.61061 12.5184 0 8.06452 0C3.61061 0 0 3.61061 0 8.06452C0 11.4431 2.07765 14.3365 5.02501 15.5366L7.36915 19.5968C7.67955 20.1344 8.45556 20.1344 8.76596 19.5968L11.112 15.5334ZM4.02599 8.21447C4.00663 8.0209 3.99696 7.92427 4.00085 7.84391H4.00163C4.01206 7.63956 4.0811 7.44527 4.19761 7.29233C4.31412 7.13939 4.47133 7.03672 4.6439 7.00085C4.7118 6.98717 4.79569 6.98717 4.96348 6.98717H9.08636C9.25414 6.98717 9.33843 6.98717 9.40632 7.00085C9.49089 7.0185 9.57237 7.05238 9.64747 7.1011H10.5367C10.9248 7.1011 11.297 7.28115 11.5714 7.60163C11.8458 7.92212 12 8.35679 12 8.81002C12 9.26325 11.8458 9.69792 11.5714 10.0184C11.297 10.3389 10.9248 10.5189 10.5367 10.5189H9.69195C9.52175 10.9602 9.24608 11.3347 8.89804 11.5975C8.55001 11.8602 8.14442 12 7.73001 12H6.31982C5.79244 11.9999 5.28344 11.7737 4.88946 11.3642C4.49549 10.9548 4.24398 10.3906 4.18268 9.77886L4.02621 8.21668L4.02599 8.21447ZM10.0494 7.84391C10.0486 7.82432 10.0466 7.80427 10.0447 7.78467H10.5367C10.7696 7.78467 10.9929 7.8927 11.1575 8.08499C11.3222 8.27728 11.4147 8.53808 11.4147 8.81002C11.4147 9.08196 11.3222 9.34276 11.1575 9.53505C10.9929 9.72734 10.7696 9.83537 10.5367 9.83537H9.86169L9.86793 9.77886L10.0244 8.21668C10.0439 8.02164 10.0533 7.92457 10.0494 7.84391ZM7.31731 3.34148C7.31731 3.25091 7.28653 3.16404 7.23172 3.09996C7.17685 3.03595 7.10247 3 7.02492 3C6.94736 3 6.87298 3.03595 6.81811 3.09996C6.6598 3.28489 6.57086 3.53569 6.57086 3.79719C6.57086 4.0587 6.6598 4.3095 6.81811 4.49443C6.91956 4.61292 6.91956 4.80432 6.81811 4.9228C6.76642 4.98759 6.73827 5.07329 6.73961 5.16183C6.74095 5.25038 6.77166 5.33486 6.82528 5.39748C6.8789 5.4601 6.95124 5.49597 7.02706 5.49753C7.10287 5.4991 7.17625 5.46623 7.23172 5.40586C7.39004 5.22092 7.47897 4.97012 7.47897 4.70862C7.47897 4.44711 7.39004 4.19631 7.23172 4.01138C7.18321 3.9545 7.15597 3.87748 7.15597 3.79719C7.15597 3.71691 7.18321 3.63989 7.23172 3.58301C7.28653 3.51893 7.31731 3.43206 7.31731 3.34148ZM5.5614 4.02505C5.5614 3.93448 5.53062 3.84761 5.47581 3.78352C5.42094 3.71952 5.34656 3.68357 5.26901 3.68357C5.19145 3.68357 5.11707 3.71952 5.0622 3.78352L5.01694 3.83639C4.87138 4.00631 4.78319 4.23186 4.76857 4.47161C4.75394 4.71137 4.81387 4.94924 4.93733 5.14154C4.97637 5.2022 4.99534 5.27728 4.99075 5.35297C4.98616 5.42866 4.95833 5.49988 4.91236 5.55351L4.8671 5.60637C4.8154 5.67116 4.78726 5.75685 4.7886 5.8454C4.78994 5.93394 4.82065 6.01843 4.87427 6.08105C4.92789 6.14367 5.00023 6.17954 5.07604 6.1811C5.15186 6.18266 5.22524 6.1498 5.28071 6.08942L5.32598 6.03656C5.47154 5.86663 5.55972 5.64109 5.57435 5.40133C5.58897 5.16158 5.52904 4.92371 5.40558 4.7314C5.36654 4.67074 5.34757 4.59566 5.35216 4.51997C5.35675 4.44428 5.38459 4.37307 5.43055 4.31944L5.47581 4.26658C5.53062 4.20249 5.5614 4.11562 5.5614 4.02505ZM9.26832 4.02505C9.26832 3.93448 9.23754 3.84761 9.18274 3.78352C9.12786 3.71952 9.05348 3.68357 8.97593 3.68357C8.89838 3.68357 8.824 3.71952 8.76912 3.78352L8.72386 3.83639C8.5783 4.00631 8.49011 4.23186 8.47549 4.47161C8.46087 4.71137 8.52079 4.94924 8.64426 5.14154C8.68329 5.2022 8.70226 5.27728 8.69767 5.35297C8.69309 5.42866 8.66525 5.49988 8.61929 5.55351L8.57402 5.60637C8.54527 5.63766 8.52221 5.67539 8.50621 5.71732C8.49022 5.75924 8.48162 5.8045 8.48092 5.85039C8.48023 5.89628 8.48746 5.94187 8.50218 5.98443C8.5169 6.02698 8.5388 6.06564 8.56659 6.0981C8.59438 6.13055 8.62749 6.15614 8.66393 6.17333C8.70037 6.19052 8.7394 6.19896 8.77869 6.19815C8.81799 6.19734 8.85674 6.1873 8.89264 6.16862C8.92854 6.14994 8.96084 6.123 8.98764 6.08942L9.0329 6.03656C9.17846 5.86663 9.26665 5.64109 9.28127 5.40133C9.29589 5.16158 9.23597 4.92371 9.1125 4.7314C9.07347 4.67074 9.0545 4.59566 9.05908 4.51997C9.06367 4.44428 9.09151 4.37307 9.13747 4.31944L9.18274 4.26658C9.23754 4.20249 9.26832 4.11562 9.26832 4.02505Z"></path></svg>