<svg xmlns="http://www.w3.org/2000/svg" viewBox="0 0 21 24" height="24" width="21"><title>telephone.svg</title><rect fill="none" x="0" y="0" width="21" height="24"></rect><path fill="#5e758d" transform="translate(2 2)" d="M11.1123 15.5334C14.0547 14.3313 16.1289 11.4402 16.1289 8.06445C16.1289 3.6106 12.5186 0 8.06445 0C3.61035 0 0 3.6106 0 8.06445C0 11.4431 2.07812 14.3364 5.02539 15.5366L7.36914 19.5967C7.67969 20.1345 8.45508 20.1345 8.76562 19.5967L11.1123 15.5334ZM9.05176 10.7056C6.99414 9.83179 5.33691 8.22095 4.4043 6.18848L4.15234 5.63379C4.05762 5.42529 4.00684 5.20142 4.00098 4.97559C3.99609 4.80444 4.01758 4.63232 4.06445 4.46509C4.12109 4.2644 4.21387 4.07764 4.33691 3.91284C4.45117 3.75928 4.5918 3.625 4.75293 3.51685L5.40137 3.08228C5.47461 3.03296 5.55957 3.00488 5.64648 3.00049C5.67871 2.99902 5.71191 3.00073 5.74414 3.00562C5.79883 3.01392 5.85156 3.03149 5.90039 3.05737C5.95703 3.08789 6.00879 3.12964 6.0498 3.18091L7.23047 4.64502C7.27148 4.69604 7.30176 4.75488 7.31934 4.81787C7.33691 4.88086 7.3418 4.94702 7.33398 5.01196C7.3291 5.04907 7.31934 5.08545 7.30664 5.12036C7.29688 5.14648 7.28516 5.17188 7.27148 5.19604C7.23828 5.25244 7.19336 5.30176 7.1416 5.34082L6.53125 5.79395C7.10449 6.95703 8.0459 7.89844 9.20801 8.4729L9.66113 7.86182C9.69922 7.80908 9.74902 7.76489 9.80566 7.73193C9.86133 7.69873 9.9248 7.67749 9.98926 7.66919C10.0547 7.66064 10.1201 7.66577 10.1836 7.68359C10.2461 7.70142 10.3047 7.73169 10.3555 7.77271L11.8193 8.9541C11.9141 9.03027 11.9766 9.1394 11.9941 9.25928C12.0127 9.37939 11.9854 9.5022 11.918 9.60303L11.4863 10.2466C11.2627 10.5793 10.9297 10.8228 10.5449 10.9336C10.1602 11.0444 9.74805 11.0159 9.38184 10.8528L9.05176 10.7056Z"></path></svg>