<svg xmlns="http://www.w3.org/2000/svg" viewBox="0 0 17 20" height="20" width="17"><title>theatre.svg</title><rect fill="none" x="0" y="0" width="17" height="20"></rect><path fill="#5e758d" transform="translate(0 0)" d="M11.1123 15.5334C14.0547 14.3313 16.1289 11.4402 16.1289 8.06445C16.1289 3.6106 12.5186 0 8.06445 0C3.61035 0 0 3.6106 0 8.06445C0 11.4431 2.07812 14.3364 5.02539 15.5366L7.36914 19.5967C7.51953 19.8572 7.77832 19.9915 8.04102 19.9995C8.32129 20.0083 8.60547 19.874 8.76562 19.5967L11.1123 15.5334ZM4.23535 6.44604V3H11.7646V6.44604H4.23535ZM4.57031 7.50317C4.68066 7.47241 4.85059 7.45703 5.08691 7.45703C5.22363 7.45703 5.33887 7.46216 5.43262 7.47241C5.50098 7.47998 5.55859 7.49023 5.60547 7.50317C5.63867 7.51221 5.66602 7.52173 5.68945 7.53247C5.74414 7.55762 5.77734 7.58887 5.80664 7.6355C5.83008 7.67065 5.84668 7.71997 5.86035 7.78467C5.6416 7.7876 5.46582 7.80469 5.31543 7.84619C5.14746 7.89233 5.01074 7.98462 4.92773 8.1123C4.84473 7.98462 4.70703 7.89233 4.53906 7.84619C4.46973 7.82617 4.39453 7.81396 4.3125 7.80298C4.32715 7.73071 4.3457 7.67383 4.37012 7.6355C4.39355 7.5979 4.41992 7.57031 4.45801 7.54785C4.48633 7.53076 4.52246 7.5166 4.57031 7.50317ZM6.5127 7.50317C6.62207 7.47241 6.79199 7.45703 7.02832 7.45703C7.26562 7.45703 7.43555 7.47241 7.5459 7.50317C7.65723 7.53394 7.70605 7.56934 7.74805 7.6355C7.77148 7.67236 7.78809 7.72314 7.80176 7.7876C7.63184 7.79395 7.48926 7.81079 7.36426 7.84619C7.27051 7.87183 7.18652 7.91138 7.11621 7.96362C7.05957 8.00513 7.0127 8.05493 6.97656 8.1123C6.91895 8.02148 6.83301 7.94946 6.72852 7.89868C6.68457 7.87744 6.6377 7.85986 6.58789 7.84619C6.49121 7.81836 6.38184 7.80298 6.25586 7.79395C6.2627 7.75415 6.27246 7.71997 6.28418 7.69092C6.29199 7.66968 6.30078 7.65112 6.31055 7.6355C6.35254 7.56934 6.40137 7.53394 6.5127 7.50317ZM8.79102 7.46045L8.96973 7.45703C9.20703 7.45703 9.37695 7.47241 9.4873 7.50317C9.59863 7.53394 9.64746 7.56934 9.68945 7.6355C9.71289 7.67236 9.73145 7.72461 9.74414 7.79395C9.67773 7.79883 9.61621 7.80542 9.55762 7.8147C9.50684 7.823 9.45898 7.83325 9.41309 7.84619C9.24414 7.89233 9.10742 7.98315 9.02539 8.1123C8.96875 8.02368 8.88574 7.95288 8.78516 7.90234C8.73926 7.87939 8.68945 7.8606 8.63672 7.84619C8.5127 7.81079 8.36816 7.79395 8.19824 7.7876C8.21191 7.72314 8.22852 7.67236 8.25195 7.6355C8.29395 7.56934 8.34277 7.53394 8.4541 7.50317C8.53418 7.48071 8.64551 7.46655 8.79102 7.46045ZM10.3945 7.50317C10.5039 7.47241 10.6738 7.45703 10.9111 7.45703C11.0527 7.45703 11.1699 7.46265 11.2646 7.47363C11.3291 7.48096 11.3838 7.49072 11.4287 7.50317C11.4766 7.5166 11.5137 7.53101 11.543 7.54834C11.5811 7.5708 11.6064 7.59839 11.6299 7.6355C11.6553 7.67383 11.6738 7.73071 11.6875 7.80298C11.6064 7.81396 11.5312 7.82617 11.4619 7.84619C11.292 7.89233 11.1562 7.98315 11.0742 8.1123C10.9912 7.98315 10.8535 7.89233 10.6855 7.84619C10.5938 7.8208 10.4922 7.80444 10.376 7.79492C10.3027 7.78906 10.2246 7.78589 10.1396 7.78467C10.1533 7.71997 10.1699 7.67065 10.1934 7.6355C10.2354 7.56934 10.2842 7.53394 10.3945 7.50317ZM5.40332 8.11084C5.52148 8.0769 5.70117 8.06152 5.95117 8.06152C6.20215 8.06152 6.38184 8.0769 6.49902 8.11084C6.5752 8.13159 6.625 8.15552 6.66309 8.18921C6.68359 8.20801 6.70117 8.22949 6.71777 8.25537C6.74219 8.29517 6.76074 8.35083 6.77539 8.42261C6.78613 8.47314 6.79492 8.53174 6.80176 8.59839C6.62012 8.60303 6.46875 8.62012 6.33984 8.65698C6.16992 8.70312 6.0332 8.79395 5.95117 8.9231C5.86914 8.79395 5.73145 8.70312 5.56348 8.65698C5.43359 8.62012 5.2832 8.60474 5.10254 8.59839C5.11914 8.43701 5.14453 8.323 5.18652 8.25537C5.20801 8.22046 5.23145 8.1936 5.2627 8.17139C5.29785 8.14673 5.3418 8.12793 5.40332 8.11084ZM7.45215 8.11084C7.56934 8.0769 7.75 8.06152 8 8.06152C8.25 8.06152 8.43066 8.0769 8.54785 8.11084C8.60352 8.12598 8.64551 8.14282 8.67871 8.16382C8.71582 8.1875 8.74219 8.2168 8.7666 8.25537C8.80859 8.323 8.83398 8.43701 8.85059 8.59839C8.66895 8.60303 8.51758 8.62012 8.38867 8.65698C8.21875 8.70312 8.08203 8.79395 8 8.9231C7.91797 8.79395 7.78027 8.70312 7.61133 8.65698C7.55078 8.63965 7.48633 8.6272 7.41504 8.61816C7.33496 8.60767 7.24805 8.60181 7.15137 8.59839C7.16797 8.43701 7.19336 8.323 7.23535 8.25537C7.28027 8.18164 7.33398 8.14307 7.45215 8.11084ZM9.50098 8.11084C9.61816 8.0769 9.79785 8.06152 10.0488 8.06152C10.2988 8.06152 10.4785 8.0769 10.5967 8.11084C10.7158 8.14307 10.7695 8.18311 10.8154 8.25537C10.8379 8.29102 10.8555 8.33936 10.8691 8.40088C10.8818 8.4563 10.8916 8.52197 10.8994 8.59839C10.7178 8.60303 10.5664 8.62012 10.4365 8.65698C10.2676 8.70312 10.1309 8.79395 10.0488 8.9231C10.0039 8.85303 9.94336 8.79419 9.86914 8.74756C9.80762 8.7085 9.7373 8.67798 9.66016 8.65698C9.53125 8.62012 9.38184 8.60474 9.2002 8.59839C9.2168 8.43701 9.24219 8.323 9.28418 8.25537C9.3291 8.18164 9.38281 8.14307 9.50098 8.11084ZM4 8.80933V8.06299C4.2002 8.06616 4.34863 8.08154 4.45117 8.11084C4.56934 8.14307 4.62305 8.18311 4.66797 8.25537C4.69141 8.29175 4.70898 8.3418 4.72363 8.40552C4.73535 8.45996 4.74512 8.52417 4.75195 8.59839C4.57129 8.60303 4.4209 8.62012 4.29004 8.65698C4.17676 8.68774 4.07812 8.73999 4 8.80933ZM11.5498 8.11084C11.6504 8.08154 11.7998 8.06616 12 8.06299V8.80933C11.9209 8.73999 11.8223 8.68774 11.709 8.65698C11.5801 8.62012 11.4307 8.60474 11.249 8.59839C11.2656 8.43701 11.291 8.323 11.333 8.25537C11.3779 8.18164 11.4316 8.14307 11.5498 8.11084ZM4.37891 8.92163C4.49609 8.8877 4.67676 8.87231 4.92578 8.87231C5.17578 8.87231 5.35645 8.8877 5.47363 8.92163C5.59375 8.95386 5.64746 8.9939 5.69238 9.06616C5.77441 9.19849 5.79492 9.50464 5.79785 10H4.05566C4.05859 9.50464 4.0791 9.19849 4.16211 9.06616C4.20801 8.99219 4.26074 8.95386 4.37891 8.92163ZM6.42676 8.92163C6.54492 8.8877 6.72461 8.87231 6.97461 8.87231C7.22559 8.87231 7.40527 8.8877 7.52246 8.92163C7.6416 8.95386 7.69531 8.9939 7.74121 9.06616C7.82324 9.19849 7.84375 9.50464 7.84668 10H6.10449C6.10742 9.50464 6.12793 9.19849 6.20996 9.06616C6.25586 8.99219 6.30957 8.95386 6.42676 8.92163ZM8.47559 8.92163C8.59375 8.8877 8.77344 8.87231 9.02344 8.87231C9.27441 8.87231 9.4541 8.8877 9.57129 8.92163C9.69043 8.95386 9.74414 8.9939 9.79004 9.06616C9.87207 9.19849 9.89258 9.50464 9.89551 10H8.15332C8.15527 9.73413 8.16113 9.52295 8.17969 9.36377C8.19629 9.22607 8.2207 9.12744 8.25879 9.06616C8.30469 8.99219 8.3584 8.95386 8.47559 8.92163ZM10.5244 8.92163C10.6416 8.8877 10.8232 8.87231 11.0723 8.87231C11.3223 8.87231 11.5029 8.8877 11.6201 8.92163C11.7393 8.95386 11.793 8.9939 11.8389 9.06616C11.9209 9.19849 11.9414 9.50464 11.9443 10H10.2021C10.2051 9.50464 10.2256 9.19849 10.3076 9.06616C10.3525 8.99219 10.4062 8.95386 10.5244 8.92163Z"></path></svg>