<svg xmlns="http://www.w3.org/2000/svg" viewBox="0 0 17 20" height="20" width="17"><title>theme_park.svg</title><rect fill="none" x="0" y="0" width="17" height="20"></rect><path fill="#5e758d" transform="translate(0 0)" d="M11.1123 15.5334C14.0547 14.3313 16.1289 11.4402 16.1289 8.06445C16.1289 3.6106 12.5186 0 8.06445 0C3.61035 0 0 3.6106 0 8.06445C0 11.4431 2.07812 14.3364 5.02539 15.5366L7.36914 19.5967C7.67969 20.1345 8.45508 20.1345 8.76562 19.5967L11.1123 15.5334ZM10.6963 7.53491C10.6582 7.57568 10.5645 7.57642 10.4873 7.53687L9.91895 7.24585C9.8418 7.2063 9.78223 7.24609 9.78711 7.33423L9.8125 7.80493C9.81738 7.89282 9.87402 8.01074 9.9375 8.06616C10.001 8.12207 10.0381 8.2373 10.0186 8.32397L9.72559 9.65454C9.7207 9.67529 9.71191 9.69458 9.7002 9.71167C9.68848 9.729 9.67285 9.74341 9.65625 9.75415C9.63867 9.76514 9.61914 9.77246 9.59863 9.77539C9.5791 9.77856 9.55859 9.77734 9.53906 9.77197L9.33496 9.71948C9.29395 9.70923 9.25977 9.68286 9.2373 9.64624C9.22363 9.62231 9.21582 9.59521 9.21387 9.56787C9.21289 9.55298 9.21387 9.53809 9.2168 9.52344L9.41504 8.62329C9.43457 8.53711 9.38184 8.44727 9.29785 8.42407L8.79688 8.28394C8.71289 8.2605 8.5752 8.24194 8.48926 8.24194H8.30859C8.22168 8.24194 8.15137 8.31421 8.15137 8.40186V9.9978C8.15234 10.0408 8.16895 10.0818 8.19824 10.1118C8.22754 10.1418 8.26758 10.1584 8.30859 10.1582H11.7783C11.8193 10.1577 11.8594 10.1746 11.8887 10.2046C11.918 10.2349 11.9346 10.2759 11.9346 10.3188V10.8391C11.9346 10.928 11.8643 11 11.7783 11H4.15625C4.07031 11 4 10.928 4 10.8389V10.3184C4 10.2754 4.01758 10.2344 4.04688 10.2043C4.07617 10.1743 4.11523 10.1575 4.15625 10.1577H7.64551C7.68652 10.158 7.72559 10.1414 7.75488 10.1113C7.78418 10.0813 7.80176 10.0405 7.80176 9.99756V8.40161C7.80176 8.31372 7.73145 8.2417 7.64551 8.2417H7.58203C7.52539 8.24292 7.46875 8.24756 7.41309 8.25562C7.36621 8.26245 7.31934 8.27173 7.27344 8.28345L6.77246 8.42358C6.73242 8.43506 6.69727 8.46191 6.67578 8.49902C6.66309 8.521 6.65527 8.54565 6.65234 8.5708C6.65039 8.58813 6.65137 8.60571 6.65527 8.62305L6.85352 9.52295C6.85742 9.54126 6.8584 9.56006 6.85547 9.57837C6.85254 9.60229 6.84473 9.62524 6.83301 9.646C6.81055 9.68262 6.77637 9.70874 6.73535 9.71924L6.53223 9.77173C6.44824 9.79346 6.36426 9.74072 6.34473 9.6543L6.05176 8.32349C6.0332 8.23706 6.07129 8.12012 6.13672 8.06299L6.36328 7.86597C6.39551 7.83691 6.41602 7.79688 6.42285 7.75293C6.42871 7.70898 6.41992 7.66431 6.39746 7.62671L5.90332 6.83667C5.87891 6.79785 5.83984 6.77197 5.79785 6.76196C5.75879 6.75293 5.7168 6.75708 5.67969 6.77686L5.22949 7.02173C5.15332 7.06274 5.03809 7.04761 4.97461 6.98828L4.94434 6.96045C4.91309 6.92969 4.89258 6.88892 4.88672 6.84448C4.88086 6.80005 4.88965 6.75513 4.91211 6.71655L5.33301 6.03418C5.37793 5.95947 5.37793 5.83716 5.33105 5.76294L5.32422 5.75146C5.27734 5.677 5.30078 5.61646 5.375 5.61646C5.41309 5.61646 5.45703 5.63062 5.49609 5.65356C5.53125 5.67456 5.56348 5.70264 5.58301 5.73364C5.62305 5.7981 5.72656 5.85107 5.8125 5.85107H6.20215C6.25391 5.85107 6.31738 5.86914 6.37402 5.89673C6.41211 5.91528 6.44629 5.93823 6.47168 5.96313L7.3125 6.80127C7.37402 6.86279 7.49512 6.91333 7.58203 6.91309H7.64551C7.68652 6.91333 7.72559 6.89648 7.75488 6.86646C7.78418 6.83643 7.80176 6.79541 7.80176 6.75244V5.20044C7.80176 5.1123 7.73145 5.03979 7.64551 5.03979H4.15625C4.07031 5.03979 4 4.96777 4 4.87939V4.35864C4 4.27051 4.06738 4.17725 4.14941 4.1521L7.82715 3.01929C7.90918 2.99365 8.04492 2.99365 8.12695 3.0188L11.8496 4.15234C11.9326 4.17749 12 4.27026 12 4.35864V4.87964C12 4.96777 11.9297 5.04004 11.8428 5.04004H8.30762C8.22168 5.04004 8.15137 5.1123 8.15137 5.20068V6.75171C8.15137 6.84009 8.19238 6.91211 8.24121 6.91211C8.29004 6.91211 8.39844 6.89087 8.48047 6.86499L8.96875 6.7124C9.05078 6.68677 9.18164 6.69629 9.25977 6.73413L10.623 7.39282C10.7012 7.43042 10.7344 7.49438 10.6963 7.53491Z"></path></svg>