<svg xmlns="http://www.w3.org/2000/svg" viewBox="0 0 20 23" height="23" width="20"><title>ticket.svg</title><rect fill="none" x="0" y="0" width="20" height="23"></rect><path fill="#5e758d" transform="translate(1 1)" d="M16.1289 8.06445C16.1289 11.4402 14.0547 14.3313 11.1123 15.5334L8.76562 19.5967C8.61426 19.8591 8.35254 19.9937 8.08789 20C7.94434 20.0034 7.7998 19.9692 7.67188 19.8975C7.5957 19.8547 7.52441 19.7986 7.46387 19.7292C7.42871 19.6895 7.39746 19.6453 7.36914 19.5967L5.02539 15.5366C2.07812 14.3364 0 11.4431 0 8.06445C0 3.6106 3.61035 0 8.06445 0C12.5186 0 16.1289 3.6106 16.1289 8.06445ZM8.20312 3.05762L8.14844 3.08984C8.11426 3.11499 7.88281 3.33838 7.63281 3.58862L7.17969 4.04346L8.10938 4.97363L9.04004 5.90381H10.2725H11.5039L11.4932 5.85986C11.4717 5.771 11.3809 5.66455 10.9902 5.27539C10.5166 4.80322 10.4912 4.78613 10.2666 4.7876L10.1787 4.79126C10.1338 4.79565 10.0996 4.80371 10.0713 4.81567C9.81934 4.92505 9.58691 4.69214 9.69727 4.44214C9.7168 4.39844 9.72559 4.33887 9.72559 4.24658C9.72754 4.02002 9.70508 3.9873 9.20801 3.49487C8.72363 3.01489 8.71289 3.00537 8.49219 3.00073C8.44043 2.99902 8.39844 3 8.3623 3.00391L8.31445 3.01172L8.28125 3.021C8.25879 3.02905 8.23047 3.04297 8.20312 3.05762ZM5.31934 5.90381L6.08496 5.1377C6.50586 4.71558 6.85449 4.37183 6.8584 4.37183C6.86328 4.37183 7.21191 4.71558 7.63281 5.1377L8.39844 5.90381H6.8584H5.31934ZM4.35547 6.39624C4.2627 6.43066 4.1582 6.50879 4.10059 6.58838C4.0625 6.64111 4.03809 6.67505 4.02246 6.7356C3.99805 6.83447 3.99902 7.00464 4.00195 7.44507C4.00684 8.07202 4.00684 8.08618 4.04297 8.15649C4.09766 8.26904 4.17676 8.34863 4.29395 8.41113L4.35254 8.44434L4.39453 8.47388C4.45215 8.51782 4.4834 8.56494 4.49902 8.62378C4.53516 8.7583 4.46777 8.87085 4.29395 8.96143C4.17676 9.02393 4.09766 9.10376 4.04297 9.21631C4.00684 9.28662 4.00684 9.30078 4.00195 9.93066C3.99902 10.3445 3.99805 10.4932 4.00781 10.5718C4.0127 10.613 4.02051 10.635 4.03125 10.6655C4.07715 10.7891 4.21094 10.9202 4.33496 10.9673L4.42285 11H7.15625H9.8916V8.68628V6.3728L7.15332 6.37427C4.87109 6.37427 4.40332 6.37891 4.35547 6.39624ZM9.17188 7.70923V7.93604H7.41406H5.65527V7.70923V7.48267H7.41406H9.17188V7.70923ZM9.17188 8.64722V8.87402H7.41406H5.65527V8.64722V8.42065H7.41406H9.17188V8.64722ZM9.17188 9.58521V9.81201H7.41406H5.65527V9.58521V9.35864H7.41406H9.17188V9.58521ZM10.3447 11V8.68628V6.37109L10.9824 6.37598L11.6182 6.38062L11.6963 6.41968C11.7969 6.46802 11.9062 6.57764 11.9541 6.67749L11.9932 6.75562V7.42017C11.9932 7.77344 11.9932 7.93872 11.9883 8.02734C11.9834 8.10376 11.9746 8.12305 11.958 8.15649C11.9033 8.26904 11.8232 8.34863 11.7061 8.41113C11.5322 8.50195 11.4658 8.6145 11.501 8.74878C11.5127 8.79102 11.5322 8.8269 11.5625 8.86011C11.5957 8.89575 11.6426 8.92822 11.7061 8.96143C11.7793 9.00049 11.8379 9.04663 11.8848 9.10327C11.9131 9.13696 11.9375 9.17432 11.958 9.21631C11.9932 9.28662 11.9932 9.30078 11.998 9.93066C12 10.2021 12.001 10.3596 11.999 10.458C11.9961 10.5879 11.9873 10.6147 11.9688 10.6655C11.9404 10.7417 11.8809 10.8193 11.8105 10.8789C11.7656 10.917 11.7168 10.9478 11.6689 10.9656C11.5811 10.9985 11.5557 11 10.9619 11H10.3447Z"></path></svg>