<svg xmlns="http://www.w3.org/2000/svg" viewBox="0 0 21 24" height="24" width="21"><title>tobacco.svg</title><rect fill="none" x="0" y="0" width="21" height="24"></rect><path fill="#5e758d" transform="translate(2 2)" d="M11.1123 15.5334C14.0547 14.3313 16.1289 11.4402 16.1289 8.06445C16.1289 3.6106 12.5186 0 8.06445 0C3.61035 0 0 3.6106 0 8.06445C0 11.4431 2.07812 14.3364 5.02539 15.5366L7.36914 19.5967C7.67969 20.1345 8.45508 20.1345 8.76562 19.5967L11.1123 15.5334ZM9.20703 4.13501C9.31152 4.32617 9.4248 4.53418 9.35449 4.98755C9.34473 5.0415 9.34766 5.08789 9.36426 5.11304C9.37305 5.12598 9.38574 5.1333 9.40137 5.1333C9.41016 5.1333 9.42285 5.13159 9.43945 5.12183C9.4502 5.11548 9.46289 5.10596 9.47754 5.09131C10.083 4.42651 9.86035 4.07642 9.62109 3.70142C9.5 3.51196 9.375 3.31567 9.35059 3.06934C9.35059 3.03198 9.32324 3 9.29004 3C9.2627 3 9.24512 3.02222 9.22461 3.06934C8.96191 3.68701 9.07715 3.89819 9.20703 4.13501ZM10.71 7.54492C10.8496 6.75171 10.6221 6.3877 10.4131 6.05249C10.1553 5.63843 9.9248 5.2688 10.4492 4.18774C10.4912 4.10571 10.5244 4.06665 10.5791 4.06665C10.6465 4.06665 10.7012 4.12305 10.7012 4.18774C10.75 4.61914 11 4.9624 11.2422 5.29443C11.7197 5.95068 12.166 6.56299 10.9551 7.72632C10.8828 7.7915 10.832 7.80005 10.8027 7.80005C10.71 7.80005 10.6807 7.6875 10.71 7.54492ZM11.8828 8.45044C11.958 8.52539 12 8.6272 12 8.7334V10.6001C12 10.7061 11.958 10.8079 11.8828 10.8828C11.8438 10.9214 11.7988 10.9512 11.749 10.9712C11.7021 10.99 11.6514 11 11.5996 11H4.40039C4.29395 11 4.19238 10.9578 4.11719 10.8828C4.04199 10.8079 4 10.7061 4 10.6001V8.7334C4 8.6272 4.04199 8.52539 4.11719 8.45044C4.19238 8.37549 4.29395 8.33325 4.40039 8.33325H11.5996C11.7061 8.33325 11.8076 8.37549 11.8828 8.45044ZM7.2002 10.4666H11.0117C11.0312 10.3867 11.0332 10.3035 11.0166 10.2227C11 10.1418 10.9658 10.0659 10.917 10C10.7686 9.80273 10.7686 9.53076 10.917 9.33325C10.9482 9.2915 10.9727 9.24561 10.9912 9.19727C11.002 9.16919 11.0107 9.14014 11.0166 9.1106C11.0244 9.07373 11.0283 9.03638 11.0283 8.99902C11.0273 8.95459 11.0225 8.91016 11.0117 8.8667H7.2002V10.4666ZM6.55176 9.22485C6.57617 9.25 6.61035 9.26392 6.64551 9.26392C6.68164 9.26392 6.71484 9.25 6.74023 9.22485C6.75684 9.20898 6.76758 9.18945 6.77344 9.16821C6.77734 9.15625 6.7793 9.14355 6.7793 9.13062C6.7793 9.09521 6.76562 9.06128 6.74023 9.03638C6.71484 9.01147 6.68164 8.99731 6.64551 8.99731C6.62402 8.99731 6.60352 9.00244 6.58496 9.01172C6.57324 9.01807 6.56152 9.02637 6.55176 9.03638C6.52637 9.06128 6.5127 9.09521 6.5127 9.13062C6.5127 9.16602 6.52637 9.19995 6.55176 9.22485ZM5.97266 9.77417C5.99805 9.79932 6.03223 9.81323 6.06738 9.81323C6.10254 9.81323 6.13672 9.79932 6.16113 9.77417C6.18652 9.74927 6.2002 9.71533 6.2002 9.67993C6.2002 9.64453 6.18652 9.61084 6.16113 9.58569C6.13672 9.56079 6.10254 9.54663 6.06738 9.54663C6.03223 9.54663 5.99805 9.56079 5.97266 9.58569C5.94824 9.61084 5.93359 9.64453 5.93359 9.67993C5.93359 9.71533 5.94824 9.74927 5.97266 9.77417ZM5.39648 9.03638C5.37207 9.06128 5.35742 9.09521 5.35742 9.13062C5.35742 9.16602 5.37207 9.19995 5.39648 9.22485C5.42188 9.25 5.45605 9.26392 5.49121 9.26392C5.52637 9.26392 5.56055 9.25 5.58594 9.22485C5.61035 9.19995 5.625 9.16602 5.625 9.13062C5.625 9.09521 5.61035 9.06128 5.58594 9.03638C5.56055 9.01147 5.52637 8.99731 5.49121 8.99731C5.45605 8.99731 5.42188 9.01147 5.39648 9.03638ZM5.39648 10.321C5.42188 10.3459 5.45605 10.3601 5.49121 10.3601C5.52637 10.3601 5.56055 10.3459 5.58594 10.321C5.61035 10.2959 5.625 10.262 5.625 10.2266C5.625 10.2095 5.62207 10.1926 5.61523 10.177C5.6084 10.1604 5.59863 10.1453 5.58594 10.1323C5.56055 10.1074 5.52637 10.0933 5.49121 10.0933C5.45605 10.0933 5.42188 10.1074 5.39648 10.1323C5.37207 10.1575 5.35742 10.1914 5.35742 10.2266C5.35742 10.262 5.37207 10.2959 5.39648 10.321ZM6.52441 10.1719C6.5166 10.189 6.5127 10.2075 6.5127 10.2266C6.5127 10.262 6.52637 10.2959 6.55176 10.321C6.57617 10.3459 6.61035 10.3601 6.64551 10.3601C6.68164 10.3601 6.71484 10.3459 6.74023 10.321C6.76562 10.2959 6.7793 10.262 6.7793 10.2266C6.7793 10.2083 6.77539 10.1904 6.76855 10.1741C6.7627 10.1587 6.75293 10.1445 6.74023 10.1323C6.71484 10.1074 6.68164 10.0933 6.64551 10.0933C6.61035 10.0933 6.57617 10.1074 6.55176 10.1323C6.54004 10.1438 6.53125 10.1572 6.52441 10.1719ZM4.82129 9.77417C4.8457 9.79932 4.87988 9.81323 4.91504 9.81323C4.9502 9.81323 4.98438 9.79932 5.00977 9.77417C5.03418 9.74927 5.04883 9.71533 5.04883 9.67993C5.04883 9.64453 5.03418 9.61084 5.00977 9.58569C4.98438 9.56079 4.9502 9.54663 4.91504 9.54663C4.87988 9.54663 4.8457 9.56079 4.82129 9.58569C4.7959 9.61084 4.78223 9.64453 4.78223 9.67993C4.78223 9.71533 4.7959 9.74927 4.82129 9.77417Z"></path></svg>