<svg xmlns="http://www.w3.org/2000/svg" viewBox="0 0 21 24" height="24" width="21"><title>toilets.svg</title><rect fill="none" x="0" y="0" width="21" height="24"></rect><path fill="#5e758d" transform="translate(2 2)" d="M11.1123 15.5334C14.0547 14.3313 16.1289 11.4402 16.1289 8.06445C16.1289 3.6106 12.5186 0 8.06445 0C3.61035 0 0 3.6106 0 8.06445C0 11.4431 2.07812 14.3364 5.02539 15.5366L7.36914 19.5967C7.67969 20.1345 8.45508 20.1345 8.76562 19.5967L11.1123 15.5334ZM4.89648 4.00073C4.89453 3.99902 11.1182 4.00073 11.1182 4.00073C11.71 4.00073 12 4.31152 12 4.90186V11.1379C12 11.7185 11.71 12 11.1367 12H4.86328C4.6123 12 4.41602 11.9434 4.27441 11.8323C4.0918 11.6892 4 11.4563 4 11.1379V4.90186C4 4.29688 4.32227 4.00073 4.89648 4.00073ZM9.93359 4.97021C9.87305 4.94629 9.80859 4.93433 9.74414 4.9353C9.61621 4.9375 9.49414 4.9895 9.4043 5.08081C9.31445 5.17188 9.26367 5.29443 9.26367 5.42236C9.26367 5.4978 9.28125 5.57153 9.31348 5.63794C9.33594 5.68408 9.36621 5.72681 9.40332 5.76416C9.49316 5.85547 9.61523 5.90771 9.74316 5.90991L9.80469 5.90698C9.84863 5.90234 9.8916 5.8916 9.93262 5.875C9.99316 5.85107 10.0479 5.81543 10.0938 5.77002C10.1396 5.72461 10.1768 5.67065 10.2021 5.61108C10.2266 5.55151 10.2393 5.48755 10.2402 5.42285C10.2402 5.35815 10.2266 5.29419 10.2021 5.23438C10.1768 5.1748 10.1406 5.12085 10.0938 5.07544C10.0479 5.03003 9.99316 4.99438 9.93359 4.97021ZM6.43164 5.00171C6.37207 4.97754 6.30762 4.96582 6.24316 4.9668C6.11523 4.96899 5.99316 5.02124 5.90332 5.1123C5.81348 5.20337 5.7627 5.32617 5.7627 5.4541C5.7627 5.58179 5.8125 5.70459 5.90234 5.79565C5.99219 5.88696 6.11426 5.93921 6.24316 5.94116C6.30762 5.94238 6.37207 5.93042 6.43164 5.90649C6.47363 5.89014 6.51172 5.86792 6.54688 5.84106L6.59277 5.80151C6.63965 5.7561 6.67578 5.70215 6.70117 5.64233C6.72559 5.58276 6.73926 5.5188 6.73926 5.4541C6.73926 5.3894 6.72559 5.32544 6.70117 5.26587C6.67578 5.2063 6.63965 5.1521 6.59277 5.10669C6.56934 5.08398 6.54395 5.06348 6.5166 5.04565C6.49023 5.02832 6.46191 5.01367 6.43164 5.00171ZM7.33594 8.40503C7.37305 8.36865 7.39551 8.31909 7.39648 8.26709V6.8501L7.39551 6.83301V6.58691C7.39551 6.52539 7.38281 6.46436 7.35938 6.40747C7.33594 6.35059 7.30176 6.29907 7.25781 6.25537C7.21387 6.21191 7.16211 6.17725 7.10547 6.15381C7.07812 6.14233 7.04883 6.13379 7.01953 6.12769C6.98828 6.12134 6.95703 6.11816 6.92578 6.11816H5.55762C5.49609 6.11816 5.43457 6.13037 5.37793 6.15381C5.32129 6.17725 5.26953 6.21191 5.22559 6.25537C5.20215 6.27881 5.18066 6.30469 5.16309 6.33252C5.14746 6.3562 5.13477 6.3811 5.12402 6.40747C5.10059 6.46436 5.08789 6.52539 5.08789 6.58691V6.83301L5.08691 6.8501V8.26709C5.08691 8.32007 5.1084 8.37085 5.14551 8.4082C5.16406 8.42676 5.18652 8.44116 5.20996 8.45117C5.23438 8.46118 5.26074 8.46655 5.28711 8.46655C5.33984 8.46655 5.39062 8.44556 5.42871 8.4082C5.46582 8.37085 5.48633 8.32007 5.48633 8.26709V6.87109H5.62109L5.62207 8.46655V10.7212C5.62207 10.7917 5.64941 10.8594 5.7002 10.9092C5.75 10.959 5.81738 10.9871 5.8877 10.9871C5.95898 10.9871 6.02637 10.959 6.07617 10.9092C6.12598 10.8594 6.1543 10.7917 6.1543 10.7212V8.46655H6.33008V10.7212L6.33301 10.7593C6.33594 10.7812 6.3418 10.8025 6.35059 10.823C6.36328 10.8552 6.38281 10.8845 6.4082 10.9092C6.43262 10.9338 6.46191 10.9534 6.49414 10.9668C6.52637 10.9802 6.56152 10.9871 6.5957 10.9871C6.61621 10.9871 6.63672 10.9849 6.65625 10.9805L6.69824 10.9668C6.73047 10.9534 6.75977 10.9338 6.78418 10.9092C6.80176 10.8921 6.81641 10.8728 6.82812 10.8521L6.8418 10.823C6.85547 10.7908 6.8623 10.7561 6.8623 10.7212L6.86328 8.46655V6.87109H6.99707V8.26709C6.99805 8.31909 7.01953 8.36865 7.05762 8.40503C7.09473 8.44116 7.14453 8.46167 7.19629 8.46167C7.24902 8.46167 7.29883 8.44116 7.33594 8.40503ZM7.78516 10.9551H8.12988V4.9458H7.78516V10.9551ZM10.8193 8.23413C10.8652 8.26074 10.9199 8.26782 10.9707 8.25415C11.0225 8.24048 11.0654 8.20703 11.0918 8.16138C11.1191 8.11548 11.126 8.06128 11.1123 8.01025L10.6748 6.38916L10.6572 6.34741C10.6387 6.29053 10.6074 6.23901 10.5654 6.19702C10.5518 6.18286 10.5361 6.16992 10.5195 6.15796C10.4551 6.11108 10.377 6.08569 10.2959 6.08545H9.18848C9.10449 6.08569 9.02344 6.11328 8.95703 6.16406C8.89062 6.21509 8.84277 6.28638 8.82129 6.36694L8.81348 6.3894L8.38379 8.01025C8.37695 8.03833 8.37598 8.06738 8.38184 8.09546C8.38672 8.11743 8.39453 8.13867 8.40625 8.1582C8.43359 8.20288 8.47656 8.23535 8.52637 8.24854C8.57617 8.26196 8.62988 8.25537 8.67578 8.23022C8.7207 8.20483 8.75488 8.16309 8.76953 8.11328L9.10742 6.84009H9.24805L8.63477 9.1438H9.21191V10.7344C9.21191 10.7727 9.22168 10.8101 9.24121 10.843C9.25098 10.8604 9.2627 10.8765 9.27734 10.8909C9.31934 10.9324 9.375 10.9558 9.43457 10.9558C9.49316 10.9558 9.5498 10.9324 9.59082 10.8909C9.63281 10.8494 9.65625 10.793 9.65625 10.7344V9.1438H9.83203V10.7344C9.83203 10.7729 9.84277 10.8105 9.86133 10.8438C9.87109 10.8608 9.88281 10.8767 9.89746 10.8909C9.93945 10.9326 9.99512 10.9558 10.0547 10.9558C10.1133 10.9558 10.1699 10.9326 10.2109 10.8909C10.2529 10.8494 10.2764 10.793 10.2764 10.7344V9.1438H10.8535L10.2383 6.84009H10.3828L10.7266 8.11328C10.7402 8.16431 10.7734 8.20776 10.8193 8.23413Z"></path></svg>