<svg xmlns="http://www.w3.org/2000/svg" viewBox="0 0 20 23" height="23" width="20"><title>toll_booth.svg</title><rect fill="none" x="0" y="0" width="20" height="23"></rect><path fill="#5e758d" transform="translate(1 1)" d="M11.1123 15.5334C14.0547 14.3313 16.1289 11.4402 16.1289 8.06445C16.1289 3.6106 12.5186 0 8.06445 0C3.61035 0 0 3.6106 0 8.06445C0 11.4431 2.07812 14.3364 5.02539 15.5366L7.36914 19.5967C7.67969 20.1345 8.45508 20.1345 8.76562 19.5967L11.1123 15.5334ZM4.70605 3.09009C4.76367 3.03247 4.8418 3 4.92285 3H8.00098C8.08203 3 8.16113 3.03247 8.21875 3.09009C8.27637 3.14771 8.30859 3.22607 8.30859 3.30762C8.30859 3.3894 8.27637 3.46753 8.21875 3.52515C8.16113 3.58301 8.08203 3.61548 8.00098 3.61548H7.69336V7.48608L11.3496 5.03149C11.417 4.98608 11.5 4.96948 11.5801 4.98511C11.6602 5.00073 11.7305 5.04761 11.7764 5.11499L11.9473 5.37036C11.9697 5.40405 11.9863 5.44165 11.9941 5.4812C12.002 5.521 12.002 5.56177 11.9941 5.60132C11.9863 5.64111 11.9707 5.67871 11.9482 5.7124C11.9258 5.74609 11.8975 5.7749 11.8643 5.79761L7.69336 8.59937V10.3845H8.61621C8.69824 10.3845 8.77637 10.417 8.83398 10.4749C8.8916 10.5325 8.92383 10.6106 8.92383 10.6924C8.92383 10.7739 8.8916 10.8523 8.83398 10.9099C8.80273 10.9412 8.76562 10.9651 8.72461 10.9802C8.69043 10.9932 8.65332 11 8.61621 11H4.30762C4.22656 11 4.14746 10.9675 4.08984 10.9099C4.03223 10.8523 4 10.7739 4 10.6924C4 10.6106 4.03223 10.5325 4.08984 10.4749C4.14746 10.417 4.22656 10.3845 4.30762 10.3845H4.61523V3.30762C4.61523 3.22607 4.64746 3.14771 4.70605 3.09009ZM5.25977 4.40991C5.24121 4.44971 5.23145 4.49365 5.23145 4.53857V7C5.23145 7.08154 5.26367 7.15991 5.32129 7.21753C5.35059 7.24683 5.38477 7.26953 5.42188 7.28491C5.45801 7.2998 5.49805 7.30762 5.53906 7.30762H6.76953C6.85156 7.30762 6.92969 7.27539 6.9873 7.21753C7.04492 7.15991 7.07715 7.08154 7.07715 7V4.53857C7.07715 4.45679 7.04492 4.37866 6.9873 4.3208C6.92969 4.26318 6.85156 4.23071 6.76953 4.23071H5.53906C5.45703 4.23071 5.37891 4.26318 5.32129 4.3208C5.29492 4.34692 5.27441 4.3772 5.25977 4.40991Z"></path></svg>