<svg xmlns="http://www.w3.org/2000/svg" viewBox="0 0 21 24" height="24" width="21"><title>town_hall.svg</title><rect fill="none" x="0" y="0" width="21" height="24"></rect><path fill="#299091" transform="translate(2 2)" d="M11.1123 15.5334C14.0547 14.3313 16.1289 11.4402 16.1289 8.06445C16.1289 3.6106 12.5186 0 8.06445 0C3.61035 0 0 3.6106 0 8.06445C0 11.4431 2.07812 14.3364 5.02539 15.5366L7.36914 19.5967C7.59766 19.9927 8.07812 20.0972 8.43945 19.9102C8.56934 19.843 8.68359 19.7385 8.76562 19.5967L11.1123 15.5334ZM8.92285 5.57153H11.3848L12 6.21436V6.85718H4V6.21436L4.61523 5.57153H7.07715V3.64282L8 3L8.92285 3.64282V5.57153ZM8.43066 4.47852C8.43066 4.15723 8.24609 3.96436 8 3.96436C7.88281 3.96436 7.76562 4.0083 7.6748 4.08228C7.5752 4.16333 7.50781 4.28003 7.50781 4.41431C7.50781 4.7356 7.75391 4.92847 8 4.92847C8.12988 4.92847 8.24316 4.89258 8.32031 4.81128C8.38965 4.73877 8.43066 4.63013 8.43066 4.47852ZM4.61523 10.0715V7.5H11.3848V10.0715L12 11.0356V12H4V11.0356L4.61523 10.0715ZM5.8457 11.0356H6.46191V8.14282H5.8457V11.0356ZM7.69238 8.14282V11.0356H8.30762V8.14282H7.69238ZM9.53809 11.0356H10.1543V8.14282H9.53809V11.0356Z"></path></svg>