<svg xmlns="http://www.w3.org/2000/svg" viewBox="0 0 21 24" height="24" width="21"><title>toys.svg</title><rect fill="none" x="0" y="0" width="21" height="24"></rect><path fill="#5e758d" transform="translate(2 2)" d="M11.1123 15.5334C14.0547 14.3313 16.1289 11.4402 16.1289 8.06445C16.1289 3.6106 12.5186 0 8.06445 0C3.61035 0 0 3.6106 0 8.06445C0 11.4431 2.07812 14.3364 5.02539 15.5366L7.36914 19.5967C7.67969 20.1345 8.45508 20.1345 8.76562 19.5967L11.1123 15.5334ZM9 9.33325C9 9.79565 9.29785 10.1689 9.66699 10.1689C10.0352 10.1689 10.333 9.79565 10.333 9.33325C10.333 8.87549 10.0352 8.5022 9.66699 8.5022C9.29785 8.5022 9 8.87549 9 9.33325ZM7 5.83545C7 6.29321 7.44922 6.66675 8 6.66675C8.55078 6.66675 9 6.29321 9 5.83545C9 5.37329 8.55078 5 8 5C7.44922 5 7 5.37329 7 5.83545ZM5.66699 9.33325C5.66699 9.79565 5.96484 10.1689 6.33301 10.1689C6.70215 10.1689 7 9.79565 7 9.33325C7 8.87549 6.70215 8.5022 6.33301 8.5022C5.96484 8.5022 5.66699 8.87549 5.66699 9.33325ZM8.33301 5.66675C8.33301 5.48438 8.18262 5.33325 8 5.33325C7.90625 5.33325 7.82129 5.37305 7.75977 5.43677C7.70215 5.49683 7.66699 5.57812 7.66699 5.66675C7.66699 5.84888 7.81738 6 8 6C8.18262 6 8.33301 5.84888 8.33301 5.66675ZM10.5957 7.08887C10.7197 7.03101 10.8574 7 11 7C11.5557 7 12 7.44434 12 8C12 8.55566 11.5557 9 11 9H10.9736C10.9912 9.10669 11 9.22217 11 9.33325C11 10.2534 10.4043 11 9.66699 11C9.21777 11 8.82227 10.72 8.57812 10.2932C8.3916 10.3201 8.2002 10.3333 8 10.3333C7.7998 10.3333 7.60938 10.3201 7.42188 10.2932C7.20898 10.665 6.88184 10.9253 6.50293 10.9863C6.44727 10.9954 6.39062 11 6.33301 11C5.5957 11 5 10.2534 5 9.33325C5 9.22217 5.00879 9.10669 5.02637 9H5C4.44434 9 4 8.55566 4 8C3.99902 7.89819 4.01465 7.79712 4.04492 7.70068C4.06445 7.6394 4.08984 7.57983 4.12012 7.52295C4.19922 7.37622 4.31445 7.25195 4.4541 7.16138C4.59375 7.0708 4.75391 7.0166 4.91992 7.00391C5.08594 6.99121 5.25293 7.02051 5.4043 7.08887C5.50195 6.96533 5.61426 6.85034 5.74023 6.74463C5.8916 6.61841 6.0625 6.50562 6.24902 6.40894C6 6.05786 5.84473 5.62231 5.84473 5.15552V5.12891C5.36426 5.02222 5 4.59106 5 4.07544C5 3.48438 5.48438 3 6.0752 3C6.38184 3 6.66699 3.12891 6.85352 3.33325C7.19629 3.11572 7.59375 3 8 3C8.40625 3 8.80371 3.11572 9.14648 3.33325C9.33301 3.12891 9.61816 3 9.9248 3C10.3008 3 10.6328 3.19604 10.8252 3.49072C10.9355 3.65942 11 3.86035 11 4.07544C11 4.59546 10.6357 5.02661 10.1514 5.12891V5.15552C10.1514 5.62231 10 6.05322 9.74707 6.40894C9.95703 6.51636 10.1445 6.64355 10.3086 6.78735C10.415 6.8811 10.5107 6.98193 10.5957 7.08887Z"></path></svg>