<svg xmlns="http://www.w3.org/2000/svg" viewBox="0 0 20 23" height="23" width="20"><title>trade.svg</title><rect fill="none" x="0" y="0" width="20" height="23"></rect><path fill="#5e758d" transform="translate(1 1)" d="M11.1123 15.5334C14.0547 14.3313 16.1289 11.4402 16.1289 8.06445C16.1289 3.6106 12.5186 0 8.06445 0C3.61035 0 0 3.6106 0 8.06445C0 11.4431 2.07812 14.3364 5.02539 15.5366L7.36914 19.5967C7.67969 20.1345 8.45508 20.1345 8.76562 19.5967L11.1123 15.5334ZM6.83203 5.5564L8.04297 4.3313C8.25488 4.11719 8.51953 4 8.79297 4C9.01953 4 9.24414 4.0813 9.43457 4.23438L10.3428 4.96094L10.3916 5H10.4004V7.95044L8.66211 5.9502L8.92383 5.69702C9.01172 5.61108 9.02734 5.45483 8.95898 5.34546C8.88965 5.23608 8.76465 5.21729 8.67773 5.30176L7.43652 6.50806C7.21973 6.71899 6.90625 6.66431 6.74512 6.38623C6.59277 6.12524 6.63086 5.75952 6.83203 5.5564ZM7.68164 6.90332L8.32715 6.27515L10.0049 8.19727C10.249 8.47705 10.2646 8.95215 10.041 9.25684C9.90723 9.43945 9.71973 9.52051 9.53809 9.49683C9.44238 9.48462 9.34863 9.44385 9.26465 9.37402C9.23828 9.46606 9.19727 9.55518 9.1416 9.63184C8.91797 9.93652 8.53711 9.95679 8.29395 9.677L8.08105 9.43335C8.05762 9.54907 8.01172 9.65991 7.94238 9.75513C7.71875 10.0615 7.33984 10.0835 7.09473 9.80371L5.95215 8.50049H5.59961V5L6.5 4.25C6.61523 4.1543 6.74219 4.08472 6.875 4.04395C6.96777 4.01538 7.06348 4.00098 7.16016 4.00146C7.31836 4.00146 7.47461 4.04053 7.62012 4.11719L6.58008 5.16895C6.21387 5.53931 6.14355 6.20483 6.4209 6.6814C6.71582 7.18774 7.28711 7.28784 7.68164 6.90332ZM4 5.25C4 5.11255 4.08984 5 4.2002 5H5.2002V8.50049C5.2002 8.7771 5.02148 9.00049 4.7998 9.00049H4.40039C4.17871 9.00049 4 8.7771 4 8.50049V5.25ZM4.74121 8.07373C4.7041 8.02661 4.65332 8.00049 4.59961 8.00049C4.54688 8.00049 4.49609 8.02661 4.45898 8.07373C4.4209 8.12061 4.40039 8.18408 4.40039 8.25049C4.40039 8.31665 4.4209 8.38037 4.45898 8.42725C4.49609 8.47412 4.54688 8.50049 4.59961 8.50049C4.65332 8.50049 4.7041 8.47412 4.74121 8.42725C4.7793 8.38037 4.7998 8.31665 4.7998 8.25049C4.7998 8.18408 4.7793 8.12061 4.74121 8.07373ZM10.7998 8.50049V5H11.7998C11.9102 5 12 5.11255 12 5.25V8.50049C12 8.7771 11.8213 9.00049 11.5996 9.00049H11.2002C10.9785 9.00049 10.7998 8.7771 10.7998 8.50049ZM11.2588 8.07373C11.2207 8.12061 11.2002 8.18408 11.2002 8.25049C11.2002 8.31665 11.2207 8.38037 11.2588 8.42725C11.2959 8.47412 11.3467 8.50049 11.4004 8.50049C11.4531 8.50049 11.5039 8.47412 11.541 8.42725C11.5791 8.38037 11.5996 8.31665 11.5996 8.25049C11.5996 8.18408 11.5791 8.12061 11.541 8.07373C11.5225 8.05054 11.501 8.03223 11.4775 8.01978C11.4531 8.00708 11.4268 8.00049 11.4004 8.00049C11.3467 8.00049 11.2959 8.02661 11.2588 8.07373Z"></path></svg>