<svg xmlns="http://www.w3.org/2000/svg" viewBox="0 0 21 24" height="24" width="21"><title>tram_stop.svg</title><rect fill="none" x="0" y="0" width="21" height="24"></rect><path fill="#4898ff" transform="translate(2 2)" d="M11.1123 15.5334C14.0547 14.3313 16.1289 11.4402 16.1289 8.06445C16.1289 3.6106 12.5186 0 8.06445 0C3.61035 0 0 3.6106 0 8.06445C0 11.4431 2.07812 14.3364 5.02539 15.5366L7.36914 19.5967C7.67969 20.1345 8.45508 20.1345 8.76562 19.5967L11.1123 15.5334ZM6.47754 3.30347C6.42285 3.23877 6.43066 3.09814 6.49219 3.04468C6.54395 3 6.57715 3 8.5 3C10.4229 3 10.4561 3 10.5078 3.04468C10.5488 3.08032 10.5654 3.1543 10.5566 3.21899C10.5518 3.25146 10.541 3.28174 10.5225 3.30347C10.4893 3.34155 10.4434 3.34814 10.083 3.35718L9.68164 3.36841L9.43652 3.85938C9.30273 4.12939 9.1875 4.36841 9.17969 4.38843C9.16699 4.42627 9.22852 4.42847 10.2812 4.42847H11.3955L11.5371 4.48657C11.7246 4.5625 11.835 4.65625 11.9258 4.81909L12 4.95312V8V11.0469L11.9326 11.1697C11.8535 11.3215 11.7422 11.4241 11.5752 11.5C11.4521 11.5581 11.4258 11.5603 10.9375 11.5715L10.4297 11.5825L10.9062 12.1606C11.1338 12.4365 11.2549 12.5864 11.3174 12.678C11.3711 12.7554 11.3828 12.7913 11.3828 12.8259C11.3828 12.9375 11.3125 13 11.1816 13C11.1279 13 11.0654 12.9866 11.043 12.9709C11.0293 12.9629 10.9854 12.916 10.9287 12.8508L10.8037 12.7031L10.6074 12.4644H8.5H6.39258L6.19629 12.7053C6.08594 12.8372 5.98047 12.9575 5.95703 12.9709C5.93457 12.9866 5.87207 13 5.81836 13C5.6875 13 5.61719 12.9375 5.61719 12.8259C5.61719 12.75 5.67383 12.6697 6.09375 12.1606L6.57031 11.5825L6.0625 11.5715C5.57422 11.5603 5.54785 11.5581 5.4248 11.5C5.3291 11.4565 5.25195 11.4045 5.18848 11.3396C5.1416 11.2908 5.10156 11.2349 5.06738 11.1697L5 11.0469V8V4.95312L5.07422 4.81909C5.16504 4.65625 5.27539 4.5625 5.46289 4.48657L5.60449 4.42847H6.71875C7.12305 4.42847 7.48047 4.42456 7.6748 4.41919C7.77441 4.4165 7.83105 4.41357 7.83105 4.41064C7.83105 4.40186 7.71777 4.16284 7.57617 3.88159L7.32422 3.36841L6.91992 3.35718C6.55664 3.34814 6.51074 3.34155 6.47754 3.30347ZM8.9375 3.90405C9.06348 3.64966 9.17383 3.42188 9.18164 3.39722C9.19727 3.35938 9.16699 3.35718 8.5 3.35718C7.94922 3.35718 7.80273 3.36377 7.8125 3.38403L8.05957 3.88623C8.1377 4.0437 8.20801 4.19043 8.25098 4.28516C8.27832 4.34619 8.29395 4.38574 8.29395 4.39282C8.29395 4.42188 8.33008 4.42847 8.5 4.42847C8.65137 4.42847 8.70605 4.42188 8.70605 4.39966C8.70605 4.38403 8.80859 4.16064 8.9375 3.90405ZM9.28711 5.20093C9.31543 5.10278 9.27734 5.03125 9.18164 4.99561C9.05566 4.95093 7.93359 4.95093 7.8125 4.9978C7.72266 5.03125 7.68652 5.10498 7.71289 5.20093C7.74316 5.30591 7.84375 5.32153 8.5 5.32153C9.15625 5.32153 9.25684 5.30591 9.28711 5.20093ZM11.1768 9.07153V7.46436V5.85718H8.5H5.82324V7.46436V9.07153H8.5H11.1768ZM7.23926 10.3215C7.23926 10.1116 7.0918 9.92188 6.87305 9.84375C6.65723 9.76562 6.38184 9.81689 6.2168 9.96655C5.85938 10.2947 6.12207 10.8325 6.6416 10.8347C6.97949 10.8347 7.23926 10.6116 7.23926 10.3215ZM10.9453 10.3215C10.9453 10.1116 10.7979 9.92188 10.5791 9.84375C10.3633 9.76562 10.0879 9.81689 9.92285 9.96655C9.56543 10.2947 9.83301 10.8347 10.3525 10.8347C10.6846 10.8347 10.9453 10.6094 10.9453 10.3215ZM10.124 11.875C10.0234 11.7522 9.94141 11.634 9.94141 11.6116C9.94141 11.5737 9.87695 11.5715 8.5 11.5715C7.12305 11.5715 7.05859 11.5737 7.05859 11.6116C7.05859 11.634 6.97656 11.7522 6.87598 11.875L6.69629 12.0959L7.59668 12.1028C8.09375 12.105 8.90625 12.105 9.40332 12.1028L10.3037 12.0959L10.124 11.875Z"></path></svg>