<svg xmlns="http://www.w3.org/2000/svg" viewBox="0 0 20 23" height="23" width="20"><title>travel_agency.svg</title><rect fill="none" x="0" y="0" width="20" height="23"></rect><path fill="#5e758d" transform="translate(1 1)" d="M11.1123 15.5334C14.0547 14.3313 16.1289 11.4402 16.1289 8.06445C16.1289 3.6106 12.5186 0 8.06445 0C3.61035 0 0 3.6106 0 8.06445C0 11.4431 2.07812 14.3364 5.02539 15.5366L7.36914 19.5967C7.67969 20.1345 8.45508 20.1345 8.76562 19.5967L11.1123 15.5334ZM5.2002 3H8C8.31836 3 8.62305 3.15796 8.84863 3.43945C9.07324 3.7207 9.2002 4.10229 9.2002 4.5V5H8.40039V4H4.7998V7.5H6.7998V10L6 9.98511L5.2002 11H4.7998V10.5L5.2002 10C4.96289 10 4.73242 9.91211 4.53711 9.75049C4.4707 9.69556 4.4082 9.63208 4.35156 9.56055C4.12598 9.2793 4 8.89771 4 8.5V4.5C4 4.10229 4.12598 3.7207 4.35156 3.43945C4.57617 3.15796 4.88184 3 5.2002 3ZM5.34277 8.03271C5.29785 8.01123 5.24902 8 5.2002 8C5.09375 8 4.99219 8.05273 4.91699 8.14648C4.8418 8.24023 4.7998 8.36743 4.7998 8.5C4.7998 8.63257 4.8418 8.75977 4.91699 8.85352C4.99219 8.94727 5.09375 9 5.2002 9C5.30566 9 5.4082 8.94727 5.48242 8.85352C5.55762 8.75977 5.59961 8.63257 5.59961 8.5C5.59961 8.36743 5.55762 8.24023 5.48242 8.14648C5.44238 8.09619 5.39453 8.05762 5.34277 8.03271ZM11.04 5.5C11.2197 5.5 11.3721 5.62988 11.4277 5.83008L12 7.88501V10.6399C12 10.8301 11.8721 11 11.7197 11H11.4756C11.3242 11 11.2002 10.8101 11.2002 10.6201V10H8V10.6201C8 10.8101 7.87988 11 7.72754 11H7.48047C7.32812 11 7.2002 10.8301 7.2002 10.6399V7.88501L7.77246 5.83008C7.83203 5.62988 7.98047 5.5 8.16406 5.5H11.04ZM11.04 6H8.16406L7.75195 7.5H11.4521L11.04 6ZM7.7168 8.85352C7.79199 8.94727 7.89355 9 8 9C8.10645 9 8.20801 8.94727 8.2832 8.85352C8.33105 8.79297 8.36621 8.71851 8.38477 8.6377C8.39453 8.59326 8.40039 8.54688 8.40039 8.5C8.40039 8.36743 8.35742 8.24023 8.2832 8.14648C8.20801 8.05273 8.10645 8 8 8C7.89355 8 7.79199 8.05273 7.7168 8.14648C7.64258 8.24023 7.59961 8.36743 7.59961 8.5C7.59961 8.63257 7.64258 8.75977 7.7168 8.85352ZM10.917 8.85352C10.9922 8.94727 11.0938 9 11.2002 9C11.3057 9 11.4082 8.94727 11.4824 8.85352C11.5332 8.79004 11.5693 8.71143 11.5869 8.62622C11.5947 8.58545 11.5996 8.54297 11.5996 8.5C11.5996 8.36743 11.5576 8.24023 11.4824 8.14648C11.4082 8.05273 11.3057 8 11.2002 8C11.0938 8 10.9922 8.05273 10.917 8.14648C10.8418 8.24023 10.7998 8.36743 10.7998 8.5C10.7998 8.63257 10.8418 8.75977 10.917 8.85352Z"></path></svg>