<svg xmlns="http://www.w3.org/2000/svg" viewBox="0 0 21 24" height="24" width="21"><title>veterinary.svg</title><rect fill="none" x="0" y="0" width="21" height="24"></rect><path fill="#ba272a" transform="translate(2 2)" d="M16.1289 8.06445C16.1289 11.4402 14.0547 14.3313 11.1123 15.5334L8.76562 19.5967C8.45508 20.1345 7.67969 20.1345 7.36914 19.5967L5.02539 15.5366C2.07812 14.3364 0 11.4431 0 8.06445C0 3.6106 3.61035 0 8.06445 0C12.5186 0 16.1289 3.6106 16.1289 8.06445ZM4.96094 3.11304C4.9541 3.12939 4.94824 3.14844 4.94434 3.17114C4.93945 3.20605 4.9375 3.24976 4.9375 3.30786V3.46558L4.72266 3.47192C4.59473 3.47485 4.54004 3.47705 4.49316 3.49023C4.46387 3.49829 4.4375 3.5105 4.39746 3.52979C4.25391 3.6001 4.12988 3.72339 4.05957 3.86719L4.00684 3.97656L4.00195 4.66406C3.99707 5.25146 4 5.37354 4.02344 5.5C4.10059 5.93604 4.30078 6.31885 4.61621 6.63281C4.70312 6.71875 4.80859 6.81396 4.85254 6.84375L4.93457 6.89844L4.94043 7.05469L4.94434 7.13647C4.94727 7.16846 4.95117 7.19312 4.95703 7.21655C4.96191 7.23486 4.96875 7.25244 4.97754 7.27222L5 7.32031C5.06445 7.45459 5.19238 7.5874 5.31543 7.64697L5.40332 7.68896L5.41016 7.9187C5.41406 8.1438 5.41602 8.15161 5.46777 8.25781C5.49902 8.323 5.5459 8.3877 5.60059 8.44385C5.65723 8.5022 5.72168 8.55103 5.78516 8.5813L5.87305 8.625L5.87891 8.90942C5.88477 9.16089 5.8916 9.2124 5.92871 9.33594C6.09766 9.8999 6.50293 10.3062 7.07227 10.4797L7.21289 10.522L8.04199 10.5281L8.87109 10.5327L8.94531 10.6172C9.16406 10.8625 9.50293 11 9.88965 11C10.0371 11 10.1719 10.9839 10.2949 10.9512C10.4824 10.9009 10.6436 10.8118 10.7842 10.6812C10.9834 10.4954 11.0693 10.3093 11.0693 10.0593C11.0693 9.60303 10.7314 9.01709 10.3242 8.77344C10.2783 8.74585 10.2305 8.72314 10.1816 8.70508C10.1426 8.69043 10.1016 8.67896 10.0605 8.67065C9.86035 8.62964 9.64844 8.66382 9.46777 8.77344C9.20898 8.92822 8.98242 9.20947 8.83691 9.55151C8.77246 9.70459 8.72266 9.89697 8.72266 9.99219V10.0657L8.03906 10.0579C7.74414 10.0549 7.55957 10.0527 7.43066 10.0447C7.22168 10.0315 7.15918 10.0029 7.00977 9.92969C6.77246 9.81396 6.59375 9.63745 6.47852 9.39844C6.43652 9.31274 6.4082 9.2417 6.38867 9.16187C6.36816 9.07568 6.3584 8.97925 6.35156 8.84229L6.34082 8.62964L6.41406 8.59375C6.58594 8.51099 6.72168 8.35938 6.7832 8.18115C6.80859 8.10791 6.81445 8.04834 6.81445 7.89062V7.69067L6.90527 7.64697C7.02832 7.5874 7.15723 7.45459 7.2207 7.32031C7.24902 7.26147 7.26367 7.22754 7.27148 7.17896C7.27637 7.14746 7.27832 7.10962 7.28027 7.05469L7.28711 6.89844L7.36816 6.84375C7.41211 6.81396 7.51855 6.71875 7.60449 6.63281C7.75879 6.47974 7.88574 6.3103 7.9834 6.12573C8.02344 6.05127 8.05859 5.97412 8.08887 5.89478C8.1377 5.76562 8.1748 5.63013 8.19922 5.48901L8.20801 5.42529C8.21289 5.38135 8.21582 5.32861 8.21777 5.25366C8.21973 5.18799 8.2207 5.10547 8.21973 4.99731L8.21875 4.66089L8.21484 3.97656L8.16113 3.86719C8.09082 3.72339 7.96777 3.6001 7.82324 3.52979C7.71875 3.47974 7.70605 3.47656 7.5 3.47192L7.28418 3.46558V3.30786C7.28418 3.17822 7.27734 3.14062 7.25391 3.10303C7.20508 3.03125 7.14648 3 7.04883 3C6.95215 3 6.89258 3.03125 6.84375 3.10303C6.81641 3.14526 6.81445 3.18604 6.81445 3.70312C6.81445 4.22021 6.81641 4.26099 6.84375 4.30322C6.89258 4.375 6.95215 4.40625 7.04883 4.40625C7.10254 4.40625 7.14453 4.39697 7.17871 4.37695C7.20703 4.36011 7.23145 4.33594 7.25391 4.30322C7.26367 4.28687 7.27051 4.27051 7.27539 4.24634C7.28223 4.21509 7.28418 4.17041 7.28418 4.09521V3.93286L7.42871 3.94067C7.50098 3.94458 7.55371 3.95166 7.59473 3.96533C7.64844 3.9834 7.68066 4.01294 7.71094 4.0625C7.7334 4.09717 7.74121 4.1145 7.74414 4.28369L7.74512 4.71094C7.74316 5.34375 7.73535 5.42822 7.65625 5.66406C7.57129 5.90771 7.39941 6.17188 7.20996 6.34229C7.14844 6.39697 7.11035 6.43018 7.08203 6.44678C7.04102 6.47095 7.02051 6.46021 6.98047 6.42969C6.96191 6.41553 6.92871 6.39697 6.89258 6.38013L6.82031 6.3501C6.7793 6.33472 6.75391 6.32568 6.69629 6.32031C6.61328 6.3125 6.46484 6.3125 6.1123 6.3125C5.4375 6.3125 5.41309 6.31567 5.25488 6.42188C5.23145 6.43823 5.21387 6.44971 5.19727 6.45508C5.18262 6.45996 5.16895 6.45996 5.15332 6.45386C5.12207 6.44214 5.08301 6.40747 5.01074 6.34229C4.90527 6.24707 4.80469 6.1228 4.72266 5.98901C4.65723 5.8833 4.60254 5.77173 4.56543 5.66406C4.5332 5.56836 4.5127 5.49756 4.5 5.40479C4.49023 5.33765 4.48438 5.25879 4.48145 5.15063C4.47754 5.04053 4.47656 4.90039 4.47559 4.71094C4.47559 4.12817 4.47559 4.11572 4.50977 4.0625C4.56348 3.9751 4.62402 3.94995 4.79199 3.94067L4.9375 3.93286V4.09521C4.9375 4.22803 4.94336 4.26562 4.9668 4.30322C5.01562 4.375 5.0752 4.40625 5.17188 4.40625C5.26855 4.40625 5.32812 4.375 5.37695 4.30322C5.39062 4.28296 5.39746 4.2627 5.40137 4.18921C5.40527 4.1106 5.40625 3.9707 5.40625 3.70312C5.40625 3.44482 5.40625 3.30542 5.40332 3.22534C5.39941 3.14502 5.3916 3.12427 5.37695 3.10303L5.35254 3.07129L5.32129 3.04321C5.2998 3.02661 5.27637 3.01514 5.24805 3.0083C5.22559 3.00269 5.2002 3 5.17188 3C5.14941 3 5.12988 3.00146 5.11133 3.00439C5.08301 3.00879 5.06055 3.01709 5.04102 3.02979C5.01758 3.04517 4.99902 3.05981 4.98438 3.07666C4.97461 3.08765 4.9668 3.09961 4.96094 3.11304ZM9.25 7.18579C9.33984 7.00464 9.47559 6.8811 9.66309 6.81079C9.73242 6.78589 9.7793 6.78125 9.91992 6.78589C10.0781 6.78906 10.0996 6.7937 10.2012 6.84375C10.3457 6.91235 10.4688 7.03589 10.5391 7.17969C10.5908 7.28589 10.5928 7.2937 10.5928 7.48438C10.5928 7.67505 10.5908 7.68286 10.5391 7.78906C10.4688 7.93286 10.3457 8.05615 10.2012 8.125C10.1592 8.14551 10.1309 8.15845 10.1006 8.16699C10.0586 8.17847 10.0137 8.18164 9.92773 8.18433C9.86621 8.18652 9.82324 8.18652 9.78809 8.18359L9.72949 8.17505L9.6709 8.15771C9.47852 8.09058 9.34082 7.96704 9.25 7.78271C9.20215 7.68286 9.2002 7.67188 9.2002 7.48438C9.2002 7.39429 9.2002 7.34497 9.20605 7.30688C9.21289 7.26562 9.22559 7.23779 9.25 7.18579ZM8.25488 7.74829C8.1582 7.78442 8.07617 7.83472 8.00684 7.89941C7.94043 7.96069 7.88574 8.03516 7.8418 8.12329C7.81641 8.177 7.80371 8.20508 7.79785 8.24829C7.79199 8.28589 7.79199 8.33496 7.79199 8.42188C7.79199 8.51392 7.79199 8.56348 7.79785 8.60181C7.80469 8.6416 7.81738 8.66943 7.8418 8.72021C7.93262 8.90454 8.07031 9.02808 8.2627 9.09521C8.30176 9.10889 8.33301 9.1167 8.37207 9.12036C8.40918 9.12402 8.45312 9.12402 8.51953 9.12183C8.66797 9.11719 8.69434 9.11084 8.79297 9.0625C8.9375 8.99365 9.06055 8.87036 9.13086 8.72656C9.18262 8.62036 9.18457 8.61255 9.18457 8.42188C9.18457 8.2312 9.18262 8.22339 9.13086 8.11719C9.06055 7.97339 8.9375 7.84985 8.79297 7.78125C8.69141 7.7312 8.66992 7.72656 8.51172 7.72339C8.37109 7.71875 8.32422 7.72339 8.25488 7.74829ZM10.6572 8.12329C10.7471 7.94214 10.8828 7.8186 11.0703 7.74829C11.1396 7.72339 11.1865 7.71875 11.3271 7.72339C11.4854 7.72656 11.5068 7.7312 11.6084 7.78125C11.7529 7.84985 11.876 7.97339 11.9463 8.11719C11.998 8.22339 12 8.2312 12 8.42188C12 8.61255 11.998 8.62036 11.9463 8.72656C11.876 8.87036 11.7529 8.99365 11.6084 9.0625C11.5098 9.11084 11.4834 9.11719 11.335 9.12183C11.2695 9.12402 11.2256 9.12402 11.1885 9.12061C11.1494 9.11694 11.1182 9.10889 11.0781 9.09521C10.8857 9.02808 10.748 8.90454 10.6572 8.72021C10.6094 8.62036 10.6074 8.60938 10.6074 8.42188C10.6074 8.23438 10.6094 8.22339 10.6572 8.12329Z"></path></svg>