<svg xmlns="http://www.w3.org/2000/svg" viewBox="0 0 17 20" height="20" width="17"><title>video_games.svg</title><rect fill="none" x="0" y="0" width="17" height="20"></rect><path fill="#5e758d" transform="translate(0 0)" d="M11.1123 15.5334C14.0547 14.3313 16.1289 11.4402 16.1289 8.06445C16.1289 3.6106 12.5186 0 8.06445 0C3.61035 0 0 3.6106 0 8.06445C0 11.4431 2.07812 14.3364 5.02539 15.5366L7.36914 19.5967C7.67969 20.1345 8.45508 20.1345 8.76562 19.5967L11.1123 15.5334ZM11.3975 6.19629L11.9834 9.10474C11.9941 9.15674 12 9.20972 12 9.26294C12 9.67017 11.6709 10 11.2656 10C11.0049 10 10.7744 9.86279 10.6445 9.65698L9.68555 8.47534C9.52734 8.61963 9.31934 8.69971 9.10449 8.69971C8.62793 8.69971 8.24023 8.31128 8.24023 7.83252H7.77344C7.77344 8.31177 7.38672 8.69971 6.91016 8.69995C6.69043 8.69971 6.47949 8.6167 6.32031 8.46753L5.35547 9.65698C5.22461 9.86328 4.99512 10 4.73438 10C4.32812 10 3.99902 9.67017 4 9.26318C3.99902 9.20874 4.00586 9.15601 4.0166 9.10474L4.60156 6.19653C4.73145 5.51489 5.32812 4.99976 6.04492 5H9.96875C10.6797 5.00708 11.2686 5.51929 11.3975 6.19629ZM6.76172 6.13818C6.72363 6.0105 6.61621 5.98291 6.52246 6.07715L6.42676 6.1731C6.38184 6.21875 6.35645 6.28027 6.35645 6.34399C6.35645 6.40796 6.38184 6.46924 6.42676 6.51514L6.52344 6.61108C6.61621 6.70532 6.72363 6.67773 6.76074 6.54956L6.76172 6.13818ZM6.31055 5.86499C6.40527 5.77075 6.37793 5.66284 6.25 5.62573L5.84082 5.62622C5.71191 5.66284 5.68457 5.77075 5.7793 5.86475L5.875 5.96069C5.89648 5.98315 5.92383 6.00073 5.95312 6.01294C5.98242 6.02515 6.01367 6.03125 6.04492 6.03125C6.07715 6.03125 6.1084 6.02515 6.1377 6.01294C6.16699 6.00073 6.19336 5.98315 6.21582 5.96069L6.31055 5.86499ZM5.3291 6.54956C5.36621 6.67773 5.47363 6.70532 5.56738 6.61084L5.66309 6.51489C5.69531 6.48218 5.71777 6.44141 5.72754 6.39722C5.73145 6.37988 5.7334 6.36206 5.7334 6.34399C5.7334 6.28003 5.70801 6.21875 5.66309 6.17285L5.56738 6.0769C5.47363 5.98267 5.36621 6.01025 5.3291 6.13818V6.54956ZM5.7793 6.82324C5.68457 6.91748 5.71191 7.02466 5.83984 7.06226L6.25 7.06201C6.37695 7.02466 6.40527 6.91748 6.31152 6.82324L6.21582 6.72729C6.19336 6.70483 6.16699 6.68726 6.1377 6.67505C6.1084 6.66309 6.07715 6.65674 6.04492 6.65674C6.01367 6.65674 5.98242 6.66309 5.95312 6.67505C5.92383 6.68726 5.89648 6.70508 5.875 6.72729L5.7793 6.82324ZM6.33008 7.83228C6.33008 8.15332 6.58984 8.41333 6.90918 8.41309C7.0752 8.41333 7.22461 8.34375 7.33008 8.23218C7.42773 8.12817 7.48828 7.9873 7.48828 7.83228C7.48828 7.51147 7.22949 7.25171 6.91016 7.25122C6.58984 7.25122 6.33008 7.51147 6.33008 7.83228ZM9.74707 5.90259C9.70801 5.87549 9.66113 5.85962 9.61035 5.85962C9.47656 5.85986 9.36914 5.96826 9.36914 6.10181C9.36914 6.2356 9.47656 6.34399 9.61035 6.34351C9.74414 6.34424 9.85156 6.2356 9.85156 6.10156C9.85156 6.01929 9.80957 5.94653 9.74707 5.90259ZM8.52539 7.83228C8.52637 8.15308 8.78516 8.41333 9.10449 8.41333C9.4248 8.41309 9.68359 8.15308 9.68359 7.83228C9.68359 7.51147 9.4248 7.25146 9.10449 7.25122C8.78516 7.25122 8.52637 7.51147 8.52539 7.83228ZM9.3916 6.82788C9.3916 6.96143 9.5 7.07007 9.63281 7.07007C9.76562 7.07007 9.87402 6.96167 9.87402 6.82788C9.87402 6.72021 9.80469 6.62915 9.70801 6.59766C9.68457 6.58984 9.65918 6.58569 9.63281 6.58569C9.5 6.58569 9.3916 6.69409 9.3916 6.82788ZM10.5469 5.85986C10.5469 5.72607 10.4385 5.61768 10.3057 5.61792C10.1719 5.61743 10.0645 5.72583 10.0645 5.85986C10.0645 5.99341 10.1719 6.10181 10.3057 6.10181C10.3779 6.10181 10.4424 6.06982 10.4873 6.01929C10.5244 5.97656 10.5469 5.9209 10.5469 5.85986ZM10.0869 6.58618C10.0869 6.71997 10.1953 6.82812 10.3281 6.82812C10.4609 6.82812 10.5693 6.71973 10.5693 6.58569C10.5693 6.45215 10.4609 6.34399 10.3281 6.34424C10.1953 6.34375 10.0869 6.45239 10.0869 6.58618Z"></path></svg>