<svg xmlns="http://www.w3.org/2000/svg" viewBox="0 0 17 20" height="20" width="17"><title>video.svg</title><rect fill="none" x="0" y="0" width="17" height="20"></rect><path fill="#5e758d" transform="translate(0 0)" d="M11.112 15.5334C14.0551 14.3313 16.129 11.4401 16.129 8.06452C16.129 3.61061 12.5184 0 8.06452 0C3.61061 0 0 3.61061 0 8.06452C0 11.4431 2.07765 14.3365 5.02501 15.5366L7.36915 19.5968C7.67955 20.1344 8.45556 20.1344 8.76596 19.5968L11.112 15.5334ZM9.53073 11.6955C9.04543 11.8965 8.52529 12 8 12C6.93913 12 5.92172 11.5786 5.17157 10.8284C4.42143 10.0783 4 9.06087 4 8C4 6.93913 4.42143 5.92172 5.17157 5.17157C5.92172 4.42143 6.93913 4 8 4C8.52529 4 9.04543 4.10346 9.53073 4.30448C10.016 4.5055 10.457 4.80014 10.8284 5.17157C11.1999 5.54301 11.4945 5.98396 11.6955 6.46927C11.8965 6.95457 12 7.47471 12 8C12 8.52529 11.8965 9.04543 11.6955 9.53073C11.4945 10.016 11.1999 10.457 10.8284 10.8284C10.457 11.1999 10.016 11.4945 9.53073 11.6955ZM9.96756 7.61156L7.45911 6.21778C7.37789 6.17263 7.28628 6.14949 7.19336 6.15065C7.10044 6.1518 7.00944 6.17722 6.92936 6.22437C6.84929 6.27153 6.78293 6.33879 6.73685 6.41948C6.69077 6.50018 6.66658 6.59152 6.66667 6.68444V9.31556C6.66658 9.40848 6.69077 9.49982 6.73685 9.58052C6.78293 9.66121 6.84929 9.72847 6.92936 9.77563C7.00944 9.82278 7.10044 9.8482 7.19336 9.84935C7.28628 9.85051 7.37789 9.82737 7.45911 9.78222L9.96756 8.38844C10.0368 8.34994 10.0945 8.29363 10.1347 8.22533C10.1748 8.15703 10.196 8.07924 10.196 8C10.196 7.92076 10.1748 7.84297 10.1347 7.77467C10.0945 7.70637 10.0368 7.65006 9.96756 7.61156Z"></path></svg>