<svg xmlns="http://www.w3.org/2000/svg" viewBox="0 0 20 23" height="23" width="20"><title>ward.svg</title><rect fill="none" x="0" y="0" width="20" height="23"></rect><path fill="#5e758d" transform="translate(1 1)" d="M16.1289 8.06445C16.1289 11.4402 14.0547 14.3313 11.1123 15.5334L8.76562 19.5967C8.45508 20.1345 7.67969 20.1345 7.36914 19.5967L5.02539 15.5366C2.07812 14.3364 0 11.4431 0 8.06445C0 3.6106 3.61035 0 8.06445 0C12.5186 0 16.1289 3.6106 16.1289 8.06445ZM9.76367 3.02173C9.62207 3.0564 9.49707 3.12573 9.3877 3.22949C9.17285 3.43604 9.10449 3.70044 9.19922 3.95874C9.3252 4.30542 9.74121 4.5249 10.1279 4.45117C10.2852 4.42236 10.4053 4.36597 10.5225 4.26782C10.748 4.07861 10.8359 3.82007 10.7656 3.55151C10.6992 3.29736 10.4365 3.06787 10.1504 3.0144C10.0361 2.99268 9.87012 2.99561 9.76367 3.02173ZM4.85547 4.073C4.86035 4.06714 4.92676 4.05835 4.99902 4.05273L5.15918 4.03979C5.17285 4.03906 5.18066 4.04102 5.18848 4.07715C5.19922 4.12671 5.20801 4.24097 5.22852 4.5022V4.51465L5.26758 5.02588L5.30957 5.59912L5.32129 5.73779L5.24414 5.74658C5.20215 5.7522 5.125 5.75659 5.07617 5.75659C5.02441 5.75659 4.99707 5.75562 4.98145 5.74072C4.96484 5.72412 4.96289 5.69043 4.96191 5.62231C4.95996 5.57324 4.9541 5.51685 4.94727 5.49658C4.93945 5.4751 4.93457 5.58032 4.93262 5.74512C4.93164 5.95728 4.93652 6.03247 4.95215 6.04102C4.95801 6.04443 4.98828 6.04907 5.0293 6.05298L5.12402 6.05981C5.23438 6.06519 5.26465 6.06665 5.27539 6.08179L5.28027 6.09424L5.28125 6.10596L5.28613 6.14648H5.13184C4.96484 6.14648 4.88184 6.12476 4.85254 6.07715C4.8418 6.05835 4.83496 5.9314 4.83496 5.73633V5.42456H4.89258H4.9502L4.94043 5.31909C4.92969 5.21216 4.89746 4.80493 4.86426 4.3457L4.85254 4.15601C4.85156 4.10718 4.85254 4.07568 4.85547 4.073ZM10.292 4.5437C10.1201 4.56519 9.97656 4.62476 9.86914 4.71509C9.76172 4.80566 9.68945 4.92749 9.66211 5.07349C9.6543 5.11792 9.64551 5.14819 9.63672 5.16602C9.63086 5.177 9.625 5.18311 9.61914 5.18481C9.58398 5.19336 9.28711 5.23096 9.02344 5.25977C8.89258 5.27441 8.59863 5.28735 8.26953 5.29297C7.75879 5.30176 7.72852 5.30469 7.66602 5.3335C7.52441 5.40137 7.45898 5.52124 7.46973 5.68726C7.48242 5.85474 7.55469 5.95288 7.71582 6.01929C7.79395 6.05127 7.80664 6.05273 8.25293 6.05127C8.7207 6.0498 9.06348 6.02515 9.54199 5.96021C9.64648 5.9458 9.73438 5.93848 9.73828 5.9458C9.74805 5.95972 9.77051 6.06934 9.7959 6.21094C9.84668 6.49609 9.9082 6.91016 9.89648 6.92773C9.89355 6.93335 9.84863 6.95215 9.79883 6.96948C9.37695 7.11963 9.04297 7.31323 8.74121 7.58325C8.2373 8.03369 7.93848 8.56812 7.77148 9.31592L7.72656 9.51807L7.72852 8.17529L7.73145 6.83228L8.12988 6.82812L8.52637 6.8252L8.52344 6.50317L8.51855 6.18262L7.07812 6.17822L5.63672 6.17529V6.12476C5.63672 6.09009 5.64648 6.07129 5.66797 6.05981C5.71387 6.03809 5.76562 6.04248 5.76562 6.06714C5.76562 6.07764 5.78418 6.08301 5.86621 6.08594L5.98926 6.08789L6.21289 6.08862C6.68848 6.08862 6.68652 6.08862 6.69922 6.01807C6.70117 5.9978 6.71387 5.98047 6.72363 5.97607C6.73242 5.97437 6.7373 5.97754 6.73828 5.98755L6.73535 6.01514L6.72559 6.05981H7.16016H7.5957V6.02661C7.5957 6.00977 7.58984 5.99097 7.5791 5.97168L7.55371 5.93628C7.5293 5.90771 7.49512 5.87988 7.45703 5.85767C7.33887 5.78979 7.17188 5.76807 7.02344 5.80127C6.96777 5.81445 6.95312 5.82446 6.95312 5.85034C6.95312 5.87402 6.93848 5.89526 6.91602 5.90991C6.89648 5.92236 6.87109 5.92993 6.84277 5.92993C6.75391 5.92993 6.68066 5.96606 6.6709 6.0166C6.66211 6.05249 6.64551 6.06567 6.63281 6.05811C6.62305 6.05249 6.61621 6.03589 6.61621 6.00928V5.95874H6.19043C6.01465 5.95874 5.91113 5.95898 5.85059 5.96143C5.77148 5.9646 5.76562 5.97144 5.76562 5.98608C5.76562 5.99292 5.76367 5.99854 5.75977 6.00342C5.75195 6.0127 5.73535 6.01855 5.70898 6.02222C5.66895 6.02979 5.6377 6.05005 5.62012 6.07861C5.61035 6.09497 5.60547 6.11401 5.60547 6.13501V6.17529H5.23242H4.42969L4 6.17383V6.50024V6.8252H4.21484C4.39648 6.8252 4.43164 6.82812 4.43945 6.84814C4.44434 6.86133 4.44922 7.57178 4.44922 8.42944V9.98755H6.08691H7.72363L7.72559 9.84595C7.72559 9.79541 7.72754 9.75488 7.73047 9.73657C7.73145 9.72729 7.7334 9.72363 7.73535 9.72754C7.76172 9.79907 7.80273 9.85669 7.85645 9.90015C7.9248 9.95605 8.01562 9.98877 8.12695 9.99756C8.25781 10.009 8.40625 9.97876 8.51367 9.92114C8.66895 9.83594 8.74902 9.71899 8.7832 9.52539C8.89355 8.89795 9.2002 8.41016 9.67383 8.10571C9.68359 8.10938 9.69336 8.11157 9.70605 8.11157C9.72656 8.11157 9.79297 8.09131 9.85352 8.06665C10.0703 7.97998 10.4922 7.86157 10.6367 7.84863L10.6846 7.84424V8.58081V9.31714L10.4346 9.32153C10.1875 9.32446 10.1826 9.32593 10.1406 9.36353C10.1084 9.39233 10.0996 9.41528 10.0996 9.4646C10.0996 9.54395 10.1523 9.59302 10.248 9.60596C10.2852 9.61035 10.5918 9.61328 10.9287 9.61035C11.5176 9.60596 11.5439 9.60449 11.585 9.57568C11.6641 9.52368 11.6738 9.43848 11.6094 9.36621C11.5898 9.34375 11.5781 9.33569 11.501 9.33081L11.3398 9.32446L11.1025 9.31714L11.0977 8.56934L11.0947 7.82275L11.1621 7.8313C11.2002 7.83569 11.3066 7.85596 11.3994 7.87622C11.6465 7.92944 11.7861 7.90356 11.8955 7.78369C12.0234 7.64355 12.0303 7.47754 11.9365 6.82642L11.873 6.38599V5.50513L11.8682 4.6084C11.8662 4.60059 11.8389 4.5835 11.8154 4.57202C11.7998 4.56421 11.7852 4.55908 11.7793 4.56079L11.7432 4.57373C11.6709 4.59961 11.667 4.62427 11.666 5.53101C11.665 6.05078 11.6631 6.25024 11.6787 6.44849C11.6904 6.59863 11.7129 6.74805 11.7539 7.03564C11.7734 7.16284 11.7891 7.33179 11.791 7.41113V7.49976C11.7881 7.55518 11.7783 7.58179 11.7559 7.62354C11.7256 7.67871 11.6963 7.70703 11.6426 7.71387C11.5947 7.71973 11.5273 7.70923 11.4219 7.68555C11.335 7.66577 11.2451 7.6521 11.1523 7.64429C11.2676 7.58228 11.3623 7.49609 11.415 7.39551C11.4873 7.2627 11.5 7.16016 11.4795 6.91333C11.46 6.67749 11.4551 6.65039 11.3711 6.19287L11.3652 6.1665L11.3525 6.09595C11.2627 5.61377 11.2451 5.4895 11.2305 5.25977C11.2197 5.0896 11.1855 4.97119 11.1211 4.87134C11.0986 4.83765 11.0605 4.79663 11.0156 4.75684C10.9912 4.73511 10.9648 4.71362 10.9385 4.69409C10.8984 4.66406 10.8574 4.63867 10.8232 4.62305C10.667 4.55371 10.46 4.52197 10.292 4.5437Z"></path></svg>