<svg xmlns="http://www.w3.org/2000/svg" viewBox="0 0 21 24" height="24" width="21"><title>waste_basket.svg</title><rect fill="none" x="0" y="0" width="21" height="24"></rect><path fill="#598017" transform="translate(2 2)" d="M11.1123 15.5334C14.0547 14.3313 16.1289 11.4402 16.1289 8.06445C16.1289 3.6106 12.5186 0 8.06445 0C3.61035 0 0 3.6106 0 8.06445C0 11.4431 2.07812 14.3364 5.02539 15.5366L7.36914 19.5967C7.67969 20.1345 8.45508 20.1345 8.76562 19.5967L11.1123 15.5334ZM10.333 4.80005H11.667C11.7773 4.80005 11.875 4.8645 11.9355 4.96362C11.9766 5.02979 12 5.11157 12 5.19995V5.6001C12 5.65503 11.9629 5.69995 11.917 5.69995H11.2871L11.0303 12.2375C11.0137 12.665 10.7207 13 10.3643 13H5.63574C5.28027 13 4.98633 12.6638 4.96973 12.2375L4.71289 5.69995H4.08301C4.03711 5.69995 4 5.65503 4 5.6001V5.19995C4 4.97876 4.14941 4.80005 4.33301 4.80005H5.66699V3.80005C5.66699 3.35864 5.96582 3 6.33301 3H9.66699C10.0342 3 10.333 3.35864 10.333 3.80005V4.80005ZM6.41699 4.80005H9.58301V3.8999H6.41699V4.80005Z"></path></svg>