<svg xmlns="http://www.w3.org/2000/svg" viewBox="0 0 21 24" height="24" width="21"><title>watches.svg</title><rect fill="none" x="0" y="0" width="21" height="24"></rect><path fill="#5e758d" transform="translate(2 2)" d="M16.1289 8.06445C16.1289 11.4402 14.0547 14.3313 11.1123 15.5334L8.76562 19.5967C8.45508 20.1345 7.67969 20.1345 7.36914 19.5967L5.02539 15.5366C2.07812 14.3364 0 11.4431 0 8.06445C0 3.6106 3.61035 0 8.06445 0C12.5186 0 16.1289 3.6106 16.1289 8.06445ZM8.15918 5.59375C8.15918 5.49854 8.12598 5.40698 8.06543 5.3396C8.00586 5.27222 7.92383 5.23438 7.83887 5.23438C7.75391 5.23438 7.67285 5.27222 7.61328 5.3396C7.57812 5.37842 7.55176 5.42529 7.53613 5.47656C7.52539 5.51392 7.51953 5.55347 7.51953 5.59375V7.39062H6.55957C6.47461 7.39062 6.39258 7.42847 6.33301 7.49585C6.27344 7.56323 6.23926 7.65479 6.23926 7.75C6.23926 7.84521 6.27344 7.93677 6.33301 8.00415C6.39258 8.07153 6.47461 8.10938 6.55957 8.10938H7.83887C7.8877 8.10938 7.93652 8.09668 7.97949 8.073C8.01074 8.05566 8.04004 8.03247 8.06543 8.00415C8.12598 7.93677 8.15918 7.84521 8.15918 7.75V5.59375ZM5.28027 12.3018C5.28027 12.9639 5.75781 13.5 6.34668 13.5H9.33301C9.92285 13.5 10.4004 12.9631 10.4004 12.3018V10.9651C11.0508 10.3123 11.4834 9.42993 11.6279 8.46362C11.6738 8.47217 11.7207 8.46948 11.7646 8.45557C11.8096 8.44189 11.8516 8.41724 11.8867 8.38354C11.9053 8.36523 11.9229 8.34448 11.9375 8.32202C11.9502 8.30273 11.9619 8.28223 11.9707 8.2605C11.9902 8.21313 12 8.16162 12 8.10938V7.39062C12 7.33862 11.9893 7.28711 11.9697 7.23999C11.96 7.21655 11.9482 7.19458 11.9346 7.17432C11.9209 7.15332 11.9043 7.13428 11.8867 7.11719C11.8506 7.0835 11.8096 7.05884 11.7646 7.04492C11.7197 7.03101 11.6729 7.02808 11.6279 7.03638C11.5391 6.44531 11.3428 5.8855 11.0557 5.39062C10.873 5.07642 10.6533 4.78833 10.4004 4.53491V3.19824C10.4004 2.53613 9.92188 2 9.33301 2H6.34668C5.75781 2 5.28027 2.53687 5.28027 3.19824V4.53564C4.49414 5.32495 4 6.4729 4 7.75C3.99902 8.35693 4.11328 8.95728 4.33398 9.51123C4.55469 10.0654 4.87695 10.5608 5.28027 10.9651V12.3018ZM10.1025 5.20874C10.7031 5.88281 11.04 6.79688 11.04 7.75C11.04 8.70312 10.7031 9.61719 10.1025 10.2913C9.50293 10.9651 8.68848 11.3438 7.83984 11.3438C7.39453 11.3438 6.95898 11.2395 6.55859 11.043C6.19629 10.865 5.8623 10.6116 5.57715 10.2913C4.97754 9.61719 4.63965 8.70312 4.63965 7.75C4.63965 6.79688 4.97754 5.88281 5.57715 5.20874C5.97656 4.7605 6.4707 4.44287 7.00586 4.28052C7.27539 4.19873 7.55566 4.15625 7.83984 4.15625C8.68848 4.15625 9.50293 4.53491 10.1025 5.20874Z"></path></svg>