<svg xmlns="http://www.w3.org/2000/svg" viewBox="0 0 17 20" height="20" width="17"><title>water_park.svg</title><rect fill="none" x="0" y="0" width="17" height="20"></rect><path fill="#5e758d" transform="translate(0 0)" d="M16.129 8.06452C16.129 11.4401 14.0551 14.3313 11.112 15.5334L8.76596 19.5968C8.45556 20.1344 7.67955 20.1344 7.36915 19.5968L5.02501 15.5366C2.07765 14.3365 0 11.4431 0 8.06452C0 3.61061 3.61061 0 8.06452 0C12.5184 0 16.129 3.61061 16.129 8.06452ZM4 6.65394V10.7071C4 10.7848 4.03011 10.8593 4.08371 10.9142C4.13731 10.9691 4.21001 11 4.28582 11H11.7142C11.79 11 11.8627 10.9691 11.9163 10.9142C11.9699 10.8593 12 10.7848 12 10.7071V7.44184C11.5384 7.617 11.1931 7.8932 10.8616 8.18757V8.18581L10.8467 8.20045L10.6912 8.34046L10.6824 8.34837C10.4529 8.53375 10.1937 8.67686 9.9164 8.77132C9.65116 8.86212 9.32162 8.91396 8.96492 8.93124C8.57896 8.96919 8.19041 8.89425 7.84432 8.71511C7.49823 8.53597 7.20878 8.25997 7.00953 7.9191C6.81028 7.57824 6.7094 7.18648 6.71858 6.78925C6.72775 6.39202 6.84661 6.00559 7.06138 5.67477C7.2297 5.8421 7.4551 5.93552 7.6896 5.93516C7.88796 5.93516 8.07174 5.86955 8.22065 5.75825C8.24266 5.7436 8.25609 5.7354 8.26495 5.73071H8.26552C8.2701 5.73276 8.27781 5.73657 8.28953 5.74302C8.44731 5.86776 8.64102 5.93534 8.8403 5.93516C9.06981 5.93516 9.2796 5.84729 9.4388 5.70289C9.44827 5.69541 9.45865 5.68921 9.46967 5.68444C9.47773 5.68736 9.48541 5.69129 9.49253 5.69615C9.59974 5.79593 9.72886 5.86773 9.86893 5.90547C10.009 5.9432 10.1559 5.94575 10.2971 5.9129C10.3196 5.95181 10.3497 5.98561 10.3854 6.01223C10.4211 6.03884 10.4617 6.05772 10.5048 6.06772C10.5479 6.07771 10.5925 6.0786 10.6359 6.07034C10.6793 6.06208 10.7206 6.04483 10.7573 6.01966C10.794 5.99449 10.8253 5.96192 10.8493 5.92394C10.8733 5.88596 10.8895 5.84337 10.8969 5.79876C10.9043 5.75414 10.9028 5.70846 10.8924 5.66448C10.882 5.6205 10.863 5.57915 10.8364 5.54296C10.9498 5.37844 11.0077 5.18051 11.0014 4.9792C10.9951 4.77788 10.9248 4.58418 10.8014 4.42749C10.6779 4.27079 10.5079 4.15965 10.3172 4.11093C10.1264 4.06222 9.92544 4.07858 9.74462 4.15754C9.73493 4.14456 9.72512 4.13167 9.71518 4.11888C9.75733 4.05476 9.77641 3.97762 9.76917 3.90067C9.76192 3.82372 9.7288 3.75174 9.67548 3.69706C9.62215 3.64238 9.55193 3.60839 9.47685 3.60092C9.40176 3.59345 9.32648 3.61295 9.26388 3.6561C8.81515 3.29466 8.16177 3 7.26317 3C5.65859 3 4 4.66543 4 6.65394ZM6.83644 4.70468C6.80318 4.80272 6.78627 4.9058 6.78642 5.00959C6.78642 5.15927 6.82101 5.30074 6.88274 5.4258C6.61734 5.79801 6.46241 6.24081 6.43655 6.70105C6.41069 7.16128 6.51501 7.61938 6.73697 8.02034C6.95893 8.42131 7.28911 8.7481 7.68787 8.96148C8.08662 9.17486 8.537 9.26576 8.98492 9.22326C9.18685 9.21422 9.388 9.19191 9.58714 9.15648C9.22358 9.33691 8.79971 9.45553 8.28696 9.45553C7.07253 9.45553 5.65859 8.33607 5.65859 6.86834C5.65859 5.78607 6.21679 5.08458 6.83644 4.70468ZM7.07224 5.00959C7.07223 4.89259 7.10389 4.77788 7.16368 4.67821C7.22348 4.57854 7.30907 4.49781 7.41095 4.445C7.51283 4.3922 7.627 4.36937 7.74078 4.37907C7.85456 4.38877 7.96348 4.43061 8.05545 4.49995L8.06174 4.50463L8.0686 4.50873C8.1249 4.54183 8.19264 4.56907 8.27067 4.56819C8.34784 4.56731 8.41929 4.53949 8.48503 4.49116L8.48846 4.48969L8.49818 4.48296C8.59943 4.41361 8.71852 4.3767 8.8403 4.37693C8.96777 4.37693 9.08553 4.41647 9.18357 4.48384L9.19014 4.48823L9.19185 4.4894L9.19443 4.49116L9.21272 4.50492L9.21558 4.50697L9.21786 4.50873C9.29218 4.56116 9.37363 4.59484 9.46538 4.59426C9.5557 4.59397 9.6383 4.56058 9.7149 4.51254L9.7209 4.50873L9.72662 4.50434C9.82043 4.43185 9.93249 4.3883 10.0496 4.3788C10.1668 4.36931 10.2841 4.39427 10.3879 4.45075C10.4916 4.50722 10.5775 4.59288 10.6354 4.69764C10.6934 4.8024 10.7209 4.92193 10.7148 5.04218C10.7088 5.16243 10.6693 5.27841 10.6012 5.37649C10.533 5.47457 10.439 5.55068 10.3301 5.59589C10.2212 5.64109 10.1019 5.65351 9.98639 5.63168C9.87083 5.60986 9.76376 5.55469 9.67774 5.47267L9.66917 5.46476L9.65974 5.45832C9.60057 5.41731 9.53169 5.38656 9.45195 5.39183C9.37478 5.39651 9.31275 5.43401 9.26417 5.47091L9.25845 5.47501L9.25331 5.47999C9.14006 5.58474 8.99285 5.64258 8.8403 5.64226C8.69596 5.64226 8.56306 5.59159 8.45816 5.50635L8.45016 5.49991L8.44159 5.49464C8.38928 5.46359 8.32297 5.42991 8.24294 5.43693C8.16863 5.44338 8.1069 5.4838 8.05974 5.51602L8.05688 5.51807L8.05431 5.52012C7.9623 5.58915 7.85344 5.63072 7.73979 5.64022C7.62614 5.64972 7.51214 5.62677 7.41044 5.57393C7.30873 5.52109 7.2233 5.44042 7.1636 5.34086C7.10391 5.2413 7.07228 5.12674 7.07224 5.00989V5.00959ZM11.5356 5.20271C11.495 5.21886 11.4517 5.2265 11.4082 5.22518C11.3236 5.22261 11.2433 5.18638 11.1844 5.12418C11.1255 5.06198 11.0925 4.97869 11.0925 4.892C11.0925 4.80531 11.1255 4.72203 11.1844 4.65983C11.2433 4.59763 11.3236 4.5614 11.4082 4.55883C11.4517 4.55751 11.495 4.56515 11.5356 4.58129C11.5761 4.59744 11.6131 4.62177 11.6444 4.65284C11.6756 4.68391 11.7004 4.72109 11.7174 4.76217C11.7343 4.80325 11.7431 4.8474 11.7431 4.892C11.7431 4.93661 11.7343 4.98076 11.7174 5.02184C11.7004 5.06292 11.6756 5.10009 11.6444 5.13116C11.6131 5.16223 11.5761 5.18656 11.5356 5.20271ZM11.7115 6.73237C11.7273 6.69079 11.7347 6.6464 11.7334 6.60181C11.7309 6.51516 11.6956 6.43291 11.6349 6.37253C11.5742 6.31214 11.4929 6.27837 11.4083 6.27837C11.3237 6.27837 11.2424 6.31214 11.1817 6.37253C11.121 6.43291 11.0857 6.51516 11.0832 6.60181C11.0819 6.6464 11.0893 6.69079 11.1051 6.73237C11.1209 6.77395 11.1446 6.81186 11.1749 6.84386C11.2052 6.87587 11.2415 6.90131 11.2816 6.91869C11.3217 6.93606 11.3648 6.94501 11.4083 6.94501C11.4518 6.94501 11.4949 6.93606 11.535 6.91869C11.5751 6.90131 11.6114 6.87587 11.6417 6.84386C11.672 6.81186 11.6957 6.77395 11.7115 6.73237ZM8.71255 6.66692C8.67198 6.68307 8.62866 6.69071 8.58515 6.68939C8.50059 6.68682 8.42034 6.65059 8.36141 6.58839C8.30249 6.52619 8.26953 6.44291 8.26953 6.35621C8.26953 6.26952 8.30249 6.18624 8.36141 6.12404C8.42034 6.06184 8.50059 6.02561 8.58515 6.02304C8.62866 6.02172 8.67198 6.02936 8.71255 6.04551C8.75312 6.06165 8.79012 6.08598 8.82135 6.11705C8.85258 6.14812 8.87741 6.1853 8.89436 6.22638C8.91131 6.26746 8.92005 6.31161 8.92005 6.35621C8.92005 6.40082 8.91131 6.44497 8.89436 6.48605C8.87741 6.52713 8.85258 6.56431 8.82135 6.59538C8.79012 6.62644 8.75312 6.65077 8.71255 6.66692Z"></path></svg>