<svg xmlns="http://www.w3.org/2000/svg" viewBox="0 0 17 20" height="20" width="17"><title>waterfall.svg</title><rect fill="none" x="0" y="0" width="17" height="20"></rect><path fill="#5e758d" transform="translate(0 0)" d="M11.1123 15.5334C14.0547 14.3313 16.1289 11.4402 16.1289 8.06445C16.1289 3.6106 12.5186 0 8.06445 0C3.61035 0 0 3.6106 0 8.06445C0 11.4431 2.07812 14.3364 5.02539 15.5366L7.36914 19.5967C7.67969 20.1345 8.45508 20.1345 8.76562 19.5967L11.1123 15.5334ZM10.2822 3.35156C10.5166 3.11304 10.7383 3 10.9629 3C11.1885 2.99976 11.4189 3.11279 11.6641 3.32617C11.8066 3.4856 11.8828 3.66382 11.9756 3.81909L11.7197 3.98755L11.6328 3.83618C11.5693 3.72217 11.5137 3.62207 11.4443 3.54468C11.3447 3.43433 11.2168 3.35254 10.9463 3.31909C10.8154 3.30273 10.6641 3.40161 10.4941 3.57715C10.4277 3.646 10.3604 3.72339 10.293 3.80249L10.2168 3.88965C10.2002 3.82617 10.1787 3.75439 10.1494 3.6853C10.1318 3.64307 10.1113 3.60205 10.0879 3.5647L10.1143 3.53467C10.1689 3.47339 10.2246 3.41138 10.2822 3.35156ZM4 3.92993C4.30176 3.60767 4.71094 3.30273 5.6084 3.29858C5.82031 3.2981 5.95996 3.38281 6.09766 3.5166C6.17773 3.59473 6.25684 3.6897 6.34961 3.79443C6.42969 3.88428 6.55762 4.03296 6.56055 4.19043H6.30859L5.72852 3.61816C4.80469 3.59302 4.50879 3.83887 4.21582 4.15161L4 3.92993ZM7.57617 3.48096C7.73438 3.47461 7.9043 3.47095 8.07422 3.47095C8.17676 3.47095 8.27734 3.47266 8.37793 3.47607C8.59473 3.74927 8.58691 4.04395 8.5918 4.37305C8.60547 4.6687 8.91211 4.55957 8.89453 4.36963V4.3269C8.89062 4.0769 8.88672 3.78101 8.75 3.49585C9.0791 3.52026 9.40723 3.5647 9.71289 3.63721C9.74512 3.64502 9.77246 3.65967 9.79688 3.68457C9.81934 3.70728 9.83984 3.73804 9.85938 3.7793C9.90234 3.86646 9.93457 3.99341 9.95801 4.12354C10.2773 5.96021 10.5127 7.69507 10.7012 9.33838C10.585 9.35254 10.4688 9.38599 10.3584 9.42651L10.2695 8.22119C10.168 8.42188 10.0674 8.34253 9.9668 8.24585L10.0625 9.54614C9.96191 9.5918 9.87695 9.63403 9.81152 9.66919C9.7627 9.60254 9.70605 9.52686 9.64746 9.46338L9.65039 8.79126C9.57324 8.9126 9.48047 8.948 9.34766 8.79126L9.34668 9.21191C9.28906 9.1853 9.22656 9.16968 9.1582 9.16772C8.88086 9.1626 8.65039 9.3667 8.45898 9.56543C8.48047 8.56958 8.4668 7.57202 8.42188 6.57617C8.34277 6.71338 8.26367 6.78906 8.11914 6.59009C8.14453 7.14673 8.16016 7.70288 8.16504 8.25903C8.16895 8.69604 8.16602 9.1333 8.15625 9.5708C8.13086 9.50732 8.10449 9.44238 8.07422 9.37549C7.99023 9.19238 7.88867 9.00586 7.76465 8.85474L7.71387 8.79663L7.71875 8.48389C7.72363 8.23828 7.72754 8.01538 7.71875 7.79541C7.59668 7.98193 7.50586 7.90454 7.41699 7.80591C7.4209 7.91504 7.4209 8.02734 7.4209 8.14502L7.41504 8.58716C7.375 8.57495 7.33301 8.56616 7.28906 8.5625C7.0918 8.55029 6.92383 8.65747 6.7832 8.79126C6.75391 8.81763 6.72754 8.84766 6.7002 8.87744C6.81641 7.27979 6.87207 5.68921 6.86328 4.11108C6.86328 3.95264 6.69141 3.73315 6.56934 3.57642L6.56055 3.56543C6.75293 3.54102 6.9834 3.51733 7.23828 3.49976C7.31055 3.61304 7.36816 3.80981 7.3877 3.96118C7.4248 4.13574 7.7041 4.12354 7.6875 3.9187C7.66992 3.78662 7.64062 3.62842 7.57617 3.48096ZM9.98535 6.39331C9.88379 5.62476 9.75391 4.6438 9.59961 4.02539C9.57617 4.22729 9.47363 4.24146 9.30762 4.10596C9.45508 4.70312 9.59082 5.72339 9.69629 6.5061L9.75684 6.95776C9.81738 7.14795 10.04 7.22168 10.0557 6.91211L9.98535 6.39331ZM7.4502 7.23755C7.50195 6.2981 7.52051 5.34619 7.46191 4.37842C7.39844 4.56323 7.30859 4.63354 7.15918 4.39941C7.21777 5.34961 7.2002 6.2876 7.14746 7.21997C7.19336 7.48584 7.45312 7.43115 7.4502 7.23755ZM8.39355 5.82837C8.40039 5.52905 8.38184 5.25806 8.32812 4.77441C8.24316 4.92554 8.14648 4.96069 8.02832 4.80957C8.0791 5.28979 8.09766 5.53979 8.09082 5.82129C8.18652 5.96729 8.28516 5.99536 8.39355 5.82837ZM9.30078 7.97656C9.2793 6.83643 9.26367 6.14502 9.20703 5.25293C9.12402 5.37964 9.03027 5.43774 8.9043 5.27393C8.96094 6.15894 8.97656 6.84351 8.99805 7.98364C9.13574 8.18237 9.2168 8.07153 9.30078 7.97656ZM4.84668 8.94971C4.7998 8.7666 4.8916 8.42871 5.07129 8.43408C5.39746 8.44287 5.43164 9.38599 5.43164 9.38599C5.43164 9.38599 4.90918 9.19238 4.84668 8.94971ZM5.83984 8.46753C5.84668 8.45166 5.85547 8.43774 5.86816 8.427C5.95117 8.34961 6.15039 8.38843 6.22949 8.4729C6.31934 8.56787 6.21973 8.87402 6.21973 8.87402C6.21973 8.87402 6.03418 8.77856 5.91992 8.66382C5.85645 8.59985 5.81445 8.53003 5.83984 8.46753ZM11.2168 8.36206L11.2393 8.36011C11.3428 8.36377 11.4238 8.54858 11.4102 8.65942C11.3936 8.81592 11.0771 8.97607 11.0771 8.97607C11.0352 8.88867 11.0195 8.7644 11.0322 8.65015C11.0488 8.50903 11.1084 8.3833 11.2168 8.36206ZM11.457 9.75195C11.457 9.75195 11.3984 8.74023 11.7402 8.72095C11.9551 8.7085 12.041 9.13257 11.9814 9.34912C11.9229 9.56714 11.457 9.75195 11.457 9.75195ZM6.67188 9.43872C6.76758 9.28223 6.87695 9.12915 6.98633 9.02539C7.19434 8.83179 7.32227 8.82471 7.53613 9.06055C7.63184 9.17847 7.72461 9.34375 7.7998 9.5127C7.95312 9.84692 8.04199 10.1831 8.04199 10.1831L8.12793 10.5051L8.3125 10.2324C8.3125 10.2324 8.44531 10.0352 8.625 9.8418C8.80664 9.64648 9.04395 9.48267 9.1543 9.48462C9.19141 9.48462 9.34082 9.58301 9.45215 9.70801C9.56152 9.83301 9.64258 9.96143 9.64258 9.96143L9.71973 10.0845L9.84375 10.0107C9.84375 10.0107 9.92578 9.96191 10.0498 9.8999C10.1191 9.86548 10.2002 9.82715 10.2871 9.79077C10.5312 9.69043 10.8271 9.62695 10.9502 9.66919C11.2051 9.75562 11.5098 9.90161 11.7061 10.1003C11.8857 10.2798 11.9834 10.4788 11.9248 10.7673C10.2402 11.1313 7.04199 11.0205 5.01562 10.7603C4.8623 10.5613 4.83887 10.4224 4.8623 10.3098C4.90723 10.1179 5.09766 9.90674 5.32324 9.91553C5.6748 9.92969 5.92578 10.03 6.2959 10.2253L6.35547 10.0723C6.35547 10.0723 6.40918 9.93896 6.49707 9.76025C6.5459 9.66187 6.60547 9.5498 6.67188 9.43872ZM4.12891 9.33154C4.16113 9.27344 4.22266 9.25049 4.29492 9.2522C4.41406 9.25415 4.55957 9.3208 4.62988 9.40186C4.7627 9.55664 4.64648 10.0229 4.64648 10.0229C4.64648 10.0229 3.99023 9.58472 4.12891 9.33154Z"></path></svg>