<svg xmlns="http://www.w3.org/2000/svg" viewBox="0 0 20 23" height="23" width="20"><title>weapons.svg</title><rect fill="none" x="0" y="0" width="20" height="23"></rect><path fill="#5e758d" transform="translate(1 1)" d="M11.1123 15.5334C14.0547 14.3313 16.1289 11.4402 16.1289 8.06445C16.1289 3.6106 12.5186 0 8.06445 0C3.61035 0 0 3.6106 0 8.06445C0 11.4431 2.07812 14.3364 5.02539 15.5366L7.36914 19.5967C7.61133 20.0164 8.1377 20.1086 8.50391 19.873C8.60645 19.8069 8.69727 19.7148 8.76562 19.5967L11.1123 15.5334ZM4.2002 3.40552C4.32812 3.14502 4.49121 3 4.72559 3H5.45117V5.8252H4.72559C4.49121 5.8252 4.32812 5.67944 4.2002 5.41919C4.07227 5.15918 4 4.78711 4 4.4126C4 4.03882 4.07227 3.66602 4.2002 3.40552ZM9.02344 5.8252H5.78613V3H9.02344V5.8252ZM10.084 5.8252H9.3584V3H10.084C10.3184 3 10.4814 3.14502 10.6104 3.40552C10.7363 3.66602 10.8096 4.03882 10.8096 4.4126C10.8096 4.78711 10.7363 5.15918 10.6104 5.41919C10.4814 5.67944 10.3184 5.8252 10.084 5.8252ZM5.45117 6.94629V6.22876H5.78613V6.94629H9.02344V6.22876H9.3584V6.94629H10.8096V9.05371H4V6.94629H5.45117ZM11.1445 7.97754V7.30493H12V7.97754H11.1445ZM5.18164 7.52466L4.86426 7.39917L4.56641 8.47534L4.88477 8.60083L5.18164 7.52466ZM6.07422 7.52466L5.75781 7.39917L5.46094 8.47534L5.77637 8.60083L6.07422 7.52466ZM6.96777 7.52466L6.65137 7.39917L6.35352 8.47534L6.66992 8.60083L6.96777 7.52466ZM4.44629 12.1414L4.81738 9.45752H6.49316C5.98145 9.78027 5.5791 10.2175 5.24512 10.7063C4.93945 11.1548 4.68652 11.6458 4.44629 12.1414ZM5.50293 10.9619C5.91211 10.3611 6.40527 9.86768 7.1084 9.57178L6.65137 12.0562C6.6084 12.1565 6.56641 12.249 6.52441 12.3335C6.42676 12.53 6.33203 12.6826 6.24414 12.7893C6.11523 12.9463 6.00977 13 5.91602 13H4.42285L4.56738 12.6978C4.86035 12.0859 5.14844 11.4817 5.50293 10.9619ZM7.83301 10.1301V9.61426H8.16699V11.0493H7.83301V10.5337H7.27441L7.34863 10.1301H7.83301Z"></path></svg>