<svg xmlns="http://www.w3.org/2000/svg" viewBox="0 0 20 23" height="23" width="20"><title>wholesale.svg</title><rect fill="none" x="0" y="0" width="20" height="23"></rect><path fill="#5e758d" transform="translate(1 1)" d="M11.1123 15.5334C14.0547 14.3313 16.1289 11.4402 16.1289 8.06445C16.1289 3.6106 12.5186 0 8.06445 0C3.61035 0 0 3.6106 0 8.06445C0 11.4431 2.07812 14.3364 5.02539 15.5366L7.36914 19.5967C7.67969 20.1345 8.45508 20.1345 8.76562 19.5967L11.1123 15.5334ZM6.90918 3.16504C7.19629 3.05811 7.60059 3 8.00293 3C8.30859 3 8.61523 3.03369 8.87012 3.09668C8.95117 3.11646 9.02637 3.13916 9.0957 3.16479C9.23828 3.21826 9.35156 3.28442 9.41895 3.34912C9.48633 3.41357 9.50684 3.46289 9.50684 3.52075L9.50586 3.69531H11.7227V3.96558H4.27734V3.69531H6.49219L6.49316 3.52246C6.49414 3.4646 6.51465 3.41431 6.58301 3.34961C6.65137 3.28467 6.76562 3.21826 6.90918 3.16504ZM4.04883 6.12866L4.22949 4.31323H11.7705L11.9512 6.12866H10.5498L10.1992 4.46094L10.3066 6.12866H8.89551L8.57129 4.45776L8.65234 6.12866H7.33984L7.39355 4.45459L7.09766 6.12866H5.69336L5.80078 4.46094L5.4502 6.12866H4.04883ZM4.00586 6.56494L4.01465 6.47632H5.37695L5.36426 6.53516C5.10547 6.96143 4.87109 7.13306 4.67578 7.13306C4.48438 7.13306 4.25684 6.96777 4.00586 6.56494ZM5.66602 6.56323L5.6709 6.47632H7.03613L7.02539 6.53809C6.7666 6.96216 6.5332 7.13306 6.33789 7.13306C6.14648 7.13306 5.91797 6.96875 5.66602 6.56323ZM7.32617 6.56055L7.3291 6.47632H8.66895L8.67285 6.56177C8.4209 6.96851 8.19141 7.13306 8 7.13306C7.93945 7.13306 7.87598 7.11694 7.80859 7.08228C7.66211 7.0061 7.5 6.84058 7.32617 6.56055ZM8.97363 6.53662L8.96289 6.47632H10.3291L10.334 6.56323C10.1846 6.8042 10.043 6.96045 9.91309 7.04785C9.82422 7.10767 9.74023 7.13525 9.66309 7.1355C9.46777 7.13623 9.2334 6.96533 8.97363 6.53662ZM10.6357 6.53516L10.623 6.47632H11.9854L11.9941 6.56494C11.7432 6.96777 11.5156 7.13306 11.3242 7.13306C11.1289 7.13306 10.8945 6.96143 10.6357 6.53516ZM4.67578 7.48071C4.97852 7.48071 5.25195 7.27026 5.50684 6.90723C5.68945 7.16772 5.88184 7.34985 6.08887 7.43164C6.16992 7.46387 6.25293 7.48071 6.33789 7.48071C6.64062 7.48071 6.91406 7.27026 7.16895 6.90723C7.35645 7.17554 7.55566 7.36035 7.76855 7.43872C7.84375 7.46631 7.9209 7.48071 8 7.48071C8.30273 7.48071 8.57715 7.27051 8.83105 6.90747C9.06641 7.24463 9.31738 7.44995 9.59375 7.47949L9.66406 7.48315C9.7998 7.48291 9.92871 7.44043 10.0527 7.36108C10.207 7.26294 10.3525 7.1084 10.4932 6.90747C10.748 7.27051 11.0215 7.48071 11.3242 7.48071C11.5664 7.48071 11.79 7.34741 12 7.10864V12H11.4805V7.98291H9.50684V12H4V7.10864C4.20996 7.34741 4.43359 7.48071 4.67578 7.48071ZM8.9873 7.98291H4.51953V11.4207H8.9873V7.98291ZM4.83105 11.073V8.33057H8.67578V11.073H4.83105ZM9.81836 9.70288V8.33057H11.1689V9.71411L9.81836 9.70288ZM7.30762 8.62012H5.09082V10.8047C5.29297 9.08374 5.43359 8.77466 7.30762 8.62012ZM9.81836 10.321V10.0505L11.1689 10.0615V10.332L9.81836 10.321ZM9.81836 12V10.6687L11.1689 10.6797V12H9.81836Z"></path></svg>