<svg xmlns="http://www.w3.org/2000/svg" viewBox="0 0 21 24" height="24" width="21"><title>winter_sports.svg</title><rect fill="none" x="0" y="0" width="21" height="24"></rect><path fill="#598017" transform="translate(2 2)" d="M11.1123 15.5334C14.0547 14.3313 16.1289 11.4402 16.1289 8.06445C16.1289 3.6106 12.5186 0 8.06445 0C3.61035 0 0 3.6106 0 8.06445C0 11.4431 2.07812 14.3364 5.02539 15.5366L7.36914 19.5967C7.67969 20.1345 8.45508 20.1345 8.76562 19.5967L11.1123 15.5334ZM7.87793 4.55371C7.87793 4.86157 7.61133 5.10889 7.28125 5.10889C7.14062 5.10889 7.01172 5.06421 6.90918 4.98901C6.77148 4.88745 6.68359 4.73047 6.68359 4.55371C6.68359 4.24902 6.95117 4 7.28125 4C7.61133 4 7.87793 4.24902 7.87793 4.55371ZM10.8271 9.55005H7.98438L7.74609 10H10.8574C11.1758 9.96704 11.3643 9.82471 11.3643 9.82471L12 9.38403V8.88599L11.377 9.30811C11.0117 9.58008 10.8271 9.55005 10.8271 9.55005ZM6.86816 10H4.02344H4L4.2373 9.55005H7.10449L6.86816 10ZM6.95801 5.22852C7.28711 5.22852 7.58203 5.48584 7.58203 5.80273L7.58008 6.41016L8.36426 6.41504C8.47461 6.41675 8.58105 6.48706 8.62305 6.5957C8.67969 6.73462 8.60742 6.90454 8.46094 6.95654C8.42383 6.97168 8.38574 7 8.34863 7H7.5V7.29932L8.49414 7.65527L9 6.86279L8.61523 6.24634C8.59375 6.19775 8.61914 6.14526 8.6416 6.09937C8.65527 6.07178 8.66699 6.04663 8.66699 6.02612C8.83301 5.95337 8.90039 5.96191 8.97656 6.04492L8.99805 6.05371L9.5166 6.8855L10.4824 7.04224C10.8906 7.10181 11 7.30005 11 7.30005L11.4824 8.11499L10.2041 9.02661C9.88477 9.26733 9.66699 9.25 9.66699 9.25H4.83301C4.71387 9.25 4.5293 9.12646 4.5293 9.01123C4.5293 8.97729 4.53613 8.91602 4.55176 8.88745L5.27441 7.6001H6.61035C6.47754 7.6001 6.33301 7.38428 6.33301 7.20654V5.80273C6.33301 5.48584 6.62793 5.22852 6.95801 5.22852Z"></path></svg>