<svg xmlns="http://www.w3.org/2000/svg" viewBox="0 0 17 20" height="20" width="17"><title>zoo.svg</title><rect fill="none" x="0" y="0" width="17" height="20"></rect><path fill="#5e758d" transform="translate(0 0)" d="M11.1123 15.5334C14.0547 14.3313 16.1289 11.4402 16.1289 8.06445C16.1289 3.6106 12.5186 0 8.06445 0C3.61035 0 0 3.6106 0 8.06445C0 11.4431 2.07812 14.3364 5.02539 15.5366L7.36914 19.5967C7.67969 20.1345 8.45508 20.1345 8.76562 19.5967L11.1123 15.5334ZM12.4648 8.76147L12.4863 8.82275C12.4961 8.84839 12.501 8.87549 12.5 8.90283C12.499 8.93018 12.4932 8.95728 12.4824 8.98218C12.4717 9.00708 12.4561 9.02979 12.4365 9.04858C12.417 9.06738 12.3945 9.08203 12.3691 9.09155C12.3193 9.11157 12.2637 9.10986 12.2148 9.0874C12.1885 9.0752 12.165 9.05737 12.1465 9.03564C12.1299 9.01709 12.1172 8.99536 12.1084 8.97144L12.085 8.90649C12.0332 8.76221 11.9795 8.61304 11.8818 8.55322C11.8193 8.51465 11.7373 8.49194 11.6484 8.47314C11.6758 8.57349 11.6914 8.68457 11.6914 8.81006V9.33765C11.6914 9.86572 11.084 10.3684 11.084 10.9221V11.4502C11.084 11.8611 11.1816 12.0386 11.3105 12.2305C11.4307 12.4084 11.5781 12.5991 11.7021 13H11.1885L10.0723 10.9167V13H9.66699V10.3943L9.16113 9.86597C8.64844 9.86597 8.65527 10.3943 8.65527 10.3943V13H8.04785V10.658L7.56543 11.4329L7.08398 13H6.57031L7.33203 9.69971C7.03613 9.51392 7.03613 9.18896 7.03613 8.83032V8.80981V7.2251L5.00781 4.32031L4.28418 4.55542C4.12988 4.60449 4 4.58423 4 4.45239C4 4.2356 4.11426 4.15723 4.20508 4.09546L4.25879 4.05615L5.54199 3C6.56836 4.58423 7.48047 5.64331 8.61816 6.69678C9.41113 7.43213 10.6855 7.44629 11.3145 7.96631L11.3232 7.96948L11.3809 7.99023C11.4541 8.01099 11.5283 8.02759 11.6035 8.03979C11.6611 8.05054 11.7227 8.06177 11.7842 8.07642C11.8887 8.10132 11.9941 8.13623 12.0908 8.19531C12.3096 8.33057 12.3955 8.56934 12.4648 8.76147Z"></path></svg>